<?xml version="1.0" standalone="no"?>
<!DOCTYPE svg PUBLIC "-//W3C//DTD SVG 1.1//EN" "http://www.w3.org/Graphics/SVG/1.1/DTD/svg11.dtd">
<svg xmlns="http://www.w3.org/2000/svg"><metadata>This SVG WebFont was generated by YouWorkForThem.
Copyright (c) 2016 by JC Design / Jan-Christian Bruun. All rights reserved.</metadata><defs><font horiz-adv-x="946" id="ywftsvg"><font-face ascent="1536" bbox="-428 -565 2191 1937" cap-height="1350" descent="-512" font-family="" font-stretch="normal" font-weight="300" panose-1="2 11 4 3 3 4 3 9 2 4" underline-position="0" underline-thickness="0" unicode-range="U+000D-FEFF" units-per-em="2048" x-height="983"/><missing-glyph d="M82 0l266 1352h875l-267 -1352h-874zM666 756h8l145 190l238 326h-563l104 -326zM227 80h613l-115 338l-76 211h-8l-162 -211zM211 166l389 530l-180 535zM897 166l219 1065l-397 -535z" horiz-adv-x="1245"/><glyph d="M811 983l41 205q59 289 270 289q74 0 152 -41l-35 -68q-61 35 -117 35q-72 0 -119 -59.5t-67 -155.5l-41 -205h215l-16 -74h-213l-185 -909h-84l185 909h-435l-182 -909h-84l183 909h-129l16 74h127l41 205q70 289 289 289q82 0 172 -41l-37 -68q-74 35 -135 35 q-78 0 -131.5 -59.5t-73.5 -155.5l-41 -205h434z" glyph-name="uniFB00" horiz-adv-x="1040" unicode="ff"/><glyph d="M805 909l-133 -645q-8 -33 -8 -78q0 -70 30.5 -103.5t108.5 -33.5q55 0 143 39l-20 -82q-66 -31 -140 -31q-207 0 -206 195q0 57 8 98l133 641h-359l-182 -909h-84l183 909h-129l12 74h131l45 225q59 289 270 289q68 0 154 -41l-37 -67q-57 35 -117 34q-70 0 -118 -59 t-68 -156l-45 -225h356l55 244l95 37l-62 -281h266l-16 -74h-266z" glyph-name="f_t.liga" horiz-adv-x="1042" unicode="ft"/><glyph d="M82 0l266 1352h875l-267 -1352h-874zM666 756h8l145 190l238 326h-563l104 -326zM227 80h613l-115 338l-76 211h-8l-162 -211zM211 166l389 530l-180 535zM897 166l219 1065l-397 -535z" glyph-name=".notdef" horiz-adv-x="1245"/><glyph glyph-name="glyph1" horiz-adv-x="0"/><glyph glyph-name="glyph2" horiz-adv-x="681"/><glyph glyph-name="glyph3" horiz-adv-x="0"/><glyph glyph-name="glyph3" horiz-adv-x="0"/><glyph glyph-name="space" horiz-adv-x="387" unicode=" "/><glyph d="M195 367l161 862l27 147h84l-29 -147l-178 -862h-65zM156 -25q-31 0 -50.5 20.5t-19.5 51.5q0 43 29.5 76t70.5 33q66 0 66 -76q0 -43 -27.5 -74t-68.5 -31z" glyph-name="exclam" horiz-adv-x="518" unicode="!"/><glyph d="M270 950l49 279l27 147h84l-29 -147l-67 -279h-64zM545 950l49 279l27 147h84l-29 -147l-68 -279h-63z" glyph-name="quotedbl" horiz-adv-x="710" unicode="&quot;"/><glyph d="M84 0l137 438h-166l19 74h168l106 348h-170l21 74h174l125 397h71l-125 -397h287l125 397h72l-125 -397h166l-21 -74h-168l-106 -348h170l-19 -74h-176l-137 -438h-70l138 438h-289l-137 -438h-70zM313 512h291l107 348h-291z" glyph-name="numbersign" horiz-adv-x="950" unicode="#"/><glyph d="M717 1536l-43 -207q145 -23 237 -106l-61 -56q-102 94 -244 95q-115 0 -190.5 -70t-75.5 -178q0 -66 33 -122t83 -93t108.5 -83t108.5 -90t82.5 -115t32.5 -157q0 -158 -105 -266t-271 -113l-39 -200h-74l41 205q-193 16 -293 116l64 56q98 -102 292 -103q129 0 215.5 81 t86.5 208q0 92 -46.5 166t-113 124t-132 99t-111.5 117.5t-46 154.5q0 143 97.5 237.5t248.5 98.5l41 201h74z" glyph-name="dollar" unicode="$"/><glyph d="M368.5 528q-112.5 0 -173 85t-60.5 218q0 125 39 246t124 210t197.5 89t173 -84t60.5 -217q0 -125 -39 -246.5t-124 -211t-197.5 -89.5zM373 592q88 0 154.5 79t96 184.5t29.5 207.5q0 113 -39 181.5t-122 68.5q-88 0 -155 -79t-96.5 -183.5t-29.5 -208.5 q0 -113 39 -181.5t123 -68.5zM268 -25l1004 1401h74l-1004 -1401h-74zM1128.5 -25q-112.5 0 -173 85t-60.5 219q0 125 39 245.5t124 209.5t197.5 89t173 -84t60.5 -217q0 -125 -39 -246.5t-124 -211t-197.5 -89.5zM1133 39q88 0 154.5 79t96 184.5t29.5 207.5 q0 113 -39 181.5t-123 68.5q-88 0 -154.5 -79t-96 -183.5t-29.5 -208.5q0 -113 39 -181.5t123 -68.5z" glyph-name="percent" horiz-adv-x="1572" unicode="%"/><glyph d="M119 293q0 -111 68.5 -178.5t174.5 -67.5q160 0 324 148q-188 215 -276 481q-139 -92 -215 -180t-76 -203zM432 991q0 -88 27 -198q104 66 164.5 109.5t111.5 117.5t51 151q0 59 -28.5 96.5t-87.5 37.5q-104 0 -171 -89.5t-67 -224.5zM1038 705l60 -43 q-45 -102 -125 -228q-80 -129 -178 -233q115 -111 211 -156l-58 -70q-88 53 -215 166q-182 -166 -389 -166q-137 0 -224 83t-87 221q0 102 55 194t124 149.5t175 125.5q-35 127 -35 235q0 172 95.5 281.5t228.5 109.5q92 0 140 -54t48 -136q0 -76 -30.5 -142.5t-93 -125 t-118 -98.5t-143.5 -95q86 -268 266 -471q154 156 293 453z" glyph-name="ampersand" horiz-adv-x="1132" unicode="&amp;"/><glyph d="M270 950l49 279l27 147h84l-29 -147l-67 -279h-64z" glyph-name="quotesingle" horiz-adv-x="436" unicode="'"/><glyph d="M317 -338l-59 -20q-115 303 -115 632q0 340 120 630t355 591l54 -35q-451 -551 -451 -1200q0 -358 96 -598z" glyph-name="parenleft" horiz-adv-x="548" unicode="("/><glyph d="M-53 -358l-51 36q449 557 448 1201q0 365 -94 598l57 18q115 -279 115 -631q0 -342 -119.5 -630.5t-355.5 -591.5z" glyph-name="parenright" horiz-adv-x="552" unicode=")"/><glyph d="M362 969l-40 37l133 170l-170 92l22 51l191 -66l45 205l57 -4l-16 -207l196 29l11 -55l-201 -58l78 -188l-52 -31l-98 174z" glyph-name="asterisk" horiz-adv-x="782" unicode="*"/><glyph d="M463 221v422h-365v70h367v409h74v-409h366v-70h-366v-422h-76z" glyph-name="plus" unicode="+"/><glyph d="M137 -14h-10q-33 0 -53.5 19.5t-20.5 51.5q0 37 26.5 68t67.5 31q37 0 58.5 -28t21.5 -73q0 -119 -78.5 -221t-197.5 -143l-19 61q86 37 139.5 98.5t65.5 135.5z" glyph-name="comma" horiz-adv-x="436" unicode=","/><glyph d="M74 475l14 76h430l-16 -76h-428z" glyph-name="hyphen" horiz-adv-x="587" unicode="-"/><glyph d="M113 -25q-31 0 -49.5 20.5t-18.5 51.5q0 43 29.5 76t70.5 33q63 0 64 -76q0 -43 -27.5 -74t-68.5 -31z" glyph-name="period" horiz-adv-x="436" unicode="."/><glyph d="M-150 -328l963 1782h74l-965 -1782h-72z" glyph-name="slash" horiz-adv-x="710" unicode="/"/><glyph d="M389 -25q-145 0 -221 124t-76 307q0 221 67.5 433t189.5 353t263 141q143 0 219 -127t76 -307q0 -219 -66.5 -431t-187.5 -352.5t-264 -140.5zM391 49q117 0 219.5 135t158.5 329t56 378q0 160 -54 265.5t-165 105.5q-117 0 -219 -138.5t-157.5 -332t-55.5 -377.5 q0 -158 54 -261.5t163 -103.5z" glyph-name="zero" unicode="0"/><glyph d="M61 0l17 74h293l229 1138l-262 -114l-31 57l328 154h70l-250 -1235h280l-12 -74h-662z" glyph-name="one" unicode="1"/><glyph d="M-14 0l10 41q61 207 288.5 354.5t329.5 241.5q195 174 195 377q0 109 -62.5 177.5t-183.5 68.5q-164 0 -299 -121l-49 61q168 133 356 133q154 0 238 -85t84 -220q0 -217 -191 -416q-98 -102 -323 -243q-223 -137 -270 -293h657l-12 -76h-768z" glyph-name="two" unicode="2"/><glyph d="M453 762q160 -16 265 -120.5t105 -256.5q0 -182 -129 -296t-332 -114q-227 0 -372 220l59 47q135 -193 322 -193q160 0 264 93.5t104 232.5q0 133 -95 229t-300 96l16 72l422 459v4h-532l20 74h621l-17 -82l-421 -459v-6z" glyph-name="three" unicode="3"/><glyph d="M588 0h-82l78 387h-541l-18 53l747 869h78l-170 -848h221l-14 -74h-221zM137 461h461l143 696h-8z" glyph-name="four" unicode="4"/><glyph d="M356 -25q-238 0 -362 215l61 48q53 -86 123 -137.5t189 -51.5q154 0 266 117t112 295q0 143 -71.5 216t-198.5 73q-111 0 -235 -72l-45 35l163 596h564l-45 -74h-459l-127 -463q94 49 198 49q154 0 247 -89t93 -255q0 -221 -139 -361.5t-334 -140.5z" glyph-name="five" unicode="5"/><glyph d="M516 705q-141 0 -235 -91q-92 -90 -93 -223q0 -143 71 -243.5t190 -100.5q125 0 219 112.5t94 258.5q0 133 -62.5 210t-183.5 77zM954 1214l-63 -53q-76 98 -205 99q-172 4 -306 -179.5t-177 -455.5q123 154 325 153q147 0 231.5 -93t84.5 -247q0 -193 -118 -328 t-284 -135q-152 0 -244 121t-92 310q0 399 168 663t418 264q174 0 262 -119z" glyph-name="six" unicode="6"/><glyph d="M362 0h-92q92 410 230.5 693.5t400.5 541.5h-672l17 74h774l-10 -58q-289 -276 -427.5 -563t-220.5 -688z" glyph-name="seven" unicode="7"/><glyph d="M440 -25q-152 0 -261 89.5t-109 250.5q0 145 94 255t237 149v8q-131 100 -131 262q0 158 105.5 251t253.5 93q127 0 216 -78.5t89 -220.5q0 -131 -70.5 -222t-177.5 -122v-8q66 -33 113 -111q57 -86 57 -217q0 -172 -121 -275.5t-295 -103.5zM813 866q41 104 41 160 q0 111 -67.5 174.5t-163.5 63.5q-111 0 -192 -74t-81 -195q0 -129 99 -215q63 -51 173.5 -45t190.5 131zM442 45q137 0 228 78q47 37 75.5 109.5t28.5 146.5q0 113 -74.5 203t-205.5 88q-152 -2 -263 -131q-80 -92 -79 -215q0 -131 85.5 -205t204.5 -74z" glyph-name="eight" unicode="8"/><glyph d="M483 604q145 0 236 88q92 90 92 226q0 143 -70.5 243.5t-189.5 100.5q-125 0 -219 -113t-94 -258q0 -133 62 -210t183 -77zM45 94l64 53q76 -98 204 -98q174 0 307.5 181.5t176.5 459.5q-117 -160 -326 -160q-147 0 -231 93.5t-84 246.5q0 193 117.5 328t283.5 135 q152 0 244 -120.5t92 -309.5q0 -399 -168 -663.5t-418 -264.5q-172 0 -262 119z" glyph-name="nine" unicode="9"/><glyph d="M252 774q-31 0 -49.5 20.5t-18.5 51.5q0 43 30 75.5t71 32.5q63 0 63 -75q0 -43 -27.5 -74t-68.5 -31zM113 -25q-31 0 -49.5 20.5t-18.5 51.5q0 43 29.5 76t70.5 33q63 0 64 -76q0 -43 -27.5 -74t-68.5 -31z" glyph-name="colon" horiz-adv-x="436" unicode=":"/><glyph d="M252 774q-31 0 -49.5 20.5t-18.5 51.5q0 43 30 75.5t71 32.5q63 0 63 -75q0 -43 -27.5 -74t-68.5 -31zM137 -14h-10q-33 0 -53.5 19.5t-20.5 51.5q0 37 26.5 68t67.5 31q37 0 58.5 -28t21.5 -73q0 -119 -78.5 -221t-197.5 -143l-19 61q86 37 139.5 98.5t65.5 135.5z" glyph-name="semicolon" horiz-adv-x="436" unicode=";"/><glyph d="M905 307l-811 332v74l811 331v-77l-456 -185l-252 -102v-8l252 -101l456 -184v-80z" glyph-name="less" unicode="&lt;"/><glyph d="M98 848v70h807v-70h-807zM98 436v70h807v-70h-807z" glyph-name="equal" unicode="="/><glyph d="M98 307v80l457 184l252 101v8l-252 102l-457 185v77l811 -331v-74z" glyph-name="greater" unicode=">"/><glyph d="M371 369l-76 6q4 98 50 184t108.5 148.5t124 122t104.5 132t43 150.5q0 100 -53.5 155.5t-147.5 55.5q-131 0 -248 -76l-51 64q143 86 307 86q129 0 203 -71t74 -198q0 -92 -44 -175t-106.5 -145.5t-126 -124.5t-110.5 -143t-51 -171zM266 -25q-31 0 -49 20.5t-18 51.5 q0 43 29.5 76t70.5 33q63 0 63 -76q0 -43 -27.5 -74t-68.5 -31z" glyph-name="question" horiz-adv-x="794" unicode="?"/><glyph d="M688 -297q-262 0 -428 171t-166 462q0 201 74 380t193.5 304t275.5 198.5t319 73.5q270 0 421 -162.5t151 -429.5q0 -270 -119 -432t-276 -162q-72 0 -117 42t-60 114h-4q-119 -139 -235 -139q-92 0 -158.5 70.5t-66.5 195.5q0 182 115.5 328.5t275.5 146.5 q98 0 153 -104h4l21 88h69l-98 -436q-27 -106 1 -172t114 -66q117 0 212 142.5t95 369.5q0 246 -130 392.5t-374 146.5q-145 0 -286.5 -67.5t-251 -182.5t-177 -280t-67.5 -345q0 -270 146.5 -424.5t379.5 -154.5q166 0 297 75l31 -57q-148 -86 -334 -86zM727 193 q109 0 213 141l80 354q-61 109 -139 109q-133 0 -223.5 -126t-90.5 -268q0 -104 45 -157t115 -53z" glyph-name="at" horiz-adv-x="1603" unicode="@"/><glyph d="M291 541h467l-78 708h-8zM819 0l-53 469h-514l-252 -469h-98l743 1350h96l166 -1350h-88z" glyph-name="A" horiz-adv-x="999" unicode="A"/><glyph d="M80 0l268 1350h332q190 0 292.5 -77t102.5 -216q0 -137 -95 -228.5t-210 -109.5v-8q254 -63 254 -287q0 -209 -147.5 -316.5t-397.5 -107.5h-399zM315 752h230q217 0 329.5 80.5t112.5 216.5q0 227 -342 227h-223zM180 74h269q489 0 489 344q0 119 -95 190.5t-265 71.5 h-275z" glyph-name="B" horiz-adv-x="1169" unicode="B"/><glyph d="M575 -25q-219 0 -337.5 147.5t-118.5 385.5q0 207 80 402.5t240.5 329.5t363.5 134q182 0 315 -129l-65 -55q-102 109 -256 108q-133 0 -248 -72.5t-187.5 -188t-113.5 -251t-41 -266.5q0 -211 95 -340t284 -129q199 0 319 99l47 -66q-137 -109 -377 -109z" glyph-name="C" horiz-adv-x="1105" unicode="C"/><glyph d="M80 0l268 1350h223q272 0 414.5 -140.5t142.5 -384.5q0 -362 -190 -593.5t-530 -231.5h-328zM180 74h230q291 0 460.5 214t169.5 531q0 211 -120.5 334t-352.5 123h-147z" glyph-name="D" horiz-adv-x="1181" unicode="D"/><glyph d="M80 0l268 1350h713l-37 -76h-604l-105 -520h394l-17 -76h-389l-123 -602h643l-16 -76h-727z" glyph-name="E" horiz-adv-x="1001" unicode="E"/><glyph d="M80 0l268 1350h713l-47 -76h-594l-109 -547h389l-16 -76h-385l-131 -651h-88z" glyph-name="F" horiz-adv-x="931" unicode="F"/><glyph d="M596 -25q-233 0 -355 144.5t-122 388.5q0 211 80 405.5t244.5 327.5t379.5 133q203 0 318 -125l-62 -57q-106 106 -262 106q-182 0 -326.5 -124.5t-214 -300t-69.5 -353.5q0 -209 97 -339t302 -130q164 0 277 103l90 460l96 45l-113 -548q-159 -136 -360 -136z" glyph-name="G" horiz-adv-x="1177" unicode="G"/><glyph d="M80 0l268 1350h88l-121 -596h697l121 596h88l-271 -1350h-88l137 678h-696l-135 -678h-88z" glyph-name="H" horiz-adv-x="1239" unicode="H"/><glyph d="M80 0l268 1350h88l-268 -1350h-88z" glyph-name="I" horiz-adv-x="464" unicode="I"/><glyph d="M307 -25q-225 0 -305 209l68 41q55 -174 239 -174q113 0 185.5 82t103.5 229l197 988h88l-199 -998q-31 -176 -128 -276.5t-249 -100.5z" glyph-name="J" horiz-adv-x="892" unicode="J"/><glyph d="M80 0l268 1350h88l-145 -734h4l774 734h105l-512 -498l313 -852h-96l-285 795l-328 -308l-98 -487h-88z" glyph-name="K" horiz-adv-x="1089" unicode="K"/><glyph d="M80 0l268 1350h88l-252 -1274h600l-16 -76h-688z" glyph-name="L" horiz-adv-x="901" unicode="L"/><glyph d="M80 0l268 1350h127l184 -1067h9l589 1067h125l-270 -1350h-86l244 1219h-6l-588 -1067h-76l-182 1067h-8l-246 -1219h-84z" glyph-name="M" horiz-adv-x="1400" unicode="M"/><glyph d="M80 0l268 1350h94l447 -1203h8l238 1203h88l-271 -1350h-90l-448 1210h-8l-240 -1210h-86z" glyph-name="N" horiz-adv-x="1239" unicode="N"/><glyph d="M567 -25q-215 0 -328.5 153t-113.5 409q0 143 45 289.5t124 269.5t204 200.5t268 77.5q215 0 328.5 -152.5t113.5 -408.5q0 -143 -45 -289.5t-123.5 -269.5t-204 -201t-268.5 -78zM573 51q164 0 293 124t191.5 293t62.5 335q0 231 -88 363t-272 132q-162 0 -291 -123.5 t-191.5 -292.5t-62.5 -335q0 -231 88 -363.5t270 -132.5z" glyph-name="O" horiz-adv-x="1265" unicode="O"/><glyph d="M80 0l268 1350h354q401 0 402 -314q0 -221 -152.5 -335.5t-419.5 -114.5h-249l-115 -586h-88zM299 659h225q492 0 492 369q0 131 -86 189.5t-264 58.5h-246z" glyph-name="P" horiz-adv-x="1087" unicode="P"/><glyph d="M215 547q0 -231 88 -363.5t270 -132.5q164 0 293 124t191.5 293t62.5 335q0 231 -88 363t-272 132q-162 0 -291 -123.5t-191.5 -292.5t-62.5 -335zM1016 -223l-105 -90q-158 0 -269.5 73.5t-147.5 221.5q-180 25 -274.5 173t-94.5 382q0 143 45 289.5t124 269.5 t204 200.5t268 77.5q215 0 328.5 -152.5t113.5 -408.5q0 -193 -72.5 -379t-220 -320t-333.5 -139q31 -104 120 -157.5t216 -53.5q49 1 98 13z" glyph-name="Q" horiz-adv-x="1265" unicode="Q"/><glyph d="M307 690h236q217 0 335.5 93.5t118.5 260.5q0 125 -85 178.5t-263 53.5h-229zM348 1350h340q397 0 397 -297q0 -178 -118.5 -294t-311.5 -136l256 -623h-98l-250 616h-272l-123 -616h-88z" glyph-name="R" horiz-adv-x="1087" unicode="R"/><glyph d="M465 -25q-246 0 -432 170l73 45q160 -139 369 -139q147 0 245.5 86t98.5 225q0 150 -174 254l-174 103q-211 129 -211 307q0 143 110.5 245.5t278.5 102.5q209 0 365 -112l-78 -58q-139 94 -299 94q-125 0 -206 -80.5t-81 -181.5q0 -145 178 -248l170 -98 q211 -123 211 -317q0 -176 -125.5 -287t-318.5 -111z" glyph-name="S" horiz-adv-x="1009" unicode="S"/><glyph d="M360 0l254 1270h-413l16 80h916l-17 -80h-414l-253 -1270h-89z" glyph-name="T" horiz-adv-x="1017" unicode="T"/><glyph d="M184 551l160 799h88l-158 -791q-20 -80 -20 -166q0 -342 313 -342q137 0 240.5 108.5t150.5 336.5l170 854h89l-175 -867q-53 -266 -181 -387t-302 -121q-186 0 -289.5 103.5t-103.5 298.5q0 90 18 174z" glyph-name="U" horiz-adv-x="1228" unicode="U"/><glyph d="M297 0l-127 1350h86l111 -1252h8l643 1252h90l-709 -1350h-102z" glyph-name="V" horiz-adv-x="948" unicode="V"/><glyph d="M217 0l2 1350h88l-12 -1219h8l571 1219h91l43 -1219h8l510 1219h90l-576 -1350h-110l-29 1229h-8l-565 -1229h-111z" glyph-name="W" horiz-adv-x="1503" unicode="W"/><glyph d="M-74 0l529 702l-232 648h92l201 -588h6l434 588h95l-498 -660l252 -690h-92l-221 633h-5l-467 -633h-94z" glyph-name="X" horiz-adv-x="940" unicode="X"/><glyph d="M287 0l110 551l-223 799h90l189 -717h8l489 717h94l-559 -799l-110 -551h-88z" glyph-name="Y" horiz-adv-x="886" unicode="Y"/><glyph d="M2 0l12 53l914 1221h-666l17 76h770l-11 -54l-909 -1220h735l-16 -76h-846z" glyph-name="Z" horiz-adv-x="1034" unicode="Z"/><glyph d="M31 -311l352 1761h309l-6 -57h-248l-327 -1647h243l-14 -57h-309z" glyph-name="bracketleft" horiz-adv-x="552" unicode="["/><glyph d="M469 -328l-287 1782h66l287 -1782h-66z" glyph-name="backslash" horiz-adv-x="710" unicode="\"/><glyph d="M-123 -311l12 57h244l334 1647h-248l10 57h314l-353 -1761h-313z" glyph-name="bracketright" horiz-adv-x="552" unicode="]"/><glyph d="M184 590l295 782h70l297 -782h-74l-156 416l-98 270h-4l-96 -270l-156 -416h-78z" glyph-name="asciicircum" horiz-adv-x="950" unicode="^"/><glyph d="M-59 -236l16 70h936l-14 -70h-938z" glyph-name="underscore" horiz-adv-x="991" unicode="_"/><glyph d="M748 1167l-244 330l76 55l223 -344z" glyph-name="grave" horiz-adv-x="1040" unicode="`"/><glyph d="M377 -25q-131 0 -209 92.5t-78 262.5q0 279 163 478.5t372 199.5q162 0 254 -160h6l30 135h78l-196 -983h-82l33 156h-9q-174 -181 -362 -181zM395 49q188 0 369 213l102 494q-98 178 -243 178q-174 0 -310.5 -182.5t-136.5 -405.5q0 -147 57.5 -222t161.5 -75z" glyph-name="a" horiz-adv-x="1079" unicode="a"/><glyph d="M168 0h-86l270 1352l94 43l-108 -549h4q186 162 356 162q133 0 210 -92.5t77 -262.5q0 -279 -163 -478.5t-369 -199.5q-162 0 -254 160h-6zM680 934q-80 0 -178.5 -50t-184.5 -132l-106 -525q98 -178 242 -178q174 0 311 182.5t137 407.5q0 145 -58.5 220t-162.5 75z" glyph-name="b" horiz-adv-x="1077" unicode="b"/><glyph d="M434 -25q-162 0 -255 102.5t-93 287.5q0 274 162 458.5t368 184.5q135 0 248 -78l-53 -66q-96 70 -201 70q-170 0 -304 -167t-134 -390q0 -328 272 -328q133 0 254 74l43 -70q-129 -78 -307 -78z" glyph-name="c" horiz-adv-x="880" unicode="c"/><glyph d="M883 850l102 504l92 37l-280 -1391h-82l33 156h-9q-174 -180 -362 -181q-131 0 -209 92.5t-78 262.5q0 279 163 478.5t372 199.5q170 0 249 -158h9zM395 49q188 0 369 213l102 494q-98 178 -243 178q-174 0 -310.5 -182.5t-136.5 -405.5q0 -147 57.5 -222t161.5 -75z" glyph-name="d" horiz-adv-x="1081" unicode="d"/><glyph d="M86 381q0 268 156.5 447.5t355.5 179.5q295 0 295 -349q0 -57 -21 -172h-692q-37 -219 49 -329.5t244 -110.5q143 0 256 90l53 -55q-133 -106 -321 -107q-174 0 -274.5 105.5t-100.5 300.5zM193 547h610q12 66 12 125q0 113 -53 188.5t-172 75.5q-133 0 -245.5 -107.5 t-151.5 -281.5z" glyph-name="e" horiz-adv-x="964" unicode="e"/><glyph d="M150 909l14 74h129l45 225q59 289 270 289q78 0 154 -45l-37 -63q-57 35 -117 34q-70 0 -118 -59t-68 -156l-45 -225h217l-16 -74h-218l-180 -909h-84l180 909h-126z" glyph-name="f" horiz-adv-x="524" unicode="f"/><glyph d="M342 -473q-168 0 -334 135l47 62q133 -123 291 -123q274 0 344 346l49 229q-186 -180 -364 -180q-131 0 -208 91t-77 259q0 268 161 465t361 197q168 0 252 -160h8l27 135h82l-215 -1067q-37 -186 -145.5 -287.5t-278.5 -101.5zM391 72q82 0 179.5 53t181.5 145l102 486 q-102 178 -244 178q-164 0 -299 -180.5t-135 -393.5q0 -143 56.5 -215.5t158.5 -72.5z" glyph-name="g" horiz-adv-x="1067" unicode="g"/><glyph d="M82 0l270 1352l92 37l-112 -564h8q178 182 348 183q233 0 234 -240q0 -68 -17 -133l-127 -635h-84l127 623q16 94 17 127q0 94 -42 138t-134 44q-141 0 -349 -207l-145 -725h-86z" glyph-name="h" horiz-adv-x="1032" unicode="h"/><glyph d="M82 0l199 983h84l-197 -983h-86zM375 1221q-29 0 -48.5 19.5t-19.5 47.5q0 41 24.5 66.5t61.5 25.5q29 0 48.5 -18.5t19.5 -50.5q0 -39 -25.5 -64.5t-60.5 -25.5z" glyph-name="i" horiz-adv-x="450" unicode="i"/><glyph d="M-117 -469l-22 74q76 6 116.5 56t65.5 149l238 1173h84l-234 -1163q-31 -137 -89.5 -208t-158.5 -81zM377 1221q-29 0 -49.5 19.5t-20.5 47.5q0 41 24.5 66.5t61.5 25.5q31 0 50.5 -19.5t19.5 -49.5q0 -37 -26.5 -63.5t-59.5 -26.5z" glyph-name="j" horiz-adv-x="450" unicode="j"/><glyph d="M82 0l270 1352l92 39l-198 -1002h6l582 594h102l-385 -399l242 -584h-93l-213 528l-268 -272l-51 -256h-86z" glyph-name="k" horiz-adv-x="915" unicode="k"/><glyph d="M168 0h-86l270 1354l92 35z" glyph-name="l" horiz-adv-x="475" unicode="l"/><glyph d="M82 0l199 983h81l-34 -156h8q195 180 328 181q215 0 227 -205q215 205 358 205q231 0 232 -240q0 -68 -17 -133l-127 -635h-86l127 623q16 68 17 127q0 94 -40 138t-130 44q-53 0 -142.5 -52.5t-185.5 -154.5l-145 -725h-84l125 623q16 68 16 127q0 94 -40 138t-130 44 q-53 0 -141 -52.5t-185 -154.5l-145 -725h-86z" glyph-name="m" horiz-adv-x="1601" unicode="m"/><glyph d="M82 0l199 983h79l-32 -156h8q106 90 187 135.5t165 45.5q233 0 234 -240q0 -68 -17 -133l-127 -635h-84l127 623q16 94 17 127q0 94 -42 138t-134 44q-141 0 -349 -207l-145 -725h-86z" glyph-name="n" horiz-adv-x="1044" unicode="n"/><glyph d="M422 -25q-154 0 -243 102.5t-89 287.5q0 268 155.5 455.5t362.5 187.5q156 0 245 -102.5t89 -287.5q0 -268 -156.5 -455.5t-363.5 -187.5zM430 49q162 0 294 168t132 391q0 160 -65.5 243t-188.5 83q-164 0 -296 -168t-132 -389q0 -160 66.5 -244t189.5 -84z" glyph-name="o" horiz-adv-x="1032" unicode="o"/><glyph d="M193 133l-109 -532l-90 -45l287 1427h81l-32 -139h8q195 164 360 164q133 0 210 -92.5t77 -262.5q0 -279 -163 -478.5t-369 -199.5q-166 0 -256 158h-4zM680 934q-80 0 -178.5 -51.5t-184.5 -132.5l-106 -531q98 -170 242 -170q174 0 311 182.5t137 407.5 q0 145 -58.5 220t-162.5 75z" glyph-name="p" horiz-adv-x="1073" unicode="p"/><glyph d="M623 -444l120 604h-4q-170 -184 -362 -185q-131 0 -209 92.5t-78 262.5q0 279 163 478.5t372 199.5q162 0 254 -160h6l28 135h80l-274 -1384zM395 49q84 0 183.5 56.5t185.5 156.5l102 494q-98 178 -243 178q-174 0 -310.5 -182.5t-136.5 -405.5q0 -147 57.5 -222 t161.5 -75z" glyph-name="q" horiz-adv-x="1079" unicode="q"/><glyph d="M82 0l199 983h77l-39 -186h9q66 92 170 151.5t227 59.5l-72 -97q-80 2 -186.5 -63.5t-169.5 -196.5l-129 -651h-86z" glyph-name="r" horiz-adv-x="649" unicode="r"/><glyph d="M326 -25q-207 0 -328 121l78 43q92 -92 260 -92q102 0 177 61.5t75 145.5q0 61 -39 106.5t-150 104.5q-133 74 -186 131t-53 135q0 121 91 199t218 78q160 0 272 -72l-77 -55q-82 55 -197 55q-94 0 -159.5 -57.5t-65.5 -135.5q0 -45 28.5 -82.5t60 -58t93.5 -55.5 q147 -80 196.5 -142.5t49.5 -136.5q0 -133 -97 -213t-247 -80z" glyph-name="s" horiz-adv-x="796" unicode="s"/><glyph d="M356 -25q-207 0 -206 195q0 51 8 98l133 641h-154l13 74h159l56 238l96 43l-70 -281h266l-16 -74h-266l-133 -645q-8 -33 -9 -78q0 -70 31 -103.5t109 -33.5q68 0 139 45l-23 -90q-61 -29 -133 -29z" glyph-name="t" horiz-adv-x="612" unicode="t"/><glyph d="M973 983l-197 -983h-84l35 160h-8q-106 -92 -186 -138.5t-162 -46.5q-236 0 -236 240q0 70 17 133l127 635h83l-124 -623q-16 -68 -17 -127q0 -94 42 -138t132 -44q139 0 348 207l146 725h84z" glyph-name="u" horiz-adv-x="1060" unicode="u"/><glyph d="M274 0l-155 983h84l135 -911h8l488 911h88l-539 -983h-109z" glyph-name="v" horiz-adv-x="858" unicode="v"/><glyph d="M225 0l-84 983h84l72 -893h8l412 893h102l62 -893h8l418 893h82l-463 -983h-115l-57 887h-9l-405 -887h-115z" glyph-name="w" horiz-adv-x="1398" unicode="w"/><glyph d="M-96 0l458 520l-194 463h88l166 -412h8l356 412h95l-416 -481l209 -502h-88l-185 453h-8l-391 -453h-98z" glyph-name="x" horiz-adv-x="804" unicode="x"/><glyph d="M-63 -449q-45 0 -97 25l33 68q35 -18 70 -19q166 0 301 275l43 84l-166 999h84l141 -891h8l482 891h86l-607 -1104q-80 -152 -167.5 -240t-210.5 -88z" glyph-name="y" horiz-adv-x="858" unicode="y"/><glyph d="M-20 0l8 51l702 858h-502l17 74h610l-8 -51l-705 -858h578l-16 -74h-684z" glyph-name="z" horiz-adv-x="800" unicode="z"/><glyph d="M338 -311h-70q-90 0 -130 35.5t-40 119.5q0 74 58.5 295t58.5 287q0 113 -143 113l14 61q166 0 201 168q8 45 30.5 190.5t40.5 225.5q29 152 86.5 209t173.5 57h72l-10 -57h-62q-88 0 -128.5 -50.5t-65.5 -166.5q-10 -57 -30.5 -189.5t-33.5 -200.5q-20 -96 -55 -147 t-98 -70v-8q74 -31 74 -115q0 -76 -56.5 -298t-56.5 -287q0 -59 27.5 -87t99.5 -28h57z" glyph-name="braceleft" horiz-adv-x="548" unicode="{"/><glyph d="M203 -512v2048h67v-2048h-67z" glyph-name="bar" horiz-adv-x="444" unicode="|"/><glyph d="M-125 -311l12 57h62q88 0 130 49t62 164q12 66 33 197t33 192q18 96 54 149.5t99 71.5v9q-76 29 -75 114q0 74 56 295t56 287q0 63 -26.5 91t-98.5 28h-59l14 57h70q90 0 131 -37t41 -119q0 -76 -58.5 -299t-58.5 -286q0 -109 144 -109l-17 -61q-166 0 -200 -168 q-10 -49 -32 -195.5t-38 -224.5q-31 -152 -88.5 -207t-171.5 -55h-74z" glyph-name="braceright" horiz-adv-x="552" unicode="}"/><glyph d="M668 551q-61 0 -127 46t-124.5 92t-103.5 46q-88 0 -157 -129l-56 33q84 166 215 166q61 0 127 -46t124.5 -92t103.5 -46q88 0 157 129l56 -33q-84 -166 -215 -166z" glyph-name="asciitilde" unicode="~"/><glyph glyph-name="uni00A0" horiz-adv-x="387" unicode=" "/><glyph d="M47 -393l29 147l180 864h66l-164 -864l-27 -147h-84zM328 827q-63 0 -64 76q0 43 27.5 74t68.5 31q31 0 49.5 -20.5t18.5 -51.5q0 -39 -29.5 -74t-70.5 -35z" glyph-name="exclamdown" horiz-adv-x="518" unicode="¡"/><glyph d="M465 281l158 792q-141 -12 -256 -144t-115 -323q0 -139 54.5 -224t158.5 -101zM750 1366l-43 -219q133 -18 225 -105l-58 -57q-84 78 -182 88l-157 -797q135 8 258 82l34 -69q-133 -78 -307 -86l-45 -226h-69l45 230q-135 16 -210 114.5t-75 268.5q0 238 144.5 391.5 t326.5 167.5l43 217h70z" glyph-name="cent" unicode="¢"/><glyph d="M145 670h174q-14 186 -14 231q0 201 105.5 317.5t277.5 116.5q154 0 266 -116l-65 -54q-84 96 -207 97q-129 0 -212 -98.5t-83 -256.5q0 -18 16 -237h330l-14 -70h-311v-33q0 -297 -211 -483v-8h559l-13 -76h-729l11 49q150 78 225.5 211t75.5 293q0 31 -2 47h-195z" glyph-name="sterling" unicode="£"/><glyph d="M70 260l-43 53l151 133q-27 70 -26 156q0 193 124 324l-98 131l55 45l97 -129q117 90 241 90q127 0 205 -90l152 133l43 -53l-156 -138q31 -63 31 -159q0 -178 -115 -310l113 -149l-53 -43l-111 143q-115 -102 -254 -102t-209 94zM432 367q127 0 229.5 110.5t102.5 265.5 q0 250 -201 250q-127 0 -229.5 -110.5t-102.5 -266.5q0 -249 201 -249z" glyph-name="currency" unicode="¤"/><glyph d="M330 0l67 344h-327l14 59h328l28 154h-329l14 59h299l-197 695h86l176 -680h9l444 680h88l-463 -695h299l-14 -59h-328l-28 -154h327l-14 -59h-328l-67 -344h-84z" glyph-name="yen" unicode="¥"/><glyph d="M203 569v967h67v-967h-67zM203 -512v958h67v-958h-67z" glyph-name="brokenbar" horiz-adv-x="444" unicode="¦"/><glyph d="M590 356q96 39 139 87.5t43 140.5q0 88 -61.5 149.5t-168 121.5t-147.5 101q-193 -78 -192 -239q0 -88 64.5 -146.5t171 -115t151.5 -99.5zM883 1284l-58 -61q-106 100 -233 100q-76 0 -134.5 -51t-58.5 -133q0 -61 47.5 -112.5t114 -90.5t132 -81t112.5 -107.5 t47 -149.5q0 -115 -54.5 -181.5t-166.5 -111.5q33 -51 33 -119q0 -119 -87.5 -201.5t-216.5 -82.5q-166 0 -313 94l53 65q109 -88 267 -88q88 0 151.5 57.5t63.5 141.5q0 70 -47.5 122t-115 88t-135 74t-114.5 100t-47 146q0 209 229 306q-35 51 -35 116q0 125 79 198 t200 73q172 0 287 -111z" glyph-name="section" horiz-adv-x="942" unicode="§"/><glyph d="M516 1225q-61 0 -61 61q0 37 22.5 62.5t52.5 25.5q61 0 62 -65q0 -35 -22.5 -59.5t-53.5 -24.5zM866 1225q-61 0 -61 61q0 37 22.5 62.5t53.5 25.5q61 0 61 -65q0 -35 -22.5 -59.5t-53.5 -24.5z" glyph-name="dieresis" horiz-adv-x="1040" unicode="¨"/><glyph d="M610 -25q-236 0 -383 158t-147 410q0 197 87 376t258 297.5t384 118.5q236 0 383 -156.5t147 -408.5q0 -197 -88 -377t-259 -299t-382 -119zM614 35q193 0 348.5 111.5t235.5 276.5t80 339q0 233 -129 374.5t-344 141.5q-193 0 -348.5 -111.5t-235.5 -276.5t-80 -339 q0 -233 129 -374.5t344 -141.5zM662 254q-131 0 -209 78t-78 227q0 215 129 351.5t282 136.5q117 0 195 -105l-51 -45q-66 82 -152 82q-119 0 -224 -119t-105 -287q0 -125 59 -188t162 -63q94 0 231 94l35 -56q-74 -53 -134 -79.5t-140 -26.5z" glyph-name="copyright" horiz-adv-x="1353" unicode="©"/><glyph d="M184 1053q0 182 109.5 313t251.5 131q106 0 162 -100h8l18 84h62l-127 -650h-64l23 105h-9q-111 -121 -241 -121q-88 0 -140.5 61.5t-52.5 176.5zM391 877q117 0 244 145l59 301q-63 113 -151 113q-109 0 -198 -116t-89 -257q0 -186 135 -186z" glyph-name="ordfeminine" horiz-adv-x="712" unicode="ª"/><glyph d="M291 147l-209 336l14 82l324 316l39 -41l-299 -326l180 -336zM582 147l-209 336l14 82l324 316l39 -41l-299 -326l180 -336z" glyph-name="guillemotleft" horiz-adv-x="782" unicode="«"/><glyph d="M829 221v422h-731v70h807v-492h-76z" glyph-name="logicalnot" unicode="¬"/><glyph d="M74 475l14 76h430l-16 -76h-428z" glyph-name="uni00AD" horiz-adv-x="587" unicode="­"/><glyph d="M459 676q-135 0 -227.5 92t-92.5 242q0 172 117 305t281 133q133 0 226 -95.5t93 -240.5q0 -174 -116.5 -305t-280.5 -131zM463 729q137 0 235.5 110.5t98.5 264.5q0 127 -72 208t-193 81q-137 0 -235 -112t-98 -263q0 -127 70.5 -208t193.5 -81zM336 856l86 420h117 q125 0 125 -119q0 -94 -103 -135l60 -166h-64l-51 152h-78l-33 -152h-59zM440 1061h52q51 0 80.5 23.5t29.5 66.5q0 72 -76 72h-57z" glyph-name="registered" horiz-adv-x="786" unicode="®"/><glyph d="M440 1241l13 70h487l-10 -70h-490z" glyph-name="macron" horiz-adv-x="1040" unicode="¯"/><glyph d="M412 922q-86 0 -141.5 57t-55.5 149q0 113 69.5 193t172.5 80q86 0 141 -57.5t55 -149.5q0 -113 -69.5 -192.5t-171.5 -79.5zM416 981q76 0 124 62.5t48 142.5q0 68 -37 111.5t-98 43.5q-76 0 -125 -62t-49 -142q0 -68 38 -112t99 -44z" glyph-name="degree" horiz-adv-x="598" unicode="°"/><glyph d="M463 236v413h-365v72h367v401h74v-401h366v-72h-366v-413h-76zM98 0v72h807v-72h-807z" glyph-name="plusminus" unicode="±"/><glyph d="M174 831l10 39q29 100 178 197q166 104 211 145q115 102 115 230q0 147 -151 147q-100 0 -189 -88l-45 53q115 100 242 101q102 0 160.5 -55.5t58.5 -149.5q0 -139 -117 -256q-61 -61 -208.5 -151.5t-164.5 -147.5h418l-10 -64h-508z" glyph-name="uni00B2" horiz-adv-x="708" unicode="²"/><glyph d="M750 1565l-265 -269v-2q102 -20 162 -86.5t60 -152.5q0 -115 -80 -181.5t-197 -66.5q-88 0 -156.5 47t-103.5 117l57 37q70 -137 205 -138q84 0 141.5 46.5t57.5 127.5q0 76 -60.5 136.5t-175.5 60.5l15 66l256 258v4h-324l20 61h408z" glyph-name="uni00B3" horiz-adv-x="708" unicode="³"/><glyph d="M614 1188l-43 51l324 297l55 -70z" glyph-name="acute" horiz-adv-x="1040" unicode="´"/><glyph d="M356 983l-125 -623q-16 -68 -16 -127q0 -94 42 -138t132 -44q139 0 348 207l146 725h84l-197 -983h-84l35 160h-8q-201 -182 -336 -183q-166 0 -197 134l-96 -478l-90 -39l278 1389h84z" glyph-name="uni00B5" horiz-adv-x="1052" unicode="µ"/><glyph d="M596 -164l303 1514h84l-303 -1514h-84zM623 496h-13q-195 0 -325.5 93t-130.5 259q0 238 158.5 370t377.5 132h105z" glyph-name="paragraph" horiz-adv-x="1007" unicode="¶"/><glyph d="M233 586q-31 0 -49 20.5t-18 50.5q0 43 29.5 76t70.5 33q63 0 64 -76q0 -43 -28 -73.5t-69 -30.5z" glyph-name="periodcentered" horiz-adv-x="436" unicode="·"/><glyph d="M184 -449l-4 58q248 8 252 121q0 80 -139 92l117 182h71l-86 -141q70 -18 94.5 -45t22.5 -74q-2 -90 -89 -139.5t-239 -53.5z" glyph-name="cedilla" horiz-adv-x="1040" unicode="¸"/><glyph d="M135 831l17 74h231l117 629l-217 -94l-31 57l283 133h69l-137 -725h219l-12 -74h-539z" glyph-name="uni00B9" horiz-adv-x="704" unicode="¹"/><glyph d="M354 815q-104 0 -164.5 66.5t-60.5 189.5q0 184 108.5 305t245.5 121q106 0 167 -66.5t61 -189.5q0 -184 -109 -305t-248 -121zM360 877q111 0 196 107.5t85 248.5q0 203 -162 203q-111 0 -195.5 -107.5t-84.5 -249.5q-1 -202 161 -202z" glyph-name="ordmasculine" horiz-adv-x="700" unicode="º"/><glyph d="M82 147l-39 41l299 326l-182 336l51 31l209 -336l-17 -82zM373 147l-39 41l299 326l-182 336l51 31l209 -336l-17 -82z" glyph-name="guillemotright" horiz-adv-x="782" unicode="»"/><glyph d="M33 553l16 74h232l116 628l-217 -94l-30 58l282 133h70l-137 -725h219l-13 -74h-538zM246 -25l1003 1401h74l-1004 -1401h-73zM913 297h267l88 395h-8zM1382 297l-14 -59h-133l-47 -238h-68l47 238h-323l-19 45l459 516h64l-101 -502h135z" glyph-name="onequarter" horiz-adv-x="1495" unicode="¼"/><glyph d="M25 553l16 74h231l117 628l-217 -94l-31 58l283 133h70l-138 -725h219l-12 -74h-538zM188 -25l1004 1401h74l-1004 -1401h-74zM829 0l11 39q29 100 178 197q166 104 211 145q115 102 114 229q0 147 -151 148q-100 0 -188 -88l-46 53q115 100 242 100q102 0 160.5 -55 t58.5 -150q0 -139 -116 -256q-61 -61 -209 -151t-164 -148h418l-11 -63h-508z" glyph-name="onehalf" horiz-adv-x="1533" unicode="½"/><glyph d="M682 1286l-264 -268v-2q102 -20 161.5 -87t59.5 -153q0 -115 -80 -181.5t-197 -66.5q-88 0 -156.5 47.5t-103.5 116.5l58 37q70 -137 205 -137q84 0 141 46t57 128q0 76 -60.5 136.5t-174.5 60.5l14 65l256 258v4h-324l21 62h407zM328 -25l1003 1401h74l-1004 -1401h-73z M956 297h267l88 395h-8zM1425 297l-14 -59h-133l-47 -238h-68l47 238h-323l-19 45l459 516h64l-101 -502h135z" glyph-name="threequarters" horiz-adv-x="1533" unicode="¾"/><glyph d="M264 -410q-129 0 -201.5 71t-72.5 198q0 92 43 175t105.5 145.5t126 125t110.5 143t51 170.5l76 -6q-4 -98 -50 -184t-108.5 -148.5t-124 -122t-104.5 -132t-43 -150.5q0 -100 53 -155.5t147 -55.5q139 0 250 121l49 -55q-131 -140 -307 -140zM498 831q-63 0 -64 76 q0 43 27.5 74t68.5 31q31 0 49.5 -20.5t18.5 -51.5q0 -43 -29.5 -76t-70.5 -33z" glyph-name="questiondown" horiz-adv-x="794" unicode="¿"/><glyph d="M291 541h467l-78 708h-8zM819 0l-53 469h-514l-252 -469h-98l743 1350h96l166 -1350h-88zM733 1438l-237 254l65 57l221 -268z" glyph-name="Agrave" horiz-adv-x="999" unicode="À"/><glyph d="M291 541h467l-78 708h-8zM819 0l-53 469h-514l-252 -469h-98l743 1350h96l166 -1350h-88zM666 1458l-35 49l299 230l49 -72z" glyph-name="Aacute" horiz-adv-x="999" unicode="Á"/><glyph d="M291 541h467l-78 708h-8zM819 0l-53 469h-514l-252 -469h-98l743 1350h96l166 -1350h-88zM461 1448l-39 39l272 231h90l191 -231l-47 -35l-191 201h-8z" glyph-name="Acircumflex" horiz-adv-x="999" unicode="Â"/><glyph d="M291 541h467l-78 708h-8zM819 0l-53 469h-514l-252 -469h-98l743 1350h96l166 -1350h-88zM850 1470q-47 0 -87 26t-62.5 57.5t-55.5 57t-67 25.5q-92 0 -142 -159l-61 6q16 102 74.5 163.5t142.5 61.5q59 0 104 -41t84 -82t84 -41q88 0 142 160l61 -6 q-16 -102 -74.5 -165t-142.5 -63z" glyph-name="Atilde" horiz-adv-x="999" unicode="Ã"/><glyph d="M291 541h467l-78 708h-8zM819 0l-53 469h-514l-252 -469h-98l743 1350h96l166 -1350h-88zM524 1481q-61 0 -61 61q0 37 22.5 61.5t53.5 24.5q61 0 61 -63q0 -35 -22.5 -59.5t-53.5 -24.5zM874 1481q-61 0 -61 61q0 37 22.5 61.5t53.5 24.5q61 0 61 -63q0 -35 -22.5 -59.5 t-53.5 -24.5z" glyph-name="Adieresis" horiz-adv-x="999" unicode="Ä"/><glyph d="M291 541h467l-78 708h-8zM819 0l-53 469h-514l-252 -469h-98l743 1350h96l166 -1350h-88zM698 1436q-66 0 -110.5 41t-44.5 114q0 80 57 134.5t139 54.5q66 0 111 -40t45 -114q0 -80 -57.5 -135t-139.5 -55zM702 1489q53 0 92.5 38t39.5 93q0 106 -99 106 q-55 0 -93 -37.5t-38 -93.5q0 -106 98 -106z" glyph-name="Aring" horiz-adv-x="999" unicode="Å"/><glyph d="M809 518l152 756h-9l-542 -756h399zM1620 1274h-573l-105 -520h354l-16 -76h-350l-123 -602h616l-16 -76h-700l88 444h-439l-319 -444h-103l986 1350h739z" glyph-name="AE" horiz-adv-x="1601" unicode="Æ"/><glyph d="M575 -25q240 0 377 109l-47 66q-121 -98 -319 -99q-188 0 -283.5 129t-95.5 340q0 131 41 266.5t113.5 251t187.5 188t248 72.5q154 0 256 -108l65 55q-133 129 -315 129q-203 0 -363.5 -134t-240.5 -329.5t-80 -402.5q0 -238 118.5 -385.5t337.5 -147.5zM309 -449l-4 58 q248 8 252 121q0 80 -139 92l117 182h71l-86 -141q70 -18 94.5 -45t22.5 -74q-2 -90 -89 -139.5t-239 -53.5z" glyph-name="Ccedilla" horiz-adv-x="1105" unicode="Ç"/><glyph d="M80 0l268 1350h713l-37 -76h-604l-105 -520h394l-17 -76h-389l-123 -602h643l-16 -76h-727zM766 1438l-238 254l66 57l221 -268z" glyph-name="Egrave" horiz-adv-x="1001" unicode="È"/><glyph d="M80 0l268 1350h713l-37 -76h-604l-105 -520h394l-17 -76h-389l-123 -602h643l-16 -76h-727zM698 1458l-34 49l299 230l49 -72z" glyph-name="Eacute" horiz-adv-x="1001" unicode="É"/><glyph d="M80 0l268 1350h713l-37 -76h-604l-105 -520h394l-17 -76h-389l-123 -602h643l-16 -76h-727zM494 1448l-39 39l272 231h90l191 -231l-47 -35l-191 201h-8z" glyph-name="Ecircumflex" horiz-adv-x="1001" unicode="Ê"/><glyph d="M80 0l268 1350h713l-37 -76h-604l-105 -520h394l-17 -76h-389l-123 -602h643l-16 -76h-727zM557 1481q-61 0 -61 61q0 37 22.5 61.5t52.5 24.5q61 0 62 -63q0 -35 -22.5 -59.5t-53.5 -24.5zM907 1481q-61 0 -61 61q0 37 22.5 61.5t53.5 24.5q61 0 61 -63 q0 -35 -22.5 -59.5t-53.5 -24.5z" glyph-name="Edieresis" horiz-adv-x="1001" unicode="Ë"/><glyph d="M80 0l268 1350h88l-268 -1350h-88zM444 1438l-237 254l65 57l222 -268z" glyph-name="Igrave" horiz-adv-x="464" unicode="Ì"/><glyph d="M80 0l268 1350h88l-268 -1350h-88zM377 1458l-35 49l299 230l49 -72z" glyph-name="Iacute" horiz-adv-x="464" unicode="Í"/><glyph d="M80 0l268 1350h88l-268 -1350h-88zM172 1448l-39 39l273 231h90l190 -231l-47 -35l-190 201h-9z" glyph-name="Icircumflex" horiz-adv-x="464" unicode="Î"/><glyph d="M80 0l268 1350h88l-268 -1350h-88zM236 1481q-61 0 -62 61q0 37 22.5 61.5t53.5 24.5q61 0 61 -63q0 -35 -22 -59.5t-53 -24.5zM586 1481q-61 0 -62 61q0 37 22.5 61.5t53.5 24.5q61 0 62 -63q0 -35 -22.5 -59.5t-53.5 -24.5z" glyph-name="Idieresis" horiz-adv-x="464" unicode="Ï"/><glyph d="M217 74h229q291 0 461 214t170 531q0 211 -120.5 334t-352.5 123h-147l-105 -528h336l-14 -64h-336zM385 1350h223q272 0 414.5 -140.5t142.5 -384.5q0 -362 -190.5 -593.5t-530.5 -231.5h-327l135 684h-146l17 64h143z" glyph-name="Eth" horiz-adv-x="1218" unicode="Ð"/><glyph d="M80 0l268 1350h94l447 -1203h8l238 1203h88l-271 -1350h-90l-448 1210h-8l-240 -1210h-86zM956 1470q-47 0 -87 26t-62.5 57.5t-55 57t-67.5 25.5q-92 0 -141 -159l-62 6q16 102 74.5 163.5t142.5 61.5q59 0 104.5 -41t84.5 -82t84 -41q88 0 141 160l62 -6 q-16 -102 -75 -165t-143 -63z" glyph-name="Ntilde" horiz-adv-x="1239" unicode="Ñ"/><glyph d="M567 -25q-215 0 -328.5 153t-113.5 409q0 143 45 289.5t124 269.5t204 200.5t268 77.5q215 0 328.5 -152.5t113.5 -408.5q0 -143 -45 -289.5t-123.5 -269.5t-204 -201t-268.5 -78zM573 51q164 0 293 124t191.5 293t62.5 335q0 231 -88 363t-272 132q-162 0 -291 -123.5 t-191.5 -292.5t-62.5 -335q0 -231 88 -363.5t270 -132.5zM860 1438l-237 254l65 57l221 -268z" glyph-name="Ograve" horiz-adv-x="1265" unicode="Ò"/><glyph d="M567 -25q-215 0 -328.5 153t-113.5 409q0 143 45 289.5t124 269.5t204 200.5t268 77.5q215 0 328.5 -152.5t113.5 -408.5q0 -143 -45 -289.5t-123.5 -269.5t-204 -201t-268.5 -78zM573 51q164 0 293 124t191.5 293t62.5 335q0 231 -88 363t-272 132q-162 0 -291 -123.5 t-191.5 -292.5t-62.5 -335q0 -231 88 -363.5t270 -132.5zM793 1458l-35 49l299 230l49 -72z" glyph-name="Oacute" horiz-adv-x="1265" unicode="Ó"/><glyph d="M567 -25q-215 0 -328.5 153t-113.5 409q0 143 45 289.5t124 269.5t204 200.5t268 77.5q215 0 328.5 -152.5t113.5 -408.5q0 -143 -45 -289.5t-123.5 -269.5t-204 -201t-268.5 -78zM573 51q164 0 293 124t191.5 293t62.5 335q0 231 -88 363t-272 132q-162 0 -291 -123.5 t-191.5 -292.5t-62.5 -335q0 -231 88 -363.5t270 -132.5zM588 1448l-39 39l272 231h90l191 -231l-47 -35l-191 201h-8z" glyph-name="Ocircumflex" horiz-adv-x="1265" unicode="Ô"/><glyph d="M567 -25q-215 0 -328.5 153t-113.5 409q0 143 45 289.5t124 269.5t204 200.5t268 77.5q215 0 328.5 -152.5t113.5 -408.5q0 -143 -45 -289.5t-123.5 -269.5t-204 -201t-268.5 -78zM573 51q164 0 293 124t191.5 293t62.5 335q0 231 -88 363t-272 132q-162 0 -291 -123.5 t-191.5 -292.5t-62.5 -335q0 -231 88 -363.5t270 -132.5zM977 1470q-47 0 -87 26t-62.5 57.5t-55.5 57t-67 25.5q-92 0 -142 -159l-61 6q16 102 74.5 163.5t142.5 61.5q59 0 104 -41t84 -82t84 -41q88 0 142 160l61 -6q-16 -102 -74.5 -165t-142.5 -63z" glyph-name="Otilde" horiz-adv-x="1265" unicode="Õ"/><glyph d="M567 -25q-215 0 -328.5 153t-113.5 409q0 143 45 289.5t124 269.5t204 200.5t268 77.5q215 0 328.5 -152.5t113.5 -408.5q0 -143 -45 -289.5t-123.5 -269.5t-204 -201t-268.5 -78zM573 51q164 0 293 124t191.5 293t62.5 335q0 231 -88 363t-272 132q-162 0 -291 -123.5 t-191.5 -292.5t-62.5 -335q0 -231 88 -363.5t270 -132.5zM651 1481q-61 0 -61 61q0 37 22.5 61.5t53.5 24.5q61 0 61 -63q0 -35 -22.5 -59.5t-53.5 -24.5zM1001 1481q-61 0 -61 61q0 37 22.5 61.5t53.5 24.5q61 0 61 -63q0 -35 -22.5 -59.5t-53.5 -24.5z" glyph-name="Odieresis" horiz-adv-x="1265" unicode="Ö"/><glyph d="M184 297l-49 49l318 334l-318 330l49 49l318 -330l317 330l49 -49l-317 -330l317 -334l-49 -49l-317 334z" glyph-name="multiply" unicode="×"/><glyph d="M283 207q90 -156 284 -156q164 0 293 124t191.5 293t62.5 335q0 168 -41 268zM1044 1135q-90 164 -290 163q-162 0 -291 -123.5t-191.5 -292.5t-62.5 -335q0 -158 43 -275zM186 203q-68 135 -67 334q0 143 45 289.5t124 269.5t203.5 200.5t268.5 77.5q229 0 344 -174 q18 -27 33 -57q66 -137 65 -330q0 -143 -45 -289.5t-124 -269.5t-203.5 -201t-268.5 -78q-221 0 -338 166z" glyph-name="Oslash" horiz-adv-x="1265" unicode="Ø"/><glyph d="M184 551l160 799h88l-158 -791q-20 -80 -20 -166q0 -342 313 -342q137 0 240.5 108.5t150.5 336.5l170 854h89l-175 -867q-53 -266 -181 -387t-302 -121q-186 0 -289.5 103.5t-103.5 298.5q0 90 18 174zM836 1438l-238 254l66 57l221 -268z" glyph-name="Ugrave" horiz-adv-x="1228" unicode="Ù"/><glyph d="M184 551l160 799h88l-158 -791q-20 -80 -20 -166q0 -342 313 -342q137 0 240.5 108.5t150.5 336.5l170 854h89l-175 -867q-53 -266 -181 -387t-302 -121q-186 0 -289.5 103.5t-103.5 298.5q0 90 18 174zM768 1458l-35 49l299 230l49 -72z" glyph-name="Uacute" horiz-adv-x="1228" unicode="Ú"/><glyph d="M184 551l160 799h88l-158 -791q-20 -80 -20 -166q0 -342 313 -342q137 0 240.5 108.5t150.5 336.5l170 854h89l-175 -867q-53 -266 -181 -387t-302 -121q-186 0 -289.5 103.5t-103.5 298.5q0 90 18 174zM563 1448l-39 39l273 231h90l190 -231l-47 -35l-190 201h-9z" glyph-name="Ucircumflex" horiz-adv-x="1228" unicode="Û"/><glyph d="M184 551l160 799h88l-158 -791q-20 -80 -20 -166q0 -342 313 -342q137 0 240.5 108.5t150.5 336.5l170 854h89l-175 -867q-53 -266 -181 -387t-302 -121q-186 0 -289.5 103.5t-103.5 298.5q0 90 18 174zM627 1481q-61 0 -62 61q0 37 22.5 61.5t53.5 24.5q61 0 61 -63 q0 -35 -22 -59.5t-53 -24.5zM977 1481q-61 0 -62 61q0 37 23 61.5t53 24.5q61 0 62 -63q0 -35 -22.5 -59.5t-53.5 -24.5z" glyph-name="Udieresis" horiz-adv-x="1228" unicode="Ü"/><glyph d="M287 0l110 551l-223 799h90l189 -717h8l489 717h94l-559 -799l-110 -551h-88zM580 1458l-35 49l299 230l49 -72z" glyph-name="Yacute" horiz-adv-x="886" unicode="Ý"/><glyph d="M80 0l268 1352h88l-47 -250h266q397 0 398 -311q0 -223 -152.5 -338t-419.5 -115h-248l-67 -338h-86zM250 412h223q492 0 492 368q0 131 -86 189.5t-263 58.5h-243z" glyph-name="Thorn" horiz-adv-x="1112" unicode="Þ"/><glyph d="M651 -25q-158 0 -278 109l47 57q117 -94 233 -94q94 0 163 61.5t69 151.5q0 63 -34 115.5t-82 88.5t-95 71.5t-81 84t-34 105.5q0 63 31 118.5t74 96.5t86 83t73.5 98.5t30.5 121.5q0 180 -166 180q-111 0 -193.5 -100t-113.5 -250l-213 -1073h-86l221 1098 q37 172 140.5 285.5t250.5 113.5q113 0 178.5 -63.5t65.5 -184.5q0 -76 -30.5 -138t-73.5 -105t-86 -82t-74 -85t-31 -97.5t34 -94.5t81 -76.5t94 -70.5t81 -95.5t34 -130.5q0 -125 -89.5 -212t-226.5 -87z" glyph-name="germandbls" horiz-adv-x="1073" unicode="ß"/><glyph d="M377 -25q-131 0 -209 92.5t-78 262.5q0 279 163 478.5t372 199.5q162 0 254 -160h6l30 135h78l-196 -983h-82l33 156h-9q-174 -181 -362 -181zM395 49q188 0 369 213l102 494q-98 178 -243 178q-174 0 -310.5 -182.5t-136.5 -405.5q0 -147 57.5 -222t161.5 -75zM737 1167 l-243 330l75 55l224 -344z" glyph-name="agrave" horiz-adv-x="1079" unicode="à"/><glyph d="M377 -25q-131 0 -209 92.5t-78 262.5q0 279 163 478.5t372 199.5q162 0 254 -160h6l30 135h78l-196 -983h-82l33 156h-9q-174 -181 -362 -181zM395 49q188 0 369 213l102 494q-98 178 -243 178q-174 0 -310.5 -182.5t-136.5 -405.5q0 -147 57.5 -222t161.5 -75zM604 1188 l-43 51l324 297l55 -70z" glyph-name="aacute" horiz-adv-x="1079" unicode="á"/><glyph d="M377 -25q-131 0 -209 92.5t-78 262.5q0 279 163 478.5t372 199.5q162 0 254 -160h6l30 135h78l-196 -983h-82l33 156h-9q-174 -181 -362 -181zM395 49q188 0 369 213l102 494q-98 178 -243 178q-174 0 -310.5 -182.5t-136.5 -405.5q0 -147 57.5 -222t161.5 -75zM430 1171 l-43 43l291 295h88l186 -299l-51 -39l-180 263h-8z" glyph-name="acircumflex" horiz-adv-x="1079" unicode="â"/><glyph d="M377 -25q-131 0 -209 92.5t-78 262.5q0 279 163 478.5t372 199.5q162 0 254 -160h6l30 135h78l-196 -983h-82l33 156h-9q-174 -181 -362 -181zM395 49q188 0 369 213l102 494q-98 178 -243 178q-174 0 -310.5 -182.5t-136.5 -405.5q0 -147 57.5 -222t161.5 -75zM834 1186 q-49 0 -87 31.5t-58.5 68.5t-52.5 68.5t-71 31.5q-96 0 -141 -194l-70 4q63 258 219 258q49 0 87 -30.5t58.5 -68.5t52.5 -69t71 -31q100 0 141 193l70 -4q-67 -258 -219 -258z" glyph-name="atilde" horiz-adv-x="1079" unicode="ã"/><glyph d="M377 -25q-131 0 -209 92.5t-78 262.5q0 279 163 478.5t372 199.5q162 0 254 -160h6l30 135h78l-196 -983h-82l33 156h-9q-174 -181 -362 -181zM395 49q188 0 369 213l102 494q-98 178 -243 178q-174 0 -310.5 -182.5t-136.5 -405.5q0 -147 57.5 -222t161.5 -75zM506 1225 q-61 0 -62 61q0 37 22.5 62.5t53.5 25.5q61 0 62 -65q0 -35 -22.5 -59.5t-53.5 -24.5zM856 1225q-61 0 -61 61q0 37 22.5 62.5t52.5 25.5q61 0 62 -65q0 -35 -22.5 -59.5t-53.5 -24.5z" glyph-name="adieresis" horiz-adv-x="1079" unicode="ä"/><glyph d="M377 -25q-131 0 -209 92.5t-78 262.5q0 279 163 478.5t372 199.5q162 0 254 -160h6l30 135h78l-196 -983h-82l33 156h-9q-174 -181 -362 -181zM395 49q188 0 369 213l102 494q-98 178 -243 178q-174 0 -310.5 -182.5t-136.5 -405.5q0 -147 57.5 -222t161.5 -75zM672 1126 q-76 0 -124 42t-48 118q0 92 59 157.5t152 65.5q76 0 125 -42t49 -117q0 -92 -60.5 -158t-152.5 -66zM678 1180q57 0 99 49t42 117q0 49 -29.5 79.5t-82.5 30.5q-59 0 -101.5 -49t-42.5 -117q0 -51 31 -80.5t84 -29.5z" glyph-name="aring" horiz-adv-x="1079" unicode="å"/><glyph d="M1473 487h-693q-37 -219 49 -329.5t244 -110.5q143 0 256 90l53 -55q-133 -106 -321 -107q-227 0 -322 168h-6q-168 -168 -350 -168q-131 0 -209 92.5t-78 262.5q0 279 163 478.5t372 199.5q150 0 241 -140h7q145 139 319 140q295 0 295 -349q0 -57 -20 -172zM1190 936 q-133 0 -246 -107.5t-151 -281.5h610q12 63 12 125q0 113 -53 188.5t-172 75.5zM686 381q0 258 148 436q-86 117 -205 117q-174 0 -310.5 -182.5t-136.5 -405.5q0 -147 57.5 -222t161.5 -75q160 0 312 152q-27 74 -27 180z" glyph-name="ae" horiz-adv-x="1529" unicode="æ"/><glyph d="M434 -25q178 0 307 78l-43 70q-121 -74 -254 -74q-272 0 -272 328q0 223 134 390t304 167q104 0 201 -70l53 66q-113 78 -248 78q-207 0 -368.5 -184.5t-161.5 -458.5q0 -184 93 -287t255 -103zM164 -449l-4 58q248 8 252 121q0 80 -140 92l117 182h72l-86 -141 q70 -18 94.5 -45t22.5 -74q-2 -90 -89 -139.5t-239 -53.5z" glyph-name="ccedilla" horiz-adv-x="880" unicode="ç"/><glyph d="M86 381q0 268 156.5 447.5t355.5 179.5q295 0 295 -349q0 -57 -21 -172h-692q-37 -219 49 -329.5t244 -110.5q143 0 256 90l53 -55q-133 -106 -321 -107q-174 0 -274.5 105.5t-100.5 300.5zM193 547h610q12 66 12 125q0 113 -53 188.5t-172 75.5q-133 0 -245.5 -107.5 t-151.5 -281.5zM698 1167l-243 330l75 55l224 -344z" glyph-name="egrave" horiz-adv-x="964" unicode="è"/><glyph d="M86 381q0 268 156.5 447.5t355.5 179.5q295 0 295 -349q0 -57 -21 -172h-692q-37 -219 49 -329.5t244 -110.5q143 0 256 90l53 -55q-133 -106 -321 -107q-174 0 -274.5 105.5t-100.5 300.5zM193 547h610q12 66 12 125q0 113 -53 188.5t-172 75.5q-133 0 -245.5 -107.5 t-151.5 -281.5zM565 1188l-43 51l324 297l55 -70z" glyph-name="eacute" horiz-adv-x="964" unicode="é"/><glyph d="M86 381q0 268 156.5 447.5t355.5 179.5q295 0 295 -349q0 -57 -21 -172h-692q-37 -219 49 -329.5t244 -110.5q143 0 256 90l53 -55q-133 -106 -321 -107q-174 0 -274.5 105.5t-100.5 300.5zM193 547h610q12 66 12 125q0 113 -53 188.5t-172 75.5q-133 0 -245.5 -107.5 t-151.5 -281.5zM391 1171l-43 43l291 295h88l186 -299l-51 -39l-180 263h-8z" glyph-name="ecircumflex" horiz-adv-x="964" unicode="ê"/><glyph d="M86 381q0 268 156.5 447.5t355.5 179.5q295 0 295 -349q0 -57 -21 -172h-692q-37 -219 49 -329.5t244 -110.5q143 0 256 90l53 -55q-133 -106 -321 -107q-174 0 -274.5 105.5t-100.5 300.5zM193 547h610q12 66 12 125q0 113 -53 188.5t-172 75.5q-133 0 -245.5 -107.5 t-151.5 -281.5zM467 1225q-61 0 -61 61q0 37 22.5 62.5t52.5 25.5q61 0 62 -65q0 -35 -22.5 -59.5t-53.5 -24.5zM817 1225q-61 0 -61 61q0 37 22.5 62.5t52.5 25.5q61 0 62 -65q0 -35 -22.5 -59.5t-53.5 -24.5z" glyph-name="edieresis" horiz-adv-x="964" unicode="ë"/><glyph d="M82 0l199 983h84l-197 -983h-86zM438 1167l-243 330l75 55l224 -344z" glyph-name="igrave" horiz-adv-x="450" unicode="ì"/><glyph d="M82 0l199 983h84l-197 -983h-86zM305 1188l-43 51l324 297l55 -70z" glyph-name="iacute" horiz-adv-x="450" unicode="í"/><glyph d="M82 0l199 983h84l-197 -983h-86zM131 1171l-43 43l291 295h88l186 -299l-51 -39l-180 263h-8z" glyph-name="icircumflex" horiz-adv-x="450" unicode="î"/><glyph d="M82 0l199 983h84l-197 -983h-86zM207 1225q-61 0 -62 61q0 37 22.5 62.5t53.5 25.5q61 0 62 -65q0 -35 -22.5 -59.5t-53.5 -24.5zM557 1225q-61 0 -61 61q0 37 22.5 62.5t52.5 25.5q61 0 62 -65q0 -35 -22.5 -59.5t-53.5 -24.5z" glyph-name="idieresis" horiz-adv-x="450" unicode="ï"/><glyph d="M446 49q168 0 279 173t123 421q-117 188 -270 188q-172 0 -285 -145t-113 -336q0 -127 71.5 -214t194.5 -87zM1059 1346l-283 -119q154 -219 154 -526.5t-137.5 -516.5t-358.5 -209q-145 0 -240.5 105.5t-95.5 259.5q0 225 134.5 395t342.5 170q158 0 271 -162 q-8 268 -141 453l-306 -129l-20 55l289 123q-72 88 -213 182l43 56q147 -92 241 -209l299 127z" glyph-name="eth" horiz-adv-x="1058" unicode="ð"/><glyph d="M82 0l199 983h79l-32 -156h8q106 90 187 135.5t165 45.5q233 0 234 -240q0 -68 -17 -133l-127 -635h-84l127 623q16 94 17 127q0 94 -42 138t-134 44q-141 0 -349 -207l-145 -725h-86zM854 1186q-49 0 -87 31.5t-58.5 68.5t-52 68.5t-70.5 31.5q-96 0 -142 -194l-69 4 q63 258 219 258q49 0 87 -30.5t58.5 -68.5t52 -69t70.5 -31q100 0 142 193l69 -4q-67 -258 -219 -258z" glyph-name="ntilde" horiz-adv-x="1044" unicode="ñ"/><glyph d="M422 -25q-154 0 -243 102.5t-89 287.5q0 268 155.5 455.5t362.5 187.5q156 0 245 -102.5t89 -287.5q0 -268 -156.5 -455.5t-363.5 -187.5zM430 49q162 0 294 168t132 391q0 160 -65.5 243t-188.5 83q-164 0 -296 -168t-132 -389q0 -160 66.5 -244t189.5 -84zM748 1167 l-244 330l76 55l223 -344z" glyph-name="ograve" horiz-adv-x="1032" unicode="ò"/><glyph d="M422 -25q-154 0 -243 102.5t-89 287.5q0 268 155.5 455.5t362.5 187.5q156 0 245 -102.5t89 -287.5q0 -268 -156.5 -455.5t-363.5 -187.5zM430 49q162 0 294 168t132 391q0 160 -65.5 243t-188.5 83q-164 0 -296 -168t-132 -389q0 -160 66.5 -244t189.5 -84zM614 1188 l-43 51l324 297l55 -70z" glyph-name="oacute" horiz-adv-x="1032" unicode="ó"/><glyph d="M422 -25q-154 0 -243 102.5t-89 287.5q0 268 155.5 455.5t362.5 187.5q156 0 245 -102.5t89 -287.5q0 -268 -156.5 -455.5t-363.5 -187.5zM430 49q162 0 294 168t132 391q0 160 -65.5 243t-188.5 83q-164 0 -296 -168t-132 -389q0 -160 66.5 -244t189.5 -84zM440 1171 l-43 43l291 295h88l187 -299l-52 -39l-180 263h-8z" glyph-name="ocircumflex" horiz-adv-x="1032" unicode="ô"/><glyph d="M422 -25q-154 0 -243 102.5t-89 287.5q0 268 155.5 455.5t362.5 187.5q156 0 245 -102.5t89 -287.5q0 -268 -156.5 -455.5t-363.5 -187.5zM430 49q162 0 294 168t132 391q0 160 -65.5 243t-188.5 83q-164 0 -296 -168t-132 -389q0 -160 66.5 -244t189.5 -84zM844 1186 q-49 0 -87 31.5t-58.5 68.5t-52.5 68.5t-71 31.5q-96 0 -141 -194l-69 4q29 117 79 187.5t140 70.5q49 0 87 -30.5t58.5 -68.5t52 -69t70.5 -31q100 0 141 193l70 -4q-67 -258 -219 -258z" glyph-name="otilde" horiz-adv-x="1032" unicode="õ"/><glyph d="M422 -25q-154 0 -243 102.5t-89 287.5q0 268 155.5 455.5t362.5 187.5q156 0 245 -102.5t89 -287.5q0 -268 -156.5 -455.5t-363.5 -187.5zM430 49q162 0 294 168t132 391q0 160 -65.5 243t-188.5 83q-164 0 -296 -168t-132 -389q0 -160 66.5 -244t189.5 -84zM516 1225 q-61 0 -61 61q0 37 22.5 62.5t52.5 25.5q61 0 62 -65q0 -35 -22.5 -59.5t-53.5 -24.5zM866 1225q-61 0 -61 61q0 37 22.5 62.5t53.5 25.5q61 0 61 -65q0 -35 -22.5 -59.5t-53.5 -24.5z" glyph-name="odieresis" horiz-adv-x="1032" unicode="ö"/><glyph d="M98 643v70h807v-70h-807zM501.5 223q-30.5 0 -52 23.5t-21.5 56.5t20.5 54.5t53.5 21.5t53 -21.5t20 -54.5t-21.5 -56.5t-52 -23.5zM501.5 969q-30.5 0 -52 23.5t-21.5 56t20.5 54t53.5 21.5t53 -21.5t20 -54t-21.5 -56t-52 -23.5z" glyph-name="divide" unicode="÷"/><glyph d="M229 145q66 -96 199 -96q166 0 298 169t132 388q0 94 -24 164zM807 827q-63 106 -205 107q-164 0 -297 -169t-133 -388q0 -98 29 -174zM139 139q-49 90 -49 226q0 268 155.5 455.5t362.5 187.5q170 0 256 -121q23 -29 33 -53q45 -94 45 -216q0 -272 -156.5 -457.5 t-363.5 -185.5q-162 0 -250 113z" glyph-name="oslash" horiz-adv-x="1032" unicode="ø"/><glyph d="M973 983l-197 -983h-84l35 160h-8q-106 -92 -186 -138.5t-162 -46.5q-236 0 -236 240q0 70 17 133l127 635h83l-124 -623q-16 -68 -17 -127q0 -94 42 -138t132 -44q139 0 348 207l146 725h84zM727 1167l-244 330l76 55l223 -344z" glyph-name="ugrave" horiz-adv-x="1060" unicode="ù"/><glyph d="M973 983l-197 -983h-84l35 160h-8q-106 -92 -186 -138.5t-162 -46.5q-236 0 -236 240q0 70 17 133l127 635h83l-124 -623q-16 -68 -17 -127q0 -94 42 -138t132 -44q139 0 348 207l146 725h84zM594 1188l-43 51l323 297l56 -70z" glyph-name="uacute" horiz-adv-x="1060" unicode="ú"/><glyph d="M973 983l-197 -983h-84l35 160h-8q-106 -92 -186 -138.5t-162 -46.5q-236 0 -236 240q0 70 17 133l127 635h83l-124 -623q-16 -68 -17 -127q0 -94 42 -138t132 -44q139 0 348 207l146 725h84zM420 1171l-43 43l291 295h88l186 -299l-51 -39l-180 263h-9z" glyph-name="ucircumflex" horiz-adv-x="1060" unicode="û"/><glyph d="M973 983l-197 -983h-84l35 160h-8q-106 -92 -186 -138.5t-162 -46.5q-236 0 -236 240q0 70 17 133l127 635h83l-124 -623q-16 -68 -17 -127q0 -94 42 -138t132 -44q139 0 348 207l146 725h84zM496 1225q-61 0 -62 61q0 37 22.5 62.5t53.5 25.5q61 0 61 -65 q0 -35 -22 -59.5t-53 -24.5zM846 1225q-61 0 -62 61q0 37 22.5 62.5t53.5 25.5q61 0 62 -65q0 -35 -22.5 -59.5t-53.5 -24.5z" glyph-name="udieresis" horiz-adv-x="1060" unicode="ü"/><glyph d="M-63 -449q-45 0 -97 25l33 68q35 -18 70 -19q166 0 301 275l43 84l-166 999h84l141 -891h8l482 891h86l-607 -1104q-80 -152 -167.5 -240t-210.5 -88zM477 1188l-43 51l324 297l55 -70z" glyph-name="yacute" horiz-adv-x="858" unicode="ý"/><glyph d="M-6 -444l379 1892l88 25l-129 -627h4q201 162 362 162q133 0 210 -92.5t77 -262.5q0 -279 -163 -478.5t-369 -199.5q-156 0 -260 158h-5l-110 -577h-84zM453 49q174 0 311 182.5t137 407.5q0 145 -58.5 220t-162.5 75q-80 0 -178.5 -50t-184.5 -132l-106 -533 q99 -170 242 -170z" glyph-name="thorn" horiz-adv-x="1073" unicode="þ"/><glyph d="M-63 -449q-45 0 -97 25l33 68q35 -18 70 -19q166 0 301 275l43 84l-166 999h84l141 -891h8l482 891h86l-607 -1104q-80 -152 -167.5 -240t-210.5 -88zM379 1225q-61 0 -62 61q0 37 22.5 62.5t53.5 25.5q61 0 62 -65q0 -35 -22.5 -59.5t-53.5 -24.5zM729 1225 q-61 0 -61 61q0 37 22.5 62.5t52.5 25.5q61 0 62 -65q0 -35 -22.5 -59.5t-53.5 -24.5z" glyph-name="ydieresis" horiz-adv-x="858" unicode="ÿ"/><glyph d="M291 541h467l-78 708h-8zM819 0l-53 469h-514l-252 -469h-98l743 1350h96l166 -1350h-88zM453 1503l14 70h485l-14 -70h-485z" glyph-name="Amacron" horiz-adv-x="999" unicode="Ā"/><glyph d="M377 -25q-131 0 -209 92.5t-78 262.5q0 279 163 478.5t372 199.5q162 0 254 -160h6l30 135h78l-196 -983h-82l33 156h-9q-174 -181 -362 -181zM395 49q188 0 369 213l102 494q-98 178 -243 178q-174 0 -310.5 -182.5t-136.5 -405.5q0 -147 57.5 -222t161.5 -75zM430 1241 l12 70h488l-10 -70h-490z" glyph-name="amacron" horiz-adv-x="1079" unicode="ā"/><glyph d="M291 541h467l-78 708h-8zM819 0l-53 469h-514l-252 -469h-98l743 1350h96l166 -1350h-88zM682 1454q-125 0 -180.5 75t-48.5 179l67 10q-4 -84 40 -140t136 -56q176 0 248 196l66 -10q-29 -102 -114 -178t-214 -76z" glyph-name="Abreve" horiz-adv-x="999" unicode="Ă"/><glyph d="M377 -25q-131 0 -209 92.5t-78 262.5q0 279 163 478.5t372 199.5q162 0 254 -160h6l30 135h78l-196 -983h-82l33 156h-9q-174 -181 -362 -181zM395 49q188 0 369 213l102 494q-98 178 -243 178q-174 0 -310.5 -182.5t-136.5 -405.5q0 -147 57.5 -222t161.5 -75zM664 1167 q-74 0 -126.5 28t-78 74t-35.5 96t-8 105l69 11q-8 -96 41 -170t151.5 -74t175.5 71.5t105 172.5l68 -11q-33 -121 -125 -212t-237 -91z" glyph-name="abreve" horiz-adv-x="1079" unicode="ă"/><glyph d="M291 541h467l-78 712h-8zM741 1350l166 -1350q-190 -133 -190 -266q0 -37 21.5 -60.5t54.5 -23.5q39 0 84 24l24 -57q-66 -35 -123 -35q-63 0 -103 33t-40 96q0 76 57.5 156t136.5 133h-10l-53 469h-514l-252 -469h-98l743 1350h96z" glyph-name="Aogonek" horiz-adv-x="999" unicode="Ą"/><glyph d="M627 -416q-63 0 -102.5 33t-39.5 96q-6 82 62.5 168t171.5 137l29 142h-5q-176 -184 -366 -185q-131 0 -209 92.5t-78 262.5q0 279 163 478.5t372 199.5q168 0 256 -164h4l28 139h80l-196 -983q-231 -127 -232 -266q0 -37 21.5 -59.5t54.5 -22.5q43 0 84 24l25 -55 q-64 -37 -123 -37zM395 49q84 0 183.5 56.5t185.5 156.5l102 498q-96 174 -243 174q-174 0 -310.5 -182.5t-136.5 -405.5q0 -147 57.5 -222t161.5 -75z" glyph-name="aogonek" horiz-adv-x="1079" unicode="ą"/><glyph d="M575 -25q-219 0 -337.5 147.5t-118.5 385.5q0 207 80 402.5t240.5 329.5t363.5 134q182 0 315 -129l-65 -55q-102 109 -256 108q-133 0 -248 -72.5t-187.5 -188t-113.5 -251t-41 -266.5q0 -211 95 -340t284 -129q199 0 319 99l47 -66q-137 -109 -377 -109zM797 1458 l-35 49l299 230l49 -72z" glyph-name="Cacute" horiz-adv-x="1105" unicode="Ć"/><glyph d="M434 -25q-162 0 -255 102.5t-93 287.5q0 274 162 458.5t368 184.5q135 0 248 -78l-53 -66q-96 70 -201 70q-170 0 -304 -167t-134 -390q0 -328 272 -328q133 0 254 74l43 -70q-129 -78 -307 -78zM582 1188l-43 51l323 297l56 -70z" glyph-name="cacute" horiz-adv-x="880" unicode="ć"/><glyph d="M575 -25q-219 0 -337.5 147.5t-118.5 385.5q0 207 80 402.5t240.5 329.5t363.5 134q182 0 315 -129l-65 -55q-102 109 -256 108q-133 0 -248 -72.5t-187.5 -188t-113.5 -251t-41 -266.5q0 -211 95 -340t284 -129q199 0 319 99l47 -66q-137 -109 -377 -109zM592 1448 l-39 39l272 231h90l191 -231l-47 -35l-191 201h-8z" glyph-name="Ccircumflex" horiz-adv-x="1105" unicode="Ĉ"/><glyph d="M434 -25q-162 0 -255 102.5t-93 287.5q0 274 162 458.5t368 184.5q135 0 248 -78l-53 -66q-96 70 -201 70q-170 0 -304 -167t-134 -390q0 -328 272 -328q133 0 254 74l43 -70q-129 -78 -307 -78zM408 1171l-43 43l290 295h88l187 -299l-51 -39l-181 263h-8z" glyph-name="ccircumflex" horiz-adv-x="880" unicode="ĉ"/><glyph d="M575 -25q-219 0 -337.5 147.5t-118.5 385.5q0 207 80 402.5t240.5 329.5t363.5 134q182 0 315 -129l-65 -55q-102 109 -256 108q-133 0 -248 -72.5t-187.5 -188t-113.5 -251t-41 -266.5q0 -211 95 -340t284 -129q199 0 319 99l47 -66q-137 -109 -377 -109zM829 1481 q-31 0 -50 18.5t-19 48.5q0 41 25.5 66.5t60.5 25.5q31 0 50 -19t19 -52q0 -37 -25.5 -62.5t-60.5 -25.5z" glyph-name="Cdotaccent" horiz-adv-x="1105" unicode="Ċ"/><glyph d="M434 -25q-162 0 -255 102.5t-93 287.5q0 274 162 458.5t368 184.5q135 0 248 -78l-53 -66q-96 70 -201 70q-170 0 -304 -167t-134 -390q0 -328 272 -328q133 0 254 74l43 -70q-129 -78 -307 -78zM653 1221q-29 0 -49 19.5t-20 47.5q0 39 25.5 65.5t60.5 26.5 q31 0 50 -19.5t19 -49.5q0 -39 -25.5 -64.5t-60.5 -25.5z" glyph-name="cdotaccent" horiz-adv-x="880" unicode="ċ"/><glyph d="M575 -25q-219 0 -337.5 147.5t-118.5 385.5q0 207 80 402.5t240.5 329.5t363.5 134q182 0 315 -129l-65 -55q-102 109 -256 108q-133 0 -248 -72.5t-187.5 -188t-113.5 -251t-41 -266.5q0 -211 95 -340t284 -129q199 0 319 99l47 -66q-137 -109 -377 -109zM770 1452 l-188 234l45 34l190 -200h8l269 202l39 -39l-273 -231h-90z" glyph-name="Ccaron" horiz-adv-x="1105" unicode="Č"/><glyph d="M434 -25q-162 0 -255 102.5t-93 287.5q0 274 162 458.5t368 184.5q135 0 248 -78l-53 -66q-96 70 -201 70q-170 0 -304 -167t-134 -390q0 -328 272 -328q133 0 254 74l43 -70q-129 -78 -307 -78zM592 1174l-189 299l52 36l182 -260h8l281 260l45 -41l-293 -294h-86z" glyph-name="ccaron" horiz-adv-x="880" unicode="č"/><glyph d="M80 0l268 1350h223q272 0 414.5 -140.5t142.5 -384.5q0 -362 -190 -593.5t-530 -231.5h-328zM180 74h230q291 0 460.5 214t169.5 531q0 211 -120.5 334t-352.5 123h-147zM692 1452l-188 234l45 34l190 -200h9l268 202l39 -39l-273 -231h-90z" glyph-name="Dcaron" horiz-adv-x="1181" unicode="Ď"/><glyph d="M883 850l102 504l92 37l-280 -1391h-82l33 156h-9q-174 -180 -362 -181q-131 0 -209 92.5t-78 262.5q0 279 163 478.5t372 199.5q170 0 249 -158h9zM395 49q188 0 369 213l102 494q-98 178 -243 178q-174 0 -310.5 -182.5t-136.5 -405.5q0 -147 57.5 -222t161.5 -75z M1133 1122l81 422h72l-18 -102l-82 -320h-53z" glyph-name="dcaron" horiz-adv-x="1077" unicode="ď"/><glyph d="M217 74h229q291 0 461 214t170 531q0 211 -120.5 334t-352.5 123h-147l-105 -528h336l-14 -64h-336zM385 1350h223q272 0 414.5 -140.5t142.5 -384.5q0 -362 -190.5 -593.5t-530.5 -231.5h-327l135 684h-146l17 64h143z" glyph-name="Dcroat" horiz-adv-x="1218" unicode="Đ"/><glyph d="M764 262l94 453q-94 178 -240 178q-168 0 -305 -175t-137 -372q0 -147 57.5 -222t161.5 -75q189 0 369 213zM1200 1253l-14 -63h-150l-239 -1190h-86l37 156h-9q-174 -180 -362 -181q-131 0 -209 92.5t-78 262.5q0 252 163 444.5t368 192.5q84 0 148.5 -42t96.5 -116h8 l78 381h-334l15 63h334l39 195l88 25l-45 -220h151z" glyph-name="dcroat" horiz-adv-x="1075" unicode="đ"/><glyph d="M80 0l268 1350h713l-37 -76h-604l-105 -520h394l-17 -76h-389l-123 -602h643l-16 -76h-727zM485 1503l15 70h485l-14 -70h-486z" glyph-name="Emacron" horiz-adv-x="1001" unicode="Ē"/><glyph d="M86 381q0 268 156.5 447.5t355.5 179.5q295 0 295 -349q0 -57 -21 -172h-692q-37 -219 49 -329.5t244 -110.5q143 0 256 90l53 -55q-133 -106 -321 -107q-174 0 -274.5 105.5t-100.5 300.5zM193 547h610q12 66 12 125q0 113 -53 188.5t-172 75.5q-133 0 -245.5 -107.5 t-151.5 -281.5zM391 1241l12 70h488l-10 -70h-490z" glyph-name="emacron" horiz-adv-x="964" unicode="ē"/><glyph d="M80 0l268 1350h713l-37 -76h-604l-105 -520h394l-17 -76h-389l-123 -602h643l-16 -76h-727zM715 1454q-125 0 -180.5 75t-49.5 179l68 10q-4 -84 40 -140t136 -56q176 0 248 196l65 -10q-29 -102 -113.5 -178t-213.5 -76z" glyph-name="Ebreve" horiz-adv-x="1001" unicode="Ĕ"/><glyph d="M86 381q0 268 156.5 447.5t355.5 179.5q295 0 295 -349q0 -57 -21 -172h-692q-37 -219 49 -329.5t244 -110.5q143 0 256 90l53 -55q-133 -106 -321 -107q-174 0 -274.5 105.5t-100.5 300.5zM193 547h610q12 66 12 125q0 113 -53 188.5t-172 75.5q-133 0 -245.5 -107.5 t-151.5 -281.5zM625 1167q-74 0 -126.5 28t-78 74t-35.5 96t-8 105l69 11q-8 -96 41.5 -170t151.5 -74t175 71.5t106 172.5l67 -11q-33 -121 -125 -212t-237 -91z" glyph-name="ebreve" horiz-adv-x="964" unicode="ĕ"/><glyph d="M80 0l268 1350h713l-37 -76h-604l-105 -520h394l-17 -76h-389l-123 -602h643l-16 -76h-727zM731 1481q-31 0 -50 18.5t-19 48.5q0 41 25.5 66.5t60.5 25.5q31 0 50 -19t19 -52q0 -37 -25.5 -62.5t-60.5 -25.5z" glyph-name="Edotaccent" horiz-adv-x="1001" unicode="Ė"/><glyph d="M86 381q0 268 156.5 447.5t355.5 179.5q295 0 295 -349q0 -57 -21 -172h-692q-37 -219 49 -329.5t244 -110.5q143 0 256 90l53 -55q-133 -106 -321 -107q-174 0 -274.5 105.5t-100.5 300.5zM193 547h610q12 66 12 125q0 113 -53 188.5t-172 75.5q-133 0 -245.5 -107.5 t-151.5 -281.5zM637 1221q-29 0 -49.5 19.5t-20.5 47.5q0 39 25.5 65.5t60.5 26.5q31 0 50.5 -19.5t19.5 -49.5q0 -39 -25.5 -64.5t-60.5 -25.5z" glyph-name="edotaccent" horiz-adv-x="964" unicode="ė"/><glyph d="M80 0l268 1350h713l-39 -76h-602l-105 -520h365l-16 -76h-361l-123 -602h643l-16 -76q-88 -8 -166 -98t-78 -168q0 -37 21.5 -60.5t54.5 -23.5q37 0 84 24l25 -57q-66 -35 -123 -35q-63 0 -103.5 33t-40.5 96q0 76 58.5 157t132.5 132h-592z" glyph-name="Eogonek" horiz-adv-x="1001" unicode="Ę"/><glyph d="M377 -287q0 131 170 273q-51 -10 -86 -11q-174 0 -274.5 105.5t-100.5 300.5q0 268 156.5 447.5t355.5 179.5q295 0 295 -349q0 -57 -21 -172h-692q-37 -219 49 -329.5t244 -110.5q131 0 260 96l60 -61q-197 -106 -271 -193q-68 -86 -67 -155q0 -39 21.5 -60.5 t55.5 -21.5q41 0 84 24l23 -55q-63 -37 -123 -37q-63 0 -101 33t-38 96zM193 555h610q12 59 12 117q0 113 -53 188.5t-172 75.5q-131 0 -243.5 -107.5t-153.5 -273.5z" glyph-name="eogonek" horiz-adv-x="964" unicode="ę"/><glyph d="M80 0l268 1350h713l-37 -76h-604l-105 -520h394l-17 -76h-389l-123 -602h643l-16 -76h-727zM672 1452l-189 234l45 34l191 -200h8l268 202l39 -39l-272 -231h-90z" glyph-name="Ecaron" horiz-adv-x="1001" unicode="Ě"/><glyph d="M86 381q0 268 156.5 447.5t355.5 179.5q295 0 295 -349q0 -57 -21 -172h-692q-37 -219 49 -329.5t244 -110.5q143 0 256 90l53 -55q-133 -106 -321 -107q-174 0 -274.5 105.5t-100.5 300.5zM193 547h610q12 66 12 125q0 113 -53 188.5t-172 75.5q-133 0 -245.5 -107.5 t-151.5 -281.5zM575 1174l-188 299l51 36l183 -260h8l280 260l45 -41l-292 -294h-87z" glyph-name="ecaron" horiz-adv-x="964" unicode="ě"/><glyph d="M596 -25q-233 0 -355 144.5t-122 388.5q0 211 80 405.5t244.5 327.5t379.5 133q203 0 318 -125l-62 -57q-106 106 -262 106q-182 0 -326.5 -124.5t-214 -300t-69.5 -353.5q0 -209 97 -339t302 -130q164 0 277 103l90 460l96 45l-113 -548q-159 -136 -360 -136zM588 1448 l-39 39l272 231h90l191 -231l-47 -35l-191 201h-8z" glyph-name="Gcircumflex" horiz-adv-x="1177" unicode="Ĝ"/><glyph d="M342 -473q-168 0 -334 135l47 62q133 -123 291 -123q274 0 344 346l49 229q-186 -180 -364 -180q-131 0 -208 91t-77 259q0 268 161 465t361 197q168 0 252 -160h8l27 135h82l-215 -1067q-37 -186 -145.5 -287.5t-278.5 -101.5zM391 72q82 0 179.5 53t181.5 145l102 486 q-102 178 -244 178q-164 0 -299 -180.5t-135 -393.5q0 -143 56.5 -215.5t158.5 -72.5zM424 1171l-43 43l291 295h88l186 -299l-51 -39l-180 263h-8z" glyph-name="gcircumflex" horiz-adv-x="1067" unicode="ĝ"/><glyph d="M596 -25q-233 0 -355 144.5t-122 388.5q0 211 80 405.5t244.5 327.5t379.5 133q203 0 318 -125l-62 -57q-106 106 -262 106q-182 0 -326.5 -124.5t-214 -300t-69.5 -353.5q0 -209 97 -339t302 -130q164 0 277 103l90 460l96 45l-113 -548q-159 -136 -360 -136zM809 1454 q-125 0 -180.5 75t-48.5 179l67 10q-4 -84 40 -140t136 -56q176 0 248 196l66 -10q-29 -102 -114 -178t-214 -76z" glyph-name="Gbreve" horiz-adv-x="1177" unicode="Ğ"/><glyph d="M342 -473q-168 0 -334 135l47 62q133 -123 291 -123q274 0 344 346l49 229q-186 -180 -364 -180q-131 0 -208 91t-77 259q0 268 161 465t361 197q168 0 252 -160h8l27 135h82l-215 -1067q-37 -186 -145.5 -287.5t-278.5 -101.5zM391 72q82 0 179.5 53t181.5 145l102 486 q-102 178 -244 178q-164 0 -299 -180.5t-135 -393.5q0 -143 56.5 -215.5t158.5 -72.5zM657 1167q-74 0 -126 28t-77.5 74t-35.5 96t-8 105l69 11q-8 -96 41 -170t151.5 -74t175.5 71.5t105 172.5l68 -11q-33 -121 -125.5 -212t-237.5 -91z" glyph-name="gbreve" horiz-adv-x="1067" unicode="ğ"/><glyph d="M596 -25q-233 0 -355 144.5t-122 388.5q0 211 80 405.5t244.5 327.5t379.5 133q203 0 318 -125l-62 -57q-106 106 -262 106q-182 0 -326.5 -124.5t-214 -300t-69.5 -353.5q0 -209 97 -339t302 -130q164 0 277 103l90 460l96 45l-113 -548q-159 -136 -360 -136zM825 1481 q-31 0 -50 18.5t-19 48.5q0 41 25.5 66.5t60.5 25.5q31 0 50 -19t19 -52q0 -37 -25.5 -62.5t-60.5 -25.5z" glyph-name="Gdotaccent" horiz-adv-x="1177" unicode="Ġ"/><glyph d="M342 -473q-168 0 -334 135l47 62q133 -123 291 -123q274 0 344 346l49 229q-186 -180 -364 -180q-131 0 -208 91t-77 259q0 268 161 465t361 197q168 0 252 -160h8l27 135h82l-215 -1067q-37 -186 -145.5 -287.5t-278.5 -101.5zM391 72q82 0 179.5 53t181.5 145l102 486 q-102 178 -244 178q-164 0 -299 -180.5t-135 -393.5q0 -143 56.5 -215.5t158.5 -72.5zM670 1221q-29 0 -49.5 19.5t-20.5 47.5q0 39 25.5 65.5t60.5 26.5q31 0 50.5 -19.5t19.5 -49.5q0 -39 -25.5 -64.5t-60.5 -25.5z" glyph-name="gdotaccent" horiz-adv-x="1067" unicode="ġ"/><glyph d="M596 -25q-233 0 -355 144.5t-122 388.5q0 211 80 405.5t244.5 327.5t379.5 133q203 0 318 -125l-62 -57q-106 106 -262 106q-182 0 -326.5 -124.5t-214 -300t-69.5 -353.5q0 -209 97 -339t302 -130q164 0 277 103l90 460l96 45l-113 -548q-159 -136 -360 -136zM348 -432 l-2 57q250 10 250 119q0 80 -137 92l26 55q111 -12 151 -41.5t40 -87.5q0 -90 -89 -140t-239 -54z" glyph-name="Gcommaaccent" horiz-adv-x="1177" unicode="Ģ"/><glyph d="M342 -473q-168 0 -334 135l47 62q133 -123 291 -123q274 0 344 346l49 229q-186 -180 -364 -180q-131 0 -208 91t-77 259q0 268 161 465t361 197q168 0 252 -160h8l27 135h82l-215 -1067q-37 -186 -145.5 -287.5t-278.5 -101.5zM391 72q82 0 179.5 53t181.5 145l102 486 q-102 178 -244 178q-164 0 -299 -180.5t-135 -393.5q0 -143 56.5 -215.5t158.5 -72.5zM770 1245l-27 -57q-113 12 -151.5 42t-38.5 89q0 90 88 139t240 53l4 -57q-123 -4 -186.5 -36t-63.5 -83q0 -78 135 -90z" glyph-name="gcommaaccent" horiz-adv-x="1067" unicode="ģ"/><glyph d="M80 0l268 1350h88l-121 -596h697l121 596h88l-271 -1350h-88l137 678h-696l-135 -678h-88zM551 1448l-39 39l272 231h90l191 -231l-47 -35l-191 201h-8z" glyph-name="Hcircumflex" horiz-adv-x="1239" unicode="Ĥ"/><glyph d="M82 0l270 1352l92 37l-112 -564h8q178 182 348 183q233 0 234 -240q0 -68 -17 -133l-127 -635h-84l127 623q16 94 17 127q0 94 -42 138t-134 44q-141 0 -349 -207l-145 -725h-86zM197 1536l-39 39l272 231h90l191 -231l-47 -35l-191 201h-8z" glyph-name="hcircumflex" horiz-adv-x="1032" unicode="ĥ"/><glyph d="M1038 754l54 260h-697l-53 -260h696zM1348 1077l-15 -63h-153l-203 -1014h-88l137 678h-696l-135 -678h-89l201 1014h-145l14 63h146l53 273h88l-55 -273h696l55 273h88l-55 -273h156z" glyph-name="Hbar" horiz-adv-x="1296" unicode="Ħ"/><glyph d="M315 784h9q113 92 192.5 137.5t163.5 45.5q233 0 233 -240q0 -68 -16 -133l-119 -594h-84l119 582q16 94 16 127q0 94 -42 138t-134 44q-141 0 -348 -207l-137 -684h-86l237 1190h-147l10 63h152l39 197l88 23l-45 -220h377l-15 -63h-375l-61 -303z" glyph-name="hbar" horiz-adv-x="1032" unicode="ħ"/><glyph d="M80 0l268 1350h88l-268 -1350h-88zM561 1470q-47 0 -87 26t-62.5 57.5t-55 57t-67.5 25.5q-92 0 -142 -159l-61 6q16 102 74.5 163.5t142.5 61.5q59 0 104.5 -41t84 -82t83.5 -41q88 0 142 160l61 -6q-16 -102 -74.5 -165t-142.5 -63z" glyph-name="Itilde" horiz-adv-x="464" unicode="Ĩ"/><glyph d="M82 0l199 983h84l-197 -983h-86zM535 1186q-49 0 -87 31.5t-58.5 68.5t-52.5 68.5t-71 31.5q-96 0 -141 -194l-70 4q63 258 219 258q49 0 87 -30.5t58.5 -68.5t52.5 -69t71 -31q100 0 141 193l70 -4q-67 -258 -219 -258z" glyph-name="itilde" horiz-adv-x="450" unicode="ĩ"/><glyph d="M80 0l268 1350h88l-268 -1350h-88zM164 1503l14 70h486l-15 -70h-485z" glyph-name="Imacron" horiz-adv-x="464" unicode="Ī"/><glyph d="M82 0l199 983h84l-197 -983h-86zM131 1241l12 70h488l-10 -70h-490z" glyph-name="imacron" horiz-adv-x="450" unicode="ī"/><glyph d="M80 0l268 1350h88l-268 -1350h-88zM393 1454q-125 0 -180 75t-49 179l67 10q-4 -84 40 -140t137 -56q176 0 247 196l66 -10q-29 -102 -114 -178t-214 -76z" glyph-name="Ibreve" horiz-adv-x="464" unicode="Ĭ"/><glyph d="M82 0l199 983h84l-197 -983h-86zM365 1167q-74 0 -126.5 28t-78 74t-35.5 96t-8 105l69 11q-8 -96 41 -170t151.5 -74t175.5 71.5t105 172.5l68 -11q-33 -121 -125 -212t-237 -91z" glyph-name="ibreve" horiz-adv-x="450" unicode="ĭ"/><glyph d="M53 -418q-63 0 -100 33t-37 96q0 74 54.5 153t119.5 136h-10l268 1350h88l-268 -1350q-72 -59 -122 -132t-50 -134q0 -39 21.5 -61.5t56.5 -22.5q37 0 82 24l24 -49q-55 -43 -127 -43z" glyph-name="Iogonek" horiz-adv-x="464" unicode="Į"/><glyph d="M51 -416q-63 0 -101 33t-38 96q0 76 56.5 156t127.5 131h-14l199 983h84l-197 -983q-178 -147 -178 -266q0 -39 21.5 -60.5t56.5 -21.5q43 0 82 24l24 -55q-64 -37 -123 -37zM375 1221q-29 0 -48.5 19.5t-19.5 47.5q0 41 24.5 66.5t61.5 25.5q29 0 48.5 -18.5t19.5 -50.5 q0 -39 -25.5 -64.5t-60.5 -25.5z" glyph-name="iogonek" horiz-adv-x="450" unicode="į"/><glyph d="M80 0l268 1350h88l-268 -1350h-88zM410 1481q-31 0 -50.5 18.5t-19.5 48.5q0 41 26.5 66.5t59.5 25.5q29 0 49.5 -19t20.5 -52q0 -37 -24.5 -62.5t-61.5 -25.5z" glyph-name="Idotaccent" horiz-adv-x="464" unicode="İ"/><glyph d="M82 0l199 983h84l-197 -983h-86z" glyph-name="dotlessi" horiz-adv-x="450" unicode="ı"/><glyph d="M307 -25q-225 0 -305 209l68 41q55 -174 239 -174q113 0 185.5 82t103.5 229l197 988h88l-199 -998q-31 -176 -128 -276.5t-249 -100.5zM618 1448l-38 39l272 231h90l191 -231l-48 -35l-190 201h-8z" glyph-name="Jcircumflex" horiz-adv-x="892" unicode="Ĵ"/><glyph d="M-117 -469l-22 74q76 6 116.5 56t65.5 149l238 1173h84l-234 -1163q-31 -137 -89.5 -208t-158.5 -81zM121 1171l-43 43l291 295h88l186 -299l-51 -39l-180 263h-9z" glyph-name="jcircumflex" horiz-adv-x="450" unicode="ĵ"/><glyph d="M80 0l268 1350h88l-145 -734h4l774 734h105l-512 -498l313 -852h-96l-285 795l-328 -308l-98 -487h-88zM301 -432l-2 57q250 10 250 119q0 80 -137 92l26 55q111 -12 151 -41.5t40 -87.5q0 -90 -89 -140t-239 -54z" glyph-name="Kcommaaccent" horiz-adv-x="1089" unicode="Ķ"/><glyph d="M82 0l270 1352l92 39l-198 -1002h6l582 594h102l-385 -399l242 -584h-93l-213 528l-268 -272l-51 -256h-86zM182 -432l-2 57q250 10 250 119q0 80 -137 92l26 55q111 -12 151 -41.5t40 -87.5q0 -90 -89 -140t-239 -54z" glyph-name="kcommaaccent" horiz-adv-x="915" unicode="ķ"/><glyph d="M82 0l199 983h84l-119 -594h6l582 594h102l-385 -399l237 -584h-88l-213 528l-268 -272l-51 -256h-86z" glyph-name="kgreenlandic" horiz-adv-x="915" unicode="ĸ"/><glyph d="M80 0l268 1350h88l-252 -1274h600l-16 -76h-688zM381 1458l-35 49l299 230l49 -72z" glyph-name="Lacute" horiz-adv-x="901" unicode="Ĺ"/><glyph d="M168 0h-86l270 1354l92 35zM408 1563l-35 49l299 229l49 -72z" glyph-name="lacute" horiz-adv-x="475" unicode="ĺ"/><glyph d="M80 0l268 1350h88l-252 -1274h600l-16 -76h-688zM207 -432l-2 57q250 10 250 119q0 80 -138 92l27 55q111 -12 151 -41.5t40 -87.5q0 -90 -89 -140t-239 -54z" glyph-name="Lcommaaccent" horiz-adv-x="901" unicode="Ļ"/><glyph d="M168 0h-86l270 1354l92 35zM-115 -432l-2 57q250 10 250 119q0 80 -137 92l27 55q111 -12 150.5 -41.5t39.5 -87.5q0 -90 -89 -140t-239 -54z" glyph-name="lcommaaccent" horiz-adv-x="475" unicode="ļ"/><glyph d="M80 0l268 1350h88l-252 -1274h600l-16 -76h-688zM733 1057l82 422h72l-19 -103l-82 -319h-53z" glyph-name="Lcaron" horiz-adv-x="901" unicode="Ľ"/><glyph d="M168 0h-86l270 1354l92 35zM504 1122l82 422h71l-18 -102l-82 -320h-53z" glyph-name="lcaron" horiz-adv-x="448" unicode="ľ"/><glyph d="M80 0l268 1350h88l-252 -1274h600l-16 -76h-688zM707 586q-31 0 -49.5 20.5t-18.5 50.5q0 43 29.5 76t70.5 33q63 0 64 -76q0 -43 -27.5 -73.5t-68.5 -30.5z" glyph-name="Ldot" horiz-adv-x="901" unicode="Ŀ"/><glyph d="M168 0h-86l270 1354l92 35zM526 584q-31 0 -49 20.5t-18 50.5q0 43 29.5 76t70.5 33q63 0 64 -76q0 -43 -28 -73.5t-69 -30.5z" glyph-name="ldot" horiz-adv-x="569" unicode="ŀ"/><glyph d="M184 76h600l-16 -76h-688l104 526l-166 -82l-26 64l209 100l147 742h88l-139 -701l403 195l27 -66l-444 -211z" glyph-name="Lslash" horiz-adv-x="901" unicode="Ł"/><glyph d="M328 795l-158 -795h-86l149 748l-129 -78l-24 59l172 102l121 611l90 31l-119 -594l150 90l26 -60z" glyph-name="lslash" horiz-adv-x="477" unicode="ł"/><glyph d="M80 0l268 1350h94l447 -1203h8l238 1203h88l-271 -1350h-90l-448 1210h-8l-240 -1210h-86zM772 1458l-35 49l299 230l49 -72z" glyph-name="Nacute" horiz-adv-x="1239" unicode="Ń"/><glyph d="M82 0l199 983h79l-32 -156h8q106 90 187 135.5t165 45.5q233 0 234 -240q0 -68 -17 -133l-127 -635h-84l127 623q16 94 17 127q0 94 -42 138t-134 44q-141 0 -349 -207l-145 -725h-86zM625 1188l-43 51l323 297l56 -70z" glyph-name="nacute" horiz-adv-x="1044" unicode="ń"/><glyph d="M80 0l268 1350h94l447 -1203h8l238 1203h88l-271 -1350h-90l-448 1210h-8l-240 -1210h-86zM291 -449l-2 58q250 10 250 119q0 80 -138 92l27 55q111 -12 150.5 -42t39.5 -87q0 -90 -88.5 -140.5t-238.5 -54.5z" glyph-name="Ncommaaccent" horiz-adv-x="1239" unicode="Ņ"/><glyph d="M82 0l199 983h79l-32 -156h8q106 90 187 135.5t165 45.5q233 0 234 -240q0 -68 -17 -133l-127 -635h-84l127 623q16 94 17 127q0 94 -42 138t-134 44q-141 0 -349 -207l-145 -725h-86zM207 -432l-2 57q250 10 250 119q0 80 -138 92l27 55q111 -12 151 -41.5t40 -87.5 q0 -90 -89 -140t-239 -54z" glyph-name="ncommaaccent" horiz-adv-x="1044" unicode="ņ"/><glyph d="M80 0l268 1350h94l447 -1203h8l238 1203h88l-271 -1350h-90l-448 1210h-8l-240 -1210h-86zM745 1452l-188 234l45 34l191 -200h8l268 202l39 -39l-272 -231h-91z" glyph-name="Ncaron" horiz-adv-x="1239" unicode="Ň"/><glyph d="M82 0l199 983h79l-32 -156h8q106 90 187 135.5t165 45.5q233 0 234 -240q0 -68 -17 -133l-127 -635h-84l127 623q16 94 17 127q0 94 -42 138t-134 44q-141 0 -349 -207l-145 -725h-86zM635 1174l-189 299l52 36l182 -260h8l281 260l45 -41l-293 -294h-86z" glyph-name="ncaron" horiz-adv-x="1044" unicode="ň"/><glyph d="M403 1282h-8q-76 0 -76 70q0 35 23 59.5t57 24.5q37 0 59.5 -28t22.5 -75q0 -113 -60.5 -202t-162.5 -142l-27 51q168 95 172 242zM457 0l198 983h80l-33 -156h9q106 90 187 135.5t165 45.5q233 0 233 -240q0 -68 -16 -133l-127 -635h-84l127 623q16 94 16 127 q0 94 -42 138t-134 44q-141 0 -348 -207l-145 -725h-86z" glyph-name="napostrophe" horiz-adv-x="1413" unicode="ŉ"/><glyph d="M567 -25q-215 0 -328.5 153t-113.5 409q0 143 45 289.5t124 269.5t204 200.5t268 77.5q215 0 328.5 -152.5t113.5 -408.5q0 -143 -45 -289.5t-123.5 -269.5t-204 -201t-268.5 -78zM573 51q164 0 293 124t191.5 293t62.5 335q0 231 -88 363t-272 132q-162 0 -291 -123.5 t-191.5 -292.5t-62.5 -335q0 -231 88 -363.5t270 -132.5zM580 1503l14 70h485l-14 -70h-485z" glyph-name="Omacron" horiz-adv-x="1265" unicode="Ō"/><glyph d="M422 -25q-154 0 -243 102.5t-89 287.5q0 268 155.5 455.5t362.5 187.5q156 0 245 -102.5t89 -287.5q0 -268 -156.5 -455.5t-363.5 -187.5zM430 49q162 0 294 168t132 391q0 160 -65.5 243t-188.5 83q-164 0 -296 -168t-132 -389q0 -160 66.5 -244t189.5 -84zM440 1241 l13 70h487l-10 -70h-490z" glyph-name="omacron" horiz-adv-x="1032" unicode="ō"/><glyph d="M567 -25q-215 0 -328.5 153t-113.5 409q0 143 45 289.5t124 269.5t204 200.5t268 77.5q215 0 328.5 -152.5t113.5 -408.5q0 -143 -45 -289.5t-123.5 -269.5t-204 -201t-268.5 -78zM573 51q164 0 293 124t191.5 293t62.5 335q0 231 -88 363t-272 132q-162 0 -291 -123.5 t-191.5 -292.5t-62.5 -335q0 -231 88 -363.5t270 -132.5zM809 1454q-125 0 -180.5 75t-48.5 179l67 10q-4 -84 40 -140t136 -56q176 0 248 196l66 -10q-29 -102 -114 -178t-214 -76z" glyph-name="Obreve" horiz-adv-x="1265" unicode="Ŏ"/><glyph d="M422 -25q-154 0 -243 102.5t-89 287.5q0 268 155.5 455.5t362.5 187.5q156 0 245 -102.5t89 -287.5q0 -268 -156.5 -455.5t-363.5 -187.5zM430 49q162 0 294 168t132 391q0 160 -65.5 243t-188.5 83q-164 0 -296 -168t-132 -389q0 -160 66.5 -244t189.5 -84zM674 1167 q-74 0 -126 28t-78 74t-36 96t-8 105l70 11q-8 -96 41 -170t151.5 -74t175 71.5t105.5 172.5l67 -11q-33 -121 -125 -212t-237 -91z" glyph-name="obreve" horiz-adv-x="1032" unicode="ŏ"/><glyph d="M567 -25q-215 0 -328.5 153t-113.5 409q0 143 45 289.5t124 269.5t204 200.5t268 77.5q215 0 328.5 -152.5t113.5 -408.5q0 -143 -45 -289.5t-123.5 -269.5t-204 -201t-268.5 -78zM573 51q164 0 293 124t191.5 293t62.5 335q0 231 -88 363t-272 132q-162 0 -291 -123.5 t-191.5 -292.5t-62.5 -335q0 -231 88 -363.5t270 -132.5zM702 1458l-49 31l234 283l61 -48zM997 1458l-49 31l234 283l61 -48z" glyph-name="Ohungarumlaut" horiz-adv-x="1265" unicode="Ő"/><glyph d="M422 -25q-154 0 -243 102.5t-89 287.5q0 268 155.5 455.5t362.5 187.5q156 0 245 -102.5t89 -287.5q0 -268 -156.5 -455.5t-363.5 -187.5zM430 49q162 0 294 168t132 391q0 160 -65.5 243t-188.5 83q-164 0 -296 -168t-132 -389q0 -160 66.5 -244t189.5 -84zM569 1174 l-51 32l240 324l61 -47zM844 1174l-51 32l239 324l62 -47z" glyph-name="ohungarumlaut" horiz-adv-x="1032" unicode="ő"/><glyph d="M1456 0h-772q-272 0 -415.5 140.5t-143.5 383.5q0 362 190.5 594t532.5 232h860l-39 -76h-555l-102 -520h356l-16 -76h-355l-123 -602h599zM688 74h103l239 1202h-184q-291 0 -461 -214t-170 -532q0 -211 121 -333.5t352 -122.5z" glyph-name="OE" horiz-adv-x="1650" unicode="Œ"/><glyph d="M420 -25q-154 0 -242 102.5t-88 287.5q0 270 155.5 456.5t360.5 186.5q131 0 213 -76t105 -217q66 137 171 215t218 78q154 0 225.5 -93.5t71.5 -255.5q0 -53 -19 -172h-661q-31 -219 45 -329.5t215 -110.5q141 0 256 90l59 -55q-137 -106 -329 -107q-133 0 -217.5 81 t-104.5 233q-70 -145 -186.5 -229.5t-247.5 -84.5zM430 49q160 0 292 168t132 391q0 160 -65.5 243t-188.5 83q-160 0 -293 -168t-133 -389q0 -160 66.5 -244t189.5 -84zM944 555h576q10 66 10 117q0 113 -53.5 188.5t-172 75.5t-221 -107.5t-139.5 -273.5z" glyph-name="oe" horiz-adv-x="1681" unicode="œ"/><glyph d="M307 690h236q217 0 335.5 93.5t118.5 260.5q0 125 -85 178.5t-263 53.5h-229zM348 1350h340q397 0 397 -297q0 -178 -118.5 -294t-311.5 -136l256 -623h-98l-250 616h-272l-123 -616h-88zM702 1458l-34 49l299 230l49 -72z" glyph-name="Racute" horiz-adv-x="1087" unicode="Ŕ"/><glyph d="M82 0l199 983h77l-39 -186h9q66 92 170 151.5t227 59.5l-72 -97q-80 2 -186.5 -63.5t-169.5 -196.5l-129 -651h-86zM453 1188l-43 51l323 297l55 -70z" glyph-name="racute" horiz-adv-x="649" unicode="ŕ"/><glyph d="M307 690h236q217 0 335.5 93.5t118.5 260.5q0 125 -85 178.5t-263 53.5h-229zM348 1350h340q397 0 397 -297q0 -178 -118.5 -294t-311.5 -136l256 -623h-98l-250 616h-272l-123 -616h-88zM258 -449l-2 58q250 10 250 119q0 80 -137 92l26 55q111 -12 151 -42t40 -87 q0 -90 -89 -140.5t-239 -54.5z" glyph-name="Rcommaaccent" horiz-adv-x="1087" unicode="Ŗ"/><glyph d="M82 0l199 983h77l-39 -186h9q66 92 170 151.5t227 59.5l-72 -97q-80 2 -186.5 -63.5t-169.5 -196.5l-129 -651h-86zM-109 -432l-2 57q250 10 250 119q0 80 -137 92l27 55q111 -12 150.5 -41.5t39.5 -87.5q0 -90 -89 -140t-239 -54z" glyph-name="rcommaaccent" horiz-adv-x="649" unicode="ŗ"/><glyph d="M307 690h236q217 0 335.5 93.5t118.5 260.5q0 125 -85 178.5t-263 53.5h-229zM348 1350h340q397 0 397 -297q0 -178 -118.5 -294t-311.5 -136l256 -623h-98l-250 616h-272l-123 -616h-88zM676 1452l-189 234l45 34l191 -200h8l268 202l39 -39l-272 -231h-90z" glyph-name="Rcaron" horiz-adv-x="1087" unicode="Ř"/><glyph d="M82 0l199 983h77l-39 -186h9q66 92 170 151.5t227 59.5l-72 -97q-80 2 -186.5 -63.5t-169.5 -196.5l-129 -651h-86zM463 1174l-189 299l52 36l182 -260h8l281 260l45 -41l-293 -294h-86z" glyph-name="rcaron" horiz-adv-x="649" unicode="ř"/><glyph d="M465 -25q-246 0 -432 170l73 45q160 -139 369 -139q147 0 245.5 86t98.5 225q0 150 -174 254l-174 103q-211 129 -211 307q0 143 110.5 245.5t278.5 102.5q209 0 365 -112l-78 -58q-139 94 -299 94q-125 0 -206 -80.5t-81 -181.5q0 -145 178 -248l170 -98 q211 -123 211 -317q0 -176 -125.5 -287t-318.5 -111zM676 1458l-35 49l299 230l49 -72z" glyph-name="Sacute" horiz-adv-x="1009" unicode="Ś"/><glyph d="M326 -25q-207 0 -328 121l78 43q92 -92 260 -92q102 0 177 61.5t75 145.5q0 61 -39 106.5t-150 104.5q-133 74 -186 131t-53 135q0 121 91 199t218 78q160 0 272 -72l-77 -55q-82 55 -197 55q-94 0 -159.5 -57.5t-65.5 -135.5q0 -45 28.5 -82.5t60 -58t93.5 -55.5 q147 -80 196.5 -142.5t49.5 -136.5q0 -133 -97 -213t-247 -80zM473 1188l-43 51l324 297l55 -70z" glyph-name="sacute" horiz-adv-x="796" unicode="ś"/><glyph d="M465 -25q-246 0 -432 170l73 45q160 -139 369 -139q147 0 245.5 86t98.5 225q0 150 -174 254l-174 103q-211 129 -211 307q0 143 110.5 245.5t278.5 102.5q209 0 365 -112l-78 -58q-139 94 -299 94q-125 0 -206 -80.5t-81 -181.5q0 -145 178 -248l170 -98 q211 -123 211 -317q0 -176 -125.5 -287t-318.5 -111zM471 1448l-39 39l273 231h90l190 -231l-47 -35l-190 201h-9z" glyph-name="Scircumflex" horiz-adv-x="1009" unicode="Ŝ"/><glyph d="M326 -25q-207 0 -328 121l78 43q92 -92 260 -92q102 0 177 61.5t75 145.5q0 61 -39 106.5t-150 104.5q-133 74 -186 131t-53 135q0 121 91 199t218 78q160 0 272 -72l-77 -55q-82 55 -197 55q-94 0 -159.5 -57.5t-65.5 -135.5q0 -45 28.5 -82.5t60 -58t93.5 -55.5 q147 -80 196.5 -142.5t49.5 -136.5q0 -133 -97 -213t-247 -80zM299 1171l-43 43l291 295h88l186 -299l-51 -39l-180 263h-8z" glyph-name="scircumflex" horiz-adv-x="796" unicode="ŝ"/><glyph d="M465 -25q193 0 318.5 111t125.5 287q0 195 -211 317l-170 98q-178 102 -178 248q0 100 81 181t206 81q160 0 299 -94l78 58q-156 113 -365 112q-168 0 -278.5 -102.5t-110.5 -245.5q0 -178 211 -307l174 -103q174 -104 174 -254q0 -139 -98 -225t-246 -86 q-209 0 -369 139l-73 -45q186 -170 432 -170zM193 -449l-5 58q248 8 252 121q0 80 -139 92l117 182h71l-86 -141q70 -18 94.5 -45t22.5 -74q-2 -90 -88.5 -139.5t-238.5 -53.5z" glyph-name="Scedilla" horiz-adv-x="1009" unicode="Ş"/><glyph d="M326 -25q-207 0 -328 121l78 43q92 -92 260 -92q102 0 177 61.5t75 145.5q0 61 -39 106.5t-150 104.5q-133 74 -186 131t-53 135q0 121 91 199t218 78q160 0 272 -72l-77 -55q-82 55 -197 55q-94 0 -159.5 -57.5t-65.5 -135.5q0 -45 28.5 -82.5t60 -58t93.5 -55.5 q147 -80 196.5 -142.5t49.5 -136.5q0 -133 -97 -213t-247 -80zM98 -449l-4 58q248 8 252 121q0 80 -139 92l117 182h71l-86 -141q70 -18 94.5 -45t22.5 -74q-2 -90 -89 -139.5t-239 -53.5z" glyph-name="scedilla" horiz-adv-x="796" unicode="ş"/><glyph d="M465 -25q-246 0 -432 170l73 45q160 -139 369 -139q147 0 245.5 86t98.5 225q0 150 -174 254l-174 103q-211 129 -211 307q0 143 110.5 245.5t278.5 102.5q209 0 365 -112l-78 -58q-139 94 -299 94q-125 0 -206 -80.5t-81 -181.5q0 -145 178 -248l170 -98 q211 -123 211 -317q0 -176 -125.5 -287t-318.5 -111zM649 1452l-188 234l45 34l190 -200h9l268 202l39 -39l-273 -231h-90z" glyph-name="Scaron" horiz-adv-x="1009" unicode="Š"/><glyph d="M326 -25q-207 0 -328 121l78 43q92 -92 260 -92q102 0 177 61.5t75 145.5q0 61 -39 106.5t-150 104.5q-133 74 -186 131t-53 135q0 121 91 199t218 78q160 0 272 -72l-77 -55q-82 55 -197 55q-94 0 -159.5 -57.5t-65.5 -135.5q0 -45 28.5 -82.5t60 -58t93.5 -55.5 q147 -80 196.5 -142.5t49.5 -136.5q0 -133 -97 -213t-247 -80zM483 1174l-188 299l51 36l182 -260h9l280 260l45 -41l-293 -294h-86z" glyph-name="scaron" horiz-adv-x="796" unicode="š"/><glyph d="M360 0h89l253 1270h414l17 80h-916l-16 -80h413zM129 -449l-4 58q248 8 252 121q0 80 -139 92l116 182h72l-86 -141q70 -18 94.5 -45t22.5 -74q-2 -90 -89 -139.5t-239 -53.5z" glyph-name="Tcommaaccent" horiz-adv-x="1017" unicode="Ţ"/><glyph d="M356 -25q72 0 133 29l23 90q-72 -45 -139 -45q-78 0 -109 34t-31 103q0 45 9 78l133 645h266l16 74h-266l70 281l-96 -43l-56 -238h-159l-13 -74h154l-133 -641q-8 -47 -8 -98q-1 -195 206 -195zM88 -449l-4 58q248 8 252 121q0 80 -139 92l116 182h72l-86 -141 q70 -18 94.5 -45t22.5 -74q-2 -90 -89 -139.5t-239 -53.5z" glyph-name="tcommaaccent" horiz-adv-x="612" unicode="ţ"/><glyph d="M360 0l254 1270h-413l16 80h916l-17 -80h-414l-253 -1270h-89zM623 1452l-189 234l45 34l191 -200h8l268 202l39 -39l-272 -231h-90z" glyph-name="Tcaron" horiz-adv-x="1017" unicode="Ť"/><glyph d="M356 -25q-207 0 -206 195q0 51 8 98l133 641h-154l13 74h159l56 238l96 43l-70 -281h266l-16 -74h-266l-133 -645q-8 -33 -9 -78q0 -70 31 -103.5t109 -33.5q68 0 139 45l-23 -90q-61 -29 -133 -29zM621 1122l81 422h72l-18 -102l-82 -320h-53z" glyph-name="tcaron" horiz-adv-x="612" unicode="ť"/><glyph d="M184 551l160 799h88l-158 -791q-20 -80 -20 -166q0 -342 313 -342q137 0 240.5 108.5t150.5 336.5l170 854h89l-175 -867q-53 -266 -181 -387t-302 -121q-186 0 -289.5 103.5t-103.5 298.5q0 90 18 174zM952 1470q-47 0 -87 26t-62.5 57.5t-55 57t-67.5 25.5 q-92 0 -141 -159l-62 6q16 102 74.5 163.5t142.5 61.5q59 0 104.5 -41t84.5 -82t84 -41q88 0 141 160l61 -6q-16 -102 -74.5 -165t-142.5 -63z" glyph-name="Utilde" horiz-adv-x="1228" unicode="Ũ"/><glyph d="M973 983l-197 -983h-84l35 160h-8q-106 -92 -186 -138.5t-162 -46.5q-236 0 -236 240q0 70 17 133l127 635h83l-124 -623q-16 -68 -17 -127q0 -94 42 -138t132 -44q139 0 348 207l146 725h84zM823 1186q-49 0 -87 31.5t-58.5 68.5t-52 68.5t-70.5 31.5q-96 0 -141 -194 l-70 4q29 117 79 187.5t140 70.5q49 0 87 -30.5t58.5 -68.5t52.5 -69t70 -31q100 0 142 193l69 -4q-67 -258 -219 -258z" glyph-name="utilde" horiz-adv-x="1060" unicode="ũ"/><glyph d="M184 551l160 799h88l-158 -791q-20 -80 -20 -166q0 -342 313 -342q137 0 240.5 108.5t150.5 336.5l170 854h89l-175 -867q-53 -266 -181 -387t-302 -121q-186 0 -289.5 103.5t-103.5 298.5q0 90 18 174zM555 1503l14 70h486l-15 -70h-485z" glyph-name="Umacron" horiz-adv-x="1228" unicode="Ū"/><glyph d="M973 983l-197 -983h-84l35 160h-8q-106 -92 -186 -138.5t-162 -46.5q-236 0 -236 240q0 70 17 133l127 635h83l-124 -623q-16 -68 -17 -127q0 -94 42 -138t132 -44q139 0 348 207l146 725h84zM420 1241l12 70h488l-11 -70h-489z" glyph-name="umacron" horiz-adv-x="1060" unicode="ū"/><glyph d="M184 551l160 799h88l-158 -791q-20 -80 -20 -166q0 -342 313 -342q137 0 240.5 108.5t150.5 336.5l170 854h89l-175 -867q-53 -266 -181 -387t-302 -121q-186 0 -289.5 103.5t-103.5 298.5q0 90 18 174zM784 1454q-125 0 -180 75t-49 179l68 10q-4 -84 40 -140t136 -56 q176 0 248 196l65 -10q-29 -102 -114 -178t-214 -76z" glyph-name="Ubreve" horiz-adv-x="1228" unicode="Ŭ"/><glyph d="M973 983l-197 -983h-84l35 160h-8q-106 -92 -186 -138.5t-162 -46.5q-236 0 -236 240q0 70 17 133l127 635h83l-124 -623q-16 -68 -17 -127q0 -94 42 -138t132 -44q139 0 348 207l146 725h84zM653 1167q-74 0 -126 28t-77.5 74t-36 96t-7.5 105l69 11q-8 -96 41 -170 t151.5 -74t175 71.5t105.5 172.5l68 -11q-33 -121 -125.5 -212t-237.5 -91z" glyph-name="ubreve" horiz-adv-x="1060" unicode="ŭ"/><glyph d="M184 551l160 799h88l-158 -791q-20 -80 -20 -166q0 -342 313 -342q137 0 240.5 108.5t150.5 336.5l170 854h89l-175 -867q-53 -266 -181 -387t-302 -121q-186 0 -289.5 103.5t-103.5 298.5q0 90 18 174zM801 1436q-66 0 -111 41t-45 114q0 80 57.5 134.5t139.5 54.5 q66 0 110.5 -40t44.5 -114q0 -80 -57 -135t-139 -55zM805 1489q53 0 92 38t39 93q0 106 -98 106q-55 0 -93 -37.5t-38 -93.5q0 -106 98 -106z" glyph-name="Uring" horiz-adv-x="1228" unicode="Ů"/><glyph d="M973 983l-197 -983h-84l35 160h-8q-106 -92 -186 -138.5t-162 -46.5q-236 0 -236 240q0 70 17 133l127 635h83l-124 -623q-16 -68 -17 -127q0 -94 42 -138t132 -44q139 0 348 207l146 725h84zM662 1126q-76 0 -124.5 42t-48.5 118q0 92 59.5 157.5t151.5 65.5 q76 0 125 -42t49 -117q0 -92 -60 -158t-152 -66zM668 1180q57 0 99 49t42 117q0 49 -29.5 79.5t-83.5 30.5q-59 0 -101 -49t-42 -117q0 -51 31 -80.5t84 -29.5z" glyph-name="uring" horiz-adv-x="1060" unicode="ů"/><glyph d="M184 551l160 799h88l-158 -791q-20 -80 -20 -166q0 -342 313 -342q137 0 240.5 108.5t150.5 336.5l170 854h89l-175 -867q-53 -266 -181 -387t-302 -121q-186 0 -289.5 103.5t-103.5 298.5q0 90 18 174zM678 1458l-49 31l233 283l62 -48zM973 1458l-49 31l233 283l62 -48 z" glyph-name="Uhungarumlaut" horiz-adv-x="1228" unicode="Ű"/><glyph d="M973 983l-197 -983h-84l35 160h-8q-106 -92 -186 -138.5t-162 -46.5q-236 0 -236 240q0 70 17 133l127 635h83l-124 -623q-16 -68 -17 -127q0 -94 42 -138t132 -44q139 0 348 207l146 725h84zM549 1174l-51 32l239 324l62 -47zM823 1174l-51 32l240 324l61 -47z" glyph-name="uhungarumlaut" horiz-adv-x="1060" unicode="ű"/><glyph d="M1217 1350l-175 -867q-43 -221 -135 -333.5t-248 -165.5q-115 -39 -175 -111t-60 -139q0 -37 21.5 -60.5t54.5 -23.5q41 0 82 24l24 -57q-59 -35 -122.5 -35t-102.5 33t-39 96.5t49 139t121 126.5q-168 16 -257 119t-89 281q0 90 18 174l160 799h88l-158 -791 q-20 -80 -20 -166q0 -342 313 -342q137 0 240.5 108.5t150.5 336.5l170 854h89z" glyph-name="Uogonek" horiz-adv-x="1228" unicode="Ų"/><glyph d="M606 -416q-63 0 -101 33t-38 96q-8 82 60.5 168t170.5 137l29 142h-8q-106 -92 -186 -138.5t-162 -46.5q-236 0 -236 240q0 70 17 133l127 635h83l-124 -623q-16 -68 -17 -127q0 -94 42 -138t132 -44q139 0 348 207l146 725h84l-197 -983q-231 -131 -231 -266 q0 -39 21.5 -60.5t56.5 -21.5q41 0 84 24l22 -55q-64 -37 -123 -37z" glyph-name="uogonek" horiz-adv-x="1060" unicode="ų"/><glyph d="M217 0l2 1350h88l-12 -1219h8l571 1219h91l43 -1219h8l510 1219h90l-576 -1350h-110l-29 1229h-8l-565 -1229h-111zM692 1448l-39 39l273 231h90l190 -231l-47 -35l-190 201h-8z" glyph-name="Wcircumflex" horiz-adv-x="1503" unicode="Ŵ"/><glyph d="M225 0l-84 983h84l72 -893h8l412 893h102l62 -893h8l418 893h82l-463 -983h-115l-57 887h-9l-405 -887h-115zM596 1171l-43 43l291 295h88l186 -299l-51 -39l-180 263h-8z" glyph-name="wcircumflex" horiz-adv-x="1398" unicode="ŵ"/><glyph d="M287 0l110 551l-223 799h90l189 -717h8l489 717h94l-559 -799l-110 -551h-88zM375 1448l-39 39l272 231h90l191 -231l-47 -35l-191 201h-8z" glyph-name="Ycircumflex" horiz-adv-x="886" unicode="Ŷ"/><glyph d="M-63 -449q-45 0 -97 25l33 68q35 -18 70 -19q166 0 301 275l43 84l-166 999h84l141 -891h8l482 891h86l-607 -1104q-80 -152 -167.5 -240t-210.5 -88zM303 1171l-43 43l291 295h88l186 -299l-51 -39l-180 263h-8z" glyph-name="ycircumflex" horiz-adv-x="858" unicode="ŷ"/><glyph d="M287 0l110 551l-223 799h90l189 -717h8l489 717h94l-559 -799l-110 -551h-88zM438 1481q-61 0 -61 61q0 37 22.5 61.5t53.5 24.5q61 0 61 -63q0 -35 -22.5 -59.5t-53.5 -24.5zM788 1481q-61 0 -61 61q0 37 22.5 61.5t53.5 24.5q61 0 61 -63q0 -35 -22.5 -59.5 t-53.5 -24.5z" glyph-name="Ydieresis" horiz-adv-x="886" unicode="Ÿ"/><glyph d="M2 0l12 53l914 1221h-666l17 76h770l-11 -54l-909 -1220h735l-16 -76h-846zM678 1458l-35 49l299 230l49 -72z" glyph-name="Zacute" horiz-adv-x="1034" unicode="Ź"/><glyph d="M-20 0l8 51l702 858h-502l17 74h610l-8 -51l-705 -858h578l-16 -74h-684zM502 1188l-43 51l323 297l56 -70z" glyph-name="zacute" horiz-adv-x="800" unicode="ź"/><glyph d="M2 0l12 53l914 1221h-666l17 76h770l-11 -54l-909 -1220h735l-16 -76h-846zM711 1481q-31 0 -50.5 18.5t-19.5 48.5q0 41 25.5 66.5t60.5 25.5q31 0 50.5 -19t19.5 -52q0 -37 -25.5 -62.5t-60.5 -25.5z" glyph-name="Zdotaccent" horiz-adv-x="1034" unicode="Ż"/><glyph d="M-20 0l8 51l702 858h-502l17 74h610l-8 -51l-705 -858h578l-16 -74h-684zM573 1221q-29 0 -49 19.5t-20 47.5q0 39 26.5 65.5t59.5 26.5q31 0 50 -19.5t19 -49.5q0 -39 -25.5 -64.5t-60.5 -25.5z" glyph-name="zdotaccent" horiz-adv-x="800" unicode="ż"/><glyph d="M2 0l12 53l914 1221h-666l17 76h770l-11 -54l-909 -1220h735l-16 -76h-846zM651 1452l-188 234l45 34l190 -200h9l268 202l39 -39l-273 -231h-90z" glyph-name="Zcaron" horiz-adv-x="1034" unicode="Ž"/><glyph d="M-20 0l8 51l702 858h-502l17 74h610l-8 -51l-705 -858h578l-16 -74h-684zM512 1174l-188 299l51 36l182 -260h8l281 260l45 -41l-293 -294h-86z" glyph-name="zcaron" horiz-adv-x="800" unicode="ž"/><glyph d="M309 711l-98 -484q98 -178 242 -178q174 0 307 175t133 394q0 135 -58.5 205t-162.5 70q-80 0 -178.5 -50t-184.5 -132zM324 805h4q201 162 362 162q133 0 210 -86t77 -248q0 -270 -159 -464t-365 -194q-162 0 -254 160h-6l-27 -135h-84l237 1190h-147l12 63h150l37 187 l90 33l-43 -220h375l-15 -63h-375l-36 -186z" glyph-name="uni0180" horiz-adv-x="1032" unicode="ƀ"/><glyph d="M1102 600h-885q-37 -252 56.5 -400.5t275.5 -148.5q199 0 351.5 152.5t201.5 396.5zM410 1206l-68 64q240 106 442 106q213 0 319.5 -150.5t106.5 -410.5q0 -360 -194.5 -600t-472.5 -240q-195 0 -305.5 136.5t-110.5 355.5q0 82 25 205h962q8 55 8 129q0 500 -346 499 q-178 0 -366 -94z" glyph-name="uni018F" horiz-adv-x="1263" unicode="Ə"/><glyph d="M487 825l52 164q53 176 140 281.5t202 105.5q78 0 155 -45l-32 -67q-68 39 -127 39q-152 0 -252 -322l-47 -156h266l-17 -71h-272l-178 -578q-119 -377 -344 -377q-82 0 -146 43l35 68q53 -37 111 -37q164 0 262 324l172 557h-188l18 71h190z" glyph-name="florin" unicode="ƒ"/><glyph d="M1120 803q0 231 -88 363t-272 132q-162 0 -291 -123.5t-191.5 -292.5t-62.5 -335q0 -231 88 -363.5t270 -132.5q164 0 293 124t191.5 293t62.5 335zM1202 1593l80 33q18 -55 18 -98q0 -106 -68.5 -174t-174.5 -90q152 -143 151 -451q0 -143 -45 -289.5t-123.5 -269.5 t-203.5 -201t-269 -78q-215 0 -328.5 153t-113.5 409q0 143 45 289.5t124 269.5t204 200.5t268 77.5q129 0 223 -57q104 8 166 60.5t62 138.5q-1 46 -15 77z" glyph-name="Ohorn" horiz-adv-x="1265" unicode="Ơ"/><glyph d="M430 49q162 0 294 168t132 391q0 160 -65.5 243t-188.5 83q-164 0 -296 -168t-132 -389q0 -160 66.5 -244t189.5 -84zM999 1249l76 33q16 -45 17 -111q0 -109 -71 -175t-171 -89q92 -100 92 -289q0 -268 -156.5 -455.5t-363.5 -187.5q-154 0 -243 102.5t-89 287.5 q0 268 155.5 455.5t362.5 187.5q104 0 183 -50q209 27 221 205q3 41 -13 86z" glyph-name="ohorn" horiz-adv-x="1034" unicode="ơ"/><glyph d="M1366 1624l80 31q18 -49 18 -96q0 -111 -72.5 -178.5t-185.5 -86.5l-164 -811q-53 -266 -181 -387t-302 -121q-186 0 -289.5 103.5t-103.5 298.5q0 90 18 174l160 799h88l-158 -791q-20 -80 -20 -166q0 -342 313 -342q137 0 240.5 108.5t150.5 336.5l170 854h19 q109 4 171 55t62 139q0 49 -14 80z" glyph-name="Uhorn" horiz-adv-x="1245" unicode="Ư"/><glyph d="M1098 1280l76 33q18 -59 18 -113q0 -113 -72.5 -179.5t-156.5 -88.5l-187 -932h-84l35 160h-8q-106 -92 -186 -138.5t-162 -46.5q-236 0 -236 240q0 70 17 133l127 635h83l-124 -623q-16 -68 -17 -127q0 -94 42 -138t132 -44q139 0 348 207l146 725h16q82 4 141.5 60.5 t63.5 148.5q4 41 -12 88z" glyph-name="uhorn" horiz-adv-x="1083" unicode="ư"/><glyph d="M291 541h467l-78 708h-8zM819 0l-53 469h-514l-252 -469h-98l743 1350h96l166 -1350h-88zM639 1452l-188 234l45 34l190 -200h8l269 202l38 -39l-272 -231h-90z" glyph-name="uni01CD" horiz-adv-x="999" unicode="Ǎ"/><glyph d="M377 -25q-131 0 -209 92.5t-78 262.5q0 279 163 478.5t372 199.5q162 0 254 -160h6l30 135h78l-196 -983h-82l33 156h-9q-174 -181 -362 -181zM395 49q188 0 369 213l102 494q-98 178 -243 178q-174 0 -310.5 -182.5t-136.5 -405.5q0 -147 57.5 -222t161.5 -75zM614 1174 l-188 299l51 36l182 -260h9l280 260l45 -41l-293 -294h-86z" glyph-name="uni01CE" horiz-adv-x="1079" unicode="ǎ"/><glyph d="M80 0l268 1350h88l-268 -1350h-88zM350 1452l-188 234l45 34l190 -200h9l268 202l39 -39l-273 -231h-90z" glyph-name="uni01CF" horiz-adv-x="464" unicode="Ǐ"/><glyph d="M82 0l199 983h84l-197 -983h-86zM315 1174l-188 299l51 36l182 -260h9l280 260l45 -41l-293 -294h-86z" glyph-name="uni01D0" horiz-adv-x="450" unicode="ǐ"/><glyph d="M567 -25q-215 0 -328.5 153t-113.5 409q0 143 45 289.5t124 269.5t204 200.5t268 77.5q215 0 328.5 -152.5t113.5 -408.5q0 -143 -45 -289.5t-123.5 -269.5t-204 -201t-268.5 -78zM573 51q164 0 293 124t191.5 293t62.5 335q0 231 -88 363t-272 132q-162 0 -291 -123.5 t-191.5 -292.5t-62.5 -335q0 -231 88 -363.5t270 -132.5zM766 1452l-188 234l45 34l190 -200h8l269 202l38 -39l-272 -231h-90z" glyph-name="uni01D1" horiz-adv-x="1265" unicode="Ǒ"/><glyph d="M422 -25q-154 0 -243 102.5t-89 287.5q0 268 155.5 455.5t362.5 187.5q156 0 245 -102.5t89 -287.5q0 -268 -156.5 -455.5t-363.5 -187.5zM430 49q162 0 294 168t132 391q0 160 -65.5 243t-188.5 83q-164 0 -296 -168t-132 -389q0 -160 66.5 -244t189.5 -84zM625 1174 l-189 299l51 36l183 -260h8l280 260l46 -41l-293 -294h-86z" glyph-name="uni01D2" horiz-adv-x="1032" unicode="ǒ"/><glyph d="M184 551l160 799h88l-158 -791q-20 -80 -20 -166q0 -342 313 -342q137 0 240.5 108.5t150.5 336.5l170 854h89l-175 -867q-53 -266 -181 -387t-302 -121q-186 0 -289.5 103.5t-103.5 298.5q0 90 18 174zM741 1452l-188 234l45 34l190 -200h9l268 202l39 -39l-273 -231 h-90z" glyph-name="uni01D3" horiz-adv-x="1228" unicode="Ǔ"/><glyph d="M973 983l-197 -983h-84l35 160h-8q-106 -92 -186 -138.5t-162 -46.5q-236 0 -236 240q0 70 17 133l127 635h83l-124 -623q-16 -68 -17 -127q0 -94 42 -138t132 -44q139 0 348 207l146 725h84zM604 1174l-188 299l51 36l182 -260h8l281 260l45 -41l-293 -294h-86z" glyph-name="uni01D4" horiz-adv-x="1060" unicode="ǔ"/><glyph d="M184 551l160 799h88l-158 -791q-20 -80 -20 -166q0 -342 313 -342q137 0 240.5 108.5t150.5 336.5l170 854h89l-175 -867q-53 -266 -181 -387t-302 -121q-186 0 -289.5 103.5t-103.5 298.5q0 90 18 174zM629 1481q-59 0 -60 59q0 35 22.5 60.5t51.5 25.5q27 0 43 -17.5 t16 -45.5q0 -35 -21 -58.5t-52 -23.5zM977 1481q-59 0 -59 59q0 35 22.5 60.5t50.5 25.5q59 0 60 -63q0 -35 -21.5 -58.5t-52.5 -23.5zM602 1749l14 63h486l-15 -63h-485z" glyph-name="uni01D5" horiz-adv-x="1228" unicode="Ǖ"/><glyph d="M973 983l-197 -983h-84l35 160h-8q-106 -92 -186 -138.5t-162 -46.5q-236 0 -236 240q0 70 17 133l127 635h83l-124 -623q-16 -68 -17 -127q0 -94 42 -138t132 -44q139 0 348 207l146 725h84zM496 1225q-59 0 -60 59q0 37 21.5 61.5t52.5 24.5q59 0 59 -61 q0 -35 -22 -59.5t-51 -24.5zM846 1225q-59 0 -60 59q0 37 21.5 61.5t52.5 24.5q59 0 60 -61q0 -35 -22.5 -59.5t-51.5 -24.5zM483 1526l15 63h483l-14 -63h-484z" glyph-name="uni01D6" horiz-adv-x="1060" unicode="ǖ"/><glyph d="M184 551l160 799h88l-158 -791q-20 -80 -20 -166q0 -342 313 -342q137 0 240.5 108.5t150.5 336.5l170 854h89l-175 -867q-53 -266 -181 -387t-302 -121q-186 0 -289.5 103.5t-103.5 298.5q0 90 18 174zM629 1481q-59 0 -60 59q0 35 22.5 60.5t51.5 25.5q27 0 43 -17.5 t16 -45.5q0 -35 -21 -58.5t-52 -23.5zM977 1481q-59 0 -59 59q0 35 22.5 60.5t50.5 25.5q59 0 60 -63q0 -35 -21.5 -58.5t-52.5 -23.5zM819 1692l-39 41l232 194l53 -55z" glyph-name="uni01D7" horiz-adv-x="1228" unicode="Ǘ"/><glyph d="M973 983l-197 -983h-84l35 160h-8q-106 -92 -186 -138.5t-162 -46.5q-236 0 -236 240q0 70 17 133l127 635h83l-124 -623q-16 -68 -17 -127q0 -94 42 -138t132 -44q139 0 348 207l146 725h84zM696 1442l-39 41l211 196l54 -55zM496 1225q-59 0 -60 59q0 37 21.5 61.5 t52.5 24.5q59 0 59 -61q0 -35 -22 -59.5t-51 -24.5zM846 1225q-59 0 -60 59q0 37 21.5 61.5t52.5 24.5q59 0 60 -61q0 -35 -22.5 -59.5t-51.5 -24.5z" glyph-name="uni01D8" horiz-adv-x="1060" unicode="ǘ"/><glyph d="M184 551l160 799h88l-158 -791q-20 -80 -20 -166q0 -342 313 -342q137 0 240.5 108.5t150.5 336.5l170 854h89l-175 -867q-53 -266 -181 -387t-302 -121q-186 0 -289.5 103.5t-103.5 298.5q0 90 18 174zM629 1481q-59 0 -60 59q0 35 22.5 60.5t51.5 25.5q27 0 43 -17.5 t16 -45.5q0 -35 -21 -58.5t-52 -23.5zM977 1481q-59 0 -59 59q0 35 22.5 60.5t50.5 25.5q59 0 60 -63q0 -35 -21.5 -58.5t-52.5 -23.5zM799 1698l-162 176l45 35l160 -140h8l223 140l35 -37l-227 -174h-82z" glyph-name="uni01D9" horiz-adv-x="1228" unicode="Ǚ"/><glyph d="M973 983l-197 -983h-84l35 160h-8q-106 -92 -186 -138.5t-162 -46.5q-236 0 -236 240q0 70 17 133l127 635h83l-124 -623q-16 -68 -17 -127q0 -94 42 -138t132 -44q139 0 348 207l146 725h84zM668 1454l-181 193l43 39l177 -160h8l248 160l32 -44l-247 -188h-80z M496 1225q-59 0 -60 59q0 37 21.5 61.5t52.5 24.5q59 0 59 -61q0 -35 -22 -59.5t-51 -24.5zM846 1225q-59 0 -60 59q0 37 21.5 61.5t52.5 24.5q59 0 60 -61q0 -35 -22.5 -59.5t-51.5 -24.5z" glyph-name="uni01DA" horiz-adv-x="1060" unicode="ǚ"/><glyph d="M184 551l160 799h88l-158 -791q-20 -80 -20 -166q0 -342 313 -342q137 0 240.5 108.5t150.5 336.5l170 854h89l-175 -867q-53 -266 -181 -387t-302 -121q-186 0 -289.5 103.5t-103.5 298.5q0 90 18 174zM629 1481q-59 0 -60 59q0 35 22.5 60.5t51.5 25.5q27 0 43 -17.5 t16 -45.5q0 -35 -21 -58.5t-52 -23.5zM977 1481q-59 0 -59 59q0 35 22.5 60.5t50.5 25.5q59 0 60 -63q0 -35 -21.5 -58.5t-52.5 -23.5zM856 1679l-176 217l65 41l154 -229z" glyph-name="uni01DB" horiz-adv-x="1228" unicode="Ǜ"/><glyph d="M973 983l-197 -983h-84l35 160h-8q-106 -92 -186 -138.5t-162 -46.5q-236 0 -236 240q0 70 17 133l127 635h83l-124 -623q-16 -68 -17 -127q0 -94 42 -138t132 -44q139 0 348 207l146 725h84zM496 1225q-59 0 -60 59q0 37 21.5 61.5t52.5 24.5q59 0 59 -61 q0 -35 -22 -59.5t-51 -24.5zM846 1225q-59 0 -60 59q0 37 21.5 61.5t52.5 24.5q59 0 60 -61q0 -35 -22.5 -59.5t-51.5 -24.5zM719 1427l-156 218l62 43l143 -230z" glyph-name="uni01DC" horiz-adv-x="1060" unicode="ǜ"/><glyph d="M596 -25q-233 0 -355 144.5t-122 388.5q0 211 80 405.5t244.5 327.5t379.5 133q203 0 318 -125l-62 -57q-106 106 -262 106q-182 0 -326.5 -124.5t-214 -300t-69.5 -353.5q0 -209 97 -339t302 -130q164 0 277 103l90 460l96 45l-113 -548q-159 -136 -360 -136zM766 1452 l-188 234l45 34l190 -200h8l269 202l38 -39l-272 -231h-90z" glyph-name="Gcaron" horiz-adv-x="1177" unicode="Ǧ"/><glyph d="M342 -473q-168 0 -334 135l47 62q133 -123 291 -123q274 0 344 346l49 229q-186 -180 -364 -180q-131 0 -208 91t-77 259q0 268 161 465t361 197q168 0 252 -160h8l27 135h82l-215 -1067q-37 -186 -145.5 -287.5t-278.5 -101.5zM391 72q82 0 179.5 53t181.5 145l102 486 q-102 178 -244 178q-164 0 -299 -180.5t-135 -393.5q0 -143 56.5 -215.5t158.5 -72.5zM608 1174l-188 299l51 36l182 -260h9l280 260l45 -41l-293 -294h-86z" glyph-name="gcaron" horiz-adv-x="1067" unicode="ǧ"/><glyph d="M512 -418q-63 0 -102 33t-39 96q0 76 54 152t116 112q-201 12 -308.5 162t-107.5 400q0 143 45 289.5t124 269.5t204 200.5t268 77.5q215 0 328.5 -152.5t113.5 -408.5q0 -268 -135 -504.5t-364 -312.5q-127 -45 -191.5 -117t-64.5 -145q0 -37 21.5 -60.5t53.5 -23.5 q41 0 82 24l25 -57q-60 -35 -123 -35zM573 51q164 0 293 124t191.5 293t62.5 335q0 231 -88 363t-272 132q-162 0 -291 -123.5t-191.5 -292.5t-62.5 -335q0 -231 88 -363.5t270 -132.5z" glyph-name="uni01EA" horiz-adv-x="1265" unicode="Ǫ"/><glyph d="M377 -416q-63 0 -101 33t-38 96q0 76 54 152t118 112q-154 8 -237 106.5t-83 281.5q0 268 155.5 455.5t362.5 187.5q154 0 244 -102.5t90 -287.5q0 -225 -107.5 -386.5t-293.5 -243.5q-102 -43 -164 -117t-62 -137q0 -39 21.5 -60.5t56.5 -21.5q41 0 84 24l23 -55 q-64 -37 -123 -37zM430 49q162 0 294 168t132 391q0 160 -65.5 243t-188.5 83q-164 0 -296 -168t-132 -389q0 -160 66.5 -244t189.5 -84z" glyph-name="uni01EB" horiz-adv-x="1032" unicode="ǫ"/><glyph d="M465 -25q-246 0 -432 170l73 45q160 -139 369 -139q147 0 245.5 86t98.5 225q0 150 -174 254l-174 103q-211 129 -211 307q0 143 110.5 245.5t278.5 102.5q209 0 365 -112l-78 -58q-139 94 -299 94q-125 0 -206 -80.5t-81 -181.5q0 -145 178 -248l170 -98 q211 -123 211 -317q0 -176 -125.5 -287t-318.5 -111zM193 -449l-3 58q250 10 250 119q0 80 -137 92l27 55q111 -12 150.5 -42t39.5 -87q0 -90 -88.5 -140.5t-238.5 -54.5z" glyph-name="Scommaaccent" horiz-adv-x="1009" unicode="Ș"/><glyph d="M326 -25q-207 0 -328 121l78 43q92 -92 260 -92q102 0 177 61.5t75 145.5q0 61 -39 106.5t-150 104.5q-133 74 -186 131t-53 135q0 121 91 199t218 78q160 0 272 -72l-77 -55q-82 55 -197 55q-94 0 -159.5 -57.5t-65.5 -135.5q0 -45 28.5 -82.5t60 -58t93.5 -55.5 q147 -80 196.5 -142.5t49.5 -136.5q0 -133 -97 -213t-247 -80zM98 -432l-2 57q250 10 250 119q0 80 -137 92l27 55q111 -12 150.5 -41.5t39.5 -87.5q0 -90 -89 -140t-239 -54z" glyph-name="scommaaccent" horiz-adv-x="796" unicode="ș"/><glyph d="M360 0l254 1270h-413l16 80h916l-17 -80h-414l-253 -1270h-89zM170 -432l-2 57q250 10 250 119q0 80 -137 92l26 55q111 -12 151 -41.5t40 -87.5q0 -90 -89 -140t-239 -54z" glyph-name="uni021A" horiz-adv-x="1017" unicode="Ț"/><glyph d="M356 -25q-207 0 -206 195q0 51 8 98l133 641h-154l13 74h159l56 238l96 43l-70 -281h266l-16 -74h-266l-133 -645q-8 -33 -9 -78q0 -70 31 -103.5t109 -33.5q68 0 139 45l-23 -90q-61 -29 -133 -29zM66 -432l-3 57q250 10 250 119q0 80 -137 92l27 55 q111 -12 150.5 -41.5t39.5 -87.5q0 -90 -88.5 -140t-238.5 -54z" glyph-name="uni021B" horiz-adv-x="612" unicode="ț"/><glyph d="M-117 -469l-22 74q76 6 116.5 56t65.5 149l238 1173h84l-234 -1163q-31 -137 -89.5 -208t-158.5 -81z" glyph-name="uni0237" horiz-adv-x="450" unicode="ȷ"/><glyph d="M215 72h270q489 0 490 350q0 119 -95.5 191.5t-265.5 72.5h-272l-53 -254h336l-15 -63h-334zM459 1278l-107 -524h230q215 0 328.5 80.5t113.5 216.5q0 227 -342 227h-223zM807 723v-8q111 -27 182.5 -98.5t71.5 -190.5q0 -211 -147.5 -318.5t-397.5 -107.5h-399l73 369 h-147l16 63h144l182 918h332q188 0 291.5 -77t103.5 -214q0 -135 -95 -226.5t-210 -109.5z" glyph-name="uni0243" horiz-adv-x="1218" unicode="Ƀ"/><glyph d="M377 -25q-131 0 -209 92.5t-78 262.5q0 279 163 478.5t372 199.5q162 0 254 -160h6l30 135h78l-196 -983h-82l33 156h-9q-174 -181 -362 -181zM395 49q188 0 369 213l102 494q-98 178 -243 178q-174 0 -310.5 -182.5t-136.5 -405.5q0 -147 57.5 -222t161.5 -75z" glyph-name="uni0251" horiz-adv-x="1079" unicode="ɑ"/><glyph d="M870 602q0 -268 -157.5 -447.5t-354.5 -179.5q-152 0 -223.5 94.5t-71.5 254.5q0 88 31 194h686q29 186 -42.5 302t-211.5 116q-135 0 -254 -74l-61 60q178 86 328 86q154 0 242.5 -105.5t88.5 -300.5zM367 49q133 0 246.5 109.5t152.5 292.5h-608q-16 -49 -17 -140 q0 -113 52.5 -187.5t173.5 -74.5z" glyph-name="uni0259" horiz-adv-x="960" unicode="ə"/><glyph d="M342 -473q-168 0 -334 135l47 62q133 -123 291 -123q274 0 344 346l49 229q-186 -180 -364 -180q-131 0 -208 91t-77 259q0 268 161 465t361 197q168 0 252 -160h8l27 135h82l-215 -1067q-37 -186 -145.5 -287.5t-278.5 -101.5zM391 72q82 0 179.5 53t181.5 145l102 486 q-102 178 -244 178q-164 0 -299 -180.5t-135 -393.5q0 -143 56.5 -215.5t158.5 -72.5z" glyph-name="uni0261" horiz-adv-x="1067" unicode="ɡ"/><glyph d="M129 831l188 947l76 20l-82 -412h8q125 111 228 111q152 0 151 -162q0 -33 -12 -86l-82 -418h-69l79 408q12 51 13 80q0 115 -97 115q-100 0 -237 -136l-92 -467h-72z" glyph-name="uni02B0" horiz-adv-x="704" unicode="ʰ"/><glyph d="M328 1630q-23 0 -38.5 14.5t-15.5 38.5q0 29 18.5 48.5t47.5 19.5q23 0 38 -14.5t15 -38.5q0 -29 -18 -48.5t-47 -19.5zM-25 502l-20 63q66 6 101.5 49t54.5 127l147 740h70l-142 -731q-25 -119 -75 -179.5t-136 -68.5z" glyph-name="uni02B2" horiz-adv-x="315" unicode="ʲ"/><glyph d="M129 831l129 650h66l-33 -156h4q131 176 336 176l-62 -80q-76 0 -160.5 -57t-136.5 -162l-71 -371h-72z" glyph-name="uni02B3" horiz-adv-x="446" unicode="ʳ"/><glyph d="M229 831l-65 650h69l52 -576h8l272 576h78l53 -576h9l274 576h70l-314 -650h-96l-47 560h-4l-266 -560h-93z" glyph-name="uni02B7" horiz-adv-x="950" unicode="ʷ"/><glyph d="M51 524q-37 0 -82 25l29 53q33 -16 57 -16q98 0 203 190l21 47l-127 658h69l105 -570h8l303 570h74l-387 -715q-31 -57 -49.5 -86t-54.5 -73t-78 -63.5t-91 -19.5z" glyph-name="uni02B8" horiz-adv-x="591" unicode="ʸ"/><glyph d="M250 985l137 434h80l-47 -149l-111 -285h-59z" glyph-name="uni02B9" horiz-adv-x="436" unicode="ʹ"/><glyph d="M463 1432l26 -52q-168 -98 -172 -241h9q76 0 75 -70q0 -37 -21.5 -60.5t-55.5 -23.5q-37 0 -60.5 27.5t-23.5 74.5q0 113 60.5 202.5t162.5 142.5z" glyph-name="uni02BB" horiz-adv-x="436" unicode="ʻ"/><glyph d="M403 1282h-8q-76 0 -76 70q0 35 23 59.5t57 24.5q37 0 59.5 -28t22.5 -75q0 -113 -60.5 -202t-162.5 -142l-27 51q168 95 172 242z" glyph-name="afii57929" horiz-adv-x="436" unicode="ʼ"/><glyph d="M207 1104l10 49q76 4 118 43t42 100q0 106 -113 107l15 49q78 4 119.5 -37t41.5 -106q0 -90 -62 -147.5t-171 -57.5z" glyph-name="uni02BE" horiz-adv-x="307" unicode="ʾ"/><glyph d="M385 1157l-12 -49q-78 -4 -121 38t-43 105q0 90 63.5 147.5t171.5 57.5l-10 -49q-78 -4 -120 -43t-42 -100q0 -107 113 -107z" glyph-name="uni02BF" horiz-adv-x="342" unicode="ʿ"/><glyph d="M440 1171l-43 43l291 295h88l187 -299l-52 -39l-180 263h-8z" glyph-name="circumflex" horiz-adv-x="1040" unicode="ˆ"/><glyph d="M625 1174l-189 299l51 36l183 -260h8l280 260l46 -41l-293 -294h-86z" glyph-name="caron" horiz-adv-x="1040" unicode="ˇ"/><glyph d="M197 1190l57 352h82l-80 -352h-59z" glyph-name="uni02C8" horiz-adv-x="186" unicode="ˈ"/><glyph d="M154 1241l12 70h487l-10 -70h-489z" glyph-name="uni02C9" horiz-adv-x="501" unicode="ˉ"/><glyph d="M287 1188l-43 51l323 297l56 -70z" glyph-name="uni02CA" horiz-adv-x="421" unicode="ˊ"/><glyph d="M420 1167l-244 330l76 55l223 -344z" glyph-name="uni02CB" horiz-adv-x="421" unicode="ˋ"/><glyph d="M0 -154l-59 -352h-80l80 352h59z" glyph-name="uni02CC" horiz-adv-x="186" unicode="ˌ"/><glyph d="M674 1167q-74 0 -126 28t-78 74t-36 96t-8 105l70 11q-8 -96 41 -170t151.5 -74t175 71.5t105.5 172.5l67 -11q-33 -121 -125 -212t-237 -91z" glyph-name="breve" horiz-adv-x="1040" unicode="˘"/><glyph d="M686 1221q-29 0 -49.5 19.5t-20.5 47.5q0 39 26 65.5t60 26.5q31 0 50.5 -19.5t19.5 -49.5q0 -39 -25.5 -64.5t-60.5 -25.5z" glyph-name="dotaccent" horiz-adv-x="1040" unicode="˙"/><glyph d="M682 1126q-76 0 -124 42t-48 118q0 92 59.5 157.5t151.5 65.5q76 0 125 -42t49 -117q0 -92 -60.5 -158t-152.5 -66zM688 1180q57 0 99 49t42 117q0 49 -29.5 79.5t-82.5 30.5q-59 0 -101.5 -49t-42.5 -117q0 -51 31 -80.5t84 -29.5z" glyph-name="ring" horiz-adv-x="1040" unicode="˚"/><glyph d="M379 -416q-63 0 -102 33t-39 96q0 76 60 159t140 136h80q-201 -133 -201 -274q0 -37 21.5 -59.5t54.5 -22.5q37 0 84 24l25 -55q-68 -37 -123 -37z" glyph-name="ogonek" horiz-adv-x="1040" unicode="˛"/><glyph d="M844 1186q-49 0 -87 31.5t-58.5 68.5t-52.5 68.5t-71 31.5q-96 0 -141 -194l-69 4q29 117 79 187.5t140 70.5q49 0 87 -30.5t58.5 -68.5t52 -69t70.5 -31q100 0 141 193l70 -4q-67 -258 -219 -258z" glyph-name="tilde" horiz-adv-x="1040" unicode="˜"/><glyph d="M569 1174l-51 32l240 324l61 -47zM844 1174l-51 32l239 324l62 -47z" glyph-name="hungarumlaut" horiz-adv-x="1040" unicode="˝"/><glyph d="M152 825l165 951l76 22l-174 -973h-67z" glyph-name="uni02E1" horiz-adv-x="317" unicode="ˡ"/><glyph d="M293 815q-131 0 -230 78l50 45q90 -63 192 -64q66 0 110 36t44 91q0 70 -125 134q-158 78 -158 174q0 84 62.5 136t150.5 52q111 0 195 -49l-58 -51q-55 41 -141 41q-61 0 -100 -35t-39 -84q0 -63 121 -123q162 -76 161 -184q0 -92 -65.5 -144.5t-169.5 -52.5z" glyph-name="uni02E2" horiz-adv-x="538" unicode="ˢ"/><glyph d="M14 831l303 343l-133 307h72l113 -260h8l213 260h84l-271 -320l142 -330h-72l-125 287h-8l-242 -287h-84z" glyph-name="uni02E3" horiz-adv-x="557" unicode="ˣ"/><glyph d="M307 1167l-244 330l76 55l223 -344z" glyph-name="gravecomb" horiz-adv-x="0" unicode="̀"/><glyph d="M174 1188l-43 51l324 297l55 -70z" glyph-name="acutecomb" horiz-adv-x="0" unicode="́"/><glyph d="M0 1171l-43 43l291 295h88l186 -299l-51 -39l-180 263h-8z" glyph-name="uni0302" horiz-adv-x="0" unicode="̂"/><glyph d="M403 1186q-49 0 -86.5 31.5t-58 68.5t-52.5 68.5t-71 31.5q-96 0 -141 -194l-70 4q63 258 219 258q49 0 87 -30.5t58.5 -68.5t52.5 -69t71 -31q100 0 141 193l70 -4q-68 -258 -220 -258z" glyph-name="tildecomb" horiz-adv-x="0" unicode="̃"/><glyph d="M0 1241l12 70h488l-11 -70h-489z" glyph-name="uni0304" horiz-adv-x="0" unicode="̄"/><glyph d="M233 1167q-74 0 -126 28t-77.5 74t-35.5 96t-8 105l69 11q-8 -96 41 -170t151.5 -74t175.5 71.5t105 172.5l68 -11q-33 -121 -125.5 -212t-237.5 -91z" glyph-name="uni0306" horiz-adv-x="0" unicode="̆"/><glyph d="M246 1221q-29 0 -49.5 19.5t-20.5 47.5q0 39 26.5 65.5t59.5 26.5q31 0 50.5 -19.5t19.5 -49.5q0 -39 -25.5 -64.5t-60.5 -25.5z" glyph-name="uni0307" horiz-adv-x="0" unicode="̇"/><glyph d="M76 1225q-61 0 -62 61q0 37 22.5 62.5t53.5 25.5q61 0 62 -65q0 -35 -22.5 -59.5t-53.5 -24.5zM426 1225q-61 0 -61 61q0 37 22.5 62.5t52.5 25.5q61 0 62 -65q0 -35 -22.5 -59.5t-53.5 -24.5z" glyph-name="uni0308" horiz-adv-x="0" unicode="̈"/><glyph d="M186 1178l-8 57q139 39 150 113q10 47 -31 71.5t-123 28.5l16 70q113 -4 173.5 -43t48.5 -117q-14 -74 -74 -113.5t-152 -66.5z" glyph-name="hookabovecomb" horiz-adv-x="0" unicode="̉"/><glyph d="M242 1126q-76 0 -124 42t-48 118q0 92 59 157.5t152 65.5q76 0 125 -42t49 -117q0 -92 -60.5 -158t-152.5 -66zM248 1180q57 0 99 49t42 117q0 49 -29.5 79.5t-83.5 30.5q-59 0 -101 -49t-42 -117q0 -51 31 -80.5t84 -29.5z" glyph-name="uni030A" horiz-adv-x="0" unicode="̊"/><glyph d="M129 1174l-51 32l239 324l62 -47zM403 1174l-51 32l240 324l61 -47z" glyph-name="uni030B" horiz-adv-x="0" unicode="̋"/><glyph d="M184 1174l-188 299l51 36l182 -260h9l280 260l45 -41l-293 -294h-86z" glyph-name="uni030C" horiz-adv-x="0" unicode="̌"/><glyph d="M43 1163l-135 342l82 35l114 -356zM317 1163l-133 342l80 35l115 -356z" glyph-name="uni030F" horiz-adv-x="0" unicode="̏"/><glyph d="M340 1468l16 -51q-125 -53 -149 -157q12 4 24 4q27 0 46.5 -20.5t19.5 -49.5q0 -84 -86 -84q-35 0 -55.5 32t-20.5 77q0 169 205 249z" glyph-name="uni0312" horiz-adv-x="0" unicode="̒"/><glyph d="M164 1110l-19 51q123 49 150 156q-6 -2 -25 -2q-27 0 -46 20.5t-19 48.5q0 41 24.5 62.5t63.5 21.5q33 0 53.5 -31.5t20.5 -76.5q0 -172 -203 -250z" glyph-name="uni0313" horiz-adv-x="0" unicode="̓"/><glyph d="M168 905l-4 58q90 0 155.5 43t65.5 112q0 35 -8 62l72 30q18 -39 18 -80q0 -94 -81 -158.5t-218 -66.5z" glyph-name="uni031B" horiz-adv-x="0" unicode="̛"/><glyph d="M-74 -416q-29 0 -49 19.5t-20 48.5q0 41 26.5 66.5t59.5 25.5q31 0 50 -19.5t19 -50.5q0 -39 -25.5 -64.5t-60.5 -25.5z" glyph-name="dotbelowcomb" horiz-adv-x="0" unicode="̣"/><glyph d="M-242 -391q-61 0 -61 61q0 37 22.5 62.5t53.5 25.5q61 0 61 -65q0 -35 -22.5 -59.5t-53.5 -24.5zM109 -391q-61 0 -62 61q0 37 22.5 62.5t53.5 25.5q61 0 61 -65q0 -35 -22 -59.5t-53 -24.5z" glyph-name="uni0324" horiz-adv-x="0" unicode="̤"/><glyph d="M-256 -449l-2 58q250 10 250 119q0 80 -137 92l26 55q111 -12 151 -42t40 -87q0 -90 -89 -140.5t-239 -54.5z" glyph-name="uni0326" horiz-adv-x="0" unicode="̦"/><glyph d="M-256 -449l-4 58q248 8 252 121q0 80 -139 92l116 182h72l-86 -141q70 -18 94.5 -45t22.5 -74q-2 -90 -89 -139.5t-239 -53.5z" glyph-name="uni0327" horiz-adv-x="0" unicode="̧"/><glyph d="M-61 -416q-63 0 -102.5 33t-39.5 96q0 76 60.5 159t140.5 136h80q-201 -133 -201 -274q0 -37 21.5 -59.5t54.5 -22.5q39 0 84 24l24 -55q-67 -37 -122 -37z" glyph-name="uni0328" horiz-adv-x="0" unicode="̨"/><glyph d="M-84 -449q-74 0 -126 28t-77.5 74t-36 96t-8.5 106l70 10q-8 -96 41 -170t151.5 -74t175 71.5t105.5 172.5l68 -10q-33 -121 -125.5 -212.5t-237.5 -91.5z" glyph-name="uni032E" horiz-adv-x="0" unicode="̮"/><glyph d="M-307 -336l12 70h488l-11 -70h-489z" glyph-name="uni0331" horiz-adv-x="0" unicode="̱"/><glyph d="M815 -25q-129 0 -129 129q0 33 24.5 152t78 351.5t67.5 301.5h-438l-213 -909h-84l219 909h-188l16 74h958l-16 -74h-174q-53 -221 -111.5 -491.5t-58.5 -296.5q0 -72 74 -72q12 0 59 12l2 -67q-47 -19 -86 -19z" glyph-name="pi" horiz-adv-x="1089" unicode="π"/><glyph d="M184 1053q0 182 109.5 313t251.5 131q106 0 162 -100h8l18 84h62l-127 -650h-64l23 105h-9q-111 -121 -241 -121q-88 0 -140.5 61.5t-52.5 176.5zM391 877q117 0 244 145l59 301q-63 113 -151 113q-109 0 -198 -116t-89 -257q0 -186 135 -186z" glyph-name="uni1D43" horiz-adv-x="712" unicode="ᵃ"/><glyph d="M197 831h-68l188 947l76 20l-80 -397h4q111 96 230 96q88 0 140 -61.5t52 -175.5q0 -182 -109.5 -313.5t-250.5 -131.5q-111 0 -160 100h-8zM535 1436q-117 0 -238 -117l-66 -330q63 -113 150 -112q109 0 198 115.5t89 256.5q0 92 -37 139.5t-96 47.5z" glyph-name="uni1D47" horiz-adv-x="724" unicode="ᵇ"/><glyph d="M653 1399l72 366l74 23l-189 -957h-61l22 105h-8q-117 -121 -241 -121q-88 0 -140.5 61.5t-52.5 176.5q0 182 109.5 313t250.5 131q113 0 156 -98h8zM334 877q119 0 246 145l57 301q-63 113 -150 113q-109 0 -197.5 -116t-88.5 -257q0 -92 37 -139t96 -47z" glyph-name="uni1D48" horiz-adv-x="727" unicode="ᵈ"/><glyph d="M129 1087q0 174 105.5 292t238.5 118q109 0 158 -66.5t49 -164.5q0 -29 -16 -121h-459q-18 -123 31 -195.5t153 -72.5q94 0 176 51l41 -47q-94 -66 -227 -66q-119 0 -184.5 70.5t-65.5 201.5zM217 1204h391q6 27 6 66q0 72 -36.5 119t-110.5 47q-78 0 -151.5 -66 t-98.5 -166z" glyph-name="uni1D49" horiz-adv-x="651" unicode="ᵉ"/><glyph d="M678 1481h61l-133 -676q-27 -131 -104.5 -208t-192.5 -77q-119 0 -231 90l39 54q86 -80 196 -80q170 0 226 231l28 121h-8q-127 -96 -237 -96q-88 0 -140.5 59t-52.5 168q0 172 110.5 301t249.5 129q111 0 160 -100h8zM336 901q119 0 244 121l57 301q-63 113 -150 113 q-106 0 -196 -114t-90 -245q0 -86 37 -131t98 -45z" glyph-name="uni1D4D" horiz-adv-x="710" unicode="ᵍ"/><glyph d="M129 831l190 947l74 20l-139 -684h8l371 367h80l-252 -262l160 -388h-72l-141 345l-175 -170l-32 -175h-72z" glyph-name="uni1D4F" horiz-adv-x="628" unicode="ᵏ"/><glyph d="M129 831l129 650h68l-21 -97h8q127 113 217 113q135 0 152 -125q145 125 238 125q156 0 155 -162q0 -33 -12 -86l-82 -418h-70l80 408q12 51 13 80q0 115 -101 115q-94 0 -217 -136l-94 -467h-70l82 408q12 51 12 80q0 115 -102 115q-96 0 -221 -136l-92 -467h-72z" glyph-name="uni1D50" horiz-adv-x="1077" unicode="ᵐ"/><glyph d="M354 815q-104 0 -164.5 66.5t-60.5 189.5q0 184 108.5 305t245.5 121q106 0 167 -66.5t61 -189.5q0 -184 -109 -305t-248 -121zM360 877q111 0 196 107.5t85 248.5q0 203 -162 203q-111 0 -195.5 -107.5t-84.5 -249.5q-1 -202 161 -202z" glyph-name="uni1D52" horiz-adv-x="700" unicode="ᵒ"/><glyph d="M219 915l-69 -342l-78 -26l186 934h68l-17 -80h8q121 96 230 96q88 0 140 -61.5t52 -175.5q0 -182 -109.5 -313.5t-250.5 -131.5q-109 0 -152 100h-8zM535 1436q-117 0 -238 -117l-66 -330q63 -113 150 -112q109 0 198 115.5t89 256.5q0 92 -37 139.5t-96 47.5z" glyph-name="uni1D56" horiz-adv-x="720" unicode="ᵖ"/><glyph d="M178 1028l80 391h-102l12 62h98l35 157l74 31l-37 -188h184l-10 -62h-184l-80 -393l-6 -55q0 -94 82 -94q53 0 102 28l-14 -65q-39 -25 -99 -25q-143 0 -143 143q0 35 8 70z" glyph-name="uni1D57" horiz-adv-x="421" unicode="ᵗ"/><glyph d="M731 1481l-129 -650h-67l20 97h-8q-135 -113 -232 -113q-154 0 -153 162q0 35 12 86l82 418h72l-82 -408q-12 -53 -13 -78q0 -117 99 -116q94 0 235 135l92 467h72z" glyph-name="uni1D58" horiz-adv-x="712" unicode="ᵘ"/><glyph d="M256 831l-104 650h69l88 -590h6l322 590h74l-363 -650h-92z" glyph-name="uni1D5B" horiz-adv-x="591" unicode="ᵛ"/><glyph d="M373 815q-111 0 -177.5 68.5t-66.5 189.5q0 162 101.5 293t254.5 131q100 0 174 -59l-45 -49q-55 47 -137 47q-113 0 -195.5 -115t-82.5 -238q0 -100 51 -153t133 -53q86 0 156 45l28 -60q-71 -47 -194 -47z" glyph-name="uni1D9C" horiz-adv-x="591" unicode="ᶜ"/><glyph d="M264 1481l27 137q18 96 69.5 147.5t124.5 51.5q51 0 109 -29l-29 -57q-39 25 -80 24q-96 0 -123 -131l-28 -143h149l-10 -62h-151l-117 -588h-72l119 588h-88l10 62h90z" glyph-name="uni1DA0" horiz-adv-x="364" unicode="ᶠ"/><glyph d="M47 831l6 41l443 547h-320l10 62h420l-6 -41l-448 -547h372l-12 -62h-465z" glyph-name="uni1DBB" horiz-adv-x="546" unicode="ᶻ"/><glyph d="M80 0l268 1350h332q190 0 292.5 -77t102.5 -216q0 -137 -95 -228.5t-210 -109.5v-8q254 -63 254 -287q0 -209 -147.5 -316.5t-397.5 -107.5h-399zM315 752h230q217 0 329.5 80.5t112.5 216.5q0 227 -342 227h-223zM180 74h269q489 0 489 344q0 119 -95 190.5t-265 71.5 h-275zM201 -319l12 69h487l-10 -69h-489z" glyph-name="uni1E06" horiz-adv-x="1169" unicode="Ḇ"/><glyph d="M168 0h-86l270 1352l94 43l-108 -549h4q186 162 356 162q133 0 210 -92.5t77 -262.5q0 -279 -163 -478.5t-369 -199.5q-162 0 -254 160h-6zM680 934q-80 0 -178.5 -50t-184.5 -132l-106 -525q98 -178 242 -178q174 0 311 182.5t137 407.5q0 145 -58.5 220t-162.5 75z M170 -319l12 69h488l-11 -69h-489z" glyph-name="uni1E07" horiz-adv-x="1077" unicode="ḇ"/><glyph d="M80 0l268 1350h223q272 0 414.5 -140.5t142.5 -384.5q0 -362 -190 -593.5t-530 -231.5h-328zM180 74h230q291 0 460.5 214t169.5 531q0 211 -120.5 334t-352.5 123h-147zM442 -399q-29 0 -49 19.5t-20 47.5q0 41 26.5 66.5t59.5 25.5q31 0 50 -19.5t19 -49.5 q0 -39 -25.5 -64.5t-60.5 -25.5z" glyph-name="uni1E0C" horiz-adv-x="1181" unicode="Ḍ"/><glyph d="M883 850l102 504l92 37l-280 -1391h-82l33 156h-9q-174 -180 -362 -181q-131 0 -209 92.5t-78 262.5q0 279 163 478.5t372 199.5q170 0 249 -158h9zM395 49q188 0 369 213l102 494q-98 178 -243 178q-174 0 -310.5 -182.5t-136.5 -405.5q0 -147 57.5 -222t161.5 -75z M395 -399q-29 0 -49 19.5t-20 47.5q0 41 25.5 66.5t60.5 25.5q31 0 50 -19.5t19 -49.5q0 -39 -25.5 -64.5t-60.5 -25.5z" glyph-name="uni1E0D" horiz-adv-x="1081" unicode="ḍ"/><glyph d="M80 0l268 1350h223q272 0 414.5 -140.5t142.5 -384.5q0 -362 -190 -593.5t-530 -231.5h-328zM180 74h230q291 0 460.5 214t169.5 531q0 211 -120.5 334t-352.5 123h-147zM209 -319l12 69h488l-11 -69h-489z" glyph-name="uni1E0E" horiz-adv-x="1181" unicode="Ḏ"/><glyph d="M883 850l102 504l92 37l-280 -1391h-82l33 156h-9q-174 -180 -362 -181q-131 0 -209 92.5t-78 262.5q0 279 163 478.5t372 199.5q170 0 249 -158h9zM395 49q188 0 369 213l102 494q-98 178 -243 178q-174 0 -310.5 -182.5t-136.5 -405.5q0 -147 57.5 -222t161.5 -75z M162 -319l12 69h488l-11 -69h-489z" glyph-name="uni1E0F" horiz-adv-x="1081" unicode="ḏ"/><glyph d="M80 0l268 1350h713l-37 -76h-604l-105 -520h394l-17 -76h-389l-123 -602h643l-16 -76h-727zM485 1503l15 70h485l-14 -70h-486zM750 1692l-39 41l231 194l53 -55z" glyph-name="uni1E16" horiz-adv-x="1001" unicode="Ḗ"/><glyph d="M86 381q0 268 156.5 447.5t355.5 179.5q295 0 295 -349q0 -57 -21 -172h-692q-37 -219 49 -329.5t244 -110.5q143 0 256 90l53 -55q-133 -106 -321 -107q-174 0 -274.5 105.5t-100.5 300.5zM193 547h610q12 66 12 125q0 113 -53 188.5t-172 75.5q-133 0 -245.5 -107.5 t-151.5 -281.5zM391 1241l12 70h488l-10 -70h-490zM666 1442l-39 41l211 196l53 -55z" glyph-name="uni1E17" horiz-adv-x="964" unicode="ḗ"/><glyph d="M596 -25q-233 0 -355 144.5t-122 388.5q0 211 80 405.5t244.5 327.5t379.5 133q203 0 318 -125l-62 -57q-106 106 -262 106q-182 0 -326.5 -124.5t-214 -300t-69.5 -353.5q0 -209 97 -339t302 -130q164 0 277 103l90 460l96 45l-113 -548q-159 -136 -360 -136zM580 1503 l14 70h485l-14 -70h-485z" glyph-name="uni1E20" horiz-adv-x="1177" unicode="Ḡ"/><glyph d="M342 -473q-168 0 -334 135l47 62q133 -123 291 -123q274 0 344 346l49 229q-186 -180 -364 -180q-131 0 -208 91t-77 259q0 268 161 465t361 197q168 0 252 -160h8l27 135h82l-215 -1067q-37 -186 -145.5 -287.5t-278.5 -101.5zM391 72q82 0 179.5 53t181.5 145l102 486 q-102 178 -244 178q-164 0 -299 -180.5t-135 -393.5q0 -143 56.5 -215.5t158.5 -72.5zM424 1241l12 70h488l-11 -70h-489z" glyph-name="uni1E21" horiz-adv-x="1067" unicode="ḡ"/><glyph d="M80 0l268 1350h88l-121 -596h697l121 596h88l-271 -1350h-88l137 678h-696l-135 -678h-88zM485 -399q-29 0 -49 19.5t-20 47.5q0 41 25.5 66.5t60.5 25.5q31 0 50 -19.5t19 -49.5q0 -39 -25.5 -64.5t-60.5 -25.5z" glyph-name="uni1E24" horiz-adv-x="1239" unicode="Ḥ"/><glyph d="M82 0l270 1352l92 37l-112 -564h8q178 182 348 183q233 0 234 -240q0 -68 -17 -133l-127 -635h-84l127 623q16 94 17 127q0 94 -42 138t-134 44q-141 0 -349 -207l-145 -725h-86zM391 -399q-29 0 -49 19.5t-20 47.5q0 41 25.5 66.5t60.5 25.5q31 0 50 -19.5t19 -49.5 q0 -39 -25.5 -64.5t-60.5 -25.5z" glyph-name="uni1E25" horiz-adv-x="1032" unicode="ḥ"/><glyph d="M80 0l268 1350h88l-121 -596h697l121 596h88l-271 -1350h-88l137 678h-696l-135 -678h-88zM475 -432q-74 0 -126 27.5t-77.5 73.5t-36 96.5t-8.5 105.5l70 10q-8 -96 41 -169.5t151.5 -73.5t175 71.5t105.5 171.5l68 -10q-33 -121 -125.5 -212t-237.5 -91z" glyph-name="uni1E2A" horiz-adv-x="1239" unicode="Ḫ"/><glyph d="M82 0l270 1352l92 37l-112 -564h8q178 182 348 183q233 0 234 -240q0 -68 -17 -133l-127 -635h-84l127 623q16 94 17 127q0 94 -42 138t-134 44q-141 0 -349 -207l-145 -725h-86zM381 -432q-74 0 -126 27.5t-77.5 73.5t-36 96.5t-8.5 105.5l70 10q-8 -96 41 -169.5 t151.5 -73.5t175 71.5t105.5 171.5l67 -10q-33 -121 -125 -212t-237 -91z" glyph-name="uni1E2B" horiz-adv-x="1032" unicode="ḫ"/><glyph d="M80 0l268 1350h88l-145 -734h4l774 734h105l-512 -498l313 -852h-96l-285 795l-328 -308l-98 -487h-88zM248 -319l12 69h488l-11 -69h-489z" glyph-name="uni1E34" horiz-adv-x="1089" unicode="Ḵ"/><glyph d="M82 0l270 1352l92 39l-198 -1002h6l582 594h102l-385 -399l242 -584h-93l-213 528l-268 -272l-51 -256h-86zM135 -319l12 69h488l-10 -69h-490z" glyph-name="uni1E35" horiz-adv-x="915" unicode="ḵ"/><glyph d="M80 0l268 1350h88l-252 -1274h600l-16 -76h-688zM387 -399q-29 0 -49.5 19.5t-20.5 47.5q0 41 26 66.5t60 25.5q31 0 50.5 -19.5t19.5 -49.5q0 -39 -25.5 -64.5t-60.5 -25.5z" glyph-name="uni1E36" horiz-adv-x="901" unicode="Ḷ"/><glyph d="M168 0h-86l270 1354l92 35zM68 -399q-29 0 -49.5 19.5t-20.5 47.5q0 41 25.5 66.5t60.5 25.5q31 0 50.5 -19.5t19.5 -49.5q0 -39 -25.5 -64.5t-60.5 -25.5z" glyph-name="uni1E37" horiz-adv-x="475" unicode="ḷ"/><glyph d="M80 0l268 1350h88l-252 -1274h600l-16 -76h-688zM168 1503l14 70h486l-15 -70h-485zM387 -399q-29 0 -49.5 19.5t-20.5 47.5q0 41 26 66.5t60 25.5q31 0 50.5 -19.5t19.5 -49.5q0 -39 -25.5 -64.5t-60.5 -25.5z" glyph-name="uni1E38" horiz-adv-x="901" unicode="Ḹ"/><glyph d="M168 0h-86l270 1354l92 35zM213 1704l12 70h488l-11 -70h-489zM68 -399q-29 0 -49.5 19.5t-20.5 47.5q0 41 25.5 66.5t60.5 25.5q31 0 50.5 -19.5t19.5 -49.5q0 -39 -25.5 -64.5t-60.5 -25.5z" glyph-name="uni1E39" horiz-adv-x="475" unicode="ḹ"/><glyph d="M80 0l268 1350h88l-252 -1274h600l-16 -76h-688zM154 -319l12 69h487l-10 -69h-489z" glyph-name="uni1E3A" horiz-adv-x="901" unicode="Ḻ"/><glyph d="M168 0h-86l270 1354l92 35zM-166 -319l12 69h488l-10 -69h-490z" glyph-name="uni1E3B" horiz-adv-x="475" unicode="ḻ"/><glyph d="M80 0l268 1350h127l184 -1067h9l589 1067h125l-270 -1350h-86l244 1219h-6l-588 -1067h-76l-182 1067h-8l-246 -1219h-84zM555 -416q-29 0 -49.5 19.5t-20.5 48.5q0 41 26 66.5t60 25.5q31 0 50.5 -19.5t19.5 -50.5q0 -39 -25.5 -64.5t-60.5 -25.5z" glyph-name="uni1E42" horiz-adv-x="1400" unicode="Ṃ"/><glyph d="M82 0l199 983h81l-34 -156h8q195 180 328 181q215 0 227 -205q215 205 358 205q231 0 232 -240q0 -68 -17 -133l-127 -635h-86l127 623q16 68 17 127q0 94 -40 138t-130 44q-53 0 -142.5 -52.5t-185.5 -154.5l-145 -725h-84l125 623q16 68 16 127q0 94 -40 138t-130 44 q-53 0 -141 -52.5t-185 -154.5l-145 -725h-86zM662 -399q-29 0 -49.5 19.5t-20.5 47.5q0 41 25.5 66.5t60.5 25.5q31 0 50.5 -19.5t19.5 -49.5q0 -39 -25.5 -64.5t-60.5 -25.5z" glyph-name="uni1E43" horiz-adv-x="1601" unicode="ṃ"/><glyph d="M80 0l268 1350h94l447 -1203h8l238 1203h88l-271 -1350h-90l-448 1210h-8l-240 -1210h-86zM805 1481q-31 0 -50.5 18.5t-19.5 48.5q0 41 25.5 66.5t60.5 25.5q31 0 50.5 -19t19.5 -52q0 -37 -25.5 -62.5t-60.5 -25.5z" glyph-name="uni1E44" horiz-adv-x="1239" unicode="Ṅ"/><glyph d="M82 0l199 983h79l-32 -156h8q106 90 187 135.5t165 45.5q233 0 234 -240q0 -68 -17 -133l-127 -635h-84l127 623q16 94 17 127q0 94 -42 138t-134 44q-141 0 -349 -207l-145 -725h-86zM696 1221q-29 0 -49 19.5t-20 47.5q0 39 26.5 65.5t59.5 26.5q31 0 50 -19.5 t19 -49.5q0 -39 -25.5 -64.5t-60.5 -25.5z" glyph-name="uni1E45" horiz-adv-x="1044" unicode="ṅ"/><glyph d="M80 0l268 1350h94l447 -1203h8l238 1203h88l-271 -1350h-90l-448 1210h-8l-240 -1210h-86zM471 -416q-29 0 -49.5 19.5t-20.5 48.5q0 41 27 66.5t59 25.5q31 0 50.5 -19.5t19.5 -50.5q0 -39 -25.5 -64.5t-60.5 -25.5z" glyph-name="uni1E46" horiz-adv-x="1239" unicode="Ṇ"/><glyph d="M82 0l199 983h79l-32 -156h8q106 90 187 135.5t165 45.5q233 0 234 -240q0 -68 -17 -133l-127 -635h-84l127 623q16 94 17 127q0 94 -42 138t-134 44q-141 0 -349 -207l-145 -725h-86zM387 -399q-29 0 -49.5 19.5t-20.5 47.5q0 41 26 66.5t60 25.5q31 0 50.5 -19.5 t19.5 -49.5q0 -39 -25.5 -64.5t-60.5 -25.5z" glyph-name="uni1E47" horiz-adv-x="1044" unicode="ṇ"/><glyph d="M80 0l268 1350h94l447 -1203h8l238 1203h88l-271 -1350h-90l-448 1210h-8l-240 -1210h-86zM238 -336l12 70h487l-10 -70h-489z" glyph-name="uni1E48" horiz-adv-x="1239" unicode="Ṉ"/><glyph d="M82 0l199 983h79l-32 -156h8q106 90 187 135.5t165 45.5q233 0 234 -240q0 -68 -17 -133l-127 -635h-84l127 623q16 94 17 127q0 94 -42 138t-134 44q-141 0 -349 -207l-145 -725h-86zM154 -319l12 69h487l-10 -69h-489z" glyph-name="uni1E49" horiz-adv-x="1044" unicode="ṉ"/><glyph d="M567 -25q-215 0 -328.5 153t-113.5 409q0 143 45 289.5t124 269.5t204 200.5t268 77.5q215 0 328.5 -152.5t113.5 -408.5q0 -143 -45 -289.5t-123.5 -269.5t-204 -201t-268.5 -78zM573 51q164 0 293 124t191.5 293t62.5 335q0 231 -88 363t-272 132q-162 0 -291 -123.5 t-191.5 -292.5t-62.5 -335q0 -231 88 -363.5t270 -132.5zM580 1503l14 70h485l-14 -70h-485zM844 1692l-39 41l231 194l54 -55z" glyph-name="uni1E52" horiz-adv-x="1265" unicode="Ṓ"/><glyph d="M422 -25q-154 0 -243 102.5t-89 287.5q0 268 155.5 455.5t362.5 187.5q156 0 245 -102.5t89 -287.5q0 -268 -156.5 -455.5t-363.5 -187.5zM430 49q162 0 294 168t132 391q0 160 -65.5 243t-188.5 83q-164 0 -296 -168t-132 -389q0 -160 66.5 -244t189.5 -84zM440 1241 l13 70h487l-10 -70h-490zM715 1442l-39 41l211 196l53 -55z" glyph-name="uni1E53" horiz-adv-x="1032" unicode="ṓ"/><glyph d="M307 690h236q217 0 335.5 93.5t118.5 260.5q0 125 -85 178.5t-263 53.5h-229zM348 1350h340q397 0 397 -297q0 -178 -118.5 -294t-311.5 -136l256 -623h-98l-250 616h-272l-123 -616h-88zM438 -416q-29 0 -49 19.5t-20 48.5q0 41 26.5 66.5t59.5 25.5q31 0 50 -19.5 t19 -50.5q0 -39 -25.5 -64.5t-60.5 -25.5z" glyph-name="uni1E5A" horiz-adv-x="1087" unicode="Ṛ"/><glyph d="M82 0l199 983h77l-39 -186h9q66 92 170 151.5t227 59.5l-72 -97q-80 2 -186.5 -63.5t-169.5 -196.5l-129 -651h-86zM74 -399q-29 0 -49.5 19.5t-20.5 47.5q0 41 26.5 66.5t59.5 25.5q31 0 50.5 -19.5t19.5 -49.5q0 -39 -25.5 -64.5t-60.5 -25.5z" glyph-name="uni1E5B" horiz-adv-x="649" unicode="ṛ"/><glyph d="M307 690h236q217 0 335.5 93.5t118.5 260.5q0 125 -85 178.5t-263 53.5h-229zM348 1350h340q397 0 397 -297q0 -178 -118.5 -294t-311.5 -136l256 -623h-98l-250 616h-272l-123 -616h-88zM489 1503l15 70h485l-14 -70h-486zM438 -416q-29 0 -49 19.5t-20 48.5 q0 41 26.5 66.5t59.5 25.5q31 0 50 -19.5t19 -50.5q0 -39 -25.5 -64.5t-60.5 -25.5z" glyph-name="uni1E5C" horiz-adv-x="1087" unicode="Ṝ"/><glyph d="M82 0l199 983h77l-39 -186h9q66 92 170 151.5t227 59.5l-72 -97q-80 2 -186.5 -63.5t-169.5 -196.5l-129 -651h-86zM279 1241l12 70h487l-10 -70h-489zM74 -399q-29 0 -49.5 19.5t-20.5 47.5q0 41 26.5 66.5t59.5 25.5q31 0 50.5 -19.5t19.5 -49.5q0 -39 -25.5 -64.5 t-60.5 -25.5z" glyph-name="uni1E5D" horiz-adv-x="649" unicode="ṝ"/><glyph d="M307 690h236q217 0 335.5 93.5t118.5 260.5q0 125 -85 178.5t-263 53.5h-229zM348 1350h340q397 0 397 -297q0 -178 -118.5 -294t-311.5 -136l256 -623h-98l-250 616h-272l-123 -616h-88zM205 -336l12 70h488l-11 -70h-489z" glyph-name="uni1E5E" horiz-adv-x="1087" unicode="Ṟ"/><glyph d="M82 0l199 983h77l-39 -186h9q66 92 170 151.5t227 59.5l-72 -97q-80 2 -186.5 -63.5t-169.5 -196.5l-129 -651h-86zM-160 -319l13 69h487l-10 -69h-490z" glyph-name="uni1E5F" horiz-adv-x="649" unicode="ṟ"/><glyph d="M465 -25q-246 0 -432 170l73 45q160 -139 369 -139q147 0 245.5 86t98.5 225q0 150 -174 254l-174 103q-211 129 -211 307q0 143 110.5 245.5t278.5 102.5q209 0 365 -112l-78 -58q-139 94 -299 94q-125 0 -206 -80.5t-81 -181.5q0 -145 178 -248l170 -98 q211 -123 211 -317q0 -176 -125.5 -287t-318.5 -111zM709 1481q-31 0 -50.5 18.5t-19.5 48.5q0 41 26.5 66.5t59.5 25.5q29 0 49.5 -19t20.5 -52q0 -37 -24.5 -62.5t-61.5 -25.5z" glyph-name="uni1E60" horiz-adv-x="1009" unicode="Ṡ"/><glyph d="M326 -25q-207 0 -328 121l78 43q92 -92 260 -92q102 0 177 61.5t75 145.5q0 61 -39 106.5t-150 104.5q-133 74 -186 131t-53 135q0 121 91 199t218 78q160 0 272 -72l-77 -55q-82 55 -197 55q-94 0 -159.5 -57.5t-65.5 -135.5q0 -45 28.5 -82.5t60 -58t93.5 -55.5 q147 -80 196.5 -142.5t49.5 -136.5q0 -133 -97 -213t-247 -80zM545 1221q-29 0 -49.5 19.5t-20.5 47.5q0 39 26.5 65.5t59.5 26.5q31 0 50.5 -19.5t19.5 -49.5q0 -39 -25.5 -64.5t-60.5 -25.5z" glyph-name="uni1E61" horiz-adv-x="796" unicode="ṡ"/><glyph d="M465 -25q-246 0 -432 170l73 45q160 -139 369 -139q147 0 245.5 86t98.5 225q0 150 -174 254l-174 103q-211 129 -211 307q0 143 110.5 245.5t278.5 102.5q209 0 365 -112l-78 -58q-139 94 -299 94q-125 0 -206 -80.5t-81 -181.5q0 -145 178 -248l170 -98 q211 -123 211 -317q0 -176 -125.5 -287t-318.5 -111zM373 -416q-29 0 -49.5 19.5t-20.5 48.5q0 41 26.5 66.5t59.5 25.5q31 0 50.5 -19.5t19.5 -50.5q0 -39 -25.5 -64.5t-60.5 -25.5z" glyph-name="uni1E62" horiz-adv-x="1009" unicode="Ṣ"/><glyph d="M326 -25q-207 0 -328 121l78 43q92 -92 260 -92q102 0 177 61.5t75 145.5q0 61 -39 106.5t-150 104.5q-133 74 -186 131t-53 135q0 121 91 199t218 78q160 0 272 -72l-77 -55q-82 55 -197 55q-94 0 -159.5 -57.5t-65.5 -135.5q0 -45 28.5 -82.5t60 -58t93.5 -55.5 q147 -80 196.5 -142.5t49.5 -136.5q0 -133 -97 -213t-247 -80zM279 -399q-29 0 -49.5 19.5t-20.5 47.5q0 41 26.5 66.5t59.5 25.5q31 0 50.5 -19.5t19.5 -49.5q0 -39 -25.5 -64.5t-60.5 -25.5z" glyph-name="uni1E63" horiz-adv-x="796" unicode="ṣ"/><glyph d="M360 0l254 1270h-413l16 80h916l-17 -80h-414l-253 -1270h-89zM350 -399q-29 0 -49 19.5t-20 47.5q0 41 25.5 66.5t60.5 25.5q31 0 50 -19.5t19 -49.5q0 -39 -25.5 -64.5t-60.5 -25.5z" glyph-name="uni1E6C" horiz-adv-x="1017" unicode="Ṭ"/><glyph d="M356 -25q-207 0 -206 195q0 51 8 98l133 641h-154l13 74h159l56 238l96 43l-70 -281h266l-16 -74h-266l-133 -645q-8 -33 -9 -78q0 -70 31 -103.5t109 -33.5q68 0 139 45l-23 -90q-61 -29 -133 -29zM246 -399q-29 0 -49.5 19.5t-20.5 47.5q0 41 26.5 66.5t59.5 25.5 q31 0 50.5 -19.5t19.5 -49.5q0 -39 -25.5 -64.5t-60.5 -25.5z" glyph-name="uni1E6D" horiz-adv-x="612" unicode="ṭ"/><glyph d="M360 0l254 1270h-413l16 80h916l-17 -80h-414l-253 -1270h-89zM117 -319l12 69h487l-10 -69h-489z" glyph-name="uni1E6E" horiz-adv-x="1017" unicode="Ṯ"/><glyph d="M356 -25q-207 0 -206 195q0 51 8 98l133 641h-154l13 74h159l56 238l96 43l-70 -281h266l-16 -74h-266l-133 -645q-8 -33 -9 -78q0 -70 31 -103.5t109 -33.5q68 0 139 45l-23 -90q-61 -29 -133 -29zM12 -319l13 69h487l-10 -69h-490z" glyph-name="uni1E6F" horiz-adv-x="612" unicode="ṯ"/><glyph d="M217 0l2 1350h88l-12 -1219h8l571 1219h91l43 -1219h8l510 1219h90l-576 -1350h-110l-29 1229h-8l-565 -1229h-111zM965 1438l-238 254l66 57l221 -268z" glyph-name="Wgrave" horiz-adv-x="1503" unicode="Ẁ"/><glyph d="M225 0l-84 983h84l72 -893h8l412 893h102l62 -893h8l418 893h82l-463 -983h-115l-57 887h-9l-405 -887h-115zM903 1167l-244 330l76 55l223 -344z" glyph-name="wgrave" horiz-adv-x="1398" unicode="ẁ"/><glyph d="M217 0l2 1350h88l-12 -1219h8l571 1219h91l43 -1219h8l510 1219h90l-576 -1350h-110l-29 1229h-8l-565 -1229h-111zM897 1458l-35 49l299 230l49 -72z" glyph-name="Wacute" horiz-adv-x="1503" unicode="Ẃ"/><glyph d="M225 0l-84 983h84l72 -893h8l412 893h102l62 -893h8l418 893h82l-463 -983h-115l-57 887h-9l-405 -887h-115zM770 1188l-43 51l324 297l55 -70z" glyph-name="wacute" horiz-adv-x="1398" unicode="ẃ"/><glyph d="M217 0l2 1350h88l-12 -1219h8l571 1219h91l43 -1219h8l510 1219h90l-576 -1350h-110l-29 1229h-8l-565 -1229h-111zM756 1481q-61 0 -62 61q0 37 22.5 61.5t53.5 24.5q61 0 61 -63q0 -35 -22 -59.5t-53 -24.5zM1106 1481q-61 0 -62 61q0 37 23 61.5t53 24.5q61 0 62 -63 q0 -35 -22.5 -59.5t-53.5 -24.5z" glyph-name="Wdieresis" horiz-adv-x="1503" unicode="Ẅ"/><glyph d="M225 0l-84 983h84l72 -893h8l412 893h102l62 -893h8l418 893h82l-463 -983h-115l-57 887h-9l-405 -887h-115zM672 1225q-61 0 -62 61q0 37 22.5 62.5t53.5 25.5q61 0 62 -65q0 -35 -22.5 -59.5t-53.5 -24.5zM1022 1225q-61 0 -61 61q0 37 22.5 62.5t52.5 25.5 q61 0 62 -65q0 -35 -22.5 -59.5t-53.5 -24.5z" glyph-name="wdieresis" horiz-adv-x="1398" unicode="ẅ"/><glyph d="M287 0l110 551l-223 799h90l189 -717h8l489 717h94l-559 -799l-110 -551h-88zM612 1481q-31 0 -50 18.5t-19 48.5q0 41 25.5 66.5t60.5 25.5q31 0 50 -19t19 -52q0 -37 -25.5 -62.5t-60.5 -25.5z" glyph-name="uni1E8E" horiz-adv-x="886" unicode="Ẏ"/><glyph d="M-63 -449q-45 0 -97 25l33 68q35 -18 70 -19q166 0 301 275l43 84l-166 999h84l141 -891h8l482 891h86l-607 -1104q-80 -152 -167.5 -240t-210.5 -88zM549 1221q-29 0 -49.5 19.5t-20.5 47.5q0 39 26.5 65.5t59.5 26.5q31 0 50.5 -19.5t19.5 -49.5q0 -39 -25.5 -64.5 t-60.5 -25.5z" glyph-name="uni1E8F" horiz-adv-x="858" unicode="ẏ"/><glyph d="M2 0l12 53l914 1221h-666l17 76h770l-11 -54l-909 -1220h735l-16 -76h-846zM360 -416q-29 0 -49 19.5t-20 48.5q0 41 26.5 66.5t59.5 25.5q31 0 50 -19.5t19 -50.5q0 -39 -25.5 -64.5t-60.5 -25.5z" glyph-name="uni1E92" horiz-adv-x="1034" unicode="Ẓ"/><glyph d="M-20 0l8 51l702 858h-502l17 74h610l-8 -51l-705 -858h578l-16 -74h-684zM276 -399q-29 0 -49 19.5t-20 47.5q0 41 25.5 66.5t60.5 25.5q31 0 50 -19.5t19 -49.5q0 -39 -25.5 -64.5t-60.5 -25.5z" glyph-name="uni1E93" horiz-adv-x="800" unicode="ẓ"/><glyph d="M356 -25q-207 0 -206 195q0 51 8 98l133 641h-154l13 74h159l56 238l96 43l-70 -281h266l-16 -74h-266l-133 -645q-8 -33 -9 -78q0 -70 31 -103.5t109 -33.5q68 0 139 45l-23 -90q-61 -29 -133 -29zM270 1497q-61 0 -61 62q0 37 22.5 62.5t53.5 25.5q61 0 61 -66 q0 -35 -22.5 -59.5t-53.5 -24.5zM621 1497q-61 0 -62 62q0 37 22.5 62.5t53.5 25.5q61 0 61 -66q0 -35 -22 -59.5t-53 -24.5z" glyph-name="uni1E97" horiz-adv-x="612" unicode="ẗ"/><glyph d="M766 -25q-238 0 -356 193l61 49q113 -168 297 -168q125 0 212 93.5t87 219.5q0 229 -377 328l8 64l379 325q-76 223 -311 224q-160 0 -272.5 -111t-155.5 -330l-170 -862h-88l178 899q43 217 177 347t337 130q160 0 256 -73.5t139 -241.5l-374 -322q178 -51 271 -149 t93 -215q0 -170 -109.5 -285t-281.5 -115z" glyph-name="uni1E9E" horiz-adv-x="1249" unicode="ẞ"/><glyph d="M291 541h467l-78 708h-8zM819 0l-53 469h-514l-252 -469h-98l743 1350h96l166 -1350h-88zM377 -399q-29 0 -49.5 19.5t-20.5 47.5q0 41 26.5 66.5t59.5 25.5q31 0 50.5 -19.5t19.5 -49.5q0 -39 -25.5 -64.5t-60.5 -25.5z" glyph-name="uni1EA0" horiz-adv-x="999" unicode="Ạ"/><glyph d="M377 -25q-131 0 -209 92.5t-78 262.5q0 279 163 478.5t372 199.5q162 0 254 -160h6l30 135h78l-196 -983h-82l33 156h-9q-174 -181 -362 -181zM395 49q188 0 369 213l102 494q-98 178 -243 178q-174 0 -310.5 -182.5t-136.5 -405.5q0 -147 57.5 -222t161.5 -75zM399 -399 q-29 0 -49 19.5t-20 47.5q0 41 25.5 66.5t60.5 25.5q31 0 50 -19.5t19 -49.5q0 -39 -25.5 -64.5t-60.5 -25.5z" glyph-name="uni1EA1" horiz-adv-x="1079" unicode="ạ"/><glyph d="M291 541h467l-78 708h-8zM819 0l-53 469h-514l-252 -469h-98l743 1350h96l166 -1350h-88zM602 1438l-8 55q139 39 149 111q10 45 -29.5 69.5t-123.5 28.5l18 65q111 -4 172.5 -40.5t48.5 -110.5q-24 -125 -227 -178z" glyph-name="uni1EA2" horiz-adv-x="999" unicode="Ả"/><glyph d="M377 -25q-131 0 -209 92.5t-78 262.5q0 279 163 478.5t372 199.5q162 0 254 -160h6l30 135h78l-196 -983h-82l33 156h-9q-174 -181 -362 -181zM395 49q188 0 369 213l102 494q-98 178 -243 178q-174 0 -310.5 -182.5t-136.5 -405.5q0 -147 57.5 -222t161.5 -75zM616 1178 l-8 57q139 39 150 113q10 47 -31 71.5t-123 28.5l17 70q113 -4 173 -43t48 -117q-14 -74 -74 -113.5t-152 -66.5z" glyph-name="uni1EA3" horiz-adv-x="1079" unicode="ả"/><glyph d="M291 541h467l-78 708h-8zM819 0l-53 469h-514l-252 -469h-98l743 1350h96l166 -1350h-88zM502 1448l-35 39l229 172h82l162 -176l-45 -35l-160 139h-8zM928 1579l-35 45l231 178l41 -59z" glyph-name="uni1EA4" horiz-adv-x="999" unicode="Ấ"/><glyph d="M377 -25q-131 0 -209 92.5t-78 262.5q0 279 163 478.5t372 199.5q162 0 254 -160h6l30 135h78l-196 -983h-82l33 156h-9q-174 -181 -362 -181zM395 49q188 0 369 213l102 494q-98 178 -243 178q-174 0 -310.5 -182.5t-136.5 -405.5q0 -147 57.5 -222t161.5 -75zM453 1174 l-33 47l248 186h77l183 -193l-43 -40l-176 161h-9zM911 1311l-43 45l232 217l55 -55z" glyph-name="uni1EA5" horiz-adv-x="1079" unicode="ấ"/><glyph d="M291 541h467l-78 708h-8zM819 0l-53 469h-514l-252 -469h-98l743 1350h96l166 -1350h-88zM502 1448l-35 39l229 172h82l162 -176l-45 -35l-160 139h-8zM547 1599l-176 168l57 48l164 -179z" glyph-name="uni1EA6" horiz-adv-x="999" unicode="Ầ"/><glyph d="M377 -25q-131 0 -209 92.5t-78 262.5q0 279 163 478.5t372 199.5q162 0 254 -160h6l30 135h78l-196 -983h-82l33 156h-9q-174 -181 -362 -181zM395 49q188 0 369 213l102 494q-98 178 -243 178q-174 0 -310.5 -182.5t-136.5 -405.5q0 -147 57.5 -222t161.5 -75zM453 1174 l-33 47l248 186h77l183 -193l-43 -40l-176 161h-9zM463 1311l-199 225l70 47l180 -233z" glyph-name="uni1EA7" horiz-adv-x="1079" unicode="ầ"/><glyph d="M291 541h467l-78 708h-8zM819 0l-53 469h-514l-252 -469h-98l743 1350h96l166 -1350h-88zM502 1448l-35 39l229 172h82l162 -176l-45 -35l-160 139h-8zM924 1554l-11 52q111 25 121 86q10 45 -22.5 65.5t-112.5 24.5l14 59q100 -4 153.5 -38t41.5 -101 q-20 -115 -184 -148z" glyph-name="uni1EA8" horiz-adv-x="999" unicode="Ẩ"/><glyph d="M377 -25q-131 0 -209 92.5t-78 262.5q0 279 163 478.5t372 199.5q162 0 254 -160h6l30 135h78l-196 -983h-82l33 156h-9q-174 -181 -362 -181zM395 49q188 0 369 213l102 494q-98 178 -243 178q-174 0 -310.5 -182.5t-136.5 -405.5q0 -147 57.5 -222t161.5 -75zM453 1174 l-33 47l248 186h77l183 -193l-43 -40l-176 161h-9zM903 1290l-14 51q106 39 117 95q18 88 -129 94l12 59q98 -4 152.5 -38.5t41.5 -104.5q-18 -109 -180 -156z" glyph-name="uni1EA9" horiz-adv-x="1079" unicode="ẩ"/><glyph d="M291 541h467l-78 708h-8zM819 0l-53 469h-514l-252 -469h-98l743 1350h96l166 -1350h-88zM502 1448l-35 39l229 170h82l162 -174l-45 -35l-160 137h-8zM885 1720q-74 0 -145.5 54.5t-116.5 54.5q-72 0 -103 -105l-57 7q37 164 172 163q74 0 145.5 -54t116.5 -54 q68 0 104 104l60 -6q-14 -68 -57 -116t-119 -48z" glyph-name="uni1EAA" horiz-adv-x="999" unicode="Ẫ"/><glyph d="M377 -25q-131 0 -209 92.5t-78 262.5q0 279 163 478.5t372 199.5q162 0 254 -160h6l30 135h78l-196 -983h-82l33 156h-9q-174 -181 -362 -181zM395 49q188 0 369 213l102 494q-98 178 -243 178q-174 0 -310.5 -182.5t-136.5 -405.5q0 -147 57.5 -222t161.5 -75zM453 1174 l-33 47l246 184h79l183 -191l-43 -40l-176 159h-9zM854 1448q-63 0 -145 43t-121 43q-33 0 -49.5 -19.5t-34.5 -72.5l-60 6q39 154 156 154q68 0 144.5 -43t117.5 -43q33 0 50.5 20t35.5 72l60 -6q-43 -154 -154 -154z" glyph-name="uni1EAB" horiz-adv-x="1079" unicode="ẫ"/><glyph d="M291 541h467l-78 708h-8zM819 0l-53 469h-514l-252 -469h-98l743 1350h96l166 -1350h-88zM461 1448l-39 39l272 231h90l191 -231l-47 -35l-191 201h-8zM377 -399q-29 0 -49.5 19.5t-20.5 47.5q0 41 26.5 66.5t59.5 25.5q31 0 50.5 -19.5t19.5 -49.5q0 -39 -25.5 -64.5 t-60.5 -25.5z" glyph-name="uni1EAC" horiz-adv-x="999" unicode="Ậ"/><glyph d="M377 -25q-131 0 -209 92.5t-78 262.5q0 279 163 478.5t372 199.5q162 0 254 -160h6l30 135h78l-196 -983h-82l33 156h-9q-174 -181 -362 -181zM395 49q188 0 369 213l102 494q-98 178 -243 178q-174 0 -310.5 -182.5t-136.5 -405.5q0 -147 57.5 -222t161.5 -75zM430 1171 l-43 43l291 295h88l186 -299l-51 -39l-180 263h-8zM399 -399q-29 0 -49 19.5t-20 47.5q0 41 25.5 66.5t60.5 25.5q31 0 50 -19.5t19 -49.5q0 -39 -25.5 -64.5t-60.5 -25.5z" glyph-name="uni1EAD" horiz-adv-x="1079" unicode="ậ"/><glyph d="M291 541h467l-78 708h-8zM819 0l-53 469h-514l-252 -469h-98l743 1350h96l166 -1350h-88zM684 1454q-123 0 -179 76t-50 178l65 10q-4 -84 41 -141t137 -57q176 0 250 198l64 -10q-29 -102 -114 -178t-214 -76zM717 1688l-41 43l231 192l51 -55z" glyph-name="uni1EAE" horiz-adv-x="999" unicode="Ắ"/><glyph d="M377 -25q-131 0 -209 92.5t-78 262.5q0 279 163 478.5t372 199.5q162 0 254 -160h6l30 135h78l-196 -983h-82l33 156h-9q-174 -181 -362 -181zM395 49q188 0 369 213l102 494q-98 178 -243 178q-174 0 -310.5 -182.5t-136.5 -405.5q0 -147 57.5 -222t161.5 -75zM743 1167 q-74 0 -126 28t-77.5 74t-35.5 96t-8 105l67 11q-8 -96 42 -171t152.5 -75t176.5 72.5t106 173.5l66 -11q-33 -121 -125.5 -212t-237.5 -91zM782 1440l-39 43l213 196l56 -57z" glyph-name="uni1EAF" horiz-adv-x="1079" unicode="ắ"/><glyph d="M291 541h467l-78 708h-8zM819 0l-53 469h-514l-252 -469h-98l743 1350h96l166 -1350h-88zM684 1454q-123 0 -179 76t-50 178l65 10q-4 -84 41 -141t137 -57q176 0 250 198l64 -10q-29 -102 -114 -178t-214 -76zM756 1675l-174 217l63 41l156 -227z" glyph-name="uni1EB0" horiz-adv-x="999" unicode="Ằ"/><glyph d="M377 -25q-131 0 -209 92.5t-78 262.5q0 279 163 478.5t372 199.5q162 0 254 -160h6l30 135h78l-196 -983h-82l33 156h-9q-174 -181 -362 -181zM395 49q188 0 369 213l102 494q-98 178 -243 178q-174 0 -310.5 -182.5t-136.5 -405.5q0 -147 57.5 -222t161.5 -75zM743 1167 q-74 0 -126 28t-77.5 74t-35.5 96t-8 105l67 11q-8 -96 42 -171t152.5 -75t176.5 72.5t106 173.5l66 -11q-33 -121 -125.5 -212t-237.5 -91zM809 1425l-160 217l64 48l147 -232z" glyph-name="uni1EB1" horiz-adv-x="1079" unicode="ằ"/><glyph d="M291 541h467l-78 708h-8zM819 0l-53 469h-514l-252 -469h-98l743 1350h96l166 -1350h-88zM684 1454q-123 0 -179 76t-48 178l63 10q-4 -84 41 -141t137 -57q176 0 250 198l64 -10q-27 -102 -114 -178t-214 -76zM684 1632l-10 56q111 29 123 86q10 45 -22 64.5t-109 23.5 l22 61q98 -4 149.5 -37t39.5 -102q-19 -105 -193 -152z" glyph-name="uni1EB2" horiz-adv-x="999" unicode="Ẳ"/><glyph d="M377 -25q-131 0 -209 92.5t-78 262.5q0 279 163 478.5t372 199.5q162 0 254 -160h6l30 135h78l-196 -983h-82l33 156h-9q-174 -181 -362 -181zM395 49q188 0 369 213l102 494q-98 178 -243 178q-174 0 -310.5 -182.5t-136.5 -405.5q0 -147 57.5 -222t161.5 -75zM743 1167 q-74 0 -126 28t-77.5 74t-35.5 96t-8 105l67 11q-8 -96 42 -171t152.5 -75t176.5 72.5t106 173.5l66 -11q-33 -121 -125.5 -212t-237.5 -91zM741 1378l-8 58q125 25 139 92q10 47 -25.5 68.5t-123.5 25.5l18 68q106 -4 164 -41t45 -109q-10 -68 -70.5 -108t-138.5 -54z" glyph-name="uni1EB3" horiz-adv-x="1079" unicode="ẳ"/><glyph d="M291 541h467l-78 708h-8zM819 0l-53 469h-514l-252 -469h-98l743 1350h96l166 -1350h-88zM688 1456q-125 0 -183.5 62.5t-51.5 148.5l65 10q-2 -68 43 -112.5t139 -44.5q182 0 242 157l64 -10q-29 -86 -110 -148.5t-208 -62.5zM881 1722q-74 0 -145.5 54.5t-117.5 54.5 q-68 0 -104 -105l-59 7q45 164 176 163q76 0 147.5 -54t116.5 -54q72 0 102 104l60 -6q-14 -68 -57 -116t-119 -48z" glyph-name="uni1EB4" horiz-adv-x="999" unicode="Ẵ"/><glyph d="M377 -25q-131 0 -209 92.5t-78 262.5q0 279 163 478.5t372 199.5q162 0 254 -160h6l30 135h78l-196 -983h-82l33 156h-9q-174 -181 -362 -181zM395 49q188 0 369 213l102 494q-98 178 -243 178q-174 0 -310.5 -182.5t-136.5 -405.5q0 -147 57.5 -222t161.5 -75zM741 1167 q-133 0 -190 64.5t-51 148.5l65 11q-6 -61 43 -109.5t146 -48.5q94 0 159.5 47t87.5 111l64 -11q-31 -86 -111 -149.5t-213 -63.5zM936 1448q-66 0 -144.5 43t-119.5 43q-33 0 -50.5 -20.5t-35.5 -71.5l-60 6q49 154 158 154q66 0 142.5 -43t119.5 -43q33 0 50.5 20t35.5 72 l62 -6q-39 -154 -158 -154z" glyph-name="uni1EB5" horiz-adv-x="1079" unicode="ẵ"/><glyph d="M291 541h467l-78 708h-8zM819 0l-53 469h-514l-252 -469h-98l743 1350h96l166 -1350h-88zM682 1454q-125 0 -180.5 75t-48.5 179l67 10q-4 -84 40 -140t136 -56q176 0 248 196l66 -10q-29 -102 -114 -178t-214 -76zM377 -399q-29 0 -49.5 19.5t-20.5 47.5q0 41 26.5 66.5 t59.5 25.5q31 0 50.5 -19.5t19.5 -49.5q0 -39 -25.5 -64.5t-60.5 -25.5z" glyph-name="uni1EB6" horiz-adv-x="999" unicode="Ặ"/><glyph d="M377 -25q-131 0 -209 92.5t-78 262.5q0 279 163 478.5t372 199.5q162 0 254 -160h6l30 135h78l-196 -983h-82l33 156h-9q-174 -181 -362 -181zM395 49q188 0 369 213l102 494q-98 178 -243 178q-174 0 -310.5 -182.5t-136.5 -405.5q0 -147 57.5 -222t161.5 -75zM664 1167 q-74 0 -126.5 28t-78 74t-35.5 96t-8 105l69 11q-8 -96 41 -170t151.5 -74t175.5 71.5t105 172.5l68 -11q-33 -121 -125 -212t-237 -91zM399 -399q-29 0 -49 19.5t-20 47.5q0 41 25.5 66.5t60.5 25.5q31 0 50 -19.5t19 -49.5q0 -39 -25.5 -64.5t-60.5 -25.5z" glyph-name="uni1EB7" horiz-adv-x="1079" unicode="ặ"/><glyph d="M80 0l268 1350h713l-37 -76h-604l-105 -520h394l-17 -76h-389l-123 -602h643l-16 -76h-727zM418 -399q-29 0 -49.5 19.5t-20.5 47.5q0 41 26.5 66.5t59.5 25.5q31 0 50.5 -19.5t19.5 -49.5q0 -39 -25.5 -64.5t-60.5 -25.5z" glyph-name="uni1EB8" horiz-adv-x="1001" unicode="Ẹ"/><glyph d="M86 381q0 268 156.5 447.5t355.5 179.5q295 0 295 -349q0 -57 -21 -172h-692q-37 -219 49 -329.5t244 -110.5q143 0 256 90l53 -55q-133 -106 -321 -107q-174 0 -274.5 105.5t-100.5 300.5zM193 547h610q12 66 12 125q0 113 -53 188.5t-172 75.5q-133 0 -245.5 -107.5 t-151.5 -281.5zM371 -399q-29 0 -49.5 19.5t-20.5 47.5q0 41 25.5 66.5t60.5 25.5q31 0 50.5 -19.5t19.5 -49.5q0 -39 -25.5 -64.5t-60.5 -25.5z" glyph-name="uni1EB9" horiz-adv-x="964" unicode="ẹ"/><glyph d="M80 0l268 1350h713l-37 -76h-604l-105 -520h394l-17 -76h-389l-123 -602h643l-16 -76h-727zM635 1438l-8 55q139 39 149 111q10 45 -29.5 69.5t-123.5 28.5l18 65q111 -4 172 -40.5t49 -110.5q-24 -125 -227 -178z" glyph-name="uni1EBA" horiz-adv-x="1001" unicode="Ẻ"/><glyph d="M86 381q0 268 156.5 447.5t355.5 179.5q295 0 295 -349q0 -57 -21 -172h-692q-37 -219 49 -329.5t244 -110.5q143 0 256 90l53 -55q-133 -106 -321 -107q-174 0 -274.5 105.5t-100.5 300.5zM193 547h610q12 66 12 125q0 113 -53 188.5t-172 75.5q-133 0 -245.5 -107.5 t-151.5 -281.5zM580 1178l-9 57q139 39 150 113q10 47 -31 71.5t-123 28.5l17 70q113 -4 173 -43t48 -117q-14 -74 -73.5 -113.5t-151.5 -66.5z" glyph-name="uni1EBB" horiz-adv-x="964" unicode="ẻ"/><glyph d="M80 0l268 1350h713l-37 -76h-604l-105 -520h394l-17 -76h-389l-123 -602h643l-16 -76h-727zM883 1470q-47 0 -87 26t-62.5 57.5t-55.5 57t-68 25.5q-92 0 -141 -159l-61 6q16 102 74.5 163.5t142.5 61.5q59 0 104 -41t84 -82t84 -41q88 0 141 160l62 -6 q-16 -102 -74.5 -165t-142.5 -63z" glyph-name="uni1EBC" horiz-adv-x="1001" unicode="Ẽ"/><glyph d="M86 381q0 268 156.5 447.5t355.5 179.5q295 0 295 -349q0 -57 -21 -172h-692q-37 -219 49 -329.5t244 -110.5q143 0 256 90l53 -55q-133 -106 -321 -107q-174 0 -274.5 105.5t-100.5 300.5zM193 547h610q12 66 12 125q0 113 -53 188.5t-172 75.5q-133 0 -245.5 -107.5 t-151.5 -281.5zM795 1186q-49 0 -87 31.5t-58.5 68.5t-52.5 68.5t-71 31.5q-96 0 -141 -194l-70 4q29 117 79 187.5t141 70.5q49 0 86.5 -30.5t58 -68.5t52.5 -69t71 -31q100 0 141 193l70 -4q-67 -258 -219 -258z" glyph-name="uni1EBD" horiz-adv-x="964" unicode="ẽ"/><glyph d="M80 0l268 1350h713l-37 -76h-604l-105 -520h394l-17 -76h-389l-123 -602h643l-16 -76h-727zM532 1448l-34 39l229 172h82l162 -176l-45 -35l-160 139h-8zM958 1579l-34 45l231 178l41 -59z" glyph-name="uni1EBE" horiz-adv-x="1001" unicode="Ế"/><glyph d="M86 381q0 268 156.5 447.5t355.5 179.5q295 0 295 -349q0 -57 -21 -172h-692q-37 -219 49 -329.5t244 -110.5q143 0 256 90l53 -55q-133 -106 -321 -107q-174 0 -274.5 105.5t-100.5 300.5zM193 547h610q12 66 12 125q0 113 -53 188.5t-172 75.5q-133 0 -245.5 -107.5 t-151.5 -281.5zM414 1174l-33 47l248 186h78l182 -193l-43 -40l-176 161h-8zM872 1311l-43 45l232 217l55 -55z" glyph-name="uni1EBF" horiz-adv-x="964" unicode="ế"/><glyph d="M80 0l268 1350h713l-37 -76h-604l-105 -520h394l-17 -76h-389l-123 -602h643l-16 -76h-727zM532 1448l-34 39l229 172h82l162 -176l-45 -35l-160 139h-8zM578 1599l-177 168l58 48l164 -179z" glyph-name="uni1EC0" horiz-adv-x="1001" unicode="Ề"/><glyph d="M86 381q0 268 156.5 447.5t355.5 179.5q295 0 295 -349q0 -57 -21 -172h-692q-37 -219 49 -329.5t244 -110.5q143 0 256 90l53 -55q-133 -106 -321 -107q-174 0 -274.5 105.5t-100.5 300.5zM193 547h610q12 66 12 125q0 113 -53 188.5t-172 75.5q-133 0 -245.5 -107.5 t-151.5 -281.5zM414 1174l-33 47l248 186h78l182 -193l-43 -40l-176 161h-8zM424 1311l-199 225l70 47l180 -233z" glyph-name="uni1EC1" horiz-adv-x="964" unicode="ề"/><glyph d="M80 0l268 1350h713l-37 -76h-604l-105 -520h394l-17 -76h-389l-123 -602h643l-16 -76h-727zM532 1448l-34 39l229 172h82l162 -176l-45 -35l-160 139h-8zM954 1554l-10 52q111 25 121 86q10 45 -22.5 65.5t-112.5 24.5l14 59q100 -4 153.5 -38t41.5 -101 q-21 -115 -185 -148z" glyph-name="uni1EC2" horiz-adv-x="1001" unicode="Ể"/><glyph d="M86 381q0 268 156.5 447.5t355.5 179.5q295 0 295 -349q0 -57 -21 -172h-692q-37 -219 49 -329.5t244 -110.5q143 0 256 90l53 -55q-133 -106 -321 -107q-174 0 -274.5 105.5t-100.5 300.5zM193 547h610q12 66 12 125q0 113 -53 188.5t-172 75.5q-133 0 -245.5 -107.5 t-151.5 -281.5zM414 1174l-33 47l248 186h78l182 -193l-43 -40l-176 161h-8zM864 1290l-14 51q106 39 117 95q18 88 -129 94l12 59q98 -4 152.5 -38.5t41.5 -104.5q-18 -109 -180 -156z" glyph-name="uni1EC3" horiz-adv-x="964" unicode="ể"/><glyph d="M80 0l268 1350h713l-37 -76h-604l-105 -520h394l-17 -76h-389l-123 -602h643l-16 -76h-727zM532 1448l-34 39l229 170h82l162 -174l-45 -35l-160 137h-8zM915 1720q-74 0 -145.5 54.5t-116.5 54.5q-72 0 -102 -105l-57 7q37 164 172 163q74 0 145.5 -54t116.5 -54 q68 0 104 104l60 -6q-14 -68 -57.5 -116t-119.5 -48z" glyph-name="uni1EC4" horiz-adv-x="1001" unicode="Ễ"/><glyph d="M86 381q0 268 156.5 447.5t355.5 179.5q295 0 295 -349q0 -57 -21 -172h-692q-37 -219 49 -329.5t244 -110.5q143 0 256 90l53 -55q-133 -106 -321 -107q-174 0 -274.5 105.5t-100.5 300.5zM193 547h610q12 66 12 125q0 113 -53 188.5t-172 75.5q-133 0 -245.5 -107.5 t-151.5 -281.5zM414 1174l-33 47l246 184h80l182 -191l-43 -40l-176 159h-8zM815 1448q-63 0 -145 43t-121 43q-33 0 -49.5 -19.5t-34.5 -72.5l-59 6q39 154 155 154q68 0 144.5 -43t117.5 -43q33 0 50.5 20t35.5 72l60 -6q-43 -154 -154 -154z" glyph-name="uni1EC5" horiz-adv-x="964" unicode="ễ"/><glyph d="M80 0l268 1350h713l-37 -76h-604l-105 -520h394l-17 -76h-389l-123 -602h643l-16 -76h-727zM494 1448l-39 39l272 231h90l191 -231l-47 -35l-191 201h-8zM418 -399q-29 0 -49.5 19.5t-20.5 47.5q0 41 26.5 66.5t59.5 25.5q31 0 50.5 -19.5t19.5 -49.5q0 -39 -25.5 -64.5 t-60.5 -25.5z" glyph-name="uni1EC6" horiz-adv-x="1001" unicode="Ệ"/><glyph d="M86 381q0 268 156.5 447.5t355.5 179.5q295 0 295 -349q0 -57 -21 -172h-692q-37 -219 49 -329.5t244 -110.5q143 0 256 90l53 -55q-133 -106 -321 -107q-174 0 -274.5 105.5t-100.5 300.5zM193 547h610q12 66 12 125q0 113 -53 188.5t-172 75.5q-133 0 -245.5 -107.5 t-151.5 -281.5zM391 1171l-43 43l291 295h88l186 -299l-51 -39l-180 263h-8zM371 -399q-29 0 -49.5 19.5t-20.5 47.5q0 41 25.5 66.5t60.5 25.5q31 0 50.5 -19.5t19.5 -49.5q0 -39 -25.5 -64.5t-60.5 -25.5z" glyph-name="uni1EC7" horiz-adv-x="964" unicode="ệ"/><glyph d="M80 0l268 1350h88l-268 -1350h-88zM313 1438l-8 55q139 39 150 111q10 45 -30 69.5t-124 28.5l18 65q111 -4 172.5 -40.5t49.5 -110.5q-25 -125 -228 -178z" glyph-name="uni1EC8" horiz-adv-x="464" unicode="Ỉ"/><glyph d="M82 0l199 983h84l-197 -983h-86zM324 1178l-9 57q139 39 150 113q10 47 -31 71.5t-123 28.5l17 70q113 -4 173 -43t48 -117q-14 -74 -73.5 -113.5t-151.5 -66.5z" glyph-name="uni1EC9" horiz-adv-x="450" unicode="ỉ"/><glyph d="M80 0l268 1350h88l-268 -1350h-88zM74 -414q-29 0 -49.5 19.5t-20.5 48.5q0 39 26.5 65.5t59.5 26.5q31 0 50.5 -19.5t19.5 -50.5q0 -39 -25.5 -64.5t-60.5 -25.5z" glyph-name="uni1ECA" horiz-adv-x="464" unicode="Ị"/><glyph d="M82 0l199 983h84l-197 -983h-86zM375 1221q-29 0 -48.5 19.5t-19.5 47.5q0 41 24.5 66.5t61.5 25.5q29 0 48.5 -18.5t19.5 -50.5q0 -39 -25.5 -64.5t-60.5 -25.5zM72 -399q-29 0 -49.5 19.5t-20.5 47.5q0 41 25.5 66.5t60.5 25.5q31 0 50.5 -19.5t19.5 -49.5 q0 -39 -25.5 -64.5t-60.5 -25.5z" glyph-name="uni1ECB" horiz-adv-x="450" unicode="ị"/><glyph d="M567 -25q-215 0 -328.5 153t-113.5 409q0 143 45 289.5t124 269.5t204 200.5t268 77.5q215 0 328.5 -152.5t113.5 -408.5q0 -143 -45 -289.5t-123.5 -269.5t-204 -201t-268.5 -78zM573 51q164 0 293 124t191.5 293t62.5 335q0 231 -88 363t-272 132q-162 0 -291 -123.5 t-191.5 -292.5t-62.5 -335q0 -231 88 -363.5t270 -132.5zM496 -399q-29 0 -49.5 19.5t-20.5 47.5q0 41 26.5 66.5t59.5 25.5q31 0 50.5 -19.5t19.5 -49.5q0 -39 -25.5 -64.5t-60.5 -25.5z" glyph-name="uni1ECC" horiz-adv-x="1265" unicode="Ọ"/><glyph d="M422 -25q-154 0 -243 102.5t-89 287.5q0 268 155.5 455.5t362.5 187.5q156 0 245 -102.5t89 -287.5q0 -268 -156.5 -455.5t-363.5 -187.5zM430 49q162 0 294 168t132 391q0 160 -65.5 243t-188.5 83q-164 0 -296 -168t-132 -389q0 -160 66.5 -244t189.5 -84zM324 -399 q-29 0 -49.5 19.5t-20.5 47.5q0 41 26.5 66.5t59.5 25.5q31 0 50.5 -19.5t19.5 -49.5q0 -39 -25.5 -64.5t-60.5 -25.5z" glyph-name="uni1ECD" horiz-adv-x="1032" unicode="ọ"/><glyph d="M567 -25q-215 0 -328.5 153t-113.5 409q0 143 45 289.5t124 269.5t204 200.5t268 77.5q215 0 328.5 -152.5t113.5 -408.5q0 -143 -45 -289.5t-123.5 -269.5t-204 -201t-268.5 -78zM573 51q164 0 293 124t191.5 293t62.5 335q0 231 -88 363t-272 132q-162 0 -291 -123.5 t-191.5 -292.5t-62.5 -335q0 -231 88 -363.5t270 -132.5zM729 1438l-8 55q139 39 149 111q10 45 -29.5 69.5t-123.5 28.5l18 65q111 -4 172.5 -40.5t48.5 -110.5q-24 -125 -227 -178z" glyph-name="uni1ECE" horiz-adv-x="1265" unicode="Ỏ"/><glyph d="M422 -25q-154 0 -243 102.5t-89 287.5q0 268 155.5 455.5t362.5 187.5q156 0 245 -102.5t89 -287.5q0 -268 -156.5 -455.5t-363.5 -187.5zM430 49q162 0 294 168t132 391q0 160 -65.5 243t-188.5 83q-164 0 -296 -168t-132 -389q0 -160 66.5 -244t189.5 -84zM627 1178 l-9 57q139 39 150 113q10 47 -31 71.5t-123 28.5l17 70q113 -4 173 -43t48 -117q-14 -74 -73.5 -113.5t-151.5 -66.5z" glyph-name="uni1ECF" horiz-adv-x="1032" unicode="ỏ"/><glyph d="M567 -25q-215 0 -328.5 153t-113.5 409q0 143 45 289.5t124 269.5t204 200.5t268 77.5q215 0 328.5 -152.5t113.5 -408.5q0 -143 -45 -289.5t-123.5 -269.5t-204 -201t-268.5 -78zM573 51q164 0 293 124t191.5 293t62.5 335q0 231 -88 363t-272 132q-162 0 -291 -123.5 t-191.5 -292.5t-62.5 -335q0 -231 88 -363.5t270 -132.5zM627 1448l-35 39l229 172h82l162 -176l-45 -35l-160 139h-8zM1053 1579l-35 45l231 178l41 -59z" glyph-name="uni1ED0" horiz-adv-x="1265" unicode="Ố"/><glyph d="M422 -25q-154 0 -243 102.5t-89 287.5q0 268 155.5 455.5t362.5 187.5q156 0 245 -102.5t89 -287.5q0 -268 -156.5 -455.5t-363.5 -187.5zM430 49q162 0 294 168t132 391q0 160 -65.5 243t-188.5 83q-164 0 -296 -168t-132 -389q0 -160 66.5 -244t189.5 -84zM463 1174 l-33 47l248 186h78l182 -193l-43 -40l-176 161h-8zM922 1311l-43 45l231 217l55 -55z" glyph-name="uni1ED1" horiz-adv-x="1032" unicode="ố"/><glyph d="M567 -25q-215 0 -328.5 153t-113.5 409q0 143 45 289.5t124 269.5t204 200.5t268 77.5q215 0 328.5 -152.5t113.5 -408.5q0 -143 -45 -289.5t-123.5 -269.5t-204 -201t-268.5 -78zM573 51q164 0 293 124t191.5 293t62.5 335q0 231 -88 363t-272 132q-162 0 -291 -123.5 t-191.5 -292.5t-62.5 -335q0 -231 88 -363.5t270 -132.5zM627 1448l-35 39l229 172h82l162 -176l-45 -35l-160 139h-8zM672 1599l-176 168l57 48l164 -179z" glyph-name="uni1ED2" horiz-adv-x="1265" unicode="Ồ"/><glyph d="M422 -25q-154 0 -243 102.5t-89 287.5q0 268 155.5 455.5t362.5 187.5q156 0 245 -102.5t89 -287.5q0 -268 -156.5 -455.5t-363.5 -187.5zM430 49q162 0 294 168t132 391q0 160 -65.5 243t-188.5 83q-164 0 -296 -168t-132 -389q0 -160 66.5 -244t189.5 -84zM463 1174 l-33 47l248 186h78l182 -193l-43 -40l-176 161h-8zM473 1311l-199 225l70 47l180 -233z" glyph-name="uni1ED3" horiz-adv-x="1032" unicode="ồ"/><glyph d="M567 -25q-215 0 -328.5 153t-113.5 409q0 143 45 289.5t124 269.5t204 200.5t268 77.5q215 0 328.5 -152.5t113.5 -408.5q0 -143 -45 -289.5t-123.5 -269.5t-204 -201t-268.5 -78zM573 51q164 0 293 124t191.5 293t62.5 335q0 231 -88 363t-272 132q-162 0 -291 -123.5 t-191.5 -292.5t-62.5 -335q0 -231 88 -363.5t270 -132.5zM627 1448l-35 39l229 172h82l162 -176l-45 -35l-160 139h-8zM1049 1554l-11 52q111 25 121 86q10 45 -22.5 65.5t-112.5 24.5l14 59q100 -4 153.5 -38t41.5 -101q-20 -115 -184 -148z" glyph-name="uni1ED4" horiz-adv-x="1265" unicode="Ổ"/><glyph d="M422 -25q-154 0 -243 102.5t-89 287.5q0 268 155.5 455.5t362.5 187.5q156 0 245 -102.5t89 -287.5q0 -268 -156.5 -455.5t-363.5 -187.5zM430 49q162 0 294 168t132 391q0 160 -65.5 243t-188.5 83q-164 0 -296 -168t-132 -389q0 -160 66.5 -244t189.5 -84zM463 1174 l-33 47l248 186h78l182 -193l-43 -40l-176 161h-8zM913 1290l-14 51q106 39 117 95q18 88 -129 94l12 59q98 -4 152.5 -38.5t42.5 -104.5q-19 -109 -181 -156z" glyph-name="uni1ED5" horiz-adv-x="1032" unicode="ổ"/><glyph d="M567 -25q-215 0 -328.5 153t-113.5 409q0 143 45 289.5t124 269.5t204 200.5t268 77.5q215 0 328.5 -152.5t113.5 -408.5q0 -143 -45 -289.5t-123.5 -269.5t-204 -201t-268.5 -78zM573 51q164 0 293 124t191.5 293t62.5 335q0 231 -88 363t-272 132q-162 0 -291 -123.5 t-191.5 -292.5t-62.5 -335q0 -231 88 -363.5t270 -132.5zM627 1448l-35 39l229 170h82l162 -174l-45 -35l-160 137h-8zM1010 1720q-74 0 -145.5 54.5t-116.5 54.5q-72 0 -103 -105l-57 7q37 164 172 163q74 0 145.5 -54t116.5 -54q68 0 104 104l60 -6q-14 -68 -57 -116 t-119 -48z" glyph-name="uni1ED6" horiz-adv-x="1265" unicode="Ỗ"/><glyph d="M422 -25q-154 0 -243 102.5t-89 287.5q0 268 155.5 455.5t362.5 187.5q156 0 245 -102.5t89 -287.5q0 -268 -156.5 -455.5t-363.5 -187.5zM430 49q162 0 294 168t132 391q0 160 -65.5 243t-188.5 83q-164 0 -296 -168t-132 -389q0 -160 66.5 -244t189.5 -84zM463 1174 l-33 47l246 184h80l182 -191l-43 -40l-176 159h-8zM864 1448q-63 0 -145 43t-121 43q-33 0 -49.5 -19.5t-34.5 -72.5l-59 6q39 154 155 154q68 0 144.5 -43t117.5 -43q33 0 50.5 20t35.5 72l60 -6q-43 -154 -154 -154z" glyph-name="uni1ED7" horiz-adv-x="1032" unicode="ỗ"/><glyph d="M567 -25q-215 0 -328.5 153t-113.5 409q0 143 45 289.5t124 269.5t204 200.5t268 77.5q215 0 328.5 -152.5t113.5 -408.5q0 -143 -45 -289.5t-123.5 -269.5t-204 -201t-268.5 -78zM573 51q164 0 293 124t191.5 293t62.5 335q0 231 -88 363t-272 132q-162 0 -291 -123.5 t-191.5 -292.5t-62.5 -335q0 -231 88 -363.5t270 -132.5zM588 1448l-39 39l272 231h90l191 -231l-47 -35l-191 201h-8zM496 -399q-29 0 -49.5 19.5t-20.5 47.5q0 41 26.5 66.5t59.5 25.5q31 0 50.5 -19.5t19.5 -49.5q0 -39 -25.5 -64.5t-60.5 -25.5z" glyph-name="uni1ED8" horiz-adv-x="1265" unicode="Ộ"/><glyph d="M422 -25q-154 0 -243 102.5t-89 287.5q0 268 155.5 455.5t362.5 187.5q156 0 245 -102.5t89 -287.5q0 -268 -156.5 -455.5t-363.5 -187.5zM430 49q162 0 294 168t132 391q0 160 -65.5 243t-188.5 83q-164 0 -296 -168t-132 -389q0 -160 66.5 -244t189.5 -84zM440 1171 l-43 43l291 295h88l187 -299l-52 -39l-180 263h-8zM324 -399q-29 0 -49.5 19.5t-20.5 47.5q0 41 26.5 66.5t59.5 25.5q31 0 50.5 -19.5t19.5 -49.5q0 -39 -25.5 -64.5t-60.5 -25.5z" glyph-name="uni1ED9" horiz-adv-x="1032" unicode="ộ"/><glyph d="M1120 803q0 231 -88 363t-272 132q-162 0 -291 -123.5t-191.5 -292.5t-62.5 -335q0 -231 88 -363.5t270 -132.5q164 0 293 124t191.5 293t62.5 335zM1202 1593l80 33q18 -55 18 -98q0 -106 -68.5 -174t-174.5 -90q152 -143 151 -451q0 -143 -45 -289.5t-123.5 -269.5 t-203.5 -201t-269 -78q-215 0 -328.5 153t-113.5 409q0 143 45 289.5t124 269.5t204 200.5t268 77.5q129 0 223 -57q104 8 166 60.5t62 138.5q-1 46 -15 77zM784 1458l-34 49l299 230l49 -72z" glyph-name="uni1EDA" horiz-adv-x="1265" unicode="Ớ"/><glyph d="M430 49q162 0 294 168t132 391q0 160 -65.5 243t-188.5 83q-164 0 -296 -168t-132 -389q0 -160 66.5 -244t189.5 -84zM999 1249l76 33q16 -45 17 -111q0 -109 -71 -175t-171 -89q92 -100 92 -289q0 -268 -156.5 -455.5t-363.5 -187.5q-154 0 -243 102.5t-89 287.5 q0 268 155.5 455.5t362.5 187.5q104 0 183 -50q209 27 221 205q3 41 -13 86zM600 1188l-43 51l324 297l55 -70z" glyph-name="uni1EDB" horiz-adv-x="1034" unicode="ớ"/><glyph d="M1120 803q0 231 -88 363t-272 132q-162 0 -291 -123.5t-191.5 -292.5t-62.5 -335q0 -231 88 -363.5t270 -132.5q164 0 293 124t191.5 293t62.5 335zM1202 1593l80 33q18 -55 18 -98q0 -106 -68.5 -174t-174.5 -90q152 -143 151 -451q0 -143 -45 -289.5t-123.5 -269.5 t-203.5 -201t-269 -78q-215 0 -328.5 153t-113.5 409q0 143 45 289.5t124 269.5t204 200.5t268 77.5q129 0 223 -57q104 8 166 60.5t62 138.5q-1 46 -15 77zM852 1438l-238 254l66 57l221 -268z" glyph-name="uni1EDC" horiz-adv-x="1265" unicode="Ờ"/><glyph d="M430 49q162 0 294 168t132 391q0 160 -65.5 243t-188.5 83q-164 0 -296 -168t-132 -389q0 -160 66.5 -244t189.5 -84zM999 1249l76 33q16 -45 17 -111q0 -109 -71 -175t-171 -89q92 -100 92 -289q0 -268 -156.5 -455.5t-363.5 -187.5q-154 0 -243 102.5t-89 287.5 q0 268 155.5 455.5t362.5 187.5q104 0 183 -50q209 27 221 205q3 41 -13 86zM733 1167l-244 330l76 55l223 -344z" glyph-name="uni1EDD" horiz-adv-x="1034" unicode="ờ"/><glyph d="M1120 803q0 231 -88 363t-272 132q-162 0 -291 -123.5t-191.5 -292.5t-62.5 -335q0 -231 88 -363.5t270 -132.5q164 0 293 124t191.5 293t62.5 335zM1202 1593l80 33q18 -55 18 -98q0 -106 -68.5 -174t-174.5 -90q152 -143 151 -451q0 -143 -45 -289.5t-123.5 -269.5 t-203.5 -201t-269 -78q-215 0 -328.5 153t-113.5 409q0 143 45 289.5t124 269.5t204 200.5t268 77.5q129 0 223 -57q104 8 166 60.5t62 138.5q-1 46 -15 77zM721 1438l-8 55q139 39 149 111q10 45 -29.5 69.5t-123.5 28.5l18 65q111 -4 172.5 -40.5t48.5 -110.5 q-24 -125 -227 -178z" glyph-name="uni1EDE" horiz-adv-x="1265" unicode="Ở"/><glyph d="M430 49q162 0 294 168t132 391q0 160 -65.5 243t-188.5 83q-164 0 -296 -168t-132 -389q0 -160 66.5 -244t189.5 -84zM999 1249l76 33q16 -45 17 -111q0 -109 -71 -175t-171 -89q92 -100 92 -289q0 -268 -156.5 -455.5t-363.5 -187.5q-154 0 -243 102.5t-89 287.5 q0 268 155.5 455.5t362.5 187.5q104 0 183 -50q209 27 221 205q3 41 -13 86zM612 1178l-8 57q139 39 150 113q10 47 -31 71.5t-123 28.5l16 70q113 -4 173.5 -43t48.5 -117q-14 -74 -74 -113.5t-152 -66.5z" glyph-name="uni1EDF" horiz-adv-x="1034" unicode="ở"/><glyph d="M1120 803q0 231 -88 363t-272 132q-162 0 -291 -123.5t-191.5 -292.5t-62.5 -335q0 -231 88 -363.5t270 -132.5q164 0 293 124t191.5 293t62.5 335zM1202 1593l80 33q18 -55 18 -98q0 -106 -68.5 -174t-174.5 -90q152 -143 151 -451q0 -143 -45 -289.5t-123.5 -269.5 t-203.5 -201t-269 -78q-215 0 -328.5 153t-113.5 409q0 143 45 289.5t124 269.5t204 200.5t268 77.5q129 0 223 -57q104 8 166 60.5t62 138.5q-1 46 -15 77zM926 1470q-47 0 -87 26t-62.5 57.5t-55.5 57t-68 25.5q-92 0 -141 -159l-61 6q16 102 74.5 163.5t142.5 61.5 q59 0 104 -41t84 -82t84 -41q88 0 141 160l62 -6q-16 -102 -74.5 -165t-142.5 -63z" glyph-name="uni1EE0" horiz-adv-x="1265" unicode="Ỡ"/><glyph d="M934 1448l70 -4q-68 -258 -218 -258q-47 0 -84.5 31.5t-58 68.5t-53.5 68.5t-70 31.5q-96 0 -141 -194l-68 4q66 258 217 258q47 0 85 -30.5t57.5 -68.5t52.5 -69t72 -31q98 0 139 193zM430 49q162 0 294 168t132 391q0 160 -65.5 243t-188.5 83q-164 0 -296 -168 t-132 -389q0 -160 66.5 -244t189.5 -84zM999 1249l76 33q16 -45 17 -111q0 -109 -71 -175t-171 -89q92 -100 92 -289q0 -268 -156.5 -455.5t-363.5 -187.5q-154 0 -243 102.5t-89 287.5q0 268 155.5 455.5t362.5 187.5q104 0 183 -50q209 27 221 205q3 41 -13 86z" glyph-name="uni1EE1" horiz-adv-x="1034" unicode="ỡ"/><glyph d="M1120 803q0 231 -88 363t-272 132q-162 0 -291 -123.5t-191.5 -292.5t-62.5 -335q0 -231 88 -363.5t270 -132.5q164 0 293 124t191.5 293t62.5 335zM1202 1593l80 33q18 -55 18 -98q0 -106 -68.5 -174t-174.5 -90q152 -143 151 -451q0 -143 -45 -289.5t-123.5 -269.5 t-203.5 -201t-269 -78q-215 0 -328.5 153t-113.5 409q0 143 45 289.5t124 269.5t204 200.5t268 77.5q129 0 223 -57q104 8 166 60.5t62 138.5q-1 46 -15 77zM487 -399q-29 0 -49 19.5t-20 47.5q0 41 26.5 66.5t59.5 25.5q31 0 50 -19.5t19 -49.5q0 -39 -25.5 -64.5 t-60.5 -25.5z" glyph-name="uni1EE2" horiz-adv-x="1265" unicode="Ợ"/><glyph d="M430 49q162 0 294 168t132 391q0 160 -65.5 243t-188.5 83q-164 0 -296 -168t-132 -389q0 -160 66.5 -244t189.5 -84zM999 1249l76 33q16 -45 17 -111q0 -109 -71 -175t-171 -89q92 -100 92 -289q0 -268 -156.5 -455.5t-363.5 -187.5q-154 0 -243 102.5t-89 287.5 q0 268 155.5 455.5t362.5 187.5q104 0 183 -50q209 27 221 205q3 41 -13 86zM315 -399q-29 0 -49 19.5t-20 47.5q0 41 26.5 66.5t59.5 25.5q31 0 50 -19.5t19 -49.5q0 -39 -25.5 -64.5t-60.5 -25.5z" glyph-name="uni1EE3" horiz-adv-x="1034" unicode="ợ"/><glyph d="M184 551l160 799h88l-158 -791q-20 -80 -20 -166q0 -342 313 -342q137 0 240.5 108.5t150.5 336.5l170 854h89l-175 -867q-53 -266 -181 -387t-302 -121q-186 0 -289.5 103.5t-103.5 298.5q0 90 18 174zM453 -399q-29 0 -49.5 19.5t-20.5 47.5q0 41 25.5 66.5t60.5 25.5 q31 0 50.5 -19.5t19.5 -49.5q0 -39 -25.5 -64.5t-60.5 -25.5z" glyph-name="uni1EE4" horiz-adv-x="1228" unicode="Ụ"/><glyph d="M973 983l-197 -983h-84l35 160h-8q-106 -92 -186 -138.5t-162 -46.5q-236 0 -236 240q0 70 17 133l127 635h83l-124 -623q-16 -68 -17 -127q0 -94 42 -138t132 -44q139 0 348 207l146 725h84zM430 -401q-29 0 -49.5 19.5t-20.5 47.5q0 39 27 65.5t59 26.5 q31 0 50.5 -19.5t19.5 -49.5q0 -39 -25.5 -64.5t-60.5 -25.5z" glyph-name="uni1EE5" horiz-adv-x="1060" unicode="ụ"/><glyph d="M184 551l160 799h88l-158 -791q-20 -80 -20 -166q0 -342 313 -342q137 0 240.5 108.5t150.5 336.5l170 854h89l-175 -867q-53 -266 -181 -387t-302 -121q-186 0 -289.5 103.5t-103.5 298.5q0 90 18 174zM705 1438l-9 55q139 39 150 111q10 45 -30 69.5t-124 28.5l19 65 q111 -4 172 -40.5t49 -110.5q-24 -125 -227 -178z" glyph-name="uni1EE6" horiz-adv-x="1228" unicode="Ủ"/><glyph d="M973 983l-197 -983h-84l35 160h-8q-106 -92 -186 -138.5t-162 -46.5q-236 0 -236 240q0 70 17 133l127 635h83l-124 -623q-16 -68 -17 -127q0 -94 42 -138t132 -44q139 0 348 207l146 725h84zM606 1178l-8 57q139 39 150 113q10 47 -31 71.5t-123 28.5l16 70 q113 -4 173.5 -43t47.5 -117q-14 -74 -73.5 -113.5t-151.5 -66.5z" glyph-name="uni1EE7" horiz-adv-x="1060" unicode="ủ"/><glyph d="M1366 1624l80 31q18 -49 18 -96q0 -111 -72.5 -178.5t-185.5 -86.5l-164 -811q-53 -266 -181 -387t-302 -121q-186 0 -289.5 103.5t-103.5 298.5q0 90 18 174l160 799h88l-158 -791q-20 -80 -20 -166q0 -342 313 -342q137 0 240.5 108.5t150.5 336.5l170 854h19 q109 4 171 55t62 139q0 49 -14 80zM764 1458l-35 49l299 230l49 -72z" glyph-name="uni1EE8" horiz-adv-x="1245" unicode="Ứ"/><glyph d="M1098 1280l76 33q18 -59 18 -113q0 -113 -72.5 -179.5t-156.5 -88.5l-187 -932h-84l35 160h-8q-106 -92 -186 -138.5t-162 -46.5q-236 0 -236 240q0 70 17 133l127 635h83l-124 -623q-16 -68 -17 -127q0 -94 42 -138t132 -44q139 0 348 207l146 725h16q82 4 141.5 60.5 t63.5 148.5q4 41 -12 88zM594 1188l-43 51l323 297l56 -70z" glyph-name="uni1EE9" horiz-adv-x="1083" unicode="ứ"/><glyph d="M1366 1624l80 31q18 -49 18 -96q0 -111 -72.5 -178.5t-185.5 -86.5l-164 -811q-53 -266 -181 -387t-302 -121q-186 0 -289.5 103.5t-103.5 298.5q0 90 18 174l160 799h88l-158 -791q-20 -80 -20 -166q0 -342 313 -342q137 0 240.5 108.5t150.5 336.5l170 854h19 q109 4 171 55t62 139q0 49 -14 80zM831 1438l-237 254l65 57l222 -268z" glyph-name="uni1EEA" horiz-adv-x="1245" unicode="Ừ"/><glyph d="M1098 1280l76 33q18 -59 18 -113q0 -113 -72.5 -179.5t-156.5 -88.5l-187 -932h-84l35 160h-8q-106 -92 -186 -138.5t-162 -46.5q-236 0 -236 240q0 70 17 133l127 635h83l-124 -623q-16 -68 -17 -127q0 -94 42 -138t132 -44q139 0 348 207l146 725h16q82 4 141.5 60.5 t63.5 148.5q4 41 -12 88zM727 1167l-244 330l76 55l223 -344z" glyph-name="uni1EEB" horiz-adv-x="1083" unicode="ừ"/><glyph d="M1366 1624l80 31q18 -49 18 -96q0 -111 -72.5 -178.5t-185.5 -86.5l-164 -811q-53 -266 -181 -387t-302 -121q-186 0 -289.5 103.5t-103.5 298.5q0 90 18 174l160 799h88l-158 -791q-20 -80 -20 -166q0 -342 313 -342q137 0 240.5 108.5t150.5 336.5l170 854h19 q109 4 171 55t62 139q0 49 -14 80zM700 1438l-8 55q139 39 150 111q10 45 -30 69.5t-124 28.5l19 65q111 -4 172 -40.5t49 -110.5q-25 -125 -228 -178z" glyph-name="uni1EEC" horiz-adv-x="1245" unicode="Ử"/><glyph d="M1098 1280l76 33q18 -59 18 -113q0 -113 -72.5 -179.5t-156.5 -88.5l-187 -932h-84l35 160h-8q-106 -92 -186 -138.5t-162 -46.5q-236 0 -236 240q0 70 17 133l127 635h83l-124 -623q-16 -68 -17 -127q0 -94 42 -138t132 -44q139 0 348 207l146 725h16q82 4 141.5 60.5 t63.5 148.5q4 41 -12 88zM606 1178l-8 57q139 39 150 113q10 47 -31 71.5t-123 28.5l16 70q113 -4 173.5 -43t47.5 -117q-14 -74 -73.5 -113.5t-151.5 -66.5z" glyph-name="uni1EED" horiz-adv-x="1083" unicode="ử"/><glyph d="M1366 1624l80 31q18 -49 18 -96q0 -111 -72.5 -178.5t-185.5 -86.5l-164 -811q-53 -266 -181 -387t-302 -121q-186 0 -289.5 103.5t-103.5 298.5q0 90 18 174l160 799h88l-158 -791q-20 -80 -20 -166q0 -342 313 -342q137 0 240.5 108.5t150.5 336.5l170 854h19 q109 4 171 55t62 139q0 49 -14 80zM948 1470q-47 0 -87 26t-62.5 57.5t-55 57t-67.5 25.5q-92 0 -141 -159l-62 6q16 102 74.5 163.5t142.5 61.5q59 0 104.5 -41t84.5 -82t84 -41q88 0 141 160l61 -6q-16 -102 -74.5 -165t-142.5 -63z" glyph-name="uni1EEE" horiz-adv-x="1245" unicode="Ữ"/><glyph d="M1098 1280l76 33q18 -59 18 -113q0 -113 -72.5 -179.5t-156.5 -88.5l-187 -932h-84l35 160h-8q-106 -92 -186 -138.5t-162 -46.5q-236 0 -236 240q0 70 17 133l127 635h83l-124 -623q-16 -68 -17 -127q0 -94 42 -138t132 -44q139 0 348 207l146 725h16q82 4 141.5 60.5 t63.5 148.5q4 41 -12 88zM819 1186q-49 0 -87 31.5t-58.5 68.5t-52 68.5t-70.5 31.5q-96 0 -141 -194l-70 4q29 117 79 187.5t140 70.5q49 0 87 -30.5t58.5 -68.5t52 -69t70.5 -31q100 0 142 193l69 -4q-67 -258 -219 -258z" glyph-name="uni1EEF" horiz-adv-x="1083" unicode="ữ"/><glyph d="M1366 1624l80 31q18 -49 18 -96q0 -111 -72.5 -178.5t-185.5 -86.5l-164 -811q-53 -266 -181 -387t-302 -121q-186 0 -289.5 103.5t-103.5 298.5q0 90 18 174l160 799h88l-158 -791q-20 -80 -20 -166q0 -342 313 -342q137 0 240.5 108.5t150.5 336.5l170 854h19 q109 4 171 55t62 139q0 49 -14 80zM457 -399q-29 0 -49.5 19.5t-20.5 47.5q0 41 25.5 66.5t60.5 25.5q31 0 50.5 -19.5t19.5 -49.5q0 -39 -25.5 -64.5t-60.5 -25.5z" glyph-name="uni1EF0" horiz-adv-x="1245" unicode="Ự"/><glyph d="M1098 1280l76 33q18 -59 18 -113q0 -113 -72.5 -179.5t-156.5 -88.5l-187 -932h-84l35 160h-8q-106 -92 -186 -138.5t-162 -46.5q-236 0 -236 240q0 70 17 133l127 635h83l-124 -623q-16 -68 -17 -127q0 -94 42 -138t132 -44q139 0 348 207l146 725h16q82 4 141.5 60.5 t63.5 148.5q4 41 -12 88zM428 -401q-29 0 -49.5 19.5t-20.5 47.5q0 39 26 65.5t60 26.5q31 0 50.5 -19.5t19.5 -49.5q0 -39 -25.5 -64.5t-60.5 -25.5z" glyph-name="uni1EF1" horiz-adv-x="1083" unicode="ự"/><glyph d="M287 0l110 551l-223 799h90l189 -717h8l489 717h94l-559 -799l-110 -551h-88zM647 1438l-237 254l65 57l221 -268z" glyph-name="Ygrave" horiz-adv-x="886" unicode="Ỳ"/><glyph d="M-63 -449q-45 0 -97 25l33 68q35 -18 70 -19q166 0 301 275l43 84l-166 999h84l141 -891h8l482 891h86l-607 -1104q-80 -152 -167.5 -240t-210.5 -88zM610 1167l-243 330l75 55l224 -344z" glyph-name="ygrave" horiz-adv-x="858" unicode="ỳ"/><glyph d="M287 0l110 551l-223 799h90l189 -717h8l489 717h94l-559 -799l-110 -551h-88zM285 -416q-29 0 -49.5 19.5t-20.5 48.5q0 41 25.5 66.5t60.5 25.5q31 0 50.5 -19.5t19.5 -50.5q0 -39 -25.5 -64.5t-60.5 -25.5z" glyph-name="uni1EF4" horiz-adv-x="886" unicode="Ỵ"/><glyph d="M-63 -449q-45 0 -97 25l33 68q35 -18 70 -19q166 0 301 275l43 84l-166 999h84l141 -891h8l482 891h86l-607 -1104q-80 -152 -167.5 -240t-210.5 -88zM512 -416q-29 0 -49.5 19.5t-20.5 48.5q0 41 27 66.5t59 25.5q31 0 50.5 -19.5t19.5 -50.5q0 -39 -25.5 -64.5 t-60.5 -25.5z" glyph-name="uni1EF5" horiz-adv-x="858" unicode="ỵ"/><glyph d="M287 0l110 551l-223 799h90l189 -717h8l489 717h94l-559 -799l-110 -551h-88zM516 1438l-8 55q139 39 149 111q10 45 -29.5 69.5t-123.5 28.5l18 65q111 -4 172.5 -40.5t48.5 -110.5q-24 -125 -227 -178z" glyph-name="uni1EF6" horiz-adv-x="886" unicode="Ỷ"/><glyph d="M-63 -449q-45 0 -97 25l33 68q35 -18 70 -19q166 0 301 275l43 84l-166 999h84l141 -891h8l482 891h86l-607 -1104q-80 -152 -167.5 -240t-210.5 -88zM489 1178l-8 57q139 39 150 113q10 47 -31 71.5t-123 28.5l17 70q113 -4 173 -43t48 -117q-14 -74 -74 -113.5 t-152 -66.5z" glyph-name="uni1EF7" horiz-adv-x="858" unicode="ỷ"/><glyph d="M287 0l110 551l-223 799h90l189 -717h8l489 717h94l-559 -799l-110 -551h-88zM764 1470q-47 0 -87 26t-62.5 57.5t-55.5 57t-67 25.5q-92 0 -142 -159l-61 6q16 102 74.5 163.5t142.5 61.5q59 0 104 -41t84 -82t84 -41q88 0 142 160l61 -6q-16 -102 -74.5 -165 t-142.5 -63z" glyph-name="uni1EF8" horiz-adv-x="886" unicode="Ỹ"/><glyph d="M-63 -449q-45 0 -97 25l33 68q35 -18 70 -19q166 0 301 275l43 84l-166 999h84l141 -891h8l482 891h86l-607 -1104q-80 -152 -167.5 -240t-210.5 -88zM707 1186q-49 0 -87 31.5t-58.5 68.5t-52.5 68.5t-71 31.5q-96 0 -141 -194l-70 4q63 258 219 258q49 0 87 -30.5 t58.5 -68.5t52.5 -69t71 -31q100 0 141 193l70 -4q-67 -258 -219 -258z" glyph-name="uni1EF9" horiz-adv-x="858" unicode="ỹ"/><glyph glyph-name="uni2007" unicode=" "/><glyph d="M74 479l14 70h786l-20 -70h-780z" glyph-name="figuredash" unicode="‒"/><glyph d="M74 479l14 70h784l-18 -70h-780z" glyph-name="endash" unicode="–"/><glyph d="M74 479l14 70h1413l-16 -70h-1411z" glyph-name="emdash" horiz-adv-x="1572" unicode="—"/><glyph d="M74 479l14 70h1413l-16 -70h-1411z" glyph-name="afii00208" horiz-adv-x="1572" unicode="―"/><glyph d="M463 1432l26 -52q-168 -98 -172 -241h9q76 0 75 -70q0 -37 -21.5 -60.5t-55.5 -23.5q-37 0 -60.5 27.5t-23.5 74.5q0 113 60.5 202.5t162.5 142.5z" glyph-name="quoteleft" horiz-adv-x="436" unicode="‘"/><glyph d="M403 1282h-8q-76 0 -76 70q0 35 23 59.5t57 24.5q37 0 59.5 -28t22.5 -75q0 -113 -60.5 -202t-162.5 -142l-27 51q168 95 172 242z" glyph-name="quoteright" horiz-adv-x="436" unicode="’"/><glyph d="M141 4h-8q-76 0 -76 70q0 35 22.5 59.5t57.5 24.5q37 0 59.5 -28t22.5 -75q0 -113 -60.5 -202t-162.5 -142l-27 51q168 95 172 242z" glyph-name="quotesinglbase" horiz-adv-x="436" unicode="‚"/><glyph d="M463 1432l26 -52q-168 -98 -172 -241h9q76 0 75 -70q0 -37 -21.5 -60.5t-55.5 -23.5q-37 0 -60.5 27.5t-23.5 74.5q0 113 60.5 202.5t162.5 142.5zM737 1432l27 -52q-168 -98 -172 -241h8q76 0 76 -70q0 -37 -21.5 -60.5t-56.5 -23.5q-37 0 -60.5 27.5t-23.5 74.5 q0 113 60.5 202.5t162.5 142.5z" glyph-name="quotedblleft" horiz-adv-x="710" unicode="“"/><glyph d="M403 1282h-8q-76 0 -76 70q0 35 23 59.5t57 24.5q37 0 59.5 -28t22.5 -75q0 -113 -60.5 -202t-162.5 -142l-27 51q168 95 172 242zM678 1282h-8q-76 0 -76 70q0 35 22.5 59.5t57.5 24.5q37 0 59.5 -28t22.5 -75q0 -113 -60.5 -202t-163.5 -142l-26 51q168 95 172 242z " glyph-name="quotedblright" horiz-adv-x="710" unicode="”"/><glyph d="M141 4h-8q-76 0 -76 70q0 35 22.5 59.5t57.5 24.5q37 0 59.5 -28t22.5 -75q0 -113 -60.5 -202t-162.5 -142l-27 51q168 95 172 242zM414 4h-8q-76 0 -76 70q0 35 22.5 59.5t57.5 24.5q37 0 59.5 -28t22.5 -75q0 -113 -60.5 -202t-163.5 -142l-26 51q168 95 172 242z" glyph-name="quotedblbase" horiz-adv-x="446" unicode="„"/><glyph d="M236 -164l247 1233h-254l17 82h254l59 307h82l-59 -307h252l-17 -82h-250l-250 -1233h-81z" glyph-name="dagger" horiz-adv-x="827" unicode="†"/><glyph d="M233 -164l60 307h-248l16 80h248l172 846h-252l17 82h248l61 307h92l-59 -307h246l-17 -82h-246l-172 -846h252l-16 -80h-248l-59 -307h-95z" glyph-name="daggerdbl" horiz-adv-x="827" unicode="‡"/><glyph d="M264 319q-78 0 -128 54.5t-50 140.5q0 98 62.5 174t162.5 76q74 0 125 -55.5t51 -139.5q0 -98 -62.5 -174t-160.5 -76z" glyph-name="bullet" horiz-adv-x="561" unicode="•"/><glyph d="M254 -25q-31 0 -49.5 20.5t-18.5 51.5q0 43 30 76t71 33q63 0 63 -76q0 -43 -27.5 -74t-68.5 -31zM938 -25q-31 0 -49.5 20.5t-18.5 51.5q0 43 30 76t71 33q63 0 63 -76q0 -43 -27.5 -74t-68.5 -31zM1622 -25q-31 0 -49.5 20.5t-18.5 51.5q0 43 30 76t71 33q63 0 63 -76 q0 -43 -27.5 -74t-68.5 -31z" glyph-name="ellipsis" horiz-adv-x="1945" unicode="…"/><glyph d="M1831 -25q-113 0 -173.5 85t-60.5 219q0 125 39 245.5t124 209.5t198 89t173 -84t60 -217q0 -125 -38.5 -246.5t-123.5 -211t-198 -89.5zM1835 39q88 0 154.5 79t96.5 184.5t30 207.5q0 113 -39 181.5t-123 68.5q-88 0 -154.5 -79t-96.5 -183.5t-30 -208.5 q0 -113 39 -181.5t123 -68.5zM368.5 528q-112.5 0 -173 85t-60.5 218q0 125 39 246t124 210t197.5 89t173 -84t60.5 -217q0 -125 -39 -246.5t-124 -211t-197.5 -89.5zM373 592q88 0 154.5 79t96 184.5t29.5 207.5q0 113 -39 181.5t-122 68.5q-88 0 -155 -79t-96.5 -183.5 t-29.5 -208.5q0 -113 39 -181.5t123 -68.5zM1128.5 -25q-112.5 0 -173 85t-60.5 219q0 125 39 245.5t124 209.5t197.5 89t173 -84t60.5 -217q0 -125 -39 -246.5t-124 -211t-197.5 -89.5zM1133 39q88 0 154.5 79t96 184.5t29.5 207.5q0 113 -39 181.5t-123 68.5 q-88 0 -154.5 -79t-96 -183.5t-29.5 -208.5q0 -113 39 -181.5t123 -68.5zM268 -25l1004 1401h74l-1004 -1401h-74z" glyph-name="perthousand" horiz-adv-x="2275" unicode="‰"/><glyph d="M250 985l137 434h80l-47 -149l-111 -285h-59z" glyph-name="minute" horiz-adv-x="436" unicode="′"/><glyph d="M250 985l137 434h80l-47 -149l-111 -285h-59zM524 985l138 434h79l-47 -149l-110 -285h-60z" glyph-name="second" horiz-adv-x="712" unicode="″"/><glyph d="M291 147l-209 336l14 82l324 316l39 -41l-299 -326l180 -336z" glyph-name="guilsinglleft" horiz-adv-x="491" unicode="‹"/><glyph d="M82 147l-39 41l299 326l-182 336l51 31l209 -336l-17 -82z" glyph-name="guilsinglright" horiz-adv-x="491" unicode="›"/><glyph d="M-428 -25l1003 1401h74l-1003 -1401h-74z" glyph-name="fraction" horiz-adv-x="159" unicode="⁄"/><glyph d="M436.5 807q-112.5 0 -173 85t-60.5 218q0 125 39 246t124 210t197.5 89t173 -84t60.5 -217q0 -125 -39 -247t-124 -211t-197.5 -89zM440 870q88 0 155 79t96.5 184.5t29.5 207.5q0 113 -39 181.5t-123 68.5q-88 0 -154.5 -78.5t-96 -183t-29.5 -209.5q0 -113 38.5 -181.5 t122.5 -68.5z" glyph-name="uni2070" horiz-adv-x="708" unicode="⁰"/><glyph d="M328 1630q-23 0 -38.5 14.5t-15.5 38.5q0 29 18.5 48.5t47.5 19.5q23 0 38 -14.5t15 -38.5q0 -29 -18 -48.5t-47 -19.5zM129 831l129 650h70l-127 -650h-72z" glyph-name="uni2071" horiz-adv-x="315" unicode="ⁱ"/><glyph d="M303 1128h266l88 396h-8zM772 1128l-14 -59h-133l-47 -238h-68l47 238h-324l-18 45l459 516h63l-100 -502h135z" glyph-name="uni2074" horiz-adv-x="712" unicode="⁴"/><glyph d="M436 807q-176 0 -266 137l57 41q74 -115 224 -115q80 0 145.5 67t65.5 169q0 86 -46.5 135t-121.5 49q-51 0 -86 -16.5t-84 -52.5l-33 34l106 375h402l-33 -63h-317l-74 -254q59 39 133 39q102 0 164.5 -63.5t62.5 -170.5q0 -137 -89 -224t-210 -87z" glyph-name="uni2075" horiz-adv-x="708" unicode="⁵"/><glyph d="M299 1057q0 -61 33 -109q51 -78 149 -78q74 0 130.5 64.5t56.5 161.5q0 76 -42 121t-114 45q-84 0 -147.5 -59.5t-65.5 -145.5zM807 1597l-47 -53q-59 47 -142 47q-113 0 -204.5 -102.5t-110.5 -280.5q84 113 219 113q100 0 158.5 -60.5t58.5 -152.5q0 -137 -79.5 -219 t-184 -82t-177.5 83t-73 222q0 252 118 397.5t282 145.5q106 -1 182 -58z" glyph-name="uni2076" horiz-adv-x="712" unicode="⁶"/><glyph d="M412 831h-82q111 430 405 736h-426l15 63h512l-7 -45q-184 -180 -278 -361.5t-139 -392.5z" glyph-name="uni2077" horiz-adv-x="708" unicode="⁷"/><glyph d="M436 807q-100 0 -166.5 58.5t-66.5 150.5q0 90 59 153q47 53 123 84l2 9q-68 47 -68 170q0 98 72 160.5t176 62.5q92 0 150.5 -54.5t58.5 -140.5q-6 -96 -61 -153t-101 -70v-8q102 -61 103 -180q0 -106 -80 -174t-201 -68zM524 1270q59 0 113.5 42t67.5 115 q14 166 -144 166q-74 0 -122 -44t-48 -124q0 -70 36 -111.5t97 -43.5zM442 866q80 0 140.5 48.5t60.5 123.5q0 106 -86 152q-55 29 -125 14q-68 -12 -112 -63t-44 -107q0 -78 47 -123t119 -45z" glyph-name="uni2078" horiz-adv-x="712" unicode="⁸"/><glyph d="M694 1382q0 117 -56 163t-126 46q-74 0 -130 -64.5t-56 -160.5q0 -76 42 -121t113 -45q84 0 147.5 53t65.5 129zM186 864l47 54q59 -47 142 -48q109 -6 203 101.5t108 269.5q-70 -100 -215 -100q-100 0 -158.5 60.5t-58.5 152.5q0 137 80 219t184.5 82t177 -83t72.5 -222 q0 -252 -118 -397.5t-281 -145.5q-107 0 -183 57z" glyph-name="uni2079" horiz-adv-x="712" unicode="⁹"/><glyph d="M383 709l-51 -29q-82 166 -82 385q0 199 70.5 363.5t226.5 343.5l45 -33q-272 -319 -273 -678q1 -219 64 -352z" glyph-name="uni207D" horiz-adv-x="430" unicode="⁽"/><glyph d="M170 680l-45 33q272 319 272 678q0 217 -63 350l51 31q82 -166 82 -386q0 -199 -69.5 -363.5t-227.5 -342.5z" glyph-name="uni207E" horiz-adv-x="430" unicode="⁾"/><glyph d="M129 831l129 650h66l-19 -97h8q135 113 234 113q152 0 151 -162q0 -29 -12 -86l-82 -418h-69l79 408q12 51 13 80q0 115 -97 115q-100 0 -237 -136l-92 -467h-72z" glyph-name="uni207F" horiz-adv-x="706" unicode="ⁿ"/><glyph d="M206.5 -371q-112.5 0 -173 85t-60.5 218q0 125 39 246t124 210t197.5 89t173 -84t60.5 -217q0 -125 -39 -247t-124 -211t-197.5 -89zM211 -307q88 0 154.5 78.5t96.5 184t30 208.5q0 113 -39 181.5t-123 68.5q-88 0 -154.5 -79t-96.5 -183.5t-30 -208.5q0 -113 39 -181.5 t123 -68.5z" glyph-name="uni2080" horiz-adv-x="708" unicode="₀"/><glyph d="M-94 -346l16 74h232l116 628l-217 -94l-30 57l282 134h70l-137 -725h219l-13 -74h-538z" glyph-name="uni2081" horiz-adv-x="704" unicode="₁"/><glyph d="M-55 -346l10 39q29 102 178 196q166 104 211 146q115 102 115 229q0 147 -152 148q-100 0 -188 -88l-45 53q115 100 241 100q102 0 161 -55t59 -150q0 -139 -117 -256q-61 -61 -209 -151t-164 -148h418l-10 -63h-508z" glyph-name="uni2082" horiz-adv-x="708" unicode="₂"/><glyph d="M520 387l-264 -268v-2q102 -20 161.5 -87t59.5 -153q0 -115 -80 -181.5t-196 -66.5q-88 0 -157 47.5t-103 116.5l57 37q70 -137 205 -137q84 0 141 46t57 128q0 76 -60 136t-175 60l14 66l256 258v4h-323l20 62h408z" glyph-name="uni2083" horiz-adv-x="708" unicode="₃"/><glyph d="M74 -49h266l88 395h-8zM543 -49l-15 -60h-133l-47 -237h-67l47 237h-324l-18 46l458 516h64l-100 -502h135z" glyph-name="uni2084" horiz-adv-x="712" unicode="₄"/><glyph d="M207 -371q-176 0 -266 138l57 40q74 -115 223 -114q80 0 145.5 66.5t65.5 168.5q0 86 -46 135.5t-122 49.5q-51 0 -86 -16.5t-84 -53.5l-33 35l107 375h401l-32 -64h-318l-74 -254q59 39 134 39q102 0 164.5 -62.5t62.5 -170.5q0 -137 -89 -224.5t-210 -87.5z" glyph-name="uni2085" horiz-adv-x="708" unicode="₅"/><glyph d="M70 -121q0 -61 32 -108q51 -78 150 -78q74 0 130 64.5t56 160.5q0 76 -42 121t-113 45q-84 0 -147.5 -59.5t-65.5 -145.5zM578 420l-48 -53q-59 47 -141 47q-113 0 -205 -102.5t-110 -280.5q84 113 219 112q100 0 158.5 -60t58.5 -153q0 -137 -80 -219t-184.5 -82 t-177 83t-72.5 222q0 252 117.5 397.5t281.5 145.5q107 0 183 -57z" glyph-name="uni2086" horiz-adv-x="712" unicode="₆"/><glyph d="M182 -346h-82q111 430 406 735h-426l14 64h512l-6 -45q-184 -180 -278.5 -361.5t-139.5 -392.5z" glyph-name="uni2087" horiz-adv-x="708" unicode="₇"/><glyph d="M207 -371q-100 0 -167 58.5t-67 150.5q0 86 60 156q53 53 123 82l2 8q-68 47 -68 170q0 98 71.5 160.5t176.5 62.5q92 0 150.5 -54t58.5 -140q-6 -94 -62 -154q-55 -57 -100 -70v-8q102 -61 102 -180q0 -106 -79.5 -174t-200.5 -68zM295 92q59 0 113.5 42t66.5 116 q14 166 -143 166q-74 0 -122 -44t-48 -124q0 -70 36 -112t97 -44zM213 -311q80 0 140.5 48t60.5 124q0 106 -86 151q-55 29 -125 15q-68 -12 -112 -63.5t-44 -106.5q0 -78 47 -123t119 -45z" glyph-name="uni2088" horiz-adv-x="712" unicode="₈"/><glyph d="M465 205q0 117 -56.5 163t-125.5 46q-74 0 -130.5 -64.5t-56.5 -161.5q0 -76 42 -120.5t114 -44.5q84 0 147.5 53t65.5 129zM-43 -313l47 53q59 -47 141 -47q109 -6 203 101.5t109 268.5q-70 -100 -215 -100q-100 0 -158.5 60.5t-58.5 152.5q0 137 79.5 219t184 82 t177.5 -83t73 -222q0 -252 -118 -397.5t-282 -145.5q-106 1 -182 58z" glyph-name="uni2089" horiz-adv-x="712" unicode="₉"/><glyph d="M154 -469l-52 -29q-82 166 -82 385q0 199 71 364t226 343l45 -33q-272 -319 -272 -678q1 -219 64 -352z" glyph-name="uni208D" horiz-adv-x="430" unicode="₍"/><glyph d="M-59 -498l-45 33q272 319 272 678q0 217 -64 350l52 31q82 -166 82 -385q0 -199 -69.5 -364t-227.5 -343z" glyph-name="uni208E" horiz-adv-x="430" unicode="₎"/><glyph d="M666 1229q0 -176 -106.5 -295t-233.5 -119q-109 0 -160 65.5t-51 166.5q0 80 20 135h457q14 127 -32 191.5t-138 64.5q-80 0 -166 -54l-25 56q102 57 201 57q109 0 171.5 -69.5t62.5 -198.5zM580 1122h-392q-8 -31 -8 -84q0 -162 152 -161q78 0 150.5 69.5t97.5 175.5z " glyph-name="uni2094" horiz-adv-x="643" unicode="ₔ"/><glyph d="M446 55l369 1180q-45 27 -108 27h-21l-356 -1143q48 -50 116 -64zM287 170l338 1081q-172 -45 -291 -262t-119 -518q0 -186 72 -301zM967 1536l-80 -256q70 -53 114 -145l-65 -41q-33 66 -74 106l-358 -1151h2q141 0 276 131l47 -55q-150 -150 -335 -150h-13l-63 -200 h-60l66 207q-68 14 -121 51l-80 -258h-59l94 299q-125 131 -125 385q0 352 150.5 592.5t367.5 279.5l64 205h57l-63 -201h4q68 0 125 -26l71 227h58z" glyph-name="colonmonetary" unicode="₡"/><glyph d="M158 774h153q-6 68 -6 127q0 201 105.5 317.5t277.5 116.5q160 0 266 -118l-65 -62q-88 106 -207 107q-129 0 -212 -98.5t-83 -256.5q0 -68 8 -131h350l-14 -61h-332q8 -63 9 -142h294l-14 -61h-282q-14 -258 -209 -428v-8h559l-13 -76h-729l11 49q139 74 214.5 195 t84.5 268h-224l19 61h207q-4 96 -11 142h-172z" glyph-name="lira" unicode="₤"/><glyph d="M690 563l31 150h-195l25 -150h139zM616 131l64 375h-121l8 -45l41 -330h8zM272 563h205l-22 150h-154zM385 1174l-74 -406h135l-12 78l-45 328h-4zM934 713h-141l-31 -150h145l-14 -57h-143l-103 -506h-84l-78 506h-225l-100 -506h-76l102 506h-157l16 57h152l30 150 h-157l16 55h154l108 543h80l88 -543h215l107 543h75l-110 -543h145z" glyph-name="uni20A6" unicode="₦"/><glyph d="M293 618h69q371 0 429 289h-441zM483 1243h-67l-54 -268h437v31q0 127 -78 182t-238 55zM1006 975l-15 -68h-121q-37 -176 -170 -267t-331 -91h-93l-108 -549h-86l182 907h-160l13 68h159l68 336h180q166 0 261.5 -74t95.5 -217q0 -31 -2 -45h127z" glyph-name="peseta" unicode="₧"/><glyph d="M72 0l14 63h659l-14 -63h-659zM678 420l72 364q-61 119 -170 119q-127 0 -234.5 -120.5t-107.5 -282.5q0 -211 165 -211q125 0 275 131zM1077 1219l-14 -64h-160l-184 -915h-78l25 100h-4q-139 -121 -273 -121q-109 0 -170 73t-61 191q0 203 131 344.5t293 141.5 q123 0 180 -111l61 297h-268l14 64h269l28 135l84 30l-32 -165h159z" glyph-name="dong" unicode="₫"/><glyph d="M102 793h113q68 242 213 392t320 150q178 0 280 -141l-67 -45q-86 113 -222 113q-141 0 -262 -130.5t-178 -336.5h561l-14 -60h-561q-18 -80 -25 -164h477l-14 -59h-465q-4 -219 74 -341t215 -122q172 0 274 90l49 -59q-119 -104 -333 -105q-174 0 -271.5 139.5 t-91.5 397.5h-127l14 59h115q6 84 25 164h-111z" glyph-name="Euro" unicode="€"/><glyph d="M799 1006v10h-428l-29 -142h440q17 66 17 132zM291 616h71q305 0 400 201h-430zM483 1243h-67l-35 -170h412q-38 170 -310 170zM1012 1016h-131q0 -78 -19 -142h121l-12 -57h-127q-53 -133 -180 -201.5t-297 -68.5h-91l-108 -547h-86l164 817h-158l10 57h158l29 142h-158 l10 57h160l47 238h180q147 0 241.5 -59.5t111.5 -178.5h147z" glyph-name="uni20B1" unicode="₱"/><glyph d="M1004 1184l-68 -47q-86 125 -221 125q-207 0 -364.5 -227.5t-157.5 -563.5q0 -195 75.5 -308.5t210.5 -113.5q150 0 242 109l94 456l88 56l-106 -543q-129 -143 -314 -152l-39 -200h-73l41 205q-145 23 -225.5 149.5t-80.5 329.5q0 362 168 606t404 268l43 203h72 l-41 -203q156 -12 252 -149z" glyph-name="uni20B2" unicode="₲"/><glyph d="M446 55l242 1207q-190 -12 -330.5 -236.5t-140.5 -554.5q0 -172 59 -281.5t170 -134.5zM813 1534l-41 -205q78 -14 127 -44t98 -93l-65 -57q-76 100 -174 122l-242 -1208q156 8 264 86l47 -63q-139 -94 -325 -97l-41 -200h-70l41 205q-141 25 -220 152.5t-79 326.5 q0 377 169 622.5t403 253.5l38 199h70z" glyph-name="uni20B5" unicode="₵"/><glyph d="M1030 1311l-18 -64h-301q119 -57 129 -205h135l-14 -63h-123q-16 -156 -123 -257t-262 -132l239 -590h-94l-229 578q-16 -2 -54 -3h-159l16 74h113q199 0 325.5 85t139.5 245h-517l17 63h500q-20 195 -326 195h-135l14 74h727z" glyph-name="uni20B9" unicode="₹"/><glyph d="M381 629l-113 -568q227 4 383 134.5t156 349.5l80 24q4 -145 -51.5 -259.5t-155.5 -185.5t-230.5 -109t-285.5 -40l125 621l-221 -90l14 69l221 91l35 172l-221 -90l14 69l223 90l80 404h84l-74 -371l392 160l-15 -70l-393 -160l-33 -172l389 160l-14 -70z" glyph-name="uni20BA" unicode="₺"/><glyph d="M410 1081l-109 -542q188 164 312 356t124 342q0 166 -108 166q-61 0 -123.5 -84t-95.5 -238zM279 428l-7 -35q-74 -342 134 -342q16 0 33.5 3t29.5 5t30.5 10.5t27 11.5t28.5 15.5t23.5 14.5t27.5 16l23 16l30 -55q-141 -113 -268 -113q-123 0 -185.5 96.5t-27.5 262.5 l4 24q-96 -63 -137 -86l-22 68q88 45 180 119l119 596q43 215 126.5 317.5t188.5 102.5q84 0 131 -61.5t47 -162.5q0 -186 -151.5 -413.5t-384.5 -409.5z" glyph-name="afii61289" horiz-adv-x="737" unicode="ℓ"/><glyph d="M610 -25q-236 0 -383 158t-147 410q0 197 87 376t258 297.5t384 118.5q236 0 383 -156.5t147 -408.5q0 -197 -88 -377t-259 -299t-382 -119zM614 35q193 0 348.5 111.5t235.5 276.5t80 339q0 233 -129 374.5t-344 141.5q-193 0 -348.5 -111.5t-235.5 -276.5t-80 -339 q0 -233 129 -374.5t344 -141.5zM420 279l147 743h240q104 0 167.5 -51t63.5 -142q0 -137 -94 -212.5t-233 -75.5h-166l-51 -262h-74zM559 604h152q117 0 185.5 56.5t68.5 154.5q0 68 -46.5 104.5t-132.5 36.5h-159z" glyph-name="uni2117" horiz-adv-x="1353" unicode="℗"/><glyph d="M301 731q-133 0 -203 70l54 53q59 -59 153 -59q61 0 106.5 34.5t45.5 88.5q0 55 -66 94l-88 55q-90 59 -90 137q0 86 60.5 139.5t154.5 53.5q88 0 168 -60l-51 -53q-66 49 -123 49t-96 -33.5t-39 -72.5q0 -68 65 -103l88 -53q88 -55 88 -139t-62.5 -142.5t-164.5 -58.5z M629 756l127 628h100l80 -413h8l248 413h102l-127 -628h-71l98 510h-8l-240 -412h-57l-78 412h-8l-103 -510h-71z" glyph-name="uni2120" horiz-adv-x="1181" unicode="℠"/><glyph d="M266 756l111 561h-215l14 67h500l-14 -67h-211l-113 -561h-72zM649 756l127 628h101l77 -426h9l249 426h103l-127 -628h-72l107 524h-9l-247 -426h-58l-84 426h-8l-96 -524h-72z" glyph-name="trademark" horiz-adv-x="1202" unicode="™"/><glyph d="M-12 0l12 74h293v8q-164 193 -164 467q0 352 197.5 588.5t488.5 236.5q203 0 317.5 -138t114.5 -364q0 -463 -395 -790l-4 -8h272l-12 -74h-422l14 57q195 123 326 326t131 479q0 197 -93 316.5t-261 119.5q-248 0 -417 -215t-169 -532q0 -164 56.5 -292t142.5 -202 l-10 -57h-418z" glyph-name="uni2126" horiz-adv-x="1300" unicode="Ω"/><glyph d="M410 684h901q12 0 12 12v377q0 25 -20 45q-182 193 -439 193q-260 0 -446 -201q-16 -29 -17 -45v-369q1 -12 9 -12zM1331 246h107q-106 -127 -256 -199t-322 -72q-303 0 -514 201t-211 487.5t211 487.5t514 201q299 0 512 -202t213 -486v-17h-1175q-8 0 -9 -8v-377 q0 -12 17 -41q178 -205 446 -205q279 1 467 230z" glyph-name="estimated" horiz-adv-x="1638" unicode="℮"/><glyph d="M25 553l16 74h231l117 628l-217 -94l-31 58l283 133h70l-138 -725h219l-12 -74h-538zM188 -25l1004 1401h74l-1004 -1401h-74zM1423 733l-264 -268v-2q102 -20 161.5 -87t59.5 -153q0 -115 -79.5 -181.5t-196.5 -66.5q-88 0 -156.5 47.5t-103.5 116.5l57 37 q70 -137 205 -137q84 0 141.5 46t57.5 128q0 76 -60.5 136.5t-175.5 60.5l14 65l256 258v4h-323l20 62h408z" glyph-name="onethird" horiz-adv-x="1554" unicode="⅓"/><glyph d="M109 553l10 39q29 100 178 196q166 104 211 146q115 102 115 229q0 147 -152 148q-100 0 -188 -88l-45 53q115 100 241 100q102 0 160.5 -55t58.5 -150q0 -139 -116 -256q-61 -61 -209 -151t-164 -148h418l-11 -63h-507zM291 -25l1003 1401h74l-1003 -1401h-74zM1462 733 l-264 -268v-2q102 -20 161.5 -87t59.5 -153q0 -115 -79.5 -181.5t-196.5 -66.5q-88 0 -156.5 47.5t-103.5 116.5l57 37q70 -137 205 -137q84 0 141 46t57 128q0 76 -60 136.5t-175 60.5l14 65l256 258v4h-323l20 62h408z" glyph-name="twothirds" horiz-adv-x="1593" unicode="⅔"/><glyph d="M25 553l16 74h231l117 628l-217 -94l-31 58l283 133h70l-138 -725h219l-12 -74h-538zM186 -25l1004 1401h74l-1004 -1401h-74zM1092 -25q-100 0 -167 58.5t-67 150.5q0 90 60 154q47 53 122 84l2 8q-68 47 -67 170q0 98 71.5 160.5t176.5 62.5q92 0 150.5 -54t58.5 -140 q-6 -96 -62 -154q-55 -57 -100 -69v-9q102 -61 102 -180q0 -106 -79.5 -174t-200.5 -68zM1180 438q59 0 113.5 42t66.5 116q14 166 -143 166q-74 0 -122 -44t-48 -124q0 -70 36 -112t97 -44zM1098 35q80 0 140 48t60 124q0 106 -86 151q-55 29 -125 15q-68 -12 -111.5 -63.5 t-43.5 -106.5q0 -78 47 -123t119 -45z" glyph-name="oneeighth" horiz-adv-x="1536" unicode="⅛"/><glyph d="M680 1286l-264 -268v-2q102 -20 161.5 -87t59.5 -153q0 -115 -80 -181.5t-197 -66.5q-88 0 -156.5 47.5t-103.5 116.5l58 37q70 -137 204 -137q84 0 141.5 46t57.5 128q0 76 -60.5 136.5t-174.5 60.5l14 65l256 258v4h-324l21 62h407zM287 -25l1003 1401h74l-1004 -1401 h-73zM1128 -25q-100 0 -166.5 58.5t-66.5 150.5q0 90 59 154q47 53 123 84l2 8q-68 47 -67 170q0 98 71.5 160.5t176.5 62.5q92 0 150 -54t58 -140q-6 -96 -61 -154q-55 -57 -100 -69v-9q102 -61 102 -180q0 -106 -80 -174t-201 -68zM1217 438q59 0 113 42t67 116 q14 166 -144 166q-74 0 -122 -44t-48 -124q0 -70 36.5 -112t97.5 -44zM1135 35q80 0 140 48t60 124q0 106 -86 151q-55 29 -125 15q-68 -12 -111.5 -63.5t-43.5 -106.5q0 -78 47 -123t119 -45z" glyph-name="threeeighths" horiz-adv-x="1576" unicode="⅜"/><glyph d="M369 528q-176 0 -267 138l58 41q74 -115 223 -115q80 0 145.5 66.5t65.5 168.5q0 86 -46 135.5t-122 49.5q-51 0 -86 -16.5t-84 -53.5l-33 35l107 375h401l-33 -64h-317l-74 -254q59 39 133 39q100 0 164 -63.5t64 -169.5q0 -137 -89 -224.5t-210 -87.5zM287 -25 l1003 1401h74l-1004 -1401h-73zM1128 -25q-100 0 -166.5 58.5t-66.5 150.5q0 90 59 154q47 53 123 84l2 8q-68 47 -67 170q0 98 71.5 160.5t176.5 62.5q92 0 150 -54t58 -140q-6 -96 -61 -154q-55 -57 -100 -69v-9q102 -61 102 -180q0 -106 -80 -174t-201 -68zM1217 438 q59 0 113 42t67 116q14 166 -144 166q-74 0 -122 -44t-48 -124q0 -70 36.5 -112t97.5 -44zM1135 35q80 0 140 48t60 124q0 106 -86 151q-55 29 -125 15q-68 -12 -111.5 -63.5t-43.5 -106.5q0 -78 47 -123t119 -45z" glyph-name="fiveeighths" horiz-adv-x="1576" unicode="⅝"/><glyph d="M305 553h-82q111 430 406 735h-426l14 64h512l-6 -45q-184 -180 -278.5 -361.5t-139.5 -392.5zM186 -25l1004 1401h74l-1004 -1401h-74zM1090 -25q-100 0 -167 58.5t-67 150.5q0 90 59 154q47 53 123 84l2 8q-68 47 -67 170q0 98 71.5 160.5t176.5 62.5q92 0 150.5 -54 t58.5 -140q-6 -96 -62 -154q-55 -57 -100 -69v-9q102 -61 102 -180q0 -106 -79.5 -174t-200.5 -68zM1178 438q59 0 113.5 42t66.5 116q14 166 -144 166q-74 0 -122 -44t-48 -124q0 -70 36.5 -112t97.5 -44zM1096 35q80 0 140 48t60 124q0 106 -86 151q-55 29 -125 15 q-68 -12 -111.5 -63.5t-43.5 -106.5q0 -78 47 -123t119 -45z" glyph-name="seveneighths" horiz-adv-x="1538" unicode="⅞"/><glyph d="M573 -31l-530 537v12l530 539l48 -51l-455 -457h1008v-74h-1008l455 -457z" glyph-name="arrowleft" horiz-adv-x="1216" unicode="←"/><glyph d="M571 -53v1007l-456 -454l-52 47l539 530h12l537 -530l-49 -47l-457 454v-1007h-74z" glyph-name="arrowup" horiz-adv-x="1216" unicode="↑"/><glyph d="M643 -31l-47 49l453 457h-1006v74h1006l-453 457l47 51l531 -539v-12z" glyph-name="arrowright" horiz-adv-x="1216" unicode="→"/><glyph d="M602 -53l-539 530l52 47l456 -452v1005h74v-1005l457 452l49 -47l-537 -530h-12z" glyph-name="arrowdown" horiz-adv-x="1216" unicode="↓"/><glyph d="M360 49q143 0 263 135t194 346q-61 98 -135 153.5t-180 55.5q-166 0 -273.5 -134t-107.5 -308q4 -102 68.5 -175t170.5 -73zM406 1198l-39 55q129 111 266 111q168 0 252 -110.5t84 -307.5q0 -233 -80 -456.5t-224.5 -369t-312.5 -145.5q-137 0 -225 87.5t-88 228.5 q0 201 132 361.5t333 160.5q205 0 338 -201q43 172 43 322q0 166 -64.5 261t-195.5 95q-108 0 -219 -92z" glyph-name="partialdiff" horiz-adv-x="1011" unicode="∂"/><glyph d="M-53 0l12 49l715 1301h96l164 -1301l-10 -49h-977zM698 1247l-632 -1171h774l-133 1171h-9z" glyph-name="uni2206" horiz-adv-x="1099" unicode="∆"/><glyph d="M209 -246v1555h905v-1555h-86v1479h-735v-1479h-84z" glyph-name="product" horiz-adv-x="1282" unicode="∏"/><glyph d="M63 -246v68l506 727l-485 694v66h834v-74h-738l2 -8l480 -690l-492 -699l2 -8h805v-76h-914z" glyph-name="summation" horiz-adv-x="962" unicode="∑"/><glyph d="M98 643v70h807v-70h-807z" glyph-name="minus" unicode="−"/><glyph d="M-428 -25l1003 1401h74l-1003 -1401h-74z" glyph-name="uni2215" horiz-adv-x="159" unicode="∕"/><glyph d="M233 586q-31 0 -49 20.5t-18 50.5q0 43 29.5 76t70.5 33q63 0 64 -76q0 -43 -28 -73.5t-69 -30.5z" glyph-name="uni2219" horiz-adv-x="446" unicode="∙"/><glyph d="M418 -215l-117 899l-156 -66l-10 64l236 106l90 -780l6 -102h8l39 102l705 1671h81l-808 -1894h-74z" glyph-name="radical" horiz-adv-x="1064" unicode="√"/><glyph d="M1079 350q-117 0 -208 63.5t-187 188.5h-8q-39 -51 -62.5 -77.5t-68.5 -67.5t-97.5 -60.5t-111.5 -19.5q-119 0 -202 86t-83 213q0 133 86 216t211 83q57 0 109.5 -20.5t97.5 -61.5t70.5 -69.5t62.5 -78.5h8q94 123 180.5 191t198.5 68q143 0 232.5 -89.5t89.5 -234.5 q0 -141 -89.5 -235.5t-228.5 -94.5zM346 444q154 0 299 228q-80 111 -150.5 168t-150.5 57q-94 0 -156.5 -59.5t-62.5 -161.5q0 -98 66.5 -165t154.5 -67zM1083 432q109 0 173.5 69.5t64.5 176.5q0 113 -67.5 185.5t-182.5 72.5q-164 0 -342 -256q94 -131 178 -189.5 t176 -58.5z" glyph-name="infinity" horiz-adv-x="1503" unicode="∞"/><glyph d="M31 -324q-55 0 -78 13l20 67q23 -8 66 -8q86 0 133 93t84 284q27 137 60.5 518t64.5 526q43 217 107.5 331t191.5 114q57 0 80 -12l-21 -68q-18 8 -67 8q-147 0 -213 -377q-31 -152 -65 -528.5t-60 -513.5q-49 -223 -112.5 -335t-190.5 -112z" glyph-name="integral" horiz-adv-x="593" unicode="∫"/><glyph d="M668 756q-61 0 -127 46t-124.5 92t-103.5 46q-88 0 -157 -129l-56 33q84 166 215 166q61 0 127 -46t124.5 -92.5t103.5 -46.5q88 0 157 129l56 -32q-84 -166 -215 -166zM668 344q-61 0 -127 46t-124.5 92t-103.5 46q-88 0 -157 -129l-56 33q84 166 215 166q61 0 127 -46 t124.5 -92t103.5 -46q88 0 157 129l56 -33q-84 -166 -215 -166z" glyph-name="approxequal" unicode="≈"/><glyph d="M156 170l166 264h-224v70h260l211 344h-471v70h508l166 264h76l-166 -264h223v-70h-260l-211 -344h471v-70h-508l-166 -264h-75z" glyph-name="notequal" unicode="≠"/><glyph d="M905 319l-811 324v78l811 323v-77l-454 -183l-254 -98v-8l254 -98l454 -183v-78zM98 0v72h807v-72h-807z" glyph-name="lessequal" unicode="≤"/><glyph d="M98 319v78l457 183l252 98v8l-252 98l-457 183v77l811 -323v-78zM98 0v72h807v-72h-807z" glyph-name="greaterequal" unicode="≥"/><glyph d="M92 0l281 1409h311l-10 -57h-244l-268 -1352h-70z" glyph-name="uni231C" horiz-adv-x="552" unicode="⌜"/><glyph d="M182 0l273 1352h-244l10 57h314l-287 -1409h-66z" glyph-name="uni231D" horiz-adv-x="552" unicode="⌝"/><glyph d="M72 -100l286 1409h66l-272 -1352h243l-10 -57h-313z" glyph-name="uni231E" horiz-adv-x="552" unicode="⌞"/><glyph d="M-78 -100l10 57h244l268 1352h70l-281 -1409h-311z" glyph-name="uni231F" horiz-adv-x="552" unicode="⌟"/><glyph d="M133 -123v1671h1671v-1671h-1671z" glyph-name="filledbox" horiz-adv-x="1855" unicode="■"/><glyph d="M152 -123v4l813 1708h8l813 -1708v-4h-1634z" glyph-name="triagup" horiz-adv-x="1855" unicode="▲"/><glyph d="M152 -123v4l813 1708h8l813 -1708v-4h-1634zM272 -49h1393l-696 1479z" glyph-name="uni25B3" horiz-adv-x="1855" unicode="△"/><glyph d="M133 -104v1634h4l1708 -813v-8l-1708 -813h-4z" glyph-name="uni25B6" horiz-adv-x="1855" unicode="▶"/><glyph d="M133 -104v1634h4l1708 -813v-8l-1708 -813h-4zM211 16l1475 697l-1475 696v-1393z" glyph-name="uni25B7" horiz-adv-x="1855" unicode="▷"/><glyph d="M1786 1548v-4l-813 -1708h-8l-813 1708v4h1634z" glyph-name="triagdn" horiz-adv-x="1855" unicode="▼"/><glyph d="M1786 1548v-4l-813 -1708h-8l-813 1708v4h1634zM1665 1475h-1393l697 -1479z" glyph-name="uni25BD" horiz-adv-x="1855" unicode="▽"/><glyph d="M1804 1530v-1634h-4l-1708 813v8l1708 813h4z" glyph-name="uni25C0" horiz-adv-x="1855" unicode="◀"/><glyph d="M1804 1530v-1634h-4l-1708 813v8l1708 813h4zM1726 1409l-1474 -696l1474 -697v1393z" glyph-name="uni25C1" horiz-adv-x="1855" unicode="◁"/><glyph d="M969 -164l-877 877l877 876l876 -876z" glyph-name="uni25C6" horiz-adv-x="1855" unicode="◆"/><glyph d="M968.5 -154q-231.5 0 -424 99.5t-313 300t-120.5 467.5q0 262 120.5 462.5t314 302t423.5 101.5q170 0 325.5 -60.5t273.5 -169t187.5 -274.5t69.5 -362q0 -266 -120 -467t-312.5 -300.5t-424 -99.5zM969 -78q150 0 286 52.5t245.5 148.5t174 249.5t64.5 340t-64.5 340 t-174 250t-246 148.5t-285.5 52q-147 0 -283.5 -52t-246 -148.5t-175 -250t-65.5 -340t65.5 -340t175 -249.5t246 -148.5t283.5 -52.5zM968.5 133q-233.5 0 -401.5 160t-168 420q0 258 168 418.5t402 160.5q231 0 399 -160.5t168 -418.5q0 -260 -167 -420t-400.5 -160z" glyph-name="uni25C9" horiz-adv-x="1855" unicode="◉"/><glyph d="M475 -20l-325 696l325 696h96l326 -696l-326 -696h-96zM518 51h8l285 625l-285 624h-8l-282 -624z" glyph-name="lozenge" horiz-adv-x="987" unicode="◊"/><glyph d="M143 -20v1298l109 94h1161v-1284l-88 -108h-1182zM211 47h1073v1186h-1073v-1186z" glyph-name="uni2610" horiz-adv-x="1556" unicode="☐"/><glyph d="M211 47h1073v1147q-444 -479 -663 -977l-105 -10q-39 307 -158 584l72 36q111 -276 143 -536h9q203 457 639 942h-1010v-1186zM1597 1602l54 -60q-125 -102 -238 -215v-1239l-88 -108h-1182v1298l109 94h1100q69 72 245 230z" glyph-name="uni2611" horiz-adv-x="1560" unicode="☑"/><glyph d="M272 -43q-80 0 -132 38t-52 101q0 90 82 156.5t213 66.5q70 0 125 -24v1126h59q8 -41 29.5 -68.5t97.5 -88.5q127 -96 174 -185.5t47 -220.5q0 -100 -47 -233l-43 14q25 78 25 178q0 115 -72.5 203t-195.5 127v-893q0 -141 -93.5 -219t-216.5 -78z" glyph-name="musicalnote" horiz-adv-x="937" unicode="♪"/><glyph d="M246 -31l-105 -10q-47 342 -170 608l72 37q123 -287 156 -561h8q158 358 443.5 725t600.5 623l52 -60q-319 -252 -605 -614.5t-452 -747.5z" glyph-name="uni2713" horiz-adv-x="1083" unicode="✓"/><glyph d="M133 -123v1577l113 94h1558v-1556l-94 -115h-1577zM199 -59h1466v1468h-1466v-1468z" glyph-name="uni2752" horiz-adv-x="1855" unicode="❒"/><glyph d="M207 569l176 881h313l-10 -57h-244l-166 -824h-69z" glyph-name="uni2E22" horiz-adv-x="552" unicode="⸢"/><glyph d="M301 569l162 824h-244l10 57h314l-176 -881h-66z" glyph-name="uni2E23" horiz-adv-x="552" unicode="⸣"/><glyph d="M31 -311l176 880h65l-161 -823h243l-10 -57h-313z" glyph-name="uni2E24" horiz-adv-x="552" unicode="⸤"/><glyph d="M-123 -311l10 57h246l164 823h70l-177 -880h-313z" glyph-name="uni2E25" horiz-adv-x="552" unicode="⸥"/><glyph d="M150 909l14 74h129l45 225q59 289 270 289q78 0 154 -45l-37 -63q-57 35 -117 34q-70 0 -118 -59t-68 -156l-45 -225h217l-16 -74h-218l-180 -909h-84l180 909h-126zM606 0l199 983h84l-197 -983h-86zM899 1221q-29 0 -48.5 19.5t-19.5 47.5q0 41 25 66.5t62 25.5 q29 0 48 -18.5t19 -50.5q0 -39 -25.5 -64.5t-60.5 -25.5z" glyph-name="uniFB01" horiz-adv-x="974" unicode="ﬁ"/><glyph d="M150 909l14 74h129l45 225q59 289 270 289q78 0 154 -45l-37 -63q-57 35 -117 34q-70 0 -118 -59t-68 -156l-45 -225h217l-16 -74h-218l-180 -909h-84l180 909h-126zM692 0h-86l271 1354l92 35z" glyph-name="uniFB02" horiz-adv-x="999" unicode="ﬂ"/><glyph glyph-name="uniFEFF" horiz-adv-x="0" unicode="﻿"/><glyph d="M596 -25q-233 0 -355 144.5t-122 388.5q0 211 80 405.5t244.5 327.5t379.5 133q203 0 318 -125l-62 -57q-106 106 -262 106q-182 0 -326.5 -124.5t-214 -300t-69.5 -353.5q0 -209 97 -339t302 -130q164 0 277 103l90 460l96 45l-113 -548q-159 -136 -360 -136zM977 1470 q-47 0 -87 26t-62.5 57.5t-55.5 57t-67 25.5q-92 0 -142 -159l-61 6q16 102 74.5 163.5t142.5 61.5q59 0 104 -41t84 -82t84 -41q88 0 142 160l61 -6q-16 -102 -74.5 -165t-142.5 -63z" glyph-name="G_tildecomb.ccmp" horiz-adv-x="1177"/><glyph d="M342 -473q-168 0 -334 135l47 62q133 -123 291 -123q274 0 344 346l49 229q-186 -180 -364 -180q-131 0 -208 91t-77 259q0 268 161 465t361 197q168 0 252 -160h8l27 135h82l-215 -1067q-37 -186 -145.5 -287.5t-278.5 -101.5zM391 72q82 0 179.5 53t181.5 145l102 486 q-102 178 -244 178q-164 0 -299 -180.5t-135 -393.5q0 -143 56.5 -215.5t158.5 -72.5zM827 1186q-49 0 -87 31.5t-58 68.5t-52 68.5t-71 31.5q-96 0 -141 -194l-70 4q29 117 79 187.5t140 70.5q49 0 87 -30.5t58.5 -68.5t52.5 -69t71 -31q100 0 141 193l70 -4 q-68 -258 -220 -258z" glyph-name="g_tildecomb.ccmp" horiz-adv-x="1067"/><glyph d="M51 -416q-63 0 -101 33t-38 96q0 76 56.5 156t127.5 131h-14l199 983h84l-197 -983q-178 -147 -178 -266q0 -39 21.5 -60.5t56.5 -21.5q43 0 82 24l24 -55q-64 -37 -123 -37z" glyph-name="glyph683" horiz-adv-x="450"/><glyph d="M-16 0l16 76h172l242 1198h-176l16 76h442l-16 -76h-178l-242 -1198h180l-16 -76h-440z" glyph-name="I.aalt" horiz-adv-x="612"/><glyph d="M-16 0l16 76h172l242 1198h-176l16 76h442l-16 -76h-178l-242 -1198h180l-16 -76h-440zM514 1438l-238 254l66 57l221 -268z" glyph-name="Igrave.aalt" horiz-adv-x="612"/></font>
</defs>
</svg>
