<?xml version="1.0" standalone="no"?>
<!DOCTYPE svg PUBLIC "-//W3C//DTD SVG 1.1//EN" "http://www.w3.org/Graphics/SVG/1.1/DTD/svg11.dtd">
<svg xmlns="http://www.w3.org/2000/svg"><metadata>This SVG WebFont was generated by YouWorkForThem.
Copyright (c) 2016 by JC Design / Jan-Christian Bruun. All rights reserved.</metadata><defs><font horiz-adv-x="0" id="ywftsvg"><font-face ascent="1536" bbox="-930 -598 4422 1982" cap-height="1343" descent="-512" font-family="" font-stretch="normal" font-weight="400" panose-1="2 11 5 3 3 4 3 2 2 4" underline-position="0" underline-thickness="0" unicode-range="U+000D-1F16B" units-per-em="2048" x-height="995"/><missing-glyph d="M182 0v1352h975v-1352h-975zM403 119h527l-150 270l-106 211h-8l-111 -211zM666 793h8l100 192l135 244h-481l135 -244zM315 225l260 471l-260 475v-946zM1020 225v946l-258 -475z" horiz-adv-x="1337"/><glyph d="M1237 1425l-37 -129q-55 25 -113 25q-139 0 -139 -193v-133h211v-137h-211v-858h-168v858h-415v-858h-168v858h-136v137h136v131q0 158 78.5 247t230.5 89q102 0 182 -37l-35 -127q-59 27 -133 27t-114.5 -52t-40.5 -151v-127h415v133q0 158 73 244t218 86q82 0 166 -33z " glyph-name="uniFB00" horiz-adv-x="1181" unicode="ff"/><glyph d="M1157 139v-135q-86 -29 -151 -29q-285 0 -285 332v551h-356v-858h-168v858h-136v137h136v125q0 158 72.5 244t217.5 86q82 0 166 -33l-37 -129q-55 25 -112 25q-139 0 -139 -193v-125h356v244l168 35v-279h270v-137h-270v-553q0 -193 155 -192q52 -1 113 26z" glyph-name="f_t.liga" horiz-adv-x="1216" unicode="ft"/><glyph d="M1741 139v-135q-86 -29 -152 -29q-285 0 -284 332v551h-357v-858h-168v858h-415v-858h-168v858h-136v137h136v131q0 158 78.5 247t230.5 89q102 0 182 -37l-35 -127q-59 27 -133 27t-114.5 -52t-40.5 -151v-127h415v138q0 158 73 243.5t218 85.5q82 0 166 -32l-37 -130 q-55 25 -113 25q-139 0 -139 -192v-138h355v248l170 31v-279h270v-137h-270v-553q0 -193 155 -192q52 -1 113 26z" glyph-name="f_f_t.liga" horiz-adv-x="1800" unicode="fft"/><glyph d="M182 0v1352h975v-1352h-975zM403 119h527l-150 270l-106 211h-8l-111 -211zM666 793h8l100 192l135 244h-481l135 -244zM315 225l260 471l-260 475v-946zM1020 225v946l-258 -475z" glyph-name=".notdef" horiz-adv-x="1337"/><glyph glyph-name="glyph1"/><glyph glyph-name="glyph2" horiz-adv-x="681"/><glyph glyph-name="uni0000"/><glyph glyph-name="space" horiz-adv-x="409" unicode=" "/><glyph d="M238 406l-23 774l-4 192h170l-4 -192l-23 -774h-116zM297 -25q-51 0 -87 36t-36 91q0 59 36 95t87 36t86 -35.5t35 -95.5q0 -55 -36 -91t-85 -36z" glyph-name="exclam" horiz-adv-x="591" unicode="!"/><glyph d="M203 883l-33 342l-6 188h180l-6 -188l-33 -342h-102zM563 883l-33 342l-6 188h181l-7 -188l-32 -342h-103z" glyph-name="quotedbl" horiz-adv-x="870" unicode="&quot;"/><glyph d="M184 0l52 418h-164v117h178l37 303h-174v118h188l47 375h109l-47 -375h272l49 375h109l-49 -375h165v-118h-178l-37 -303h174v-117h-188l-51 -418h-109l49 418h-270l-51 -418h-111zM360 535h271l37 303h-271z" glyph-name="numbersign" horiz-adv-x="1017" unicode="#"/><glyph d="M1022 381q0 -164 -101.5 -272.5t-287.5 -124.5v-185h-133v185q-260 16 -424 133l100 133q172 -119 395 -119q135 0 206 62.5t71 166.5q0 47 -14.5 81t-47 59.5t-62.5 41t-83 38.5q-16 6 -25 10l-194 76q-287 115 -287 335q0 143 98.5 246t266.5 123v186h133v-184 q184 -14 356 -123l-96 -123q-176 98 -320 99q-119 0 -192.5 -57.5t-73.5 -149.5q0 -45 18.5 -81t58.5 -61.5t69.5 -38t85.5 -32.5l194 -76q135 -51 212 -132t77 -216z" glyph-name="dollar" horiz-adv-x="1144" unicode="$"/><glyph d="M377 520q-141 0 -223 111.5t-82 314.5q0 201 82 311.5t223 110.5q139 0 222 -111.5t83 -310.5q0 -201 -83 -313.5t-222 -112.5zM377 625q80 0 128 83t48 238.5t-47 236.5t-129 81t-130 -81t-48 -236.5t48 -238.5t130 -83zM414 -25l741 1393h115l-742 -1393h-114z M1313 -25q-141 0 -223 112t-82 314q0 201 81.5 311.5t223.5 110.5q139 0 222 -111.5t83 -310.5q0 -201 -83 -313.5t-222 -112.5zM1313 80q80 0 128 83t48 238.5t-47 236.5t-129 81t-130 -81t-48 -236.5t48 -238.5t130 -83z" glyph-name="percent" horiz-adv-x="1687" unicode="%"/><glyph d="M1032 262l154 -166l-107 -98l-149 162l-33 -31q-174 -154 -387 -154q-182 0 -296 104.5t-114 268.5q0 123 71 213t194 174l20 15q-129 174 -129 342q0 117 81 196.5t216 79.5q123 0 200.5 -79t77.5 -197q0 -109 -60 -188t-177 -165l342 -372l158 151l90 -102zM553 1247 q-72 0 -112 -44t-40 -111q0 -127 107 -258q94 66 140 124t46 134q0 63 -37.5 109t-103.5 46zM784 219l50 45l-359 385l-43 -31q-168 -133 -168 -260q0 -111 76 -179t188 -68q127 -1 256 108z" glyph-name="ampersand" horiz-adv-x="1247" unicode="&amp;"/><glyph d="M203 883l-33 342l-6 188h180l-6 -188l-33 -342h-102z" glyph-name="quotesingle" horiz-adv-x="509" unicode="'"/><glyph d="M543 -311l-105 -49q-270 434 -270 929q0 489 270 930l105 -49q-236 -391 -236 -880.5t236 -880.5z" glyph-name="parenleft" horiz-adv-x="620" unicode="("/><glyph d="M182 -360l-104 49q236 391 235.5 880.5t-235.5 880.5l104 49q270 -440 271 -930q-1 -495 -271 -929z" glyph-name="parenright" horiz-adv-x="620" unicode=")"/><glyph d="M283 860l-82 60l116 192l-198 82l31 94l208 -51l19 221h100l19 -219l211 49l30 -94l-198 -82l114 -192l-80 -60l-145 176z" glyph-name="asterisk" horiz-adv-x="856" unicode="*"/><glyph d="M442 213v399h-372v127h372v400h133v-400h373v-127h-373v-399h-133z" glyph-name="plus" horiz-adv-x="1017" unicode="+"/><glyph d="M137 -348l-41 98q184 82 185 250q-4 -2 -21 -2q-51 0 -86 30.5t-35 86.5q0 53 36 85.5t89 32.5q66 0 104 -53t38 -145q0 -131 -71 -229.5t-198 -153.5z" glyph-name="comma" horiz-adv-x="509" unicode=","/><glyph d="M84 449v129h471v-129h-471z" glyph-name="hyphen" horiz-adv-x="636" unicode="-"/><glyph d="M256 -25q-51 0 -87 36t-36 91q0 59 36 95t87 36t86 -35.5t35 -95.5q0 -55 -36 -91t-85 -36z" glyph-name="period" horiz-adv-x="509" unicode="."/><glyph d="M20 -328l547 1782h123l-547 -1782h-123z" glyph-name="slash" horiz-adv-x="716" unicode="/"/><glyph d="M508 -25q-199 0 -308.5 180.5t-109.5 512t109.5 508t308.5 176.5t307.5 -176.5t108.5 -508t-109.5 -512t-306.5 -180.5zM508 113q119 0 185.5 136t66.5 419q0 547 -252 546q-254 0 -254 -546q0 -281 67.5 -418t186.5 -137z" glyph-name="zero" horiz-adv-x="1017" unicode="0"/><glyph d="M162 139h299v1024l-260 -162l-60 109l359 231h129v-1202h270v-139h-737v139z" glyph-name="one" horiz-adv-x="1017" unicode="1"/><glyph d="M90 100q0 78 34 150t88 128t119.5 109.5t131 106.5t120 106.5t88.5 120t34 137.5q0 117 -63.5 186.5t-184.5 69.5q-143 0 -279 -157l-96 96q178 199 395 199q182 0 286.5 -104.5t104.5 -280.5q0 -123 -61.5 -227.5t-149.5 -176t-175 -136.5t-148.5 -136.5t-61.5 -145.5 h621v-145h-801z" glyph-name="two" horiz-adv-x="1017" unicode="2"/><glyph d="M494 778q203 -31 311 -141.5t108 -288.5q0 -170 -122.5 -271.5t-307.5 -101.5q-266 0 -430 185l86 110q152 -156 334 -155q121 0 195.5 65.5t74.5 173.5q0 143 -105.5 226.5t-311.5 83.5v129l348 399v4h-527v147h707v-151l-360 -406v-8z" glyph-name="three" horiz-adv-x="1017" unicode="3"/><glyph d="M209 496h414v641h-9zM981 496v-136h-199v-360h-159v360h-566l-26 111l563 872h188v-847h199z" glyph-name="four" horiz-adv-x="1017" unicode="4"/><glyph d="M479 -25q-262 0 -428 179l86 116q127 -156 326 -155q121 0 204 83t83 216q0 135 -75 210.5t-204 75.5q-135 0 -223 -79l-90 32l-2 690h698l-20 -145h-521v-424q94 53 201 53q178 0 292 -103t114 -306t-130.5 -323t-310.5 -120z" glyph-name="five" horiz-adv-x="1017" unicode="5"/><glyph d="M535 672q-113 0 -191 -68.5t-78 -181.5q0 -141 67.5 -227t190.5 -86q102 0 177 76.5t75 209.5q0 131 -60 204t-181 73zM817 1108q-90 104 -215 104q-154 0 -250 -136t-96 -437q45 84 128 128t179 44q170 0 270.5 -112.5t100.5 -303.5q0 -182 -123 -301t-287 -119 q-199 0 -312.5 161t-113.5 468q0 371 142.5 559.5t355.5 188.5q193 0 315 -138z" glyph-name="six" horiz-adv-x="1017" unicode="6"/><glyph d="M537 0h-175q14 356 101 629q104 326 278 569h-651v145h842v-104q-201 -254 -305 -596q-74 -240 -90 -643z" glyph-name="seven" horiz-adv-x="989" unicode="7"/><glyph d="M518 -25q-182 0 -304 106.5t-122 262.5q0 274 227 344v8q-172 68 -172 310q0 156 104.5 251t266.5 95q168 0 268.5 -95.5t100.5 -250.5q0 -109 -47 -195t-125 -115v-8q227 -86 227 -344q0 -162 -118 -265.5t-306 -103.5zM518 754q100 0 161.5 63.5t61.5 175.5 q0 102 -60 167t-163 65q-94 0 -159.5 -66.5t-65.5 -165.5q0 -111 64.5 -175t160.5 -64zM518 100q121 0 191.5 75t70.5 183q0 117 -72.5 192t-189.5 75q-123 0 -194.5 -72t-71.5 -195q0 -115 68.5 -186.5t197.5 -71.5z" glyph-name="eight" horiz-adv-x="1017" unicode="8"/><glyph d="M481 651q113 0 191 71t78 183q0 143 -68 228.5t-188 85.5q-106 0 -180 -80t-74 -207q0 -133 60 -207t181 -74zM199 219q90 -104 215 -104q152 0 249 138t97 437q-90 -170 -307 -170q-172 0 -271.5 109.5t-99.5 302.5q0 182 121 301t291 119q424 0 424 -629 q0 -371 -142.5 -559.5t-355.5 -188.5q-193 0 -316 138z" glyph-name="nine" horiz-adv-x="1017" unicode="9"/><glyph d="M256 715q-51 0 -87 35.5t-36 91.5q0 59 36 95t87 36t86 -36t35 -95q0 -55 -36 -91t-85 -36zM256 -25q-51 0 -87 36t-36 91q0 59 36 95t87 36t86 -35.5t35 -95.5q0 -55 -36 -91t-85 -36z" glyph-name="colon" horiz-adv-x="509" unicode=":"/><glyph d="M256 715q-51 0 -87 35.5t-36 91.5q0 59 36 95t87 36t86 -36t35 -95q0 -55 -36 -91t-85 -36zM137 -348l-41 98q184 82 185 250q-4 -2 -21 -2q-51 0 -86 30.5t-35 86.5q0 53 36 85.5t89 32.5q66 0 104 -53t38 -145q0 -131 -71 -229.5t-198 -153.5z" glyph-name="semicolon" horiz-adv-x="509" unicode=";"/><glyph d="M948 268l-878 344v136l878 344v-146l-432 -160l-274 -102v-8l274 -103l432 -159v-146z" glyph-name="less" horiz-adv-x="1017" unicode="&lt;"/><glyph d="M70 831v127h878v-127h-878zM70 395v127h878v-127h-878z" glyph-name="equal" horiz-adv-x="1017" unicode="="/><glyph d="M70 268v146l432 159l274 103v8l-274 102l-432 160v146l878 -344v-136z" glyph-name="greater" horiz-adv-x="1017" unicode=">"/><glyph d="M475 406h-147q-14 88 10 167.5t67.5 139t89.5 113t79.5 113.5t33.5 120q0 86 -52 142t-146 56q-127 0 -236 -108l-96 115q137 133 352 133q156 0 249 -88t93 -240q0 -74 -33.5 -143.5t-81 -125t-92.5 -112.5t-71.5 -129.5t-18.5 -152.5zM405.5 -25q-51.5 0 -86 36 t-34.5 91q0 59 34.5 95t86 36t87 -35.5t35.5 -95.5q0 -55 -35.5 -91t-87 -36z" glyph-name="question" horiz-adv-x="870" unicode="?"/><glyph d="M825 -317q-313 0 -517 193.5t-204 539.5q0 401 250 654t604 253q307 0 489.5 -186.5t182.5 -491.5q0 -252 -127 -398.5t-282 -146.5q-88 0 -144.5 40t-66.5 116h-4q-119 -139 -250 -139q-109 0 -177.5 75.5t-68.5 213.5q0 178 111.5 326.5t281.5 148.5q106 0 164 -99h4 l19 82h116l-80 -409q-61 -240 111 -240q104 0 189 117t85 307q0 256 -147 413.5t-420 157.5q-287 0 -502 -221t-215 -567q0 -293 170 -460t441 -167q178 0 331 92l45 -100q-174 -104 -389 -104zM788 231q84 0 187 105l63 356q-53 72 -133 72q-115 0 -187.5 -110.5 t-72.5 -237.5q0 -94 38.5 -139.5t104.5 -45.5z" glyph-name="at" horiz-adv-x="1734" unicode="@"/><glyph d="M352 547h404l-199 602h-8zM926 0l-127 410h-490l-129 -410h-174l455 1343h192l455 -1343h-182z" glyph-name="A" horiz-adv-x="1114" unicode="A"/><glyph d="M184 0v1343h400q461 0 460 -327q0 -102 -51 -182t-145 -111v-8q127 -25 200.5 -106t73.5 -216q0 -193 -138 -293t-372 -100h-428zM354 772h199q324 0 324 221q0 115 -77 165t-239 50h-207v-436zM354 135h234q367 0 366 264q0 242 -366 242h-234v-506z" glyph-name="B" horiz-adv-x="1204" unicode="B"/><glyph d="M692 -25q-258 0 -422 187.5t-164 509.5q0 317 167 506.5t429 189.5q121 0 236 -41t192 -110l-86 -121q-68 55 -160.5 89t-178.5 34q-193 0 -307.5 -146.5t-114.5 -396.5q0 -252 112.5 -401.5t302.5 -149.5q188 0 346 125l86 -123q-190 -152 -438 -152z" glyph-name="C" horiz-adv-x="1228" unicode="C"/><glyph d="M184 0v1343h336q311 0 473 -172t162 -493.5t-163 -499.5t-464 -178h-344zM354 139h154q231 0 351 139.5t120 399.5q0 258 -119 392t-352 134h-154v-1065z" glyph-name="D" horiz-adv-x="1259" unicode="D"/><glyph d="M184 0v1343h774l-20 -143h-584v-422h398v-145h-398v-488h625v-145h-795z" glyph-name="E" horiz-adv-x="1079" unicode="E"/><glyph d="M184 0v1343h774l-20 -143h-584v-455h400v-143h-400v-602h-170z" glyph-name="F" horiz-adv-x="1011" unicode="F"/><glyph d="M713 -25q-270 0 -438.5 186.5t-168.5 510.5q0 319 172.5 507.5t444.5 188.5q242 0 387 -129l-90 -131q-125 111 -293 111q-203 0 -323.5 -146.5t-120.5 -396.5q0 -256 116.5 -403.5t329.5 -147.5q152 0 242 80v467l155 41v-582q-151 -156 -413 -156z" glyph-name="G" horiz-adv-x="1263" unicode="G"/><glyph d="M184 0v1343h170v-563h625v563h172v-1343h-172v633h-625v-633h-170z" glyph-name="H" horiz-adv-x="1335" unicode="H"/><glyph d="M184 0v1343h170v-1343h-170z" glyph-name="I" horiz-adv-x="538" unicode="I"/><glyph d="M434 -25q-250 0 -371 215l123 86q84 -152 232 -151q111 0 163 67.5t52 219.5v931h172v-948q0 -186 -92.5 -303t-278.5 -117z" glyph-name="J" horiz-adv-x="983" unicode="J"/><glyph d="M184 0v1343h170v-673h6l560 673h192l-420 -512l486 -831h-191l-401 698l-232 -272v-426h-170z" glyph-name="K" horiz-adv-x="1185" unicode="K"/><glyph d="M184 0v1343h170v-1198h588v-145h-758z" glyph-name="L" horiz-adv-x="995" unicode="L"/><glyph d="M184 0v1343h205l352 -927h9l348 927h207v-1343h-160v1040h-8l-338 -882h-113l-340 882h-8v-1040h-154z" glyph-name="M" horiz-adv-x="1488" unicode="M"/><glyph d="M184 0v1343h176l611 -1075h8v1075h162v-1343h-176l-611 1073h-8v-1073h-162z" glyph-name="N" horiz-adv-x="1325" unicode="N"/><glyph d="M680 -25q-256 0 -415 190.5t-159 512.5q0 319 158 504.5t416 185.5q256 0 415.5 -187.5t159.5 -502.5q0 -322 -159.5 -512.5t-415.5 -190.5zM680 125q178 0 287.5 150.5t109.5 402.5q0 248 -108.5 394.5t-288.5 146.5t-288.5 -146.5t-108.5 -394.5q0 -252 109.5 -402.5 t287.5 -150.5z" glyph-name="O" horiz-adv-x="1359" unicode="O"/><glyph d="M184 0v1343h383q504 0 504 -395q0 -205 -133 -310.5t-363 -105.5h-221v-532h-170zM354 672h201q178 0 262 66.5t84 209.5q0 141 -86 199.5t-268 58.5h-193v-534z" glyph-name="P" horiz-adv-x="1159" unicode="P"/><glyph d="M1288 -123l-63 -156q-176 0 -362.5 76t-330.5 197q-197 51 -311.5 231.5t-114.5 452.5q0 319 158 504.5t416 185.5q256 0 415.5 -187.5t159.5 -502.5q0 -283 -123.5 -465t-332.5 -225q237 -111 489 -111zM283 678q0 -252 109.5 -402.5t287.5 -150.5t287.5 150.5 t109.5 402.5q0 248 -108.5 394.5t-288.5 146.5t-288.5 -146.5t-108.5 -394.5z" glyph-name="Q" horiz-adv-x="1359" unicode="Q"/><glyph d="M354 1206v-499h226q326 0 325 260q0 129 -81 184t-244 55h-226zM1114 0h-192l-324 567h-244v-567h-170v1343h420q471 0 471 -376q0 -303 -301 -381z" glyph-name="R" horiz-adv-x="1165" unicode="R"/><glyph d="M1014 375q0 -178 -118 -289t-333 -111q-303 0 -495 136l100 133q172 -119 395 -119q135 0 206 62.5t71 166.5q0 47 -14.5 81t-47.5 59.5t-62.5 41t-82.5 37.5q-16 6 -25 11l-194 75q-287 115 -287 336q0 158 120 265.5t318 107.5q227 0 416 -125l-98 -127 q-154 102 -318 103q-119 0 -192.5 -56.5t-73.5 -148.5q0 -47 18.5 -82t58.5 -60.5t69.5 -39t84.5 -33.5l195 -76q135 -51 212 -132t77 -216z" glyph-name="S" horiz-adv-x="1093" unicode="S"/><glyph d="M463 0v1200h-406v143h983v-143h-405v-1200h-172z" glyph-name="T" horiz-adv-x="1097" unicode="T"/><glyph d="M662 -25q-223 0 -353.5 137.5t-130.5 442.5v788h170v-792q0 -426 314 -426q317 0 317 426v792h164v-788q0 -305 -130 -442.5t-351 -137.5z" glyph-name="U" horiz-adv-x="1320" unicode="U"/><glyph d="M430 0l-430 1343h182l346 -1169h9l344 1169h174l-426 -1343h-199z" glyph-name="V" horiz-adv-x="1054" unicode="V"/><glyph d="M332 0l-285 1343h176l219 -1136h9l280 1136h156l284 -1136h9l217 1136h164l-279 -1343h-205l-268 1092h-8l-266 -1092h-203z" glyph-name="W" horiz-adv-x="1609" unicode="W"/><glyph d="M31 0l389 686l-363 657h189l274 -538h8l287 538h180l-366 -657l391 -686h-189l-303 578h-8l-309 -578h-180z" glyph-name="X" horiz-adv-x="1050" unicode="X"/><glyph d="M401 0v520l-403 823h182l303 -671h9l307 671h178l-404 -823v-520h-172z" glyph-name="Y" horiz-adv-x="974" unicode="Y"/><glyph d="M106 0v102l672 1098h-657v143h870v-100l-674 -1098h715v-145h-926z" glyph-name="Z" horiz-adv-x="1142" unicode="Z"/><glyph d="M193 -311v1761h366v-96h-240v-1569h240v-96h-366z" glyph-name="bracketleft" horiz-adv-x="620" unicode="["/><glyph d="M575 -328l-546 1782h121l546 -1782h-121z" glyph-name="backslash" horiz-adv-x="716" unicode="\"/><glyph d="M63 -311v96h238v1569h-238v96h365v-1761h-365z" glyph-name="bracketright" horiz-adv-x="620" unicode="]"/><glyph d="M123 582l311 790h150l311 -790h-147l-134 360l-100 272h-8l-103 -272l-133 -360h-147z" glyph-name="asciicircum" horiz-adv-x="1017" unicode="^"/><glyph d="M25 -258v113h974v-113h-974z" glyph-name="underscore" horiz-adv-x="1024" unicode="_"/><glyph d="M584 1174l-322 313l119 112l289 -342z" glyph-name="grave" horiz-adv-x="1110" unicode="`"/><glyph d="M1008 152v-129q-35 -23 -117 -23q-59 0 -101 29.5t-55 60.5l-12 29h-6q-76 -63 -154 -101q-84 -43 -176 -43q-125 0 -208 78t-83 205q0 324 611 324v28q0 143 -53.5 207t-166.5 64q-76 0 -147.5 -21.5t-103.5 -44.5l-33 -20l-94 127q18 10 52 27.5t133 45t195 27.5 q387 0 388 -412v-377q0 -57 13 -77.5t48 -20.5q41 1 70 17zM707 473q-446 0 -447 -203q0 -74 48 -116.5t128 -42.5q115 0 271 125v237z" glyph-name="a" horiz-adv-x="1071" unicode="a"/><glyph d="M608 -25q-145 0 -284 127h-7v-102h-149v1352l168 45v-516q145 139 307 139q188 0 291.5 -136t103.5 -370q0 -246 -125 -392.5t-305 -146.5zM580 117q125 0 204.5 107.5t79.5 287.5q0 367 -262 367q-123 0 -266 -136v-522q121 -104 244 -104z" glyph-name="b" horiz-adv-x="1132" unicode="b"/><glyph d="M586 -25q-215 0 -353.5 144.5t-138.5 388.5t136.5 378t355.5 134q211 0 370 -146l-84 -116q-127 123 -286 123q-143 0 -230.5 -103.5t-87.5 -275.5t88 -279.5t230 -107.5q162 0 286 125l84 -117q-157 -148 -370 -148z" glyph-name="c" horiz-adv-x="1046" unicode="c"/><glyph d="M508 -25q-190 0 -301 136.5t-111 384.5q0 233 127 378.5t305 145.5q150 0 271 -115v447l170 45v-1397h-154v117h-6q-149 -142 -301 -142zM545 117q131 0 254 137v520q-117 104 -242 105q-121 0 -204 -106.5t-83 -274.5q0 -180 72 -280.5t203 -100.5z" glyph-name="d" horiz-adv-x="1136" unicode="d"/><glyph d="M977 121q-152 -145 -402 -146q-215 0 -347 138.5t-132 382.5q0 246 127 385t336 139q203 0 311.5 -132t108.5 -370v-59h-707q0 -154 86 -249t217 -95q180 0 297 110zM276 575h539q0 139 -65.5 222.5t-190.5 83.5q-131 0 -207 -86.5t-76 -219.5z" glyph-name="e" horiz-adv-x="1093" unicode="e"/><glyph d="M623 1462l-25 -137q-41 20 -94 21q-139 0 -139 -193v-158h210v-137h-210v-858h-168v858h-136v137h136v158q0 158 72.5 244t217.5 86q81 -1 136 -21z" glyph-name="f" horiz-adv-x="641" unicode="f"/><glyph d="M961 999l-43 -139l-162 6q82 -82 82 -204q0 -156 -104.5 -251.5t-260.5 -95.5q-76 0 -149 35q-63 -55 -64 -119q0 -109 176 -108h170q176 0 262 -57.5t86 -180.5q0 -145 -138 -244.5t-365 -99.5q-186 0 -285.5 63.5t-99.5 188.5q0 29 6 50.5t10 29.5l6 6h156 q-6 -8 -10.5 -19.5t-4.5 -19.5v-6q0 -176 246 -176q137 0 226.5 60.5t89.5 142.5q0 68 -49.5 95.5t-151.5 27.5h-150q-164 0 -242.5 51t-78.5 170q0 111 108 184v8q-129 109 -129 268.5t108.5 257t266.5 97.5q74 0 141 -25zM473 897q-90 0 -150.5 -62.5t-60.5 -169 t61.5 -172t149.5 -65.5t149.5 65.5t61.5 172t-60.5 169t-150.5 62.5z" glyph-name="g" horiz-adv-x="1032" unicode="g"/><glyph d="M168 0v1354l168 45v-543q160 164 326 164q303 0 303 -389v-631h-168v608q0 141 -45 203.5t-144 62.5q-74 0 -131 -34.5t-141 -118.5v-721h-168z" glyph-name="h" horiz-adv-x="1114" unicode="h"/><glyph d="M168 0v995h168v-995h-168zM254 1200q-49 0 -83 31t-34 78q0 49 34 78.5t83 29.5t83 -29.5t34 -78.5q0 -47 -34 -78t-83 -31z" glyph-name="i" horiz-adv-x="503" unicode="i"/><glyph d="M166 -18v1013h168v-1013q0 -96 -27.5 -197.5t-83.5 -149.5l-137 84q37 33 58.5 116.5t21.5 146.5zM252 1417q49 0 82 -29.5t33 -78.5q0 -47 -33 -78t-82 -31t-83 31t-34 78q0 49 34 78.5t83 29.5z" glyph-name="j" horiz-adv-x="505" unicode="j"/><glyph d="M168 0v1352l166 45v-926h6l424 524h186l-334 -399l379 -596h-184l-291 479l-186 -217v-262h-166z" glyph-name="k" horiz-adv-x="1013" unicode="k"/><glyph d="M336 0h-168v1352l168 45v-1397z" glyph-name="l" horiz-adv-x="522" unicode="l"/><glyph d="M168 0v995h154v-143h6q154 168 309 168q209 0 274 -191q174 190 328 191q303 0 303 -389v-631h-168v608q0 139 -45 202.5t-139 63.5q-113 0 -250 -153v-721h-168v608q0 141 -44 203.5t-142 62.5q-111 0 -250 -153v-721h-168z" glyph-name="m" horiz-adv-x="1697" unicode="m"/><glyph d="M168 0v995h154v-143h6q168 168 334 168q303 0 303 -389v-631h-168v608q0 141 -45 203.5t-144 62.5q-74 0 -131 -34.5t-141 -118.5v-721h-168z" glyph-name="n" horiz-adv-x="1120" unicode="n"/><glyph d="M555 -25q-193 0 -327 141.5t-134 379.5q0 242 134 383t327 141t327 -141.5t134 -382.5q0 -238 -134 -379.5t-327 -141.5zM555 115q129 0 208 105.5t79 275.5q0 172 -79 278.5t-208 106.5t-208 -106.5t-79 -278.5q0 -170 79 -275.5t208 -105.5z" glyph-name="o" horiz-adv-x="1110" unicode="o"/><glyph d="M168 -358v1353h154v-114h6q166 139 317 139q188 0 290.5 -136t102.5 -372q0 -244 -125 -390.5t-305 -146.5q-131 0 -272 115v-401zM580 117q125 0 204.5 107.5t79.5 287.5q0 367 -262 367q-115 0 -266 -136v-522q125 -104 244 -104z" glyph-name="p" horiz-adv-x="1136" unicode="p"/><glyph d="M799 -358v473q-119 -139 -291 -140q-190 0 -301 136.5t-111 384.5q0 233 127 378.5t305 145.5q152 0 285 -119h4v94h152v-1308zM545 117q131 0 254 137v520q-117 104 -242 105q-121 0 -204 -106.5t-83 -274.5q0 -180 72 -280.5t203 -100.5z" glyph-name="q" horiz-adv-x="1136" unicode="q"/><glyph d="M328 776q45 113 142 178.5t224 65.5l-55 -162q-84 0 -167 -59.5t-136 -180.5v-618h-168v995h154v-219h6z" glyph-name="r" horiz-adv-x="745" unicode="r"/><glyph d="M406 606l190 -76q84 -33 140.5 -100.5t56.5 -157.5q0 -141 -106.5 -219t-258.5 -78q-121 0 -214 18.5t-124 37.5l-33 18l88 125q98 -68 289 -68q80 0 138.5 39t58.5 117q0 98 -146 156l-188 76q-84 33 -137.5 95t-53.5 148q0 131 104.5 207t260.5 76q80 0 155.5 -18.5 t110.5 -38.5l35 -19l-94 -121q-78 66 -205 66q-205 0 -205 -144q1 -84 138 -139z" glyph-name="s" horiz-adv-x="858" unicode="s"/><glyph d="M481 -25q-285 0 -284 332v551h-148v137h148v203l170 45v-248h268v-137h-268v-553q0 -96 34.5 -144t118.5 -48q51 0 113 26v-137q-80 -27 -152 -27z" glyph-name="t" horiz-adv-x="692" unicode="t"/><glyph d="M459 -25q-305 0 -305 390v630h170v-608q0 -141 44 -203.5t142 -62.5q76 0 134 38t134 130v706h168v-995h-153v156h-7q-153 -181 -327 -181z" glyph-name="u" horiz-adv-x="1114" unicode="u"/><glyph d="M383 0l-358 995h174l280 -858h8l279 858h166l-352 -995h-197z" glyph-name="v" horiz-adv-x="956" unicode="v"/><glyph d="M326 0l-277 995h172l207 -829h8l221 829h164l226 -829h8l207 829h159l-266 -995h-205l-211 805h-8l-209 -805h-196z" glyph-name="w" horiz-adv-x="1470" unicode="w"/><glyph d="M29 0l315 502l-291 493h183l217 -385h8l225 385h176l-301 -493l324 -502h-183l-245 410h-8l-244 -410h-176z" glyph-name="x" horiz-adv-x="913" unicode="x"/><glyph d="M184 -428q-94 0 -164 39l80 115q33 -14 76 -15q154 0 225 213l23 74l-399 997h174l202 -551q61 -176 97 -280h8q18 53 49 160.5t35 119.5l178 551h164l-375 -1077q-61 -166 -146.5 -256t-226.5 -90z" glyph-name="y" horiz-adv-x="956" unicode="y"/><glyph d="M74 0v90l524 768h-508v137h721v-90l-524 -768h540v-137h-753z" glyph-name="z" horiz-adv-x="899" unicode="z"/><glyph d="M559 -311h-92q-127 0 -183.5 59t-56.5 213q0 76 9.5 203t9.5 192q0 160 -176 160v107q176 0 176 157q0 68 -9.5 195t-9.5 203q0 154 56.5 213t183.5 59h92v-96h-55q-82 0 -110.5 -41t-28.5 -146q0 -61 6 -180t6 -190q0 -100 -29 -152.5t-94 -71.5v-8q66 -18 94.5 -71.5 t28.5 -151.5q0 -72 -6 -190.5t-6 -180.5q0 -104 28.5 -145t110.5 -41h55v-96z" glyph-name="braceleft" horiz-adv-x="620" unicode="{"/><glyph d="M188 -512v2048h119v-2048h-119z" glyph-name="bar" horiz-adv-x="493" unicode="|"/><glyph d="M63 -311v96h54q82 0 110.5 41t28.5 145q0 61 -5 180t-5 191q0 100 27.5 152.5t93.5 70.5v8q-66 18 -93.5 70.5t-27.5 153.5q0 72 5 190.5t5 179.5q0 104 -28.5 145.5t-110.5 41.5h-54v96h91q127 0 183 -59.5t56 -212.5q0 -76 -9 -203t-9 -195q0 -156 176 -157v-107 q-94 0 -135 -46t-41 -114q0 -66 9 -192.5t9 -202.5q0 -154 -56 -213t-183 -59h-91z" glyph-name="braceright" horiz-adv-x="620" unicode="}"/><glyph d="M688 526q-70 0 -136.5 43t-122.5 86t-103 43q-90 0 -158 -125l-94 68q104 184 256 184q70 0 136 -43t122.5 -86t103.5 -43q90 0 158 125l94 -69q-102 -183 -256 -183z" glyph-name="asciitilde" horiz-adv-x="1017" unicode="~"/><glyph glyph-name="uni00A0" horiz-adv-x="413" unicode=" "/><glyph d="M211 -377l4 193l23 774h116l23 -774l4 -193h-170zM297 762q-51 0 -87 36t-36 95q0 55 36 91t87 36q49 0 85 -36t36 -91q0 -59 -35 -95t-86 -36z" glyph-name="exclamdown" horiz-adv-x="591" unicode="¡"/><glyph d="M885 377l84 -117q-141 -131 -326 -145v-183h-106v183q-193 23 -312 164t-119 366t118 357.5t313 150.5v184h106v-182q184 -14 326 -143l-84 -117q-109 102 -242 121v-762q136 17 242 123zM281 639q0 -152 69.5 -256t186.5 -125v754q-119 -23 -187.5 -121t-68.5 -252z" glyph-name="cent" horiz-adv-x="1052" unicode="¢"/><glyph d="M352 145h576v-145h-817v102q104 57 160.5 154.5t56.5 214.5q0 45 -15 113h-204v114h137h37q-55 182 -56 256q0 172 104.5 274.5t276.5 102.5q178 0 318 -108l-88 -131q-92 98 -217 98q-109 0 -168.5 -65.5t-59.5 -174.5q0 -76 49 -252h326v-114h-299q10 -66 10 -115 q0 -184 -127 -315v-9z" glyph-name="sterling" horiz-adv-x="1017" unicode="£"/><glyph d="M143 211l-90 92l131 133q-74 100 -73 238q0 139 73 239l-131 136l90 92l140 -144q96 76 227 76q127 0 225 -76l139 144l91 -92l-134 -136q76 -102 76 -239q0 -135 -76 -238l134 -133l-91 -92l-139 141q-96 -78 -225 -78q-131 0 -227 78zM510 399q100 0 171 77t71 198 t-71 197.5t-171 76.5q-102 0 -173 -76.5t-71 -197.5t71 -198t173 -77z" glyph-name="currency" horiz-adv-x="1017" unicode="¤"/><glyph d="M424 0v324h-332v98h332v133h-332v96h289l-334 656h176l283 -600h8l285 600h172l-336 -656h291v-96h-334v-133h334v-98h-334v-324h-168z" glyph-name="yen" horiz-adv-x="1017" unicode="¥"/><glyph d="M188 596v940h119v-940h-119zM188 -512v950h119v-950h-119z" glyph-name="brokenbar" horiz-adv-x="493" unicode="¦"/><glyph d="M655 395q63 31 93 70t30 104q0 53 -25.5 94.5t-72.5 72t-95 52t-113.5 50t-106.5 53.5q-125 -68 -125 -178q0 -61 44 -111.5t97 -76t141 -64.5t133 -66zM829 1313l-81 -129q-115 86 -228 86q-82 0 -122 -36t-40 -93q0 -51 42 -92t105.5 -68t136.5 -62.5t136.5 -73.5 t105.5 -106.5t42 -156.5q0 -166 -174 -265q61 -74 61 -167q0 -121 -93 -201t-237 -80q-211 0 -354 115l102 116q104 -100 252 -100q80 0 127 40t47 101q0 63 -58 110.5t-141 81.5t-166 75t-141.5 115.5t-58.5 178.5q0 168 176 265q-66 70 -65 168q0 113 82 189.5t229 76.5 q178 0 315 -88z" glyph-name="section" horiz-adv-x="1017" unicode="§"/><glyph d="M358 1202q-45 0 -73.5 30t-28.5 73t28.5 72.5t73.5 29.5q43 0 72 -29.5t29 -72.5t-29 -73t-72 -30zM752 1202q-43 0 -72 30t-29 73t29 72.5t72 29.5q45 0 73.5 -29.5t28.5 -72.5t-28.5 -73t-73.5 -30z" glyph-name="dieresis" horiz-adv-x="1110" unicode="¨"/><glyph d="M762 -23q-276 0 -469 189.5t-193 495.5q0 303 192.5 489t469.5 186q274 0 467.5 -186t193.5 -489q0 -305 -193.5 -495t-467.5 -190zM761.5 63q237.5 0 401.5 167t164 432q0 262 -164 426.5t-401.5 164.5t-401 -164.5t-163.5 -426.5q0 -264 163.5 -431.5t401 -167.5z M778 256q-160 0 -266 109.5t-106 296.5q0 172 112.5 279.5t265.5 107.5q139 0 256 -117l-71 -80q-84 84 -178 84q-113 0 -181.5 -77t-68.5 -197q0 -135 66.5 -214t176.5 -79q104 0 209 90l62 -86q-136 -117 -277 -117z" glyph-name="copyright" horiz-adv-x="1523" unicode="©"/><glyph d="M696 909v-86q-23 -14 -75 -14q-41 0 -74 19.5t-45 39.5l-13 19h-4q-37 -41 -97 -67.5t-120 -26.5q-82 0 -137 51t-55 135q0 215 407 215v18q0 178 -149 179q-49 0 -96.5 -14.5t-69.5 -28.5l-23 -15l-61 84q109 66 252 66q133 0 203.5 -71t70.5 -200v-249q0 -37 9.5 -50.5 t31.5 -13.5q25 0 45 10zM483 971v139q-283 0 -282 -123q0 -94 98 -94q88 0 184 78z" glyph-name="ordfeminine" horiz-adv-x="706" unicode="ª"/><glyph d="M371 135l-279 318v127l279 317l73 -61l-241 -320l241 -323zM694 135l-278 318v127l278 317l74 -61l-242 -320l242 -323z" glyph-name="guillemotleft" horiz-adv-x="878" unicode="«"/><glyph d="M813 213v399h-743v127h878v-526h-135z" glyph-name="logicalnot" horiz-adv-x="1017" unicode="¬"/><glyph d="M84 449v129h471v-129h-471z" glyph-name="uni00AD" horiz-adv-x="636" unicode="­"/><glyph d="M432 653q-162 0 -273.5 114t-111.5 290t111.5 289.5t273.5 113.5t274.5 -113.5t112.5 -289.5t-112.5 -290t-274.5 -114zM432 729q131 0 218 91t87 237q0 141 -88 235t-217 94t-216 -94t-87 -235q0 -145 86 -236.5t217 -91.5zM285 854v416h155q160 0 160 -133 q0 -86 -76 -113l94 -170h-94l-71 143h-84v-143h-84zM369 1063h53q88 0 88 70q0 68 -84 67h-57v-137z" glyph-name="registered" horiz-adv-x="866" unicode="®"/><glyph d="M283 1231v117h544v-117h-544z" glyph-name="macron" horiz-adv-x="1110" unicode="¯"/><glyph d="M339.5 879q-106.5 0 -181 72.5t-74.5 187.5q0 119 74.5 191.5t181 72.5t181.5 -73t75 -191q0 -115 -75 -187.5t-181.5 -72.5zM340 973q68 0 111 47t43 119q0 76 -43 123t-111 47t-111 -47.5t-43 -122.5q0 -72 43 -119t111 -47z" glyph-name="degree" horiz-adv-x="677" unicode="°"/><glyph d="M442 260v363h-372v127h372v389h133v-389h373v-127h-373v-363h-133zM70 0v127h878v-127h-878z" glyph-name="plusminus" horiz-adv-x="1017" unicode="±"/><glyph d="M104 809l-2 86q0 66 42 121t101.5 96t118 81t100.5 91t42 111q0 127 -152 127q-104 0 -182 -92l-74 83q109 119 269 119q119 0 194.5 -64.5t75.5 -168.5q0 -74 -41 -138.5t-99.5 -107.5t-118 -80t-100 -76t-42.5 -75h426v-113h-558z" glyph-name="uni00B2" horiz-adv-x="751" unicode="²"/><glyph d="M379 1280q127 -12 199.5 -81t72.5 -169q0 -102 -90 -174t-215 -72q-184 0 -285 117l62 84q35 -41 96.5 -69.5t112.5 -28.5q90 0 140 39t50 112q0 76 -70.5 120t-215.5 44v78l227 240v4h-359v102h500v-104l-225 -236v-6z" glyph-name="uni00B3" horiz-adv-x="751" unicode="³"/><glyph d="M526 1174l-86 83l289 342l119 -112z" glyph-name="acute" horiz-adv-x="1110" unicode="´"/><glyph d="M168 -367v1362h168v-608q0 -137 43 -201.5t139 -64.5q76 0 138.5 40t125.5 154v680h170v-800q0 -80 74 -80q27 0 59 12l11 -127q-53 -25 -119 -25q-86 0 -128 46.5t-52 146.5h-4q-104 -188 -277 -188q-135 0 -192 96q0 -20 1 -75.5t2 -160t1 -207.5h-160z" glyph-name="uni00B5" horiz-adv-x="1150" unicode="µ"/><glyph d="M778 -164v1507h172v-1507h-172zM668 463h-68q-236 0 -376 110.5t-140 333.5q0 436 494 436h90v-880z" glyph-name="paragraph" horiz-adv-x="1146" unicode="¶"/><glyph d="M256 530q-51 0 -87 36t-36 91q0 59 36 95t87 36t86 -35.5t35 -95.5q0 -55 -36 -91t-85 -36z" glyph-name="periodcentered" horiz-adv-x="509" unicode="·"/><glyph d="M389 -463l-16 82q127 10 175 33.5t48 68.5q0 41 -35 63.5t-123 35.5l90 186h109l-59 -137q76 -18 112.5 -51t36.5 -94q0 -171 -338 -187z" glyph-name="cedilla" horiz-adv-x="1110" unicode="¸"/><glyph d="M78 809v109h231v577l-200 -125l-48 84l279 180h100v-716h211v-109h-573z" glyph-name="uni00B9" horiz-adv-x="751" unicode="¹"/><glyph d="M373 793q-133 0 -222.5 93t-89.5 251q0 160 89.5 253t222.5 93t222 -93.5t89 -252.5q0 -158 -89 -251t-222 -93zM373 897q84 0 132 65.5t48 174.5q0 113 -47 177t-133 64t-134.5 -65.5t-48.5 -175.5q0 -109 49.5 -174.5t133.5 -65.5z" glyph-name="ordmasculine" horiz-adv-x="747" unicode="º"/><glyph d="M182 135l-71 58l241 323l-241 320l71 61l281 -317v-127zM506 135l-72 58l242 323l-242 320l72 61l280 -317v-127z" glyph-name="guillemotright" horiz-adv-x="878" unicode="»"/><glyph d="M31 545v108h231v578l-201 -125l-47 84l279 180h100v-717h211v-108h-573zM369 -25l741 1393h115l-742 -1393h-114zM1069 307h227v336h-8zM1567 307v-94h-152v-213h-119v213h-338l-26 68l336 518h147v-492h152z" glyph-name="onequarter" horiz-adv-x="1599" unicode="¼"/><glyph d="M31 545v108h231v578l-201 -125l-47 84l279 180h100v-717h211v-108h-573zM326 -25l741 1393h115l-742 -1393h-114zM1008 0l-2 86q0 66 42 121t101 96t117.5 81t100.5 91t42 111q0 127 -152 127q-104 0 -182 -92l-74 84q109 119 269 118q119 0 194.5 -64.5t75.5 -168.5 q0 -74 -41 -138.5t-99.5 -107.5t-117.5 -80t-100 -75.5t-43 -75.5h426v-113h-557z" glyph-name="onehalf" horiz-adv-x="1654" unicode="½"/><glyph d="M379 1016q127 -12 199.5 -81t72.5 -169q0 -102 -90 -174t-215 -72q-184 0 -285 117l62 84q35 -41 96.5 -69.5t112.5 -28.5q90 0 140 38.5t50 112.5q0 76 -70.5 120t-215.5 44v78l227 239v5h-359v102h500v-105l-225 -235v-6zM444 -25l742 1393h114l-741 -1393h-115z M1100 307h227v336h-8zM1597 307v-94h-151v-213h-119v213h-338l-26 68l335 518h148v-492h151z" glyph-name="threequarters" horiz-adv-x="1630" unicode="¾"/><glyph d="M440 -401q-156 0 -249 88t-93 239q0 74 34 143.5t80 125t91 113t71.5 130t18.5 152.5h150q14 -109 -27 -206t-98.5 -158.5t-106.5 -139.5t-49 -149q0 -86 51.5 -141.5t147.5 -55.5q133 0 233 117l99 -88q-156 -170 -353 -170zM465 762q-51 0 -87 36t-36 95q0 55 36 91 t87 36q49 0 85 -36t36 -91q0 -59 -35 -95t-86 -36z" glyph-name="questiondown" horiz-adv-x="870" unicode="¿"/><glyph d="M352 547h404l-199 602h-8zM926 0l-127 410h-490l-129 -410h-174l455 1343h192l455 -1343h-182zM590 1427l-311 236l96 113l291 -263z" glyph-name="Agrave" horiz-adv-x="1114" unicode="À"/><glyph d="M352 547h404l-199 602h-8zM926 0l-127 410h-490l-129 -410h-174l455 1343h192l455 -1343h-182zM520 1427l-76 86l291 263l96 -113z" glyph-name="Aacute" horiz-adv-x="1114" unicode="Á"/><glyph d="M352 547h404l-199 602h-8zM926 0l-127 410h-490l-129 -410h-174l455 1343h192l455 -1343h-182zM252 1485l215 231h176l215 -231l-74 -53l-225 190h-8l-225 -190z" glyph-name="Acircumflex" horiz-adv-x="1114" unicode="Â"/><glyph d="M352 547h404l-199 602h-8zM926 0l-127 410h-490l-129 -410h-174l455 1343h192l455 -1343h-182zM709 1452q-66 0 -121.5 36t-99.5 72.5t-82.5 36.5t-65.5 -34.5t-33 -100.5l-114 8q6 117 61 184.5t147 67.5q66 0 121.5 -35.5t99.5 -72.5t83 -37q82 0 98 135l115 -8 q-6 -119 -61.5 -185.5t-147.5 -66.5z" glyph-name="Atilde" horiz-adv-x="1114" unicode="Ã"/><glyph d="M352 547h404l-199 602h-8zM926 0l-127 410h-490l-129 -410h-174l455 1343h192l455 -1343h-182zM344 1464q-43 0 -71.5 29t-28.5 72q0 45 28.5 72.5t71.5 27.5q45 0 72.5 -27.5t27.5 -72.5q0 -43 -27.5 -72t-72.5 -29zM766 1464q-45 0 -72.5 29t-27.5 72q0 45 27.5 72.5 t72.5 27.5q43 0 71.5 -27.5t28.5 -72.5q0 -43 -28.5 -72t-71.5 -29z" glyph-name="Adieresis" horiz-adv-x="1114" unicode="Ä"/><glyph d="M352 547h404l-199 602h-8zM926 0l-127 410h-490l-129 -410h-174l455 1343h192l455 -1343h-182zM555 1432q-88 0 -143.5 50t-55.5 134t55.5 135t143.5 51t143.5 -51t55.5 -135t-55.5 -134t-143.5 -50zM555 1505q43 0 73.5 30t30.5 81t-30.5 80.5t-73.5 29.5 q-47 0 -76.5 -29.5t-29.5 -80.5t29.5 -81t76.5 -30z" glyph-name="Aring" horiz-adv-x="1114" unicode="Å"/><glyph d="M469 528h352v680h-8zM993 145h590v-145h-762v391h-422l-202 -391h-181l705 1343h842l-27 -143h-543v-422h385v-145h-385v-488z" glyph-name="AE" horiz-adv-x="1683" unicode="Æ"/><glyph d="M692 -25q-258 0 -422 187.5t-164 509.5q0 317 167 506.5t429 189.5q121 0 236 -41t192 -110l-86 -121q-68 55 -160.5 89t-178.5 34q-193 0 -307.5 -146.5t-114.5 -396.5q0 -252 112.5 -401.5t302.5 -149.5q188 0 346 125l86 -123q-190 -152 -438 -152zM524 -463l-16 82 q127 10 175 33.5t48 68.5q0 41 -34.5 63.5t-123.5 35.5l91 186h108l-59 -137q76 -18 112.5 -51t36.5 -94q0 -171 -338 -187z" glyph-name="Ccedilla" horiz-adv-x="1169" unicode="Ç"/><glyph d="M184 0v1343h774l-20 -143h-584v-422h398v-145h-398v-488h625v-145h-795zM616 1427l-311 236l96 113l291 -263z" glyph-name="Egrave" horiz-adv-x="1079" unicode="È"/><glyph d="M184 0v1343h774l-20 -143h-584v-422h398v-145h-398v-488h625v-145h-795zM547 1427l-76 86l291 263l96 -113z" glyph-name="Eacute" horiz-adv-x="1079" unicode="É"/><glyph d="M184 0v1343h774l-20 -143h-584v-422h398v-145h-398v-488h625v-145h-795zM279 1485l215 231h176l215 -231l-74 -53l-225 190h-8l-226 -190z" glyph-name="Ecircumflex" horiz-adv-x="1079" unicode="Ê"/><glyph d="M184 0v1343h774l-20 -143h-584v-422h398v-145h-398v-488h625v-145h-795zM371 1464q-43 0 -72 29t-29 72q0 45 29 72.5t72 27.5q45 0 72.5 -27.5t27.5 -72.5q0 -43 -27.5 -72t-72.5 -29zM793 1464q-45 0 -73 29t-28 72q0 45 28 72.5t73 27.5q43 0 71.5 -27.5t28.5 -72.5 q0 -43 -28.5 -72t-71.5 -29z" glyph-name="Edieresis" horiz-adv-x="1079" unicode="Ë"/><glyph d="M184 0v1343h170v-1343h-170zM303 1427l-311 236l96 113l291 -263z" glyph-name="Igrave" horiz-adv-x="538" unicode="Ì"/><glyph d="M184 0v1343h170v-1343h-170zM233 1427l-75 86l291 263l96 -113z" glyph-name="Iacute" horiz-adv-x="538" unicode="Í"/><glyph d="M184 0v1343h170v-1343h-170zM-35 1485l215 231h176l215 -231l-73 -53l-226 190h-8l-225 -190z" glyph-name="Icircumflex" horiz-adv-x="538" unicode="Î"/><glyph d="M184 0v1343h170v-1343h-170zM57 1464q-43 0 -71.5 29t-28.5 72q0 45 28.5 72.5t71.5 27.5q45 0 73 -27.5t28 -72.5q0 -43 -28 -72t-73 -29zM479 1464q-45 0 -72.5 29t-27.5 72q0 45 27.5 72.5t72.5 27.5q43 0 72 -27.5t29 -72.5q0 -43 -29 -72t-72 -29z" glyph-name="Idieresis" horiz-adv-x="538" unicode="Ï"/><glyph d="M399 139h154q231 0 351 139.5t120 399.5q0 258 -119 392t-352 134h-154v-450h306v-97h-306v-518zM229 1343h336q311 0 473 -172t162 -493.5t-163 -499.5t-464 -178h-344v657h-161v97h161v589z" glyph-name="Eth" horiz-adv-x="1306" unicode="Ð"/><glyph d="M184 0v1343h176l611 -1075h8v1075h162v-1343h-176l-611 1073h-8v-1073h-162zM821 1452q-66 0 -121 36t-99 72.5t-83 36.5t-65.5 -34.5t-32.5 -100.5l-115 8q6 117 61.5 184.5t147.5 67.5q66 0 121 -35.5t99 -72.5t83 -37q84 0 98 135l115 -8q-6 -119 -61.5 -185.5 t-147.5 -66.5z" glyph-name="Ntilde" horiz-adv-x="1325" unicode="Ñ"/><glyph d="M680 -25q-256 0 -415 190.5t-159 512.5q0 319 158 504.5t416 185.5q256 0 415.5 -187.5t159.5 -502.5q0 -322 -159.5 -512.5t-415.5 -190.5zM680 125q178 0 287.5 150.5t109.5 402.5q0 248 -108.5 394.5t-288.5 146.5t-288.5 -146.5t-108.5 -394.5q0 -252 109.5 -402.5 t287.5 -150.5zM715 1427l-312 236l97 113l291 -263z" glyph-name="Ograve" horiz-adv-x="1359" unicode="Ò"/><glyph d="M680 -25q-256 0 -415 190.5t-159 512.5q0 319 158 504.5t416 185.5q256 0 415.5 -187.5t159.5 -502.5q0 -322 -159.5 -512.5t-415.5 -190.5zM680 125q178 0 287.5 150.5t109.5 402.5q0 248 -108.5 394.5t-288.5 146.5t-288.5 -146.5t-108.5 -394.5q0 -252 109.5 -402.5 t287.5 -150.5zM645 1427l-76 86l291 263l96 -113z" glyph-name="Oacute" horiz-adv-x="1359" unicode="Ó"/><glyph d="M680 -25q-256 0 -415 190.5t-159 512.5q0 319 158 504.5t416 185.5q256 0 415.5 -187.5t159.5 -502.5q0 -322 -159.5 -512.5t-415.5 -190.5zM680 125q178 0 287.5 150.5t109.5 402.5q0 248 -108.5 394.5t-288.5 146.5t-288.5 -146.5t-108.5 -394.5q0 -252 109.5 -402.5 t287.5 -150.5zM377 1485l215 231h176l215 -231l-74 -53l-225 190h-8l-225 -190z" glyph-name="Ocircumflex" horiz-adv-x="1359" unicode="Ô"/><glyph d="M680 -25q-256 0 -415 190.5t-159 512.5q0 319 158 504.5t416 185.5q256 0 415.5 -187.5t159.5 -502.5q0 -322 -159.5 -512.5t-415.5 -190.5zM680 125q178 0 287.5 150.5t109.5 402.5q0 248 -108.5 394.5t-288.5 146.5t-288.5 -146.5t-108.5 -394.5q0 -252 109.5 -402.5 t287.5 -150.5zM834 1452q-66 0 -121.5 36t-99.5 72.5t-82.5 36.5t-65.5 -34.5t-33 -100.5l-115 8q6 117 61.5 184.5t147.5 67.5q66 0 121 -35.5t99.5 -72.5t82.5 -37q84 0 99 135l114 -8q-6 -119 -61 -185.5t-147 -66.5z" glyph-name="Otilde" horiz-adv-x="1359" unicode="Õ"/><glyph d="M680 -25q-256 0 -415 190.5t-159 512.5q0 319 158 504.5t416 185.5q256 0 415.5 -187.5t159.5 -502.5q0 -322 -159.5 -512.5t-415.5 -190.5zM680 125q178 0 287.5 150.5t109.5 402.5q0 248 -108.5 394.5t-288.5 146.5t-288.5 -146.5t-108.5 -394.5q0 -252 109.5 -402.5 t287.5 -150.5zM469 1464q-43 0 -71.5 29t-28.5 72q0 45 28.5 72.5t71.5 27.5q45 0 72.5 -27.5t27.5 -72.5q0 -43 -27.5 -72t-72.5 -29zM891 1464q-45 0 -72.5 29t-27.5 72q0 45 27.5 72.5t72.5 27.5q43 0 71.5 -27.5t28.5 -72.5q0 -43 -28.5 -72t-71.5 -29z" glyph-name="Odieresis" horiz-adv-x="1359" unicode="Ö"/><glyph d="M193 258l-91 92l318 326l-318 323l91 93l317 -326l315 326l90 -93l-317 -323l317 -326l-90 -92l-315 328z" glyph-name="multiply" horiz-adv-x="1017" unicode="×"/><glyph d="M686 1368q256 0 416 -187.5t160 -502.5q0 -322 -160 -512.5t-416 -190.5t-414.5 190.5t-158.5 512.5q0 319 157.5 504.5t415.5 185.5zM289 678q0 -199 69 -334l590 762q-102 113 -262 113q-180 0 -288.5 -146.5t-108.5 -394.5zM686 125q178 0 287.5 150.5t109.5 402.5 q0 195 -65 326l-588 -766q106 -113 256 -113z" glyph-name="Oslash" horiz-adv-x="1359" unicode="Ø"/><glyph d="M662 -25q-223 0 -353.5 137.5t-130.5 442.5v788h170v-792q0 -426 314 -426q317 0 317 426v792h164v-788q0 -305 -130 -442.5t-351 -137.5zM694 1427l-311 236l96 113l291 -263z" glyph-name="Ugrave" horiz-adv-x="1320" unicode="Ù"/><glyph d="M662 -25q-223 0 -353.5 137.5t-130.5 442.5v788h170v-792q0 -426 314 -426q317 0 317 426v792h164v-788q0 -305 -130 -442.5t-351 -137.5zM625 1427l-76 86l291 263l96 -113z" glyph-name="Uacute" horiz-adv-x="1320" unicode="Ú"/><glyph d="M662 -25q-223 0 -353.5 137.5t-130.5 442.5v788h170v-792q0 -426 314 -426q317 0 317 426v792h164v-788q0 -305 -130 -442.5t-351 -137.5zM356 1485l215 231h177l215 -231l-74 -53l-225 190h-9l-225 -190z" glyph-name="Ucircumflex" horiz-adv-x="1320" unicode="Û"/><glyph d="M662 -25q-223 0 -353.5 137.5t-130.5 442.5v788h170v-792q0 -426 314 -426q317 0 317 426v792h164v-788q0 -305 -130 -442.5t-351 -137.5zM449 1464q-43 0 -72 29t-29 72q0 45 29 72.5t72 27.5q45 0 72.5 -27.5t27.5 -72.5q0 -43 -27.5 -72t-72.5 -29zM870 1464 q-45 0 -72.5 29t-27.5 72q0 45 27.5 72.5t72.5 27.5q43 0 72 -27.5t29 -72.5q0 -43 -29 -72t-72 -29z" glyph-name="Udieresis" horiz-adv-x="1320" unicode="Ü"/><glyph d="M401 0v520l-403 823h182l303 -671h9l307 671h178l-404 -823v-520h-172zM453 1427l-76 86l291 263l96 -113z" glyph-name="Yacute" horiz-adv-x="974" unicode="Ý"/><glyph d="M184 0v1343h170v-225h242q496 0 496 -395q0 -209 -133.5 -312.5t-362.5 -103.5h-242v-307h-170zM354 446h221q178 0 262.5 66t84.5 211q0 141 -83 198.5t-264 57.5h-221v-533z" glyph-name="Thorn" horiz-adv-x="1193" unicode="Þ"/><glyph d="M793 -25q-156 0 -289 101l67 119q106 -88 217 -89q82 0 127.5 47.5t45.5 116.5q0 66 -42 113t-101.5 78t-118 62.5t-100.5 88t-42 134t45 145t90 134.5t45 138q0 82 -43 130t-127 48q-231 0 -231 -317v-1024h-168v1055q0 195 105.5 309.5t295.5 114.5q156 0 245 -85 t89 -214q0 -70 -28.5 -132.5t-64.5 -100.5t-64.5 -86t-28.5 -95q0 -53 42 -93t100.5 -70t117.5 -64.5t101 -100t42 -157.5q0 -131 -88.5 -218.5t-238.5 -87.5z" glyph-name="germandbls" horiz-adv-x="1179" unicode="ß"/><glyph d="M1008 152v-129q-35 -23 -117 -23q-59 0 -101 29.5t-55 60.5l-12 29h-6q-76 -63 -154 -101q-84 -43 -176 -43q-125 0 -208 78t-83 205q0 324 611 324v28q0 143 -53.5 207t-166.5 64q-76 0 -147.5 -21.5t-103.5 -44.5l-33 -20l-94 127q18 10 52 27.5t133 45t195 27.5 q387 0 388 -412v-377q0 -57 13 -77.5t48 -20.5q41 1 70 17zM707 473q-446 0 -447 -203q0 -74 48 -116.5t128 -42.5q115 0 271 125v237zM565 1174l-321 313l118 112l289 -342z" glyph-name="agrave" horiz-adv-x="1032" unicode="à"/><glyph d="M1008 152v-129q-35 -23 -117 -23q-59 0 -101 29.5t-55 60.5l-12 29h-6q-76 -63 -154 -101q-84 -43 -176 -43q-125 0 -208 78t-83 205q0 324 611 324v28q0 143 -53.5 207t-166.5 64q-76 0 -147.5 -21.5t-103.5 -44.5l-33 -20l-94 127q18 10 52 27.5t133 45t195 27.5 q387 0 388 -412v-377q0 -57 13 -77.5t48 -20.5q41 1 70 17zM707 473q-446 0 -447 -203q0 -74 48 -116.5t128 -42.5q115 0 271 125v237zM508 1174l-86 83l289 342l118 -112z" glyph-name="aacute" horiz-adv-x="1032" unicode="á"/><glyph d="M1008 152v-129q-35 -23 -117 -23q-59 0 -101 29.5t-55 60.5l-12 29h-6q-76 -63 -154 -101q-84 -43 -176 -43q-125 0 -208 78t-83 205q0 324 611 324v28q0 143 -53.5 207t-166.5 64q-76 0 -147.5 -21.5t-103.5 -44.5l-33 -20l-94 127q18 10 52 27.5t133 45t195 27.5 q387 0 388 -412v-377q0 -57 13 -77.5t48 -20.5q41 1 70 17zM707 473q-446 0 -447 -203q0 -74 48 -116.5t128 -42.5q115 0 271 125v237zM219 1229l234 287h168l233 -287l-72 -66l-241 232h-9l-241 -232z" glyph-name="acircumflex" horiz-adv-x="1032" unicode="â"/><glyph d="M1008 152v-129q-35 -23 -117 -23q-59 0 -101 29.5t-55 60.5l-12 29h-6q-76 -63 -154 -101q-84 -43 -176 -43q-125 0 -208 78t-83 205q0 324 611 324v28q0 143 -53.5 207t-166.5 64q-76 0 -147.5 -21.5t-103.5 -44.5l-33 -20l-94 127q18 10 52 27.5t133 45t195 27.5 q387 0 388 -412v-377q0 -57 13 -77.5t48 -20.5q41 1 70 17zM707 236v237q-446 0 -447 -203q0 -74 48 -116.5t128 -42.5q115 0 271 125zM684 1182q-61 0 -114.5 43t-97.5 86t-81 43q-86 0 -96 -162l-113 6q4 127 55.5 203t151.5 76q63 0 115.5 -43t96.5 -86t83 -43 q84 0 94 161l113 -8q-4 -125 -55.5 -200.5t-151.5 -75.5z" glyph-name="atilde" horiz-adv-x="1032" unicode="ã"/><glyph d="M1008 152v-129q-35 -23 -117 -23q-59 0 -101 29.5t-55 60.5l-12 29h-6q-76 -63 -154 -101q-84 -43 -176 -43q-125 0 -208 78t-83 205q0 324 611 324v28q0 143 -53.5 207t-166.5 64q-76 0 -147.5 -21.5t-103.5 -44.5l-33 -20l-94 127q18 10 52 27.5t133 45t195 27.5 q387 0 388 -412v-377q0 -57 13 -77.5t48 -20.5q41 1 70 17zM707 236v237q-446 0 -447 -203q0 -74 48 -116.5t128 -42.5q115 0 271 125zM340 1202q-45 0 -73.5 30t-28.5 73t28.5 72.5t73.5 29.5q43 0 71.5 -29.5t28.5 -72.5t-28.5 -73t-71.5 -30zM733 1202q-43 0 -71.5 30 t-28.5 73t28.5 72.5t71.5 29.5q45 0 74 -29.5t29 -72.5t-29 -73t-74 -30z" glyph-name="adieresis" horiz-adv-x="1032" unicode="ä"/><glyph d="M1008 152v-129q-35 -23 -117 -23q-59 0 -101 29.5t-55 60.5l-12 29h-6q-76 -63 -154 -101q-84 -43 -176 -43q-125 0 -208 78t-83 205q0 324 611 324v28q0 143 -53.5 207t-166.5 64q-76 0 -147.5 -21.5t-103.5 -44.5l-33 -20l-94 127q18 10 52 27.5t133 45t195 27.5 q387 0 388 -412v-377q0 -57 13 -77.5t48 -20.5q41 1 70 17zM707 236v237q-446 0 -447 -203q0 -74 48 -116.5t128 -42.5q115 0 271 125zM536.5 1135q-102.5 0 -164 56t-61.5 146q0 88 61.5 144.5t164 56.5t164 -56.5t61.5 -144.5q0 -90 -61.5 -146t-164 -56zM536.5 1210 q51.5 0 84 34t32.5 93q0 55 -33.5 90t-83 35t-83 -34.5t-33.5 -90.5q0 -59 32.5 -93t84 -34z" glyph-name="aring" horiz-adv-x="1032" unicode="å"/><glyph d="M836 143q-6 -6 -16.5 -17t-48.5 -41t-83 -51.5t-119.5 -40t-156.5 -18.5q-125 0 -208 77t-83 204q0 324 610 324v28q0 143 -53 207t-166 64q-76 0 -147.5 -21.5t-106.5 -42.5l-33 -20l-92 125q18 10 52 27.5t133.5 45t195.5 27.5q240 0 332 -158q129 158 354 158 q207 0 310.5 -130t103.5 -372v-59h-707q0 -154 86 -249t217 -95q182 0 295 112l107 -106q-158 -145 -402 -146q-242 0 -370 168h-4zM461 109q90 0 181 40.5t134 102.5q-37 90 -43 205l-2 4q-446 0 -446 -193q0 -74 48 -116.5t128 -42.5zM911 575h539q0 305 -250 306 q-131 0 -210 -86.5t-79 -219.5z" glyph-name="ae" horiz-adv-x="1724" unicode="æ"/><glyph d="M586 -25q213 0 370 148l-84 117q-125 -125 -286 -125q-141 0 -229.5 107.5t-88.5 279.5t87 275.5t231 103.5q160 0 286 -123l84 116q-160 145 -370 146q-219 0 -355.5 -134t-136.5 -378t138.5 -388.5t353.5 -144.5zM379 -463l-17 82q127 10 175.5 33.5t48.5 68.5 q0 41 -35 63.5t-123 35.5l90 186h109l-60 -137q76 -18 113 -51t37 -94q0 -171 -338 -187z" glyph-name="ccedilla" horiz-adv-x="933" unicode="ç"/><glyph d="M977 121q-152 -145 -402 -146q-215 0 -347 138.5t-132 382.5q0 246 127 385t336 139q203 0 311.5 -132t108.5 -370v-59h-707q0 -154 86 -249t217 -95q180 0 297 110zM276 575h539q0 139 -65.5 222.5t-190.5 83.5q-131 0 -207 -86.5t-76 -219.5zM571 1174l-321 313 l119 112l288 -342z" glyph-name="egrave" horiz-adv-x="1015" unicode="è"/><glyph d="M977 121q-152 -145 -402 -146q-215 0 -347 138.5t-132 382.5q0 246 127 385t336 139q203 0 311.5 -132t108.5 -370v-59h-707q0 -154 86 -249t217 -95q180 0 297 110zM276 575h539q0 139 -65.5 222.5t-190.5 83.5q-131 0 -207 -86.5t-76 -219.5zM514 1174l-86 83l289 342 l119 -112z" glyph-name="eacute" horiz-adv-x="1015" unicode="é"/><glyph d="M977 121q-152 -145 -402 -146q-215 0 -347 138.5t-132 382.5q0 246 127 385t336 139q203 0 311.5 -132t108.5 -370v-59h-707q0 -154 86 -249t217 -95q180 0 297 110zM276 575h539q0 139 -65.5 222.5t-190.5 83.5q-131 0 -207 -86.5t-76 -219.5zM225 1229l234 287h168 l233 -287l-72 -66l-241 232h-8l-242 -232z" glyph-name="ecircumflex" horiz-adv-x="1015" unicode="ê"/><glyph d="M872 225l105 -104q-152 -145 -402 -146q-215 0 -347 138.5t-132 382.5q0 246 127 385t336 139q203 0 311.5 -132t108.5 -370v-59h-707q0 -154 86 -249t217 -95q180 -1 297 110zM276 575h539q0 139 -65.5 222.5t-190.5 83.5q-131 0 -207 -86.5t-76 -219.5zM346 1202 q-45 0 -73.5 30t-28.5 73t28.5 72.5t73.5 29.5q43 0 71.5 -29.5t28.5 -72.5t-28.5 -73t-71.5 -30zM739 1202q-43 0 -71.5 30t-28.5 73t28.5 72.5t71.5 29.5q45 0 74 -29.5t29 -72.5t-29 -73t-74 -30z" glyph-name="edieresis" horiz-adv-x="1015" unicode="ë"/><glyph d="M168 0v995h168v-995h-168zM281 1174l-322 313l119 112l289 -342z" glyph-name="igrave" horiz-adv-x="503" unicode="ì"/><glyph d="M168 0v995h168v-995h-168zM223 1174l-86 83l289 342l119 -112z" glyph-name="iacute" horiz-adv-x="503" unicode="í"/><glyph d="M168 0v995h168v-995h-168zM-66 1229l234 287h168l233 -287l-71 -66l-242 232h-8l-242 -232z" glyph-name="icircumflex" horiz-adv-x="503" unicode="î"/><glyph d="M168 0v995h168v-995h-168zM55 1202q-45 0 -73.5 30t-28.5 73t28.5 72.5t73.5 29.5q43 0 72 -29.5t29 -72.5t-29 -73t-72 -30zM449 1202q-43 0 -72 30t-29 73t29 72.5t72 29.5q45 0 73.5 -29.5t28.5 -72.5t-28.5 -73t-73.5 -30z" glyph-name="idieresis" horiz-adv-x="503" unicode="ï"/><glyph d="M555 115q131 0 203.5 108.5t72.5 259.5q0 119 -71 209q-70 92 -205 92q-133 0 -210 -92t-77 -237q0 -150 84 -245t203 -95zM979 1374l-264 -135q279 -283 278 -713q0 -246 -121.5 -398.5t-320.5 -152.5q-180 0 -311 132.5t-131 347.5q0 205 119.5 332.5t301.5 127.5 q170 0 275 -135q-51 225 -219 394l-289 -150l-49 84l260 133q-111 84 -229 148l77 106q182 -102 283 -186l291 149z" glyph-name="eth" horiz-adv-x="1116" unicode="ð"/><glyph d="M168 0v995h154v-143h6q168 168 334 168q303 0 303 -389v-631h-168v608q0 141 -45 203.5t-144 62.5q-74 0 -131 -34.5t-141 -118.5v-721h-168zM745 1182q-61 0 -114 43t-97.5 86t-80.5 43q-86 0 -97 -162l-112 6q4 127 55 203t152 76q63 0 115 -43t96.5 -86t82.5 -43 q84 0 95 161l112 -8q-4 -125 -55.5 -200.5t-151.5 -75.5z" glyph-name="ntilde" horiz-adv-x="1120" unicode="ñ"/><glyph d="M555 -25q-193 0 -327 141.5t-134 379.5q0 242 134 383t327 141t327 -141.5t134 -382.5q0 -238 -134 -379.5t-327 -141.5zM555 115q129 0 208 105.5t79 275.5q0 172 -79 278.5t-208 106.5t-208 -106.5t-79 -278.5q0 -170 79 -275.5t208 -105.5zM584 1174l-322 313l119 112 l289 -342z" glyph-name="ograve" horiz-adv-x="1110" unicode="ò"/><glyph d="M555 -25q-193 0 -327 141.5t-134 379.5q0 242 134 383t327 141t327 -141.5t134 -382.5q0 -238 -134 -379.5t-327 -141.5zM555 115q129 0 208 105.5t79 275.5q0 172 -79 278.5t-208 106.5t-208 -106.5t-79 -278.5q0 -170 79 -275.5t208 -105.5zM526 1174l-86 83l289 342 l119 -112z" glyph-name="oacute" horiz-adv-x="1110" unicode="ó"/><glyph d="M555 -25q-193 0 -327 141.5t-134 379.5q0 242 134 383t327 141t327 -141.5t134 -382.5q0 -238 -134 -379.5t-327 -141.5zM555 115q129 0 208 105.5t79 275.5q0 172 -79 278.5t-208 106.5t-208 -106.5t-79 -278.5q0 -170 79 -275.5t208 -105.5zM238 1229l233 287h168 l233 -287l-71 -66l-242 232h-8l-242 -232z" glyph-name="ocircumflex" horiz-adv-x="1110" unicode="ô"/><glyph d="M555 -25q-193 0 -327 141.5t-134 379.5q0 242 134 383t327 141t327 -141.5t134 -382.5q0 -238 -134 -379.5t-327 -141.5zM555 115q129 0 208 105.5t79 275.5q0 172 -79 278.5t-208 106.5t-208 -106.5t-79 -278.5q0 -170 79 -275.5t208 -105.5zM702 1182q-61 0 -114 43 t-97.5 86t-80.5 43q-86 0 -97 -162l-112 6q4 127 55 203t152 76q63 0 115 -43t96.5 -86t82.5 -43q84 0 95 161l112 -8q-4 -125 -55.5 -200.5t-151.5 -75.5z" glyph-name="otilde" horiz-adv-x="1110" unicode="õ"/><glyph d="M555 -25q-193 0 -327 141.5t-134 379.5q0 242 134 383t327 141t327 -141.5t134 -382.5q0 -238 -134 -379.5t-327 -141.5zM555 115q129 0 208 105.5t79 275.5q0 172 -79 278.5t-208 106.5t-208 -106.5t-79 -278.5q0 -170 79 -275.5t208 -105.5zM358 1202q-45 0 -73.5 30 t-28.5 73t28.5 72.5t73.5 29.5q43 0 72 -29.5t29 -72.5t-29 -73t-72 -30zM752 1202q-43 0 -72 30t-29 73t29 72.5t72 29.5q45 0 73.5 -29.5t28.5 -72.5t-28.5 -73t-73.5 -30z" glyph-name="odieresis" horiz-adv-x="1110" unicode="ö"/><glyph d="M70 612v127h878v-127h-878zM510 197q-49 0 -81 30.5t-32 79.5q0 47 33 78t80 31t79 -31t32 -78q0 -49 -32 -79.5t-79 -30.5zM510 934q-49 0 -81 30.5t-32 79.5q0 47 33 78t80 31t79 -30.5t32 -78.5q0 -49 -32 -79.5t-79 -30.5z" glyph-name="divide" horiz-adv-x="1017" unicode="÷"/><glyph d="M555 1020q193 0 327 -141.5t134 -382.5q0 -238 -134 -379.5t-327 -141.5t-327 141.5t-134 379.5q0 242 134 383t327 141zM555 881q-129 0 -208 -106.5t-79 -278.5q0 -127 43 -217l430 520q-77 82 -186 82zM555 115q129 0 208 105.5t79 275.5q0 125 -45 221l-430 -522 q75 -80 188 -80z" glyph-name="oslash" horiz-adv-x="1110" unicode="ø"/><glyph d="M459 -25q-305 0 -305 390v630h170v-608q0 -141 44 -203.5t142 -62.5q76 0 134 38t134 130v706h168v-995h-153v156h-7q-153 -181 -327 -181zM586 1174l-322 313l119 112l289 -342z" glyph-name="ugrave" horiz-adv-x="1114" unicode="ù"/><glyph d="M459 -25q-305 0 -305 390v630h170v-608q0 -141 44 -203.5t142 -62.5q76 0 134 38t134 130v706h168v-995h-153v156h-7q-153 -181 -327 -181zM528 1174l-86 83l289 342l119 -112z" glyph-name="uacute" horiz-adv-x="1114" unicode="ú"/><glyph d="M459 -25q-305 0 -305 390v630h170v-608q0 -141 44 -203.5t142 -62.5q76 0 134 38t134 130v706h168v-995h-153v156h-7q-153 -181 -327 -181zM240 1229l233 287h168l233 -287l-71 -66l-242 232h-8l-242 -232z" glyph-name="ucircumflex" horiz-adv-x="1114" unicode="û"/><glyph d="M459 -25q-305 0 -305 390v630h170v-608q0 -141 44 -203.5t142 -62.5q76 0 134 38t134 130v706h168v-995h-153v156h-7q-153 -181 -327 -181zM360 1202q-45 0 -73.5 30t-28.5 73t28.5 72.5t73.5 29.5q43 0 72 -29.5t29 -72.5t-29 -73t-72 -30zM754 1202q-43 0 -72 30 t-29 73t29 72.5t72 29.5q45 0 73.5 -29.5t28.5 -72.5t-28.5 -73t-73.5 -30z" glyph-name="udieresis" horiz-adv-x="1114" unicode="ü"/><glyph d="M184 -428q-94 0 -164 39l80 115q33 -14 76 -15q154 0 225 213l23 74l-399 997h174l202 -551q61 -176 97 -280h8q18 53 49 160.5t35 119.5l178 551h164l-375 -1077q-61 -166 -146.5 -256t-226.5 -90zM467 1174l-86 83l289 342l118 -112z" glyph-name="yacute" horiz-adv-x="956" unicode="ý"/><glyph d="M168 -420v1878h168v-397l-2 -170q158 129 303 129q193 0 297 -136t104 -372q0 -244 -125 -390.5t-305 -146.5q-135 0 -274 111l2 -170v-336h-168zM580 117q125 0 204.5 107.5t79.5 287.5q0 367 -262 367q-115 0 -266 -136v-522q125 -104 244 -104z" glyph-name="thorn" horiz-adv-x="1136" unicode="þ"/><glyph d="M184 -428q-94 0 -164 39l80 115q33 -14 76 -15q154 0 225 213l23 74l-399 997h174l202 -551q61 -176 97 -280h8q18 53 49 160.5t35 119.5l178 551h164l-375 -1077q-61 -166 -146.5 -256t-226.5 -90zM299 1202q-45 0 -73.5 30t-28.5 73t28.5 72.5t73.5 29.5 q43 0 71.5 -29.5t28.5 -72.5t-28.5 -73t-71.5 -30zM692 1202q-43 0 -71.5 30t-28.5 73t28.5 72.5t71.5 29.5q45 0 74 -29.5t29 -72.5t-29 -73t-74 -30z" glyph-name="ydieresis" horiz-adv-x="956" unicode="ÿ"/><glyph d="M352 547h404l-199 602h-8zM926 0l-127 410h-490l-129 -410h-174l455 1343h192l455 -1343h-182zM281 1505v117h548v-117h-548z" glyph-name="Amacron" horiz-adv-x="1114" unicode="Ā"/><glyph d="M1008 152v-129q-35 -23 -117 -23q-59 0 -101 29.5t-55 60.5l-12 29h-6q-76 -63 -154 -101q-84 -43 -176 -43q-125 0 -208 78t-83 205q0 324 611 324v28q0 143 -53.5 207t-166.5 64q-76 0 -147.5 -21.5t-103.5 -44.5l-33 -20l-94 127q18 10 52 27.5t133 45t195 27.5 q387 0 388 -412v-377q0 -57 13 -77.5t48 -20.5q41 1 70 17zM707 473q-446 0 -447 -203q0 -74 48 -116.5t128 -42.5q115 0 271 125v237zM264 1231v117h545v-117h-545z" glyph-name="amacron" horiz-adv-x="1032" unicode="ā"/><glyph d="M352 547h404l-199 602h-8zM926 0l-127 410h-490l-129 -410h-174l455 1343h192l455 -1343h-182zM555 1444q-135 0 -210 74.5t-89 189.5l102 16q12 -76 62.5 -124t134.5 -48t134 48.5t63 123.5l102 -16q-14 -115 -89 -189.5t-210 -74.5z" glyph-name="Abreve" horiz-adv-x="1114" unicode="Ă"/><glyph d="M1008 152v-129q-35 -23 -117 -23q-59 0 -101 29.5t-55 60.5l-12 29h-6q-76 -63 -154 -101q-84 -43 -176 -43q-125 0 -208 78t-83 205q0 324 611 324v28q0 143 -53.5 207t-166.5 64q-76 0 -147.5 -21.5t-103.5 -44.5l-33 -20l-94 127q18 10 52 27.5t133 45t195 27.5 q387 0 388 -412v-377q0 -57 13 -77.5t48 -20.5q41 1 70 17zM707 236v237q-446 0 -447 -203q0 -74 48 -116.5t128 -42.5q115 0 271 125zM536.5 1169q-153.5 0 -232.5 89.5t-87 220.5l105 16q14 -88 68 -150.5t146.5 -62.5t146.5 62.5t69 150.5l104 -16q-8 -129 -87 -219.5 t-232.5 -90.5z" glyph-name="abreve" horiz-adv-x="1032" unicode="ă"/><glyph d="M352 547h404l-199 612h-8zM1124 -285l47 -92q-76 -57 -163 -57q-86 0 -141.5 47t-55.5 131q0 76 46 145.5t108 110.5h-39l-127 410h-490l-129 -410h-174l455 1343h192l455 -1343q-72 -29 -118 -92.5t-46 -126.5q0 -45 27.5 -69.5t66.5 -24.5q45 -1 86 28z" glyph-name="Aogonek" horiz-adv-x="1114" unicode="Ą"/><glyph d="M920 0q-166 -82 -166 -209q0 -45 27.5 -69.5t66.5 -24.5q45 0 84 27l43 -84q-70 -55 -160 -56q-82 0 -134 45t-52 129q0 162 164 269q-25 16 -42.5 38.5t-21.5 36.5l-6 17h-6q-76 -63 -154 -101q-84 -43 -176 -43q-125 0 -208 78t-83 205q0 322 611 322v28 q0 143 -53.5 207t-166.5 64q-76 0 -147.5 -21.5t-103.5 -42.5l-33 -20l-94 125q18 10 52 27.5t133 45t195 27.5q387 0 388 -412v-375q0 -57 13 -77.5t48 -20.5q41 0 70 17v-129q-27 -19 -88 -23zM707 236v249q-74 0 -141.5 -8t-142.5 -29.5t-119 -66.5t-44 -111 q0 -74 48 -116.5t128 -42.5q115 0 271 125z" glyph-name="aogonek" horiz-adv-x="1083" unicode="ą"/><glyph d="M692 -25q-258 0 -422 187.5t-164 509.5q0 317 167 506.5t429 189.5q121 0 236 -41t192 -110l-86 -121q-68 55 -160.5 89t-178.5 34q-193 0 -307.5 -146.5t-114.5 -396.5q0 -252 112.5 -401.5t302.5 -149.5q188 0 346 125l86 -123q-190 -152 -438 -152zM641 1427l-76 86 l291 263l96 -113z" glyph-name="Cacute" horiz-adv-x="1169" unicode="Ć"/><glyph d="M586 -25q-215 0 -353.5 144.5t-138.5 388.5t136.5 378t355.5 134q211 0 370 -146l-84 -116q-127 123 -286 123q-143 0 -230.5 -103.5t-87.5 -275.5t88 -279.5t230 -107.5q162 0 286 125l84 -117q-157 -148 -370 -148zM543 1174l-86 83l288 342l119 -112z" glyph-name="cacute" horiz-adv-x="933" unicode="ć"/><glyph d="M692 -25q-258 0 -422 187.5t-164 509.5q0 317 167 506.5t429 189.5q121 0 236 -41t192 -110l-86 -121q-68 55 -160.5 89t-178.5 34q-193 0 -307.5 -146.5t-114.5 -396.5q0 -252 112.5 -401.5t302.5 -149.5q188 0 346 125l86 -123q-190 -152 -438 -152zM373 1485l215 231 h176l215 -231l-74 -53l-225 190h-8l-226 -190z" glyph-name="Ccircumflex" horiz-adv-x="1169" unicode="Ĉ"/><glyph d="M586 -25q-215 0 -353.5 144.5t-138.5 388.5t136.5 378t355.5 134q211 0 370 -146l-84 -116q-127 123 -286 123q-143 0 -230.5 -103.5t-87.5 -275.5t88 -279.5t230 -107.5q162 0 286 125l84 -117q-157 -148 -370 -148zM254 1229l233 287h168l234 -287l-72 -66l-242 232h-8 l-241 -232z" glyph-name="ccircumflex" horiz-adv-x="933" unicode="ĉ"/><glyph d="M692 -25q-258 0 -422 187.5t-164 509.5q0 317 167 506.5t429 189.5q121 0 236 -41t192 -110l-86 -121q-68 55 -160.5 89t-178.5 34q-193 0 -307.5 -146.5t-114.5 -396.5q0 -252 112.5 -401.5t302.5 -149.5q188 0 346 125l86 -123q-190 -152 -438 -152zM676 1462 q-49 0 -83 31t-34 80q0 47 34 77.5t83 30.5t83 -30.5t34 -77.5q0 -49 -34 -80t-83 -31z" glyph-name="Cdotaccent" horiz-adv-x="1169" unicode="Ċ"/><glyph d="M586 -25q-215 0 -353.5 144.5t-138.5 388.5t136.5 378t355.5 134q211 0 370 -146l-84 -116q-127 123 -286 123q-143 0 -230.5 -103.5t-87.5 -275.5t88 -279.5t230 -107.5q162 0 286 125l84 -117q-157 -148 -370 -148zM571 1200q-47 0 -78.5 31t-31.5 80q0 47 31.5 78.5 t78.5 31.5t79 -31.5t32 -78.5q0 -49 -32 -80t-79 -31z" glyph-name="cdotaccent" horiz-adv-x="933" unicode="ċ"/><glyph d="M692 -25q-258 0 -422 187.5t-164 509.5q0 317 167 506.5t429 189.5q121 0 236 -41t192 -110l-86 -121q-68 55 -160.5 89t-178.5 34q-193 0 -307.5 -146.5t-114.5 -396.5q0 -252 112.5 -401.5t302.5 -149.5q188 0 346 125l86 -123q-190 -152 -438 -152zM588 1446l-215 231 l73 54l226 -189h8l225 189l74 -54l-215 -231h-176z" glyph-name="Ccaron" horiz-adv-x="1169" unicode="Č"/><glyph d="M586 -25q-215 0 -353.5 144.5t-138.5 388.5t136.5 378t355.5 134q211 0 370 -146l-84 -116q-127 123 -286 123q-143 0 -230.5 -103.5t-87.5 -275.5t88 -279.5t230 -107.5q162 0 286 125l84 -117q-157 -148 -370 -148zM487 1176l-233 286l72 66l241 -232h8l242 232l72 -66 l-234 -286h-168z" glyph-name="ccaron" horiz-adv-x="933" unicode="č"/><glyph d="M184 0v1343h336q311 0 473 -172t162 -493.5t-163 -499.5t-464 -178h-344zM354 139h154q231 0 351 139.5t120 399.5q0 258 -119 392t-352 134h-154v-1065zM541 1446l-215 231l73 54l226 -189h8l225 189l74 -54l-215 -231h-176z" glyph-name="Dcaron" horiz-adv-x="1259" unicode="Ď"/><glyph d="M508 -25q-190 0 -301 136.5t-111 384.5q0 233 127 378.5t305 145.5q150 0 271 -115v447l170 45v-1397h-154v117h-6q-149 -142 -301 -142zM545 117q131 0 254 137v520q-117 104 -242 105q-121 0 -204 -106.5t-83 -274.5q0 -180 72 -280.5t203 -100.5zM1085 1122l-8 434 h121l-2 -116l-29 -318h-82z" glyph-name="dcaron" horiz-adv-x="1173" unicode="ď"/><glyph d="M399 139h154q231 0 351 139.5t120 399.5q0 258 -119 392t-352 134h-154v-450h306v-97h-306v-518zM229 1343h336q311 0 473 -172t162 -493.5t-163 -499.5t-464 -178h-344v657h-161v97h161v589z" glyph-name="Dcroat" horiz-adv-x="1306" unicode="Đ"/><glyph d="M799 254v440q-117 104 -242 105q-119 0 -203 -97.5t-84 -242.5q0 -160 73 -251t202 -91q131 0 254 137zM1116 1268v-99h-147v-1169h-156v113h-6q-137 -137 -299 -138q-190 0 -301 127t-111 355q0 213 128 348t304 135q80 0 137.5 -27.5t133.5 -89.5v346h-330v99h330v153 l170 37v-190h147z" glyph-name="dcroat" horiz-adv-x="1136" unicode="đ"/><glyph d="M184 0v1343h774l-20 -143h-584v-422h398v-145h-398v-488h625v-145h-795zM307 1505v117h549v-117h-549z" glyph-name="Emacron" horiz-adv-x="1079" unicode="Ē"/><glyph d="M977 121q-152 -145 -402 -146q-215 0 -347 138.5t-132 382.5q0 246 127 385t336 139q203 0 311.5 -132t108.5 -370v-59h-707q0 -154 86 -249t217 -95q180 0 297 110zM276 575h539q0 139 -65.5 222.5t-190.5 83.5q-131 0 -207 -86.5t-76 -219.5zM270 1231v117h545v-117 h-545z" glyph-name="emacron" horiz-adv-x="1015" unicode="ē"/><glyph d="M184 0v1343h774l-20 -143h-584v-422h398v-145h-398v-488h625v-145h-795zM581.5 1444q-135.5 0 -210 74.5t-88.5 189.5l102 16q12 -76 62.5 -124t134.5 -48t134 48.5t62 123.5l103 -16q-14 -115 -89 -189.5t-210.5 -74.5z" glyph-name="Ebreve" horiz-adv-x="1079" unicode="Ĕ"/><glyph d="M872 225l105 -104q-152 -145 -402 -146q-215 0 -347 138.5t-132 382.5q0 246 127 385t336 139q203 0 311.5 -132t108.5 -370v-59h-707q0 -154 86 -249t217 -95q180 -1 297 110zM276 575h539q0 139 -65.5 222.5t-190.5 83.5q-131 0 -207 -86.5t-76 -219.5zM542.5 1169 q-153.5 0 -232.5 89.5t-87 220.5l105 16q14 -88 68.5 -150.5t146.5 -62.5t146 62.5t69 150.5l104 -16q-8 -129 -87 -219.5t-232.5 -90.5z" glyph-name="ebreve" horiz-adv-x="1015" unicode="ĕ"/><glyph d="M184 0v1343h774l-20 -143h-584v-422h398v-145h-398v-488h625v-145h-795zM581.5 1462q-49.5 0 -83 31t-33.5 80q0 47 33.5 77.5t83 30.5t83 -30.5t33.5 -77.5q0 -49 -33.5 -80t-83 -31z" glyph-name="Edotaccent" horiz-adv-x="1079" unicode="Ė"/><glyph d="M872 225l105 -104q-152 -145 -402 -146q-215 0 -347 138.5t-132 382.5q0 246 127 385t336 139q203 0 311.5 -132t108.5 -370v-59h-707q0 -154 86 -249t217 -95q180 -1 297 110zM276 575h539q0 139 -65.5 222.5t-190.5 83.5q-131 0 -207 -86.5t-76 -219.5zM543 1200 q-47 0 -79 31t-32 80q0 47 32 78.5t79 31.5t78.5 -31.5t31.5 -78.5q0 -49 -31.5 -80t-78.5 -31z" glyph-name="edotaccent" horiz-adv-x="1015" unicode="ė"/><glyph d="M848 -434q-86 0 -141.5 47t-55.5 131q0 80 45 147.5t109 108.5h-621v1343h774l-20 -143h-584v-422h400v-145h-400v-488h625v-145h-6q-72 -8 -130.5 -73.5t-58.5 -145.5q0 -45 29 -69.5t70 -24.5t82 28l47 -92q-72 -57 -164 -57z" glyph-name="Eogonek" horiz-adv-x="1079" unicode="Ę"/><glyph d="M979 518v-59h-707q0 -154 86 -249t217 -95q178 0 295 110l107 -104q-43 -41 -96 -74q-152 -123 -152 -235q0 -45 27.5 -70t68.5 -25q43 0 82 27l43 -84q-70 -55 -159 -55q-82 0 -133.5 45t-51.5 129q0 106 90 205q-49 -8 -121 -9q-215 0 -347 138.5t-132 382.5 q0 246 130 385t339 139q207 0 310.5 -130t103.5 -372zM276 575h539q0 305 -250 306q-131 0 -210 -86.5t-79 -219.5z" glyph-name="eogonek" horiz-adv-x="1073" unicode="ę"/><glyph d="M184 0v1343h774l-20 -143h-584v-422h398v-145h-398v-488h625v-145h-795zM494 1446l-215 231l73 54l226 -189h8l225 189l74 -54l-215 -231h-176z" glyph-name="Ecaron" horiz-adv-x="1079" unicode="Ě"/><glyph d="M977 121q-152 -145 -402 -146q-215 0 -347 138.5t-132 382.5q0 246 127 385t336 139q203 0 311.5 -132t108.5 -370v-59h-707q0 -154 86 -249t217 -95q180 0 297 110zM276 575h539q0 139 -65.5 222.5t-190.5 83.5q-131 0 -207 -86.5t-76 -219.5zM459 1176l-234 286l72 66 l242 -232h8l241 232l72 -66l-233 -286h-168z" glyph-name="ecaron" horiz-adv-x="1015" unicode="ě"/><glyph d="M713 -25q-270 0 -438.5 186.5t-168.5 510.5q0 319 172.5 507.5t444.5 188.5q242 0 387 -129l-90 -131q-125 111 -293 111q-203 0 -323.5 -146.5t-120.5 -396.5q0 -256 116.5 -403.5t329.5 -147.5q152 0 242 80v467l155 41v-582q-151 -156 -413 -156zM420 1485l215 231 h176l215 -231l-74 -53l-225 190h-8l-225 -190z" glyph-name="Gcircumflex" horiz-adv-x="1263" unicode="Ĝ"/><glyph d="M961 999l-43 -139l-162 6q82 -82 82 -204q0 -156 -104.5 -251.5t-260.5 -95.5q-76 0 -149 35q-63 -55 -64 -119q0 -109 176 -108h170q176 0 262 -57.5t86 -180.5q0 -145 -138 -244.5t-365 -99.5q-186 0 -285.5 63.5t-99.5 188.5q0 29 6 50.5t10 29.5l6 6h156 q-6 -8 -10.5 -19.5t-4.5 -19.5v-6q0 -176 246 -176q137 0 226.5 60.5t89.5 142.5q0 68 -49.5 95.5t-151.5 27.5h-150q-164 0 -242.5 51t-78.5 170q0 111 108 184v8q-129 109 -129 268.5t108.5 257t266.5 97.5q74 0 141 -25zM473 897q-90 0 -150.5 -62.5t-60.5 -169 t61.5 -172t149.5 -65.5t149.5 65.5t61.5 172t-60.5 169t-150.5 62.5zM229 1229l234 287h168l233 -287l-71 -66l-242 232h-8l-242 -232z" glyph-name="gcircumflex" horiz-adv-x="1032" unicode="ĝ"/><glyph d="M713 -25q-270 0 -438.5 186.5t-168.5 510.5q0 319 172.5 507.5t444.5 188.5q242 0 387 -129l-90 -131q-125 111 -293 111q-203 0 -323.5 -146.5t-120.5 -396.5q0 -256 116.5 -403.5t329.5 -147.5q152 0 242 80v467l155 41v-582q-151 -156 -413 -156zM723 1444 q-135 0 -210 74.5t-89 189.5l102 16q12 -76 62.5 -124t134.5 -48t134 48.5t63 123.5l102 -16q-14 -115 -89 -189.5t-210 -74.5z" glyph-name="Gbreve" horiz-adv-x="1263" unicode="Ğ"/><glyph d="M961 999l-43 -139l-162 6q82 -82 82 -204q0 -156 -104.5 -251.5t-260.5 -95.5q-76 0 -149 35q-63 -55 -64 -119q0 -109 176 -108h170q176 0 262 -57.5t86 -180.5q0 -145 -138 -244.5t-365 -99.5q-186 0 -285.5 63.5t-99.5 188.5q0 29 6 50.5t10 29.5l6 6h156 q-6 -8 -10.5 -19.5t-4.5 -19.5v-6q0 -176 246 -176q137 0 226.5 60.5t89.5 142.5q0 68 -49.5 95.5t-151.5 27.5h-150q-164 0 -242.5 51t-78.5 170q0 111 108 184v8q-129 109 -129 268.5t108.5 257t266.5 97.5q74 0 141 -25zM473 897q-90 0 -150.5 -62.5t-60.5 -169 t61.5 -172t149.5 -65.5t149.5 65.5t61.5 172t-60.5 169t-150.5 62.5zM546.5 1169q-153.5 0 -232 89.5t-87.5 220.5l105 16q14 -88 68.5 -150.5t146.5 -62.5t146.5 62.5t68.5 150.5l104 -16q-8 -129 -87 -219.5t-232.5 -90.5z" glyph-name="gbreve" horiz-adv-x="1032" unicode="ğ"/><glyph d="M713 -25q-270 0 -438.5 186.5t-168.5 510.5q0 319 172.5 507.5t444.5 188.5q242 0 387 -129l-90 -131q-125 111 -293 111q-203 0 -323.5 -146.5t-120.5 -396.5q0 -256 116.5 -403.5t329.5 -147.5q152 0 242 80v467l155 41v-582q-151 -156 -413 -156zM723 1462 q-49 0 -83 31t-34 80q0 47 34 77.5t83 30.5t83 -30.5t34 -77.5q0 -49 -34 -80t-83 -31z" glyph-name="Gdotaccent" horiz-adv-x="1263" unicode="Ġ"/><glyph d="M961 999l-43 -139l-162 6q82 -82 82 -204q0 -156 -104.5 -251.5t-260.5 -95.5q-76 0 -149 35q-63 -55 -64 -119q0 -109 176 -108h170q176 0 262 -57.5t86 -180.5q0 -145 -138 -244.5t-365 -99.5q-186 0 -285.5 63.5t-99.5 188.5q0 29 6 50.5t10 29.5l6 6h156 q-6 -8 -10.5 -19.5t-4.5 -19.5v-6q0 -176 246 -176q137 0 226.5 60.5t89.5 142.5q0 68 -49.5 95.5t-151.5 27.5h-150q-164 0 -242.5 51t-78.5 170q0 111 108 184v8q-129 109 -129 268.5t108.5 257t266.5 97.5q74 0 141 -25zM473 897q-90 0 -150.5 -62.5t-60.5 -169 t61.5 -172t149.5 -65.5t149.5 65.5t61.5 172t-60.5 169t-150.5 62.5zM547 1200q-47 0 -79 31t-32 80q0 47 32 78.5t79 31.5t78.5 -31.5t31.5 -78.5q0 -49 -31.5 -80t-78.5 -31z" glyph-name="gdotaccent" horiz-adv-x="1032" unicode="ġ"/><glyph d="M713 -25q-270 0 -438.5 186.5t-168.5 510.5q0 319 172.5 507.5t444.5 188.5q242 0 387 -129l-90 -131q-125 111 -293 111q-203 0 -323.5 -146.5t-120.5 -396.5q0 -256 116.5 -403.5t329.5 -147.5q152 0 242 80v467l155 41v-582q-151 -156 -413 -156zM535 -463l-17 82 q125 10 174 32.5t49 65.5q0 74 -145 86l37 78q133 -16 186 -52t53 -105q1 -171 -337 -187z" glyph-name="Gcommaaccent" horiz-adv-x="1263" unicode="Ģ"/><glyph d="M961 999l-43 -139l-162 6q82 -82 82 -204q0 -156 -104.5 -251.5t-260.5 -95.5q-76 0 -149 35q-63 -55 -64 -119q0 -109 176 -108h170q176 0 262 -57.5t86 -180.5q0 -145 -138 -244.5t-365 -99.5q-186 0 -285.5 63.5t-99.5 188.5q0 29 6 50.5t10 29.5l6 6h156 q-6 -8 -10.5 -19.5t-4.5 -19.5v-6q0 -176 246 -176q137 0 226.5 60.5t89.5 142.5q0 68 -49.5 95.5t-151.5 27.5h-150q-164 0 -242.5 51t-78.5 170q0 111 108 184v8q-129 109 -129 268.5t108.5 257t266.5 97.5q74 0 141 -25zM473 897q-90 0 -150.5 -62.5t-60.5 -169 t61.5 -172t149.5 -65.5t149.5 65.5t61.5 172t-60.5 169t-150.5 62.5zM664 1255l-37 -77q-131 14 -185.5 51t-54.5 106q0 88 84 133t254 56l16 -84q-125 -8 -174 -31t-49 -68q1 -74 146 -86z" glyph-name="gcommaaccent" horiz-adv-x="1032" unicode="ģ"/><glyph d="M184 0v1343h170v-563h625v563h172v-1343h-172v633h-625v-633h-170zM365 1485l215 231h176l215 -231l-74 -53l-225 190h-8l-226 -190z" glyph-name="Hcircumflex" horiz-adv-x="1335" unicode="Ĥ"/><glyph d="M168 0v1354l168 45v-543q160 164 326 164q303 0 303 -389v-631h-168v608q0 141 -45 203.5t-144 62.5q-74 0 -131 -34.5t-141 -118.5v-721h-168zM-49 1571l215 231h176l215 -231l-74 -53l-225 190h-8l-225 -190z" glyph-name="hcircumflex" horiz-adv-x="1114" unicode="ĥ"/><glyph d="M1020 780v228h-625v-228h625zM1339 1104v-96h-147v-1008h-172v633h-625v-633h-170v1008h-159v96h159v239h170v-239h625v239h172v-239h147z" glyph-name="Hbar" horiz-adv-x="1406" unicode="Ħ"/><glyph d="M336 1169v-395q162 166 326 166q303 0 303 -389v-551h-168v528q0 141 -45 203t-144 62q-74 0 -132 -35t-140 -117v-641h-168v1169h-152v99h152v143l168 47v-190h373v-99h-373z" glyph-name="hbar" horiz-adv-x="1114" unicode="ħ"/><glyph d="M184 0v1343h170v-1343h-170zM422 1452q-66 0 -121 36t-99 72.5t-83 36.5t-65.5 -34.5t-33.5 -100.5l-114 8q6 117 61.5 184.5t147.5 67.5q66 0 121 -35.5t99 -72.5t83 -37q82 0 98 135l115 -8q-6 -119 -61.5 -185.5t-147.5 -66.5z" glyph-name="Itilde" horiz-adv-x="538" unicode="Ĩ"/><glyph d="M168 0v995h168v-995h-168zM399 1182q-61 0 -114.5 43t-97.5 86t-81 43q-86 0 -96 -162l-112 6q4 127 55 203t151 76q63 0 115.5 -43t96.5 -86t83 -43q84 0 95 161l112 -8q-4 -125 -55.5 -200.5t-151.5 -75.5z" glyph-name="itilde" horiz-adv-x="503" unicode="ĩ"/><glyph d="M184 0v1343h170v-1343h-170zM-6 1505v117h549v-117h-549z" glyph-name="Imacron" horiz-adv-x="538" unicode="Ī"/><glyph d="M168 0v995h168v-995h-168zM-20 1231v117h544v-117h-544z" glyph-name="imacron" horiz-adv-x="503" unicode="ī"/><glyph d="M184 0v1343h170v-1343h-170zM268 1444q-135 0 -209.5 74.5t-89.5 189.5l103 16q12 -76 62 -124t134 -48t134.5 48.5t62.5 123.5l102 -16q-14 -115 -89 -189.5t-210 -74.5z" glyph-name="Ibreve" horiz-adv-x="538" unicode="Ĭ"/><glyph d="M168 0v995h168v-995h-168zM254 1169q-154 0 -232.5 89.5t-87.5 220.5l105 16q14 -88 68.5 -150.5t146.5 -62.5t146.5 62.5t68.5 150.5l104 -16q-8 -129 -86.5 -219.5t-232.5 -90.5z" glyph-name="ibreve" horiz-adv-x="503" unicode="ĭ"/><glyph d="M285 -434q-86 0 -141.5 47t-55.5 131q0 131 137 256h-41v1343h170v-1343q-133 -104 -133 -219q0 -45 29 -69.5t67 -24.5q43 0 84 28l48 -92q-76 -57 -164 -57z" glyph-name="Iogonek" horiz-adv-x="538" unicode="Į"/><glyph d="M264 -422q-82 0 -134 45t-52 129q0 117 131 248h-41v995h168v-995q-133 -96 -133 -215q0 -45 27.5 -69.5t68.5 -24.5q39 0 82 26l43 -84q-70 -55 -160 -55zM252 1200q-49 0 -83 31t-34 78q0 49 34 78.5t83 29.5t82 -29.5t33 -78.5q0 -47 -33 -78t-82 -31z" glyph-name="iogonek" horiz-adv-x="503" unicode="į"/><glyph d="M184 0v1343h170v-1343h-170zM268 1462q-49 0 -82.5 31t-33.5 80q0 47 33.5 77.5t82.5 30.5t83 -30.5t34 -77.5q0 -49 -34 -80t-83 -31z" glyph-name="Idotaccent" horiz-adv-x="538" unicode="İ"/><glyph d="M168 0v995h168v-995h-168z" glyph-name="dotlessi" horiz-adv-x="503" unicode="ı"/><glyph d="M184 0v1343h170v-1343h-170zM725 -74v1417h168v-1417q0 -158 -111 -252l-137 84q80 72 80 168z" glyph-name="IJ" horiz-adv-x="1077" unicode="Ĳ"/><glyph d="M168 0v995h168v-995h-168zM254 1200q-49 0 -83 31t-34 78q0 49 34 78.5t83 29.5t83 -29.5t34 -78.5q0 -47 -34 -78t-83 -31zM760 1200q-49 0 -83 31t-34 78q0 49 34 78.5t83 29.5t81.5 -29.5t32.5 -78.5q0 -47 -32.5 -78t-81.5 -31zM674 -113v1108h168v-1108 q0 -158 -111 -252l-137 84q80 72 80 168z" glyph-name="ij" horiz-adv-x="1009" unicode="ĳ"/><glyph d="M434 -25q-250 0 -371 215l123 86q84 -152 232 -151q111 0 163 67.5t52 219.5v931h172v-948q0 -186 -92.5 -303t-278.5 -117zM410 1485l215 231h176l215 -231l-74 -53l-225 190h-8l-226 -190z" glyph-name="Jcircumflex" horiz-adv-x="983" unicode="Ĵ"/><glyph d="M166 -12v1007h168v-1007q0 -96 -27.5 -200.5t-83.5 -152.5l-137 84q37 33 58.5 118t21.5 151zM-66 1229l234 287h168l233 -287l-71 -66l-242 232h-8l-242 -232z" glyph-name="jcircumflex" horiz-adv-x="505" unicode="ĵ"/><glyph d="M184 0v1343h170v-673h6l560 673h192l-420 -512l486 -831h-191l-401 698l-232 -272v-426h-170zM487 -463l-16 82q125 10 174 32.5t49 65.5q0 74 -145 86l37 78q133 -16 186 -52t53 -105q0 -171 -338 -187z" glyph-name="Kcommaaccent" horiz-adv-x="1185" unicode="Ķ"/><glyph d="M168 0v1352l166 45v-926h6l424 524h186l-334 -399l379 -596h-184l-291 479l-186 -217v-262h-166zM377 -463l-17 82q125 10 174.5 32.5t49.5 65.5q0 74 -146 86l37 78q133 -16 186.5 -52t53.5 -105q0 -171 -338 -187z" glyph-name="kcommaaccent" horiz-adv-x="1013" unicode="ķ"/><glyph d="M168 0v995h168v-528h6l422 528h186l-329 -399l374 -596h-184l-291 473l-184 -217v-256h-168z" glyph-name="kgreenlandic" horiz-adv-x="1013" unicode="ĸ"/><glyph d="M184 0v1343h170v-1198h588v-145h-758zM240 1427l-76 86l291 263l96 -113z" glyph-name="Lacute" horiz-adv-x="995" unicode="Ĺ"/><glyph d="M336 0h-168v1352l168 45v-1397zM209 1534l-76 86l291 262l96 -113z" glyph-name="lacute" horiz-adv-x="522" unicode="ĺ"/><glyph d="M184 0v1343h170v-1198h588v-145h-758zM412 -463l-17 82q125 10 174 32.5t49 65.5q0 74 -145 86l37 78q133 -16 186.5 -52t53.5 -105q0 -171 -338 -187z" glyph-name="Lcommaaccent" horiz-adv-x="995" unicode="Ļ"/><glyph d="M336 0h-168v1352l168 45v-1397zM143 -463l-16 82q125 10 174 32.5t49 65.5q0 74 -145 86l37 78q133 -16 186 -52t53 -105q0 -171 -338 -187z" glyph-name="lcommaaccent" horiz-adv-x="522" unicode="ļ"/><glyph d="M184 0v1343h170v-1198h588v-145h-758zM684 1055l-8 434h121l-2 -117l-29 -317h-82z" glyph-name="Lcaron" horiz-adv-x="995" unicode="Ľ"/><glyph d="M336 0h-168v1352l168 45v-1397zM453 1122l-9 434h121l-2 -116l-28 -318h-82z" glyph-name="lcaron" horiz-adv-x="552" unicode="ľ"/><glyph d="M184 0v1343h170v-1198h588v-145h-758zM772 539q-51 0 -87 35.5t-36 91.5q0 59 36 95t87 36t86 -36t35 -95q0 -55 -36 -91t-85 -36z" glyph-name="Ldot" horiz-adv-x="995" unicode="Ŀ"/><glyph d="M336 0h-168v1352l168 45v-1397zM623 539q-51 0 -87 35.5t-36 91.5q0 59 35.5 95t87 36t86 -36t34.5 -95q0 -55 -35.5 -91t-84.5 -36z" glyph-name="ldot" horiz-adv-x="741" unicode="ŀ"/><glyph d="M365 145h587v-145h-757v492l-146 -82l-61 108l207 113v712h170v-636l360 194l61 -108l-421 -226v-422z" glyph-name="Lslash" horiz-adv-x="1001" unicode="Ł"/><glyph d="M344 766v-766h-168v678l-117 -74l-61 109l178 108v637h168v-549l111 72l61 -109z" glyph-name="lslash" horiz-adv-x="536" unicode="ł"/><glyph d="M184 0v1343h176l611 -1075h8v1075h162v-1343h-176l-611 1073h-8v-1073h-162zM635 1427l-76 86l291 263l96 -113z" glyph-name="Nacute" horiz-adv-x="1325" unicode="Ń"/><glyph d="M168 0v995h154v-143h6q168 168 334 168q303 0 303 -389v-631h-168v608q0 141 -45 203.5t-144 62.5q-74 0 -131 -34.5t-141 -118.5v-721h-168zM569 1174l-86 83l289 342l119 -112z" glyph-name="nacute" horiz-adv-x="1120" unicode="ń"/><glyph d="M184 0v1343h176l611 -1075h8v1075h162v-1343h-176l-611 1073h-8v-1073h-162zM494 -463l-17 82q125 10 174 32.5t49 65.5q0 74 -145 86l37 78q133 -16 186 -52t53 -105q1 -171 -337 -187z" glyph-name="Ncommaaccent" horiz-adv-x="1325" unicode="Ņ"/><glyph d="M168 0v995h154v-143h6q168 168 334 168q303 0 303 -389v-631h-168v608q0 141 -45 203.5t-144 62.5q-74 0 -131 -34.5t-141 -118.5v-721h-168zM393 -463l-16 82q125 10 174 32.5t49 65.5q0 74 -145 86l37 78q133 -16 186 -52t53 -105q0 -171 -338 -187z" glyph-name="ncommaaccent" horiz-adv-x="1120" unicode="ņ"/><glyph d="M184 0v1343h176l611 -1075h8v1075h162v-1343h-176l-611 1073h-8v-1073h-162zM580 1446l-215 231l73 54l226 -189h8l225 189l74 -54l-215 -231h-176z" glyph-name="Ncaron" horiz-adv-x="1325" unicode="Ň"/><glyph d="M168 0v995h154v-143h6q168 168 334 168q303 0 303 -389v-631h-168v608q0 141 -45 203.5t-144 62.5q-74 0 -131 -34.5t-141 -118.5v-721h-168zM514 1176l-233 286l71 66l242 -232h8l242 232l71 -66l-233 -286h-168z" glyph-name="ncaron" horiz-adv-x="1120" unicode="ň"/><glyph d="M623 0v995h153v-143h6q168 168 334 168q303 0 303 -389v-631h-168v608q0 141 -45 203.5t-143 62.5q-74 0 -131.5 -34.5t-140.5 -118.5v-721h-168zM176 883l-47 78q82 53 118 110t36 146q-4 -2 -17 -3q-45 0 -76.5 28t-31.5 75q0 53 29.5 84t78.5 31q61 0 95 -48.5 t34 -138.5q0 -235 -219 -362z" glyph-name="napostrophe" horiz-adv-x="1587" unicode="ŉ"/><glyph d="M831 -25l-118 185q49 -23 102 -23q203 0 203 549q0 287 -86 410t-246 123q-82 0 -176 -57.5t-156 -143.5v-1018h-170v1343h166v-165q76 86 176.5 138t202.5 52q215 0 340 -163t125 -519q-1 -711 -363 -711z" glyph-name="Eng" horiz-adv-x="1300" unicode="Ŋ"/><glyph d="M692 -375l-112 156q55 -18 94 -19q70 0 96.5 49.5t26.5 147.5v649q0 141 -45 203.5t-144 62.5q-74 0 -131 -34.5t-141 -118.5v-721h-168v995h154v-143h6q168 168 334 168q303 0 303 -389v-674q-1 -332 -273 -332z" glyph-name="eng" horiz-adv-x="1120" unicode="ŋ"/><glyph d="M680 -25q-256 0 -415 190.5t-159 512.5q0 319 158 504.5t416 185.5q256 0 415.5 -187.5t159.5 -502.5q0 -322 -159.5 -512.5t-415.5 -190.5zM680 125q178 0 287.5 150.5t109.5 402.5q0 248 -108.5 394.5t-288.5 146.5t-288.5 -146.5t-108.5 -394.5q0 -252 109.5 -402.5 t287.5 -150.5zM406 1505v117h548v-117h-548z" glyph-name="Omacron" horiz-adv-x="1359" unicode="Ō"/><glyph d="M555 -25q-193 0 -327 141.5t-134 379.5q0 242 134 383t327 141t327 -141.5t134 -382.5q0 -238 -134 -379.5t-327 -141.5zM555 115q129 0 208 105.5t79 275.5q0 172 -79 278.5t-208 106.5t-208 -106.5t-79 -278.5q0 -170 79 -275.5t208 -105.5zM283 1231v117h544v-117 h-544z" glyph-name="omacron" horiz-adv-x="1110" unicode="ō"/><glyph d="M680 -25q-256 0 -415 190.5t-159 512.5q0 319 158 504.5t416 185.5q256 0 415.5 -187.5t159.5 -502.5q0 -322 -159.5 -512.5t-415.5 -190.5zM680 125q178 0 287.5 150.5t109.5 402.5q0 248 -108.5 394.5t-288.5 146.5t-288.5 -146.5t-108.5 -394.5q0 -252 109.5 -402.5 t287.5 -150.5zM680 1444q-135 0 -210 74.5t-89 189.5l102 16q12 -76 62.5 -124t134.5 -48t134 48.5t63 123.5l102 -16q-14 -115 -89 -189.5t-210 -74.5z" glyph-name="Obreve" horiz-adv-x="1359" unicode="Ŏ"/><glyph d="M555 -25q-193 0 -327 141.5t-134 379.5q0 242 134 383t327 141t327 -141.5t134 -382.5q0 -238 -134 -379.5t-327 -141.5zM555 115q129 0 208 105.5t79 275.5q0 172 -79 278.5t-208 106.5t-208 -106.5t-79 -278.5q0 -170 79 -275.5t208 -105.5zM555 1169 q-154 0 -232.5 89.5t-86.5 220.5l104 16q14 -88 68.5 -150.5t146.5 -62.5t146.5 62.5t68.5 150.5l104 -16q-8 -129 -86.5 -219.5t-232.5 -90.5z" glyph-name="obreve" horiz-adv-x="1110" unicode="ŏ"/><glyph d="M680 -25q-256 0 -415 190.5t-159 512.5q0 319 158 504.5t416 185.5q256 0 415.5 -187.5t159.5 -502.5q0 -322 -159.5 -512.5t-415.5 -190.5zM680 125q178 0 287.5 150.5t109.5 402.5q0 248 -108.5 394.5t-288.5 146.5t-288.5 -146.5t-108.5 -394.5q0 -252 109.5 -402.5 t287.5 -150.5zM471 1483l188 311l115 -65l-215 -289zM799 1483l188 311l115 -65l-215 -289z" glyph-name="Ohungarumlaut" horiz-adv-x="1359" unicode="Ő"/><glyph d="M555 -25q-193 0 -327 141.5t-134 379.5q0 242 134 383t327 141t327 -141.5t134 -382.5q0 -238 -134 -379.5t-327 -141.5zM555 115q129 0 208 105.5t79 275.5q0 172 -79 278.5t-208 106.5t-208 -106.5t-79 -278.5q0 -170 79 -275.5t208 -105.5zM451 1163l-93 43l177 353 l120 -58zM760 1163l-94 43l178 353l119 -58z" glyph-name="ohungarumlaut" horiz-adv-x="1110" unicode="ő"/><glyph d="M1634 0h-878q-305 0 -477.5 179t-172.5 498.5t172.5 492.5t485.5 173h850l-21 -143h-549v-422h349v-145h-349v-488h590v-145zM776 139h98v1065h-98q-244 0 -368.5 -134t-124.5 -392q0 -260 125.5 -399.5t367.5 -139.5z" glyph-name="OE" horiz-adv-x="1734" unicode="Œ"/><glyph d="M1729 518v-59h-707q0 -154 86 -249t217 -95q182 0 295 112l106 -106q-158 -145 -401 -146q-264 0 -395 201q-63 -96 -161.5 -148.5t-211.5 -52.5q-193 0 -327 141.5t-134 379.5q0 242 134.5 383t326.5 141q113 0 211 -51t162 -148q127 199 385 199q207 0 310.5 -130 t103.5 -372zM557 115q129 0 208 105.5t79 275.5q0 172 -79 278.5t-208 106.5t-208 -106.5t-79 -278.5q0 -170 79 -275.5t208 -105.5zM1026 575h539q0 305 -250 306q-131 0 -210 -86.5t-79 -219.5z" glyph-name="oe" horiz-adv-x="1814" unicode="œ"/><glyph d="M354 1206v-499h226q326 0 325 260q0 129 -81 184t-244 55h-226zM1114 0h-192l-324 567h-244v-567h-170v1343h420q471 0 471 -376q0 -303 -301 -381zM555 1427l-76 86l291 263l96 -113z" glyph-name="Racute" horiz-adv-x="1165" unicode="Ŕ"/><glyph d="M328 776q45 113 142 178.5t224 65.5l-55 -162q-84 0 -167 -59.5t-136 -180.5v-618h-168v995h154v-219h6zM416 1174l-86 83l288 342l119 -112z" glyph-name="racute" horiz-adv-x="710" unicode="ŕ"/><glyph d="M354 1206v-499h226q326 0 325 260q0 129 -81 184t-244 55h-226zM1114 0h-192l-324 567h-244v-567h-170v1343h420q471 0 471 -376q0 -303 -301 -381zM442 -463l-16 82q125 10 174 32.5t49 65.5q0 74 -145 86l37 78q133 -16 186 -52t53 -105q0 -171 -338 -187z" glyph-name="Rcommaaccent" horiz-adv-x="1165" unicode="Ŗ"/><glyph d="M328 776q45 113 142 178.5t224 65.5l-55 -162q-84 0 -167 -59.5t-136 -180.5v-618h-168v995h154v-219h6zM53 -381q125 10 174 32.5t49 65.5q0 74 -145 86l37 78q133 -16 186.5 -52t53.5 -105q0 -170 -338 -187z" glyph-name="rcommaaccent" horiz-adv-x="710" unicode="ŗ"/><glyph d="M354 1206v-499h226q326 0 325 260q0 129 -81 184t-244 55h-226zM1114 0h-192l-324 567h-244v-567h-170v1343h420q471 0 471 -376q0 -303 -301 -381zM502 1446l-215 231l73 54l226 -189h8l225 189l74 -54l-215 -231h-176z" glyph-name="Rcaron" horiz-adv-x="1165" unicode="Ř"/><glyph d="M328 776q45 113 142 178.5t224 65.5l-55 -162q-84 0 -167 -59.5t-136 -180.5v-618h-168v995h154v-219h6zM360 1176l-233 286l72 66l241 -232h9l241 232l72 -66l-234 -286h-168z" glyph-name="rcaron" horiz-adv-x="710" unicode="ř"/><glyph d="M1014 375q0 -178 -118 -289t-333 -111q-303 0 -495 136l100 133q172 -119 395 -119q135 0 206 62.5t71 166.5q0 47 -14.5 81t-47.5 59.5t-62.5 41t-82.5 37.5q-16 6 -25 11l-194 75q-287 115 -287 336q0 158 120 265.5t318 107.5q227 0 416 -125l-98 -127 q-154 102 -318 103q-119 0 -192.5 -56.5t-73.5 -148.5q0 -47 18.5 -82t58.5 -60.5t69.5 -39t84.5 -33.5l195 -76q135 -51 212 -132t77 -216zM537 1427l-76 86l291 263l96 -113z" glyph-name="Sacute" horiz-adv-x="1093" unicode="Ś"/><glyph d="M406 606l190 -76q84 -33 140.5 -100.5t56.5 -157.5q0 -141 -106.5 -219t-258.5 -78q-121 0 -214 18.5t-124 37.5l-33 18l88 125q98 -68 289 -68q80 0 138.5 39t58.5 117q0 98 -146 156l-188 76q-84 33 -137.5 95t-53.5 148q0 131 104.5 207t260.5 76q80 0 155.5 -18.5 t110.5 -38.5l35 -19l-94 -121q-78 66 -205 66q-205 0 -205 -144q1 -84 138 -139zM420 1174l-86 83l289 342l118 -112z" glyph-name="sacute" horiz-adv-x="858" unicode="ś"/><glyph d="M1014 375q0 -178 -118 -289t-333 -111q-303 0 -495 136l100 133q172 -119 395 -119q135 0 206 62.5t71 166.5q0 47 -14.5 81t-47.5 59.5t-62.5 41t-82.5 37.5q-16 6 -25 11l-194 75q-287 115 -287 336q0 158 120 265.5t318 107.5q227 0 416 -125l-98 -127 q-154 102 -318 103q-119 0 -192.5 -56.5t-73.5 -148.5q0 -47 18.5 -82t58.5 -60.5t69.5 -39t84.5 -33.5l195 -76q135 -51 212 -132t77 -216zM268 1485l215 231h176l215 -231l-73 -53l-226 190h-8l-225 -190z" glyph-name="Scircumflex" horiz-adv-x="1093" unicode="Ŝ"/><glyph d="M406 606l190 -76q84 -33 140.5 -100.5t56.5 -157.5q0 -141 -106.5 -219t-258.5 -78q-121 0 -214 18.5t-124 37.5l-33 18l88 125q98 -68 289 -68q80 0 138.5 39t58.5 117q0 98 -146 156l-188 76q-84 33 -137.5 95t-53.5 148q0 131 104.5 207t260.5 76q80 0 155.5 -18.5 t110.5 -38.5l35 -19l-94 -121q-78 66 -205 66q-205 0 -205 -144q1 -84 138 -139zM131 1229l234 287h167l234 -287l-72 -66l-241 232h-9l-241 -232z" glyph-name="scircumflex" horiz-adv-x="858" unicode="ŝ"/><glyph d="M1014 375q0 -178 -118 -289t-333 -111q-303 0 -495 136l100 133q172 -119 395 -119q135 0 206 62.5t71 166.5q0 47 -14.5 81t-47.5 59.5t-62.5 41t-82.5 37.5q-16 6 -25 11l-194 75q-287 115 -287 336q0 158 120 265.5t318 107.5q227 0 416 -125l-98 -127 q-154 102 -318 103q-119 0 -192.5 -56.5t-73.5 -148.5q0 -47 18.5 -82t58.5 -60.5t69.5 -39t84.5 -33.5l195 -76q135 -51 212 -132t77 -216zM365 -381q127 10 175 33.5t48 68.5q0 41 -35 63.5t-123 35.5l90 186h109l-60 -137q76 -18 113 -51t37 -94q0 -170 -338 -187z" glyph-name="Scedilla" horiz-adv-x="1093" unicode="Ş"/><glyph d="M406 606l190 -76q84 -33 140.5 -100.5t56.5 -157.5q0 -141 -106.5 -219t-258.5 -78q-121 0 -214 18.5t-124 37.5l-33 18l88 125q98 -68 289 -68q80 0 138.5 39t58.5 117q0 98 -146 156l-188 76q-84 33 -137.5 95t-53.5 148q0 131 104.5 207t260.5 76q80 0 155.5 -18.5 t110.5 -38.5l35 -19l-94 -121q-78 66 -205 66q-205 0 -205 -144q1 -84 138 -139zM260 -381q127 10 175 33.5t48 68.5q0 41 -34.5 63.5t-122.5 35.5l90 186h108l-59 -137q76 -18 112.5 -51t36.5 -94q0 -170 -338 -187z" glyph-name="scedilla" horiz-adv-x="858" unicode="ş"/><glyph d="M1014 375q0 -178 -118 -289t-333 -111q-303 0 -495 136l100 133q172 -119 395 -119q135 0 206 62.5t71 166.5q0 47 -14.5 81t-47.5 59.5t-62.5 41t-82.5 37.5q-16 6 -25 11l-194 75q-287 115 -287 336q0 158 120 265.5t318 107.5q227 0 416 -125l-98 -127 q-154 102 -318 103q-119 0 -192.5 -56.5t-73.5 -148.5q0 -47 18.5 -82t58.5 -60.5t69.5 -39t84.5 -33.5l195 -76q135 -51 212 -132t77 -216zM483 1446l-215 231l74 54l225 -189h8l226 189l73 -54l-215 -231h-176z" glyph-name="Scaron" horiz-adv-x="1093" unicode="Š"/><glyph d="M406 606l190 -76q84 -33 140.5 -100.5t56.5 -157.5q0 -141 -106.5 -219t-258.5 -78q-121 0 -214 18.5t-124 37.5l-33 18l88 125q98 -68 289 -68q80 0 138.5 39t58.5 117q0 98 -146 156l-188 76q-84 33 -137.5 95t-53.5 148q0 131 104.5 207t260.5 76q80 0 155.5 -18.5 t110.5 -38.5l35 -19l-94 -121q-78 66 -205 66q-205 0 -205 -144q1 -84 138 -139zM365 1176l-234 286l72 66l241 -232h9l241 232l72 -66l-234 -286h-167z" glyph-name="scaron" horiz-adv-x="858" unicode="š"/><glyph d="M463 0v1200h-406v143h983v-143h-405v-1200h-172zM362 -463l-16 82q127 10 175 33.5t48 68.5q0 41 -34.5 63.5t-122.5 35.5l90 186h108l-59 -137q76 -18 112.5 -51t36.5 -94q0 -171 -338 -187z" glyph-name="Tcommaaccent" horiz-adv-x="1097" unicode="Ţ"/><glyph d="M481 -25q72 0 152 27v137q-61 -27 -113 -26q-84 0 -118.5 48t-34.5 144v553h268v137h-268v248l-170 -45v-203h-148v-137h148v-551q-1 -332 284 -332zM264 -463l-16 82q127 10 175 33.5t48 68.5q0 41 -35 63.5t-123 35.5l90 186h109l-59 -137q76 -18 112.5 -51t36.5 -94 q0 -171 -338 -187z" glyph-name="tcommaaccent" horiz-adv-x="692" unicode="ţ"/><glyph d="M463 0v1200h-406v143h983v-143h-405v-1200h-172zM459 1446l-215 231l73 54l226 -189h8l225 189l74 -54l-215 -231h-176z" glyph-name="Tcaron" horiz-adv-x="1097" unicode="Ť"/><glyph d="M481 -25q-285 0 -284 332v551h-148v137h148v203l170 45v-248h268v-137h-268v-553q0 -96 34.5 -144t118.5 -48q51 0 113 26v-137q-80 -27 -152 -27zM526 1122l-8 434h121l-2 -116l-29 -318h-82z" glyph-name="tcaron" horiz-adv-x="692" unicode="ť"/><glyph d="M1040 1200h-405v-463h252v-96h-252v-641h-172v641h-252v96h252v463h-406v143h983v-143z" glyph-name="Tbar" horiz-adv-x="1097" unicode="Ŧ"/><glyph d="M633 139v-135q-86 -29 -152 -29q-285 0 -284 332v166h-148v98h148v287h-148v137h156v238l162 41v-279h268v-137h-268v-287h268v-98h-268v-168q0 -96 34.5 -144t118.5 -48q52 -1 113 26z" glyph-name="tbar" horiz-adv-x="692" unicode="ŧ"/><glyph d="M662 -25q-223 0 -353.5 137.5t-130.5 442.5v788h170v-792q0 -426 314 -426q317 0 317 426v792h164v-788q0 -305 -130 -442.5t-351 -137.5zM813 1452q-66 0 -121 36t-99 72.5t-83 36.5t-65.5 -34.5t-32.5 -100.5l-115 8q6 117 61.5 184.5t147.5 67.5q66 0 121 -35.5 t99 -72.5t83 -37q84 0 98 135l115 -8q-6 -119 -61.5 -185.5t-147.5 -66.5z" glyph-name="Utilde" horiz-adv-x="1320" unicode="Ũ"/><glyph d="M459 -25q-305 0 -305 390v630h170v-608q0 -141 44 -203.5t142 -62.5q76 0 134 38t134 130v706h168v-995h-153v156h-7q-153 -181 -327 -181zM705 1182q-61 0 -114.5 43t-97.5 86t-81 43q-86 0 -97 -162l-112 6q4 127 55 203t152 76q63 0 115.5 -43t96.5 -86t83 -43 q84 0 94 161l112 -8q-4 -125 -55 -200.5t-151 -75.5z" glyph-name="utilde" horiz-adv-x="1114" unicode="ũ"/><glyph d="M662 -25q-223 0 -353.5 137.5t-130.5 442.5v788h170v-792q0 -426 314 -426q317 0 317 426v792h164v-788q0 -305 -130 -442.5t-351 -137.5zM385 1505v117h549v-117h-549z" glyph-name="Umacron" horiz-adv-x="1320" unicode="Ū"/><glyph d="M459 -25q-305 0 -305 390v630h170v-608q0 -141 44 -203.5t142 -62.5q76 0 134 38t134 130v706h168v-995h-153v156h-7q-153 -181 -327 -181zM279 1231v117h544v-117h-544z" glyph-name="umacron" horiz-adv-x="1114" unicode="ū"/><glyph d="M662 -25q-223 0 -353.5 137.5t-130.5 442.5v788h170v-792q0 -426 314 -426q317 0 317 426v792h164v-788q0 -305 -130 -442.5t-351 -137.5zM659.5 1444q-135.5 0 -210 74.5t-89.5 189.5l103 16q12 -76 62 -124t134 -48t134.5 48.5t62.5 123.5l102 -16 q-14 -115 -88.5 -189.5t-210 -74.5z" glyph-name="Ubreve" horiz-adv-x="1320" unicode="Ŭ"/><glyph d="M459 -25q-305 0 -305 390v630h170v-608q0 -141 44 -203.5t142 -62.5q76 0 134 38t134 130v706h168v-995h-153v156h-7q-153 -181 -327 -181zM557 1169q-154 0 -232.5 89.5t-86.5 220.5l104 16q14 -88 68.5 -150.5t146.5 -62.5t146.5 62.5t68.5 150.5l105 -16 q-8 -129 -87 -219.5t-233 -90.5z" glyph-name="ubreve" horiz-adv-x="1114" unicode="ŭ"/><glyph d="M662 -25q-223 0 -353.5 137.5t-130.5 442.5v788h170v-792q0 -426 314 -426q317 0 317 426v792h164v-788q0 -305 -130 -442.5t-351 -137.5zM659.5 1432q-88.5 0 -143.5 50t-55 134t55 135t143.5 51t143.5 -51t55 -135t-55 -134t-143.5 -50zM659 1505q43 0 74 30t31 81 t-31 80.5t-74 29.5q-47 0 -76.5 -29.5t-29.5 -80.5t29.5 -81t76.5 -30z" glyph-name="Uring" horiz-adv-x="1320" unicode="Ů"/><glyph d="M459 -25q-305 0 -305 390v630h170v-608q0 -141 44 -203.5t142 -62.5q76 0 134 38t134 130v706h168v-995h-153v156h-7q-153 -181 -327 -181zM557 1135q-102 0 -163.5 56t-61.5 146q0 88 61.5 144.5t163.5 56.5t163.5 -56.5t61.5 -144.5q0 -90 -61.5 -146t-163.5 -56z M557 1210q51 0 84 34t33 93q0 55 -34 90t-83 35t-83 -34.5t-34 -90.5q0 -59 33 -93t84 -34z" glyph-name="uring" horiz-adv-x="1114" unicode="ů"/><glyph d="M662 -25q-223 0 -353.5 137.5t-130.5 442.5v788h170v-792q0 -426 314 -426q317 0 317 426v792h164v-788q0 -305 -130 -442.5t-351 -137.5zM451 1483l188 311l115 -65l-215 -289zM778 1483l189 311l114 -65l-215 -289z" glyph-name="Uhungarumlaut" horiz-adv-x="1320" unicode="Ű"/><glyph d="M459 -25q-305 0 -305 390v630h170v-608q0 -141 44 -203.5t142 -62.5q76 0 134 38t134 130v706h168v-995h-153v156h-7q-153 -181 -327 -181zM453 1163l-93 43l177 353l120 -58zM762 1163l-94 43l178 353l119 -58z" glyph-name="uhungarumlaut" horiz-adv-x="1114" unicode="ű"/><glyph d="M717 -434q-86 0 -141.5 47t-55.5 131q0 18 2 35.5t9.5 34t11.5 29t15 28.5t16.5 24.5t20.5 25t18 19.5t22 19l16 18q-473 10 -473 578v788h170v-792q0 -426 314 -426q317 0 317 426v792h164v-788q0 -252 -80 -372t-248 -197q-76 -37 -119 -94.5t-43 -110.5 q0 -45 29 -69.5t70 -24.5t82 28l47 -92q-72 -57 -164 -57z" glyph-name="Uogonek" horiz-adv-x="1320" unicode="Ų"/><glyph d="M829 -422q-82 0 -134 45t-52 129q0 51 27.5 104.5t51 80t71.5 71.5v148h-7q-154 -180 -327 -181q-305 0 -305 390v630h170v-608q0 -141 43 -203.5t143 -62.5q76 0 134 38t134 130v706h168v-995q-178 -86 -178 -215q0 -45 27.5 -69.5t66.5 -24.5q43 0 84 26l43 -84 q-70 -55 -160 -55z" glyph-name="uogonek" horiz-adv-x="1114" unicode="ų"/><glyph d="M332 0l-285 1343h176l219 -1136h9l280 1136h156l284 -1136h9l217 1136h164l-279 -1343h-205l-268 1092h-8l-266 -1092h-203zM502 1485l215 231h176l215 -231l-74 -53l-225 190h-8l-226 -190z" glyph-name="Wcircumflex" horiz-adv-x="1609" unicode="Ŵ"/><glyph d="M326 0l-277 995h172l207 -829h8l221 829h164l226 -829h8l207 829h159l-266 -995h-205l-211 805h-8l-209 -805h-196zM420 1229l233 287h168l234 -287l-72 -66l-242 232h-8l-241 -232z" glyph-name="wcircumflex" horiz-adv-x="1470" unicode="ŵ"/><glyph d="M401 0v520l-403 823h182l303 -671h9l307 671h178l-404 -823v-520h-172zM184 1485l215 231h176l216 -231l-74 -53l-225 190h-9l-225 -190z" glyph-name="Ycircumflex" horiz-adv-x="974" unicode="Ŷ"/><glyph d="M184 -428q-94 0 -164 39l80 115q33 -14 76 -15q154 0 225 213l23 74l-399 997h174l202 -551q61 -176 97 -280h8q18 53 49 160.5t35 119.5l178 551h164l-375 -1077q-61 -166 -146.5 -256t-226.5 -90zM178 1229l234 287h168l233 -287l-72 -66l-241 232h-8l-242 -232z" glyph-name="ycircumflex" horiz-adv-x="956" unicode="ŷ"/><glyph d="M401 0v520l-403 823h182l303 -671h9l307 671h178l-404 -823v-520h-172zM276 1464q-43 0 -71.5 29t-28.5 72q0 45 28.5 72.5t71.5 27.5q45 0 73 -27.5t28 -72.5q0 -43 -28 -72t-73 -29zM698 1464q-45 0 -72.5 29t-27.5 72q0 45 27.5 72.5t72.5 27.5q43 0 72 -27.5 t29 -72.5q0 -43 -29 -72t-72 -29z" glyph-name="Ydieresis" horiz-adv-x="974" unicode="Ÿ"/><glyph d="M106 0v102l672 1098h-657v143h870v-100l-674 -1098h715v-145h-926zM539 1427l-76 86l291 263l96 -113z" glyph-name="Zacute" horiz-adv-x="1103" unicode="Ź"/><glyph d="M74 0v90l524 768h-508v137h721v-90l-524 -768h540v-137h-753zM438 1174l-86 83l289 342l119 -112z" glyph-name="zacute" horiz-adv-x="870" unicode="ź"/><glyph d="M106 0v102l672 1098h-657v143h870v-100l-674 -1098h715v-145h-926zM573.5 1462q-49.5 0 -83 31t-33.5 80q0 47 33.5 77.5t83 30.5t83 -30.5t33.5 -77.5q0 -49 -33.5 -80t-83 -31z" glyph-name="Zdotaccent" horiz-adv-x="1103" unicode="Ż"/><glyph d="M74 0v90l524 768h-508v137h721v-90l-524 -768h540v-137h-753zM467 1200q-47 0 -79 31t-32 80q0 47 32 78.5t79 31.5t79 -31.5t32 -78.5q0 -49 -32 -80t-79 -31z" glyph-name="zdotaccent" horiz-adv-x="870" unicode="ż"/><glyph d="M106 0v102l672 1098h-657v143h870v-100l-674 -1098h715v-145h-926zM485 1446l-215 231l74 54l225 -189h9l225 189l74 -54l-215 -231h-177z" glyph-name="Zcaron" horiz-adv-x="1103" unicode="Ž"/><glyph d="M74 0v90l524 768h-508v137h721v-90l-524 -768h540v-137h-753zM383 1176l-233 286l71 66l242 -232h8l242 232l71 -66l-233 -286h-168z" glyph-name="zcaron" horiz-adv-x="870" unicode="ž"/><glyph d="M336 662v-441q121 -104 244 -104q125 0 204.5 98t79.5 258q0 150 -63.5 238t-198.5 88q-123 0 -266 -137zM336 1169v-368q145 139 307 139q188 0 291.5 -126t103.5 -339q0 -227 -125 -363.5t-305 -136.5q-145 0 -284 127h-7v-102h-149v1169h-152v99h152v147l168 43v-190 h373v-99h-373z" glyph-name="uni0180" horiz-adv-x="1114" unicode="ƀ"/><glyph d="M1069 586h-776q10 -221 110.5 -345t266.5 -124q174 0 278.5 121t120.5 348zM338 1094l-84 116q164 158 424 158q266 0 414.5 -179t148.5 -513q0 -332 -152.5 -516.5t-418.5 -184.5q-256 0 -403.5 186.5t-147.5 504.5q0 14 4 51h950q-8 248 -111.5 379t-295.5 131 q-195 0 -328 -133z" glyph-name="uni018F" horiz-adv-x="1347" unicode="Ə"/><glyph d="M946 1331l-37 -129q-61 29 -114 29q-156 0 -189 -266l-14 -129h258v-129h-272l-54 -486q-23 -203 -99.5 -311.5t-238.5 -108.5q-94 0 -149 31l31 127q43 -20 102 -20q92 0 135 75.5t62 243.5l49 449h-178v129h192l12 114q25 211 105 314.5t239 103.5q82 0 160 -37z" glyph-name="florin" horiz-adv-x="1017" unicode="ƒ"/><glyph d="M1126 727v-596q-152 -156 -413 -156q-270 0 -438.5 186.5t-168.5 510.5q0 319 172.5 507.5t444.5 188.5q92 0 186 -25q-12 37 -12 80q0 98 63.5 161t167.5 63q66 0 127 -27l-32 -129q-51 18 -70 18q-51 0 -80 -30.5t-29 -79.5q0 -74 66 -162l-94 -113q-125 94 -289 95 q-203 0 -323.5 -146.5t-120.5 -396.5q0 -256 116.5 -403.5t329.5 -147.5q152 0 242 80v471z" glyph-name="uni0193" horiz-adv-x="1263" unicode="Ɠ"/><glyph d="M686 125q178 0 287.5 150.5t109.5 402.5q0 248 -108.5 394.5t-288.5 146.5t-288.5 -146.5t-108.5 -394.5q0 -252 109.5 -402.5t287.5 -150.5zM1090 1591l133 58q47 -84 47 -164q0 -188 -219 -250q211 -195 211 -557q0 -322 -160 -512.5t-416 -190.5t-414.5 190.5 t-158.5 512.5q0 319 157.5 504.5t415.5 185.5q147 0 266 -63q86 16 126 56t40 112q1 61 -28 118z" glyph-name="Ohorn" horiz-adv-x="1359" unicode="Ơ"/><glyph d="M555 115q129 0 208 105.5t79 275.5q0 172 -79 278.5t-208 106.5t-208 -106.5t-79 -278.5q0 -170 79 -275.5t208 -105.5zM895 1284l131 62q47 -84 47 -162q0 -203 -225 -275q168 -141 168 -413q0 -238 -134 -379.5t-327 -141.5t-327 141.5t-134 379.5q0 242 134 383 t327 141q102 0 195 -43q176 35 176 194q0 58 -31 113z" glyph-name="ohorn" horiz-adv-x="1110" unicode="ơ"/><glyph d="M1200 1632l133 58q47 -72 47 -164q0 -111 -62.5 -170.5t-174.5 -85.5v-715q0 -305 -130 -442.5t-351 -137.5q-223 0 -353.5 137.5t-130.5 442.5v788h170v-792q0 -426 314 -426q317 0 317 426v792h68q92 12 138 50.5t46 119.5q0 64 -31 119z" glyph-name="Uhorn" horiz-adv-x="1349" unicode="Ư"/><glyph d="M965 1305l131 61q47 -84 47 -162q0 -205 -197 -272v-932h-153v156h-7q-154 -180 -327 -181q-305 0 -305 390v630h170v-608q0 -141 44 -203.5t142 -62.5q76 0 134 38t134 130v706h43q82 14 127 57.5t45 139.5q1 56 -28 113z" glyph-name="uhorn" horiz-adv-x="1114" unicode="ư"/><glyph d="M575 678h-210v-252h210v-96h-210v-842h-119v842h-234v96h234v252h-234v96h234v762h119v-762h210v-96z" glyph-name="uni01C2" horiz-adv-x="589" unicode="ǂ"/><glyph d="M352 547h404l-199 602h-8zM926 0l-127 410h-490l-129 -410h-174l455 1343h192l455 -1343h-182zM467 1446l-215 231l74 54l225 -189h8l225 189l74 -54l-215 -231h-176z" glyph-name="uni01CD" horiz-adv-x="1114" unicode="Ǎ"/><glyph d="M1008 152v-129q-35 -23 -117 -23q-59 0 -101 29.5t-55 60.5l-12 29h-6q-76 -63 -154 -101q-84 -43 -176 -43q-125 0 -208 78t-83 205q0 324 611 324v28q0 143 -53.5 207t-166.5 64q-76 0 -147.5 -21.5t-103.5 -44.5l-33 -20l-94 127q18 10 52 27.5t133 45t195 27.5 q387 0 388 -412v-377q0 -57 13 -77.5t48 -20.5q41 1 70 17zM707 473q-446 0 -447 -203q0 -74 48 -116.5t128 -42.5q115 0 271 125v237zM453 1176l-234 286l72 66l241 -232h9l241 232l72 -66l-233 -286h-168z" glyph-name="uni01CE" horiz-adv-x="1032" unicode="ǎ"/><glyph d="M184 0v1343h170v-1343h-170zM180 1446l-215 231l74 54l225 -189h8l226 189l73 -54l-215 -231h-176z" glyph-name="uni01CF" horiz-adv-x="538" unicode="Ǐ"/><glyph d="M168 0v995h168v-995h-168zM168 1176l-234 286l72 66l242 -232h8l242 232l71 -66l-233 -286h-168z" glyph-name="uni01D0" horiz-adv-x="503" unicode="ǐ"/><glyph d="M680 -25q-256 0 -415 190.5t-159 512.5q0 319 158 504.5t416 185.5q256 0 415.5 -187.5t159.5 -502.5q0 -322 -159.5 -512.5t-415.5 -190.5zM680 125q178 0 287.5 150.5t109.5 402.5q0 248 -108.5 394.5t-288.5 146.5t-288.5 -146.5t-108.5 -394.5q0 -252 109.5 -402.5 t287.5 -150.5zM592 1446l-215 231l74 54l225 -189h8l225 189l74 -54l-215 -231h-176z" glyph-name="uni01D1" horiz-adv-x="1359" unicode="Ǒ"/><glyph d="M555 -25q-193 0 -327 141.5t-134 379.5q0 242 134 383t327 141t327 -141.5t134 -382.5q0 -238 -134 -379.5t-327 -141.5zM555 115q129 0 208 105.5t79 275.5q0 172 -79 278.5t-208 106.5t-208 -106.5t-79 -278.5q0 -170 79 -275.5t208 -105.5zM471 1176l-233 286l71 66 l242 -232h8l242 232l71 -66l-233 -286h-168z" glyph-name="uni01D2" horiz-adv-x="1110" unicode="ǒ"/><glyph d="M662 -25q-223 0 -353.5 137.5t-130.5 442.5v788h170v-792q0 -426 314 -426q317 0 317 426v792h164v-788q0 -305 -130 -442.5t-351 -137.5zM571 1446l-215 231l74 54l225 -189h9l225 189l74 -54l-215 -231h-177z" glyph-name="uni01D3" horiz-adv-x="1320" unicode="Ǔ"/><glyph d="M459 -25q-305 0 -305 390v630h170v-608q0 -141 44 -203.5t142 -62.5q76 0 134 38t134 130v706h168v-995h-153v156h-7q-153 -181 -327 -181zM473 1176l-233 286l71 66l242 -232h8l242 232l71 -66l-233 -286h-168z" glyph-name="uni01D4" horiz-adv-x="1114" unicode="ǔ"/><glyph d="M662 -25q-223 0 -353.5 137.5t-130.5 442.5v788h170v-792q0 -426 314 -426q317 0 317 426v792h164v-788q0 -305 -130 -442.5t-351 -137.5zM448.5 1464q-40.5 0 -66.5 27t-26 67.5t26 66.5t66.5 26t67.5 -26t27 -66.5t-27 -67.5t-67.5 -27zM385 1763v95h549v-95h-549z M870 1464q-41 0 -67.5 27t-26.5 67.5t26.5 66.5t67.5 26t67 -26t26 -66.5t-26 -67.5t-67 -27z" glyph-name="uni01D5" horiz-adv-x="1320" unicode="Ǖ"/><glyph d="M459 -25q-305 0 -305 390v630h170v-608q0 -141 44 -203.5t142 -62.5q76 0 134 38t134 130v706h168v-995h-153v156h-7q-153 -181 -327 -181zM360 1204q-41 0 -67.5 26.5t-26.5 65.5q0 41 26.5 68t67.5 27t67 -27t26 -68q0 -39 -26 -65.5t-67 -26.5zM283 1536v96h546v-96 h-546zM754 1204q-41 0 -66.5 26.5t-25.5 65.5q0 41 25.5 68t66.5 27t67.5 -27t26.5 -68q0 -39 -26.5 -65.5t-67.5 -26.5z" glyph-name="uni01D6" horiz-adv-x="1114" unicode="ǖ"/><glyph d="M662 -25q-223 0 -353.5 137.5t-130.5 442.5v788h170v-792q0 -426 314 -426q317 0 317 426v792h164v-788q0 -305 -130 -442.5t-351 -137.5zM448.5 1464q-40.5 0 -66.5 27t-26 67.5t26 66.5t66.5 26t67.5 -26t27 -66.5t-27 -67.5t-67.5 -27zM582 1739l194 243l109 -73 l-228 -223zM870 1464q-41 0 -67.5 27t-26.5 67.5t26.5 66.5t67.5 26t67 -26t26 -66.5t-26 -67.5t-67 -27z" glyph-name="uni01D7" horiz-adv-x="1320" unicode="Ǘ"/><glyph d="M459 -25q-305 0 -305 390v630h170v-608q0 -141 44 -203.5t142 -62.5q76 0 134 38t134 130v706h168v-995h-153v156h-7q-153 -181 -327 -181zM543 1444l-72 49l168 236l100 -70zM360 1204q-41 0 -67.5 26.5t-26.5 65.5q0 41 26.5 68t67.5 27t67 -27t26 -68q0 -39 -26 -65.5 t-67 -26.5zM754 1204q-41 0 -66.5 26.5t-25.5 65.5q0 41 25.5 68t66.5 27t67.5 -27t26.5 -68q0 -39 -26.5 -65.5t-67.5 -26.5z" glyph-name="uni01D8" horiz-adv-x="1114" unicode="ǘ"/><glyph d="M662 -25q-223 0 -353.5 137.5t-130.5 442.5v788h170v-792q0 -426 314 -426q317 0 317 426v792h164v-788q0 -305 -130 -442.5t-351 -137.5zM586 1718l-203 197l68 55l204 -153h9l204 153l68 -55l-203 -197h-147zM448.5 1464q-40.5 0 -66.5 27t-26 67.5t26 66.5t66.5 26 t67.5 -26t27 -66.5t-27 -67.5t-67.5 -27zM870 1464q-41 0 -67.5 27t-26.5 67.5t26.5 66.5t67.5 26t67 -26t26 -66.5t-26 -67.5t-67 -27z" glyph-name="uni01D9" horiz-adv-x="1320" unicode="Ǚ"/><glyph d="M459 -25q-305 0 -305 390v630h170v-608q0 -141 44 -203.5t142 -62.5q76 0 134 38t134 130v706h168v-995h-153v156h-7q-153 -181 -327 -181zM356 1720l197 -149h8l197 149l61 -57l-192 -188h-140l-192 188zM360 1204q-41 0 -67.5 26.5t-26.5 65.5q0 41 26.5 68t67.5 27 t67 -27t26 -68q0 -39 -26 -65.5t-67 -26.5zM754 1204q-41 0 -66.5 26.5t-25.5 65.5q0 41 25.5 68t66.5 27t67.5 -27t26.5 -68q0 -39 -26.5 -65.5t-67.5 -26.5z" glyph-name="uni01DA" horiz-adv-x="1114" unicode="ǚ"/><glyph d="M662 -25q-223 0 -353.5 137.5t-130.5 442.5v788h170v-792q0 -426 314 -426q317 0 317 426v792h164v-788q0 -305 -130 -442.5t-351 -137.5zM737 1739l-75 -53l-228 223l109 73zM448.5 1464q-40.5 0 -66.5 27t-26 67.5t26 66.5t66.5 26t67.5 -26t27 -66.5t-27 -67.5 t-67.5 -27zM870 1464q-41 0 -67.5 27t-26.5 67.5t26.5 66.5t67.5 26t67 -26t26 -66.5t-26 -67.5t-67 -27z" glyph-name="uni01DB" horiz-adv-x="1320" unicode="Ǜ"/><glyph d="M459 -25q-305 0 -305 390v630h170v-608q0 -141 44 -203.5t142 -62.5q76 0 134 38t134 130v706h168v-995h-153v156h-7q-153 -181 -327 -181zM571 1444l-196 215l100 70l168 -236zM360 1204q-41 0 -67.5 26.5t-26.5 65.5q0 41 26.5 68t67.5 27t67 -27t26 -68 q0 -39 -26 -65.5t-67 -26.5zM754 1204q-41 0 -66.5 26.5t-25.5 65.5q0 41 25.5 68t66.5 27t67.5 -27t26.5 -68q0 -39 -26.5 -65.5t-67.5 -26.5z" glyph-name="uni01DC" horiz-adv-x="1114" unicode="ǜ"/><glyph d="M469 528h352v680h-8zM993 145h590v-145h-762v391h-422l-202 -391h-181l705 1343h842l-27 -143h-543v-422h385v-145h-385v-488zM881 1522v116h549v-116h-549z" glyph-name="uni01E2" horiz-adv-x="1683" unicode="Ǣ"/><glyph d="M836 143q-6 -6 -16.5 -17t-48.5 -41t-83 -51.5t-119.5 -40t-156.5 -18.5q-125 0 -208 77t-83 204q0 324 610 324v28q0 143 -53 207t-166 64q-76 0 -147.5 -21.5t-106.5 -42.5l-33 -20l-92 125q18 10 52 27.5t133.5 45t195.5 27.5q240 0 332 -158q129 158 354 158 q207 0 310.5 -130t103.5 -372v-59h-707q0 -154 86 -249t217 -95q182 0 295 112l107 -106q-158 -145 -402 -146q-242 0 -370 168h-4zM461 109q90 0 181 40.5t134 102.5q-37 90 -43 205l-2 4q-446 0 -446 -193q0 -74 48 -116.5t128 -42.5zM911 575h539q0 305 -250 306 q-131 0 -210 -86.5t-79 -219.5zM571 1231v117h545v-117h-545z" glyph-name="uni01E3" horiz-adv-x="1607" unicode="ǣ"/><glyph d="M713 -25q-270 0 -438.5 186.5t-168.5 510.5q0 319 172.5 507.5t444.5 188.5q242 0 387 -129l-90 -131q-125 111 -293 111q-203 0 -323.5 -146.5t-120.5 -396.5q0 -256 116.5 -403.5t329.5 -147.5q152 0 242 80v467l155 41v-582q-151 -156 -413 -156zM635 1446l-215 231 l74 54l225 -189h8l225 189l74 -54l-215 -231h-176z" glyph-name="Gcaron" horiz-adv-x="1263" unicode="Ǧ"/><glyph d="M961 999l-43 -139l-162 6q82 -82 82 -204q0 -156 -104.5 -251.5t-260.5 -95.5q-76 0 -149 35q-63 -55 -64 -119q0 -109 176 -108h170q176 0 262 -57.5t86 -180.5q0 -145 -138 -244.5t-365 -99.5q-186 0 -285.5 63.5t-99.5 188.5q0 29 6 50.5t10 29.5l6 6h156 q-6 -8 -10.5 -19.5t-4.5 -19.5v-6q0 -176 246 -176q137 0 226.5 60.5t89.5 142.5q0 68 -49.5 95.5t-151.5 27.5h-150q-164 0 -242.5 51t-78.5 170q0 111 108 184v8q-129 109 -129 268.5t108.5 257t266.5 97.5q74 0 141 -25zM473 897q-90 0 -150.5 -62.5t-60.5 -169 t61.5 -172t149.5 -65.5t149.5 65.5t61.5 172t-60.5 169t-150.5 62.5zM463 1176l-234 286l72 66l242 -232h8l242 232l71 -66l-233 -286h-168z" glyph-name="gcaron" horiz-adv-x="1032" unicode="ǧ"/><glyph d="M739 -434q-84 0 -139 47t-55 131q0 129 125 233q-258 4 -411 194.5t-153 506.5q0 319 158 504.5t416 185.5q256 0 415.5 -187.5t159.5 -502.5q0 -266 -105.5 -432t-313.5 -260q-80 -35 -120 -91.5t-40 -113.5q0 -45 28.5 -69.5t69.5 -24.5q43 0 82 28l47 -92 q-72 -57 -164 -57zM680 125q178 0 287.5 150.5t109.5 402.5q0 248 -108.5 394.5t-288.5 146.5t-288.5 -146.5t-108.5 -394.5q0 -252 109.5 -402.5t287.5 -150.5z" glyph-name="uni01EA" horiz-adv-x="1359" unicode="Ǫ"/><glyph d="M604 -422q-82 0 -133 45t-51 129q0 68 36 130.5t79 94.5q-186 8 -313.5 148.5t-127.5 370.5q0 242 134 383t327 141t327 -141.5t134 -382.5q0 -197 -84 -316t-242 -188q-68 -31 -106.5 -88.5t-38.5 -118.5q0 -45 27.5 -69.5t66.5 -24.5q41 0 84 26l43 -84 q-70 -55 -162 -55zM555 115q129 0 208 105.5t79 275.5q0 172 -79 278.5t-208 106.5t-208 -106.5t-79 -278.5q0 -170 79 -275.5t208 -105.5z" glyph-name="uni01EB" horiz-adv-x="1110" unicode="ǫ"/><glyph d="M713 -25q-270 0 -438.5 186.5t-168.5 510.5q0 319 172.5 507.5t444.5 188.5q242 0 387 -129l-90 -131q-125 111 -293 111q-203 0 -323.5 -146.5t-120.5 -396.5q0 -256 116.5 -403.5t329.5 -147.5q152 0 242 80v467l155 41v-582q-151 -156 -413 -156zM688 1427l-76 86 l291 263l96 -113z" glyph-name="uni01F4" horiz-adv-x="1263" unicode="Ǵ"/><glyph d="M961 999l-43 -139l-162 6q82 -82 82 -204q0 -156 -104.5 -251.5t-260.5 -95.5q-76 0 -149 35q-63 -55 -64 -119q0 -109 176 -108h170q176 0 262 -57.5t86 -180.5q0 -145 -138 -244.5t-365 -99.5q-186 0 -285.5 63.5t-99.5 188.5q0 29 6 50.5t10 29.5l6 6h156 q-6 -8 -10.5 -19.5t-4.5 -19.5v-6q0 -176 246 -176q137 0 226.5 60.5t89.5 142.5q0 68 -49.5 95.5t-151.5 27.5h-150q-164 0 -242.5 51t-78.5 170q0 111 108 184v8q-129 109 -129 268.5t108.5 257t266.5 97.5q74 0 141 -25zM473 897q-90 0 -150.5 -62.5t-60.5 -169 t61.5 -172t149.5 -65.5t149.5 65.5t61.5 172t-60.5 169t-150.5 62.5zM518 1174l-86 83l289 342l119 -112z" glyph-name="uni01F5" horiz-adv-x="1032" unicode="ǵ"/><glyph d="M184 0v1343h176l611 -1075h8v1075h162v-1343h-176l-611 1073h-8v-1073h-162zM705 1427l-312 236l96 113l291 -263z" glyph-name="uni01F8" horiz-adv-x="1325" unicode="Ǹ"/><glyph d="M168 0v995h154v-143h6q168 168 334 168q303 0 303 -389v-631h-168v608q0 141 -45 203.5t-144 62.5q-74 0 -131 -34.5t-141 -118.5v-721h-168zM625 1174l-322 313l119 112l289 -342z" glyph-name="uni01F9" horiz-adv-x="1120" unicode="ǹ"/><glyph d="M469 528h352v680h-8zM993 145h590v-145h-762v391h-422l-202 -391h-181l705 1343h842l-27 -143h-543v-422h385v-145h-385v-488zM1120 1444l-76 86l291 262l97 -113z" glyph-name="AEacute" horiz-adv-x="1683" unicode="Ǽ"/><glyph d="M836 143q-6 -6 -16.5 -17t-48.5 -41t-83 -51.5t-119.5 -40t-156.5 -18.5q-125 0 -208 77t-83 204q0 324 610 324v28q0 143 -53 207t-166 64q-76 0 -147.5 -21.5t-106.5 -42.5l-33 -20l-92 125q18 10 52 27.5t133.5 45t195.5 27.5q240 0 332 -158q129 158 354 158 q207 0 310.5 -130t103.5 -372v-59h-707q0 -154 86 -249t217 -95q182 0 295 112l107 -106q-158 -145 -402 -146q-242 0 -370 168h-4zM461 109q90 0 181 40.5t134 102.5q-37 90 -43 205l-2 4q-446 0 -446 -193q0 -74 48 -116.5t128 -42.5zM911 575h539q0 305 -250 306 q-131 0 -210 -86.5t-79 -219.5zM815 1174l-86 83l289 342l119 -112z" glyph-name="aeacute" horiz-adv-x="1607" unicode="ǽ"/><glyph d="M1014 375q0 -178 -118 -289t-333 -111q-303 0 -495 136l100 133q172 -119 395 -119q135 0 206 62.5t71 166.5q0 47 -14.5 81t-47.5 59.5t-62.5 41t-82.5 37.5q-16 6 -25 11l-194 75q-287 115 -287 336q0 158 120 265.5t318 107.5q227 0 416 -125l-98 -127 q-154 102 -318 103q-119 0 -192.5 -56.5t-73.5 -148.5q0 -47 18.5 -82t58.5 -60.5t69.5 -39t84.5 -33.5l195 -76q135 -51 212 -132t77 -216zM365 -381q125 10 174 32.5t49 65.5q0 74 -146 86l37 78q133 -16 186.5 -52t53.5 -105q0 -170 -338 -187z" glyph-name="Scommaaccent" horiz-adv-x="1093" unicode="Ș"/><glyph d="M406 606l190 -76q84 -33 140.5 -100.5t56.5 -157.5q0 -141 -106.5 -219t-258.5 -78q-121 0 -214 18.5t-124 37.5l-33 18l88 125q98 -68 289 -68q80 0 138.5 39t58.5 117q0 98 -146 156l-188 76q-84 33 -137.5 95t-53.5 148q0 131 104.5 207t260.5 76q80 0 155.5 -18.5 t110.5 -38.5l35 -19l-94 -121q-78 66 -205 66q-205 0 -205 -144q1 -84 138 -139zM260 -381q125 10 174 32.5t49 65.5q0 74 -145 86l37 78q133 -16 186 -52t53 -105q0 -170 -338 -187z" glyph-name="scommaaccent" horiz-adv-x="858" unicode="ș"/><glyph d="M463 0v1200h-406v143h983v-143h-405v-1200h-172zM373 -463l-17 82q125 10 174.5 32.5t49.5 65.5q0 74 -146 86l37 78q133 -16 186.5 -52t53.5 -105q0 -171 -338 -187z" glyph-name="uni021A" horiz-adv-x="1097" unicode="Ț"/><glyph d="M481 -25q-285 0 -284 332v551h-148v137h148v203l170 45v-248h268v-137h-268v-553q0 -96 34.5 -144t118.5 -48q51 0 113 26v-137q-80 -27 -152 -27zM258 -463l-16 82q125 10 174 32.5t49 65.5q0 74 -146 86l37 78q133 -16 186.5 -52t53.5 -105q0 -171 -338 -187z" glyph-name="uni021B" horiz-adv-x="692" unicode="ț"/><glyph d="M166 -12v1007h168v-1007q0 -96 -27.5 -200.5t-83.5 -152.5l-137 84q37 33 58.5 118t21.5 151z" glyph-name="uni0237" horiz-adv-x="489" unicode="ȷ"/><glyph d="M389 129h236q367 0 366 281q0 256 -366 256h-236v-207h311v-97h-311v-233zM389 1217v-439h201q326 0 325 230q0 209 -319 209h-207zM846 737v-8q311 -49 311 -328q0 -197 -137 -299t-371 -102h-430v362h-158v97h158v884h399q215 0 338 -78.5t123 -244.5q0 -102 -59 -177 t-174 -106z" glyph-name="uni0243" horiz-adv-x="1234" unicode="Ƀ"/><glyph d="M59 846v129q35 23 117 22q59 0 101 -29.5t55 -58.5l12 -30h6q76 63 154 100q82 43 176 43q125 0 208 -78t83 -205q0 -324 -611 -323v-29q0 -143 53.5 -206.5t166.5 -63.5q76 0 147.5 21.5t103.5 41.5l33 23l94 -127q-18 -10 -52 -27.5t-133 -45.5t-195 -28 q-387 0 -388 412v377q0 57 -13 77.5t-48 20.5q-41 0 -70 -16zM360 762v-238q446 0 447 203q0 74 -48 117t-128 43q-115 0 -271 -125z" glyph-name="uni0250" horiz-adv-x="1048" unicode="ɐ"/><glyph d="M1008 152v-129q-35 -23 -117 -23q-59 0 -101 29.5t-55 60.5l-12 29h-6q-76 -63 -154 -101q-84 -43 -176 -43q-125 0 -208 78t-83 205q0 324 611 324v28q0 143 -53.5 207t-166.5 64q-76 0 -147.5 -21.5t-103.5 -44.5l-33 -20l-94 127q18 10 52 27.5t133 45t195 27.5 q387 0 388 -412v-377q0 -57 13 -77.5t48 -20.5q41 1 70 17zM707 236v237q-446 0 -447 -203q0 -74 48 -116.5t128 -42.5q115 0 271 125z" glyph-name="uni0251" horiz-adv-x="1089" unicode="ɑ"/><glyph d="M76 152q29 -16 69 -17q35 0 48.5 20.5t13.5 77.5v377q0 412 387 412q96 0 191.5 -25.5t142.5 -50.5l47 -24l-94 -127q-12 10 -36 24.5t-98.5 38t-150.5 23.5q-113 0 -166 -63.5t-53 -207.5v-28q610 0 610 -324q0 -127 -83 -205t-208 -78q-94 0 -176 43q-78 37 -153 101 h-7q-2 -4 -5 -12.5t-15 -29t-29.5 -35.5t-49.5 -28.5t-68.5 -13.5t-65.5 6t-41 10l-10 7v129zM377 473v-237q156 -125 270 -125q80 0 128 43t48 116q0 203 -446 203z" glyph-name="uni0252" horiz-adv-x="1067" unicode="ɒ"/><glyph d="M608 -25q-150 0 -284 123h-7v-98h-149v1100q0 176 88 279.5t258 103.5l129 -162q-55 25 -113 25q-184 0 -194 -248v-232q145 139 307 140q188 0 291.5 -134.5t103.5 -365.5q0 -244 -125 -387.5t-305 -143.5zM580 117q125 0 204.5 105.5t79.5 281.5q0 360 -262 360 q-123 0 -266 -137v-506q121 -104 244 -104z" glyph-name="uni0253" horiz-adv-x="1136" unicode="ɓ"/><glyph d="M424 -25q-213 0 -371 148l84 117q125 -125 287 -125q141 0 229 107.5t88 279.5t-87 275.5t-230 103.5q-160 0 -287 -123l-84 116q160 145 371 146q219 0 355 -134t136 -378t-138 -388.5t-353 -144.5z" glyph-name="uni0254" horiz-adv-x="983" unicode="ɔ"/><glyph d="M582 111q74 0 122 30.5t48 77.5q0 39 -28 65.5t-79 26.5q-113 0 -233 -147q78 -53 170 -53zM864 903l-82 -104q-98 88 -202 88q-141 0 -230.5 -108.5t-89.5 -282.5q0 -135 62 -236q160 172 333 172q109 0 171.5 -58.5t62.5 -152.5q0 -104 -85 -175t-226 -71 q-139 0 -248 66q-47 -90 -78 -182l-135 57q41 109 104 211q-127 139 -127 369q0 242 139.5 383t339.5 141q160 0 291 -117z" glyph-name="uni0255" horiz-adv-x="933" unicode="ɕ"/><glyph d="M1145 -219l-92 -156q-248 0 -248 281l2 209q-143 -139 -299 -140q-190 0 -301 136.5t-111 384.5q0 233 127 378.5t305 145.5q150 0 269 -115l2 531l170 47v-1540q0 -92 22.5 -136.5t79.5 -44.5q23 1 74 19zM545 117q131 0 254 137v520q-117 104 -242 105 q-121 0 -204 -106.5t-83 -274.5q0 -180 72 -280.5t203 -100.5z" glyph-name="uni0256" horiz-adv-x="1136" unicode="ɖ"/><glyph d="M508 -25q-190 0 -301 136.5t-111 384.5q0 233 127 378.5t305 145.5q137 0 279 -115l-2 273q0 147 66.5 228t199.5 81l82 -150q-37 12 -63 13q-121 0 -121 -189v-1161h-154v117h-6q-149 -142 -301 -142zM545 117q131 0 254 137v520q-117 104 -242 105q-121 0 -204 -106.5 t-83 -274.5q0 -180 72 -280.5t203 -100.5z" glyph-name="uni0257" horiz-adv-x="1136" unicode="ɗ"/><glyph d="M68 121l104 104q117 -111 297 -110q131 0 217 95t86 249h-706v59q0 238 108.5 370t310.5 132q209 0 336 -139.5t127 -384.5q0 -244 -132 -382.5t-347 -138.5q-249 1 -401 146zM768 575q0 133 -76 219.5t-207 86.5q-125 0 -190.5 -83t-65.5 -223h539z" glyph-name="uni0258" horiz-adv-x="1015" unicode="ɘ"/><glyph d="M174 770l-104 104q152 145 401 146q215 0 347 -138.5t132 -381.5q0 -246 -127 -385.5t-336 -139.5q-203 0 -311 132.5t-108 369.5v60h706q0 154 -86 249t-217 95q-180 0 -297 -111zM770 420h-539q0 -139 65.5 -222t190.5 -83q131 0 207 86t76 219z" glyph-name="uni0259" horiz-adv-x="1015" unicode="ə"/><glyph d="M760 555l-529 -215q20 -109 94 -170t181 -61q117 0 187.5 105t70.5 261q0 31 -4 80zM1323 610l45 -88q-68 -51 -135.5 -51t-121.5 47t-75 150l-123 -50q10 -68 11 -129q0 -217 -115 -365.5t-299 -148.5q-193 0 -304.5 122t-129.5 306l661 271q-70 213 -280 213 q-127 0 -254 -86l-62 117q150 102 334 102q145 0 250.5 -75t157.5 -212l166 68l90 -35q8 -109 32.5 -147.5t69.5 -38.5q39 -1 82 30z" glyph-name="uni025A" horiz-adv-x="1327" unicode="ɚ"/><glyph d="M510 -25q-174 0 -291 82t-117 217q0 186 222 250v8q-80 29 -124 88.5t-44 131.5q0 131 103 199.5t259 68.5q164 0 301 -98l-67 -113q-121 78 -230 78q-88 0 -143 -40t-55 -116q0 -72 57 -112.5t174 -40.5h113v-121h-144q-123 0 -188.5 -43t-65.5 -125q0 -84 71 -131 t187 -47q133 0 258 90l72 -113q-158 -113 -348 -113z" glyph-name="uni025B" horiz-adv-x="901" unicode="ɛ"/><glyph d="M430 -25q-195 0 -354 113l71 113q127 -90 259 -90q117 0 187.5 47t70.5 131q0 82 -66 125t-188 43h-142v121h111q117 0 174 40.5t57 112.5q0 76 -51 116t-139 40q-117 0 -238 -78l-67 113q139 98 317 98q150 0 248 -68.5t98 -199.5q0 -72 -44 -131.5t-124 -88.5v-8 q221 -63 221 -250q0 -135 -114.5 -217t-286.5 -82z" glyph-name="uni025C" horiz-adv-x="933" unicode="ɜ"/><glyph d="M530 -25q-186 0 -307 81t-121 218q0 186 222 250v8q-80 29 -124 88.5t-44 131.5q0 131 103 199.5t265 68.5q217 0 359.5 -136t142.5 -388q0 -248 -139.5 -384.5t-356.5 -136.5zM532 111q150 0 235 99t85 286q0 188 -87 289.5t-239 101.5q-90 0 -146 -40t-56 -116 q0 -72 55 -112.5t168 -40.5h55v-121h-86q-119 0 -182.5 -43t-63.5 -125q0 -84 69.5 -131t192.5 -47z" glyph-name="uni025E" horiz-adv-x="1118" unicode="ɞ"/><glyph d="M530 571v-98h-170v-586q0 -332 -272 -331q-82 0 -147 26l34 127q49 -16 95 -16q70 0 96.5 48t26.5 146v586h-177v98h177v424h167v-424h170z" glyph-name="uni025F" horiz-adv-x="552" unicode="ɟ"/><glyph d="M530 -442q-199 0 -356 108l62 119q137 -92 294 -92q264 0 275 262l2 188q-137 -133 -295 -133q-188 0 -299 134.5t-111 367.5q0 225 128 366.5t305 141.5q80 0 140 -27.5t134 -87.5l-2 84q0 141 66.5 220t201.5 79l82 -149q-29 12 -63 12q-121 0 -121 -188v-1012 q0 -186 -115 -289.5t-328 -103.5zM549 150q125 0 256 137v487q-121 104 -244 105q-121 0 -204 -103.5t-83 -261.5q0 -168 73 -266t202 -98z" glyph-name="uni0260" horiz-adv-x="1144" unicode="ɠ"/><glyph d="M961 999l-43 -139l-162 6q82 -82 82 -204q0 -156 -104.5 -251.5t-260.5 -95.5q-76 0 -149 35q-63 -55 -64 -119q0 -109 176 -108h170q176 0 262 -57.5t86 -180.5q0 -145 -138 -244.5t-365 -99.5q-186 0 -285.5 63.5t-99.5 188.5q0 29 6 50.5t10 29.5l6 6h156 q-6 -8 -10.5 -19.5t-4.5 -19.5v-6q0 -176 246 -176q137 0 226.5 60.5t89.5 142.5q0 68 -49.5 95.5t-151.5 27.5h-150q-164 0 -242.5 51t-78.5 170q0 111 108 184v8q-129 109 -129 268.5t108.5 257t266.5 97.5q74 0 141 -25zM473 897q-90 0 -150.5 -62.5t-60.5 -169 t61.5 -172t149.5 -65.5t149.5 65.5t61.5 172t-60.5 169t-150.5 62.5z" glyph-name="uni0261" horiz-adv-x="1024" unicode="ɡ"/><glyph d="M573 -25q-211 0 -345 138.5t-134 386.5q0 236 140.5 378t349.5 142q166 0 317 -102l-76 -125q-115 94 -233 94q-141 0 -234.5 -104.5t-93.5 -282.5q0 -182 87 -285.5t237 -103.5q115 0 180 61v326l150 39v-437q-130 -125 -345 -125z" glyph-name="uni0262" horiz-adv-x="1017" unicode="ɢ"/><glyph d="M485 23h-8q-76 -156 -76 -256q0 -109 82 -109q80 0 80 109q0 104 -78 256zM932 995l-340 -886q45 -92 64.5 -132t36 -95.5t16.5 -102.5q0 -109 -59.5 -173.5t-166.5 -64.5q-109 0 -168 64.5t-59 173.5q0 66 25.5 135.5t89.5 191.5l-346 889h174l280 -780h8l279 780h166z " glyph-name="uni0263" horiz-adv-x="956" unicode="ɣ"/><glyph d="M524 -25q-172 0 -264 90.5t-92 251.5q0 201 240 426q-113 137 -226 138q-55 0 -96 -29l-53 123q59 45 172 45q162 0 319 -178q158 178 318 178q113 0 172 -45l-53 -123q-41 29 -97 29q-113 0 -225 -138q240 -231 240 -426q0 -162 -91.5 -252t-263.5 -90zM524 115 q94 0 143.5 58t49.5 149q0 160 -193 342q-193 -178 -192 -342q0 -90 49 -148.5t143 -58.5z" glyph-name="uni0264" horiz-adv-x="1046" unicode="ɤ"/><glyph d="M782 -420v574q-137 -178 -323 -179q-305 0 -305 390v630h170v-608q0 -141 44 -203.5t142 -62.5q78 0 138.5 38t133.5 130v706h170v-1360z" glyph-name="uni0265" horiz-adv-x="1120" unicode="ɥ"/><glyph d="M168 0v1100q0 176 88 279.5t258 103.5l129 -162q-55 25 -113 25q-184 0 -194 -248l-6 -258q86 82 161.5 124t170.5 42q303 0 303 -390v-616h-168v594q0 141 -45 202.5t-144 61.5q-74 0 -132 -35t-140 -116v-707h-168z" glyph-name="uni0266" horiz-adv-x="1114" unicode="ɦ"/><glyph d="M692 -375l-112 156q55 -18 94 -19q70 0 96.5 49.5t26.5 147.5v635q0 141 -45 202.5t-144 61.5q-74 0 -132 -35t-140 -116v-707h-168v1100q0 176 88 279.5t258 103.5l129 -162q-55 25 -113 25q-184 0 -194 -248v-258q162 166 326 166q303 0 303 -390v-659 q-1 -332 -273 -332z" glyph-name="uni0267" horiz-adv-x="1114" unicode="ɧ"/><glyph d="M278.5 1200q-49.5 0 -83 31t-33.5 78q0 49 33.5 78.5t83 29.5t83 -29.5t33.5 -78.5q0 -47 -33.5 -78t-83 -31zM530 571v-98h-170v-473h-167v473h-177v98h177v424h167v-424h170z" glyph-name="uni0268" horiz-adv-x="552" unicode="ɨ"/><glyph d="M94 0v137h172v721h-172v137h510v-137h-170v-721h170v-137h-510z" glyph-name="uni026A" horiz-adv-x="698" unicode="ɪ"/><glyph d="M227 750h41v12q0 55 -24.5 96t-77.5 41q-70 0 -70 -70q0 -35 34 -57t97 -22zM606 653h-170v-653h-168v653h-20q-131 0 -195.5 48.5t-64.5 129.5q0 70 48 116t122 46q66 0 110 -41v506h168v-708h170v-97z" glyph-name="uni026C" horiz-adv-x="618" unicode="ɬ"/><glyph d="M420 -375q-135 0 -193.5 81t-58.5 237v1515h168v-1515q0 -92 22.5 -136.5t79.5 -44.5q23 0 74 19l35 -129q-57 -27 -127 -27z" glyph-name="uni026D" horiz-adv-x="522" unicode="ɭ"/><glyph d="M1100 905l-385 -518q195 20 311.5 -89.5t116.5 -293.5q0 -207 -124 -327.5t-298 -120.5q-236 0 -404 159l84 107q139 -127 306 -127q113 0 189.5 84t76.5 221q0 129 -71 199.5t-204 70.5q-61 0 -129 -32l-67 92l393 528h-559v-858h-168v1458h168v-463h764v-90z" glyph-name="uni026E" horiz-adv-x="1181" unicode="ɮ"/><glyph d="M461 -25q-303 0 -303 390v630h168v-608q0 -141 44 -203.5t142 -62.5q113 0 248 153v721h170v-608q0 -141 44 -203.5t140 -62.5q111 0 250 153v721h168v-995h-154v143h-4q-160 -168 -311 -168q-207 0 -275 191q-173 -191 -327 -191z" glyph-name="uni026F" horiz-adv-x="1691" unicode="ɯ"/><glyph d="M1364 -420v565q-137 -170 -301 -170q-207 0 -275 191q-174 -190 -327 -191q-303 0 -303 390v630h168v-608q0 -141 44 -203.5t142 -62.5q113 0 248 153v721h170v-608q0 -141 44 -203.5t140 -62.5q111 0 250 153v721h168v-1364z" glyph-name="uni0270" horiz-adv-x="1697" unicode="ɰ"/><glyph d="M1278 -375l-107 156q51 -18 89 -19q68 0 91 48.5t23 148.5v649q0 139 -45 202.5t-139 63.5q-113 0 -250 -153v-721h-168v608q0 141 -44 203.5t-142 62.5q-111 0 -250 -153v-721h-168v995h154v-143h6q154 168 309 168q209 0 274 -191q174 190 328 191q303 0 303 -389v-674 q0 -332 -264 -332z" glyph-name="uni0271" horiz-adv-x="1697" unicode="ɱ"/><glyph d="M84 -375l-92 156q51 -18 74 -19q57 0 79.5 44t22.5 137v1052h154v-143h6q168 168 334 168q303 0 303 -389v-631h-168v608q0 141 -45 203.5t-144 62.5q-74 0 -131 -34.5t-141 -118.5v-778q0 -156 -58.5 -237t-193.5 -81z" glyph-name="uni0272" horiz-adv-x="1120" unicode="ɲ"/><glyph d="M1141 -219l-92 -156q-135 0 -193.5 81t-58.5 237v665q0 141 -45 203.5t-144 62.5q-74 0 -131 -34.5t-141 -118.5v-721h-168v995h154v-143h6q168 168 334 168q303 0 303 -389v-688q0 -92 22.5 -136.5t79.5 -44.5q23 1 74 19z" glyph-name="uni0273" horiz-adv-x="1120" unicode="ɳ"/><glyph d="M168 0v995h160l448 -704h8v704h160v-995h-158l-450 723h-8v-723h-160z" glyph-name="uni0274" horiz-adv-x="1112" unicode="ɴ"/><glyph d="M856 457h-600q10 -164 90 -256t209 -92t210 92t91 256zM258 578h596q-18 147 -98 229t-201 82q-119 0 -199 -83t-98 -228zM555 1020q197 0 329 -138.5t132 -386t-132 -384t-329 -136.5t-329 136.5t-132 384t132 386t329 138.5z" glyph-name="uni0275" horiz-adv-x="1110" unicode="ɵ"/><glyph d="M588 -25q-213 0 -353.5 137.5t-140.5 385t140.5 385t353.5 137.5q119 0 209 -25h573l-16 -129h-453v-288h299v-121h-299v-328h490v-129h-594q-88 -25 -209 -25zM598 113q61 0 135 24v719q-74 25 -135 25q-143 0 -235.5 -99.5t-92.5 -283.5q0 -188 91.5 -286.5 t236.5 -98.5z" glyph-name="uni0276" horiz-adv-x="1431" unicode="ɶ"/><glyph d="M774 885v-774q152 4 251 109.5t99 279.5t-96 276.5t-254 108.5zM618 111v774q-152 -8 -251 -109.5t-99 -275.5q0 -172 100 -278.5t250 -110.5zM774 1458v-444q219 -8 371.5 -145.5t152.5 -369t-154.5 -372.5t-369.5 -145v-402h-156v402q-215 4 -369.5 145t-154.5 372.5 t153.5 369t370.5 145.5v444h156z" glyph-name="uni0278" horiz-adv-x="1392" unicode="ɸ"/><glyph d="M100 -25q-63 0 -106 21l33 147q55 -16 96 -16q160 0 252 229v639h168v-995h-154v182h-4q-115 -207 -285 -207z" glyph-name="uni0279" horiz-adv-x="710" unicode="ɹ"/><glyph d="M100 -25q-63 0 -106 21l33 147q55 -16 96 -16q160 0 252 229v1102h168v-1458h-154v182h-4q-115 -207 -285 -207z" glyph-name="uni027A" horiz-adv-x="710" unicode="ɺ"/><glyph d="M719 -219l-92 -156q-238 0 -238 297v260h-4q-115 -207 -285 -207q-63 0 -106 21l33 147q55 -16 96 -16q160 0 252 229v639h168v-1052q0 -92 22.5 -136.5t79.5 -44.5q23 1 74 19z" glyph-name="uni027B" horiz-adv-x="710" unicode="ɻ"/><glyph d="M512 -219l-92 -156q-135 0 -193.5 81t-58.5 237v1052h154v-180h6q111 205 282 205q63 0 107 -21l-33 -147q-53 16 -96 16q-160 0 -252 -229v-696q0 -92 22.5 -136.5t79.5 -44.5q23 1 74 19z" glyph-name="uni027D" horiz-adv-x="710" unicode="ɽ"/><glyph d="M168 0v643q0 178 91 277.5t255 99.5q104 0 174 -29l-31 -141q-57 23 -127 22q-80 0 -137 -69.5t-57 -194.5v-608h-168z" glyph-name="uni027E" horiz-adv-x="684" unicode="ɾ"/><glyph d="M336 516h156q113 0 175 47t62 133q0 168 -237 168h-156v-348zM948 0h-186l-240 393h-186v-393h-168v995h352q377 0 377 -295q0 -217 -217 -286z" glyph-name="uni0280" horiz-adv-x="1013" unicode="ʀ"/><glyph d="M678 131v354h-156q-111 0 -173 -48t-62 -136q0 -170 235 -170h156zM678 995h168v-995h-352q-377 0 -377 297q0 219 217 289l-268 409h188l238 -387h186v387z" glyph-name="uni0281" horiz-adv-x="1013" unicode="ʁ"/><glyph d="M422 -25q-119 0 -219 19v-84q0 -100 26.5 -149.5t98.5 -49.5q41 0 94 17l33 -125q-66 -27 -146 -27q-258 0 -258 332v141l88 131q104 -74 289 -74q80 0 138.5 39t58.5 117q0 98 -146 156q-180 72 -188 76q-190 82 -191 243q0 129 100.5 206t241.5 77q80 0 161 -18.5 t122 -38.5l41 -19l-94 -121q-100 66 -228 66q-76 0 -129 -36t-53 -108q0 -84 137 -139q123 -45 191 -76q84 -33 140 -100.5t56 -157.5q0 -141 -106 -219t-258 -78z" glyph-name="uni0282" horiz-adv-x="858" unicode="ʂ"/><glyph d="M66 -444q-82 0 -148 26l35 127q49 -16 94 -16q70 0 96.5 48t26.5 146v1268q0 332 293 332q68 0 125 -27l-33 -129q-51 18 -74 19q-82 0 -112.5 -48.5t-30.5 -148.5v-1266q0 -331 -272 -331z" glyph-name="uni0283" horiz-adv-x="505" unicode="ʃ"/><glyph d="M610 1460l-32 -129q-51 18 -74 19q-82 0 -113 -48.5t-31 -148.5v-582h170v-98h-170v-586q0 -332 -272 -331q-82 0 -147 26l34 127q49 -16 95 -16q70 0 96.5 48t26.5 146v586h-177v98h177v584q0 332 292 332q68 0 125 -27z" glyph-name="uni0284" horiz-adv-x="552" unicode="ʄ"/><glyph d="M481 -377q-285 0 -284 332v903h-148v137h146v242l172 37v-279h268v-137h-268v-905q0 -96 34.5 -144.5t118.5 -48.5q51 0 113 27v-135q-64 -29 -152 -29z" glyph-name="uni0288" horiz-adv-x="692" unicode="ʈ"/><glyph d="M817 289v248h-455v-150q0 -141 44.5 -203.5t142.5 -62.5q76 0 134 38t134 130zM1153 635v-98h-168v-537h-154v156h-6q-154 -180 -327 -181q-305 0 -305 390v172h-177v98h177v360h169v-360h455v360h168v-360h168z" glyph-name="uni0289" horiz-adv-x="1177" unicode="ʉ"/><glyph d="M555 -25q-209 0 -332 134.5t-123 318.5q0 262 176 426v4h-200v137h381v-108q-186 -152 -187 -422q0 -150 75 -250t210 -100q133 0 208 100t75 250q0 266 -185 422v108h379v-137h-201v-4q178 -166 179 -426q0 -184 -124 -318.5t-331 -134.5z" glyph-name="uni028A" horiz-adv-x="1107" unicode="ʊ"/><glyph d="M537 -25q-174 0 -278.5 110t-104.5 329v581h170v-567q0 -160 60 -236.5t159 -76.5q125 0 195.5 125t70.5 321q0 324 -162 324q-27 0 -57 -13l-27 132q49 16 119 16q143 0 222 -108.5t79 -325.5q0 -272 -116.5 -441.5t-329.5 -169.5z" glyph-name="uni028B" horiz-adv-x="1085" unicode="ʋ"/><glyph d="M25 0l352 995h196l359 -995h-174l-281 840h-8l-279 -840h-165z" glyph-name="uni028C" horiz-adv-x="956" unicode="ʌ"/><glyph d="M49 0l266 995h207l205 -782h8l213 782h197l276 -995h-172l-207 819h-8l-221 -819h-164l-225 819h-8l-207 -819h-160z" glyph-name="uni028D" horiz-adv-x="1470" unicode="ʍ"/><glyph d="M25 0l397 1137q61 166 146 256t227 90l84 -154q-53 14 -76 14q-154 0 -225 -213l-46 -133l400 -997h-172l-205 551q-12 37 -45 133t-51 147h-8q-18 -53 -49 -160.5t-35 -119.5l-177 -551h-165z" glyph-name="uni028E" horiz-adv-x="956" unicode="ʎ"/><glyph d="M342 0v336l-344 659h180l246 -512h8l242 512h178l-342 -659v-336h-168z" glyph-name="uni028F" horiz-adv-x="849" unicode="ʏ"/><glyph d="M883 -375q-254 0 -254 301v74h-566v90l515 768h-494v137h707v-90l-515 -768h521v-194q0 -90 23.5 -135.5t80.5 -45.5q23 0 74 19l33 -129q-57 -27 -125 -27z" glyph-name="uni0290" horiz-adv-x="870" unicode="ʐ"/><glyph d="M571 129h103q78 0 123 35t45 86q0 82 -84 82q-103 0 -187 -203zM791 905l-523 -768q35 -2 101.5 -4t99.5 -2q119 303 293 303q88 0 137 -48t49 -140q0 -109 -81 -177.5t-236 -68.5h-105q-6 -23 -39 -166l-98 21q16 82 37 145h-363v90l525 768h-504v137h707v-90z" glyph-name="uni0291" horiz-adv-x="919" unicode="ʑ"/><glyph d="M410 -444q-236 0 -404 159l84 107q139 -127 305 -127q113 0 190 84t77 221q0 129 -71 199.5t-204 70.5q-61 0 -129 -32l-68 92l394 528h-494v137h698v-90l-385 -518q195 20 311.5 -89.5t116.5 -293.5q0 -207 -123.5 -327.5t-297.5 -120.5z" glyph-name="uni0292" horiz-adv-x="870" unicode="ʒ"/><glyph d="M299 0v664q184 106 264 201.5t80 219.5q0 119 -68.5 188.5t-189.5 69.5q-172 0 -299 -149l-90 111q166 178 401 178q180 0 298 -102.5t118 -290.5q0 -162 -87 -273.5t-259 -228.5v-588h-168z" glyph-name="uni0294" horiz-adv-x="854" unicode="ʔ"/><glyph d="M410 0v588q-172 117 -259.5 228.5t-87.5 273.5q0 188 123 290.5t314 102.5q215 0 381 -178l-90 -111q-125 150 -279 149q-133 0 -206 -69.5t-73 -188.5q0 -125 80 -220t265 -201v-664h-168z" glyph-name="uni0295" horiz-adv-x="907" unicode="ʕ"/><glyph d="M538.5 -25q-196.5 0 -307 188.5t-110.5 571.5q0 362 111.5 555t306.5 193q193 0 304 -194.5t111 -553.5q0 -383 -109.5 -571.5t-306 -188.5zM539 115q117 0 186.5 148.5t69.5 471.5q0 299 -71 453.5t-185 154.5q-117 0 -187.5 -153.5t-70.5 -454.5q0 -620 258 -620z M539 639q-41 0 -70 27.5t-29 68.5q0 43 28 69.5t71 26.5q39 0 67.5 -27.5t28.5 -68.5t-28.5 -68.5t-67.5 -27.5z" glyph-name="uni0298" horiz-adv-x="1075" unicode="ʘ"/><glyph d="M168 0v995h383q367 0 367 -252q0 -164 -166 -213v-6q209 -49 209 -239q0 -141 -108 -213t-286 -72h-399zM334 578h188q231 0 232 149q0 147 -219 147h-201v-296zM334 121h215q244 0 244 174q0 76 -64.5 119t-189.5 43h-205v-336z" glyph-name="uni0299" horiz-adv-x="1040" unicode="ʙ"/><glyph d="M170 0v995h168v-403h479v403h168v-995h-168v442h-479v-442h-168z" glyph-name="uni029C" horiz-adv-x="1150" unicode="ʜ"/><glyph d="M330 1200q-49 0 -83 31t-34 78q0 49 34 78.5t83 29.5t82.5 -29.5t33.5 -78.5q0 -47 -33.5 -78t-82.5 -31zM80 -311q111 0 149 112q-84 66 -155 66q-51 0 -80 -22.5t-29 -59.5q0 -41 32 -68.5t83 -27.5zM627 -500l-131 -61q-78 147 -154 244q-88 -127 -260 -127 q-115 0 -184.5 65.5t-69.5 161.5q0 94 65.5 149.5t182.5 55.5q80 0 170 -47v1054h168v-1042q0 -70 -13 -131q117 -117 226 -322z" glyph-name="uni029D" horiz-adv-x="581" unicode="ʝ"/><glyph d="M168 0v995h168v-858h452v-137h-620z" glyph-name="uni029F" horiz-adv-x="841" unicode="ʟ"/><glyph d="M324 0v526h-310v138h338q166 104 243 205.5t77 215.5q0 119 -67.5 188.5t-188.5 69.5q-172 0 -299 -149l-90 111q166 178 401 178q180 0 298 -102.5t118 -290.5q0 -227 -275 -426h295v-138h-372v-526h-168z" glyph-name="uni02A1" horiz-adv-x="903" unicode="ʡ"/><glyph d="M410 0v526h-371v138h295q-274 199 -275 426q0 188 122 290.5t315 102.5q215 0 381 -178l-91 -111q-125 150 -278 149q-133 0 -206 -69.5t-73 -188.5q0 -115 78 -216t244 -205h338v-138h-311v-526h-168z" glyph-name="uni02A2" horiz-adv-x="903" unicode="ʢ"/><glyph d="M106 809v934l127 24v-393q90 109 216 109q209 0 208 -258v-416h-127v397q0 86 -25.5 127t-98.5 41q-76 0 -173 -96v-469h-127z" glyph-name="uni02B0" horiz-adv-x="749" unicode="ʰ"/><glyph d="M176 1593q-37 0 -61.5 22.5t-24.5 57.5t24.5 58.5t61.5 23.5t61.5 -23.5t24.5 -58.5t-24.5 -57.5t-61.5 -22.5zM111 768v698h127v-698q0 -72 -20.5 -148.5t-63.5 -113.5l-105 65q29 25 45.5 87.5t16.5 109.5z" glyph-name="uni02B2" horiz-adv-x="346" unicode="ʲ"/><glyph d="M229 1300q35 88 111 138.5t174 50.5l-43 -125q-63 0 -129 -46t-106 -140v-369h-130v657h119v-166h4z" glyph-name="uni02B3" horiz-adv-x="491" unicode="ʳ"/><glyph d="M215 809l-182 657h131l129 -526h8l141 526h115l148 -526h8l131 526h121l-179 -657h-153l-129 489h-4l-133 -489h-152z" glyph-name="uni02B7" horiz-adv-x="997" unicode="ʷ"/><glyph d="M133 535q-47 0 -84 12l27 102q27 -12 49 -12q104 0 145 133l15 43l-269 653h129l193 -505h8l166 505h125l-244 -696q-41 -115 -101.5 -175t-158.5 -60z" glyph-name="uni02B8" horiz-adv-x="653" unicode="ʸ"/><glyph d="M168 922l45 491l166 -2l-31 -186l-69 -305z" glyph-name="uni02B9" horiz-adv-x="509" unicode="ʹ"/><glyph d="M334 1425l49 -79q-82 -53 -119 -111.5t-37 -142.5q4 2 19 2q45 0 76.5 -28t31.5 -77q0 -53 -29.5 -82.5t-78.5 -29.5q-129 0 -129 184q0 239 217 364z" glyph-name="uni02BB" horiz-adv-x="509" unicode="ʻ"/><glyph d="M176 883l-47 78q82 53 118 110t36 146q-4 -2 -17 -3q-45 0 -76.5 28t-31.5 75q0 53 29.5 84t78.5 31q61 0 95 -48.5t34 -138.5q0 -235 -219 -362z" glyph-name="afii57929" horiz-adv-x="509" unicode="ʼ"/><glyph d="M61 1124v72q150 0 150 127t-150 127v72q121 4 184.5 -49.5t63.5 -149.5t-63.5 -149.5t-184.5 -49.5z" glyph-name="uni02BE" horiz-adv-x="339" unicode="ʾ"/><glyph d="M279 1196v-72q-121 -4 -184.5 49.5t-63.5 149.5t63.5 149.5t184.5 49.5v-72q-150 0 -150 -127t150 -127z" glyph-name="uni02BF" horiz-adv-x="339" unicode="ʿ"/><glyph d="M274 809v383q-117 76 -173 149.5t-56 180.5q0 127 83 195.5t212 68.5q147 0 258 -119l-66 -82q-78 96 -182 96q-84 0 -131 -43t-47 -118q0 -82 51 -142.5t176 -132.5v-436h-125z" glyph-name="uni02C1" horiz-adv-x="618" unicode="ˁ"/><glyph d="M238 1229l233 287h168l233 -287l-71 -66l-242 232h-8l-242 -232z" glyph-name="circumflex" horiz-adv-x="1110" unicode="ˆ"/><glyph d="M471 1176l-233 286l71 66l242 -232h8l242 232l71 -66l-233 -286h-168z" glyph-name="caron" horiz-adv-x="1110" unicode="ˇ"/><glyph d="M57 1092l-12 401h143l-12 -401h-119z" glyph-name="uni02C8" horiz-adv-x="233" unicode="ˈ"/><glyph d="M12 1231v117h545v-117h-545z" glyph-name="uni02C9" horiz-adv-x="567" unicode="ˉ"/><glyph d="M199 1174l-86 83l288 342l119 -112z" glyph-name="uni02CA" horiz-adv-x="460" unicode="ˊ"/><glyph d="M256 1174l-322 313l119 112l289 -342z" glyph-name="uni02CB" horiz-adv-x="460" unicode="ˋ"/><glyph d="M45 -545l12 400h119l12 -400h-143z" glyph-name="uni02CC" horiz-adv-x="233" unicode="ˌ"/><glyph d="M102 0l142 283h22l142 -283h-306zM244 670l-142 278h306l-142 -278h-22z" glyph-name="uni02D0" horiz-adv-x="509" unicode="ː"/><glyph d="M244 551l-142 278h306l-142 -278h-22z" glyph-name="uni02D1" horiz-adv-x="509" unicode="ˑ"/><glyph d="M555 1169q-154 0 -232.5 89.5t-86.5 220.5l104 16q14 -88 68.5 -150.5t146.5 -62.5t146.5 62.5t68.5 150.5l104 -16q-8 -129 -86.5 -219.5t-232.5 -90.5z" glyph-name="breve" horiz-adv-x="1110" unicode="˘"/><glyph d="M555 1200q-47 0 -79 31t-32 80q0 47 32 78.5t79 31.5t79 -31.5t32 -78.5q0 -49 -32 -80t-79 -31z" glyph-name="dotaccent" horiz-adv-x="1110" unicode="˙"/><glyph d="M555 1135q-102 0 -163.5 56t-61.5 146q0 88 61.5 144.5t163.5 56.5t163.5 -56.5t61.5 -144.5q0 -90 -61.5 -146t-163.5 -56zM555 1210q51 0 84 34t33 93q0 55 -34 90t-83 35t-83 -34.5t-34 -90.5q0 -59 33 -93t84 -34z" glyph-name="ring" horiz-adv-x="1110" unicode="˚"/><glyph d="M604 -422q-82 0 -133 45t-51 129q0 143 145 254h119q-139 -104 -139 -221q0 -45 27.5 -69.5t66.5 -24.5q47 0 82 26l45 -84q-70 -55 -162 -55z" glyph-name="ogonek" horiz-adv-x="1110" unicode="˛"/><glyph d="M702 1182q-61 0 -114 43t-97.5 86t-80.5 43q-86 0 -97 -162l-112 6q4 127 55 203t152 76q63 0 115 -43t96.5 -86t82.5 -43q84 0 95 161l112 -8q-4 -125 -55.5 -200.5t-151.5 -75.5z" glyph-name="tilde" horiz-adv-x="1110" unicode="˜"/><glyph d="M451 1163l-93 43l177 353l120 -58zM760 1163l-94 43l178 353l119 -58z" glyph-name="hungarumlaut" horiz-adv-x="1110" unicode="˝"/><glyph d="M213 471q-143 0 -195 197l-217 -88v129l299 122q18 -147 49 -200t76 -53q37 0 80 30l45 -88q-65 -49 -137 -49z" glyph-name="uni02DE" horiz-adv-x="309" unicode="˞"/><glyph d="M332 825h-6q-49 -102 -50 -163q0 -70 52 -70q55 0 55 70q0 67 -51 163zM635 1466l-225 -581q72 -139 77 -189q2 -12 2 -26q0 -74 -41.5 -118t-119.5 -44q-74 0 -117 44t-43 118q0 31 12.5 68.5t21.5 58t44 90.5l-230 579h129l181 -505h6l180 505h123z" glyph-name="uni02E0" horiz-adv-x="651" unicode="ˠ"/><glyph d="M233 801h-127v944l127 22v-966z" glyph-name="uni02E1" horiz-adv-x="356" unicode="ˡ"/><glyph d="M295 793q-150 0 -256 69l61 94q90 -66 197 -65q55 0 87 26.5t32 65.5q0 10 -2 19.5t-8.5 17.5t-11.5 14t-16 13.5t-17.5 11.5t-21.5 11t-22.5 10t-26 10.5t-24.5 9.5q-88 31 -141 75t-53 119q0 82 60.5 135.5t166.5 53.5q119 0 219 -49l-63 -95q-76 45 -152 45 q-53 0 -81.5 -24.5t-28.5 -56.5q0 -14 6 -27.5t14 -22t25.5 -18.5t29 -15.5t37 -15.5t35.5 -14q45 -16 72.5 -28.5t60.5 -35t49.5 -55.5t16.5 -76q0 -92 -66.5 -147t-177.5 -55z" glyph-name="uni02E2" horiz-adv-x="579" unicode="ˢ"/><glyph d="M16 809l217 342l-198 315h139l137 -239h8l142 239h135l-197 -313l211 -344h-139l-152 254h-8l-159 -254h-136z" glyph-name="uni02E3" horiz-adv-x="628" unicode="ˣ"/><glyph d="M29 1174l-322 313l119 112l289 -342z" glyph-name="gravecomb" unicode="̀"/><glyph d="M-29 1174l-86 83l289 342l119 -112z" glyph-name="acutecomb" unicode="́"/><glyph d="M-317 1229l233 287h168l233 -287l-71 -66l-242 232h-8l-242 -232z" glyph-name="uni0302" unicode="̂"/><glyph d="M147 1182q-61 0 -114 43t-97.5 86t-80.5 43q-86 0 -97 -162l-112 6q4 127 55 203t152 76q63 0 115 -43t96.5 -86t82.5 -43q84 0 95 161l112 -8q-4 -125 -55.5 -200.5t-151.5 -75.5z" glyph-name="tildecomb" unicode="̃"/><glyph d="M-272 1231v117h544v-117h-544z" glyph-name="uni0304" unicode="̄"/><glyph d="M-272 1231v117h544v-117h-544z" glyph-name="uni0305" unicode="̅"/><glyph d="M0 1169q-154 0 -232.5 89.5t-86.5 220.5l104 16q14 -88 68.5 -150.5t146.5 -62.5t146.5 62.5t68.5 150.5l104 -16q-8 -129 -86.5 -219.5t-232.5 -90.5z" glyph-name="uni0306" unicode="̆"/><glyph d="M0 1200q-47 0 -79 31t-32 80q0 47 32 78.5t79 31.5t79 -31.5t32 -78.5q0 -49 -32 -80t-79 -31z" glyph-name="uni0307" unicode="̇"/><glyph d="M-197 1202q-45 0 -73.5 30t-28.5 73t28.5 72.5t73.5 29.5q43 0 72 -29.5t29 -72.5t-29 -73t-72 -30zM197 1202q-43 0 -72 30t-29 73t29 72.5t72 29.5q45 0 73.5 -29.5t28.5 -72.5t-28.5 -73t-73.5 -30z" glyph-name="uni0308" unicode="̈"/><glyph d="M-66 1171l-18 82q115 29 115 97q0 86 -170 96l10 110q293 -10 293 -192q-1 -154 -230 -193z" glyph-name="hookabovecomb" unicode="̉"/><glyph d="M0 1135q-102 0 -163.5 56t-61.5 146q0 88 61.5 144.5t163.5 56.5t163.5 -56.5t61.5 -144.5q0 -90 -61.5 -146t-163.5 -56zM0 1210q51 0 84 34t33 93q0 55 -34 90t-83 35t-83 -34.5t-34 -90.5q0 -59 33 -93t84 -34z" glyph-name="uni030A" unicode="̊"/><glyph d="M-104 1163l-93 43l177 353l120 -58zM205 1163l-94 43l178 353l119 -58z" glyph-name="uni030B" unicode="̋"/><glyph d="M-84 1176l-233 286l71 66l242 -232h8l242 232l71 -66l-233 -286h-168z" glyph-name="uni030C" unicode="̌"/><glyph d="M-205 1163l-203 338l119 58l178 -353zM104 1163l-204 338l120 58l177 -353z" glyph-name="uni030F" unicode="̏"/><glyph d="M-215 1163l-104 17q8 131 86.5 220t232.5 89t232.5 -90t86.5 -219l-104 -17q-14 88 -68.5 150.5t-146.5 62.5t-146.5 -62.5t-68.5 -150.5z" glyph-name="uni0311" unicode="̑"/><glyph d="M57 1536l37 -66q-109 -53 -117 -145q4 2 17 2q33 0 58.5 -21.5t25.5 -60.5q0 -43 -22.5 -66.5t-59.5 -23.5q-104 0 -105 141q0 162 166 240z" glyph-name="uni0312" unicode="̒"/><glyph d="M-61 1151l-35 66q111 57 116 147q-4 -2 -18 -2q-35 0 -59.5 20.5t-24.5 59.5q0 45 23.5 68.5t60.5 23.5q102 0 102 -141q1 -164 -165 -242z" glyph-name="uni0313" unicode="̓"/><glyph d="M174 -510h-102v148h-228v96h228v147h102v-391z" glyph-name="uni0318" unicode="̘"/><glyph d="M156 -362h-228v-148h-102v391h102v-147h228v-96z" glyph-name="uni0319" unicode="̙"/><glyph d="M174 1174h-102v192h-228v96h330v-288z" glyph-name="uni031A" unicode="̚"/><glyph d="M-2 889l-16 84q172 27 172 168q0 47 -29 114l131 62q47 -86 47 -164q0 -223 -305 -264z" glyph-name="uni031B" unicode="̛"/><glyph d="M113 -457v-71q-121 -4 -184.5 49t-63.5 149.5t63.5 149.5t184.5 49v-72q-150 0 -150 -127t150 -127z" glyph-name="uni031C" unicode="̜"/><glyph d="M197 -432h-394v96h146v217h102v-217h146v-96z" glyph-name="uni031D" unicode="̝"/><glyph d="M197 -293h-146v-217h-102v217h-146v96h394v-96z" glyph-name="uni031E" unicode="̞"/><glyph d="M197 -362h-146v-148h-102v148h-146v96h146v147h102v-147h146v-96z" glyph-name="uni031F" unicode="̟"/><glyph d="M-197 -362v96h394v-96h-394z" glyph-name="uni0320" unicode="̠"/><glyph d="M0 -420q-47 0 -79 31t-32 80q0 47 32 78.5t79 31.5t79 -31.5t32 -78.5q0 -49 -32 -80t-79 -31z" glyph-name="dotbelowcomb" unicode="̣"/><glyph d="M-197 -412q-45 0 -73.5 30t-28.5 73t28.5 72.5t73.5 29.5q43 0 72 -29.5t29 -72.5t-29 -73t-72 -30zM197 -412q-43 0 -72 30t-29 73t29 72.5t72 29.5q45 0 73.5 -29.5t28.5 -72.5t-28.5 -73t-73.5 -30z" glyph-name="uni0324" unicode="̤"/><glyph d="M0 -516q-102 0 -163.5 56.5t-61.5 146.5q0 88 61.5 144t163.5 56t163.5 -56t61.5 -144q0 -90 -61.5 -146.5t-163.5 -56.5zM0 -440q51 0 84 33.5t33 93.5q0 55 -34 90t-83 35t-83 -35t-34 -90q0 -59 33 -93t84 -34z" glyph-name="uni0325" unicode="̥"/><glyph d="M-178 -463l-17 82q125 10 174.5 32.5t49.5 65.5q0 74 -146 86l37 78q133 -16 186.5 -52t53.5 -105q0 -171 -338 -187z" glyph-name="uni0326" unicode="̦"/><glyph d="M-178 -463l-17 82q127 10 175.5 33.5t48.5 68.5q0 41 -35 63.5t-123 35.5l90 186h109l-60 -137q76 -18 113 -51t37 -94q0 -171 -338 -187z" glyph-name="uni0327" unicode="̧"/><glyph d="M49 -422q-82 0 -133 45t-51 129q0 143 145 254h119q-139 -104 -139 -221q0 -45 27.5 -69.5t66.5 -24.5q47 0 82 26l45 -84q-70 -55 -162 -55z" glyph-name="uni0328" unicode="̨"/><glyph d="M-72 -545l13 400h118l13 -400h-144z" glyph-name="uni0329" unicode="̩"/><glyph d="M154 -463v199h-308v-199h-94v295h496v-295h-94z" glyph-name="uni032A" unicode="̪"/><glyph d="M-84 -457l-233 287l71 66l242 -232h8l242 232l71 -66l-233 -287h-168z" glyph-name="uni032C" unicode="̬"/><glyph d="M0 -471q-154 0 -232.5 89t-86.5 220l104 17q14 -88 68.5 -150.5t146.5 -62.5t146.5 62.5t68.5 150.5l104 -17q-8 -129 -86.5 -219t-232.5 -90z" glyph-name="uni032E" unicode="̮"/><glyph d="M-215 -483l-104 16q8 131 86.5 220t232.5 89t232.5 -90t86.5 -219l-104 -16q-14 88 -68.5 150.5t-146.5 62.5t-146.5 -62.5t-68.5 -150.5z" glyph-name="uni032F" unicode="̯"/><glyph d="M147 -455q-61 0 -114 43t-97.5 86t-80.5 43q-86 0 -97 -161l-112 6q4 127 55 202.5t152 75.5q63 0 115 -43t96.5 -86t82.5 -43q84 0 95 162l112 -8q-4 -125 -55.5 -201t-151.5 -76z" glyph-name="uni0330" unicode="̰"/><glyph d="M-272 -346v117h544v-117h-544z" glyph-name="uni0331" unicode="̱"/><glyph d="M147 387q-61 0 -114 43t-97.5 86t-80.5 43q-86 0 -97 -162l-112 6q4 127 55 203t152 76q63 0 115 -43t96.5 -86t82.5 -43q84 0 95 162l112 -8q-4 -125 -55.5 -201t-151.5 -76z" glyph-name="uni0334" unicode="̴"/><glyph d="M-113 -528v71q150 0 150 127t-150 127v72q121 4 184.5 -49t63.5 -149.5t-63.5 -149.5t-184.5 -49z" glyph-name="uni0339" unicode="̹"/><glyph d="M-248 -461v293h94v-197h308v197h94v-293h-496z" glyph-name="uni033A" unicode="̺"/><glyph d="M-248 -492v334h496v-334h-496zM-154 -410h308v172h-308v-172z" glyph-name="uni033B" unicode="̻"/><glyph d="M-246 -479l-98 12q0 303 192 303q119 0 150 -119h4q31 119 150 119q193 0 192 -303l-98 -12q0 117 -25.5 161t-77.5 44q-94 0 -94 -164v-39h-98v39q0 164 -96 164q-51 0 -76 -44t-25 -161z" glyph-name="uni033C" unicode="̼"/><glyph d="M-104 1137l-68 67l104 105l-104 104l68 70l104 -105l104 105l68 -70l-104 -104l104 -105l-68 -67l-104 104z" glyph-name="uni033D" unicode="̽"/><glyph d="M147 1182q-61 0 -114 43t-97.5 86t-80.5 43q-86 0 -97 -162l-112 6q4 127 55 203t152 76q63 0 115 -43t96.5 -86t82.5 -43q84 0 95 161l112 -8q-4 -125 -55.5 -200.5t-151.5 -75.5z" glyph-name="uni0342" unicode="͂"/><glyph d="M90 -412q-158 0 -158 191v94h131q-4 -23 -4 -109q0 -63 62 -63q18 0 45 6l18 -100q-47 -19 -94 -19z" glyph-name="uni0345" unicode="ͅ"/><glyph d="M-881 1126l-49 86q424 260 930 260.5t930 -260.5l-49 -86q-379 227 -881 227t-881 -227z" glyph-name="uni0361" unicode="͡"/><glyph d="M168 920l45 493h166l-31 -188l-69 -305h-111z" glyph-name="uni0374" horiz-adv-x="509" unicode="ʹ"/><glyph d="M131 0l31 188l69 308h111l-45 -496h-166z" glyph-name="uni0375" horiz-adv-x="509" unicode="͵"/><glyph d="M657 -412q-158 0 -157 191v94h131q-4 -23 -4 -109q0 -63 61 -63q18 0 45 6l19 -100q-48 -19 -95 -19z" glyph-name="uni037A" horiz-adv-x="1110" unicode="ͺ"/><glyph d="M256 715q-51 0 -87 35.5t-36 91.5q0 59 36 95t87 36t86 -36t35 -95q0 -55 -36 -91t-85 -36zM137 -348l-41 98q184 82 185 250q-4 -2 -21 -2q-51 0 -86 30.5t-35 86.5q0 53 36 85.5t89 32.5q66 0 104 -53t38 -145q0 -131 -71 -229.5t-198 -153.5z" glyph-name="uni037E" horiz-adv-x="509" unicode=";"/><glyph d="M487 1165l88 412l175 -31l-146 -403z" glyph-name="tonos" horiz-adv-x="1110" unicode="΄"/><glyph d="M485 1174l93 411l135 -29l-140 -403zM336 1219q-37 0 -61.5 23.5t-24.5 62t24.5 62.5t61.5 24t60.5 -24t23.5 -62.5t-23.5 -62t-60.5 -23.5zM799 1219q-37 0 -60.5 23.5t-23.5 62t23.5 62.5t60.5 24t61.5 -24t24.5 -62.5t-24.5 -62t-61.5 -23.5z" glyph-name="dieresistonos" horiz-adv-x="1110" unicode="΅"/><glyph d="M397 547h404l-199 602h-8zM971 0l-127 410h-490l-129 -410h-174l455 1343h192l455 -1343h-182zM12 973l60 399l155 -22l-102 -400z" glyph-name="Alphatonos" horiz-adv-x="1159" unicode="Ά"/><glyph d="M256 715q-51 0 -87 35.5t-36 91.5q0 59 36 95t87 36t86 -36t35 -95q0 -55 -36 -91t-85 -36z" glyph-name="anoteleia" horiz-adv-x="509" unicode="·"/><glyph d="M315 0v1343h775l-21 -143h-584v-422h398v-145h-398v-488h625v-145h-795zM-39 973l59 399l156 -22l-102 -400z" glyph-name="Epsilontonos" horiz-adv-x="1210" unicode="Έ"/><glyph d="M315 0v1343h170v-563h625v563h172v-1343h-172v633h-625v-633h-170zM-39 973l59 399l156 -22l-102 -400z" glyph-name="Etatonos" horiz-adv-x="1466" unicode="Ή"/><glyph d="M315 0v1343h170v-1343h-170zM-39 973l59 399l156 -22l-102 -400z" glyph-name="Iotatonos" horiz-adv-x="669" unicode="Ί"/><glyph d="M776 -25q-256 0 -414.5 190.5t-158.5 512.5q0 319 157.5 504.5t415.5 185.5q256 0 416 -187.5t160 -502.5q0 -322 -160 -512.5t-416 -190.5zM776 125q178 0 288 150.5t110 402.5q0 248 -109 394.5t-289 146.5t-288.5 -146.5t-108.5 -394.5q0 -252 109.5 -402.5 t287.5 -150.5zM-39 973l59 399l156 -22l-102 -400z" glyph-name="Omicrontonos" horiz-adv-x="1456" unicode="Ό"/><glyph d="M655 0v520l-403 823h182l303 -671h8l308 671h178l-404 -823v-520h-172zM-39 973l59 399l156 -22l-102 -400z" glyph-name="Upsilontonos" horiz-adv-x="1228" unicode="Ύ"/><glyph d="M188 0v139h269v8q-240 240 -240 572q0 287 157.5 468t416 181t417 -182t158.5 -467q0 -330 -242 -572v-8h269v-139h-478v125q274 215 275 584q0 221 -108.5 365.5t-290.5 144.5q-184 0 -291 -143.5t-107 -366.5q0 -373 273 -584v-125h-478zM-45 973l59 399l156 -22 l-102 -400z" glyph-name="Omegatonos" horiz-adv-x="1480" unicode="Ώ"/><glyph d="M358 -25q-190 0 -190 232v788h170v-800q0 -80 70 -80q25 0 61 12l10 -127q-53 -25 -121 -25zM172 1174l92 411l135 -29l-139 -403zM23 1219q-37 0 -61.5 23.5t-24.5 62t24.5 62.5t61.5 24q35 0 59 -24t24 -62.5t-24 -62t-59 -23.5zM485 1219q-35 0 -59.5 23.5t-24.5 62 t25 62.5t59 24q37 0 61.5 -24t24.5 -62.5t-24.5 -62t-61.5 -23.5z" glyph-name="iotadieresistonos" horiz-adv-x="536" unicode="ΐ"/><glyph d="M352 547h404l-199 602h-8zM926 0l-127 410h-490l-129 -410h-174l455 1343h192l455 -1343h-182z" glyph-name="Alpha" horiz-adv-x="1114" unicode="Α"/><glyph d="M184 0v1343h400q461 0 460 -327q0 -102 -51 -182t-145 -111v-8q127 -25 200.5 -106t73.5 -216q0 -193 -138 -293t-372 -100h-428zM354 772h199q324 0 324 221q0 115 -77 165t-239 50h-207v-436zM354 135h234q367 0 366 264q0 242 -366 242h-234v-506z" glyph-name="Beta" horiz-adv-x="1204" unicode="Β"/><glyph d="M184 0v1343h774v-143h-604v-1200h-170z" glyph-name="Gamma" horiz-adv-x="1019" unicode="Γ"/><glyph d="M61 0v102l443 1241h196l443 -1241v-102h-1082zM246 145h708l-350 1045h-8z" glyph-name="Delta" horiz-adv-x="1204" unicode="Δ"/><glyph d="M184 0v1343h774l-20 -143h-584v-422h398v-145h-398v-488h625v-145h-795z" glyph-name="Epsilon" horiz-adv-x="1079" unicode="Ε"/><glyph d="M106 0v102l672 1098h-657v143h870v-100l-674 -1098h715v-145h-926z" glyph-name="Zeta" horiz-adv-x="1103" unicode="Ζ"/><glyph d="M184 0v1343h170v-563h625v563h172v-1343h-172v633h-625v-633h-170z" glyph-name="Eta" horiz-adv-x="1335" unicode="Η"/><glyph d="M451 633v147h458v-147h-458zM680 -25q-256 0 -415 190.5t-159 512.5q0 319 158 504.5t416 185.5q256 0 415.5 -187.5t159.5 -502.5q0 -322 -159.5 -512.5t-415.5 -190.5zM680 125q178 0 287.5 150.5t109.5 402.5q0 248 -108.5 394.5t-288.5 146.5t-288.5 -146.5 t-108.5 -394.5q0 -252 109.5 -402.5t287.5 -150.5z" glyph-name="Theta" horiz-adv-x="1359" unicode="Θ"/><glyph d="M184 0v1343h170v-1343h-170z" glyph-name="Iota" horiz-adv-x="538" unicode="Ι"/><glyph d="M184 0v1343h170v-673h6l560 673h192l-420 -512l486 -831h-191l-401 698l-232 -272v-426h-170z" glyph-name="Kappa" horiz-adv-x="1185" unicode="Κ"/><glyph d="M0 0l428 1343h197l430 -1343h-181l-348 1171h-8l-344 -1171h-174z" glyph-name="Lambda" horiz-adv-x="1054" unicode="Λ"/><glyph d="M184 0v1343h205l352 -927h9l348 927h207v-1343h-160v1040h-8l-338 -882h-113l-340 882h-8v-1040h-154z" glyph-name="Mu" horiz-adv-x="1488" unicode="Μ"/><glyph d="M184 0v1343h176l611 -1075h8v1075h162v-1343h-176l-611 1073h-8v-1073h-162z" glyph-name="Nu" horiz-adv-x="1325" unicode="Ν"/><glyph d="M100 0v145h891v-145h-891zM254 633v145h584v-145h-584zM121 1200v143h850v-143h-850z" glyph-name="Xi" horiz-adv-x="1091" unicode="Ξ"/><glyph d="M680 -25q-256 0 -415 190.5t-159 512.5q0 319 158 504.5t416 185.5q256 0 415.5 -187.5t159.5 -502.5q0 -322 -159.5 -512.5t-415.5 -190.5zM680 125q178 0 287.5 150.5t109.5 402.5q0 248 -108.5 394.5t-288.5 146.5t-288.5 -146.5t-108.5 -394.5q0 -252 109.5 -402.5 t287.5 -150.5z" glyph-name="Omicron" horiz-adv-x="1359" unicode="Ο"/><glyph d="M184 0v1343h953v-1343h-170v1200h-613v-1200h-170z" glyph-name="Pi" horiz-adv-x="1320" unicode="Π"/><glyph d="M184 0v1343h383q504 0 504 -395q0 -205 -133 -310.5t-363 -105.5h-221v-532h-170zM354 672h201q178 0 262 66.5t84 209.5q0 141 -86 199.5t-268 58.5h-193v-534z" glyph-name="Rho" horiz-adv-x="1159" unicode="Ρ"/><glyph d="M90 0v102l463 580l-455 561v100h867v-143h-652l412 -514l-418 -541h719v-145h-936z" glyph-name="Sigma" horiz-adv-x="1101" unicode="Σ"/><glyph d="M463 0v1200h-406v143h983v-143h-405v-1200h-172z" glyph-name="Tau" horiz-adv-x="1097" unicode="Τ"/><glyph d="M401 0v520l-403 823h182l303 -671h9l307 671h178l-404 -823v-520h-172z" glyph-name="Upsilon" horiz-adv-x="974" unicode="Υ"/><glyph d="M813 1067v-788q182 12 288.5 119.5t106.5 279.5t-105.5 275.5t-289.5 113.5zM659 279v788q-184 -10 -289.5 -113.5t-105.5 -275.5t106.5 -279.5t288.5 -119.5zM813 1389v-189q258 -12 409.5 -149.5t151.5 -372.5q0 -238 -152.5 -379t-408.5 -154v-190h-154v190 q-256 12 -408.5 153.5t-152.5 379.5q0 236 151.5 373t409.5 149v189h154z" glyph-name="Phi" horiz-adv-x="1472" unicode="Φ"/><glyph d="M31 0l389 686l-363 657h189l274 -538h8l287 538h180l-366 -657l391 -686h-189l-303 578h-8l-309 -578h-180z" glyph-name="Chi" horiz-adv-x="1050" unicode="Χ"/><glyph d="M1133 1343h170v-329q0 -485 -506 -512v-502h-162v502q-506 23 -506 512v329h168v-321q0 -193 84 -284t254 -99v704h162v-704q172 10 254 101t82 282v321z" glyph-name="Psi" horiz-adv-x="1431" unicode="Ψ"/><glyph d="M92 0v139h268v8q-240 240 -239 572q0 287 157.5 468t415.5 181t417 -182t159 -467q0 -330 -242 -572v-8h268v-139h-477v125q274 215 275 584q0 221 -108.5 365.5t-291.5 144.5q-184 0 -290.5 -143.5t-106.5 -366.5q0 -373 272 -584v-125h-477z" glyph-name="Omega" horiz-adv-x="1388" unicode="Ω"/><glyph d="M184 0v1343h170v-1343h-170zM57 1464q-43 0 -71.5 29t-28.5 72q0 45 28.5 72.5t71.5 27.5q45 0 73 -27.5t28 -72.5q0 -43 -28 -72t-73 -29zM479 1464q-45 0 -72.5 29t-27.5 72q0 45 27.5 72.5t72.5 27.5q43 0 72 -27.5t29 -72.5q0 -43 -29 -72t-72 -29z" glyph-name="Iotadieresis" horiz-adv-x="538" unicode="Ϊ"/><glyph d="M401 0v520l-403 823h182l303 -671h9l307 671h178l-404 -823v-520h-172zM276 1464q-43 0 -71.5 29t-28.5 72q0 45 28.5 72.5t71.5 27.5q45 0 73 -27.5t28 -72.5q0 -43 -28 -72t-73 -29zM698 1464q-45 0 -72.5 29t-27.5 72q0 45 27.5 72.5t72.5 27.5q43 0 72 -27.5 t29 -72.5q0 -43 -29 -72t-72 -29z" glyph-name="Upsilondieresis" horiz-adv-x="974" unicode="Ϋ"/><glyph d="M477 -25q-174 0 -278.5 132.5t-104.5 371.5q0 246 128 393.5t308 147.5q100 0 183.5 -63.5t124.5 -196.5h4l43 235h166l-125 -776q-6 -47 23.5 -75.5t74.5 -28.5t80 16l-21 -139q-35 -16 -94 -17q-197 0 -196 203h-7q-114 -203 -309 -203zM512 117q100 0 181 91t89 218 l17 186q-66 266 -250 267q-115 0 -198 -105.5t-83 -292.5q0 -174 63.5 -269t180.5 -95zM514 1165l88 412l174 -31l-145 -403z" glyph-name="alphatonos" horiz-adv-x="1146" unicode="ά"/><glyph d="M514 -25q-186 0 -303 81t-117 218q0 193 207 248v8q-76 29 -117 89.5t-41 132.5q0 131 108.5 199.5t272.5 68.5q174 0 322 -109l-68 -112q-123 88 -250 88q-96 0 -156.5 -40t-60.5 -116q0 -154 228 -153q74 0 125 6v-131q-39 4 -156 4q-246 0 -246 -168q0 -84 70.5 -131 t199.5 -47q141 0 273 100l72 -113q-162 -123 -363 -123zM438 1165l88 412l174 -31l-145 -403z" glyph-name="epsilontonos" horiz-adv-x="917" unicode="έ"/><glyph d="M952 -367h-157v975q0 141 -37 203.5t-125 62.5q-84 0 -148.5 -49t-148.5 -174v-651h-168v995h154v-207h6q80 121 162.5 176.5t191.5 55.5q143 0 206.5 -96.5t63.5 -292.5v-998zM526 1165l88 412l174 -31l-145 -403z" glyph-name="etatonos" horiz-adv-x="1107" unicode="ή"/><glyph d="M358 -25q-190 0 -190 232v788h170v-800q0 -80 70 -80q25 0 61 12l10 -127q-53 -25 -121 -25zM186 1165l88 412l175 -31l-146 -403z" glyph-name="iotatonos" horiz-adv-x="536" unicode="ί"/><glyph d="M510 -25q-182 0 -280.5 99.5t-98.5 294.5q0 59 4 177t4 177q0 154 -16 272h164q16 -82 16 -231q0 -53 -6 -197.5t-6 -206.5q0 -127 61.5 -186t159.5 -59q115 0 182.5 94t67.5 283q0 254 -82 489l164 39q88 -264 88 -522q0 -248 -114.5 -385.5t-307.5 -137.5zM418 1174 l92 411l135 -29l-139 -403zM268 1219q-37 0 -61.5 23.5t-24.5 62t24.5 62.5t61.5 24q35 0 59.5 -24t24.5 -62.5t-24.5 -62t-59.5 -23.5zM731 1219q-35 0 -59.5 23.5t-24.5 62t24.5 62.5t59.5 24q37 0 61.5 -24t24.5 -62.5t-24.5 -62t-61.5 -23.5z" glyph-name="upsilondieresistonos" horiz-adv-x="1044" unicode="ΰ"/><glyph d="M477 -25q-174 0 -278.5 132.5t-104.5 371.5q0 246 128 393.5t308 147.5q100 0 183.5 -63.5t124.5 -196.5h4l43 235h166l-125 -776q-6 -47 23.5 -75.5t74.5 -28.5t80 16l-21 -139q-35 -16 -94 -17q-197 0 -196 203h-7q-114 -203 -309 -203zM512 117q100 0 181 91t89 218 l17 186q-66 266 -250 267q-115 0 -198 -105.5t-83 -292.5q0 -174 63.5 -269t180.5 -95z" glyph-name="alpha" horiz-adv-x="1146" unicode="α"/><glyph d="M162 -367v1373q0 215 104.5 346t304.5 131q158 0 266.5 -92.5t108.5 -262.5q0 -215 -196 -340v-8q147 -20 232 -123.5t85 -261.5q0 -193 -114.5 -306.5t-274.5 -113.5q-219 0 -356 152q6 -178 10 -494h-170zM639 117q111 0 185.5 77.5t74.5 211.5q0 123 -71.5 200.5 t-206.5 77.5q-53 0 -103 -12l-26 129q150 31 220 119t70 196q0 111 -59 170.5t-148 59.5q-117 0 -181 -93.5t-66 -269.5q-6 -240 -6 -711q122 -155 317 -155z" glyph-name="beta" horiz-adv-x="1157" unicode="β"/><glyph d="M575 -367h-174q10 147 11 248q0 240 -122 566.5t-278 529.5l170 43q96 -141 190.5 -369.5t137.5 -451.5h8q233 449 262 796h170q-41 -256 -127 -473t-268 -512q20 -152 20 -377z" glyph-name="gamma" horiz-adv-x="991" unicode="γ"/><glyph d="M553 115q133 0 202.5 89t69.5 242q0 115 -57 199t-162 164q-160 -35 -248 -133t-88 -244q0 -141 84 -229t199 -88zM969 1403l-41 -135q-227 84 -389 84q-82 0 -123 -29t-41 -74q0 -23 7 -44t24.5 -43.5t34 -40t48 -43t53 -41t64.5 -46t68 -49.5q102 -76 161.5 -132 t107.5 -152.5t48 -208.5q0 -217 -116.5 -345.5t-323.5 -128.5q-180 0 -312.5 124t-132.5 329q0 174 106.5 294t276.5 171q-90 66 -139 108.5t-92 112.5t-43 146q0 96 83 159.5t243 63.5q182 0 428 -80z" glyph-name="delta" horiz-adv-x="1087" unicode="δ"/><glyph d="M514 -25q-186 0 -303 81t-117 218q0 193 207 248v8q-76 29 -117 89.5t-41 132.5q0 131 108.5 199.5t272.5 68.5q174 0 322 -109l-68 -112q-123 88 -250 88q-96 0 -156.5 -40t-60.5 -116q0 -154 228 -153q74 0 125 6v-131q-39 4 -156 4q-246 0 -246 -168q0 -84 70.5 -131 t199.5 -47q141 0 273 100l72 -113q-162 -123 -363 -123z" glyph-name="epsilon" horiz-adv-x="917" unicode="ε"/><glyph d="M737 -377l-135 55q59 72 78.5 107t19.5 74q0 47 -44 71.5t-183 53.5q-172 33 -273.5 140t-101.5 331q0 215 170 465.5t379 410.5q-264 0 -485 -10v137h676v-137h-11q-205 -143 -380 -400t-175 -458q0 -166 74 -242t225 -102q154 -31 217.5 -77t63.5 -144 q0 -115 -115 -275z" glyph-name="zeta" horiz-adv-x="868" unicode="ζ"/><glyph d="M952 -367h-157v975q0 141 -37 203.5t-125 62.5q-84 0 -148.5 -49t-148.5 -174v-651h-168v995h154v-207h6q80 121 162.5 176.5t191.5 55.5q143 0 206.5 -96.5t63.5 -292.5v-998z" glyph-name="eta" horiz-adv-x="1107" unicode="η"/><glyph d="M782 678h-495q8 -563 248 -563q233 0 247 563zM287 799h495q-8 279 -74.5 411.5t-173 132.5t-173 -132.5t-74.5 -411.5zM534.5 1483q194.5 0 304 -192.5t109.5 -555.5q0 -383 -108.5 -571.5t-305 -188.5t-305 188.5t-108.5 571.5q0 362 109.5 555t304 193z" glyph-name="theta" horiz-adv-x="1069" unicode="θ"/><glyph d="M358 -25q-190 0 -190 232v788h170v-800q0 -80 70 -80q25 0 61 12l10 -127q-53 -25 -121 -25z" glyph-name="iota" horiz-adv-x="536" unicode="ι"/><glyph d="M1018 0l-187 -16q-141 156 -331 503q-61 -78 -92 -120q-78 -106 -82 -316v-51h-158l-2 995h168v-542h8q127 217 282.5 372.5t309.5 194.5l16 -160q-160 -49 -346 -252q168 -334 414 -608z" glyph-name="kappa" horiz-adv-x="1011" unicode="κ"/><glyph d="M211 -16l-178 16l432 1018l-12 43q-43 143 -97.5 210.5t-138.5 67.5q-51 0 -129 -32l148 176q141 0 228 -102.5t157 -327.5l376 -1053h-178l-274 825h-8z" glyph-name="lambda" horiz-adv-x="1011" unicode="λ"/><glyph d="M168 -367v1362h168v-608q0 -137 43 -201.5t139 -64.5q76 0 138.5 40t125.5 154v680h170v-800q0 -80 74 -80q27 0 59 12l11 -127q-53 -25 -119 -25q-86 0 -128 46.5t-52 146.5h-4q-104 -188 -277 -188q-135 0 -192 96q0 -20 1 -75.5t2 -160t1 -207.5h-160z" glyph-name="mu" horiz-adv-x="1150" unicode="μ"/><glyph d="M561 0h-166q-123 582 -383 977l170 43q98 -154 186.5 -391.5t135.5 -454.5h8q213 444 248 821h170q-80 -495 -369 -995z" glyph-name="nu" horiz-adv-x="970" unicode="ν"/><glyph d="M752 -377l-136 55q59 72 79 107t20 74q0 45 -48.5 72.5t-179.5 52.5q-387 68 -387 395q0 141 88 249.5t218 147.5v8q-96 39 -151.5 114t-55.5 181q0 176 147 252q-78 0 -289 -10v137h795v-137h-234q-104 0 -176.5 -66.5t-72.5 -179.5q0 -104 79.5 -177t174.5 -73 q68 0 133 13v-144q-47 12 -144 13q-135 0 -236.5 -84t-101.5 -222q0 -135 80 -194.5t240 -87.5q154 -31 214 -76t60 -145q1 -111 -116 -275z" glyph-name="xi" horiz-adv-x="882" unicode="ξ"/><glyph d="M547 -25q-193 0 -323 139.5t-130 381.5q0 244 129 384t324 140q197 0 325.5 -140.5t128.5 -383.5q0 -242 -128.5 -381.5t-325.5 -139.5zM547 115q133 0 206.5 102t73.5 278.5t-74.5 281t-205.5 104.5t-205 -104.5t-74 -281t74 -278.5t205 -102z" glyph-name="omicron" horiz-adv-x="1095" unicode="ο"/><glyph d="M993 -25q-115 0 -166 61.5t-51 188.5q0 37 5 272.5t5 358.5h-352q0 -324 -59 -866l-170 10q72 426 71 856h-231v137l1104 2v-139h-199q-16 -356 -16 -643q0 -98 94 -98q25 0 80 12l22 -129q-55 -23 -137 -23z" glyph-name="pi" horiz-adv-x="1200" unicode="π"/><glyph d="M160 -367v875q0 248 124 380t314 132q209 0 319.5 -133t110.5 -375t-123 -389.5t-287 -147.5q-178 0 -301 142v-436zM588 117q115 0 190.5 107.5t75.5 287.5q0 172 -64.5 269.5t-197.5 97.5q-117 0 -193.5 -96.5t-76.5 -276.5v-254q110 -135 266 -135z" glyph-name="rho" horiz-adv-x="1124" unicode="ρ"/><glyph d="M647 -369l-135 54q59 76 84 118.5t25 83.5q0 51 -31 84t-115 58q-84 29 -140 59.5t-117.5 85.5t-92.5 142t-31 204q0 231 129 365.5t316 134.5q162 0 286 -117l-86 -110q-98 88 -190 88q-125 0 -203 -98.5t-78 -262.5q0 -158 74 -234.5t209 -119.5q127 -43 174 -92 t47 -150q0 -123 -125 -293z" glyph-name="sigma1" horiz-adv-x="884" unicode="ς"/><glyph d="M540.5 -25q-188.5 0 -317.5 137.5t-129 374.5q0 246 132 377t323 131h545v-131l-316 4v-8q197 -115 197 -395q0 -225 -123 -357.5t-311.5 -132.5zM543 115q119 0 193.5 99t74.5 265q0 158 -71.5 267.5t-194.5 109.5t-200 -94t-77 -275q0 -170 77 -271t198 -101z" glyph-name="sigma" horiz-adv-x="1118" unicode="σ"/><glyph d="M590 -25q-111 0 -157 61.5t-46 188.5v633h-334v137h836v-137h-336v-645q0 -98 84 -98q31 0 96 16l17 -129q-72 -27 -160 -27z" glyph-name="tau" horiz-adv-x="942" unicode="τ"/><glyph d="M510 -25q-182 0 -280.5 99.5t-98.5 294.5q0 59 4 177t4 177q0 154 -16 272h164q16 -82 16 -231q0 -53 -6 -197.5t-6 -206.5q0 -127 61.5 -186t159.5 -59q115 0 182.5 94t67.5 283q0 254 -82 489l164 39q88 -264 88 -522q0 -248 -114.5 -385.5t-307.5 -137.5z" glyph-name="upsilon" horiz-adv-x="1044" unicode="υ"/><glyph d="M774 885v-774q152 4 251 109.5t99 279.5t-96 276.5t-254 108.5zM618 111v774q-152 -8 -251 -109.5t-99 -275.5q0 -172 100 -278.5t250 -110.5zM774 1274v-260q219 -8 371.5 -145.5t152.5 -369t-154.5 -372.5t-369.5 -145v-349h-156v349q-215 4 -369.5 145t-154.5 372.5 t153.5 369t370.5 145.5v260h156z" glyph-name="phi" horiz-adv-x="1392" unicode="φ"/><glyph d="M188 -391l-170 24l396 701l-389 643l168 43l301 -533h8l256 508h178l-354 -657l417 -686l-163 -43l-334 588h-8z" glyph-name="chi" horiz-adv-x="985" unicode="χ"/><glyph d="M1042 981l164 39q90 -236 90 -475q0 -268 -135 -415.5t-381 -154.5v-342h-157v342q-244 4 -364 132.5t-120 349.5v266q0 168 -14 272h164q12 -86 12 -231q0 -61 -2 -176t-2 -142q0 -154 82 -242.5t244 -90.5v1161h157v-1161q344 12 344 426q0 225 -82 442z" glyph-name="psi" horiz-adv-x="1411" unicode="ψ"/><glyph d="M451 -25q-154 0 -250.5 127t-96.5 367q0 276 185 551l153 -68q-92 -131 -134 -247.5t-42 -266.5q0 -152 53.5 -237.5t139.5 -85.5q80 0 130 60.5t50 189.5q0 96 -16 266h184q-16 -170 -16 -266q0 -250 178 -250q88 0 139 88t51 262q0 145 -36 252.5t-124 238.5l152 64 q180 -264 180 -545q0 -246 -91 -373t-251 -127q-197 0 -268 181h-8q-74 -181 -262 -181z" glyph-name="omega" horiz-adv-x="1435" unicode="ω"/><glyph d="M358 -25q-190 0 -190 232v788h170v-800q0 -80 70 -80q25 0 61 12l10 -127q-53 -25 -121 -25zM57 1202q-45 0 -73.5 30t-28.5 73t28.5 72.5t73.5 29.5q43 0 72 -29.5t29 -72.5t-29 -73t-72 -30zM451 1202q-43 0 -72 30t-29 73t29 72.5t72 29.5q45 0 73.5 -29.5t28.5 -72.5 t-28.5 -73t-73.5 -30z" glyph-name="iotadieresis" horiz-adv-x="536" unicode="ϊ"/><glyph d="M510 -25q-182 0 -280.5 99.5t-98.5 294.5q0 59 4 177t4 177q0 154 -16 272h164q16 -82 16 -231q0 -53 -6 -197.5t-6 -206.5q0 -127 61.5 -186t159.5 -59q115 0 182.5 94t67.5 283q0 254 -82 489l164 39q88 -264 88 -522q0 -248 -114.5 -385.5t-307.5 -137.5zM303 1202 q-45 0 -73.5 30t-28.5 73t28.5 72.5t73.5 29.5q43 0 71.5 -29.5t28.5 -72.5t-28.5 -73t-71.5 -30zM696 1202q-43 0 -71.5 30t-28.5 73t28.5 72.5t71.5 29.5q45 0 74 -29.5t29 -72.5t-29 -73t-74 -30z" glyph-name="upsilondieresis" horiz-adv-x="1044" unicode="ϋ"/><glyph d="M547 -25q-193 0 -323 139.5t-130 381.5q0 244 129 384t324 140q197 0 325.5 -140.5t128.5 -383.5q0 -242 -128.5 -381.5t-325.5 -139.5zM547 115q133 0 206.5 102t73.5 278.5t-74.5 281t-205.5 104.5t-205 -104.5t-74 -281t74 -278.5t205 -102zM481 1165l88 412l174 -31 l-145 -403z" glyph-name="omicrontonos" horiz-adv-x="1095" unicode="ό"/><glyph d="M510 -25q-182 0 -280.5 99.5t-98.5 294.5q0 59 4 177t4 177q0 154 -16 272h164q16 -82 16 -231q0 -53 -6 -197.5t-6 -206.5q0 -127 61.5 -186t159.5 -59q115 0 182.5 94t67.5 283q0 254 -82 489l164 39q88 -264 88 -522q0 -248 -114.5 -385.5t-307.5 -137.5zM432 1165 l88 412l174 -31l-145 -403z" glyph-name="upsilontonos" horiz-adv-x="1044" unicode="ύ"/><glyph d="M451 -25q-154 0 -250.5 127t-96.5 367q0 276 185 551l153 -68q-92 -131 -134 -247.5t-42 -266.5q0 -152 53.5 -237.5t139.5 -85.5q80 0 130 60.5t50 189.5q0 96 -16 266h184q-16 -170 -16 -266q0 -250 178 -250q88 0 139 88t51 262q0 145 -36 252.5t-124 238.5l152 64 q180 -264 180 -545q0 -246 -91 -373t-251 -127q-197 0 -268 181h-8q-74 -181 -262 -181zM649 1165l88 412l174 -31l-145 -403z" glyph-name="omegatonos" horiz-adv-x="1435" unicode="ώ"/><glyph d="M319 629v-142q0 -104 30 -180t79 -113.5t96 -54t97 -16.5q119 0 193.5 74.5t74.5 199.5t-73 207t-216 82q-84 0 -281 -57zM324 983l-2 -225q242 47 345 136t103 220q0 111 -56.5 168t-142.5 57q-239 0 -247 -356zM705 788v-8q164 -16 258 -122.5t94 -270.5 q0 -188 -123 -300t-309 -112q-84 0 -163 27t-148.5 81t-111.5 152.5t-42 227.5v543q0 213 102.5 343t298.5 130q154 0 263.5 -91.5t109.5 -259.5q0 -231 -229 -340z" glyph-name="uni03D0" horiz-adv-x="1146" unicode="ϐ"/><glyph d="M297 1108q0 -154 110.5 -244t374.5 -53q-14 532 -288 532q-86 0 -141.5 -65.5t-55.5 -169.5zM164 596h160q14 -41 14 -229q0 -252 199 -252q115 0 178 128t67 455q-178 -23 -311 7t-202.5 97.5t-101.5 144.5t-32 163q0 162 102.5 267.5t249.5 105.5q461 0 461 -742 q0 -410 -108.5 -588t-309.5 -178q-168 0 -259 93.5t-91 277.5q0 178 -16 250z" glyph-name="theta1" horiz-adv-x="1069" unicode="ϑ"/><glyph d="M774 111q156 8 253 114.5t97 286.5q0 168 -58 267.5t-151 99.5q-66 0 -105.5 -68t-39.5 -199q0 -161 4 -501zM621 111v495q0 205 81.5 309.5t221.5 104.5q170 0 272 -135t102 -365q0 -242 -153.5 -388t-370.5 -150q2 -59 5 -175t3 -174h-161v349q-223 4 -375 140 t-152 376q0 272 219 530l138 -98q-94 -113 -139.5 -216.5t-45.5 -234.5q0 -168 98.5 -264t256.5 -104z" glyph-name="phi1" horiz-adv-x="1392" unicode="ϕ"/><glyph d="M934 1020l16 -160q-160 -49 -346 -252q168 -334 414 -608q-123 -197 -277 -383l-196 16q154 162 284 355q-168 184 -329 499q-61 -78 -92 -120q-78 -106 -82 -316v-51h-158l-2 995h166l2 -542h8q127 217 282.5 372.5t309.5 194.5z" glyph-name="uni03D7" horiz-adv-x="1011" unicode="ϗ"/><glyph d="M547 111q133 0 206.5 103t73.5 282q0 176 -74.5 280.5t-205.5 104.5t-205 -104.5t-74 -280.5q0 -178 73 -281.5t206 -103.5zM471 -367v349q-166 25 -271.5 162t-105.5 352q0 244 129 384t324 140q197 0 325.5 -140.5t128.5 -383.5q0 -211 -103 -346.5t-265 -165.5v-351 h-162z" glyph-name="uni03D9" horiz-adv-x="1095" unicode="ϙ"/><glyph d="M719 -377l-135 55q57 70 78.5 107t21.5 72q0 47 -36 77.5t-146 57.5q-408 102 -408 495q0 250 138.5 379t359.5 129h309v-143q-53 4 -297 4q-158 0 -247 -93t-89 -276q0 -154 82 -237.5t234 -118.5q141 -35 196.5 -87t55.5 -146q0 -113 -117 -275z" glyph-name="uni03DB" horiz-adv-x="954" unicode="ϛ"/><glyph d="M168 -367v1362h625l-19 -137h-448l4 -444h291v-121h-291v-660h-162z" glyph-name="uni03DD" horiz-adv-x="845" unicode="ϝ"/><glyph d="M127 1288l104 125q352 -213 546 -580.5t194 -799.5q0 -215 -37 -400l-164 21q37 182 37 381q0 143 -21 258l-518 -248l-69 141l557 250q-31 131 -86 244l-566 -268l-69 141l569 256q-176 301 -477 479z" glyph-name="uni03E1" horiz-adv-x="1019" unicode="ϡ"/><glyph d="M184 0v1343h774l-20 -143h-584v-422h398v-145h-398v-488h625v-145h-795zM616 1427l-311 236l96 113l291 -263z" glyph-name="uni0400" horiz-adv-x="1079" unicode="Ѐ"/><glyph d="M184 0v1343h774l-20 -143h-584v-422h398v-145h-398v-488h625v-145h-795zM371 1464q-43 0 -72 29t-29 72q0 45 29 72.5t72 27.5q45 0 72.5 -27.5t27.5 -72.5q0 -43 -27.5 -72t-72.5 -29zM793 1464q-45 0 -73 29t-28 72q0 45 28 72.5t73 27.5q43 0 71.5 -27.5t28.5 -72.5 q0 -43 -28.5 -72t-71.5 -29z" glyph-name="afii10023" horiz-adv-x="1079" unicode="Ё"/><glyph d="M938 -25l-100 158q37 -16 80 -16q86 0 152.5 66.5t66.5 207.5q0 289 -330 289q-131 0 -213 -21v-659h-172v1200h-365v143h1006v-143h-469v-399q94 20 235 20q217 0 347.5 -105.5t130.5 -322.5t-105.5 -317.5t-263.5 -100.5z" glyph-name="afii10051" horiz-adv-x="1406" unicode="Ђ"/><glyph d="M184 0v1343h774v-143h-604v-1200h-170zM559 1427l-76 86l291 263l96 -113z" glyph-name="afii10052" horiz-adv-x="1019" unicode="Ѓ"/><glyph d="M1010 276l94 -106q-168 -195 -412 -195q-266 0 -426 181.5t-160 515.5q0 332 163 514t431 182q221 0 371 -166l-92 -110q-121 127 -277 127q-180 0 -290.5 -114t-132.5 -327h563v-145h-566q10 -254 119 -381t303 -127q173 -1 312 151z" glyph-name="afii10053" horiz-adv-x="1169" unicode="Є"/><glyph d="M1014 375q0 -178 -118 -289t-333 -111q-303 0 -495 136l100 133q172 -119 395 -119q135 0 206 62.5t71 166.5q0 47 -14.5 81t-47.5 59.5t-62.5 41t-82.5 37.5q-16 6 -25 11l-194 75q-287 115 -287 336q0 158 120 265.5t318 107.5q227 0 416 -125l-98 -127 q-154 102 -318 103q-119 0 -192.5 -56.5t-73.5 -148.5q0 -47 18.5 -82t58.5 -60.5t69.5 -39t84.5 -33.5l195 -76q135 -51 212 -132t77 -216z" glyph-name="afii10054" horiz-adv-x="1093" unicode="Ѕ"/><glyph d="M184 0v1343h170v-1343h-170z" glyph-name="afii10055" horiz-adv-x="538" unicode="І"/><glyph d="M184 0v1343h170v-1343h-170zM57 1464q-43 0 -71.5 29t-28.5 72q0 45 28.5 72.5t71.5 27.5q45 0 73 -27.5t28 -72.5q0 -43 -28 -72t-73 -29zM479 1464q-45 0 -72.5 29t-27.5 72q0 45 27.5 72.5t72.5 27.5q43 0 72 -27.5t29 -72.5q0 -43 -29 -72t-72 -29z" glyph-name="afii10056" horiz-adv-x="538" unicode="Ї"/><glyph d="M434 -25q-250 0 -371 215l123 86q84 -152 232 -151q111 0 163 67.5t52 219.5v931h172v-948q0 -186 -92.5 -303t-278.5 -117z" glyph-name="afii10057" horiz-adv-x="983" unicode="Ј"/><glyph d="M1077 139h166q174 0 261 64.5t87 206.5q0 127 -87 186t-265 59h-162v-516zM1077 793h187q231 0 363 -92.5t132 -286.5q0 -209 -130 -311.5t-363 -102.5h-359v1200h-327l-125 -721q-55 -297 -128 -400.5t-200 -103.5q-66 0 -115 19l35 158q27 -12 57 -13q61 0 102.5 68.5 t86.5 292.5l153 843h631v-550z" glyph-name="afii10058" horiz-adv-x="1849" unicode="Љ"/><glyph d="M1130 139h166q174 0 261.5 64.5t87.5 206.5q0 127 -87.5 186t-265.5 59h-162v-516zM1130 793h187q231 0 363 -92.5t132 -286.5q0 -209 -130 -311.5t-363 -102.5h-361v633h-604v-633h-170v1343h170v-563h604v563h172v-550z" glyph-name="afii10059" horiz-adv-x="1902" unicode="Њ"/><glyph d="M594 1200v-399q94 20 227 20q467 0 467 -422v-399h-168v399q0 150 -76.5 215.5t-238.5 65.5q-129 0 -211 -21v-659h-172v1200h-365v143h1006v-143h-469z" glyph-name="afii10060" horiz-adv-x="1425" unicode="Ћ"/><glyph d="M721 717l463 -717h-187l-413 637h-230v-637h-170v1343h170v-567h232l188 342q84 150 146.5 200t156.5 50q41 0 74 -12l-29 -160q-23 8 -49 8q-47 0 -82 -32.5t-92 -137.5zM629 1436l-76 86l291 262l96 -113z" glyph-name="afii10061" horiz-adv-x="1187" unicode="Ќ"/><glyph d="M184 0v1343h168v-1071h8l619 1071h180v-1343h-168v1049h-8l-618 -1049h-181zM715 1436l-312 235l97 113l291 -262z" glyph-name="uni040D" horiz-adv-x="1343" unicode="Ѝ"/><glyph d="M279 -25q-78 0 -134 21l35 154q39 -14 86 -15q119 0 174 109l29 71l-459 1028h183l352 -839h8l326 839h174l-441 -1099q-53 -133 -131.5 -201t-201.5 -68zM526 1444q-158 0 -230.5 76.5t-78.5 193.5h148q2 -78 40.5 -127t120.5 -49q152 0 162 176h148q-21 -270 -310 -270 z" glyph-name="afii10062" horiz-adv-x="1052" unicode="Ў"/><glyph d="M1137 1343v-1343h-383v-385h-166v385h-404v1343h170v-1198h613v1198h170z" glyph-name="afii10145" horiz-adv-x="1320" unicode="Џ"/><glyph d="M352 547h404l-199 602h-8zM926 0l-127 410h-490l-129 -410h-174l455 1343h192l455 -1343h-182z" glyph-name="afii10017" horiz-adv-x="1114" unicode="А"/><glyph d="M184 0v1343h830v-143h-660v-422h258q227 0 359.5 -89t132.5 -281q0 -205 -127 -306.5t-356 -101.5h-437zM354 135h238q174 0 259 64.5t85 203.5q0 127 -86 185.5t-262 58.5h-234v-512z" glyph-name="afii10018" horiz-adv-x="1187" unicode="Б"/><glyph d="M184 0v1343h400q461 0 460 -327q0 -102 -51 -182t-145 -111v-8q127 -25 200.5 -106t73.5 -216q0 -193 -138 -293t-372 -100h-428zM354 772h199q324 0 324 221q0 115 -77 165t-239 50h-207v-436zM354 135h234q367 0 366 264q0 242 -366 242h-234v-506z" glyph-name="afii10019" horiz-adv-x="1204" unicode="В"/><glyph d="M184 0v1343h774v-143h-604v-1200h-170z" glyph-name="afii10020" horiz-adv-x="1019" unicode="Г"/><glyph d="M932 1200h-375l-100 -600q-61 -332 -150 -455h625v1055zM1104 145h149v-530h-168v385h-864v-385h-168v530h62q104 43 186 484l123 714h680v-1198z" glyph-name="afii10021" horiz-adv-x="1306" unicode="Д"/><glyph d="M184 0v1343h774l-20 -143h-584v-422h398v-145h-398v-488h625v-145h-795z" glyph-name="afii10022" horiz-adv-x="1079" unicode="Е"/><glyph d="M1227 717l407 -717h-186l-348 637h-195v-637h-162v637h-194l-348 -637h-189l410 717l-141 317q-51 104 -88 137t-89 33q-27 0 -49 -8l-28 160q35 12 73 12q96 0 165 -52t138 -198l158 -342h182v567h162v-567h180l160 342q70 145 138.5 197.5t164.5 52.5q41 0 74 -12 l-29 -160q-25 8 -49 8q-51 0 -88 -32.5t-88 -137.5z" glyph-name="afii10024" horiz-adv-x="1648" unicode="Ж"/><glyph d="M569 -25q-289 0 -483 197l96 117q86 -88 176.5 -126t208.5 -38q135 0 226.5 70.5t91.5 193.5q0 252 -363 252h-151v131h110q176 0 255 57.5t79 174.5q0 102 -72.5 158.5t-189.5 56.5q-180 0 -315 -125l-93 114q160 160 412 160q193 0 309.5 -92t116.5 -252 q0 -109 -52 -188.5t-149 -114.5v-8q121 -25 196 -111t75 -221q0 -188 -137.5 -297t-346.5 -109z" glyph-name="afii10025" horiz-adv-x="1134" unicode="З"/><glyph d="M184 0v1343h168v-1071h8l619 1071h180v-1343h-168v1049h-8l-618 -1049h-181z" glyph-name="afii10026" horiz-adv-x="1343" unicode="И"/><glyph d="M184 0v1343h168v-1071h8l619 1071h180v-1343h-168v1049h-8l-618 -1049h-181zM680 1452q-158 0 -230.5 77t-78.5 193h147q2 -78 41 -127t121 -49q152 0 162 176h147q-20 -270 -309 -270z" glyph-name="afii10027" horiz-adv-x="1343" unicode="Й"/><glyph d="M721 717l463 -717h-187l-413 637h-230v-637h-170v1343h170v-567h232l188 342q84 150 146.5 200t156.5 50q41 0 74 -12l-29 -160q-23 8 -49 8q-47 0 -82 -32.5t-92 -137.5z" glyph-name="afii10028" horiz-adv-x="1187" unicode="К"/><glyph d="M115 -25q-66 0 -115 19l35 158q31 -12 57 -13q61 0 102.5 68.5t86.5 292.5l153 843h672v-1343h-170v1200h-369l-127 -719q-55 -297 -126.5 -401.5t-198.5 -104.5z" glyph-name="afii10029" horiz-adv-x="1290" unicode="Л"/><glyph d="M184 0v1343h205l352 -927h9l348 927h207v-1343h-160v1040h-8l-338 -882h-113l-340 882h-8v-1040h-154z" glyph-name="afii10030" horiz-adv-x="1488" unicode="М"/><glyph d="M184 0v1343h170v-563h625v563h172v-1343h-172v633h-625v-633h-170z" glyph-name="afii10031" horiz-adv-x="1335" unicode="Н"/><glyph d="M680 -25q-256 0 -415 190.5t-159 512.5q0 319 158 504.5t416 185.5q256 0 415.5 -187.5t159.5 -502.5q0 -322 -159.5 -512.5t-415.5 -190.5zM680 125q178 0 287.5 150.5t109.5 402.5q0 248 -108.5 394.5t-288.5 146.5t-288.5 -146.5t-108.5 -394.5q0 -252 109.5 -402.5 t287.5 -150.5z" glyph-name="afii10032" horiz-adv-x="1359" unicode="О"/><glyph d="M184 0v1343h953v-1343h-170v1200h-613v-1200h-170z" glyph-name="afii10033" horiz-adv-x="1320" unicode="П"/><glyph d="M184 0v1343h383q504 0 504 -395q0 -205 -133 -310.5t-363 -105.5h-221v-532h-170zM354 672h201q178 0 262 66.5t84 209.5q0 141 -86 199.5t-268 58.5h-193v-534z" glyph-name="afii10034" horiz-adv-x="1159" unicode="Р"/><glyph d="M692 -25q-258 0 -422 187.5t-164 509.5q0 317 167 506.5t429 189.5q121 0 236 -41t192 -110l-86 -121q-68 55 -160.5 89t-178.5 34q-193 0 -307.5 -146.5t-114.5 -396.5q0 -252 112.5 -401.5t302.5 -149.5q188 0 346 125l86 -123q-190 -152 -438 -152z" glyph-name="afii10035" horiz-adv-x="1169" unicode="С"/><glyph d="M463 0v1200h-406v143h983v-143h-405v-1200h-172z" glyph-name="afii10036" horiz-adv-x="1097" unicode="Т"/><glyph d="M279 -25q-78 0 -134 21l35 154q39 -14 86 -15q119 0 174 109l29 71l-459 1028h183l352 -839h8l326 839h174l-441 -1099q-53 -133 -131.5 -201t-201.5 -68z" glyph-name="afii10037" horiz-adv-x="1052" unicode="У"/><glyph d="M825 1047v-748q201 6 307.5 105.5t106.5 273.5t-106.5 268.5t-307.5 100.5zM674 299v748q-201 -6 -307.5 -100.5t-106.5 -268.5t106.5 -273.5t307.5 -105.5zM825 1368v-190q276 -8 427 -137.5t151 -362.5q0 -238 -150.5 -369t-427.5 -141v-193h-151v193q-276 10 -427 141 t-151 369q0 233 150.5 362t427.5 138v190h151z" glyph-name="afii10038" horiz-adv-x="1499" unicode="Ф"/><glyph d="M31 0l389 686l-363 657h189l274 -538h8l287 538h180l-366 -657l391 -686h-189l-303 578h-8l-309 -578h-180z" glyph-name="afii10039" horiz-adv-x="1050" unicode="Х"/><glyph d="M1112 145h150v-530h-168v385h-910v1343h170v-1198h588v1198h170v-1198z" glyph-name="afii10040" horiz-adv-x="1314" unicode="Ц"/><glyph d="M870 0v602q-94 -20 -245 -20q-238 0 -363 102t-125 336v323h168v-323q0 -164 82 -230.5t254 -66.5q150 0 229 20v600h170v-1343h-170z" glyph-name="afii10041" horiz-adv-x="1224" unicode="Ч"/><glyph d="M184 0v1343h168v-1198h451v1198h166v-1198h450v1198h168v-1343h-1403z" glyph-name="afii10042" horiz-adv-x="1771" unicode="Ш"/><glyph d="M1587 145h150v-530h-168v385h-1385v1343h168v-1198h451v1198h166v-1198h450v1198h168v-1198z" glyph-name="afii10043" horiz-adv-x="1789" unicode="Щ"/><glyph d="M487 0v1200h-430v143h602v-550h222q225 0 364 -95.5t139 -283.5q0 -209 -130 -311.5t-361 -102.5h-406zM659 139h213q174 0 259.5 64.5t85.5 206.5q0 246 -359 245h-199v-516z" glyph-name="afii10044" horiz-adv-x="1474" unicode="Ъ"/><glyph d="M184 0v1343h170v-550h209q231 0 363.5 -92.5t132.5 -286.5q0 -209 -130 -311.5t-364 -102.5h-381zM354 139h191q174 0 260 64.5t86 206.5q0 127 -87 186t-265 59h-185v-516zM1280 0v1343h170v-1343h-170z" glyph-name="afii10045" horiz-adv-x="1634" unicode="Ы"/><glyph d="M184 0v1343h170v-550h248q231 0 363.5 -92.5t132.5 -286.5q0 -209 -130 -311.5t-364 -102.5h-420zM354 139h228q176 0 262 64.5t86 206.5q0 127 -87 186t-265 59h-224v-516z" glyph-name="afii10046" horiz-adv-x="1187" unicode="Ь"/><glyph d="M190 1092l-94 110q72 72 178.5 119t223.5 47q258 0 411.5 -181t153.5 -515t-155.5 -515.5t-409.5 -181.5q-250 0 -432 195l94 106q141 -152 334 -151q180 0 284.5 129t114.5 379h-565v145h561q-18 215 -119.5 328t-277.5 113q-175 0 -302 -127z" glyph-name="afii10047" horiz-adv-x="1169" unicode="Э"/><glyph d="M1200 125q176 0 276.5 149.5t100.5 403.5q0 252 -100.5 396.5t-276.5 144.5q-174 0 -274.5 -145.5t-100.5 -395.5q0 -252 101.5 -402.5t273.5 -150.5zM354 780h303q25 276 169.5 432t373.5 156q250 0 401.5 -186.5t151.5 -503.5q0 -322 -151.5 -512.5t-401.5 -190.5 q-238 0 -386 177.5t-161 480.5h-299v-633h-170v1343h170v-563z" glyph-name="afii10048" horiz-adv-x="1859" unicode="Ю"/><glyph d="M838 707v499h-226q-164 0 -244.5 -55t-80.5 -184q0 -260 325 -260h226zM588 1343h420v-1343h-170v567h-248l-348 -567h-197l375 586q-303 80 -303 381q0 376 471 376z" glyph-name="afii10049" horiz-adv-x="1191" unicode="Я"/><glyph d="M1008 152v-129q-35 -23 -117 -23q-59 0 -101 29.5t-55 60.5l-12 29h-6q-76 -63 -154 -101q-84 -43 -176 -43q-125 0 -208 78t-83 205q0 324 611 324v28q0 143 -53.5 207t-166.5 64q-76 0 -147.5 -21.5t-103.5 -44.5l-33 -20l-94 127q18 10 52 27.5t133 45t195 27.5 q387 0 388 -412v-377q0 -57 13 -77.5t48 -20.5q41 1 70 17zM707 473q-446 0 -447 -203q0 -74 48 -116.5t128 -42.5q115 0 271 125v237z" glyph-name="afii10065" horiz-adv-x="1032" unicode="а"/><glyph d="M578 115q115 0 189.5 106.5t74.5 272.5q0 156 -71 245.5t-198 89.5q-166 0 -303 -180v-78q0 -219 78 -337.5t230 -118.5zM940 1495l33 -154q-61 -39 -205 -63q-74 -12 -113 -18.5t-94 -20.5t-81.5 -28.5t-63.5 -40t-54.5 -57.5t-37 -78t-29.5 -105.5t-16 -136.5 q135 166 337 165q178 0 289 -125.5t111 -338.5q0 -233 -127 -376t-311 -143q-223 0 -346 164t-123 465q0 199 30.5 340t78.5 227t134 142.5t169 81t212 45.5q121 18 207 55z" glyph-name="afii10066" horiz-adv-x="1114" unicode="б"/><glyph d="M168 0v995h383q367 0 367 -252q0 -164 -166 -213v-6q209 -49 209 -239q0 -141 -108 -213t-286 -72h-399zM334 578h188q231 0 232 149q0 147 -219 147h-201v-296zM334 121h215q244 0 244 174q0 76 -64.5 119t-189.5 43h-205v-336z" glyph-name="afii10067" horiz-adv-x="1040" unicode="в"/><glyph d="M168 0v995h620v-137h-452v-858h-168z" glyph-name="afii10068" horiz-adv-x="841" unicode="г"/><glyph d="M414 858l-39 -336q-31 -270 -107 -385h463v721h-317zM899 137h145v-489h-161v352h-680v-352h-164v489h49q49 29 81 113t58 305l54 440h618v-858z" glyph-name="afii10069" horiz-adv-x="1089" unicode="д"/><glyph d="M977 121q-152 -145 -402 -146q-215 0 -347 138.5t-132 382.5q0 246 127 385t336 139q203 0 311.5 -132t108.5 -370v-59h-707q0 -154 86 -249t217 -95q180 0 297 110zM276 575h539q0 139 -65.5 222.5t-190.5 83.5q-131 0 -207 -86.5t-76 -219.5z" glyph-name="afii10070" horiz-adv-x="1015" unicode="е"/><glyph d="M1055 524l313 -524h-182l-250 449h-164v-449h-149v449h-164l-250 -449h-182l313 524l-80 197q-33 80 -65.5 107.5t-77.5 27.5q-23 0 -33 -4l-31 158q31 10 60 10q86 0 148.5 -47t113.5 -166l94 -221h154v409h149v-409h154l94 221q51 119 113.5 166t148.5 47q31 0 57 -10 l-28 -158q-10 4 -33 4q-45 0 -79 -27.5t-66 -107.5z" glyph-name="afii10072" horiz-adv-x="1394" unicode="ж"/><glyph d="M453 -25q-223 0 -377 127l71 109q123 -100 291 -100q106 0 177 49t71 129q0 168 -254 168h-137v121h113q240 0 239 157q0 74 -56 113t-151 39q-147 0 -270 -88l-72 110q158 111 351 111q156 0 259 -68.5t103 -199.5q0 -74 -43 -132.5t-121 -89.5v-8q207 -55 207 -248 q0 -135 -117.5 -217t-283.5 -82z" glyph-name="afii10073" horiz-adv-x="933" unicode="з"/><glyph d="M168 0v995h164v-741h8l491 741h158v-995h-164v750h-8l-493 -750h-156z" glyph-name="afii10074" horiz-adv-x="1157" unicode="и"/><glyph d="M168 0v995h164v-741h8l491 741h158v-995h-164v750h-8l-493 -750h-156zM584 1174q-158 0 -237 90t-85 223h139q12 -215 182.5 -215t182.5 215h139q-8 -135 -84.5 -224t-236.5 -89z" glyph-name="afii10075" horiz-adv-x="1157" unicode="й"/><glyph d="M655 524l338 -524h-184l-277 449h-196v-449h-168v995h168v-409h192l99 221q53 123 113.5 168t148.5 45q31 0 57 -10l-28 -158q-10 4 -33 4q-43 0 -77 -27.5t-69 -107.5z" glyph-name="afii10076" horiz-adv-x="1019" unicode="к"/><glyph d="M111 -25q-41 0 -91 17l33 155q18 -8 45 -8q106 0 133 211q27 215 76 645h613v-995h-170v858h-310q-10 -92 -32.5 -276.5t-32.5 -274.5q-43 -332 -264 -332z" glyph-name="afii10077" horiz-adv-x="1087" unicode="л"/><glyph d="M168 0v995h194l285 -682h8l281 682h192v-995h-153v727h-8l-260 -633h-113l-266 633h-9v-727h-151z" glyph-name="afii10078" horiz-adv-x="1296" unicode="м"/><glyph d="M168 0v995h168v-403h479v403h168v-995h-168v442h-479v-442h-168z" glyph-name="afii10079" horiz-adv-x="1150" unicode="н"/><glyph d="M555 -25q-193 0 -327 141.5t-134 379.5q0 242 134 383t327 141t327 -141.5t134 -382.5q0 -238 -134 -379.5t-327 -141.5zM555 115q129 0 208 105.5t79 275.5q0 172 -79 278.5t-208 106.5t-208 -106.5t-79 -278.5q0 -170 79 -275.5t208 -105.5z" glyph-name="afii10080" horiz-adv-x="1110" unicode="о"/><glyph d="M168 0v995h797v-995h-168v858h-461v-858h-168z" glyph-name="afii10081" horiz-adv-x="1132" unicode="п"/><glyph d="M168 -358v1353h154v-114h6q166 139 317 139q188 0 290.5 -136t102.5 -372q0 -244 -125 -390.5t-305 -146.5q-131 0 -272 115v-401zM580 117q125 0 204.5 107.5t79.5 287.5q0 367 -262 367q-115 0 -266 -136v-522q125 -104 244 -104z" glyph-name="afii10082" horiz-adv-x="1136" unicode="р"/><glyph d="M586 -25q-215 0 -353.5 144.5t-138.5 388.5t136.5 378t355.5 134q211 0 370 -146l-84 -116q-127 123 -286 123q-143 0 -230.5 -103.5t-87.5 -275.5t88 -279.5t230 -107.5q162 0 286 125l84 -117q-157 -148 -370 -148z" glyph-name="afii10083" horiz-adv-x="933" unicode="с"/><glyph d="M387 0v858h-334v137h836v-137h-334v-858h-168z" glyph-name="afii10084" horiz-adv-x="942" unicode="т"/><glyph d="M184 -428q-94 0 -164 39l80 115q33 -14 76 -15q154 0 225 213l23 74l-399 997h174l202 -551q61 -176 97 -280h8q18 53 49 160.5t35 119.5l178 551h164l-375 -1077q-61 -166 -146.5 -256t-226.5 -90z" glyph-name="afii10085" horiz-adv-x="956" unicode="у"/><glyph d="M670 -420v320l4 149q-100 -74 -201 -74q-174 0 -275.5 136.5t-101.5 384.5q0 233 110.5 378.5t266.5 145.5q96 0 201 -72l-4 148v362h164v-362l-5 -152q102 76 215 76q174 0 268.5 -136t94.5 -372q0 -246 -110.5 -391.5t-270.5 -145.5q-96 0 -197 72l5 -147v-320h-164z M510 117q92 0 164 71v623q-76 68 -172 68q-100 0 -166 -106.5t-66 -274.5q0 -180 62.5 -280.5t177.5 -100.5zM997 117q106 0 171 105.5t65 289.5q0 367 -229 367q-94 0 -175 -70v-625q72 -67 168 -67z" glyph-name="afii10086" horiz-adv-x="1503" unicode="ф"/><glyph d="M29 0l315 502l-291 493h183l217 -385h8l225 385h176l-301 -493l324 -502h-183l-245 410h-8l-244 -410h-176z" glyph-name="afii10087" horiz-adv-x="913" unicode="х"/><glyph d="M950 137h146v-489h-162v352h-766v995h168v-858h446v858h168v-858z" glyph-name="afii10088" horiz-adv-x="1134" unicode="ц"/><glyph d="M713 0v397q-86 -20 -195 -20q-197 0 -297 83t-100 263v272h168v-272q0 -111 62.5 -160t199.5 -49q88 0 162 18v463h168v-995h-168z" glyph-name="afii10089" horiz-adv-x="1048" unicode="ч"/><glyph d="M168 0v995h168v-858h350v858h162v-858h352v858h166v-995h-1198z" glyph-name="afii10090" horiz-adv-x="1533" unicode="ш"/><glyph d="M1366 137h145l-2 -489h-159v352h-1182v995h168v-858h350v858h162v-858h352v858h166v-858z" glyph-name="afii10091" horiz-adv-x="1550" unicode="щ"/><glyph d="M406 0v858h-353v137h520v-366h166q184 0 290 -78t106 -234q0 -160 -104.5 -238.5t-291.5 -78.5h-333zM573 135h150q248 0 248 182q0 180 -248 181h-150v-363z" glyph-name="afii10092" horiz-adv-x="1220" unicode="ъ"/><glyph d="M168 0v995h168v-366h141q184 0 289.5 -77t105.5 -235q0 -160 -105 -238.5t-290 -78.5h-309zM336 135h123q248 0 248 182q0 94 -60.5 137.5t-187.5 43.5h-123v-363zM1044 0v995h168v-995h-168z" glyph-name="afii10093" horiz-adv-x="1380" unicode="ы"/><glyph d="M168 0v995h168v-366h188q184 0 290 -77t106 -235q0 -160 -105.5 -238.5t-290.5 -78.5h-356zM336 135h170q248 0 248 182q0 94 -60.5 137.5t-187.5 43.5h-170v-363z" glyph-name="afii10094" horiz-adv-x="1005" unicode="ь"/><glyph d="M150 799l-80 102q127 119 315 119q197 0 326 -134t129 -390q0 -252 -128 -386.5t-337 -134.5q-193 0 -326 127l70 103q109 -94 241 -94q139 0 223.5 88t94.5 258h-440v121h436q-18 152 -98 230.5t-201 78.5q-123 0 -225 -88z" glyph-name="afii10095" horiz-adv-x="933" unicode="э"/><glyph d="M979 115q121 0 192.5 104.5t71.5 276.5q0 174 -71.5 279.5t-192.5 105.5t-195.5 -106.5t-74.5 -278.5q0 -170 74.5 -275.5t195.5 -105.5zM336 586h217q25 201 144.5 317.5t289.5 116.5q184 0 307 -140.5t123 -383.5q0 -240 -123 -380.5t-307 -140.5q-178 0 -299 125 t-137 336h-215v-436h-168v995h168v-409z" glyph-name="afii10096" horiz-adv-x="1511" unicode="ю"/><glyph d="M717 516v348h-156q-250 0 -250 -168q0 -86 65.5 -133t184.5 -47h156zM532 995h353v-995h-168v393h-185h-2l-274 -393h-190l303 416q-104 31 -166 102.5t-62 181.5q0 295 391 295z" glyph-name="afii10097" horiz-adv-x="1052" unicode="я"/><glyph d="M977 121q-152 -145 -402 -146q-215 0 -347 138.5t-132 382.5q0 246 127 385t336 139q203 0 311.5 -132t108.5 -370v-59h-707q0 -154 86 -249t217 -95q180 0 297 110zM276 575h539q0 139 -65.5 222.5t-190.5 83.5q-131 0 -207 -86.5t-76 -219.5zM571 1174l-321 313 l119 112l288 -342z" glyph-name="uni0450" horiz-adv-x="1015" unicode="ѐ"/><glyph d="M872 225l105 -104q-152 -145 -402 -146q-215 0 -347 138.5t-132 382.5q0 246 127 385t336 139q203 0 311.5 -132t108.5 -370v-59h-707q0 -154 86 -249t217 -95q180 -1 297 110zM276 575h539q0 139 -65.5 222.5t-190.5 83.5q-131 0 -207 -86.5t-76 -219.5zM346 1202 q-45 0 -73.5 30t-28.5 73t28.5 72.5t73.5 29.5q43 0 71.5 -29.5t28.5 -72.5t-28.5 -73t-71.5 -30zM739 1202q-43 0 -71.5 30t-28.5 73t28.5 72.5t71.5 29.5q45 0 74 -29.5t29 -72.5t-29 -73t-74 -30z" glyph-name="afii10071" horiz-adv-x="1015" unicode="ё"/><glyph d="M336 979l-8 -199q164 160 325 160q369 0 369 -590q0 -299 -52 -478t-141.5 -247.5t-224.5 -68.5l-92 153q45 -16 82 -16q57 0 100 29.5t80 98t55.5 197.5t18.5 314q0 254 -60.5 357.5t-187.5 103.5q-68 0 -128 -35t-136 -113v-645h-168v1169h-152v88l152 11v190h168v-190 h373v-99h-373v-190z" glyph-name="afii10099" horiz-adv-x="1122" unicode="ђ"/><glyph d="M168 0v995h620v-137h-452v-858h-168zM477 1176l-86 84l289 342l119 -113z" glyph-name="afii10100" horiz-adv-x="841" unicode="ѓ"/><glyph d="M815 209l68 -107q-143 -127 -322 -127q-211 0 -339 134.5t-128 386.5t136.5 388t340.5 136q162 0 293 -117l-80 -106q-104 90 -213 90q-125 0 -207.5 -80t-103.5 -229h463v-121h-467q10 -172 93 -259t226 -87q127 0 240 98z" glyph-name="afii10101" horiz-adv-x="933" unicode="є"/><glyph d="M406 606l190 -76q84 -33 140.5 -100.5t56.5 -157.5q0 -141 -106.5 -219t-258.5 -78q-121 0 -214 18.5t-124 37.5l-33 18l88 125q98 -68 289 -68q80 0 138.5 39t58.5 117q0 98 -146 156l-188 76q-84 33 -137.5 95t-53.5 148q0 131 104.5 207t260.5 76q80 0 155.5 -18.5 t110.5 -38.5l35 -19l-94 -121q-78 66 -205 66q-205 0 -205 -144q1 -84 138 -139z" glyph-name="afii10102" horiz-adv-x="858" unicode="ѕ"/><glyph d="M168 0v995h168v-995h-168zM254 1200q-49 0 -83 31t-34 78q0 49 34 78.5t83 29.5t83 -29.5t34 -78.5q0 -47 -34 -78t-83 -31z" glyph-name="afii10103" horiz-adv-x="503" unicode="і"/><glyph d="M168 0v995h168v-995h-168zM55 1202q-45 0 -73.5 30t-28.5 73t28.5 72.5t73.5 29.5q43 0 72 -29.5t29 -72.5t-29 -73t-72 -30zM449 1202q-43 0 -72 30t-29 73t29 72.5t72 29.5q45 0 73.5 -29.5t28.5 -72.5t-28.5 -73t-73.5 -30z" glyph-name="afii10104" horiz-adv-x="503" unicode="ї"/><glyph d="M166 -18v1013h168v-1013q0 -96 -27.5 -197.5t-83.5 -149.5l-137 84q37 33 58.5 116.5t21.5 146.5zM252 1417q49 0 82 -29.5t33 -78.5q0 -47 -33 -78t-82 -31t-83 31t-34 78q0 49 34 78.5t83 29.5z" glyph-name="afii10105" horiz-adv-x="505" unicode="ј"/><glyph d="M893 135h113q250 0 249 182q0 94 -60 137.5t-189 43.5h-113v-363zM893 629h131q184 0 289.5 -77t105.5 -235q0 -160 -105.5 -238.5t-289.5 -78.5h-301v858h-281q-4 -41 -10 -136t-10 -150.5t-13.5 -137.5t-21.5 -151q-51 -307 -272 -308q-47 0 -90 17l30 155q18 -8 45 -8 q109 0 142 211q35 231 53 645h598v-366z" glyph-name="afii10106" horiz-adv-x="1505" unicode="љ"/><glyph d="M940 135h115q248 0 248 182q0 94 -60.5 137.5t-187.5 43.5h-115v-363zM940 629h131q184 0 290.5 -78t106.5 -234q0 -160 -105.5 -238.5t-291.5 -78.5h-299v442h-436v-442h-168v995h168v-403h436v403h168v-366z" glyph-name="afii10107" horiz-adv-x="1552" unicode="њ"/><glyph d="M336 1169v-395q162 166 326 166q303 0 303 -389v-551h-168v528q0 141 -45 203t-144 62q-74 0 -132 -35t-140 -117v-641h-168v1169h-152v99h152v143l168 47v-190h373v-99h-373z" glyph-name="afii10108" horiz-adv-x="1114" unicode="ћ"/><glyph d="M655 524l338 -524h-184l-277 449h-196v-449h-168v995h168v-409h192l99 221q53 123 113.5 168t148.5 45q31 0 57 -10l-28 -158q-10 4 -33 4q-43 0 -77 -27.5t-69 -107.5zM539 1176l-86 84l288 342l119 -113z" glyph-name="afii10109" horiz-adv-x="1019" unicode="ќ"/><glyph d="M168 0v995h164v-741h8l491 741h158v-995h-164v750h-8l-493 -750h-156zM612 1176l-321 313l119 113l288 -342z" glyph-name="uni045D" horiz-adv-x="1157" unicode="ѝ"/><glyph d="M184 -428q-94 0 -164 39l80 115q33 -14 76 -15q154 0 225 213l23 74l-399 997h174l202 -551q61 -176 97 -280h8q18 53 49 160.5t35 119.5l178 551h164l-375 -1077q-61 -166 -146.5 -256t-226.5 -90zM496 1171q-158 0 -237 90.5t-85 223.5h139q12 -215 182.5 -215 t182.5 215h139q-8 -135 -84.5 -224.5t-236.5 -89.5z" glyph-name="afii10110" horiz-adv-x="956" unicode="ў"/><glyph d="M975 995v-995h-316v-352h-167v352h-324v995h168v-858h471v858h168z" glyph-name="afii10193" horiz-adv-x="1142" unicode="џ"/><glyph d="M512 135h152q174 0 254.5 61.5t80.5 200.5q0 125 -84 180.5t-266 55.5h-137v-498zM512 760h160q496 0 495 -354q0 -406 -483 -406h-344v1038h-283v140h283v206l172 50v-256h479v-140h-479v-278z" glyph-name="afii10146" horiz-adv-x="1257" unicode="Ѣ"/><glyph d="M365 0v899h-312v137h312v199l167 39v-238h386v-137h-386v-270h166q184 0 290 -78t106 -234q0 -160 -104.5 -238.5t-291.5 -78.5h-333zM532 135h148q250 0 250 182q0 94 -60.5 137.5t-189.5 43.5h-148v-363z" glyph-name="afii10194" horiz-adv-x="1179" unicode="ѣ"/><glyph d="M1085 637h-811q10 -250 118 -384t288 -134t287.5 134t117.5 384zM279 776h802q-20 215 -125.5 332t-275.5 117t-275.5 -117t-125.5 -332zM680 1368q260 0 417.5 -182t157.5 -508q0 -330 -158.5 -516.5t-416.5 -186.5t-416 186.5t-158 516.5q0 328 157 509t417 181z" glyph-name="afii10147" horiz-adv-x="1359" unicode="Ѳ"/><glyph d="M856 457h-600q10 -164 90 -256t209 -92t210 92t91 256zM258 578h596q-18 147 -98 229t-201 82q-119 0 -199 -83t-98 -228zM555 1020q197 0 329 -138.5t132 -386t-132 -384t-329 -136.5t-329 136.5t-132 384t132 386t329 138.5z" glyph-name="afii10195" horiz-adv-x="1110" unicode="ѳ"/><glyph d="M430 0l-430 1343h182l346 -1148h9l247 888q43 154 101.5 219.5t165.5 65.5q55 0 98 -18l-35 -158q-29 12 -53 12q-43 0 -69.5 -35.5t-51.5 -115.5l-301 -1053h-209z" glyph-name="afii10148" horiz-adv-x="1083" unicode="Ѵ"/><glyph d="M383 0l-358 995h174l282 -833h8l177 571q43 154 99 220.5t157 66.5q55 0 98 -19l-33 -151q-20 12 -51 12q-43 0 -69.5 -34.5t-53.5 -114.5l-223 -713h-207z" glyph-name="afii10196" horiz-adv-x="976" unicode="ѵ"/><glyph d="M801 1696h157v-496h-604v-1200h-170v1343h617v353z" glyph-name="afii10050" horiz-adv-x="1019" unicode="Ґ"/><glyph d="M647 1348h154l-2 -490h-463v-858h-168v995h479v353z" glyph-name="afii10098" horiz-adv-x="851" unicode="ґ"/><glyph d="M1004 1200h-605v-475h306v-96h-306v-629h-170v629h-161v96h161v618h775v-143z" glyph-name="uni0492" horiz-adv-x="1067" unicode="Ғ"/><glyph d="M817 858h-452v-326h272v-96h-272v-436h-168v436h-136v96h136v463h620v-137z" glyph-name="uni0493" horiz-adv-x="868" unicode="ғ"/><glyph d="M1552 145h129v-530h-168v385h-65l-348 637h-195v-637h-162v637h-194l-348 -637h-189l410 717l-141 317q-51 104 -88 137t-89 33q-27 0 -49 -8l-28 160q35 12 73 12q96 0 165 -52t138 -198l158 -342h182v567h162v-567h180l160 342q70 145 138.5 197.5t164.5 52.5 q41 0 74 -12l-29 -160q-25 8 -49 8q-51 0 -88 -32.5t-88 -137.5l-141 -317z" glyph-name="uni0496" horiz-adv-x="1734" unicode="Җ"/><glyph d="M1286 137h146v-489h-162v352h-84l-250 449h-164v-449h-149v449h-164l-250 -449h-182l313 524l-80 197q-33 80 -65.5 107.5t-77.5 27.5q-23 0 -33 -4l-31 158q31 10 60 10q86 0 148.5 -47t113.5 -166l94 -221h154v409h149v-409h154l94 221q51 119 113.5 166t148.5 47 q31 0 57 -10l-28 -158q-10 4 -33 4q-45 0 -79 -27.5t-66 -107.5l-78 -197z" glyph-name="uni0497" horiz-adv-x="1470" unicode="җ"/><glyph d="M782 721v-8q121 -25 196 -111t75 -221q0 -168 -109.5 -273.5t-284.5 -125.5v-367h-165v365q-246 23 -408 192l96 117q86 -88 176.5 -126t208.5 -38q135 0 226.5 70.5t91.5 193.5q0 252 -363 252h-151v131h110q176 0 255 57.5t79 174.5q0 102 -72.5 158.5t-189.5 56.5 q-180 0 -315 -125l-93 114q160 160 412 160q193 0 309.5 -92t116.5 -252q0 -109 -52.5 -188.5t-148.5 -114.5z" glyph-name="uni0498" horiz-adv-x="1134" unicode="Ҙ"/><glyph d="M647 530v-8q207 -55 207 -248q0 -115 -89 -193.5t-226 -98.5v-334h-166v332q-168 16 -297 122l71 109q123 -100 291 -100q106 0 177 49t71 129q0 168 -254 168h-137v121h113q240 0 239 157q0 74 -56 113t-151 39q-147 0 -270 -88l-72 110q158 111 351 111 q156 0 259 -68.5t103 -199.5q0 -74 -43 -132.5t-121 -89.5z" glyph-name="uni0499" horiz-adv-x="933" unicode="ҙ"/><glyph d="M1090 145h143v-530h-168v385h-68l-413 637h-230v-637h-170v1343h170v-567h232l188 342q84 150 146.5 200t156.5 50q41 0 74 -12l-29 -160q-23 8 -49 8q-47 0 -82 -32.5t-92 -137.5l-178 -317z" glyph-name="uni049A" horiz-adv-x="1286" unicode="Қ"/><glyph d="M905 137h154l-2 -489h-160v352h-88l-277 449h-196v-449h-168v995h168v-409h192l99 221q53 123 113.5 168t148.5 45q31 0 57 -10l-28 -158q-10 4 -33 4q-43 0 -77 -27.5t-69 -107.5l-84 -197z" glyph-name="uni049B" horiz-adv-x="1097" unicode="қ"/><glyph d="M1001 717l461 -717h-184l-414 637h-229v-637h-172v1200h-406v143h578v-567h231l189 342q80 150 144.5 200t158.5 50q39 0 74 -12l-29 -160q-25 8 -49 8q-47 0 -83 -32.5t-93 -137.5z" glyph-name="uni04A0" horiz-adv-x="1466" unicode="Ҡ"/><glyph d="M893 522l338 -522h-187l-276 449h-195v-449h-167v858h-353v137h520v-409h193l98 221q53 123 113.5 168t146.5 45q29 0 60 -10l-31 -158q-10 4 -33 4q-86 0 -143 -135z" glyph-name="uni04A1" horiz-adv-x="1257" unicode="ҡ"/><glyph d="M1151 145h149l-2 -530h-165v385h-154v633h-625v-633h-170v1343h170v-563h625v563h172v-1198z" glyph-name="uni04A2" horiz-adv-x="1353" unicode="Ң"/><glyph d="M985 137h143v-489h-163v352h-148v442h-479v-442h-168v995h168v-403h479v403h168v-858z" glyph-name="uni04A3" horiz-adv-x="1167" unicode="ң"/><glyph d="M1044 248l86 -123q-162 -127 -364 -148v-362h-166v367q-221 33 -357.5 216t-136.5 474q0 317 167 506.5t429 189.5q121 0 236 -42t192 -112l-86 -120q-68 55 -160.5 90t-178.5 35q-193 0 -307.5 -146.5t-114.5 -396.5q0 -252 112.5 -401.5t302.5 -149.5q192 0 346 123z " glyph-name="uni04AA" horiz-adv-x="1183" unicode="Ҫ"/><glyph d="M954 121q-104 -113 -313 -141v-332h-166v334q-172 29 -276.5 164t-104.5 350q0 242 139.5 383t339.5 141q219 0 381 -148l-84 -114q-129 123 -290 123q-135 0 -223.5 -107.5t-88.5 -277.5t85 -275.5t222 -105.5q186 0 297 121z" glyph-name="uni04AB" horiz-adv-x="999" unicode="ҫ"/><glyph d="M401 0v520l-403 823h182l303 -671h9l307 671h178l-404 -823v-520h-172z" glyph-name="uni04AE" horiz-adv-x="974" unicode="Ү"/><glyph d="M399 -420v420l-374 995h174l280 -800h8l279 800h166l-365 -995v-420h-168z" glyph-name="uni04AF" horiz-adv-x="956" unicode="ү"/><glyph d="M977 1343l-367 -749h248v-96h-285v-498h-172v498h-284v96h248l-367 749h182l303 -671h9l307 671h178z" glyph-name="uni04B0" horiz-adv-x="974" unicode="Ұ"/><glyph d="M932 995l-330 -899h256v-96h-291v-420h-168v420h-303v96h266l-337 899h174l280 -831h8l279 831h166z" glyph-name="uni04B1" horiz-adv-x="956" unicode="ұ"/><glyph d="M938 145h139l-2 -530h-164v385h-80l-303 578h-8l-309 -578h-180l391 694l-365 649h189l274 -538h8l287 538h180l-366 -657z" glyph-name="uni04B2" horiz-adv-x="1128" unicode="Ҳ"/><glyph d="M797 137h149l-2 -489h-158v352h-84l-249 410h-9l-239 -410h-176l321 516l-297 479h183l217 -385h8l225 385h176l-301 -481z" glyph-name="uni04B3" horiz-adv-x="987" unicode="ҳ"/><glyph d="M1040 145h150l-2 -530h-162v385h-156v602q-94 -20 -245 -20q-238 0 -363 102t-125 336v323h168v-323q0 -164 82 -230.5t254 -66.5q150 0 229 20v600h170v-1198z" glyph-name="uni04B6" horiz-adv-x="1243" unicode="Ҷ"/><glyph d="M881 137h145v-489h-162v352h-151v397q-86 -20 -195 -20q-197 0 -297 83t-100 263v272h168v-272q0 -111 62.5 -160t199.5 -49q88 0 162 18v463h168v-858z" glyph-name="uni04B7" horiz-adv-x="1064" unicode="ҷ"/><glyph d="M184 0v1309l170 34v-528q131 20 244 21q240 0 364.5 -102.5t124.5 -336.5v-397h-167v397q0 164 -83 230.5t-255 66.5q-117 0 -228 -20v-674h-170z" glyph-name="uni04BA" horiz-adv-x="1224" unicode="Һ"/><glyph d="M168 0v1354l168 45v-543q160 164 326 164q303 0 303 -389v-631h-168v608q0 141 -45 203.5t-144 62.5q-74 0 -131 -34.5t-141 -118.5v-721h-168z" glyph-name="uni04BB" horiz-adv-x="1114" unicode="һ"/><glyph d="M184 0v1343h170v-1343h-170z" glyph-name="uni04C0" horiz-adv-x="538" unicode="Ӏ"/><glyph d="M1227 717l407 -717h-186l-348 637h-195v-637h-162v637h-194l-348 -637h-189l410 717l-141 317q-51 104 -88 137t-89 33q-27 0 -49 -8l-28 160q35 12 73 12q96 0 165 -52t138 -198l158 -342h182v567h162v-567h180l160 342q70 145 138.5 197.5t164.5 52.5q41 0 74 -12 l-29 -160q-25 8 -49 8q-51 0 -88 -32.5t-88 -137.5zM821 1444q-158 0 -230.5 76.5t-78.5 193.5h147q2 -78 41 -127t121 -49q152 0 162 176h147q-20 -270 -309 -270z" glyph-name="uni04C1" horiz-adv-x="1648" unicode="Ӂ"/><glyph d="M1055 524l313 -524h-182l-250 449h-164v-449h-149v449h-164l-250 -449h-182l313 524l-80 197q-33 80 -65.5 107.5t-77.5 27.5q-23 0 -33 -4l-31 158q31 10 60 10q86 0 148.5 -47t113.5 -166l94 -221h154v409h149v-409h154l94 221q51 119 113.5 166t148.5 47q31 0 57 -10 l-28 -158q-10 4 -33 4q-45 0 -79 -27.5t-66 -107.5zM698 1171q-158 0 -236.5 90.5t-84.5 223.5h139q12 -215 182 -215t183 215h139q-8 -135 -85 -224.5t-237 -89.5z" glyph-name="uni04C2" horiz-adv-x="1394" unicode="ӂ"/><glyph d="M336 0h-168v1352l168 45v-1397z" glyph-name="uni04CF" horiz-adv-x="522" unicode="ӏ"/><glyph d="M352 547h404l-199 602h-8zM926 0l-127 410h-490l-129 -410h-174l455 1343h192l455 -1343h-182zM557 1444q-158 0 -230.5 76.5t-78.5 193.5h147q2 -78 41 -127t121 -49q152 0 162 176h147q-20 -270 -309 -270z" glyph-name="uni04D0" horiz-adv-x="1114" unicode="Ӑ"/><glyph d="M1008 152v-129q-35 -23 -117 -23q-59 0 -101 29.5t-55 60.5l-12 29h-6q-76 -63 -154 -101q-84 -43 -176 -43q-125 0 -208 78t-83 205q0 324 611 324v28q0 143 -53.5 207t-166.5 64q-76 0 -147.5 -21.5t-103.5 -44.5l-33 -20l-94 127q18 10 52 27.5t133 45t195 27.5 q387 0 388 -412v-377q0 -57 13 -77.5t48 -20.5q41 1 70 17zM707 236v237q-446 0 -447 -203q0 -74 48 -116.5t128 -42.5q115 0 271 125zM537 1171q-158 0 -237 90.5t-85 223.5h139q12 -215 182.5 -215t182.5 215h139q-8 -135 -84.5 -224.5t-236.5 -89.5z" glyph-name="uni04D1" horiz-adv-x="1032" unicode="ӑ"/><glyph d="M469 528h352v680h-8zM993 145h590v-145h-762v391h-422l-202 -391h-181l705 1343h842l-27 -143h-543v-422h385v-145h-385v-488z" glyph-name="uni04D4" horiz-adv-x="1683" unicode="Ӕ"/><glyph d="M836 143q-6 -6 -16.5 -17t-48.5 -41t-83 -51.5t-119.5 -40t-156.5 -18.5q-125 0 -208 77t-83 204q0 324 610 324v28q0 143 -53 207t-166 64q-76 0 -147.5 -21.5t-106.5 -42.5l-33 -20l-92 125q18 10 52 27.5t133.5 45t195.5 27.5q240 0 332 -158q129 158 354 158 q207 0 310.5 -130t103.5 -372v-59h-707q0 -154 86 -249t217 -95q182 0 295 112l107 -106q-158 -145 -402 -146q-242 0 -370 168h-4zM461 109q90 0 181 40.5t134 102.5q-37 90 -43 205l-2 4q-446 0 -446 -193q0 -74 48 -116.5t128 -42.5zM911 575h539q0 305 -250 306 q-131 0 -210 -86.5t-79 -219.5z" glyph-name="uni04D5" horiz-adv-x="1607" unicode="ӕ"/><glyph d="M184 0v1343h774l-20 -143h-584v-422h398v-145h-398v-488h625v-145h-795zM582 1444q-158 0 -230.5 76.5t-79.5 193.5h148q2 -78 41 -127t121 -49q152 0 161 176h148q-20 -270 -309 -270z" glyph-name="uni04D6" horiz-adv-x="1079" unicode="Ӗ"/><glyph d="M872 225l105 -104q-152 -145 -402 -146q-215 0 -347 138.5t-132 382.5q0 246 127 385t336 139q203 0 311.5 -132t108.5 -370v-59h-707q0 -154 86 -249t217 -95q180 -1 297 110zM276 575h539q0 139 -65.5 222.5t-190.5 83.5q-131 0 -207 -86.5t-76 -219.5zM543 1171 q-158 0 -237 90.5t-85 223.5h139q12 -215 182.5 -215t182.5 215h139q-8 -135 -84.5 -224.5t-236.5 -89.5z" glyph-name="uni04D7" horiz-adv-x="1015" unicode="ӗ"/><glyph d="M1069 586h-776q10 -221 110.5 -345t266.5 -124q174 0 278.5 121t120.5 348zM338 1094l-84 116q164 158 424 158q266 0 414.5 -179t148.5 -513q0 -332 -152.5 -516.5t-418.5 -184.5q-256 0 -403.5 186.5t-147.5 504.5q0 14 4 51h950q-8 248 -111.5 379t-295.5 131 q-195 0 -328 -133z" glyph-name="uni04D8" horiz-adv-x="1347" unicode="Ә"/><glyph d="M174 770l-104 104q152 145 401 146q215 0 347 -138.5t132 -381.5q0 -246 -127 -385.5t-336 -139.5q-203 0 -311 132.5t-108 369.5v60h706q0 154 -86 249t-217 95q-180 0 -297 -111zM770 420h-539q0 -139 65.5 -222t190.5 -83q131 0 207 86t76 219z" glyph-name="afii10846" horiz-adv-x="1015" unicode="ә"/><glyph d="M184 0v1343h168v-1071h8l619 1071h180v-1343h-168v1049h-8l-618 -1049h-181zM406 1513v117h548v-117h-548z" glyph-name="uni04E2" horiz-adv-x="1343" unicode="Ӣ"/><glyph d="M168 0v995h164v-741h8l491 741h158v-995h-164v750h-8l-493 -750h-156zM309 1233v117h545v-117h-545z" glyph-name="uni04E3" horiz-adv-x="1157" unicode="ӣ"/><glyph d="M680 -25q-256 0 -415 190.5t-159 512.5q0 319 158 504.5t416 185.5q256 0 415.5 -187.5t159.5 -502.5q0 -322 -159.5 -512.5t-415.5 -190.5zM680 125q178 0 287.5 150.5t109.5 402.5q0 248 -108.5 394.5t-288.5 146.5t-288.5 -146.5t-108.5 -394.5q0 -252 109.5 -402.5 t287.5 -150.5zM469 1464q-43 0 -71.5 29t-28.5 72q0 45 28.5 72.5t71.5 27.5q45 0 72.5 -27.5t27.5 -72.5q0 -43 -27.5 -72t-72.5 -29zM891 1464q-45 0 -72.5 29t-27.5 72q0 45 27.5 72.5t72.5 27.5q43 0 71.5 -27.5t28.5 -72.5q0 -43 -28.5 -72t-71.5 -29z" glyph-name="uni04E6" horiz-adv-x="1359" unicode="Ӧ"/><glyph d="M555 -25q-193 0 -327 141.5t-134 379.5q0 242 134 383t327 141t327 -141.5t134 -382.5q0 -238 -134 -379.5t-327 -141.5zM555 115q129 0 208 105.5t79 275.5q0 172 -79 278.5t-208 106.5t-208 -106.5t-79 -278.5q0 -170 79 -275.5t208 -105.5zM358 1202q-45 0 -73.5 30 t-28.5 73t28.5 72.5t73.5 29.5q43 0 72 -29.5t29 -72.5t-29 -73t-72 -30zM752 1202q-43 0 -72 30t-29 73t29 72.5t72 29.5q45 0 73.5 -29.5t28.5 -72.5t-28.5 -73t-73.5 -30z" glyph-name="uni04E7" horiz-adv-x="1110" unicode="ӧ"/><glyph d="M1085 637h-811q10 -250 118 -384t288 -134t287.5 134t117.5 384zM279 776h802q-20 215 -125.5 332t-275.5 117t-275.5 -117t-125.5 -332zM680 1368q260 0 417.5 -182t157.5 -508q0 -330 -158.5 -516.5t-416.5 -186.5t-416 186.5t-158 516.5q0 328 157 509t417 181z" glyph-name="uni04E8" horiz-adv-x="1359" unicode="Ө"/><glyph d="M856 457h-600q10 -164 90 -256t209 -92t210 92t91 256zM258 578h596q-18 147 -98 229t-201 82q-119 0 -199 -83t-98 -228zM555 1020q197 0 329 -138.5t132 -386t-132 -384t-329 -136.5t-329 136.5t-132 384t132 386t329 138.5z" glyph-name="uni04E9" horiz-adv-x="1110" unicode="ө"/><glyph d="M279 -25q-78 0 -134 21l35 154q39 -14 86 -15q119 0 174 109l29 71l-459 1028h183l352 -839h8l326 839h174l-441 -1099q-53 -133 -131.5 -201t-201.5 -68zM242 1505v117h549v-117h-549z" glyph-name="uni04EE" horiz-adv-x="1052" unicode="Ӯ"/><glyph d="M184 -428q-94 0 -164 39l80 115q33 -14 76 -15q154 0 225 213l23 74l-399 997h174l202 -551q61 -176 97 -280h8q18 53 49 160.5t35 119.5l178 551h164l-375 -1077q-61 -166 -146.5 -256t-226.5 -90zM223 1231v117h545v-117h-545z" glyph-name="uni04EF" horiz-adv-x="956" unicode="ӯ"/><glyph d="M279 -25q-78 0 -134 21l35 154q39 -14 86 -15q119 0 174 109l29 71l-459 1028h183l352 -839h8l326 839h174l-441 -1099q-53 -133 -131.5 -201t-201.5 -68zM307 1483l189 311l114 -65l-215 -289zM635 1483l188 311l115 -65l-215 -289z" glyph-name="uni04F2" horiz-adv-x="1052" unicode="Ӳ"/><glyph d="M184 -428q-94 0 -164 39l80 115q33 -14 76 -15q154 0 225 213l23 74l-399 997h174l202 -551q61 -176 97 -280h8q18 53 49 160.5t35 119.5l178 551h164l-375 -1077q-61 -166 -146.5 -256t-226.5 -90zM391 1163l-92 43l176 353l121 -58zM700 1163l-94 43l178 353l119 -58z " glyph-name="uni04F3" horiz-adv-x="956" unicode="ӳ"/><glyph d="M696 909v-86q-23 -14 -75 -14q-41 0 -74 19.5t-45 39.5l-13 19h-4q-37 -41 -97 -67.5t-120 -26.5q-82 0 -137 51t-55 135q0 215 407 215v18q0 178 -149 179q-49 0 -96.5 -14.5t-69.5 -28.5l-23 -15l-61 84q109 66 252 66q133 0 203.5 -71t70.5 -200v-249q0 -37 9.5 -50.5 t31.5 -13.5q25 0 45 10zM483 971v139q-283 0 -282 -123q0 -94 98 -94q88 0 184 78z" glyph-name="uni1D43" horiz-adv-x="722" unicode="ᵃ"/><glyph d="M412 793q-104 0 -187 81h-8v-65h-111v932l127 26v-376q100 92 199 92q127 0 196.5 -89t69.5 -245q0 -162 -83.5 -259t-202.5 -97zM393 897q76 0 125 66.5t49 185.5q0 229 -166 229q-80 0 -168 -88v-329q74 -64 160 -64z" glyph-name="uni1D47" horiz-adv-x="765" unicode="ᵇ"/><glyph d="M348 793q-131 0 -205.5 93t-74.5 263q0 147 85 240.5t201 93.5q104 0 178 -74v330l127 28v-958h-116v72h-6q-99 -88 -189 -88zM377 897q72 0 155 84v332q-78 66 -157 65q-74 0 -125 -63.5t-51 -165.5q0 -252 178 -252z" glyph-name="uni1D48" horiz-adv-x="765" unicode="ᵈ"/><glyph d="M381 793q-139 0 -231.5 91t-92.5 253q0 156 89.5 251t218.5 95q139 0 204.5 -92.5t65.5 -210.5v-72h-453q6 -102 63.5 -158.5t149.5 -56.5q106 0 168 68l68 -82q-92 -86 -250 -86zM180 1184h342q0 199 -157 198q-76 0 -124.5 -50t-60.5 -148z" glyph-name="uni1D49" horiz-adv-x="688" unicode="ᵉ"/><glyph d="M313 793q-223 0 -223 151q0 72 74 119v8q-88 66 -88 176q0 106 74.5 171t183.5 65q59 0 104 -19h242l-21 -98h-122q47 -47 47 -123q0 -104 -71 -166.5t-179 -62.5q-57 0 -98 20q-39 -29 -39 -69q0 -66 114 -66h127q123 0 179.5 -38t56.5 -124q0 -96 -94.5 -162.5 t-249.5 -66.5q-127 0 -206 46t-79 130q0 33 16 66h107q-14 -20 -14 -48q0 -49 54 -77.5t142 -28.5t144.5 37t56.5 86q0 74 -129 74h-109zM334 1391q-61 0 -99 -38t-38 -105.5t37.5 -107.5t99.5 -40q57 0 96 41t39 106.5t-39 104.5t-96 39z" glyph-name="uni1D4D" horiz-adv-x="702" unicode="ᵍ"/><glyph d="M106 809v926l127 32v-628h9l268 327h141l-229 -268l258 -389h-141l-191 303l-115 -137v-166h-127z" glyph-name="uni1D4F" horiz-adv-x="690" unicode="ᵏ"/><glyph d="M106 809v657h113v-92h8q100 109 207 109q139 0 184 -123q119 123 222 123q207 0 207 -258v-416h-127v397q0 84 -27 126t-94 42q-70 0 -160 -96v-469h-127v397q0 84 -26.5 126t-94 42t-158.5 -96v-469h-127z" glyph-name="uni1D50" horiz-adv-x="1144" unicode="ᵐ"/><glyph d="M373 793q-133 0 -222.5 93t-89.5 251q0 160 89.5 253t222.5 93t222 -93.5t89 -252.5q0 -158 -89 -251t-222 -93zM373 897q84 0 132 65.5t48 174.5q0 113 -47 177t-133 64t-134.5 -65.5t-48.5 -175.5q0 -109 49.5 -174.5t133.5 -65.5z" glyph-name="uni1D52" horiz-adv-x="747" unicode="ᵒ"/><glyph d="M106 526v940h115v-75h6q104 92 205 92q127 0 196.5 -89t69.5 -245q0 -162 -84 -259t-202 -97q-113 0 -179 75v-342h-127zM393 897q76 0 125 66.5t49 185.5q0 229 -166 229q-80 0 -168 -88v-329q74 -64 160 -64z" glyph-name="uni1D56" horiz-adv-x="765" unicode="ᵖ"/><glyph d="M328 793q-197 0 -197 229v342h-98v102h102v162l123 25v-187h180v-102h-180v-342q0 -127 100 -127q39 0 76 16v-100q-43 -18 -106 -18z" glyph-name="uni1D57" horiz-adv-x="475" unicode="ᵗ"/><glyph d="M313 793q-211 0 -211 256v417h127v-399q0 -86 26 -126t99 -40q82 0 172 96v469h127v-657h-114v92h-7q-100 -108 -219 -108z" glyph-name="uni1D58" horiz-adv-x="757" unicode="ᵘ"/><glyph d="M254 809l-238 657h127l183 -536h8l182 536h125l-238 -657h-149z" glyph-name="uni1D5B" horiz-adv-x="657" unicode="ᵛ"/></font>
</defs>
</svg>
