<?xml version="1.0" standalone="no"?>
<!DOCTYPE svg PUBLIC "-//W3C//DTD SVG 1.1//EN" "http://www.w3.org/Graphics/SVG/1.1/DTD/svg11.dtd">
<svg xmlns="http://www.w3.org/2000/svg"><metadata>This SVG WebFont was generated by YouWorkForThem.
Copyright (c) 2016 by JC Design / Jan-Christian Bruun. All rights reserved.</metadata><defs><font horiz-adv-x="0" id="ywftsvg"><font-face ascent="1536" bbox="-436 -594 2329 2023" cap-height="1339" descent="-512" font-family="" font-stretch="normal" font-weight="600" panose-1="2 11 6 3 3 4 3 9 2 4" underline-position="0" underline-thickness="0" unicode-range="U+000D-FEFF" units-per-em="2048" x-height="1006"/><missing-glyph d="M66 0l266 1352h985l-266 -1352h-985zM717 811h8l131 195l137 198h-389l60 -198zM377 147h420l-68 226l-51 202h-8l-133 -202zM279 258l307 438l-133 439zM942 258l180 877l-311 -439z" horiz-adv-x="1323"/><glyph d="M1440 1403l-72 -158q-57 31 -104 31q-123 0 -156 -166l-21 -104h189l-35 -175h-188l-168 -831h-219l168 831h-367l-166 -831h-219l168 831h-131l35 175h129l20 96q35 162 125 255t238 93q104 0 206 -49l-73 -158q-66 31 -113 31q-131 0 -164 -166l-20 -102h366l21 98 q33 162 121 255t233 93q105 0 197 -49z" glyph-name="uniFB00" horiz-adv-x="1206" unicode="ff"/><glyph d="M999 831l-102 -499q-6 -37 -6 -72q0 -111 117 -110q63 0 118 26l-41 -178q-59 -23 -155 -23q-135 0 -198.5 67t-63.5 179q0 57 12 119l102 491h-315l-166 -831h-219l166 831h-129l35 175h129l24 116q33 162 121 255t234 93q104 0 198 -49l-74 -157q-53 31 -104 30 q-123 0 -156 -166l-24 -122h317l45 182l236 88l-62 -270h242l-35 -175h-246z" glyph-name="f_t.liga" horiz-adv-x="1241" unicode="ft"/><glyph d="M66 0l266 1352h985l-266 -1352h-985zM717 811h8l131 195l137 198h-389l60 -198zM377 147h420l-68 226l-51 202h-8l-133 -202zM279 258l307 438l-133 439zM942 258l180 877l-311 -439z" glyph-name=".notdef" horiz-adv-x="1323"/><glyph glyph-name="glyph1"/><glyph glyph-name="glyph2" horiz-adv-x="681"/><glyph glyph-name="glyph3"/><glyph glyph-name="glyph3"/><glyph glyph-name="space" horiz-adv-x="399" unicode=" "/><glyph d="M223 434l115 715l35 225h219l-49 -225l-172 -715h-148zM213 -25q-55 0 -89 36t-34 91q0 68 49 122.5t121 54.5q55 0 88 -37t33 -92q0 -70 -48 -122.5t-120 -52.5z" glyph-name="exclam" horiz-adv-x="628" unicode="!"/><glyph d="M254 807l45 342l35 225h217l-49 -225l-101 -342h-147zM649 807l45 342l35 225h217l-49 -225l-100 -342h-148z" glyph-name="quotedbl" horiz-adv-x="942" unicode="&quot;"/><glyph d="M74 0l127 401h-158l35 150h168l84 270h-160l37 150h170l115 360h137l-115 -360h229l115 360h137l-114 -360h157l-37 -150h-167l-84 -270h159l-35 -150h-172l-127 -401h-135l127 401h-231l-127 -401h-135zM383 551h231l84 270h-231z" glyph-name="numbersign" horiz-adv-x="1009" unicode="#"/><glyph d="M985 1223l-141 -148q-100 86 -217 86q-86 0 -137.5 -48t-51.5 -126q0 -61 44 -114.5t106.5 -98.5t124 -95t105.5 -127t44 -171q0 -164 -105.5 -275.5t-281.5 -128.5l-41 -202h-151l43 211q-190 35 -303 141l137 137q106 -111 270 -110q98 0 156.5 53t58.5 143 q0 72 -44 133.5t-105.5 107.5t-124 94t-106.5 118.5t-44 157.5q0 156 102.5 260t268.5 116l39 203h151l-41 -215q144 -26 244 -102z" glyph-name="dollar" horiz-adv-x="1011" unicode="$"/><glyph d="M385 528q-119 0 -193.5 89.5t-74.5 230.5q0 213 105.5 371.5t277.5 158.5q119 0 193.5 -88t74.5 -229q0 -215 -105.5 -374t-277.5 -159zM397 664q92 0 150.5 116.5t58.5 272.5q0 190 -119 190q-92 0 -150 -116.5t-58 -272.5q-1 -190 118 -190zM283 -25l981 1401h135 l-981 -1401h-135zM1200 -25q-119 0 -193.5 89.5t-74.5 230.5q0 213 105.5 371.5t277.5 158.5q119 0 193.5 -88t74.5 -229q0 -215 -105.5 -374t-277.5 -159zM1212 111q92 0 150.5 116.5t58.5 272.5q0 190 -118 190q-92 0 -150.5 -116.5t-58.5 -272.5q-1 -190 118 -190z" glyph-name="percent" horiz-adv-x="1658" unicode="%"/><glyph d="M244 324q0 -80 50 -130.5t136 -50.5q117 0 236 82q-156 166 -248 353q-174 -125 -174 -254zM502 975q0 -74 20 -141q119 66 183.5 131t64.5 153q0 43 -22.5 69.5t-65.5 26.5q-76 0 -128 -66.5t-52 -172.5zM1063 737l141 -96q-115 -217 -266 -389q94 -68 203 -102 l-88 -175q-129 33 -265 138q-182 -137 -399 -138q-166 0 -262 88.5t-96 235.5q0 150 86 251t237 189q-39 127 -39 228q0 166 112 281.5t269 115.5q121 0 184.5 -65.5t63.5 -178.5q0 -74 -28.5 -138t-88 -119.5t-111.5 -93.5t-136 -87q86 -174 233 -322q96 105 250 377z" glyph-name="ampersand" horiz-adv-x="1245" unicode="&amp;"/><glyph d="M254 807l45 342l35 225h217l-49 -225l-101 -342h-147z" glyph-name="quotesingle" horiz-adv-x="546" unicode="'"/><glyph d="M385 -307l-143 -58q-119 326 -119 635q0 342 118.5 633t360.5 596l129 -67q-428 -559 -428 -1180q0 -350 82 -559z" glyph-name="parenleft" horiz-adv-x="634" unicode="("/><glyph d="M49 -365l-127 70q426 553 426 1180q0 340 -80 559l142 55q119 -311 118 -633q0 -344 -118.5 -634t-360.5 -597z" glyph-name="parenright" horiz-adv-x="638" unicode=")"/><glyph d="M356 817l-86 80l148 193l-187 106l52 107l209 -68l59 225l119 -8l-17 -231l221 28l19 -114l-219 -72l78 -209l-107 -61l-117 186z" glyph-name="asterisk" horiz-adv-x="862" unicode="*"/><glyph d="M446 203v395h-348v158h353v389h163v-389h353v-158h-355v-395h-166z" glyph-name="plus" horiz-adv-x="1011" unicode="+"/><glyph d="M-33 -360l-26 124q207 70 247 232q-61 0 -98 33.5t-37 89.5q0 63 44 111.5t116 48.5q68 0 105.5 -44.5t37.5 -123.5q0 -172 -106.5 -301t-282.5 -170z" glyph-name="comma" horiz-adv-x="546" unicode=","/><glyph d="M70 436l32 162h465l-35 -162h-462z" glyph-name="hyphen" horiz-adv-x="634" unicode="-"/><glyph d="M168 -25q-55 0 -88 36t-33 91q0 68 49 122.5t121 54.5q53 0 86 -36t33 -93q0 -70 -47 -122.5t-121 -52.5z" glyph-name="period" horiz-adv-x="546" unicode="."/><glyph d="M-143 -328l823 1782h151l-827 -1782h-147z" glyph-name="slash" horiz-adv-x="684" unicode="/"/><glyph d="M428 -25q-160 0 -253 122t-93 333q0 389 168 643t389 254q156 0 249 -123t93 -336q0 -387 -165 -640t-388 -253zM440 147q86 0 165 105.5t126 276.5t47 356q0 272 -153 272q-86 0 -165 -106.5t-126 -278.5t-47 -358q-1 -267 153 -267z" glyph-name="zero" horiz-adv-x="1011" unicode="0"/><glyph d="M45 0l37 178h276l187 891l-238 -94l-65 143l397 185h166l-227 -1125h251l-34 -178h-750z" glyph-name="one" horiz-adv-x="1011" unicode="1"/><glyph d="M-25 0l19 94q66 213 262 348q242 170 291 205q193 139 192 320q0 82 -47 133t-137 51q-121 0 -240 -86l-108 149q168 113 375 113q174 0 273 -92t99 -244q0 -203 -170 -379q-88 -92 -272 -211q-184 -123 -242 -215h582l-35 -186h-842z" glyph-name="two" horiz-adv-x="1011" unicode="2"/><glyph d="M567 760q143 -27 232.5 -127.5t89.5 -249.5q0 -188 -137.5 -298t-354.5 -110q-127 0 -237.5 61.5t-184.5 168.5l140 114q117 -166 282 -165q123 0 198 64.5t75 166.5t-83 166.5t-270 64.5l31 172l316 324v8h-437l41 183h680l-47 -195l-334 -340v-8z" glyph-name="three" horiz-adv-x="1011" unicode="3"/><glyph d="M698 0h-202l67 338h-479l-39 151l657 814h256l-159 -793h159l-32 -172h-160zM270 510h326l121 559h-8z" glyph-name="four" horiz-adv-x="1011" unicode="4"/><glyph d="M395 -25q-121 0 -228.5 48.5t-178.5 121.5l141 136q111 -127 272 -127q115 0 198 81.5t83 215.5q0 215 -207 215q-94 0 -205 -64l-86 70l162 631h658l-74 -185h-430l-88 -319q63 33 147 32q152 0 248 -89t96 -255q0 -227 -151.5 -369.5t-356.5 -142.5z" glyph-name="five" horiz-adv-x="1011" unicode="5"/><glyph d="M500 141q96 0 160.5 92.5t64.5 202.5q0 209 -172 209q-100 0 -165.5 -73.5t-78.5 -184.5q-2 -117 47.5 -181.5t143.5 -64.5zM1038 1202l-141 -137q-72 84 -176 84q-135 0 -242.5 -129t-148.5 -354q100 135 278 135q145 0 232.5 -88t87.5 -252q0 -195 -127 -340.5 t-314 -145.5q-176 0 -279.5 125t-103.5 328q0 397 177.5 648t453.5 251q188 0 303 -125z" glyph-name="six" horiz-adv-x="1011" unicode="6"/><glyph d="M453 0h-228q96 377 225.5 638t348.5 480h-588l37 185h835l-26 -140q-272 -254 -399 -524t-205 -639z" glyph-name="seven" horiz-adv-x="1011" unicode="7"/><glyph d="M467 -25q-158 0 -275.5 88.5t-117.5 251.5q0 252 293 373v8q-115 127 -115 267q0 166 116.5 265t286.5 99q137 0 237.5 -79t100.5 -224q0 -236 -241 -360v-9q168 -90 168 -295q0 -172 -133.5 -278.5t-319.5 -106.5zM598 748q66 2 131 61q63 61 74 158q8 92 -36 147 t-128 55q-78 0 -132 -56t-61 -140q-18 -104 28 -164.5t124 -60.5zM473 131q94 0 166 57q76 59 78 181q6 94 -46.5 158.5t-152.5 64.5q-88 0 -162 -74q-76 -76 -84 -162q-12 -225 201 -225z" glyph-name="eight" horiz-adv-x="1011" unicode="8"/><glyph d="M571 1161q-96 0 -160.5 -92t-64.5 -203q0 -209 172 -209q104 0 171 69t73 189q2 117 -47.5 181.5t-143.5 64.5zM33 100l141 138q72 -84 176 -84q133 -4 242.5 128t144.5 341q-88 -121 -274 -121q-145 0 -232.5 88t-87.5 252q0 195 127 340t314 145q176 0 279.5 -125 t103.5 -328q0 -397 -177.5 -648t-453.5 -251q-188 0 -303 125z" glyph-name="nine" horiz-adv-x="1011" unicode="9"/><glyph d="M291 694q-55 0 -88 36t-33 91q0 68 49 122t121 54q53 0 86 -35.5t33 -93.5q0 -70 -47 -122t-121 -52zM168 -25q-55 0 -88 36t-33 91q0 68 49 122.5t121 54.5q53 0 86 -36t33 -93q0 -70 -47 -122.5t-121 -52.5z" glyph-name="colon" horiz-adv-x="546" unicode=":"/><glyph d="M291 694q-55 0 -88 36t-33 91q0 68 49 122t121 54q53 0 86 -35.5t33 -93.5q0 -70 -47 -122t-121 -52zM-33 -360l-26 124q207 70 247 232q-61 0 -98 33.5t-37 89.5q0 63 44 111.5t116 48.5q68 0 105.5 -44.5t37.5 -123.5q0 -172 -106.5 -301t-282.5 -170z" glyph-name="semicolon" horiz-adv-x="546" unicode=";"/><glyph d="M967 248l-873 350v158l873 350v-182l-383 -144l-260 -98v-8l260 -96l383 -144v-186z" glyph-name="less" horiz-adv-x="1011" unicode="&lt;"/><glyph d="M98 825v158h869v-158h-869zM98 371v157h869v-157h-869z" glyph-name="equal" horiz-adv-x="1011" unicode="="/><glyph d="M98 248v186l383 144l260 96v8l-260 98l-383 144v182l873 -350v-158z" glyph-name="greater" horiz-adv-x="1011" unicode=">"/><glyph d="M485 428l-188 16q6 92 49 170t98.5 131.5t109.5 101.5t91 102.5t37 115.5q0 72 -41 113t-113 41q-96 0 -184 -62l-115 143q147 96 326 97q158 0 250 -79t92 -218q0 -90 -39 -165t-96 -129t-116.5 -106.5t-106 -122t-54.5 -149.5zM309 -25q-55 0 -88 36t-33 91 q0 70 49.5 123.5t120.5 53.5q55 0 87 -36t32 -93q0 -70 -47 -122.5t-121 -52.5z" glyph-name="question" horiz-adv-x="874" unicode="?"/><glyph d="M750 -332q-283 0 -471.5 176t-188.5 490q0 209 76 398.5t202 321.5t293.5 209.5t346.5 77.5q295 0 467 -174t172 -444q0 -299 -133.5 -467t-327.5 -168q-74 0 -126 40t-69 114h-6q-96 -135 -231 -136q-104 0 -175 78t-71 209q0 193 122 344.5t285 151.5q96 0 146 -101h4 l18 84h150l-103 -448q-49 -195 97 -195q100 0 186 128t86 341q0 225 -126 366.5t-386 141.5q-133 0 -266 -65.5t-238.5 -176t-171 -270t-65.5 -334.5q0 -262 151.5 -407.5t370.5 -145.5q145 0 260 72l62 -123q-168 -88 -340 -88zM797 250q80 0 157 112l70 306 q-41 78 -104 77q-100 0 -172 -108.5t-72 -226.5q0 -160 121 -160z" glyph-name="at" horiz-adv-x="1720" unicode="@"/><glyph d="M393 545h342l-39 583h-8zM774 0l-26 377h-437l-186 -377h-244l717 1339h262l144 -1339h-230z" glyph-name="A" horiz-adv-x="1083" unicode="A"/><glyph d="M66 0l266 1339h385q203 0 317.5 -76.5t114.5 -224.5q0 -123 -85 -214t-210 -119l-2 -9q238 -57 238 -262q0 -219 -157 -326.5t-411 -107.5h-456zM440 778h164q162 0 241 59.5t79 166.5q0 164 -252 163h-152zM319 172h203q354 0 355 252q0 94 -67 146.5t-194 52.5h-206z " glyph-name="B" horiz-adv-x="1216" unicode="B"/><glyph d="M608 -25q-227 0 -359 148.5t-132 402.5q0 221 89 412.5t252 308.5t361 117q205 0 342 -147l-151 -150q-90 106 -203 107q-131 0 -239.5 -93.5t-167 -238t-58.5 -299.5q0 -176 76 -276.5t233 -100.5q145 0 256 92l97 -174q-148 -109 -396 -109z" glyph-name="C" horiz-adv-x="1144" unicode="C"/><glyph d="M66 0l266 1339h272q283 0 431.5 -134t148.5 -390q0 -379 -199 -597t-530 -218h-389zM322 178h129q229 0 368 166t139 457q0 178 -93 269t-267 91h-82z" glyph-name="D" horiz-adv-x="1236" unicode="D"/><glyph d="M66 0l266 1339h768l-74 -186h-512l-72 -360h342l-36 -187h-340l-86 -420h565l-37 -186h-784z" glyph-name="E" horiz-adv-x="1054" unicode="E"/><glyph d="M66 0l266 1339h768l-82 -186h-504l-78 -395h336l-37 -187h-334l-114 -571h-221z" glyph-name="F" horiz-adv-x="1001" unicode="F"/><glyph d="M629 -25q-244 0 -378 146.5t-134 404.5q0 344 203.5 591t519.5 247q211 0 354 -137l-152 -158q-76 104 -215 105q-209 0 -347 -194t-138 -437q0 -379 324 -379q109 0 186 63l82 406l215 90l-121 -610q-168 -138 -399 -138z" glyph-name="G" horiz-adv-x="1228" unicode="G"/><glyph d="M66 0l266 1339h221l-111 -542h531l108 542h222l-269 -1339h-221l123 604h-530l-119 -604h-221z" glyph-name="H" horiz-adv-x="1306" unicode="H"/><glyph d="M66 0l266 1339h221l-266 -1339h-221z" glyph-name="I" horiz-adv-x="559" unicode="I"/><glyph d="M344 -25q-119 0 -211 54.5t-143 150.5l139 129q66 -143 215 -143q178 0 231 266l181 907h221l-189 -942q-35 -188 -147.5 -305t-296.5 -117z" glyph-name="J" horiz-adv-x="970" unicode="J"/><glyph d="M66 0l266 1339h221l-121 -606h8l586 606h244l-494 -532l309 -807h-237l-236 668l-241 -246l-84 -422h-221z" glyph-name="K" horiz-adv-x="1191" unicode="K"/><glyph d="M66 0l266 1339h221l-229 -1153h534l-37 -186h-755z" glyph-name="L" horiz-adv-x="985" unicode="L"/><glyph d="M66 0l266 1339h246l151 -827h8l496 827h244l-269 -1339h-209l193 938h-6l-469 -807h-103l-147 807h-8l-191 -938h-202z" glyph-name="M" horiz-adv-x="1480" unicode="M"/><glyph d="M66 0l266 1339h217l328 -952h8l192 952h213l-268 -1339h-215l-326 989h-8l-197 -989h-210z" glyph-name="N" horiz-adv-x="1292" unicode="N"/><glyph d="M602 -25q-225 0 -354 152t-129 412q0 334 195.5 579.5t471.5 245.5q225 0 354.5 -151.5t129.5 -411.5q0 -336 -194.5 -581t-473.5 -245zM614 166q174 0 302 189.5t128 428.5q0 184 -68.5 287t-201.5 103q-174 0 -301 -189.5t-127 -429.5q0 -184 67.5 -286.5t200.5 -102.5 z" glyph-name="O" horiz-adv-x="1325" unicode="O"/><glyph d="M66 0l266 1339h401q205 0 323 -82.5t118 -259.5q0 -250 -165 -372.5t-438 -122.5h-186l-98 -502h-221zM422 678h168q365 0 364 289q0 197 -262 196h-176z" glyph-name="P" horiz-adv-x="1161" unicode="P"/><glyph d="M774 1174q-174 0 -301 -189.5t-127 -429.5q0 -184 67.5 -286.5t200.5 -102.5q174 0 302 189.5t128 428.5q0 184 -68.5 287t-201.5 103zM1102 -150l-137 -196q-393 0 -514 342q-160 47 -246 187.5t-86 355.5q0 334 195.5 579.5t471.5 245.5q225 0 354.5 -151.5 t129.5 -411.5q0 -309 -170 -546t-420 -273q78 -147 299 -148q62 0 123 16z" glyph-name="Q" horiz-adv-x="1325" unicode="Q"/><glyph d="M428 705h170q170 0 259 73.5t89 202.5q0 96 -64.5 139t-197.5 43h-168zM332 1339h395q203 0 320.5 -78.5t117.5 -248.5q0 -178 -100 -297t-266 -160l221 -555h-236l-194 528h-199l-104 -528h-221z" glyph-name="R" horiz-adv-x="1179" unicode="R"/><glyph d="M479 -25q-270 0 -463 172l154 162q156 -145 328 -145q106 0 172.5 55t66.5 148q0 57 -39 99t-123 93l-141 86q-203 125 -203 326q0 162 128 277.5t317 115.5q215 0 393 -121l-141 -176q-113 106 -264 107q-94 0 -149.5 -53.5t-55.5 -127.5q0 -59 38 -97t132 -95l143 -86 q102 -59 148.5 -132t46.5 -186q0 -182 -136.5 -302t-351.5 -120z" glyph-name="S" horiz-adv-x="1060" unicode="S"/><glyph d="M322 0l229 1151h-371l37 188h963l-37 -188h-371l-229 -1151h-221z" glyph-name="T" horiz-adv-x="1067" unicode="T"/><glyph d="M182 623l144 716h221l-150 -749q-18 -86 -18 -158q0 -266 237 -266q225 0 302 375l159 798h217l-161 -798q-113 -565 -525 -566q-451 0 -450 445q-1 86 24 203z" glyph-name="U" horiz-adv-x="1290" unicode="U"/><glyph d="M283 0l-119 1339h229l68 -1116h8l535 1116h239l-694 -1339h-266z" glyph-name="V" horiz-adv-x="1077" unicode="V"/><glyph d="M176 0l33 1339h225l-61 -1060h8l487 1060h191l6 -1060h8l418 1060h213l-537 -1339h-278l-2 946h-8l-428 -946h-275z" glyph-name="W" horiz-adv-x="1587" unicode="W"/><glyph d="M-74 0l498 682l-207 657h244l129 -512h8l346 512h236l-473 -659l227 -680h-244l-149 545h-6l-373 -545h-236z" glyph-name="X" horiz-adv-x="1073" unicode="X"/><glyph d="M283 0l100 504l-215 835h227l131 -626h9l395 626h237l-563 -835l-100 -504h-221z" glyph-name="Y" horiz-adv-x="995" unicode="Y"/><glyph d="M-6 0l29 133l770 1020h-570l37 186h834l-27 -133l-764 -1020h627l-39 -186h-897z" glyph-name="Z" horiz-adv-x="1062" unicode="Z"/><glyph d="M4 -311l352 1761h379l-20 -121h-217l-303 -1519h215l-27 -121h-379z" glyph-name="bracketleft" horiz-adv-x="636" unicode="["/><glyph d="M373 -328l-197 1782h146l198 -1782h-147z" glyph-name="backslash" horiz-adv-x="684" unicode="\"/><glyph d="M-80 -311l27 121h213l305 1519h-215l22 121h381l-352 -1761h-381z" glyph-name="bracketright" horiz-adv-x="638" unicode="]"/><glyph d="M160 571l301 801h174l303 -801h-180l-113 320l-92 274h-6l-92 -274l-113 -320h-182z" glyph-name="asciicircum" horiz-adv-x="1009" unicode="^"/><glyph d="M-86 -268l29 131h934l-27 -131h-936z" glyph-name="underscore" horiz-adv-x="987" unicode="_"/><glyph d="M750 1165l-293 344l188 142l240 -379z" glyph-name="grave" horiz-adv-x="1077" unicode="`"/><glyph d="M358 -25q-135 0 -210.5 95.5t-75.5 271.5q0 283 163.5 485.5t376.5 202.5q156 0 232 -141h4l26 117h193l-201 -1006h-202l32 139h-6q-131 -164 -332 -164zM449 156q133 0 258 139l92 450q-78 104 -174 105q-129 0 -227.5 -142.5t-98.5 -334.5q0 -217 150 -217z" glyph-name="a" horiz-adv-x="1114" unicode="a"/><glyph d="M227 0h-182l272 1352l232 69l-103 -524h5q141 133 303 133q137 0 211.5 -94t74.5 -272q0 -283 -163.5 -486t-374.5 -203q-152 0 -228 142h-4zM664 850q-143 0 -256 -145l-86 -426q59 -123 165 -123q129 0 228.5 142t99.5 337q1 215 -151 215z" glyph-name="b" horiz-adv-x="1116" unicode="b"/><glyph d="M451 -25q-170 0 -276.5 110t-106.5 300q0 268 170 456.5t407 188.5q164 0 264 -69l-108 -168q-72 59 -170 59q-135 0 -236.5 -136t-101.5 -323q0 -240 203 -239q104 0 196 47l88 -156q-72 -41 -141 -55.5t-188 -14.5z" glyph-name="c" horiz-adv-x="899" unicode="c"/><glyph d="M827 897l93 457l233 67l-287 -1421h-198l28 139h-6q-160 -164 -332 -164q-135 0 -210.5 95.5t-75.5 271.5q0 283 163.5 485.5t376.5 202.5q74 0 131.5 -37t77.5 -96h6zM449 156q147 0 264 170l84 413q-76 111 -172 111q-129 0 -227.5 -142.5t-98.5 -334.5 q0 -217 150 -217z" glyph-name="d" horiz-adv-x="1105" unicode="d"/><glyph d="M68 401q0 270 170 449.5t378 179.5q166 0 243 -101.5t77 -269.5q0 -59 -29 -213h-626q-16 -152 54.5 -227.5t192.5 -75.5q117 0 209 74l94 -147q-117 -94 -360 -95q-182 0 -292.5 113.5t-110.5 312.5zM297 575h444q12 61 13 99q0 82 -39 134t-125 52q-96 0 -176 -75 t-117 -210z" glyph-name="e" horiz-adv-x="999" unicode="e"/><glyph d="M119 831l35 175h131l22 116q33 162 121 255t234 93q102 0 198 -51l-74 -155q-53 31 -104 30q-123 0 -156 -166l-24 -122h190l-35 -175h-192l-164 -831h-219l166 831h-129z" glyph-name="f" horiz-adv-x="624" unicode="f"/><glyph d="M348 -446q-195 0 -362 139l98 147q131 -111 270 -110q223 0 287 254l51 194q-154 -158 -327 -158q-133 0 -213 91.5t-80 263.5q0 268 159.5 461.5t368.5 193.5q74 0 134.5 -38t92.5 -103h7l26 117h195l-205 -1020q-43 -213 -171 -322.5t-331 -109.5zM444.5 203 q145.5 0 260.5 151l75 373q-66 123 -168 123q-123 0 -218 -134t-95 -313q0 -200 145.5 -200z" glyph-name="g" horiz-adv-x="1101" unicode="g"/><glyph d="M45 0l272 1352l238 94l-119 -572h8q164 156 324 156q238 0 238 -254q0 -78 -17 -141l-127 -635h-219l123 606q16 94 16 107q0 129 -127 129q-100 0 -254 -156l-135 -686h-221z" glyph-name="h" horiz-adv-x="1091" unicode="h"/><glyph d="M45 0l203 1006h219l-201 -1006h-221zM410 1184q-51 0 -88 30.5t-37 83.5q0 59 43 101.5t104 42.5q51 0 88 -31t37 -84q0 -61 -43 -102t-104 -41z" glyph-name="i" horiz-adv-x="514" unicode="i"/><glyph d="M-86 -422l-43 168q88 18 115 57q25 33 47 123l217 1080h219l-217 -1084q-37 -164 -116 -254t-222 -90zM414 1184q-51 0 -89 30.5t-38 83.5q0 59 43 101.5t104 42.5q51 0 89 -31t38 -84q0 -61 -43 -102t-104 -41z" glyph-name="j" horiz-adv-x="516" unicode="j"/><glyph d="M45 0l272 1356l234 67l-178 -886h8l444 469h246l-405 -431l266 -575h-248l-172 446l-197 -198l-49 -248h-221z" glyph-name="k" horiz-adv-x="1026" unicode="k"/><glyph d="M266 0h-219l270 1354l230 63z" glyph-name="l" horiz-adv-x="536" unicode="l"/><glyph d="M45 0l201 1006h194l-26 -142h8q193 166 328 166q199 0 233 -186q197 186 348 186q238 0 238 -254q0 -53 -17 -141l-127 -635h-221l123 606q16 76 16 107q0 129 -122 129q-90 0 -240 -156l-137 -686h-219l120 606q16 76 17 107q0 129 -121 129q-96 0 -240 -156l-135 -686 h-221z" glyph-name="m" horiz-adv-x="1665" unicode="m"/><glyph d="M45 0l201 1006h194l-26 -142h8q197 166 346 166q238 0 238 -254q0 -78 -17 -141l-127 -635h-219l123 606q16 94 16 107q0 129 -127 129q-100 0 -254 -156l-135 -686h-221z" glyph-name="n" horiz-adv-x="1103" unicode="n"/><glyph d="M444 -25q-170 0 -272 111t-102 299q0 279 169 462t384 183q172 0 274 -109.5t102 -299.5q0 -276 -169 -461t-386 -185zM469 154q121 0 214 136t93 324q0 238 -176 238q-123 0 -216 -135t-93 -324q0 -239 178 -239z" glyph-name="o" horiz-adv-x="1073" unicode="o"/><glyph d="M281 106l-84 -428l-232 -75l283 1403h201l-27 -123h6q170 147 326 147q137 0 211.5 -95t74.5 -271q0 -283 -163.5 -486t-374.5 -203q-133 0 -217 131h-4zM664 850q-143 0 -256 -145l-86 -431q61 -119 165 -118q129 0 228.5 142t99.5 337q1 215 -151 215z" glyph-name="p" horiz-adv-x="1114" unicode="p"/><glyph d="M565 -397l115 538h-4q-55 -74 -143.5 -120t-174.5 -46q-135 0 -210.5 95.5t-75.5 271.5q0 283 163.5 485.5t376.5 202.5q156 0 232 -141h4l24 117h195l-266 -1325zM449 156q147 0 264 170l82 401q-66 123 -170 123q-129 0 -227.5 -142.5t-98.5 -334.5q0 -217 150 -217z " glyph-name="q" horiz-adv-x="1114" unicode="q"/><glyph d="M45 0l201 1006h203l-43 -195h8q139 219 432 221l-125 -213q-201 4 -336 -211l-119 -608h-221z" glyph-name="r" horiz-adv-x="743" unicode="r"/><glyph d="M340 -25q-123 0 -227 48q-98 47 -125 77l131 136q109 -96 237 -97q72 0 124 38t52 93q0 43 -36.5 75t-143.5 93q-215 119 -215 279q0 135 106.5 224t260.5 89q182 0 315 -96l-117 -141q-84 72 -198 71q-70 0 -115 -36.5t-45 -90.5q0 -16 4 -29.5t15.5 -25.5t20.5 -21.5 t28.5 -21.5t30 -18.5t37 -20.5t36.5 -20q117 -61 170 -127t53 -156q0 -145 -111.5 -233.5t-287.5 -88.5z" glyph-name="s" horiz-adv-x="845" unicode="s"/><glyph d="M397 -25q-135 0 -198.5 67t-63.5 179q0 37 12 119l103 491h-141l34 175h152l47 196l225 74l-61 -270h242l-35 -175h-246l-102 -499q-6 -37 -7 -72q0 -111 117 -110q61 0 129 32l-35 -176q-68 -31 -172 -31z" glyph-name="t" horiz-adv-x="708" unicode="t"/><glyph d="M1049 1006l-199 -1006h-205l35 143h-8q-186 -168 -336 -168q-240 0 -240 254q0 59 17 142l127 635h219l-121 -607q-16 -76 -16 -106q0 -129 124 -129q100 0 248 155l135 687h220z" glyph-name="u" horiz-adv-x="1099" unicode="u"/><glyph d="M258 0l-137 1006h219l82 -791h8l393 791h217l-524 -1006h-258z" glyph-name="v" horiz-adv-x="970" unicode="v"/><glyph d="M205 0l-60 1006h217l15 -779h8l350 779h201l31 -779h8l334 779h204l-442 -1006h-262l-27 707h-8l-313 -707h-256z" glyph-name="w" horiz-adv-x="1490" unicode="w"/><glyph d="M-86 0l426 524l-170 482h223l117 -367h8l266 367h236l-404 -490l195 -516h-225l-127 385h-8l-299 -385h-238z" glyph-name="x" horiz-adv-x="942" unicode="x"/><glyph d="M31 -414q-66 0 -129 37l69 160q33 -20 74 -21q135 0 225 187l31 61l-174 996h219l96 -744h9l383 744h213l-566 -1059q-102 -180 -204.5 -270.5t-245.5 -90.5z" glyph-name="y" horiz-adv-x="970" unicode="y"/><glyph d="M-20 0l24 125l569 706h-409l35 175h686l-25 -127l-571 -705h473l-35 -174h-747z" glyph-name="z" horiz-adv-x="874" unicode="z"/><glyph d="M391 -311h-108q-100 0 -144.5 41t-44.5 131q0 84 54.5 280.5t54.5 243.5q0 111 -144 119l29 131q168 8 201 162q10 55 26.5 172.5t30.5 195.5q33 162 95.5 223.5t191.5 61.5h112l-26 -121h-45q-70 0 -102.5 -40t-51.5 -134q-12 -61 -30.5 -178t-28.5 -172 q-23 -109 -67 -164t-120 -74l-2 -8q102 -29 103 -135q0 -74 -50.5 -270.5t-50.5 -253.5q0 -49 21.5 -69.5t79.5 -20.5h41z" glyph-name="braceleft" horiz-adv-x="632" unicode="{"/><glyph d="M188 -512v2048h142v-2048h-142z" glyph-name="bar" horiz-adv-x="497" unicode="|"/><glyph d="M-92 -311l26 121h46q70 0 103.5 38.5t49.5 133.5q12 61 30.5 177.5t29.5 172.5q23 111 66.5 166t119.5 73l2 9q-102 31 -102 135q0 72 50 268.5t50 253.5q0 49 -21.5 70.5t-78.5 21.5h-41l24 121h109q100 0 144 -42t44 -130q0 -84 -54 -280.5t-54 -245.5q0 -109 143 -117 l-29 -131q-168 -8 -200 -162q-12 -63 -27.5 -181t-30.5 -190q-33 -162 -94 -222t-193 -60h-112z" glyph-name="braceright" horiz-adv-x="638" unicode="}"/><glyph d="M690 518q-80 0 -186.5 83t-157.5 83q-84 0 -145 -119l-115 76q111 197 268 197q80 0 186.5 -83t157.5 -83q84 0 146 119l114 -76q-110 -197 -268 -197z" glyph-name="asciitilde" horiz-adv-x="1011" unicode="~"/><glyph glyph-name="uni00A0" horiz-adv-x="399" unicode=" "/><glyph d="M39 -369l49 226l174 716h148l-117 -716l-35 -226h-219zM371 727q-55 0 -87 36t-32 93q0 70 47 122t121 52q55 0 88 -36t33 -91q0 -66 -49 -121t-121 -55z" glyph-name="exclamdown" horiz-adv-x="628" unicode="¡"/><glyph d="M504 362l125 629q-111 -31 -185.5 -131t-74.5 -237q0 -202 135 -261zM823 408l70 -164q-74 -37 -134.5 -52.5t-162.5 -19.5l-41 -205h-129l41 209q-145 20 -229 128t-84 284q0 244 152.5 402.5t357.5 185.5l41 202h129l-41 -204q125 -20 227 -107l-131 -137 q-59 49 -131 67l-127 -647q110 13 192 58z" glyph-name="cent" horiz-adv-x="1011" unicode="¢"/><glyph d="M1053 1214l-146 -133q-47 43 -83 61.5t-89 18.5q-102 0 -167.5 -81t-65.5 -228q0 -63 8 -127h307l-31 -160h-268q-8 -215 -156 -370l-2 -9h506l-32 -186h-832l27 133q135 63 210.5 177t77.5 255h-196l33 160h153q-10 92 -10 152q0 209 128 335.5t323 126.5 q96 0 161.5 -31t143.5 -94z" glyph-name="sterling" horiz-adv-x="1011" unicode="£"/><glyph d="M115 213l-97 115l140 121q-31 68 -31 155q0 182 121 314l-96 120l120 103l101 -129q115 66 229 65q121 0 203 -63l149 129l97 -115l-142 -125q31 -63 31 -153q0 -180 -115 -308l103 -131l-119 -100l-111 137q-109 -72 -233 -72q-119 0 -203 66zM487 436q96 0 173 86 t77 209q0 188 -159 189q-96 0 -173 -86t-77 -209q0 -92 41.5 -140.5t117.5 -48.5z" glyph-name="currency" horiz-adv-x="1011" unicode="¤"/><glyph d="M295 0l63 317h-311l23 111h311l25 129h-312l23 113h260l-176 635h223l121 -582h6l352 582h221l-428 -635h260l-22 -113h-311l-25 -129h311l-24 -111h-310l-63 -317h-217z" glyph-name="yen" horiz-adv-x="1011" unicode="¥"/><glyph d="M188 612v924h142v-924h-142zM188 -512v940h142v-940h-142z" glyph-name="brokenbar" horiz-adv-x="497" unicode="¦"/><glyph d="M627 399q117 51 116 172q0 59 -45 105.5t-144 106t-134 85.5q-123 -55 -123 -174q0 -61 48 -107t144.5 -101.5t137.5 -86.5zM956 1313l-116 -146q-104 72 -215 72q-57 0 -95 -32.5t-38 -90.5q0 -45 46 -87t110.5 -81t130 -84t111.5 -113.5t46 -152.5q0 -113 -54.5 -186.5 t-160.5 -122.5q25 -49 24 -109q0 -143 -101 -233t-261 -90q-174 0 -367 108l113 158q115 -100 266 -100q68 0 109 35.5t41 95.5q0 49 -45 92t-109.5 78.5t-129 78.5t-110 111t-45.5 154q0 201 218 301q-33 57 -33 123q0 139 94 227t242 88q157 0 329 -94z" glyph-name="section" horiz-adv-x="1005" unicode="§"/><glyph d="M487 1188q-45 0 -73.5 27.5t-28.5 74.5q0 53 38 93t91 40q45 0 73.5 -28.5t28.5 -75.5q0 -55 -38 -93t-91 -38zM893 1188q-45 0 -73.5 27.5t-28.5 74.5q0 53 37.5 93t91.5 40q45 0 73.5 -27.5t28.5 -76.5q0 -55 -38 -93t-91 -38z" glyph-name="dieresis" horiz-adv-x="1077" unicode="¨"/><glyph d="M610 -20q-238 0 -390 159.5t-152 409.5q0 209 94 389t268 290.5t391 110.5q238 0 390.5 -158.5t152.5 -408.5q0 -322 -214 -557t-540 -235zM618 84q270 0 453.5 204t183.5 474q0 207 -117.5 341t-324.5 134q-270 0 -453.5 -204t-183.5 -474q0 -207 117.5 -341t324.5 -134 zM672 258q-141 0 -225.5 83t-84.5 230q0 209 137.5 345.5t303.5 136.5q123 0 205 -107l-99 -92q-57 63 -127 64q-96 0 -177 -95.5t-81 -228.5q0 -98 47 -149.5t134 -51.5q68 0 176 70l65 -103q-131 -102 -274 -102z" glyph-name="copyright" horiz-adv-x="1368" unicode="©"/><glyph d="M166 1016q0 186 110.5 320t251.5 134q98 0 146 -92h8l18 76h138l-131 -666h-142l21 93h-8q-102 -109 -220 -109q-88 0 -140 63.5t-52 180.5zM420 901q92 0 174 113l47 250q-37 78 -104 77q-80 0 -144.5 -91t-64.5 -214q0 -135 92 -135z" glyph-name="ordfeminine" horiz-adv-x="737" unicode="ª"/><glyph d="M293 127l-211 315l29 164l317 295l72 -78l-281 -315l166 -322zM649 127l-211 315l29 164l317 295l72 -78l-281 -315l166 -322z" glyph-name="guillemotleft" horiz-adv-x="892" unicode="«"/><glyph d="M803 203v395h-705v158h869v-553h-164z" glyph-name="logicalnot" horiz-adv-x="1011" unicode="¬"/><glyph d="M72 436l32 162h465l-34 -162h-463z" glyph-name="uni00AD" horiz-adv-x="634" unicode="­"/><glyph d="M502 651q-143 0 -243.5 100.5t-100.5 252.5q0 182 118.5 318t298.5 136q139 0 242 -101.5t103 -252.5q0 -180 -121 -316.5t-297 -136.5zM508 733q137 0 229 107.5t92 255.5q0 121 -71.5 199.5t-188.5 78.5q-137 0 -229 -107.5t-92 -254.5q0 -121 70.5 -200t189.5 -79z M354 854l84 408h152q59 0 96 -32t37 -87q0 -98 -100 -133l53 -156h-96l-41 133h-62l-28 -133h-95zM492 1059h38q43 0 67 20.5t24 53.5q0 55 -62 55h-43z" glyph-name="registered" horiz-adv-x="870" unicode="®"/><glyph d="M410 1223l28 145h551l-26 -145h-553z" glyph-name="macron" horiz-adv-x="1077" unicode="¯"/><glyph d="M438 856q-106 0 -171.5 65.5t-65.5 176.5q0 125 86 215t202 90q104 0 171 -66.5t67 -175.5q0 -127 -86 -216t-203 -89zM446 969q68 0 112 56t44 132q0 57 -31.5 95t-89.5 38q-68 0 -112.5 -56t-44.5 -132q0 -57 32.5 -95t89.5 -38z" glyph-name="degree" horiz-adv-x="677" unicode="°"/><glyph d="M446 291v350h-348v160h353v344h163v-344h353v-160h-355v-350h-166zM98 0v160h869v-160h-869z" glyph-name="plusminus" horiz-adv-x="1011" unicode="±"/><glyph d="M145 788l7 46q8 104 112 186q104 80 187 137q162 113 161 203q0 109 -114 108q-76 0 -146 -51l-92 107q125 88 266 88q117 0 184.5 -59.5t67.5 -163.5q0 -160 -162 -279q-20 -14 -251 -182h354l-27 -140h-547z" glyph-name="uni00B2" horiz-adv-x="733" unicode="²"/><glyph d="M745 1440l-180 -191v-4q170 -55 170 -227q0 -117 -86 -185.5t-215 -68.5q-190 0 -289 164l111 78q63 -109 166 -109q68 0 109.5 32t41.5 91q0 125 -188 125l18 108l172 193v2h-284l33 139h440z" glyph-name="uni00B3" horiz-adv-x="729" unicode="³"/><glyph d="M633 1186l-98 125l362 327l133 -170z" glyph-name="acute" horiz-adv-x="1077" unicode="´"/><glyph d="M461 1006l-121 -607q-16 -76 -16 -106q0 -129 125 -129q96 0 247 153l135 689h218l-197 -1006h-199l29 143h-8q-143 -158 -260 -157q-111 0 -144 80l-73 -383l-232 -64l277 1387h219z" glyph-name="uni00B5" horiz-adv-x="1097" unicode="µ"/><glyph d="M629 -164l299 1503h219l-299 -1503h-219zM639 436h-47q-188 0 -317.5 98.5t-129.5 270.5q0 260 168 397t412 137h94z" glyph-name="paragraph" horiz-adv-x="1171" unicode="¶"/><glyph d="M279 520q-55 0 -88 36t-33 91q0 68 49 122t121 54q53 0 85.5 -35.5t32.5 -93.5q0 -70 -46.5 -122t-120.5 -52z" glyph-name="periodcentered" horiz-adv-x="546" unicode="·"/><glyph d="M162 -477l-2 100q121 6 175 29.5t60 73.5q2 37 -28.5 56t-112.5 30l129 194h143l-84 -135q74 -18 103.5 -51t23.5 -88q-24 -199 -407 -209z" glyph-name="cedilla" horiz-adv-x="1077" unicode="¸"/><glyph d="M98 788l27 134h209l102 491l-157 -51l-50 108l279 117h123l-137 -665h190l-25 -134h-561z" glyph-name="uni00B9" horiz-adv-x="749" unicode="¹"/><glyph d="M369 772q-113 0 -183.5 73t-70.5 199q0 184 112.5 305t259.5 121q115 0 185.5 -72.5t70.5 -199.5q0 -184 -113.5 -305t-260.5 -121zM383 899q86 0 144.5 86t58.5 209q0 150 -111 149q-86 0 -144.5 -86t-58.5 -208q0 -150 111 -150z" glyph-name="ordmasculine" horiz-adv-x="722" unicode="º"/><glyph d="M123 127l-72 78l281 315l-168 322l94 59l211 -315l-31 -164zM479 127l-71 78l280 315l-168 322l94 59l211 -315l-30 -164z" glyph-name="guillemotright" horiz-adv-x="892" unicode="»"/><glyph d="M-6 553l26 133h209l103 492l-158 -52l-49 109l278 117h123l-137 -666h191l-25 -133h-561zM250 -25l981 1401h135l-981 -1401h-135zM1004 311h215l75 348h-8zM1479 311l-25 -112h-117l-39 -199h-143l39 199h-330l-20 88l418 512h194l-96 -488h119z" glyph-name="onequarter" horiz-adv-x="1560" unicode="¼"/><glyph d="M-14 553l26 133h209l103 492l-158 -52l-49 109l278 117h123l-137 -666h190l-24 -133h-561zM213 -25l981 1401h135l-981 -1401h-135zM885 0l6 45q8 104 113 186q104 80 186 138q162 113 162 202q0 109 -115 109q-76 0 -145 -51l-93 106q125 88 267 88q117 0 184.5 -59 t67.5 -164q0 -160 -162 -278q-20 -14 -252 -183h354l-26 -139h-547z" glyph-name="onehalf" horiz-adv-x="1624" unicode="½"/><glyph d="M686 1204l-180 -190v-4q170 -55 170 -228q0 -117 -86 -185.5t-215 -68.5q-190 0 -289 164l111 78q63 -109 165 -108q68 0 110 31.5t42 90.5q0 125 -188 125l18 109l172 192v2h-285l33 140h441zM309 -25l981 1401h135l-981 -1401h-135zM1036 311h215l76 348h-8zM1511 311 l-24 -112h-117l-39 -199h-143l39 199h-330l-20 88l417 512h195l-96 -488h118z" glyph-name="threequarters" horiz-adv-x="1589" unicode="¾"/><glyph d="M336 -389q-156 0 -248 79t-92 218q0 90 39 164.5t96 129t115.5 106.5t104.5 122t55 150l188 -17q-6 -92 -49 -170t-98.5 -131t-109.5 -101t-91 -102.5t-37 -115.5q0 -72 41 -113t112 -41q94 0 187 92l113 -127q-144 -143 -326 -143zM532 729q-53 0 -85.5 36t-32.5 93 q0 70 48 122t120 52q55 0 87.5 -35.5t32.5 -91.5q0 -70 -48 -123t-122 -53z" glyph-name="questiondown" horiz-adv-x="874" unicode="¿"/><glyph d="M393 545h342l-39 583h-8zM774 0l-26 377h-437l-186 -377h-244l717 1339h262l144 -1339h-230zM782 1401l-305 268l154 139l276 -299z" glyph-name="Agrave" horiz-adv-x="1083" unicode="À"/><glyph d="M393 545h342l-39 583h-8zM774 0l-26 377h-437l-186 -377h-244l717 1339h262l144 -1339h-230zM678 1421l-86 127l369 246l102 -164z" glyph-name="Aacute" horiz-adv-x="1083" unicode="Á"/><glyph d="M393 545h342l-39 583h-8zM774 0l-26 377h-437l-186 -377h-244l717 1339h262l144 -1339h-230zM500 1417l-92 74l239 221h254l158 -227l-111 -66l-180 180h-8z" glyph-name="Acircumflex" horiz-adv-x="1083" unicode="Â"/><glyph d="M393 545h342l-39 583h-8zM774 0l-26 377h-437l-186 -377h-244l717 1339h262l144 -1339h-230zM868 1434q-49 0 -91 20.5t-65.5 46t-52 46t-55.5 20.5q-74 0 -108 -119l-150 12q29 135 102.5 204t178.5 69q61 0 110 -33t86 -65.5t68 -32.5q70 0 108 118l150 -12 q-29 -135 -104 -204.5t-177 -69.5z" glyph-name="Atilde" horiz-adv-x="1083" unicode="Ã"/><glyph d="M393 545h342l-39 583h-8zM774 0l-26 377h-437l-186 -377h-244l717 1339h262l144 -1339h-230zM528 1450q-45 0 -72.5 26.5t-27.5 73.5q0 51 37 92t90 41q43 0 71.5 -26.5t28.5 -73.5q0 -51 -37 -92t-90 -41zM934 1450q-45 0 -72.5 26.5t-27.5 73.5q0 51 36.5 92t90.5 41 q43 0 71.5 -26.5t28.5 -73.5q0 -51 -37 -92t-90 -41z" glyph-name="Adieresis" horiz-adv-x="1083" unicode="Ä"/><glyph d="M393 545h342l-39 583h-8zM774 0l-26 377h-437l-186 -377h-244l717 1339h262l144 -1339h-230zM737 1430q-86 0 -142 43t-56 126q0 88 68.5 150.5t166.5 62.5q84 0 141.5 -43t57.5 -124q0 -90 -69 -152.5t-167 -62.5zM741 1522q43 0 76 32.5t33 79.5q0 39 -21.5 62.5 t-58.5 23.5q-45 0 -76.5 -32.5t-31.5 -79.5q0 -39 21 -62.5t58 -23.5z" glyph-name="Aring" horiz-adv-x="1083" unicode="Å"/><glyph d="M817 530l129 633h-6l-420 -633h297zM1653 1153h-492l-71 -360h317l-37 -187h-315l-86 -420h544l-36 -186h-764l71 356h-376l-228 -356h-250l901 1339h893z" glyph-name="AE" horiz-adv-x="1681" unicode="Æ"/><glyph d="M608 -25q248 0 396 109l-97 174q-111 -92 -256 -92q-158 0 -233.5 100.5t-75.5 276.5q0 156 58.5 300t167 237.5t239.5 93.5q113 0 203 -107l151 150q-137 147 -342 147q-199 0 -361.5 -117t-251.5 -308t-89 -413q0 -254 132 -402.5t359 -148.5zM301 -477l-2 100 q121 6 175 29.5t61 73.5q2 37 -29 56t-113 30l129 194h144l-84 -135q74 -18 103.5 -51t23.5 -88q-25 -199 -408 -209z" glyph-name="Ccedilla" horiz-adv-x="1144" unicode="Ç"/><glyph d="M66 0l266 1339h768l-74 -186h-512l-72 -360h342l-36 -187h-340l-86 -420h565l-37 -186h-784zM797 1401l-305 268l153 139l277 -299z" glyph-name="Egrave" horiz-adv-x="1054" unicode="È"/><glyph d="M66 0l266 1339h768l-74 -186h-512l-72 -360h342l-36 -187h-340l-86 -420h565l-37 -186h-784zM692 1421l-86 127l369 246l102 -164z" glyph-name="Eacute" horiz-adv-x="1054" unicode="É"/><glyph d="M66 0l266 1339h768l-74 -186h-512l-72 -360h342l-36 -187h-340l-86 -420h565l-37 -186h-784zM514 1417l-92 74l240 221h253l158 -227l-110 -66l-181 180h-8z" glyph-name="Ecircumflex" horiz-adv-x="1054" unicode="Ê"/><glyph d="M66 0l266 1339h768l-74 -186h-512l-72 -360h342l-36 -187h-340l-86 -420h565l-37 -186h-784zM543 1450q-45 0 -73 26.5t-28 73.5q0 51 37 92t90 41q43 0 72 -26.5t29 -73.5q0 -51 -37 -92t-90 -41zM948 1450q-45 0 -72.5 26.5t-27.5 73.5q0 51 37 92t90 41 q43 0 71.5 -26.5t28.5 -73.5q0 -51 -37 -92t-90 -41z" glyph-name="Edieresis" horiz-adv-x="1054" unicode="Ë"/><glyph d="M66 0l266 1339h221l-266 -1339h-221zM504 1401l-305 268l153 139l277 -299z" glyph-name="Igrave" horiz-adv-x="559" unicode="Ì"/><glyph d="M66 0l266 1339h221l-266 -1339h-221zM399 1421l-86 127l369 246l102 -164z" glyph-name="Iacute" horiz-adv-x="559" unicode="Í"/><glyph d="M66 0l266 1339h221l-266 -1339h-221zM221 1417l-92 74l240 221h254l157 -227l-110 -66l-181 180h-8z" glyph-name="Icircumflex" horiz-adv-x="559" unicode="Î"/><glyph d="M66 0l266 1339h221l-266 -1339h-221zM250 1450q-45 0 -72.5 26.5t-27.5 73.5q0 51 36.5 92t89.5 41q43 0 72 -26.5t29 -73.5q0 -51 -37 -92t-90 -41zM655 1450q-45 0 -72.5 26.5t-27.5 73.5q0 51 37 92t90 41q43 0 71.5 -26.5t28.5 -73.5q0 -51 -37 -92t-90 -41z" glyph-name="Idieresis" horiz-adv-x="559" unicode="Ï"/><glyph d="M358 178h129q229 0 368.5 166t139.5 457q0 178 -93 269t-267 91h-82l-80 -401h281l-25 -115h-278zM369 1339h272q283 0 431.5 -134t148.5 -390q0 -379 -199 -597t-530 -218h-390l129 645h-145l25 115h143z" glyph-name="Eth" horiz-adv-x="1273" unicode="Ð"/><glyph d="M66 0l266 1339h217l328 -952h8l192 952h213l-268 -1339h-215l-326 989h-8l-197 -989h-210zM975 1434q-49 0 -91 20.5t-65.5 46t-52.5 46t-55 20.5q-74 0 -109 -119l-149 12q29 135 102.5 204t177.5 69q61 0 110.5 -33t86.5 -65.5t67 -32.5q70 0 109 118l149 -12 q-29 -135 -103.5 -204.5t-176.5 -69.5z" glyph-name="Ntilde" horiz-adv-x="1292" unicode="Ñ"/><glyph d="M602 -25q-225 0 -354 152t-129 412q0 334 195.5 579.5t471.5 245.5q225 0 354.5 -151.5t129.5 -411.5q0 -336 -194.5 -581t-473.5 -245zM614 166q174 0 302 189.5t128 428.5q0 184 -68.5 287t-201.5 103q-174 0 -301 -189.5t-127 -429.5q0 -184 67.5 -286.5t200.5 -102.5 zM899 1401l-305 268l154 139l276 -299z" glyph-name="Ograve" horiz-adv-x="1325" unicode="Ò"/><glyph d="M602 -25q-225 0 -354 152t-129 412q0 334 195.5 579.5t471.5 245.5q225 0 354.5 -151.5t129.5 -411.5q0 -336 -194.5 -581t-473.5 -245zM614 166q174 0 302 189.5t128 428.5q0 184 -68.5 287t-201.5 103q-174 0 -301 -189.5t-127 -429.5q0 -184 67.5 -286.5t200.5 -102.5 zM795 1421l-86 127l368 246l103 -164z" glyph-name="Oacute" horiz-adv-x="1325" unicode="Ó"/><glyph d="M602 -25q-225 0 -354 152t-129 412q0 334 195.5 579.5t471.5 245.5q225 0 354.5 -151.5t129.5 -411.5q0 -336 -194.5 -581t-473.5 -245zM614 166q174 0 302 189.5t128 428.5q0 184 -68.5 287t-201.5 103q-174 0 -301 -189.5t-127 -429.5q0 -184 67.5 -286.5t200.5 -102.5 zM616 1417l-92 74l240 221h254l158 -227l-111 -66l-180 180h-8z" glyph-name="Ocircumflex" horiz-adv-x="1325" unicode="Ô"/><glyph d="M602 -25q-225 0 -354 152t-129 412q0 334 195.5 579.5t471.5 245.5q225 0 354.5 -151.5t129.5 -411.5q0 -336 -194.5 -581t-473.5 -245zM614 166q174 0 302 189.5t128 428.5q0 184 -68.5 287t-201.5 103q-174 0 -301 -189.5t-127 -429.5q0 -184 67.5 -286.5t200.5 -102.5 zM985 1434q-49 0 -91 20.5t-65.5 46t-52 46t-55.5 20.5q-74 0 -109 -119l-149 12q29 135 102.5 204t177.5 69q61 0 110.5 -33t86.5 -65.5t68 -32.5q70 0 108 118l150 -12q-29 -135 -104 -204.5t-177 -69.5z" glyph-name="Otilde" horiz-adv-x="1325" unicode="Õ"/><glyph d="M602 -25q-225 0 -354 152t-129 412q0 334 195.5 579.5t471.5 245.5q225 0 354.5 -151.5t129.5 -411.5q0 -336 -194.5 -581t-473.5 -245zM614 166q174 0 302 189.5t128 428.5q0 184 -68.5 287t-201.5 103q-174 0 -301 -189.5t-127 -429.5q0 -184 67.5 -286.5t200.5 -102.5 zM645 1450q-45 0 -72.5 26.5t-27.5 73.5q0 51 36.5 92t90.5 41q43 0 71.5 -26.5t28.5 -73.5q0 -51 -37 -92t-90 -41zM1051 1450q-45 0 -73 26.5t-28 73.5q0 51 37 92t90 41q43 0 72 -26.5t29 -73.5q0 -51 -37 -92t-90 -41z" glyph-name="Odieresis" horiz-adv-x="1325" unicode="Ö"/><glyph d="M242 262l-111 111l291 305l-291 303l111 111l290 -304l291 304l111 -111l-291 -303l291 -305l-111 -111l-291 305z" glyph-name="multiply" horiz-adv-x="1011" unicode="×"/><glyph d="M1130 1223q53 -63 76 -117q61 -125 62 -305q0 -336 -194.5 -581t-473.5 -245q-211 0 -340 136q-23 23 -42 51t-28 47l-8 16q-66 135 -65 314q0 334 195.5 579.5t471.5 245.5q217 0 346 -141zM344 555q0 -78 12 -145l623 653q-72 111 -207 111q-174 0 -301 -189.5 t-127 -429.5zM612 166q174 0 302 189.5t128 428.5q0 74 -12 136l-618 -652q71 -102 200 -102z" glyph-name="Oslash" horiz-adv-x="1325" unicode="Ø"/><glyph d="M182 623l144 716h221l-150 -749q-18 -86 -18 -158q0 -266 237 -266q225 0 302 375l159 798h217l-161 -798q-113 -565 -525 -566q-451 0 -450 445q-1 86 24 203zM883 1401l-305 268l153 139l277 -299z" glyph-name="Ugrave" horiz-adv-x="1290" unicode="Ù"/><glyph d="M182 623l144 716h221l-150 -749q-18 -86 -18 -158q0 -266 237 -266q225 0 302 375l159 798h217l-161 -798q-113 -565 -525 -566q-451 0 -450 445q-1 86 24 203zM778 1421l-86 127l369 246l102 -164z" glyph-name="Uacute" horiz-adv-x="1290" unicode="Ú"/><glyph d="M182 623l144 716h221l-150 -749q-18 -86 -18 -158q0 -266 237 -266q225 0 302 375l159 798h217l-161 -798q-113 -565 -525 -566q-451 0 -450 445q-1 86 24 203zM600 1417l-92 74l240 221h253l158 -227l-110 -66l-181 180h-8z" glyph-name="Ucircumflex" horiz-adv-x="1290" unicode="Û"/><glyph d="M182 623l144 716h221l-150 -749q-18 -86 -18 -158q0 -266 237 -266q225 0 302 375l159 798h217l-161 -798q-113 -565 -525 -566q-451 0 -450 445q-1 86 24 203zM629 1450q-45 0 -73 26.5t-28 73.5q0 51 37 92t90 41q43 0 72 -26.5t29 -73.5q0 -51 -37 -92t-90 -41z M1034 1450q-45 0 -72.5 26.5t-27.5 73.5q0 51 37 92t90 41q43 0 71.5 -26.5t28.5 -73.5q0 -51 -37 -92t-90 -41z" glyph-name="Udieresis" horiz-adv-x="1290" unicode="Ü"/><glyph d="M283 0l100 504l-215 835h227l131 -626h9l395 626h237l-563 -835l-100 -504h-221zM614 1421l-86 127l369 246l102 -164z" glyph-name="Yacute" horiz-adv-x="995" unicode="Ý"/><glyph d="M66 0l266 1352h221l-43 -226h207q418 0 418 -340q0 -252 -167 -374.5t-438 -122.5h-190l-57 -289h-217zM377 465h170q180 0 274 73.5t94 215.5q0 197 -251 196h-191z" glyph-name="Thorn" horiz-adv-x="1185" unicode="Þ"/><glyph d="M731 -25q-166 0 -295 97l94 145q104 -76 199 -76q68 0 113 42t45 108q0 55 -46 105t-100.5 86t-100.5 95.5t-46 129.5q0 68 40 127t87 97t87 97t40 125q0 141 -135 141q-88 0 -153.5 -80.5t-92.5 -203.5l-201 -1010h-221l213 1055q39 182 160 298.5t305 116.5 q143 0 240.5 -73.5t97.5 -212.5q0 -68 -25.5 -124t-63.5 -95t-75 -73t-62.5 -71t-25.5 -76q0 -37 28.5 -72.5t70.5 -68.5t84 -70.5t71 -94t29 -124.5q0 -141 -103.5 -240.5t-257.5 -99.5z" glyph-name="germandbls" horiz-adv-x="1193" unicode="ß"/><glyph d="M358 -25q-135 0 -210.5 95.5t-75.5 271.5q0 283 163.5 485.5t376.5 202.5q156 0 232 -141h4l26 117h193l-201 -1006h-202l32 139h-6q-131 -164 -332 -164zM449 156q133 0 258 139l92 450q-78 104 -174 105q-129 0 -227.5 -142.5t-98.5 -334.5q0 -217 150 -217zM745 1165 l-292 344l188 142l240 -379z" glyph-name="agrave" horiz-adv-x="1114" unicode="à"/><glyph d="M358 -25q-135 0 -210.5 95.5t-75.5 271.5q0 283 163.5 485.5t376.5 202.5q156 0 232 -141h4l26 117h193l-201 -1006h-202l32 139h-6q-131 -164 -332 -164zM449 156q133 0 258 139l92 450q-78 104 -174 105q-129 0 -227.5 -142.5t-98.5 -334.5q0 -217 150 -217zM629 1186 l-99 125l363 327l133 -170z" glyph-name="aacute" horiz-adv-x="1114" unicode="á"/><glyph d="M358 -25q-135 0 -210.5 95.5t-75.5 271.5q0 283 163.5 485.5t376.5 202.5q156 0 232 -141h4l26 117h193l-201 -1006h-202l32 139h-6q-131 -164 -332 -164zM449 156q133 0 258 139l92 450q-78 104 -174 105q-129 0 -227.5 -142.5t-98.5 -334.5q0 -217 150 -217zM424 1155 l-80 92l274 273h240l178 -279l-102 -86l-205 217h-8z" glyph-name="acircumflex" horiz-adv-x="1114" unicode="â"/><glyph d="M358 -25q-135 0 -210.5 95.5t-75.5 271.5q0 283 163.5 485.5t376.5 202.5q156 0 232 -141h4l26 117h193l-201 -1006h-202l32 139h-6q-131 -164 -332 -164zM449 156q133 0 258 139l92 450q-78 104 -174 105q-129 0 -227.5 -142.5t-98.5 -334.5q0 -217 150 -217zM836 1178 q-59 0 -104.5 37.5t-81.5 76.5t-75 39q-78 0 -106 -139l-150 8q55 295 269 295q59 0 104 -38t82 -76t74 -38q82 0 106 138l150 -8q-55 -295 -268 -295z" glyph-name="atilde" horiz-adv-x="1114" unicode="ã"/><glyph d="M358 -25q-135 0 -210.5 95.5t-75.5 271.5q0 283 163.5 485.5t376.5 202.5q156 0 232 -141h4l26 117h193l-201 -1006h-202l32 139h-6q-131 -164 -332 -164zM449 156q133 0 258 139l92 450q-78 104 -174 105q-129 0 -227.5 -142.5t-98.5 -334.5q0 -217 150 -217zM483 1188 q-45 0 -73.5 27.5t-28.5 74.5q0 53 38 93t91 40q45 0 73.5 -28.5t28.5 -75.5q0 -55 -38 -93t-91 -38zM889 1188q-45 0 -74 27.5t-29 74.5q0 53 38 93t91 40q45 0 74 -27.5t29 -76.5q0 -55 -38 -93t-91 -38z" glyph-name="adieresis" horiz-adv-x="1114" unicode="ä"/><glyph d="M358 -25q-135 0 -210.5 95.5t-75.5 271.5q0 283 163.5 485.5t376.5 202.5q156 0 232 -141h4l26 117h193l-201 -1006h-202l32 139h-6q-131 -164 -332 -164zM449 156q133 0 258 139l92 450q-78 104 -174 105q-129 0 -227.5 -142.5t-98.5 -334.5q0 -217 150 -217zM684 1151 q-96 0 -155.5 46t-59.5 130q0 96 77 164t191 68q96 0 156.5 -46.5t60.5 -130.5q0 -94 -77.5 -162.5t-192.5 -68.5zM698 1243q47 0 80 39t33 94q0 39 -22.5 64.5t-63.5 25.5q-47 0 -81 -40t-34 -93q0 -90 88 -90z" glyph-name="aring" horiz-adv-x="1114" unicode="å"/><glyph d="M1462 446h-626q-16 -152 54.5 -227.5t192.5 -75.5q117 0 209 74l94 -147q-117 -94 -360 -95q-227 0 -336 168h-2q-66 -82 -159 -125t-185 -43q-135 0 -211 95.5t-76 271.5q0 283 164 485.5t377 202.5q156 0 231 -141h2q154 141 340 141q166 0 243 -101.5t77 -269.5 q0 -59 -29 -213zM1145 860q-96 0 -176 -74.5t-117 -210.5h444q12 61 13 99q0 82 -39 134t-125 52zM434 156q104 0 211 92q-23 72 -22 153q0 217 122 392q-63 57 -135 57q-129 0 -227 -142.5t-98 -334.5q-1 -217 149 -217z" glyph-name="ae" horiz-adv-x="1536" unicode="æ"/><glyph d="M451 -25q119 0 188.5 14.5t140.5 55.5l-88 156q-92 -47 -196 -47q-203 0 -203 239q0 186 101.5 322.5t236.5 136.5q98 0 170 -59l108 168q-100 70 -264 69q-238 0 -407.5 -188.5t-169.5 -456.5q0 -190 106.5 -300t276.5 -110zM139 -477l-2 100q121 6 175.5 29.5 t60.5 73.5q2 37 -29 56t-113 30l129 194h144l-84 -135q74 -18 103.5 -51t23.5 -88q-25 -199 -408 -209z" glyph-name="ccedilla" horiz-adv-x="899" unicode="ç"/><glyph d="M68 401q0 270 170 449.5t378 179.5q166 0 243 -101.5t77 -269.5q0 -59 -29 -213h-626q-16 -152 54.5 -227.5t192.5 -75.5q117 0 209 74l94 -147q-117 -94 -360 -95q-182 0 -292.5 113.5t-110.5 312.5zM297 575h444q12 61 13 99q0 82 -39 134t-125 52q-96 0 -176 -75 t-117 -210zM719 1165l-293 344l188 142l240 -379z" glyph-name="egrave" horiz-adv-x="999" unicode="è"/><glyph d="M68 401q0 270 170 449.5t378 179.5q166 0 243 -101.5t77 -269.5q0 -59 -29 -213h-626q-16 -152 54.5 -227.5t192.5 -75.5q117 0 209 74l94 -147q-117 -94 -360 -95q-182 0 -292.5 113.5t-110.5 312.5zM297 575h444q12 61 13 99q0 82 -39 134t-125 52q-96 0 -176 -75 t-117 -210zM602 1186l-98 125l362 327l133 -170z" glyph-name="eacute" horiz-adv-x="999" unicode="é"/><glyph d="M68 401q0 270 170 449.5t378 179.5q166 0 243 -101.5t77 -269.5q0 -59 -29 -213h-626q-16 -152 54.5 -227.5t192.5 -75.5q117 0 209 74l94 -147q-117 -94 -360 -95q-182 0 -292.5 113.5t-110.5 312.5zM297 575h444q12 61 13 99q0 82 -39 134t-125 52q-96 0 -176 -75 t-117 -210zM397 1155l-80 92l275 273h239l179 -279l-103 -86l-205 217h-8z" glyph-name="ecircumflex" horiz-adv-x="999" unicode="ê"/><glyph d="M68 401q0 270 170 449.5t378 179.5q166 0 243 -101.5t77 -269.5q0 -59 -29 -213h-626q-16 -152 54.5 -227.5t192.5 -75.5q117 0 209 74l94 -147q-117 -94 -360 -95q-182 0 -292.5 113.5t-110.5 312.5zM297 575h444q12 61 13 99q0 82 -39 134t-125 52q-96 0 -176 -75 t-117 -210zM457 1188q-45 0 -74 27.5t-29 74.5q0 53 38 93t91 40q45 0 74 -28.5t29 -75.5q0 -55 -38 -93t-91 -38zM862 1188q-45 0 -73.5 27.5t-28.5 74.5q0 53 38 93t91 40q45 0 73.5 -27.5t28.5 -76.5q0 -55 -38 -93t-91 -38z" glyph-name="edieresis" horiz-adv-x="999" unicode="ë"/><glyph d="M45 0l203 1006h219l-201 -1006h-221zM457 1165l-293 344l188 142l240 -379z" glyph-name="igrave" horiz-adv-x="514" unicode="ì"/><glyph d="M45 0l203 1006h219l-201 -1006h-221zM340 1186l-98 125l362 327l133 -170z" glyph-name="iacute" horiz-adv-x="514" unicode="í"/><glyph d="M45 0l203 1006h219l-201 -1006h-221zM135 1155l-80 92l275 273h239l179 -279l-103 -86l-205 217h-8z" glyph-name="icircumflex" horiz-adv-x="514" unicode="î"/><glyph d="M45 0l203 1006h219l-201 -1006h-221zM195 1188q-45 0 -74 27.5t-29 74.5q0 53 38 93t91 40q45 0 74 -28.5t29 -75.5q0 -55 -38 -93t-91 -38zM600 1188q-45 0 -73.5 27.5t-28.5 74.5q0 53 37.5 93t91.5 40q45 0 73.5 -27.5t28.5 -76.5q0 -55 -38 -93t-91 -38z" glyph-name="idieresis" horiz-adv-x="514" unicode="ï"/><glyph d="M471 154q125 0 207 131t100 333q-82 135 -203 136q-135 0 -215.5 -113t-80.5 -260q0 -96 51 -161.5t141 -65.5zM1110 1317l-264 -107q141 -209 141 -489q0 -197 -59.5 -364t-184.5 -274.5t-292 -107.5q-160 0 -266.5 107.5t-106.5 279.5q0 221 130 391.5t341 170.5 q150 0 229 -131q-16 209 -108 346l-301 -123l-43 108l266 109q-66 68 -180 143l100 129q158 -88 258 -200l297 120z" glyph-name="eth" horiz-adv-x="1087" unicode="ð"/><glyph d="M45 0l201 1006h194l-26 -142h8q197 166 346 166q238 0 238 -254q0 -78 -17 -141l-127 -635h-219l123 606q16 94 16 107q0 129 -127 129q-100 0 -254 -156l-135 -686h-221zM879 1178q-59 0 -104.5 37.5t-81.5 76.5t-75 39q-78 0 -106 -139l-150 8q55 295 269 295 q59 0 104 -38t82 -76t74 -38q82 0 106 138l150 -8q-55 -295 -268 -295z" glyph-name="ntilde" horiz-adv-x="1103" unicode="ñ"/><glyph d="M444 -25q-170 0 -272 111t-102 299q0 279 169 462t384 183q172 0 274 -109.5t102 -299.5q0 -276 -169 -461t-386 -185zM469 154q121 0 214 136t93 324q0 238 -176 238q-123 0 -216 -135t-93 -324q0 -239 178 -239zM750 1165l-293 344l188 142l240 -379z" glyph-name="ograve" horiz-adv-x="1073" unicode="ò"/><glyph d="M444 -25q-170 0 -272 111t-102 299q0 279 169 462t384 183q172 0 274 -109.5t102 -299.5q0 -276 -169 -461t-386 -185zM469 154q121 0 214 136t93 324q0 238 -176 238q-123 0 -216 -135t-93 -324q0 -239 178 -239zM633 1186l-98 125l362 327l133 -170z" glyph-name="oacute" horiz-adv-x="1073" unicode="ó"/><glyph d="M444 -25q-170 0 -272 111t-102 299q0 279 169 462t384 183q172 0 274 -109.5t102 -299.5q0 -276 -169 -461t-386 -185zM469 154q121 0 214 136t93 324q0 238 -176 238q-123 0 -216 -135t-93 -324q0 -239 178 -239zM428 1155l-80 92l275 273h239l178 -279l-102 -86 l-205 217h-8z" glyph-name="ocircumflex" horiz-adv-x="1073" unicode="ô"/><glyph d="M444 -25q-170 0 -272 111t-102 299q0 279 169 462t384 183q172 0 274 -109.5t102 -299.5q0 -276 -169 -461t-386 -185zM469 154q121 0 214 136t93 324q0 238 -176 238q-123 0 -216 -135t-93 -324q0 -239 178 -239zM840 1178q-59 0 -104.5 37.5t-81.5 76.5t-74 39 q-78 0 -107 -139l-149 8q55 295 268 295q59 0 104 -38t82 -76t74 -38q82 0 106 138l150 -8q-55 -295 -268 -295z" glyph-name="otilde" horiz-adv-x="1073" unicode="õ"/><glyph d="M444 -25q-170 0 -272 111t-102 299q0 279 169 462t384 183q172 0 274 -109.5t102 -299.5q0 -276 -169 -461t-386 -185zM469 154q121 0 214 136t93 324q0 238 -176 238q-123 0 -216 -135t-93 -324q0 -239 178 -239zM487 1188q-45 0 -73.5 27.5t-28.5 74.5q0 53 38 93 t91 40q45 0 73.5 -28.5t28.5 -75.5q0 -55 -38 -93t-91 -38zM893 1188q-45 0 -73.5 27.5t-28.5 74.5q0 53 37.5 93t91.5 40q45 0 73.5 -27.5t28.5 -76.5q0 -55 -38 -93t-91 -38z" glyph-name="odieresis" horiz-adv-x="1073" unicode="ö"/><glyph d="M98 598v158h869v-158h-869zM532.5 176q-55.5 0 -93.5 36t-38 91q0 53 38 90t93.5 37t93.5 -37t38 -90q0 -55 -38 -91t-93.5 -36zM532.5 920q-55.5 0 -93.5 36.5t-38 92.5q0 53 38 89t93.5 36t93.5 -36t38 -89q0 -55 -38 -92t-93.5 -37z" glyph-name="divide" horiz-adv-x="1011" unicode="÷"/><glyph d="M326 211q49 -61 135 -61q141 0 235.5 141t94.5 319q0 37 -7 72zM745 788q-53 68 -139 68q-137 0 -233.5 -143.5t-96.5 -319.5q0 -43 7 -80zM127 150q-57 96 -57 235q0 279 169 462t384 183q158 0 262 -98q37 -35 61 -84q53 -96 53 -227q0 -279 -168.5 -462.5 t-386.5 -183.5q-154 0 -256 95z" glyph-name="oslash" horiz-adv-x="1073" unicode="ø"/><glyph d="M1049 1006l-199 -1006h-205l35 143h-8q-186 -168 -336 -168q-240 0 -240 254q0 59 17 142l127 635h219l-121 -607q-16 -76 -16 -106q0 -129 124 -129q100 0 248 155l135 687h220zM737 1165l-293 344l189 142l239 -379z" glyph-name="ugrave" horiz-adv-x="1099" unicode="ù"/><glyph d="M1049 1006l-199 -1006h-205l35 143h-8q-186 -168 -336 -168q-240 0 -240 254q0 59 17 142l127 635h219l-121 -607q-16 -76 -16 -106q0 -129 124 -129q100 0 248 155l135 687h220zM621 1186l-99 125l363 327l133 -170z" glyph-name="uacute" horiz-adv-x="1099" unicode="ú"/><glyph d="M1049 1006l-199 -1006h-205l35 143h-8q-186 -168 -336 -168q-240 0 -240 254q0 59 17 142l127 635h219l-121 -607q-16 -76 -16 -106q0 -129 124 -129q100 0 248 155l135 687h220zM416 1155l-80 92l274 273h240l178 -279l-102 -86l-205 217h-8z" glyph-name="ucircumflex" horiz-adv-x="1099" unicode="û"/><glyph d="M1049 1006l-199 -1006h-205l35 143h-8q-186 -168 -336 -168q-240 0 -240 254q0 59 17 142l127 635h219l-121 -607q-16 -76 -16 -106q0 -129 124 -129q100 0 248 155l135 687h220zM475 1188q-45 0 -73.5 27.5t-28.5 74.5q0 53 38 93t91 40q45 0 73.5 -28.5t28.5 -75.5 q0 -55 -38 -93t-91 -38zM881 1188q-45 0 -74 27.5t-29 74.5q0 53 38 93t91 40q45 0 74 -27.5t29 -76.5q0 -55 -38 -93t-91 -38z" glyph-name="udieresis" horiz-adv-x="1099" unicode="ü"/><glyph d="M31 -414q-66 0 -129 37l69 160q33 -20 74 -21q135 0 225 187l31 61l-174 996h219l96 -744h9l383 744h213l-566 -1059q-102 -180 -204.5 -270.5t-245.5 -90.5zM543 1186l-99 125l363 327l133 -170z" glyph-name="yacute" horiz-adv-x="970" unicode="ý"/><glyph d="M-35 -397l371 1843h219l-72 -356l-49 -193h4q170 133 316 133q137 0 211.5 -95t74.5 -271q0 -283 -163.5 -486t-374.5 -203q-143 0 -223 131h-5l-32 -204l-58 -299h-219zM487 156q129 0 228.5 142t99.5 337q0 215 -151 215q-143 0 -256 -145l-86 -431q61 -118 165 -118z " glyph-name="thorn" horiz-adv-x="1114" unicode="þ"/><glyph d="M31 -414q-66 0 -129 37l69 160q33 -20 74 -21q135 0 225 187l31 61l-174 996h219l96 -744h9l383 744h213l-566 -1059q-102 -180 -204.5 -270.5t-245.5 -90.5zM397 1188q-45 0 -73.5 27.5t-28.5 74.5q0 53 38 93t91 40q45 0 73.5 -28.5t28.5 -75.5q0 -55 -38 -93t-91 -38z M803 1188q-45 0 -74 27.5t-29 74.5q0 53 38 93t91 40q45 0 74 -27.5t29 -76.5q0 -55 -38 -93t-91 -38z" glyph-name="ydieresis" horiz-adv-x="970" unicode="ÿ"/><glyph d="M393 545h342l-39 583h-8zM774 0l-26 377h-437l-186 -377h-244l717 1339h262l144 -1339h-230zM449 1483l28 147h557l-28 -147h-557z" glyph-name="Amacron" horiz-adv-x="1083" unicode="Ā"/><glyph d="M358 -25q-135 0 -210.5 95.5t-75.5 271.5q0 283 163.5 485.5t376.5 202.5q156 0 232 -141h4l26 117h193l-201 -1006h-202l32 139h-6q-131 -164 -332 -164zM449 156q133 0 258 139l92 450q-78 104 -174 105q-129 0 -227.5 -142.5t-98.5 -334.5q0 -217 150 -217zM406 1223 l28 145h551l-27 -145h-552z" glyph-name="amacron" horiz-adv-x="1114" unicode="ā"/><glyph d="M393 545h342l-39 583h-8zM774 0l-26 377h-437l-186 -377h-244l717 1339h262l144 -1339h-230zM721 1436q-143 0 -209 72.5t-59 199.5l139 23q0 -70 40 -112t116 -42q145 0 210 154l129 -23q-37 -127 -129 -199.5t-237 -72.5z" glyph-name="Abreve" horiz-adv-x="1083" unicode="Ă"/><glyph d="M358 -25q-135 0 -210.5 95.5t-75.5 271.5q0 283 163.5 485.5t376.5 202.5q156 0 232 -141h4l26 117h193l-201 -1006h-202l32 139h-6q-131 -164 -332 -164zM449 156q133 0 258 139l92 450q-78 104 -174 105q-129 0 -227.5 -142.5t-98.5 -334.5q0 -217 150 -217zM676 1169 q-158 0 -224.5 89.5t-52.5 228.5l146 22q-4 -78 36 -133t123.5 -55t142 54.5t85.5 133.5l135 -22q-33 -139 -131 -228.5t-260 -89.5z" glyph-name="abreve" horiz-adv-x="1114" unicode="ă"/><glyph d="M393 545h342l-41 585h-8zM860 1339l144 -1339q-104 -47 -155.5 -107.5t-51.5 -117.5q0 -35 20.5 -53.5t50.5 -18.5q33 0 66 21l45 -113q-90 -53 -184 -53q-80 0 -128.5 38.5t-48.5 108.5q0 152 197 295h-41l-26 377h-437l-186 -377h-244l717 1339h262z" glyph-name="Aogonek" horiz-adv-x="1083" unicode="Ą"/><glyph d="M645 -426q-76 0 -121 37t-45 106q0 90 56.5 167t134.5 124l26 133h-4q-162 -166 -334 -166q-135 0 -210.5 95.5t-75.5 271.5q0 283 163.5 485.5t376.5 202.5q74 0 136.5 -39t95.5 -104h4l24 119h195l-201 -1006q-221 -88 -221 -221q0 -31 20.5 -49.5t51.5 -18.5 q37 0 71 23l41 -99q-90 -61 -184 -61zM449 156q152 0 264 170l82 403q-66 121 -170 121q-129 0 -227.5 -142.5t-98.5 -334.5q0 -217 150 -217z" glyph-name="aogonek" horiz-adv-x="1114" unicode="ą"/><glyph d="M608 -25q-227 0 -359 148.5t-132 402.5q0 221 89 412.5t252 308.5t361 117q205 0 342 -147l-151 -150q-90 106 -203 107q-131 0 -239.5 -93.5t-167 -238t-58.5 -299.5q0 -176 76 -276.5t233 -100.5q145 0 256 92l97 -174q-148 -109 -396 -109zM815 1421l-86 127l369 246 l102 -164z" glyph-name="Cacute" horiz-adv-x="1144" unicode="Ć"/><glyph d="M451 -25q-170 0 -276.5 110t-106.5 300q0 268 170 456.5t407 188.5q164 0 264 -69l-108 -168q-72 59 -170 59q-135 0 -236.5 -136t-101.5 -323q0 -240 203 -239q104 0 196 47l88 -156q-72 -41 -141 -55.5t-188 -14.5zM606 1186l-98 125l362 327l134 -170z" glyph-name="cacute" horiz-adv-x="899" unicode="ć"/><glyph d="M608 -25q-227 0 -359 148.5t-132 402.5q0 221 89 412.5t252 308.5t361 117q205 0 342 -147l-151 -150q-90 106 -203 107q-131 0 -239.5 -93.5t-167 -238t-58.5 -299.5q0 -176 76 -276.5t233 -100.5q145 0 256 92l97 -174q-148 -109 -396 -109zM637 1417l-92 74l239 221 h254l158 -227l-111 -66l-180 180h-8z" glyph-name="Ccircumflex" horiz-adv-x="1144" unicode="Ĉ"/><glyph d="M451 -25q-170 0 -276.5 110t-106.5 300q0 268 170 456.5t407 188.5q164 0 264 -69l-108 -168q-72 59 -170 59q-135 0 -236.5 -136t-101.5 -323q0 -240 203 -239q104 0 196 47l88 -156q-72 -41 -141 -55.5t-188 -14.5zM401 1155l-79 92l274 273h240l178 -279l-103 -86 l-204 217h-9z" glyph-name="ccircumflex" horiz-adv-x="899" unicode="ĉ"/><glyph d="M608 -25q-227 0 -359 148.5t-132 402.5q0 221 89 412.5t252 308.5t361 117q205 0 342 -147l-151 -150q-90 106 -203 107q-131 0 -239.5 -93.5t-167 -238t-58.5 -299.5q0 -176 76 -276.5t233 -100.5q145 0 256 92l97 -174q-148 -109 -396 -109zM872 1452q-53 0 -90 30.5 t-37 84.5q0 59 44.5 101t103.5 42q51 0 89 -31.5t38 -85.5q0 -61 -43.5 -101t-104.5 -40z" glyph-name="Cdotaccent" horiz-adv-x="1144" unicode="Ċ"/><glyph d="M451 -25q-170 0 -276.5 110t-106.5 300q0 268 170 456.5t407 188.5q164 0 264 -69l-108 -168q-72 59 -170 59q-135 0 -236.5 -136t-101.5 -323q0 -240 203 -239q104 0 196 47l88 -156q-72 -41 -141 -55.5t-188 -14.5zM666 1184q-51 0 -89 30.5t-38 83.5q0 59 44 101.5 t103 42.5q51 0 89 -31t38 -84q0 -61 -43 -102t-104 -41z" glyph-name="cdotaccent" horiz-adv-x="899" unicode="ċ"/><glyph d="M608 -25q-227 0 -359 148.5t-132 402.5q0 221 89 412.5t252 308.5t361 117q205 0 342 -147l-151 -150q-90 106 -203 107q-131 0 -239.5 -93.5t-167 -238t-58.5 -299.5q0 -176 76 -276.5t233 -100.5q145 0 256 92l97 -174q-148 -109 -396 -109zM725 1442l-156 229l109 66 l180 -181h8l260 181l93 -74l-240 -221h-254z" glyph-name="Ccaron" horiz-adv-x="1144" unicode="Č"/><glyph d="M451 -25q-170 0 -276.5 110t-106.5 300q0 268 170 456.5t407 188.5q164 0 264 -69l-108 -168q-72 59 -170 59q-135 0 -236.5 -136t-101.5 -323q0 -240 203 -239q104 0 196 47l88 -156q-72 -41 -141 -55.5t-188 -14.5zM518 1182l-180 278l102 84l207 -215h8l295 215 l82 -90l-276 -272h-238z" glyph-name="ccaron" horiz-adv-x="899" unicode="č"/><glyph d="M66 0l266 1339h272q283 0 431.5 -134t148.5 -390q0 -379 -199 -597t-530 -218h-389zM322 178h129q229 0 368 166t139 457q0 178 -93 269t-267 91h-82zM647 1442l-155 229l108 66l180 -181h8l261 181l92 -74l-240 -221h-254z" glyph-name="Dcaron" horiz-adv-x="1236" unicode="Ď"/><glyph d="M827 897l93 457l233 67l-287 -1421h-198l28 139h-6q-160 -164 -332 -164q-135 0 -210.5 95.5t-75.5 271.5q0 283 163.5 485.5t376.5 202.5q74 0 131.5 -37t77.5 -96h6zM449 156q147 0 264 170l84 413q-76 111 -172 111q-129 0 -227.5 -142.5t-98.5 -334.5 q0 -217 150 -217zM1182 1122l82 445h145l-27 -129l-100 -316h-100z" glyph-name="dcaron" horiz-adv-x="1138" unicode="ď"/><glyph d="M358 178h129q229 0 368.5 166t139.5 457q0 178 -93 269t-267 91h-82l-80 -401h281l-25 -115h-278zM369 1339h272q283 0 431.5 -134t148.5 -390q0 -379 -199 -597t-530 -218h-390l129 645h-145l25 115h143z" glyph-name="Dcroat" horiz-adv-x="1273" unicode="Đ"/><glyph d="M713 326l73 360q-57 123 -163 123q-127 0 -225.5 -136t-98.5 -300q0 -217 150 -217q147 0 264 170zM1264 1272l-27 -115h-137l-234 -1157h-198l28 139h-6q-160 -164 -332 -164q-135 0 -210.5 95.5t-75.5 271.5q0 256 163.5 451.5t374.5 195.5q152 0 201 -133h6l64 301 h-306l23 115h305l35 174h219l-35 -174h142z" glyph-name="dcroat" horiz-adv-x="1110" unicode="đ"/><glyph d="M66 0l266 1339h768l-74 -186h-512l-72 -360h342l-36 -187h-340l-86 -420h565l-37 -186h-784zM463 1483l29 147h557l-29 -147h-557z" glyph-name="Emacron" horiz-adv-x="1054" unicode="Ē"/><glyph d="M68 401q0 270 170 449.5t378 179.5q166 0 243 -101.5t77 -269.5q0 -59 -29 -213h-626q-16 -152 54.5 -227.5t192.5 -75.5q117 0 209 74l94 -147q-117 -94 -360 -95q-182 0 -292.5 113.5t-110.5 312.5zM297 575h444q12 61 13 99q0 82 -39 134t-125 52q-96 0 -176 -75 t-117 -210zM379 1223l29 145h550l-26 -145h-553z" glyph-name="emacron" horiz-adv-x="999" unicode="ē"/><glyph d="M66 0l266 1339h768l-74 -186h-512l-72 -360h342l-36 -187h-340l-86 -420h565l-37 -186h-784zM735 1436q-143 0 -208.5 72.5t-59.5 199.5l139 23q0 -70 40 -112t116 -42q145 0 211 154l129 -23q-37 -127 -129.5 -199.5t-237.5 -72.5z" glyph-name="Ebreve" horiz-adv-x="1054" unicode="Ĕ"/><glyph d="M68 401q0 270 170 449.5t378 179.5q166 0 243 -101.5t77 -269.5q0 -59 -29 -213h-626q-16 -152 54.5 -227.5t192.5 -75.5q117 0 209 74l94 -147q-117 -94 -360 -95q-182 0 -292.5 113.5t-110.5 312.5zM297 575h444q12 61 13 99q0 82 -39 134t-125 52q-96 0 -176 -75 t-117 -210zM649 1169q-158 0 -224.5 89.5t-51.5 228.5l145 22q-4 -78 36 -133t124 -55t142.5 54.5t84.5 133.5l135 -22q-33 -139 -131 -228.5t-260 -89.5z" glyph-name="ebreve" horiz-adv-x="999" unicode="ĕ"/><glyph d="M66 0l266 1339h768l-74 -186h-512l-72 -360h342l-36 -187h-340l-86 -420h565l-37 -186h-784zM750 1452q-53 0 -90 30.5t-37 84.5q0 59 44 101t103 42q51 0 89 -31.5t38 -85.5q0 -61 -43 -101t-104 -40z" glyph-name="Edotaccent" horiz-adv-x="1054" unicode="Ė"/><glyph d="M68 401q0 270 170 449.5t378 179.5q166 0 243 -101.5t77 -269.5q0 -59 -29 -213h-626q-16 -152 54.5 -227.5t192.5 -75.5q117 0 209 74l94 -147q-117 -94 -360 -95q-182 0 -292.5 113.5t-110.5 312.5zM297 575h444q12 61 13 99q0 82 -39 134t-125 52q-96 0 -176 -75 t-117 -210zM662 1184q-51 0 -89 30.5t-38 83.5q0 59 44 101.5t103 42.5q51 0 89 -31t38 -84q0 -61 -43 -102t-104 -41z" glyph-name="edotaccent" horiz-adv-x="999" unicode="ė"/><glyph d="M66 0l266 1339h768l-72 -186h-514l-72 -360h308l-37 -187h-305l-86 -420h565l-37 -186q-86 -12 -151.5 -88t-65.5 -137q0 -35 20.5 -53.5t51.5 -18.5q33 0 65 21l45 -113q-90 -53 -184 -53q-80 0 -128 38.5t-48 108.5q0 88 61.5 167t132.5 128h-583z" glyph-name="Eogonek" horiz-adv-x="1054" unicode="Ę"/><glyph d="M356 -283q0 125 160 263q-29 -4 -43 -5q-182 0 -293.5 114t-111.5 312q0 270 170 449.5t378 179.5q166 0 243 -101.5t77 -269.5q0 -29 -29 -213h-626q-16 -152 54.5 -227.5t192.5 -75.5q106 0 205 84l107 -145q-319 -154 -320 -303q0 -31 20.5 -49.5t53.5 -18.5 q31 0 72 23l39 -99q-90 -61 -185 -61q-76 0 -120 36.5t-44 106.5zM299 580h444q10 53 11 94q0 82 -39 134t-125 52q-94 0 -174 -74.5t-117 -205.5z" glyph-name="eogonek" horiz-adv-x="999" unicode="ę"/><glyph d="M66 0l266 1339h768l-74 -186h-512l-72 -360h342l-36 -187h-340l-86 -420h565l-37 -186h-784zM602 1442l-156 229l109 66l180 -181h8l261 181l92 -74l-240 -221h-254z" glyph-name="Ecaron" horiz-adv-x="1054" unicode="Ě"/><glyph d="M68 401q0 270 170 449.5t378 179.5q166 0 243 -101.5t77 -269.5q0 -59 -29 -213h-626q-16 -152 54.5 -227.5t192.5 -75.5q117 0 209 74l94 -147q-117 -94 -360 -95q-182 0 -292.5 113.5t-110.5 312.5zM297 575h444q12 61 13 99q0 82 -39 134t-125 52q-96 0 -176 -75 t-117 -210zM514 1182l-180 278l102 84l207 -215h8l295 215l82 -90l-276 -272h-238z" glyph-name="ecaron" horiz-adv-x="999" unicode="ě"/><glyph d="M629 -25q-244 0 -378 146.5t-134 404.5q0 344 203.5 591t519.5 247q211 0 354 -137l-152 -158q-76 104 -215 105q-209 0 -347 -194t-138 -437q0 -379 324 -379q109 0 186 63l82 406l215 90l-121 -610q-168 -138 -399 -138zM631 1417l-92 74l239 221h254l158 -227 l-111 -66l-180 180h-8z" glyph-name="Gcircumflex" horiz-adv-x="1228" unicode="Ĝ"/><glyph d="M348 -446q-195 0 -362 139l98 147q131 -111 270 -110q223 0 287 254l51 194q-154 -158 -327 -158q-133 0 -213 91.5t-80 263.5q0 268 159.5 461.5t368.5 193.5q74 0 134.5 -38t92.5 -103h7l26 117h195l-205 -1020q-43 -213 -171 -322.5t-331 -109.5zM444.5 203 q145.5 0 260.5 151l75 373q-66 123 -168 123q-123 0 -218 -134t-95 -313q0 -200 145.5 -200zM410 1155l-80 92l274 273h240l178 -279l-102 -86l-205 217h-8z" glyph-name="gcircumflex" horiz-adv-x="1101" unicode="ĝ"/><glyph d="M629 -25q-244 0 -378 146.5t-134 404.5q0 344 203.5 591t519.5 247q211 0 354 -137l-152 -158q-76 104 -215 105q-209 0 -347 -194t-138 -437q0 -379 324 -379q109 0 186 63l82 406l215 90l-121 -610q-168 -138 -399 -138zM852 1436q-143 0 -208.5 72.5t-59.5 199.5 l139 23q0 -70 40 -112t116 -42q145 0 211 154l129 -23q-37 -127 -129.5 -199.5t-237.5 -72.5z" glyph-name="Gbreve" horiz-adv-x="1228" unicode="Ğ"/><glyph d="M348 -446q-195 0 -362 139l98 147q131 -111 270 -110q223 0 287 254l51 194q-154 -158 -327 -158q-133 0 -213 91.5t-80 263.5q0 268 159.5 461.5t368.5 193.5q74 0 134.5 -38t92.5 -103h7l26 117h195l-205 -1020q-43 -213 -171 -322.5t-331 -109.5zM444.5 203 q145.5 0 260.5 151l75 373q-66 123 -168 123q-123 0 -218 -134t-95 -313q0 -200 145.5 -200zM662 1169q-158 0 -224.5 89.5t-52.5 228.5l145 22q-4 -78 36 -133t124 -55t142.5 54.5t85.5 133.5l135 -22q-33 -139 -131 -228.5t-260 -89.5z" glyph-name="gbreve" horiz-adv-x="1101" unicode="ğ"/><glyph d="M629 -25q-244 0 -378 146.5t-134 404.5q0 344 203.5 591t519.5 247q211 0 354 -137l-152 -158q-76 104 -215 105q-209 0 -347 -194t-138 -437q0 -379 324 -379q109 0 186 63l82 406l215 90l-121 -610q-168 -138 -399 -138zM866 1452q-53 0 -90 30.5t-37 84.5q0 59 44 101 t104 42q51 0 89 -31.5t38 -85.5q0 -61 -43.5 -101t-104.5 -40z" glyph-name="Gdotaccent" horiz-adv-x="1228" unicode="Ġ"/><glyph d="M348 -446q-195 0 -362 139l98 147q131 -111 270 -110q223 0 287 254l51 194q-154 -158 -327 -158q-133 0 -213 91.5t-80 263.5q0 268 159.5 461.5t368.5 193.5q74 0 134.5 -38t92.5 -103h7l26 117h195l-205 -1020q-43 -213 -171 -322.5t-331 -109.5zM444.5 203 q145.5 0 260.5 151l75 373q-66 123 -168 123q-123 0 -218 -134t-95 -313q0 -200 145.5 -200zM674 1184q-51 0 -89 30.5t-38 83.5q0 59 44 101.5t103 42.5q51 0 89 -31t38 -84q0 -61 -43 -102t-104 -41z" glyph-name="gdotaccent" horiz-adv-x="1101" unicode="ġ"/><glyph d="M629 -25q-244 0 -378 146.5t-134 404.5q0 344 203.5 591t519.5 247q211 0 354 -137l-152 -158q-76 104 -215 105q-209 0 -347 -194t-138 -437q0 -379 324 -379q109 0 186 63l82 406l215 90l-121 -610q-168 -138 -399 -138zM358 -461l2 101q229 12 230 98q0 66 -121 74 l61 92q135 -6 186.5 -43t51.5 -99q0 -106 -112 -162.5t-298 -60.5z" glyph-name="Gcommaaccent" horiz-adv-x="1228" unicode="Ģ"/><glyph d="M348 -446q-195 0 -362 139l98 147q131 -111 270 -110q223 0 287 254l51 194q-154 -158 -327 -158q-133 0 -213 91.5t-80 263.5q0 268 159.5 461.5t368.5 193.5q74 0 134.5 -38t92.5 -103h7l26 117h195l-205 -1020q-43 -213 -171 -322.5t-331 -109.5zM444.5 203 q145.5 0 260.5 151l75 373q-66 123 -168 123q-123 0 -218 -134t-95 -313q0 -200 145.5 -200zM819 1266l-61 -95q-139 12 -188.5 46t-49.5 98q0 106 111.5 161.5t298.5 59.5l-2 -100q-229 -8 -230 -99q0 -63 121 -71z" glyph-name="gcommaaccent" horiz-adv-x="1101" unicode="ģ"/><glyph d="M66 0l266 1339h221l-111 -542h531l108 542h222l-269 -1339h-221l123 604h-530l-119 -604h-221zM586 1417l-92 74l239 221h254l158 -227l-111 -66l-180 180h-8z" glyph-name="Hcircumflex" horiz-adv-x="1306" unicode="Ĥ"/><glyph d="M45 0l272 1352l238 94l-119 -572h8q164 156 324 156q238 0 238 -254q0 -78 -17 -141l-127 -635h-219l123 606q16 94 16 107q0 129 -127 129q-100 0 -254 -156l-135 -686h-221zM236 1520l-93 73l240 222h254l158 -228l-111 -65l-180 180h-8z" glyph-name="hcircumflex" horiz-adv-x="1091" unicode="ĥ"/><glyph d="M985 797l41 209h-528l-43 -209h530zM1452 1120l-22 -114h-183l-200 -1006h-222l123 604h-530l-119 -604h-221l201 1006h-129l24 112h127l43 221h221l-45 -219h531l43 219h221l-43 -219h180z" glyph-name="Hbar" horiz-adv-x="1331" unicode="Ħ"/><glyph d="M420 834h8q184 156 332 155q238 0 237 -254q0 -78 -16 -141l-119 -594h-219l115 565q16 94 16 107q0 129 -127 129q-100 0 -254 -156l-127 -645h-221l234 1157h-144l21 115h145l21 96l233 78l-37 -174h346l-24 -115h-344l-37 -178z" glyph-name="hbar" horiz-adv-x="1091" unicode="ħ"/><glyph d="M66 0l266 1339h221l-266 -1339h-221zM590 1434q-49 0 -91 20.5t-65.5 46t-52.5 46t-55 20.5q-74 0 -109 -119l-149 12q29 135 102.5 204t177.5 69q61 0 110.5 -33t86.5 -65.5t67 -32.5q70 0 109 118l149 -12q-29 -135 -103.5 -204.5t-176.5 -69.5z" glyph-name="Itilde" horiz-adv-x="559" unicode="Ĩ"/><glyph d="M45 0l203 1006h219l-201 -1006h-221zM547 1178q-59 0 -104.5 37.5t-81 76.5t-74.5 39q-78 0 -107 -139l-149 8q55 295 268 295q59 0 104.5 -38t82 -76t73.5 -38q82 0 107 138l149 -8q-55 -295 -268 -295z" glyph-name="itilde" horiz-adv-x="514" unicode="ĩ"/><glyph d="M66 0l266 1339h221l-266 -1339h-221zM170 1483l29 147h557l-29 -147h-557z" glyph-name="Imacron" horiz-adv-x="559" unicode="Ī"/><glyph d="M45 0l203 1006h219l-201 -1006h-221zM117 1223l28 145h551l-26 -145h-553z" glyph-name="imacron" horiz-adv-x="514" unicode="ī"/><glyph d="M66 0l266 1339h221l-266 -1339h-221zM442 1436q-143 0 -208.5 72.5t-59.5 199.5l139 23q0 -70 40 -112t116 -42q145 0 211 154l129 -23q-37 -127 -129.5 -199.5t-237.5 -72.5z" glyph-name="Ibreve" horiz-adv-x="559" unicode="Ĭ"/><glyph d="M45 0l203 1006h219l-201 -1006h-221zM387 1169q-158 0 -224.5 89.5t-51.5 228.5l145 22q-4 -78 36 -133t124 -55t142 54.5t85 133.5l135 -22q-33 -139 -131 -228.5t-260 -89.5z" glyph-name="ibreve" horiz-adv-x="514" unicode="ĭ"/><glyph d="M96 -442q-78 0 -125 38.5t-47 108.5q0 86 59.5 164t129.5 131h-47l266 1339h221l-266 -1339q-84 -41 -135.5 -105.5t-51.5 -119.5q0 -35 20.5 -53.5t53.5 -18.5q31 0 64 21l45 -109q-83 -57 -187 -57z" glyph-name="Iogonek" horiz-adv-x="559" unicode="Į"/><glyph d="M82 -426q-76 0 -120 37t-44 106q0 84 58.5 160t127.5 123h-59l203 1006h219l-201 -1006q-184 -94 -184 -221q0 -31 20.5 -49.5t53.5 -18.5q35 0 69 23l41 -99q-90 -61 -184 -61zM410 1184q-51 0 -88 30.5t-37 83.5q0 59 43 101.5t104 42.5q51 0 88 -31t37 -84 q0 -61 -43 -102t-104 -41z" glyph-name="iogonek" horiz-adv-x="514" unicode="į"/><glyph d="M66 0l266 1339h221l-266 -1339h-221zM457 1452q-53 0 -90 30.5t-37 84.5q0 59 44 101t103 42q51 0 89 -31.5t38 -85.5q0 -61 -43 -101t-104 -40z" glyph-name="Idotaccent" horiz-adv-x="559" unicode="İ"/><glyph d="M45 0l203 1006h219l-201 -1006h-221z" glyph-name="dotlessi" horiz-adv-x="514" unicode="ı"/><glyph d="M344 -25q-119 0 -211 54.5t-143 150.5l139 129q66 -143 215 -143q178 0 231 266l181 907h221l-189 -942q-35 -188 -147.5 -305t-296.5 -117zM643 1417l-92 74l240 221h253l158 -227l-110 -66l-181 180h-8z" glyph-name="Jcircumflex" horiz-adv-x="970" unicode="Ĵ"/><glyph d="M-86 -422l-43 168q88 18 115 57q25 33 47 123l217 1080h219l-217 -1084q-37 -164 -116 -254t-222 -90zM131 1155l-80 92l275 273h239l178 -279l-102 -86l-205 217h-8z" glyph-name="jcircumflex" horiz-adv-x="516" unicode="ĵ"/><glyph d="M66 0l266 1339h221l-121 -606h8l586 606h244l-494 -532l309 -807h-237l-236 668l-241 -246l-84 -422h-221zM309 -461l2 101q229 12 230 98q0 66 -121 74l61 92q135 -6 186.5 -43t51.5 -99q0 -106 -112 -162.5t-298 -60.5z" glyph-name="Kcommaaccent" horiz-adv-x="1191" unicode="Ķ"/><glyph d="M45 0l272 1356l234 67l-178 -886h8l444 469h246l-405 -431l266 -575h-248l-172 446l-197 -198l-49 -248h-221zM197 -461l2 101q229 12 229 98q0 66 -121 74l62 92q135 -6 186 -43t51 -99q0 -106 -111.5 -162.5t-297.5 -60.5z" glyph-name="kcommaaccent" horiz-adv-x="1026" unicode="ķ"/><glyph d="M45 0l201 1006h219l-92 -469h8l444 469h246l-405 -431l239 -575h-221l-172 446l-197 -198l-49 -248h-221z" glyph-name="kgreenlandic" horiz-adv-x="1026" unicode="ĸ"/><glyph d="M66 0l266 1339h221l-229 -1153h534l-37 -186h-755zM422 1421l-86 127l369 246l102 -164z" glyph-name="Lacute" horiz-adv-x="985" unicode="Ĺ"/><glyph d="M266 0h-219l270 1354l230 63zM424 1532l-86 127l369 246l102 -164z" glyph-name="lacute" horiz-adv-x="536" unicode="ĺ"/><glyph d="M66 0l266 1339h221l-229 -1153h534l-37 -186h-755zM201 -461l2 101q229 12 229 98q0 66 -121 74l62 92q135 -6 186 -43t51 -99q0 -106 -111.5 -162.5t-297.5 -60.5z" glyph-name="Lcommaaccent" horiz-adv-x="985" unicode="Ļ"/><glyph d="M266 0h-219l270 1354l230 63zM-113 -461l2 101q229 12 230 98q0 66 -121 74l61 92q135 -6 186.5 -43t51.5 -99q0 -106 -112 -162.5t-298 -60.5z" glyph-name="lcommaaccent" horiz-adv-x="536" unicode="ļ"/><glyph d="M66 0l266 1339h221l-229 -1153h534l-37 -186h-755zM778 1047l82 444h146l-27 -129l-100 -315h-101z" glyph-name="Lcaron" horiz-adv-x="985" unicode="Ľ"/><glyph d="M266 0h-219l270 1354l230 63zM580 1122l82 445h145l-27 -129l-100 -316h-100z" glyph-name="lcaron" horiz-adv-x="536" unicode="ľ"/><glyph d="M66 0l266 1339h221l-229 -1153h534l-37 -186h-755zM784 520q-55 0 -87.5 36t-32.5 91q0 68 49 122t121 54q55 0 86.5 -35.5t31.5 -93.5q0 -70 -47 -122t-121 -52z" glyph-name="Ldot" horiz-adv-x="985" unicode="Ŀ"/><glyph d="M266 0h-219l270 1354l230 63zM653 530q-55 0 -88 36t-33 91q0 68 49.5 122.5t120.5 54.5q55 0 87 -36t32 -93q0 -70 -47 -122.5t-121 -52.5z" glyph-name="ldot" horiz-adv-x="772" unicode="ŀ"/><glyph d="M324 186h534l-37 -186h-755l90 453l-129 -64l-54 143l220 107l139 700h221l-117 -585l342 170l56 -146l-435 -213z" glyph-name="Lslash" horiz-adv-x="985" unicode="Ł"/><glyph d="M430 748l-151 -748h-220l129 639l-110 -61l-51 133l198 106l109 551l235 78l-104 -518l123 71l55 -133z" glyph-name="lslash" horiz-adv-x="550" unicode="ł"/><glyph d="M66 0l266 1339h217l328 -952h8l192 952h213l-268 -1339h-215l-326 989h-8l-197 -989h-210zM784 1421l-86 127l369 246l102 -164z" glyph-name="Nacute" horiz-adv-x="1292" unicode="Ń"/><glyph d="M45 0l201 1006h194l-26 -142h8q197 166 346 166q238 0 238 -254q0 -78 -17 -141l-127 -635h-219l123 606q16 94 16 107q0 129 -127 129q-100 0 -254 -156l-135 -686h-221zM672 1186l-99 125l363 327l133 -170z" glyph-name="nacute" horiz-adv-x="1103" unicode="ń"/><glyph d="M66 0l266 1339h217l328 -952h8l192 952h213l-268 -1339h-215l-326 989h-8l-197 -989h-210zM315 -477l2 100q229 12 230 98q0 66 -121 74l61 92q135 -6 186.5 -43t51.5 -98q0 -106 -112 -162.5t-298 -60.5z" glyph-name="Ncommaaccent" horiz-adv-x="1292" unicode="Ņ"/><glyph d="M45 0l201 1006h194l-26 -142h8q197 166 346 166q238 0 238 -254q0 -78 -17 -141l-127 -635h-219l123 606q16 94 16 107q0 129 -127 129q-100 0 -254 -156l-135 -686h-221zM203 -461l2 101q229 12 229 98q0 66 -121 74l62 92q135 -6 186 -43t51 -99q0 -106 -111.5 -162.5 t-297.5 -60.5z" glyph-name="ncommaaccent" horiz-adv-x="1103" unicode="ņ"/><glyph d="M66 0l266 1339h217l328 -952h8l192 952h213l-268 -1339h-215l-326 989h-8l-197 -989h-210zM694 1442l-155 229l108 66l180 -181h9l260 181l92 -74l-240 -221h-254z" glyph-name="Ncaron" horiz-adv-x="1292" unicode="Ň"/><glyph d="M45 0l201 1006h194l-26 -142h8q197 166 346 166q238 0 238 -254q0 -78 -17 -141l-127 -635h-219l123 606q16 94 16 107q0 129 -127 129q-100 0 -254 -156l-135 -686h-221zM584 1182l-181 278l103 84l207 -215h8l295 215l82 -90l-277 -272h-237z" glyph-name="ncaron" horiz-adv-x="1103" unicode="ň"/><glyph d="M438 1178h-10q-55 0 -90 28.5t-35 81.5q0 59 40 100.5t103 41.5q59 0 94 -44.5t35 -123.5q0 -156 -88 -266.5t-225 -159.5l-39 100q98 41 155.5 112t59.5 130zM549 0l201 1006h194l-26 -142h8q197 166 346 166q238 0 237 -254q0 -78 -16 -141l-127 -635h-219l123 606 q16 94 16 107q0 129 -127 129q-100 0 -254 -156l-135 -686h-221z" glyph-name="napostrophe" horiz-adv-x="1599" unicode="ŉ"/><glyph d="M602 -25q-225 0 -354 152t-129 412q0 334 195.5 579.5t471.5 245.5q225 0 354.5 -151.5t129.5 -411.5q0 -336 -194.5 -581t-473.5 -245zM614 166q174 0 302 189.5t128 428.5q0 184 -68.5 287t-201.5 103q-174 0 -301 -189.5t-127 -429.5q0 -184 67.5 -286.5t200.5 -102.5 zM565 1483l29 147h557l-29 -147h-557z" glyph-name="Omacron" horiz-adv-x="1325" unicode="Ō"/><glyph d="M444 -25q-170 0 -272 111t-102 299q0 279 169 462t384 183q172 0 274 -109.5t102 -299.5q0 -276 -169 -461t-386 -185zM469 154q121 0 214 136t93 324q0 238 -176 238q-123 0 -216 -135t-93 -324q0 -239 178 -239zM410 1223l28 145h551l-26 -145h-553z" glyph-name="omacron" horiz-adv-x="1073" unicode="ō"/><glyph d="M602 -25q-225 0 -354 152t-129 412q0 334 195.5 579.5t471.5 245.5q225 0 354.5 -151.5t129.5 -411.5q0 -336 -194.5 -581t-473.5 -245zM614 166q174 0 302 189.5t128 428.5q0 184 -68.5 287t-201.5 103q-174 0 -301 -189.5t-127 -429.5q0 -184 67.5 -286.5t200.5 -102.5 zM838 1436q-143 0 -209 72.5t-60 199.5l140 23q0 -70 39.5 -112t115.5 -42q145 0 211 154l129 -23q-37 -127 -129 -199.5t-237 -72.5z" glyph-name="Obreve" horiz-adv-x="1325" unicode="Ŏ"/><glyph d="M444 -25q-170 0 -272 111t-102 299q0 279 169 462t384 183q172 0 274 -109.5t102 -299.5q0 -276 -169 -461t-386 -185zM469 154q121 0 214 136t93 324q0 238 -176 238q-123 0 -216 -135t-93 -324q0 -239 178 -239zM680 1169q-158 0 -224.5 89.5t-52.5 228.5l146 22 q-4 -78 36 -133t124 -55t142 54.5t85 133.5l135 -22q-33 -139 -131 -228.5t-260 -89.5z" glyph-name="obreve" horiz-adv-x="1073" unicode="ŏ"/><glyph d="M602 -25q-225 0 -354 152t-129 412q0 334 195.5 579.5t471.5 245.5q225 0 354.5 -151.5t129.5 -411.5q0 -336 -194.5 -581t-473.5 -245zM614 166q174 0 302 189.5t128 428.5q0 184 -68.5 287t-201.5 103q-174 0 -301 -189.5t-127 -429.5q0 -184 67.5 -286.5t200.5 -102.5 zM727 1436l-109 67l254 301l138 -100zM1083 1436l-108 67l254 301l137 -100z" glyph-name="Ohungarumlaut" horiz-adv-x="1325" unicode="Ő"/><glyph d="M444 -25q-170 0 -272 111t-102 299q0 279 169 462t384 183q172 0 274 -109.5t102 -299.5q0 -276 -169 -461t-386 -185zM469 154q121 0 214 136t93 324q0 238 -176 238q-123 0 -216 -135t-93 -324q0 -239 178 -239zM582 1165l-117 70l244 342l145 -90zM920 1165l-117 70 l244 342l145 -90z" glyph-name="ohungarumlaut" horiz-adv-x="1073" unicode="ő"/><glyph d="M1485 0h-785q-283 0 -432 134t-149 390q0 379 198.5 597t532.5 218h883l-66 -186h-487l-74 -379h342l-33 -168h-342l-86 -420h535zM707 178h61l195 983h-109q-229 0 -368.5 -166t-139.5 -456q0 -178 93.5 -269.5t267.5 -91.5z" glyph-name="OE" horiz-adv-x="1689" unicode="Œ"/><glyph d="M432 -25q-166 0 -264 111t-98 299q0 279 165.5 462t374.5 183q227 0 299 -225q66 106 161 165.5t194 59.5q166 0 243.5 -101.5t77.5 -269.5q0 -66 -31 -213h-600q-12 -152 51.5 -227.5t172.5 -75.5q115 0 208 78l101 -139q-68 -53 -146 -82q-74 -25 -204 -25 q-246 0 -318 238q-72 -113 -174 -175.5t-213 -62.5zM469 154q117 0 206 136t89 324q0 238 -176 238q-115 0 -206 -136t-91 -323q0 -239 178 -239zM973 575h418q10 51 10 99q0 82 -39 134t-125 52q-84 0 -156.5 -75t-107.5 -210z" glyph-name="oe" horiz-adv-x="1648" unicode="œ"/><glyph d="M428 705h170q170 0 259 73.5t89 202.5q0 96 -64.5 139t-197.5 43h-168zM332 1339h395q203 0 320.5 -78.5t117.5 -248.5q0 -178 -100 -297t-266 -160l221 -555h-236l-194 528h-199l-104 -528h-221zM719 1421l-86 127l368 246l103 -164z" glyph-name="Racute" horiz-adv-x="1179" unicode="Ŕ"/><glyph d="M45 0l201 1006h203l-43 -195h8q139 219 432 221l-125 -213q-201 4 -336 -211l-119 -608h-221zM510 1186l-98 125l362 327l133 -170z" glyph-name="racute" horiz-adv-x="743" unicode="ŕ"/><glyph d="M428 705h170q170 0 259 73.5t89 202.5q0 96 -64.5 139t-197.5 43h-168zM332 1339h395q203 0 320.5 -78.5t117.5 -248.5q0 -178 -100 -297t-266 -160l221 -555h-236l-194 528h-199l-104 -528h-221zM283 -477l2 100q229 12 229 98q0 66 -121 74l62 92q135 -6 186 -43 t51 -98q0 -106 -111.5 -162.5t-297.5 -60.5z" glyph-name="Rcommaaccent" horiz-adv-x="1179" unicode="Ŗ"/><glyph d="M45 0l201 1006h203l-43 -195h8q139 219 432 221l-125 -213q-201 4 -336 -211l-119 -608h-221zM-109 -461l3 101q229 12 229 98q0 66 -121 74l61 92q135 -6 186.5 -43t51.5 -99q0 -106 -112 -162.5t-298 -60.5z" glyph-name="rcommaaccent" horiz-adv-x="743" unicode="ŗ"/><glyph d="M428 705h170q170 0 259 73.5t89 202.5q0 96 -64.5 139t-197.5 43h-168zM332 1339h395q203 0 320.5 -78.5t117.5 -248.5q0 -178 -100 -297t-266 -160l221 -555h-236l-194 528h-199l-104 -528h-221zM629 1442l-156 229l109 66l180 -181h8l260 181l92 -74l-239 -221h-254z " glyph-name="Rcaron" horiz-adv-x="1179" unicode="Ř"/><glyph d="M45 0l201 1006h203l-43 -195h8q139 219 432 221l-125 -213q-201 4 -336 -211l-119 -608h-221zM422 1182l-180 278l102 84l207 -215h8l295 215l82 -90l-277 -272h-237z" glyph-name="rcaron" horiz-adv-x="743" unicode="ř"/><glyph d="M479 -25q-270 0 -463 172l154 162q156 -145 328 -145q106 0 172.5 55t66.5 148q0 57 -39 99t-123 93l-141 86q-203 125 -203 326q0 162 128 277.5t317 115.5q215 0 393 -121l-141 -176q-113 106 -264 107q-94 0 -149.5 -53.5t-55.5 -127.5q0 -59 38 -97t132 -95l143 -86 q102 -59 148.5 -132t46.5 -186q0 -182 -136.5 -302t-351.5 -120zM680 1430l-86 126l369 246l102 -164z" glyph-name="Sacute" horiz-adv-x="1060" unicode="Ś"/><glyph d="M340 -25q-123 0 -227 48q-98 47 -125 77l131 136q109 -96 237 -97q72 0 124 38t52 93q0 43 -36.5 75t-143.5 93q-215 119 -215 279q0 135 106.5 224t260.5 89q182 0 315 -96l-117 -141q-84 72 -198 71q-70 0 -115 -36.5t-45 -90.5q0 -16 4 -29.5t15.5 -25.5t20.5 -21.5 t28.5 -21.5t30 -18.5t37 -20.5t36.5 -20q117 -61 170 -127t53 -156q0 -145 -111.5 -233.5t-287.5 -88.5zM512 1186l-98 125l362 327l133 -170z" glyph-name="sacute" horiz-adv-x="845" unicode="ś"/><glyph d="M479 -25q-270 0 -463 172l154 162q156 -145 328 -145q106 0 172.5 55t66.5 148q0 57 -39 99t-123 93l-141 86q-203 125 -203 326q0 162 128 277.5t317 115.5q215 0 393 -121l-141 -176q-113 106 -264 107q-94 0 -149.5 -53.5t-55.5 -127.5q0 -59 38 -97t132 -95l143 -86 q102 -59 148.5 -132t46.5 -186q0 -182 -136.5 -302t-351.5 -120zM502 1425l-92 74l239 221h254l158 -227l-111 -66l-180 181h-8z" glyph-name="Scircumflex" horiz-adv-x="1060" unicode="Ŝ"/><glyph d="M340 -25q-123 0 -227 48q-98 47 -125 77l131 136q109 -96 237 -97q72 0 124 38t52 93q0 43 -36.5 75t-143.5 93q-215 119 -215 279q0 135 106.5 224t260.5 89q182 0 315 -96l-117 -141q-84 72 -198 71q-70 0 -115 -36.5t-45 -90.5q0 -16 4 -29.5t15.5 -25.5t20.5 -21.5 t28.5 -21.5t30 -18.5t37 -20.5t36.5 -20q117 -61 170 -127t53 -156q0 -145 -111.5 -233.5t-287.5 -88.5zM307 1155l-80 92l275 273h239l179 -279l-103 -86l-205 217h-8z" glyph-name="scircumflex" horiz-adv-x="845" unicode="ŝ"/><glyph d="M479 -25q215 0 351.5 120t136.5 302q0 113 -46.5 185.5t-148.5 132.5l-143 86q-94 57 -132 95t-38 97q0 74 55 127.5t150 53.5q152 0 264 -107l141 176q-178 121 -393 121q-188 0 -316.5 -115.5t-128.5 -277.5q0 -201 203 -326l141 -86q84 -51 123 -93t39 -99 q0 -92 -66.5 -147.5t-172.5 -55.5q-172 0 -328 145l-154 -162q193 -172 463 -172zM205 -477l-2 100q121 6 175 29.5t60 73.5q2 37 -28.5 56t-112.5 30l129 194h143l-84 -135q74 -18 103.5 -51t23.5 -88q-24 -199 -407 -209z" glyph-name="Scedilla" horiz-adv-x="1060" unicode="Ş"/><glyph d="M340 -25q176 0 287.5 88.5t111.5 233.5q0 90 -53 155.5t-170 127.5q-10 6 -36.5 20t-37 20.5t-30 18.5t-28.5 21.5t-20.5 21.5t-15.5 25.5t-4 29.5q0 53 45 90t115 37q115 0 198 -71l117 141q-133 96 -315 96q-154 0 -260.5 -89t-106.5 -224q0 -160 215 -279 q106 -61 143 -93t37 -75q0 -55 -52 -93t-124 -38q-129 0 -237 97l-131 -136q27 -31 125 -77q104 -48 227 -48zM68 -477l-2 100q121 6 175 29.5t60 73.5q2 37 -28.5 56t-112.5 30l129 194h143l-84 -135q74 -18 103.5 -51t23.5 -88q-24 -199 -407 -209z" glyph-name="scedilla" horiz-adv-x="845" unicode="ş"/><glyph d="M479 -25q-270 0 -463 172l154 162q156 -145 328 -145q106 0 172.5 55t66.5 148q0 57 -39 99t-123 93l-141 86q-203 125 -203 326q0 162 128 277.5t317 115.5q215 0 393 -121l-141 -176q-113 106 -264 107q-94 0 -149.5 -53.5t-55.5 -127.5q0 -59 38 -97t132 -95l143 -86 q102 -59 148.5 -132t46.5 -186q0 -182 -136.5 -302t-351.5 -120zM590 1450l-156 229l109 66l180 -180h8l260 180l92 -74l-239 -221h-254z" glyph-name="Scaron" horiz-adv-x="1060" unicode="Š"/><glyph d="M340 -25q-123 0 -227 48q-98 47 -125 77l131 136q109 -96 237 -97q72 0 124 38t52 93q0 43 -36.5 75t-143.5 93q-215 119 -215 279q0 135 106.5 224t260.5 89q182 0 315 -96l-117 -141q-84 72 -198 71q-70 0 -115 -36.5t-45 -90.5q0 -16 4 -29.5t15.5 -25.5t20.5 -21.5 t28.5 -21.5t30 -18.5t37 -20.5t36.5 -20q117 -61 170 -127t53 -156q0 -145 -111.5 -233.5t-287.5 -88.5zM424 1182l-180 278l102 84l207 -215h8l295 215l82 -90l-276 -272h-238z" glyph-name="scaron" horiz-adv-x="845" unicode="š"/><glyph d="M322 0l229 1151h-371l37 188h963l-37 -188h-371l-229 -1151h-221zM145 -477l-2 100q121 6 175.5 29.5t60.5 73.5q2 37 -29 56t-112 30l129 194h143l-84 -135q74 -18 103.5 -51t23.5 -88q-25 -199 -408 -209z" glyph-name="Tcommaaccent" horiz-adv-x="1067" unicode="Ţ"/><glyph d="M397 -25q104 0 172 31l35 176q-68 -33 -129 -32q-117 0 -117 110q0 35 7 72l102 499h246l35 175h-242l61 270l-225 -74l-47 -196h-152l-34 -175h141l-103 -491q-12 -82 -12 -119q0 -113 63.5 -179.5t198.5 -66.5zM82 -477l-2 100q121 6 175 29.5t60 73.5q2 37 -28.5 56 t-112.5 30l129 194h143l-84 -135q74 -18 104 -51t23 -88q-24 -199 -407 -209z" glyph-name="tcommaaccent" horiz-adv-x="708" unicode="ţ"/><glyph d="M322 0l229 1151h-371l37 188h963l-37 -188h-371l-229 -1151h-221zM565 1442l-155 229l108 66l180 -181h9l260 181l92 -74l-240 -221h-254z" glyph-name="Tcaron" horiz-adv-x="1067" unicode="Ť"/><glyph d="M397 -25q-135 0 -198.5 67t-63.5 179q0 37 12 119l103 491h-141l34 175h152l47 196l225 74l-61 -270h242l-35 -175h-246l-102 -499q-6 -37 -7 -72q0 -111 117 -110q61 0 129 32l-35 -176q-68 -31 -172 -31zM659 1122l82 445h146l-27 -129l-100 -316h-101z" glyph-name="tcaron" horiz-adv-x="708" unicode="ť"/><glyph d="M182 623l144 716h221l-150 -749q-18 -86 -18 -158q0 -266 237 -266q225 0 302 375l159 798h217l-161 -798q-113 -565 -525 -566q-451 0 -450 445q-1 86 24 203zM969 1434q-49 0 -91 20.5t-66 46t-52.5 46t-54.5 20.5q-74 0 -109 -119l-150 12q29 135 103 204t178 69 q61 0 110.5 -33t86.5 -65.5t67 -32.5q70 0 109 118l149 -12q-29 -135 -103.5 -204.5t-176.5 -69.5z" glyph-name="Utilde" horiz-adv-x="1290" unicode="Ũ"/><glyph d="M1049 1006l-199 -1006h-205l35 143h-8q-186 -168 -336 -168q-240 0 -240 254q0 59 17 142l127 635h219l-121 -607q-16 -76 -16 -106q0 -129 124 -129q100 0 248 155l135 687h220zM827 1178q-59 0 -104 37.5t-81 76.5t-75 39q-78 0 -106 -139l-150 8q55 295 269 295 q59 0 104 -38t82 -76t74 -38q82 0 106 138l150 -8q-56 -295 -269 -295z" glyph-name="utilde" horiz-adv-x="1099" unicode="ũ"/><glyph d="M182 623l144 716h221l-150 -749q-18 -86 -18 -158q0 -266 237 -266q225 0 302 375l159 798h217l-161 -798q-113 -565 -525 -566q-451 0 -450 445q-1 86 24 203zM549 1483l29 147h557l-29 -147h-557z" glyph-name="Umacron" horiz-adv-x="1290" unicode="Ū"/><glyph d="M1049 1006l-199 -1006h-205l35 143h-8q-186 -168 -336 -168q-240 0 -240 254q0 59 17 142l127 635h219l-121 -607q-16 -76 -16 -106q0 -129 124 -129q100 0 248 155l135 687h220zM397 1223l29 145h551l-27 -145h-553z" glyph-name="umacron" horiz-adv-x="1099" unicode="ū"/><glyph d="M182 623l144 716h221l-150 -749q-18 -86 -18 -158q0 -266 237 -266q225 0 302 375l159 798h217l-161 -798q-113 -565 -525 -566q-451 0 -450 445q-1 86 24 203zM821 1436q-143 0 -208.5 72.5t-59.5 199.5l139 23q0 -70 40 -112t116 -42q145 0 211 154l129 -23 q-37 -127 -129.5 -199.5t-237.5 -72.5z" glyph-name="Ubreve" horiz-adv-x="1290" unicode="Ŭ"/><glyph d="M1049 1006l-199 -1006h-205l35 143h-8q-186 -168 -336 -168q-240 0 -240 254q0 59 17 142l127 635h219l-121 -607q-16 -76 -16 -106q0 -129 124 -129q100 0 248 155l135 687h220zM668 1169q-158 0 -224.5 89.5t-52.5 228.5l146 22q-4 -78 35.5 -133t123.5 -55t142.5 54.5 t85.5 133.5l135 -22q-33 -139 -131 -228.5t-260 -89.5z" glyph-name="ubreve" horiz-adv-x="1099" unicode="ŭ"/><glyph d="M182 623l144 716h221l-150 -749q-18 -86 -18 -158q0 -266 237 -266q225 0 302 375l159 798h217l-161 -798q-113 -565 -525 -566q-451 0 -450 445q-1 86 24 203zM838 1430q-86 0 -142.5 43t-56.5 126q0 88 68.5 150.5t166.5 62.5q84 0 141.5 -43t57.5 -124 q0 -90 -68.5 -152.5t-166.5 -62.5zM842 1522q43 0 75.5 32.5t32.5 79.5q0 39 -21.5 62.5t-58.5 23.5q-45 0 -76.5 -32.5t-31.5 -79.5q0 -39 21.5 -62.5t58.5 -23.5z" glyph-name="Uring" horiz-adv-x="1290" unicode="Ů"/><glyph d="M1049 1006l-199 -1006h-205l35 143h-8q-186 -168 -336 -168q-240 0 -240 254q0 59 17 142l127 635h219l-121 -607q-16 -76 -16 -106q0 -129 124 -129q100 0 248 155l135 687h220zM676 1151q-96 0 -155.5 46t-59.5 130q0 96 76.5 164t191.5 68q96 0 156.5 -46.5 t60.5 -130.5q0 -94 -77.5 -162.5t-192.5 -68.5zM690 1243q47 0 80 39t33 94q0 39 -22.5 64.5t-63.5 25.5q-47 0 -81 -40t-34 -93q0 -90 88 -90z" glyph-name="uring" horiz-adv-x="1099" unicode="ů"/><glyph d="M182 623l144 716h221l-150 -749q-18 -86 -18 -158q0 -266 237 -266q225 0 302 375l159 798h217l-161 -798q-113 -565 -525 -566q-451 0 -450 445q-1 86 24 203zM711 1436l-109 67l254 301l137 -100zM1067 1436l-109 67l254 301l138 -100z" glyph-name="Uhungarumlaut" horiz-adv-x="1290" unicode="Ű"/><glyph d="M1049 1006l-199 -1006h-205l35 143h-8q-186 -168 -336 -168q-240 0 -240 254q0 59 17 142l127 635h219l-121 -607q-16 -76 -16 -106q0 -129 124 -129q100 0 248 155l135 687h220zM569 1165l-116 70l243 342l146 -90zM907 1165l-116 70l243 342l146 -90z" glyph-name="uhungarumlaut" horiz-adv-x="1099" unicode="ű"/><glyph d="M1294 1339l-161 -798q-47 -248 -141.5 -370t-268.5 -185q-104 -35 -157.5 -94.5t-53.5 -116.5q0 -35 20.5 -53.5t51 -18.5t63.5 21l45 -113q-84 -53 -184 -53q-80 0 -127 37.5t-47 109.5q0 74 53 150.5t123 128.5q-352 49 -352 436q0 86 24 203l144 716h221l-150 -749 q-18 -86 -18 -158q0 -266 237 -266q225 0 302 375l159 798h217z" glyph-name="Uogonek" horiz-adv-x="1290" unicode="Ų"/><glyph d="M629 -426q-76 0 -120 37t-44 106q0 86 57.5 167t128.5 124l29 135h-8q-186 -168 -336 -168q-240 0 -240 254q0 59 17 142l127 635h219l-121 -607q-16 -76 -16 -106q0 -129 124 -129q100 0 248 155l135 687h220l-199 -1006q-221 -90 -221 -221q0 -31 20.5 -49.5 t52.5 -18.5q31 0 72 23l39 -99q-90 -61 -184 -61z" glyph-name="uogonek" horiz-adv-x="1099" unicode="ų"/><glyph d="M176 0l33 1339h225l-61 -1060h8l487 1060h191l6 -1060h8l418 1060h213l-537 -1339h-278l-2 946h-8l-428 -946h-275zM737 1417l-92 74l240 221h254l157 -227l-110 -66l-180 180h-9z" glyph-name="Wcircumflex" horiz-adv-x="1587" unicode="Ŵ"/><glyph d="M205 0l-60 1006h217l15 -779h8l350 779h201l31 -779h8l334 779h204l-442 -1006h-262l-27 707h-8l-313 -707h-256zM618 1155l-79 92l274 273h240l178 -279l-103 -86l-204 217h-9z" glyph-name="wcircumflex" horiz-adv-x="1490" unicode="ŵ"/><glyph d="M283 0l100 504l-215 835h227l131 -626h9l395 626h237l-563 -835l-100 -504h-221zM436 1417l-92 74l240 221h254l157 -227l-110 -66l-180 180h-9z" glyph-name="Ycircumflex" horiz-adv-x="995" unicode="Ŷ"/><glyph d="M31 -414q-66 0 -129 37l69 160q33 -20 74 -21q135 0 225 187l31 61l-174 996h219l96 -744h9l383 744h213l-566 -1059q-102 -180 -204.5 -270.5t-245.5 -90.5zM338 1155l-80 92l274 273h240l178 -279l-102 -86l-205 217h-8z" glyph-name="ycircumflex" horiz-adv-x="970" unicode="ŷ"/><glyph d="M283 0l100 504l-215 835h227l131 -626h9l395 626h237l-563 -835l-100 -504h-221zM465 1450q-45 0 -72.5 26.5t-27.5 73.5q0 51 36.5 92t90.5 41q43 0 71.5 -26.5t28.5 -73.5q0 -51 -37 -92t-90 -41zM870 1450q-45 0 -72.5 26.5t-27.5 73.5q0 51 37 92t90 41 q43 0 71.5 -26.5t28.5 -73.5q0 -51 -37 -92t-90 -41z" glyph-name="Ydieresis" horiz-adv-x="995" unicode="Ÿ"/><glyph d="M-6 0l29 133l770 1020h-570l37 186h834l-27 -133l-764 -1020h627l-39 -186h-897zM670 1421l-86 127l368 246l103 -164z" glyph-name="Zacute" horiz-adv-x="1062" unicode="Ź"/><glyph d="M-20 0l24 125l569 706h-409l35 175h686l-25 -127l-571 -705h473l-35 -174h-747zM539 1186l-99 125l363 327l133 -170z" glyph-name="zacute" horiz-adv-x="874" unicode="ź"/><glyph d="M-6 0l29 133l770 1020h-570l37 186h834l-27 -133l-764 -1020h627l-39 -186h-897zM727 1452q-53 0 -90 30.5t-37 84.5q0 59 44 101t104 42q51 0 88.5 -31.5t37.5 -85.5q0 -61 -43 -101t-104 -40z" glyph-name="Zdotaccent" horiz-adv-x="1062" unicode="Ż"/><glyph d="M-20 0l24 125l569 706h-409l35 175h686l-25 -127l-571 -705h473l-35 -174h-747zM598 1184q-51 0 -89 30.5t-38 83.5q0 59 44 101.5t103 42.5q51 0 89 -31t38 -84q0 -61 -43 -102t-104 -41z" glyph-name="zdotaccent" horiz-adv-x="874" unicode="ż"/><glyph d="M-6 0l29 133l770 1020h-570l37 186h834l-27 -133l-764 -1020h627l-39 -186h-897zM580 1442l-156 229l108 66l181 -181h8l260 181l92 -74l-239 -221h-254z" glyph-name="Zcaron" horiz-adv-x="1062" unicode="Ž"/><glyph d="M-20 0l24 125l569 706h-409l35 175h686l-25 -127l-571 -705h473l-35 -174h-747zM451 1182l-181 278l103 84l207 -215h8l295 215l82 -90l-277 -272h-237z" glyph-name="zcaron" horiz-adv-x="874" unicode="ž"/><glyph d="M399 664l-77 -385q59 -123 165 -123q129 0 224.5 136t95.5 322q0 96 -40 145.5t-112 49.5q-143 0 -256 -145zM436 856h4q143 133 305 133q135 0 211 -90t76 -256q0 -274 -159.5 -471t-370.5 -197q-152 0 -228 142h-4l-43 -117h-182l234 1157h-144l23 115h143l18 98 l236 76l-35 -174h344l-24 -115h-342z" glyph-name="uni0180" horiz-adv-x="1091" unicode="ƀ"/><glyph d="M1034 575h-692q-27 -193 50 -302t216 -109q143 0 261 111.5t165 299.5zM485 1085l-133 164q231 127 460.5 127t350.5 -148.5t121 -408.5q0 -365 -201.5 -604.5t-490.5 -239.5q-213 0 -337 140.5t-124 373.5q0 106 39 246h891q2 23 2 60q0 393 -277 393q-164 -1 -301 -103 z" glyph-name="uni018F" horiz-adv-x="1335" unicode="Ə"/><glyph d="M469 838l43 141q61 201 159.5 298t252.5 97q90 0 174 -47l-70 -160q-57 31 -106 31q-125 0 -199 -223l-43 -137h225l-33 -162h-241l-148 -477q-59 -188 -151 -293t-240 -105q-113 0 -178 49l66 158q45 -31 98 -31q72 0 121 68t98 229l123 402h-162l35 162h176z" glyph-name="florin" horiz-adv-x="1011" unicode="ƒ"/><glyph d="M614 166q174 0 302 189.5t128 428.5q0 184 -68.5 287t-201.5 103q-174 0 -301 -189.5t-127 -429.5q0 -184 67.5 -286.5t200.5 -102.5zM1192 1587l170 55q29 -76 29 -133q0 -113 -69 -187.5t-187 -100.5q135 -152 135 -420q0 -336 -194.5 -581t-473.5 -245 q-225 0 -354 152t-129 412q0 334 195.5 579.5t471.5 245.5q139 0 242 -57q90 10 137 61t47 127q0 49 -20 92z" glyph-name="Ohorn" horiz-adv-x="1325" unicode="Ơ"/><glyph d="M469 154q121 0 214 136t93 324q0 238 -176 238q-123 0 -216 -135t-93 -324q0 -239 178 -239zM975 1292l168 56q25 -61 24 -136q0 -119 -69.5 -199.5t-184.5 -111.5q86 -106 86 -280q0 -276 -168.5 -461t-386.5 -185q-170 0 -272 111t-102 299q0 279 169 462t384 183 q106 0 190 -45q80 14 127 71.5t51 143.5q0 49 -16 92z" glyph-name="ohorn" horiz-adv-x="1081" unicode="ơ"/><glyph d="M1360 1599l170 56q29 -68 29 -131q0 -221 -283 -273l-143 -710q-113 -565 -525 -566q-451 0 -450 445q0 86 24 203l144 716h221l-150 -749q-18 -86 -18 -158q0 -266 237 -266q225 0 302 375l159 798h125q86 10 132 54.5t46 113.5q0 49 -20 92z" glyph-name="Uhorn" horiz-adv-x="1327" unicode="Ư"/><glyph d="M1077 1307l168 55q27 -70 27 -137q0 -117 -65.5 -195t-174.5 -108l-182 -922h-201l31 143h-8q-186 -168 -336 -168q-240 0 -240 254q0 59 17 142l127 635h219l-121 -607q-16 -76 -16 -106q0 -129 124 -129q100 0 248 155l135 687h93q74 8 122 64t50 142q1 38 -17 95z" glyph-name="uhorn" horiz-adv-x="1136" unicode="ư"/><glyph d="M393 545h342l-39 583h-8zM774 0l-26 377h-437l-186 -377h-244l717 1339h262l144 -1339h-230zM588 1442l-156 229l109 66l180 -181h8l260 181l92 -74l-239 -221h-254z" glyph-name="uni01CD" horiz-adv-x="1083" unicode="Ǎ"/><glyph d="M358 -25q-135 0 -210.5 95.5t-75.5 271.5q0 283 163.5 485.5t376.5 202.5q156 0 232 -141h4l26 117h193l-201 -1006h-202l32 139h-6q-131 -164 -332 -164zM449 156q133 0 258 139l92 450q-78 104 -174 105q-129 0 -227.5 -142.5t-98.5 -334.5q0 -217 150 -217zM541 1182 l-181 278l103 84l207 -215h8l295 215l82 -90l-277 -272h-237z" glyph-name="uni01CE" horiz-adv-x="1114" unicode="ǎ"/><glyph d="M66 0l266 1339h221l-266 -1339h-221zM309 1442l-155 229l108 66l180 -181h9l260 181l92 -74l-240 -221h-254z" glyph-name="uni01CF" horiz-adv-x="559" unicode="Ǐ"/><glyph d="M45 0l203 1006h219l-201 -1006h-221zM252 1182l-180 278l102 84l207 -215h8l295 215l82 -90l-277 -272h-237z" glyph-name="uni01D0" horiz-adv-x="514" unicode="ǐ"/><glyph d="M602 -25q-225 0 -354 152t-129 412q0 334 195.5 579.5t471.5 245.5q225 0 354.5 -151.5t129.5 -411.5q0 -336 -194.5 -581t-473.5 -245zM614 166q174 0 302 189.5t128 428.5q0 184 -68.5 287t-201.5 103q-174 0 -301 -189.5t-127 -429.5q0 -184 67.5 -286.5t200.5 -102.5 zM705 1442l-156 229l108 66l181 -181h8l260 181l92 -74l-240 -221h-253z" glyph-name="uni01D1" horiz-adv-x="1325" unicode="Ǒ"/><glyph d="M444 -25q-170 0 -272 111t-102 299q0 279 169 462t384 183q172 0 274 -109.5t102 -299.5q0 -276 -169 -461t-386 -185zM469 154q121 0 214 136t93 324q0 238 -176 238q-123 0 -216 -135t-93 -324q0 -239 178 -239zM545 1182l-180 278l102 84l207 -215h8l295 215l82 -90 l-277 -272h-237z" glyph-name="uni01D2" horiz-adv-x="1073" unicode="ǒ"/><glyph d="M182 623l144 716h221l-150 -749q-18 -86 -18 -158q0 -266 237 -266q225 0 302 375l159 798h217l-161 -798q-113 -565 -525 -566q-451 0 -450 445q-1 86 24 203zM688 1442l-156 229l109 66l180 -181h8l261 181l92 -74l-240 -221h-254z" glyph-name="uni01D3" horiz-adv-x="1290" unicode="Ǔ"/><glyph d="M1049 1006l-199 -1006h-205l35 143h-8q-186 -168 -336 -168q-240 0 -240 254q0 59 17 142l127 635h219l-121 -607q-16 -76 -16 -106q0 -129 124 -129q100 0 248 155l135 687h220zM532 1182l-180 278l103 84l207 -215h8l295 215l82 -90l-277 -272h-238z" glyph-name="uni01D4" horiz-adv-x="1099" unicode="ǔ"/><glyph d="M182 623l144 716h221l-150 -749q-18 -86 -18 -158q0 -266 237 -266q225 0 302 375l159 798h217l-161 -798q-113 -565 -525 -566q-451 0 -450 445q-1 86 24 203zM639 1450q-41 0 -65.5 24.5t-24.5 65.5q0 49 33.5 86t81.5 37q39 0 64.5 -25.5t25.5 -66.5q0 -49 -34 -85 t-81 -36zM1036 1450q-39 0 -64.5 24.5t-25.5 65.5q0 49 34 86t81 37q41 0 65.5 -25.5t24.5 -66.5q0 -49 -33 -85t-82 -36zM610 1769l23 113h559l-25 -113h-557z" glyph-name="uni01D5" horiz-adv-x="1290" unicode="Ǖ"/><glyph d="M1049 1006l-199 -1006h-205l35 143h-8q-186 -168 -336 -168q-240 0 -240 254q0 59 17 142l127 635h219l-121 -607q-16 -76 -16 -106q0 -129 124 -129q100 0 248 155l135 687h220zM475 1188q-41 0 -64.5 24.5t-23.5 63.5q0 53 34 89t83 36q41 0 65.5 -23.5t24.5 -62.5 q0 -53 -35 -90t-84 -37zM879 1188q-41 0 -64.5 24.5t-23.5 63.5q0 53 33.5 89t82.5 36q41 0 64.5 -23.5t23.5 -62.5q0 -53 -34.5 -90t-81.5 -37zM467 1538l25 113h548l-24 -113h-549z" glyph-name="uni01D6" horiz-adv-x="1099" unicode="ǖ"/><glyph d="M182 623l144 716h221l-150 -749q-18 -86 -18 -158q0 -266 237 -266q225 0 302 375l159 798h217l-161 -798q-113 -565 -525 -566q-451 0 -450 445q-1 86 24 203zM639 1450q-41 0 -65.5 24.5t-24.5 65.5q0 49 33.5 86t81.5 37q39 0 64.5 -25.5t25.5 -66.5q0 -49 -34 -85 t-81 -36zM1036 1450q-39 0 -64.5 24.5t-25.5 65.5q0 49 34 86t81 37q41 0 65.5 -25.5t24.5 -66.5q0 -49 -33 -85t-82 -36zM885 1696l-92 73l241 252l131 -106z" glyph-name="uni01D7" horiz-adv-x="1290" unicode="Ǘ"/><glyph d="M1049 1006l-199 -1006h-205l35 143h-8q-186 -168 -336 -168q-240 0 -240 254q0 59 17 142l127 635h219l-121 -607q-16 -76 -16 -106q0 -129 124 -129q100 0 248 155l135 687h220zM741 1458l-82 70l209 237l113 -98zM475 1188q-41 0 -64.5 24.5t-23.5 63.5q0 53 34 89 t83 36q41 0 65.5 -23.5t24.5 -62.5q0 -53 -35 -90t-84 -37zM879 1188q-41 0 -64.5 24.5t-23.5 63.5q0 53 33.5 89t82.5 36q41 0 64.5 -23.5t23.5 -62.5q0 -53 -34.5 -90t-81.5 -37z" glyph-name="uni01D8" horiz-adv-x="1099" unicode="ǘ"/><glyph d="M182 623l144 716h221l-150 -749q-18 -86 -18 -158q0 -266 237 -266q225 0 302 375l159 798h217l-161 -798q-113 -565 -525 -566q-451 0 -450 445q-1 86 24 203zM639 1450q-41 0 -65.5 24.5t-24.5 65.5q0 49 33.5 86t81.5 37q39 0 64.5 -25.5t25.5 -66.5q0 -49 -34 -85 t-81 -36zM1036 1450q-39 0 -64.5 24.5t-25.5 65.5q0 49 34 86t81 37q41 0 65.5 -25.5t24.5 -66.5q0 -49 -33 -85t-82 -36zM780 1733l-151 196l104 66l162 -144h8l217 144l86 -66l-221 -196h-205z" glyph-name="uni01D9" horiz-adv-x="1290" unicode="Ǚ"/><glyph d="M1049 1006l-199 -1006h-205l35 143h-8q-186 -168 -336 -168q-240 0 -240 254q0 59 17 142l127 635h219l-121 -607q-16 -76 -16 -106q0 -129 124 -129q100 0 248 155l135 687h220zM635 1493l-164 190l90 74l182 -141h9l237 141l68 -76l-232 -188h-190zM475 1188 q-41 0 -64.5 24.5t-23.5 63.5q0 53 34 89t83 36q41 0 65.5 -23.5t24.5 -62.5q0 -53 -35 -90t-84 -37zM879 1188q-41 0 -64.5 24.5t-23.5 63.5q0 53 33.5 89t82.5 36q41 0 64.5 -23.5t23.5 -62.5q0 -53 -34.5 -90t-81.5 -37z" glyph-name="uni01DA" horiz-adv-x="1099" unicode="ǚ"/><glyph d="M182 623l144 716h221l-150 -749q-18 -86 -18 -158q0 -266 237 -266q225 0 302 375l159 798h217l-161 -798q-113 -565 -525 -566q-451 0 -450 445q-1 86 24 203zM639 1450q-41 0 -65.5 24.5t-24.5 65.5q0 49 33.5 86t81.5 37q39 0 64.5 -25.5t25.5 -66.5q0 -49 -34 -85 t-81 -36zM1036 1450q-39 0 -64.5 24.5t-25.5 65.5q0 49 34 86t81 37q41 0 65.5 -25.5t24.5 -66.5q0 -49 -33 -85t-82 -36zM860 1686l-196 258l163 79l146 -282z" glyph-name="uni01DB" horiz-adv-x="1290" unicode="Ǜ"/><glyph d="M1049 1006l-199 -1006h-205l35 143h-8q-186 -168 -336 -168q-240 0 -240 254q0 59 17 142l127 635h219l-121 -607q-16 -76 -16 -106q0 -129 124 -129q100 0 248 155l135 687h220zM475 1188q-41 0 -64.5 24.5t-23.5 63.5q0 53 34 89t83 36q41 0 65.5 -23.5t24.5 -62.5 q0 -53 -35 -90t-84 -37zM879 1188q-41 0 -64.5 24.5t-23.5 63.5q0 53 33.5 89t82.5 36q41 0 64.5 -23.5t23.5 -62.5q0 -53 -34.5 -90t-81.5 -37zM715 1448l-160 244l141 75l121 -266z" glyph-name="uni01DC" horiz-adv-x="1099" unicode="ǜ"/><glyph d="M629 -25q-244 0 -378 146.5t-134 404.5q0 344 203.5 591t519.5 247q211 0 354 -137l-152 -158q-76 104 -215 105q-209 0 -347 -194t-138 -437q0 -379 324 -379q109 0 186 63l82 406l215 90l-121 -610q-168 -138 -399 -138zM719 1442l-156 229l109 66l180 -181h8l260 181 l92 -74l-239 -221h-254z" glyph-name="Gcaron" horiz-adv-x="1228" unicode="Ǧ"/><glyph d="M348 -446q-195 0 -362 139l98 147q131 -111 270 -110q223 0 287 254l51 194q-154 -158 -327 -158q-133 0 -213 91.5t-80 263.5q0 268 159.5 461.5t368.5 193.5q74 0 134.5 -38t92.5 -103h7l26 117h195l-205 -1020q-43 -213 -171 -322.5t-331 -109.5zM444.5 203 q145.5 0 260.5 151l75 373q-66 123 -168 123q-123 0 -218 -134t-95 -313q0 -200 145.5 -200zM526 1182l-180 278l103 84l206 -215h9l294 215l82 -90l-276 -272h-238z" glyph-name="gcaron" horiz-adv-x="1101" unicode="ǧ"/><glyph d="M537 -442q-80 0 -127.5 37.5t-47.5 109.5q0 82 53.5 154.5t121.5 120.5q-199 25 -308.5 171t-109.5 388q0 334 195.5 579.5t471.5 245.5q225 0 354.5 -151.5t129.5 -411.5q0 -276 -135.5 -493.5t-382.5 -313.5q-106 -43 -158.5 -101.5t-52.5 -117.5q0 -35 20.5 -53.5 t51 -18.5t63.5 21l45 -113q-84 -53 -184 -53zM614 166q174 0 302 189.5t128 428.5q0 184 -68.5 287t-201.5 103q-174 0 -301 -189.5t-127 -429.5q0 -184 67.5 -286.5t200.5 -102.5z" glyph-name="uni01EA" horiz-adv-x="1325" unicode="Ǫ"/><glyph d="M379 -426q-76 0 -120 37t-44 106q0 82 57.5 157t112.5 110q-150 20 -232.5 122.5t-82.5 278.5q0 279 169 462t384 183q166 0 271 -109.5t105 -299.5q0 -238 -114.5 -393.5t-304.5 -235.5q-98 -41 -149.5 -100.5t-51.5 -112.5q0 -31 20.5 -49.5t53.5 -18.5q31 0 71 23 l39 -99q-90 -61 -184 -61zM469 154q121 0 214 136t93 324q0 238 -176 238q-123 0 -216 -135t-93 -324q0 -239 178 -239z" glyph-name="uni01EB" horiz-adv-x="1073" unicode="ǫ"/><glyph d="M479 -25q-270 0 -463 172l154 162q156 -145 328 -145q106 0 172.5 55t66.5 148q0 57 -39 99t-123 93l-141 86q-203 125 -203 326q0 162 128 277.5t317 115.5q215 0 393 -121l-141 -176q-113 106 -264 107q-94 0 -149.5 -53.5t-55.5 -127.5q0 -59 38 -97t132 -95l143 -86 q102 -59 148.5 -132t46.5 -186q0 -182 -136.5 -302t-351.5 -120zM205 -477l2 100q229 12 229 98q0 66 -121 74l62 92q135 -6 186 -43t51 -98q0 -106 -111.5 -162.5t-297.5 -60.5z" glyph-name="Scommaaccent" horiz-adv-x="1060" unicode="Ș"/><glyph d="M340 -25q-123 0 -227 48q-98 47 -125 77l131 136q109 -96 237 -97q72 0 124 38t52 93q0 43 -36.5 75t-143.5 93q-215 119 -215 279q0 135 106.5 224t260.5 89q182 0 315 -96l-117 -141q-84 72 -198 71q-70 0 -115 -36.5t-45 -90.5q0 -16 4 -29.5t15.5 -25.5t20.5 -21.5 t28.5 -21.5t30 -18.5t37 -20.5t36.5 -20q117 -61 170 -127t53 -156q0 -145 -111.5 -233.5t-287.5 -88.5zM88 -461l2 101q229 12 229 98q0 66 -120 74l61 92q135 -6 186.5 -43t51.5 -99q0 -106 -112 -162.5t-298 -60.5z" glyph-name="scommaaccent" horiz-adv-x="845" unicode="ș"/><glyph d="M322 0l229 1151h-371l37 188h963l-37 -188h-371l-229 -1151h-221zM162 -461l2 101q229 12 229 98q0 66 -121 74l62 92q135 -6 186 -43t51 -99q0 -106 -111.5 -162.5t-297.5 -60.5z" glyph-name="uni021A" horiz-adv-x="1067" unicode="Ț"/><glyph d="M397 -25q-135 0 -198.5 67t-63.5 179q0 37 12 119l103 491h-141l34 175h152l47 196l225 74l-61 -270h242l-35 -175h-246l-102 -499q-6 -37 -7 -72q0 -111 117 -110q61 0 129 32l-35 -176q-68 -31 -172 -31zM74 -461l2 101q229 12 229 98q0 66 -121 74l62 92 q135 -6 186 -43t51 -99q0 -106 -111.5 -162.5t-297.5 -60.5z" glyph-name="uni021B" horiz-adv-x="708" unicode="ț"/><glyph d="M-86 -422l-43 168q88 18 115 57q25 33 47 123l217 1080h219l-217 -1084q-37 -164 -116 -254t-222 -90z" glyph-name="uni0237" horiz-adv-x="516" unicode="ȷ"/><glyph d="M352 160h205q168 0 262 72.5t94 216.5q0 94 -66.5 149t-189.5 55h-204l-35 -174h280l-24 -114h-281zM557 1178l-78 -381h162q158 0 239 58t81 161q0 162 -252 162h-152zM891 729l-2 -8q238 -63 237 -275q0 -225 -156.5 -335.5t-410.5 -110.5h-457l72 365h-143l24 114h142 l172 860h385q203 0 317.5 -72.5t114.5 -215.5q0 -117 -84 -205t-211 -117z" glyph-name="uni0243" horiz-adv-x="1273" unicode="Ƀ"/><glyph d="M358 -25q-135 0 -210.5 95.5t-75.5 271.5q0 283 163.5 485.5t376.5 202.5q156 0 232 -141h4l26 117h193l-201 -1006h-202l32 139h-6q-131 -164 -332 -164zM449 156q133 0 258 139l92 450q-78 104 -174 105q-129 0 -227.5 -142.5t-98.5 -334.5q0 -217 150 -217z" glyph-name="uni0251" horiz-adv-x="1114" unicode="ɑ"/><glyph d="M920 604q0 -270 -170 -449.5t-379 -179.5q-166 0 -243 101.5t-77 269.5q0 63 39 219h619q10 143 -46.5 220t-162.5 77q-109 0 -215 -53l-84 149q160 72 338 72q180 0 280.5 -109.5t100.5 -316.5zM397 147q96 0 176 73t115 212h-442q-12 -51 -13 -100q0 -185 164 -185z " glyph-name="uni0259" horiz-adv-x="993" unicode="ə"/><glyph d="M348 -446q-195 0 -362 139l98 147q131 -111 270 -110q223 0 287 254l51 194q-154 -158 -327 -158q-133 0 -213 91.5t-80 263.5q0 268 159.5 461.5t368.5 193.5q74 0 134.5 -38t92.5 -103h7l26 117h195l-205 -1020q-43 -213 -171 -322.5t-331 -109.5zM444.5 203 q145.5 0 260.5 151l75 373q-66 123 -168 123q-123 0 -218 -134t-95 -313q0 -200 145.5 -200z" glyph-name="uni0261" horiz-adv-x="1101" unicode="ɡ"/><glyph d="M100 788l183 914l168 39l-72 -369h6q88 98 209 98q160 0 160 -172q0 -31 -13 -92l-84 -418h-157l78 398q12 47 12 67q0 82 -74 82q-70 0 -168 -100l-88 -447h-160z" glyph-name="uni02B0" horiz-adv-x="739" unicode="ʰ"/><glyph d="M23 489l-50 125q63 18 85 42t32 81l143 717h158l-143 -729q-20 -102 -73.5 -160t-151.5 -76zM346 1567q-39 0 -64.5 20.5t-25.5 59.5q0 41 30.5 69.5t73.5 28.5q39 0 65 -20.5t26 -59.5q0 -41 -31 -69.5t-74 -28.5z" glyph-name="uni02B2" horiz-adv-x="352" unicode="ʲ"/><glyph d="M100 788l131 666h144l-29 -137h4q98 156 301 158l-90 -152q-133 4 -231 -152l-72 -383h-158z" glyph-name="uni02B3" horiz-adv-x="487" unicode="ʳ"/><glyph d="M209 788l-43 666h153l13 -516h6l231 516h138l28 -516h6l220 516h145l-295 -666h-188l-19 451h-6l-207 -451h-182z" glyph-name="uni02B7" horiz-adv-x="1007" unicode="ʷ"/><glyph d="M106 502q-63 0 -108 26l49 113q33 -14 57 -14q88 0 152 114l16 35l-118 678h153l70 -506h4l246 506h153l-372 -713q-70 -119 -136 -179t-166 -60z" glyph-name="uni02B8" horiz-adv-x="659" unicode="ʸ"/><glyph d="M211 807l168 602h215l-82 -242l-156 -360h-145z" glyph-name="uni02B9" horiz-adv-x="546" unicode="ʹ"/><glyph d="M348 1059h10q55 0 90 -29t35 -82q0 -59 -38.5 -100t-102.5 -41q-61 0 -96 44t-35 124q0 154 88 266.5t225 159.5l39 -101q-98 -41 -155.5 -111.5t-59.5 -129.5z" glyph-name="uni02BB" horiz-adv-x="546" unicode="ʻ"/><glyph d="M438 1178h-10q-55 0 -90 28.5t-35 81.5q0 59 40 100.5t103 41.5q59 0 94 -44.5t35 -123.5q0 -156 -88 -266.5t-225 -159.5l-39 100q98 41 155.5 112t59.5 130z" glyph-name="afii57929" horiz-adv-x="546" unicode="ʼ"/><glyph d="M197 1114l18 90q70 4 106.5 38t36.5 85q0 90 -102 90l20 88q100 4 148.5 -41t48.5 -123q0 -102 -72.5 -164.5t-203.5 -62.5z" glyph-name="uni02BE" horiz-adv-x="309" unicode="ʾ"/><glyph d="M389 1208l-18 -88q-100 -4 -149.5 41t-49.5 123q0 100 73.5 163.5t205.5 63.5l-19 -90q-70 -4 -107.5 -37.5t-37.5 -85.5q0 -90 102 -90z" glyph-name="uni02BF" horiz-adv-x="327" unicode="ʿ"/><glyph d="M428 1155l-80 92l275 273h239l178 -279l-102 -86l-205 217h-8z" glyph-name="circumflex" horiz-adv-x="1077" unicode="ˆ"/><glyph d="M545 1182l-180 278l102 84l207 -215h8l295 215l82 -90l-277 -272h-237z" glyph-name="caron" horiz-adv-x="1077" unicode="ˇ"/><glyph d="M174 1122l59 394h183l-92 -394h-150z" glyph-name="uni02C8" horiz-adv-x="253" unicode="ˈ"/><glyph d="M145 1223l29 145h551l-27 -145h-553z" glyph-name="uni02C9" horiz-adv-x="569" unicode="ˉ"/><glyph d="M305 1186l-98 125l362 327l133 -170z" glyph-name="uni02CA" horiz-adv-x="446" unicode="ˊ"/><glyph d="M422 1165l-293 344l188 142l240 -379z" glyph-name="uni02CB" horiz-adv-x="446" unicode="ˋ"/><glyph d="M78 -139l-62 -393h-180l92 393h150z" glyph-name="uni02CC" horiz-adv-x="253" unicode="ˌ"/><glyph d="M680 1169q-158 0 -224.5 89.5t-52.5 228.5l146 22q-4 -78 36 -133t124 -55t142 54.5t85 133.5l135 -22q-33 -139 -131 -228.5t-260 -89.5z" glyph-name="breve" horiz-adv-x="1077" unicode="˘"/><glyph d="M692 1184q-51 0 -89 30.5t-38 83.5q0 59 44 101.5t104 42.5q51 0 89 -31t38 -84q0 -61 -43.5 -102t-104.5 -41z" glyph-name="dotaccent" horiz-adv-x="1077" unicode="˙"/><glyph d="M688 1149q-96 0 -155.5 46t-59.5 130q0 96 77 163.5t191 67.5q96 0 156.5 -46t60.5 -130q0 -94 -77.5 -162.5t-192.5 -68.5zM702 1241q47 0 80 39t33 94q0 39 -22.5 64.5t-63.5 25.5q-47 0 -81 -40t-34 -93q0 -90 88 -90z" glyph-name="ring" horiz-adv-x="1077" unicode="˚"/><glyph d="M381 -426q-76 0 -121 37t-45 106q0 150 197 289h133q-164 -117 -164 -227q0 -31 20.5 -49.5t51.5 -18.5q33 0 71 23l41 -99q-98 -61 -184 -61z" glyph-name="ogonek" horiz-adv-x="1077" unicode="˛"/><glyph d="M840 1178q-59 0 -104.5 37.5t-81.5 76.5t-74 39q-78 0 -107 -139l-149 8q55 295 268 295q59 0 104 -38t82 -76t74 -38q82 0 106 138l150 -8q-55 -295 -268 -295z" glyph-name="tilde" horiz-adv-x="1077" unicode="˜"/><glyph d="M582 1165l-117 70l244 342l145 -90zM920 1165l-117 70l244 342l145 -90z" glyph-name="hungarumlaut" horiz-adv-x="1077" unicode="˝"/><glyph d="M135 786l150 916l166 39l-158 -955h-158z" glyph-name="uni02E1" horiz-adv-x="352" unicode="ˡ"/><glyph d="M299 772q-135 0 -248 74l92 96q80 -55 170 -55q49 0 78 23.5t29 60.5q0 25 -24.5 45t-94.5 59q-141 84 -141 185q0 92 70.5 151t175.5 59q66 0 112 -10q35 -8 109 -39l-88 -102q-66 37 -136 37q-43 0 -68.5 -23.5t-25.5 -58.5q0 -43 113 -100q72 -39 108.5 -82t36.5 -107 q0 -98 -72.5 -155.5t-195.5 -57.5z" glyph-name="uni02E2" horiz-adv-x="569" unicode="ˢ"/><glyph d="M8 788l297 353l-123 313h162l74 -231h6l170 231h176l-274 -346l131 -320h-160l-84 242h-8l-191 -242h-176z" glyph-name="uni02E3" horiz-adv-x="643" unicode="ˣ"/><glyph d="M303 1165l-293 344l189 142l239 -379z" glyph-name="gravecomb" unicode="̀"/><glyph d="M186 1186l-98 125l363 327l133 -170z" glyph-name="acutecomb" unicode="́"/><glyph d="M-18 1155l-80 92l274 273h240l178 -279l-102 -86l-205 217h-8z" glyph-name="uni0302" unicode="̂"/><glyph d="M393 1178q-59 0 -104 37.5t-81 76.5t-75 39q-78 0 -106 -139l-150 8q55 295 268 295q59 0 104.5 -38t82.5 -76t74 -38q82 0 106 138l150 -8q-56 -295 -269 -295z" glyph-name="tildecomb" unicode="̃"/><glyph d="M-37 1223l29 145h551l-27 -145h-553z" glyph-name="uni0304" unicode="̄"/><glyph d="M233 1169q-158 0 -224 89.5t-52 228.5l145 22q-4 -78 36 -133t124 -55t142.5 54.5t84.5 133.5l136 -22q-33 -139 -131.5 -228.5t-260.5 -89.5z" glyph-name="uni0306" unicode="̆"/><glyph d="M246 1184q-51 0 -89 30.5t-38 83.5q0 59 44 101.5t103 42.5q51 0 89 -31t38 -84q0 -61 -43 -102t-104 -41z" glyph-name="uni0307" unicode="̇"/><glyph d="M41 1188q-45 0 -73.5 27.5t-28.5 74.5q0 53 37.5 93t91.5 40q45 0 73.5 -28.5t28.5 -75.5q0 -55 -38 -93t-91 -38zM446 1188q-45 0 -73.5 27.5t-28.5 74.5q0 53 38 93t91 40q45 0 73.5 -27.5t28.5 -76.5q0 -55 -38 -93t-91 -38z" glyph-name="uni0308" unicode="̈"/><glyph d="M150 1167l-3 101q106 27 117 84q18 82 -147 90l41 149q328 -8 288 -221q-34 -172 -296 -203z" glyph-name="hookabovecomb" unicode="̉"/><glyph d="M242 1149q-96 0 -155.5 46t-59.5 130q0 96 76.5 163.5t191.5 67.5q96 0 156.5 -46t60.5 -130q0 -94 -77.5 -162.5t-192.5 -68.5zM256 1241q47 0 80 39t33 94q0 39 -22.5 64.5t-63.5 25.5q-47 0 -81 -40t-34 -93q0 -90 88 -90z" glyph-name="uni030A" unicode="̊"/><glyph d="M135 1165l-117 70l244 342l146 -90zM473 1165l-117 70l244 342l145 -90z" glyph-name="uni030B" unicode="̋"/><glyph d="M98 1182l-180 278l102 84l207 -215h9l294 215l82 -90l-276 -272h-238z" glyph-name="uni030C" unicode="̌"/><glyph d="M-27 1159l-151 359l176 61l113 -375zM311 1159l-151 359l176 61l113 -375z" glyph-name="uni030F" unicode="̏"/><glyph d="M358 1516l21 -80q-117 -45 -148 -125h15q33 0 58.5 -24.5t25.5 -61.5q0 -53 -31 -83t-80 -30q-47 0 -73.5 32t-26.5 87q-1 207 239 285z" glyph-name="uni0312" unicode="̒"/><glyph d="M160 1112l-23 80q121 45 148 125h-15q-33 0 -58.5 24.5t-25.5 61.5q0 53 32 83t81 30q45 0 71.5 -33t26.5 -86q1 -207 -237 -285z" glyph-name="uni0313" unicode="̓"/><glyph d="M166 885l-2 100q80 6 131 48t51 102q0 33 -12 69l166 56q25 -59 24 -111q0 -109 -91 -180.5t-267 -83.5z" glyph-name="uni031B" unicode="̛"/><glyph d="M-80 -453q-51 0 -89 31t-38 84q0 59 44 101t104 42q51 0 89 -30.5t38 -83.5q0 -61 -43.5 -102.5t-104.5 -41.5z" glyph-name="dotbelowcomb" unicode="̣"/><glyph d="M-279 -424q-45 0 -73.5 27.5t-28.5 74.5q0 53 38 93.5t91 40.5q45 0 73.5 -29t28.5 -76q0 -55 -38 -93t-91 -38zM127 -424q-45 0 -73.5 27.5t-28.5 74.5q0 53 37.5 93.5t91.5 40.5q45 0 73.5 -28t28.5 -77q0 -55 -38 -93t-91 -38z" glyph-name="uni0324" unicode="̤"/><glyph d="M-285 -477l2 100q229 12 230 98q0 66 -121 74l61 92q135 -6 186.5 -43t51.5 -98q0 -106 -112 -162.5t-298 -60.5z" glyph-name="uni0326" unicode="̦"/><glyph d="M-285 -477l-2 100q121 6 175.5 29.5t60.5 73.5q2 37 -29 56t-113 30l130 194h143l-84 -135q74 -18 103.5 -51t23.5 -88q-25 -199 -408 -209z" glyph-name="uni0327" unicode="̧"/><glyph d="M-66 -426q-76 0 -120.5 37t-44.5 106q0 150 196 289h133q-164 -117 -164 -227q0 -31 20.5 -49.5t51.5 -18.5q33 0 72 23l41 -99q-99 -61 -185 -61z" glyph-name="uni0328" unicode="̨"/><glyph d="M-88 -446q-158 0 -224.5 89t-52.5 228l146 23q-4 -78 36 -133.5t124 -55.5t142 54.5t85 134.5l135 -23q-33 -139 -131 -228t-260 -89z" glyph-name="uni032E" unicode="̮"/><glyph d="M-354 -365l28 146h551l-26 -146h-553z" glyph-name="uni0331" unicode="̱"/><glyph d="M887 -25q-199 0 -199 201q0 43 21.5 148.5t59.5 269.5t54 237h-305l-194 -831h-218l211 831h-190l33 175h1069l-35 -175h-164q-133 -541 -133 -610q0 -68 74 -67q18 0 51 8l-4 -162q-55 -25 -131 -25z" glyph-name="pi" horiz-adv-x="1189" unicode="π"/><glyph d="M166 1016q0 186 110.5 320t251.5 134q98 0 146 -92h8l18 76h138l-131 -666h-142l21 93h-8q-102 -109 -220 -109q-88 0 -140 63.5t-52 180.5zM420 901q92 0 174 113l47 250q-37 78 -104 77q-80 0 -144.5 -91t-64.5 -214q0 -135 92 -135z" glyph-name="uni1D43" horiz-adv-x="737" unicode="ᵃ"/><glyph d="M244 788h-144l183 912l168 41l-70 -359h6q98 88 193 88q88 0 140 -63.5t52 -179.5q0 -188 -109.5 -321.5t-252.5 -133.5q-96 0 -144 92h-8zM520 1341q-94 0 -172 -100l-49 -262q37 -78 102 -78q80 0 144.5 91t64.5 214q0 66 -24.5 100.5t-65.5 34.5z" glyph-name="uni1D47" horiz-adv-x="747" unicode="ᵇ"/><glyph d="M614 1384l64 312l166 41l-189 -949h-139l21 93h-9q-102 -109 -219 -109q-88 0 -140 63.5t-52 180.5q0 186 110.5 320t251.5 134q86 0 127 -86h8zM369 901q94 0 176 113l45 250q-37 78 -103 77q-80 0 -144 -91t-64 -214q0 -66 24.5 -100.5t65.5 -34.5z" glyph-name="uni1D48" horiz-adv-x="761" unicode="ᵈ"/><glyph d="M115 1057q0 176 113.5 294.5t254.5 118.5q115 0 167 -69.5t52 -177.5q0 -39 -22 -146h-416q-6 -88 38 -136t126 -48q74 0 135 47l64 -104q-98 -63 -240 -64q-125 0 -198.5 76t-73.5 209zM279 1171h282q8 31 8 60q0 117 -104 117q-57 0 -110 -46.5t-76 -130.5z" glyph-name="uni1D49" horiz-adv-x="671" unicode="ᵉ"/><glyph d="M649 1454h139l-135 -676q-29 -143 -115.5 -219t-222.5 -76q-141 0 -254 90l68 109q104 -74 193 -74q133 0 182 168l28 105h-8q-106 -84 -213 -84q-90 0 -141 61.5t-51 171.5q0 178 108.5 309t251.5 131q96 0 144 -92h8zM373 926q94 0 170 88l47 250q-37 78 -103 77 q-80 0 -143 -87t-63 -203q0 -125 92 -125z" glyph-name="uni1D4D" horiz-adv-x="737" unicode="ᵍ"/><glyph d="M100 788l183 908l168 45l-119 -584h8l283 297h174l-271 -285l172 -381h-166l-114 289l-125 -121l-33 -168h-160z" glyph-name="uni1D4F" horiz-adv-x="696" unicode="ᵏ"/><glyph d="M102 788l131 666h144l-21 -92h9q119 109 221 108q125 0 151 -120q139 121 234 120q84 0 120.5 -43t36.5 -131q0 -43 -12 -92l-82 -416h-157l77 398q10 45 11 69q0 80 -70 80t-160 -100l-88 -447h-155l77 398q12 53 13 67q0 82 -76 82q-68 0 -158 -100l-88 -447h-158z" glyph-name="uni1D50" horiz-adv-x="1116" unicode="ᵐ"/><glyph d="M369 772q-113 0 -183.5 73t-70.5 199q0 184 112.5 305t259.5 121q115 0 185.5 -72.5t70.5 -199.5q0 -184 -113.5 -305t-260.5 -121zM383 899q86 0 144.5 86t58.5 209q0 150 -111 149q-86 0 -144.5 -86t-58.5 -208q0 -150 111 -150z" glyph-name="uni1D52" horiz-adv-x="722" unicode="ᵒ"/><glyph d="M274 862l-59 -291l-170 -59l188 942h142l-13 -76h9q104 92 209 92q88 0 140 -63.5t52 -179.5q0 -188 -109.5 -321.5t-252.5 -133.5q-96 0 -127 90h-9zM520 1341q-94 0 -172 -100l-49 -262q37 -78 98 -78q80 0 146.5 92t66.5 213q0 66 -24.5 100.5t-65.5 34.5z" glyph-name="uni1D56" horiz-adv-x="745" unicode="ᵖ"/><glyph d="M168 1024l63 305h-94l25 125h94l27 133l161 45l-32 -178h166l-23 -125h-168l-63 -311q-4 -33 -5 -45q0 -76 68 -76q20 0 64 14l26 -114q-68 -25 -137 -25q-182 0 -182 170q0 31 10 82z" glyph-name="uni1D57" horiz-adv-x="481" unicode="ᵗ"/><glyph d="M780 1454l-133 -666h-141l18 93h-8q-123 -109 -225 -109q-162 0 -162 172q0 27 12 92l84 418h160l-80 -397q-10 -39 -10 -68q0 -82 72 -82q68 0 165 101l89 446h159z" glyph-name="uni1D58" horiz-adv-x="737" unicode="ᵘ"/><glyph d="M244 788l-94 666h157l47 -516h6l263 516h155l-350 -666h-184z" glyph-name="uni1D5B" horiz-adv-x="661" unicode="ᵛ"/><glyph d="M377 772q-115 0 -188.5 71.5t-73.5 192.5q0 172 110.5 303t274.5 131q106 0 184 -51l-92 -110q-47 35 -100 34q-90 0 -154 -89t-64 -197q0 -76 38 -117t98 -41q70 0 120 33l52 -107q-82 -53 -205 -53z" glyph-name="uni1D9C" horiz-adv-x="602" unicode="ᶜ"/><glyph d="M653 1733l-51 -113q-33 20 -70 20q-78 0 -102 -112l-14 -74h129l-25 -125h-131l-108 -541h-158l108 541h-86l23 125h88l16 76q20 111 82 174t164 63q69 1 135 -34z" glyph-name="uni1DA0" horiz-adv-x="428" unicode="ᶠ"/><glyph d="M51 788l17 89l364 452h-264l25 125h464l-16 -90l-365 -451h306l-25 -125h-506z" glyph-name="uni1DBB" horiz-adv-x="591" unicode="ᶻ"/><glyph d="M66 0l266 1339h385q203 0 317.5 -76.5t114.5 -224.5q0 -123 -85 -214t-210 -119l-2 -9q238 -57 238 -262q0 -219 -157 -326.5t-411 -107.5h-456zM440 778h164q162 0 241 59.5t79 166.5q0 164 -252 163h-152zM319 172h203q354 0 355 252q0 94 -67 146.5t-194 52.5h-206z M186 -348l29 145h551l-27 -145h-553z" glyph-name="uni1E06" horiz-adv-x="1216" unicode="Ḇ"/><glyph d="M227 0h-182l272 1352l232 69l-103 -524h5q141 133 303 133q137 0 211.5 -94t74.5 -272q0 -283 -163.5 -486t-374.5 -203q-152 0 -228 142h-4zM664 850q-143 0 -256 -145l-86 -426q59 -123 165 -123q129 0 228.5 142t99.5 337q1 215 -151 215zM139 -348l29 145h551 l-27 -145h-553z" glyph-name="uni1E07" horiz-adv-x="1116" unicode="ḇ"/><glyph d="M66 0l266 1339h272q283 0 431.5 -134t148.5 -390q0 -379 -199 -597t-530 -218h-389zM322 178h129q229 0 368 166t139 457q0 178 -93 269t-267 91h-82zM492 -436q-51 0 -89 30.5t-38 83.5q0 59 44 101.5t103 42.5q51 0 89 -31t38 -84q0 -61 -43 -102t-104 -41z" glyph-name="uni1E0C" horiz-adv-x="1236" unicode="Ḍ"/><glyph d="M827 897l93 457l233 67l-287 -1421h-198l28 139h-6q-160 -164 -332 -164q-135 0 -210.5 95.5t-75.5 271.5q0 283 163.5 485.5t376.5 202.5q74 0 131.5 -37t77.5 -96h6zM449 156q147 0 264 170l84 413q-76 111 -172 111q-129 0 -227.5 -142.5t-98.5 -334.5 q0 -217 150 -217zM410 -436q-51 0 -89 30.5t-38 83.5q0 59 44 101.5t103 42.5q51 0 89 -31t38 -84q0 -61 -43 -102t-104 -41z" glyph-name="uni1E0D" horiz-adv-x="1105" unicode="ḍ"/><glyph d="M66 0l266 1339h272q283 0 431.5 -134t148.5 -390q0 -379 -199 -597t-530 -218h-389zM322 178h129q229 0 368 166t139 457q0 178 -93 269t-267 91h-82zM217 -348l29 145h551l-27 -145h-553z" glyph-name="uni1E0E" horiz-adv-x="1236" unicode="Ḏ"/><glyph d="M827 897l93 457l233 67l-287 -1421h-198l28 139h-6q-160 -164 -332 -164q-135 0 -210.5 95.5t-75.5 271.5q0 283 163.5 485.5t376.5 202.5q74 0 131.5 -37t77.5 -96h6zM449 156q147 0 264 170l84 413q-76 111 -172 111q-129 0 -227.5 -142.5t-98.5 -334.5 q0 -217 150 -217zM135 -348l29 145h551l-27 -145h-553z" glyph-name="uni1E0F" horiz-adv-x="1105" unicode="ḏ"/><glyph d="M66 0l266 1339h768l-74 -186h-512l-72 -360h342l-36 -187h-340l-86 -420h565l-37 -186h-784zM463 1483l29 147h557l-29 -147h-557zM799 1696l-92 73l241 252l131 -106z" glyph-name="uni1E16" horiz-adv-x="1054" unicode="Ḗ"/><glyph d="M68 401q0 270 170 449.5t378 179.5q166 0 243 -101.5t77 -269.5q0 -59 -29 -213h-626q-16 -152 54.5 -227.5t192.5 -75.5q117 0 209 74l94 -147q-117 -94 -360 -95q-182 0 -292.5 113.5t-110.5 312.5zM297 575h444q12 61 13 99q0 82 -39 134t-125 52q-96 0 -176 -75 t-117 -210zM379 1223l29 145h550l-26 -145h-553zM713 1458l-80 70l207 237l112 -98z" glyph-name="uni1E17" horiz-adv-x="999" unicode="ḗ"/><glyph d="M629 -25q-244 0 -378 146.5t-134 404.5q0 344 203.5 591t519.5 247q211 0 354 -137l-152 -158q-76 104 -215 105q-209 0 -347 -194t-138 -437q0 -379 324 -379q109 0 186 63l82 406l215 90l-121 -610q-168 -138 -399 -138zM580 1483l28 147h557l-28 -147h-557z" glyph-name="uni1E20" horiz-adv-x="1228" unicode="Ḡ"/><glyph d="M348 -446q-195 0 -362 139l98 147q131 -111 270 -110q223 0 287 254l51 194q-154 -158 -327 -158q-133 0 -213 91.5t-80 263.5q0 268 159.5 461.5t368.5 193.5q74 0 134.5 -38t92.5 -103h7l26 117h195l-205 -1020q-43 -213 -171 -322.5t-331 -109.5zM444.5 203 q145.5 0 260.5 151l75 373q-66 123 -168 123q-123 0 -218 -134t-95 -313q0 -200 145.5 -200zM391 1223l29 145h551l-27 -145h-553z" glyph-name="uni1E21" horiz-adv-x="1101" unicode="ḡ"/><glyph d="M66 0l266 1339h221l-111 -542h531l108 542h222l-269 -1339h-221l123 604h-530l-119 -604h-221zM506 -436q-51 0 -89 30.5t-38 83.5q0 59 44 101.5t103 42.5q51 0 89 -31t38 -84q0 -61 -43 -102t-104 -41z" glyph-name="uni1E24" horiz-adv-x="1306" unicode="Ḥ"/><glyph d="M45 0l272 1352l238 94l-119 -572h8q164 156 324 156q238 0 238 -254q0 -78 -17 -141l-127 -635h-219l123 606q16 94 16 107q0 129 -127 129q-100 0 -254 -156l-135 -686h-221zM401 -436q-51 0 -89 30.5t-38 83.5q0 59 44 101.5t104 42.5q51 0 89 -31t38 -84 q0 -61 -43.5 -102t-104.5 -41z" glyph-name="uni1E25" horiz-adv-x="1091" unicode="ḥ"/><glyph d="M66 0l266 1339h221l-111 -542h531l108 542h222l-269 -1339h-221l123 604h-530l-119 -604h-221zM498 -430q-158 0 -224.5 89t-52.5 228l146 23q-4 -78 35.5 -133.5t123.5 -55.5t142.5 54.5t85.5 134.5l135 -23q-33 -139 -131 -228t-260 -89z" glyph-name="uni1E2A" horiz-adv-x="1306" unicode="Ḫ"/><glyph d="M45 0l272 1352l238 94l-119 -572h8q164 156 324 156q238 0 238 -254q0 -78 -17 -141l-127 -635h-219l123 606q16 94 16 107q0 129 -127 129q-100 0 -254 -156l-135 -686h-221zM393 -430q-158 0 -224.5 89t-51.5 228l145 23q-4 -78 36 -133.5t124 -55.5t142.5 54.5 t84.5 134.5l135 -23q-33 -139 -131 -228t-260 -89z" glyph-name="uni1E2B" horiz-adv-x="1091" unicode="ḫ"/><glyph d="M66 0l266 1339h221l-121 -606h8l586 606h244l-494 -532l309 -807h-237l-236 668l-241 -246l-84 -422h-221zM238 -348l28 145h551l-26 -145h-553z" glyph-name="uni1E34" horiz-adv-x="1191" unicode="Ḵ"/><glyph d="M45 0l272 1356l234 67l-178 -886h8l444 469h246l-405 -431l266 -575h-248l-172 446l-197 -198l-49 -248h-221zM127 -348l29 145h551l-27 -145h-553z" glyph-name="uni1E35" horiz-adv-x="1026" unicode="ḵ"/><glyph d="M66 0l266 1339h221l-229 -1153h534l-37 -186h-755zM403 -436q-51 0 -89 30.5t-38 83.5q0 59 44.5 101.5t103.5 42.5q51 0 89 -31t38 -84q0 -61 -43.5 -102t-104.5 -41z" glyph-name="uni1E36" horiz-adv-x="985" unicode="Ḷ"/><glyph d="M266 0h-219l270 1354l230 63zM92 -436q-51 0 -89 30.5t-38 83.5q0 59 44 101.5t104 42.5q51 0 89 -31t38 -84q0 -61 -43.5 -102t-104.5 -41z" glyph-name="uni1E37" horiz-adv-x="536" unicode="ḷ"/><glyph d="M66 0l266 1339h221l-229 -1153h534l-37 -186h-755zM193 1483l28 147h557l-28 -147h-557zM403 -436q-51 0 -89 30.5t-38 83.5q0 59 44.5 101.5t103.5 42.5q51 0 89 -31t38 -84q0 -61 -43.5 -102t-104.5 -41z" glyph-name="uni1E38" horiz-adv-x="985" unicode="Ḹ"/><glyph d="M266 0h-219l270 1354l230 63zM201 1665l28 145h551l-26 -145h-553zM92 -436q-51 0 -89 30.5t-38 83.5q0 59 44 101.5t104 42.5q51 0 89 -31t38 -84q0 -61 -43.5 -102t-104.5 -41z" glyph-name="uni1E39" horiz-adv-x="536" unicode="ḹ"/><glyph d="M66 0l266 1339h221l-229 -1153h534l-37 -186h-755zM129 -348l29 145h551l-27 -145h-553z" glyph-name="uni1E3A" horiz-adv-x="985" unicode="Ḻ"/><glyph d="M266 0h-219l270 1354l230 63zM-182 -348l28 145h551l-26 -145h-553z" glyph-name="uni1E3B" horiz-adv-x="536" unicode="ḻ"/><glyph d="M66 0l266 1339h246l151 -827h8l496 827h244l-269 -1339h-209l193 938h-6l-469 -807h-103l-147 807h-8l-191 -938h-202zM584 -453q-51 0 -89 31t-38 84q0 59 44 101t103 42q51 0 89 -30.5t38 -83.5q0 -61 -43 -102.5t-104 -41.5z" glyph-name="uni1E42" horiz-adv-x="1480" unicode="Ṃ"/><glyph d="M45 0l201 1006h194l-26 -142h8q193 166 328 166q199 0 233 -186q197 186 348 186q238 0 238 -254q0 -53 -17 -141l-127 -635h-221l123 606q16 76 16 107q0 129 -122 129q-90 0 -240 -156l-137 -686h-219l120 606q16 76 17 107q0 129 -121 129q-96 0 -240 -156l-135 -686 h-221zM682 -436q-51 0 -89 30.5t-38 83.5q0 59 44 101.5t103 42.5q51 0 89 -31t38 -84q0 -61 -43 -102t-104 -41z" glyph-name="uni1E43" horiz-adv-x="1665" unicode="ṃ"/><glyph d="M66 0l266 1339h217l328 -952h8l192 952h213l-268 -1339h-215l-326 989h-8l-197 -989h-210zM842 1452q-53 0 -90 30.5t-37 84.5q0 59 44 101t103 42q51 0 89 -31.5t38 -85.5q0 -61 -43 -101t-104 -40z" glyph-name="uni1E44" horiz-adv-x="1292" unicode="Ṅ"/><glyph d="M45 0l201 1006h194l-26 -142h8q197 166 346 166q238 0 238 -254q0 -78 -17 -141l-127 -635h-219l123 606q16 94 16 107q0 129 -127 129q-100 0 -254 -156l-135 -686h-221zM731 1184q-51 0 -89 30.5t-38 83.5q0 59 44 101.5t104 42.5q51 0 89 -31t38 -84q0 -61 -43.5 -102 t-104.5 -41z" glyph-name="uni1E45" horiz-adv-x="1103" unicode="ṅ"/><glyph d="M66 0l266 1339h217l328 -952h8l192 952h213l-268 -1339h-215l-326 989h-8l-197 -989h-210zM518 -453q-51 0 -89 31t-38 84q0 59 44 101t104 42q51 0 89 -30.5t38 -83.5q0 -61 -43.5 -102.5t-104.5 -41.5z" glyph-name="uni1E46" horiz-adv-x="1292" unicode="Ṇ"/><glyph d="M45 0l201 1006h194l-26 -142h8q197 166 346 166q238 0 238 -254q0 -78 -17 -141l-127 -635h-219l123 606q16 94 16 107q0 129 -127 129q-100 0 -254 -156l-135 -686h-221zM406 -436q-51 0 -89 30.5t-38 83.5q0 59 44 101.5t103 42.5q51 0 89 -31t38 -84q0 -61 -43 -102 t-104 -41z" glyph-name="uni1E47" horiz-adv-x="1103" unicode="ṇ"/><glyph d="M66 0l266 1339h217l328 -952h8l192 952h213l-268 -1339h-215l-326 989h-8l-197 -989h-210zM244 -365l28 146h551l-26 -146h-553z" glyph-name="uni1E48" horiz-adv-x="1292" unicode="Ṉ"/><glyph d="M45 0l201 1006h194l-26 -142h8q197 166 346 166q238 0 238 -254q0 -78 -17 -141l-127 -635h-219l123 606q16 94 16 107q0 129 -127 129q-100 0 -254 -156l-135 -686h-221zM131 -348l29 145h551l-27 -145h-553z" glyph-name="uni1E49" horiz-adv-x="1103" unicode="ṉ"/><glyph d="M602 -25q-225 0 -354 152t-129 412q0 334 195.5 579.5t471.5 245.5q225 0 354.5 -151.5t129.5 -411.5q0 -336 -194.5 -581t-473.5 -245zM614 166q174 0 302 189.5t128 428.5q0 184 -68.5 287t-201.5 103q-174 0 -301 -189.5t-127 -429.5q0 -184 67.5 -286.5t200.5 -102.5 zM565 1483l29 147h557l-29 -147h-557zM901 1696l-92 73l242 252l131 -106z" glyph-name="uni1E52" horiz-adv-x="1325" unicode="Ṓ"/><glyph d="M444 -25q-170 0 -272 111t-102 299q0 279 169 462t384 183q172 0 274 -109.5t102 -299.5q0 -276 -169 -461t-386 -185zM469 154q121 0 214 136t93 324q0 238 -176 238q-123 0 -216 -135t-93 -324q0 -239 178 -239zM410 1223l28 145h551l-26 -145h-553zM743 1458l-79 70 l206 237l113 -98z" glyph-name="uni1E53" horiz-adv-x="1073" unicode="ṓ"/><glyph d="M428 705h170q170 0 259 73.5t89 202.5q0 96 -64.5 139t-197.5 43h-168zM332 1339h395q203 0 320.5 -78.5t117.5 -248.5q0 -178 -100 -297t-266 -160l221 -555h-236l-194 528h-199l-104 -528h-221zM485 -453q-51 0 -89 31t-38 84q0 59 44 101t104 42q51 0 89 -30.5 t38 -83.5q0 -61 -43.5 -102.5t-104.5 -41.5z" glyph-name="uni1E5A" horiz-adv-x="1179" unicode="Ṛ"/><glyph d="M45 0l201 1006h203l-43 -195h8q139 219 432 221l-125 -213q-201 4 -336 -211l-119 -608h-221zM96 -436q-51 0 -89 30.5t-38 83.5q0 59 44 101.5t104 42.5q51 0 89 -31t38 -84q0 -61 -43.5 -102t-104.5 -41z" glyph-name="uni1E5B" horiz-adv-x="743" unicode="ṛ"/><glyph d="M428 705h170q170 0 259 73.5t89 202.5q0 96 -64.5 139t-197.5 43h-168zM332 1339h395q203 0 320.5 -78.5t117.5 -248.5q0 -178 -100 -297t-266 -160l221 -555h-236l-194 528h-199l-104 -528h-221zM489 1483l29 147h557l-28 -147h-558zM485 -453q-51 0 -89 31t-38 84 q0 59 44 101t104 42q51 0 89 -30.5t38 -83.5q0 -61 -43.5 -102.5t-104.5 -41.5z" glyph-name="uni1E5C" horiz-adv-x="1179" unicode="Ṝ"/><glyph d="M45 0l201 1006h203l-43 -195h8q139 219 432 221l-125 -213q-201 4 -336 -211l-119 -608h-221zM287 1223l28 145h551l-26 -145h-553zM96 -436q-51 0 -89 30.5t-38 83.5q0 59 44 101.5t104 42.5q51 0 89 -31t38 -84q0 -61 -43.5 -102t-104.5 -41z" glyph-name="uni1E5D" horiz-adv-x="743" unicode="ṝ"/><glyph d="M428 705h170q170 0 259 73.5t89 202.5q0 96 -64.5 139t-197.5 43h-168zM332 1339h395q203 0 320.5 -78.5t117.5 -248.5q0 -178 -100 -297t-266 -160l221 -555h-236l-194 528h-199l-104 -528h-221zM211 -365l29 146h551l-27 -146h-553z" glyph-name="uni1E5E" horiz-adv-x="1179" unicode="Ṟ"/><glyph d="M45 0l201 1006h203l-43 -195h8q139 219 432 221l-125 -213q-201 4 -336 -211l-119 -608h-221zM-178 -348l28 145h551l-26 -145h-553z" glyph-name="uni1E5F" horiz-adv-x="743" unicode="ṟ"/><glyph d="M479 -25q-270 0 -463 172l154 162q156 -145 328 -145q106 0 172.5 55t66.5 148q0 57 -39 99t-123 93l-141 86q-203 125 -203 326q0 162 128 277.5t317 115.5q215 0 393 -121l-141 -176q-113 106 -264 107q-94 0 -149.5 -53.5t-55.5 -127.5q0 -59 38 -97t132 -95l143 -86 q102 -59 148.5 -132t46.5 -186q0 -182 -136.5 -302t-351.5 -120zM737 1460q-53 0 -90 31t-37 84q0 59 44 101t104 42q51 0 89 -31.5t38 -84.5q0 -61 -43.5 -101.5t-104.5 -40.5z" glyph-name="uni1E60" horiz-adv-x="1060" unicode="Ṡ"/><glyph d="M340 -25q-123 0 -227 48q-98 47 -125 77l131 136q109 -96 237 -97q72 0 124 38t52 93q0 43 -36.5 75t-143.5 93q-215 119 -215 279q0 135 106.5 224t260.5 89q182 0 315 -96l-117 -141q-84 72 -198 71q-70 0 -115 -36.5t-45 -90.5q0 -16 4 -29.5t15.5 -25.5t20.5 -21.5 t28.5 -21.5t30 -18.5t37 -20.5t36.5 -20q117 -61 170 -127t53 -156q0 -145 -111.5 -233.5t-287.5 -88.5zM571 1184q-51 0 -89 30.5t-38 83.5q0 59 44 101.5t104 42.5q51 0 89 -31t38 -84q0 -61 -43.5 -102t-104.5 -41z" glyph-name="uni1E61" horiz-adv-x="845" unicode="ṡ"/><glyph d="M479 -25q-270 0 -463 172l154 162q156 -145 328 -145q106 0 172.5 55t66.5 148q0 57 -39 99t-123 93l-141 86q-203 125 -203 326q0 162 128 277.5t317 115.5q215 0 393 -121l-141 -176q-113 106 -264 107q-94 0 -149.5 -53.5t-55.5 -127.5q0 -59 38 -97t132 -95l143 -86 q102 -59 148.5 -132t46.5 -186q0 -182 -136.5 -302t-351.5 -120zM408 -453q-51 0 -89 31t-38 84q0 59 44 101t103 42q51 0 89 -30.5t38 -83.5q0 -61 -43 -102.5t-104 -41.5z" glyph-name="uni1E62" horiz-adv-x="1060" unicode="Ṣ"/><glyph d="M340 -25q-123 0 -227 48q-98 47 -125 77l131 136q109 -96 237 -97q72 0 124 38t52 93q0 43 -36.5 75t-143.5 93q-215 119 -215 279q0 135 106.5 224t260.5 89q182 0 315 -96l-117 -141q-84 72 -198 71q-70 0 -115 -36.5t-45 -90.5q0 -16 4 -29.5t15.5 -25.5t20.5 -21.5 t28.5 -21.5t30 -18.5t37 -20.5t36.5 -20q117 -61 170 -127t53 -156q0 -145 -111.5 -233.5t-287.5 -88.5zM291 -436q-51 0 -89 30.5t-38 83.5q0 59 44 101.5t103 42.5q51 0 89 -31t38 -84q0 -61 -43 -102t-104 -41z" glyph-name="uni1E63" horiz-adv-x="845" unicode="ṣ"/><glyph d="M322 0l229 1151h-371l37 188h963l-37 -188h-371l-229 -1151h-221zM365 -436q-51 0 -89 30.5t-38 83.5q0 59 44 101.5t103 42.5q51 0 89 -31t38 -84q0 -61 -43 -102t-104 -41z" glyph-name="uni1E6C" horiz-adv-x="1067" unicode="Ṭ"/><glyph d="M397 -25q-135 0 -198.5 67t-63.5 179q0 37 12 119l103 491h-141l34 175h152l47 196l225 74l-61 -270h242l-35 -175h-246l-102 -499q-6 -37 -7 -72q0 -111 117 -110q61 0 129 32l-35 -176q-68 -31 -172 -31zM276 -436q-51 0 -88.5 30.5t-37.5 83.5q0 59 44 101.5t103 42.5 q51 0 89 -31t38 -84q0 -61 -43.5 -102t-104.5 -41z" glyph-name="uni1E6D" horiz-adv-x="708" unicode="ṭ"/><glyph d="M322 0l229 1151h-371l37 188h963l-37 -188h-371l-229 -1151h-221zM90 -348l29 145h551l-27 -145h-553z" glyph-name="uni1E6E" horiz-adv-x="1067" unicode="Ṯ"/><glyph d="M397 -25q-135 0 -198.5 67t-63.5 179q0 37 12 119l103 491h-141l34 175h152l47 196l225 74l-61 -270h242l-35 -175h-246l-102 -499q-6 -37 -7 -72q0 -111 117 -110q61 0 129 32l-35 -176q-68 -31 -172 -31zM2 -348l29 145h551l-27 -145h-553z" glyph-name="uni1E6F" horiz-adv-x="708" unicode="ṯ"/><glyph d="M176 0l33 1339h225l-61 -1060h8l487 1060h191l6 -1060h8l418 1060h213l-537 -1339h-278l-2 946h-8l-428 -946h-275zM1020 1401l-305 268l153 139l277 -299z" glyph-name="Wgrave" horiz-adv-x="1587" unicode="Ẁ"/><glyph d="M205 0l-60 1006h217l15 -779h8l350 779h201l31 -779h8l334 779h204l-442 -1006h-262l-27 707h-8l-313 -707h-256zM940 1165l-293 344l189 142l239 -379z" glyph-name="wgrave" horiz-adv-x="1490" unicode="ẁ"/><glyph d="M176 0l33 1339h225l-61 -1060h8l487 1060h191l6 -1060h8l418 1060h213l-537 -1339h-278l-2 946h-8l-428 -946h-275zM915 1421l-86 127l369 246l102 -164z" glyph-name="Wacute" horiz-adv-x="1587" unicode="Ẃ"/><glyph d="M205 0l-60 1006h217l15 -779h8l350 779h201l31 -779h8l334 779h204l-442 -1006h-262l-27 707h-8l-313 -707h-256zM823 1186l-98 125l362 327l134 -170z" glyph-name="wacute" horiz-adv-x="1490" unicode="ẃ"/><glyph d="M176 0l33 1339h225l-61 -1060h8l487 1060h191l6 -1060h8l418 1060h213l-537 -1339h-278l-2 946h-8l-428 -946h-275zM766 1450q-45 0 -72.5 26.5t-27.5 73.5q0 51 36.5 92t90.5 41q43 0 71.5 -26.5t28.5 -73.5q0 -51 -37 -92t-90 -41zM1171 1450q-45 0 -72.5 26.5 t-27.5 73.5q0 51 37 92t90 41q43 0 71.5 -26.5t28.5 -73.5q0 -51 -37 -92t-90 -41z" glyph-name="Wdieresis" horiz-adv-x="1587" unicode="Ẅ"/><glyph d="M205 0l-60 1006h217l15 -779h8l350 779h201l31 -779h8l334 779h204l-442 -1006h-262l-27 707h-8l-313 -707h-256zM678 1188q-45 0 -74 27.5t-29 74.5q0 53 38 93t92 40q45 0 73.5 -28.5t28.5 -75.5q0 -55 -38 -93t-91 -38zM1083 1188q-45 0 -73.5 27.5t-28.5 74.5 q0 53 38 93t91 40q45 0 73.5 -27.5t28.5 -76.5q0 -55 -38 -93t-91 -38z" glyph-name="wdieresis" horiz-adv-x="1490" unicode="ẅ"/><glyph d="M283 0l100 504l-215 835h227l131 -626h9l395 626h237l-563 -835l-100 -504h-221zM672 1452q-53 0 -90 30.5t-37 84.5q0 59 44 101t103 42q51 0 89 -31.5t38 -85.5q0 -61 -43 -101t-104 -40z" glyph-name="uni1E8E" horiz-adv-x="995" unicode="Ẏ"/><glyph d="M31 -414q-66 0 -129 37l69 160q33 -20 74 -21q135 0 225 187l31 61l-174 996h219l96 -744h9l383 744h213l-566 -1059q-102 -180 -204.5 -270.5t-245.5 -90.5zM602 1184q-51 0 -89 30.5t-38 83.5q0 59 44 101.5t104 42.5q51 0 89 -31t38 -84q0 -61 -43.5 -102t-104.5 -41z " glyph-name="uni1E8F" horiz-adv-x="970" unicode="ẏ"/><glyph d="M-6 0l29 133l770 1020h-570l37 186h834l-27 -133l-764 -1020h627l-39 -186h-897zM367 -453q-51 0 -89 31t-38 84q0 59 44 101t103 42q51 0 89 -30.5t38 -83.5q0 -61 -43 -102.5t-104 -41.5z" glyph-name="uni1E92" horiz-adv-x="1062" unicode="Ẓ"/><glyph d="M-20 0l24 125l569 706h-409l35 175h686l-25 -127l-571 -705h473l-35 -174h-747zM297 -436q-51 0 -89 30.5t-38 83.5q0 59 44 101.5t103 42.5q51 0 89 -31t38 -84q0 -61 -43 -102t-104 -41z" glyph-name="uni1E93" horiz-adv-x="874" unicode="ẓ"/><glyph d="M397 -25q-135 0 -198.5 67t-63.5 179q0 37 12 119l103 491h-141l34 175h152l47 196l225 74l-61 -270h242l-35 -175h-246l-102 -499q-6 -37 -7 -72q0 -111 117 -110q61 0 129 32l-35 -176q-68 -31 -172 -31zM291 1470q-45 0 -74 28t-29 75q0 53 38 93t91 40q45 0 74 -28.5 t29 -75.5q0 -55 -38 -93.5t-91 -38.5zM696 1470q-45 0 -73.5 28t-28.5 75q0 53 38 93t91 40q45 0 73.5 -27.5t28.5 -76.5q0 -55 -38 -93.5t-91 -38.5z" glyph-name="uni1E97" horiz-adv-x="708" unicode="ẗ"/><glyph d="M831 -25q-231 0 -366 168l129 136q90 -125 223 -125q82 0 142.5 61t60.5 152q0 76 -73 143.5t-228 107.5l12 134l305 274q-57 172 -250 172q-125 0 -213 -93t-122 -269l-164 -836h-221l176 887q43 221 184 355t375 134q186 0 308 -93t144 -286l-305 -268 q141 -55 220 -144t79 -204q0 -172 -117 -289t-299 -117z" glyph-name="uni1E9E" horiz-adv-x="1335" unicode="ẞ"/><glyph d="M393 545h342l-39 583h-8zM774 0l-26 377h-437l-186 -377h-244l717 1339h262l144 -1339h-230zM399 -436q-51 0 -89 30.5t-38 83.5q0 59 44 101.5t104 42.5q51 0 89 -31t38 -84q0 -61 -43.5 -102t-104.5 -41z" glyph-name="uni1EA0" horiz-adv-x="1083" unicode="Ạ"/><glyph d="M358 -25q-135 0 -210.5 95.5t-75.5 271.5q0 283 163.5 485.5t376.5 202.5q156 0 232 -141h4l26 117h193l-201 -1006h-202l32 139h-6q-131 -164 -332 -164zM449 156q133 0 258 139l92 450q-78 104 -174 105q-129 0 -227.5 -142.5t-98.5 -334.5q0 -217 150 -217zM420 -436 q-51 0 -89 30.5t-38 83.5q0 59 44 101.5t103 42.5q51 0 89 -31t38 -84q0 -61 -43 -102t-104 -41z" glyph-name="uni1EA1" horiz-adv-x="1114" unicode="ạ"/><glyph d="M393 545h342l-39 583h-8zM774 0l-26 377h-437l-186 -377h-244l717 1339h262l144 -1339h-230zM627 1421l-2 101q109 25 116 75q6 35 -29.5 54.5t-121.5 23.5l51 125q315 -8 281 -176q-35 -172 -295 -203z" glyph-name="uni1EA2" horiz-adv-x="1083" unicode="Ả"/><glyph d="M358 -25q-135 0 -210.5 95.5t-75.5 271.5q0 283 163.5 485.5t376.5 202.5q156 0 232 -141h4l26 117h193l-201 -1006h-202l32 139h-6q-131 -164 -332 -164zM449 156q133 0 258 139l92 450q-78 104 -174 105q-129 0 -227.5 -142.5t-98.5 -334.5q0 -217 150 -217zM592 1167 l-2 101q106 27 117 84q18 82 -148 90l41 149q328 -8 289 -221q-35 -172 -297 -203z" glyph-name="uni1EA3" horiz-adv-x="1114" unicode="ả"/><glyph d="M393 545h342l-39 583h-8zM774 0l-26 377h-437l-186 -377h-244l717 1339h262l144 -1339h-230zM532 1417l-86 68l224 194h204l152 -196l-104 -66l-162 144h-8zM1016 1567l-62 90l236 162l65 -109z" glyph-name="uni1EA4" horiz-adv-x="1083" unicode="Ấ"/><glyph d="M358 -25q-135 0 -210.5 95.5t-75.5 271.5q0 283 163.5 485.5t376.5 202.5q156 0 232 -141h4l26 117h193l-201 -1006h-202l32 139h-6q-131 -164 -332 -164zM449 156q133 0 258 139l92 450q-78 104 -174 105q-129 0 -227.5 -142.5t-98.5 -334.5q0 -217 150 -217zM471 1163 l-68 94l232 183h188l166 -195l-90 -82l-178 148h-8zM1004 1313l-80 82l215 235l114 -100z" glyph-name="uni1EA5" horiz-adv-x="1114" unicode="ấ"/><glyph d="M393 545h342l-39 583h-8zM774 0l-26 377h-437l-186 -377h-244l717 1339h262l144 -1339h-230zM532 1417l-86 68l224 194h204l152 -196l-104 -66l-162 144h-8zM473 1571l-184 168l100 90l172 -184z" glyph-name="uni1EA6" horiz-adv-x="1083" unicode="Ầ"/><glyph d="M358 -25q-135 0 -210.5 95.5t-75.5 271.5q0 283 163.5 485.5t376.5 202.5q156 0 232 -141h4l26 117h193l-201 -1006h-202l32 139h-6q-131 -164 -332 -164zM449 156q133 0 258 139l92 450q-78 104 -174 105q-129 0 -227.5 -142.5t-98.5 -334.5q0 -217 150 -217zM471 1163 l-68 94l232 183h188l166 -195l-90 -82l-178 148h-8zM369 1307l-181 247l146 78l139 -258z" glyph-name="uni1EA7" horiz-adv-x="1114" unicode="ầ"/><glyph d="M393 545h342l-39 583h-8zM774 0l-26 377h-437l-186 -377h-244l717 1339h262l144 -1339h-230zM532 1417l-86 68l224 194h204l152 -196l-104 -66l-162 144h-8zM1004 1542l-9 82q82 18 90 66q8 35 -19.5 52t-104.5 21l38 105q141 -6 201 -46t45 -112q-30 -150 -241 -168z " glyph-name="uni1EA8" horiz-adv-x="1083" unicode="Ẩ"/><glyph d="M358 -25q-135 0 -210.5 95.5t-75.5 271.5q0 283 163.5 485.5t376.5 202.5q156 0 232 -141h4l26 117h193l-201 -1006h-202l32 139h-6q-131 -164 -332 -164zM449 156q133 0 258 139l92 450q-78 104 -174 105q-129 0 -227.5 -142.5t-98.5 -334.5q0 -217 150 -217zM471 1163 l-68 94l232 183h188l166 -195l-90 -82l-178 148h-8zM969 1311l-6 86q78 25 86 69q6 37 -22 54.5t-101 21.5l39 107q276 -8 247.5 -157.5t-243.5 -180.5z" glyph-name="uni1EA9" horiz-adv-x="1114" unicode="ẩ"/><glyph d="M393 545h342l-39 583h-8zM774 0l-26 377h-437l-186 -377h-244l717 1339h262l144 -1339h-230zM530 1417l-84 68l222 182h204l154 -184l-106 -66l-162 131h-8zM905 1718q-66 0 -131 48.5t-94 48.5q-61 0 -86 -89l-117 15q49 207 213 207q66 0 131.5 -48.5t93.5 -48.5 q61 0 89 88l114 -14q-49 -207 -213 -207z" glyph-name="uni1EAA" horiz-adv-x="1083" unicode="Ẫ"/><glyph d="M358 -25q-135 0 -210.5 95.5t-75.5 271.5q0 283 163.5 485.5t376.5 202.5q156 0 232 -141h4l26 117h193l-201 -1006h-202l32 139h-6q-131 -164 -332 -164zM449 156q133 0 258 139l92 450q-78 104 -174 105q-129 0 -227.5 -142.5t-98.5 -334.5q0 -217 150 -217zM471 1163 l-68 94l226 170h190l170 -182l-90 -82l-182 135h-8zM858 1460q-63 0 -128.5 43t-96.5 43q-47 0 -80 -82l-111 13q61 205 203 204q63 0 129 -43t94 -43q53 0 80 82l111 -12q-56 -205 -201 -205z" glyph-name="uni1EAB" horiz-adv-x="1114" unicode="ẫ"/><glyph d="M393 545h342l-39 583h-8zM774 0l-26 377h-437l-186 -377h-244l717 1339h262l144 -1339h-230zM500 1417l-92 74l239 221h254l158 -227l-111 -66l-180 180h-8zM399 -436q-51 0 -89 30.5t-38 83.5q0 59 44 101.5t104 42.5q51 0 89 -31t38 -84q0 -61 -43.5 -102t-104.5 -41z " glyph-name="uni1EAC" horiz-adv-x="1083" unicode="Ậ"/><glyph d="M358 -25q-135 0 -210.5 95.5t-75.5 271.5q0 283 163.5 485.5t376.5 202.5q156 0 232 -141h4l26 117h193l-201 -1006h-202l32 139h-6q-131 -164 -332 -164zM449 156q133 0 258 139l92 450q-78 104 -174 105q-129 0 -227.5 -142.5t-98.5 -334.5q0 -217 150 -217zM424 1155 l-80 92l274 273h240l178 -279l-102 -86l-205 217h-8zM420 -436q-51 0 -89 30.5t-38 83.5q0 59 44 101.5t103 42.5q51 0 89 -31t38 -84q0 -61 -43 -102t-104 -41z" glyph-name="uni1EAD" horiz-adv-x="1114" unicode="ậ"/><glyph d="M393 545h342l-39 583h-8zM774 0l-26 377h-437l-186 -377h-244l717 1339h262l144 -1339h-230zM723 1436q-143 0 -208.5 72.5t-59.5 199.5l127 23q4 -166 166 -166q160 0 225 166l117 -23q-37 -127 -129.5 -199.5t-237.5 -72.5zM770 1671l-102 86l241 240l129 -107z" glyph-name="uni1EAE" horiz-adv-x="1083" unicode="Ắ"/><glyph d="M358 -25q-135 0 -210.5 95.5t-75.5 271.5q0 283 163.5 485.5t376.5 202.5q156 0 232 -141h4l26 117h193l-201 -1006h-202l32 139h-6q-131 -164 -332 -164zM449 156q133 0 258 139l92 450q-78 104 -174 105q-129 0 -227.5 -142.5t-98.5 -334.5q0 -217 150 -217zM711 1169 q-158 0 -224.5 89.5t-52.5 228.5l133 22q-4 -86 38 -143t132 -57t152.5 57t89.5 143l123 -22q-33 -139 -131 -228.5t-260 -89.5zM764 1446l-90 84l233 244l123 -119z" glyph-name="uni1EAF" horiz-adv-x="1114" unicode="ắ"/><glyph d="M393 545h342l-39 583h-8zM774 0l-26 377h-437l-186 -377h-244l717 1339h262l144 -1339h-230zM723 1436q-143 0 -208.5 72.5t-59.5 199.5l127 23q4 -166 166 -166q160 0 225 166l117 -23q-37 -127 -129.5 -199.5t-237.5 -72.5zM760 1661l-185 258l162 80l150 -270z" glyph-name="uni1EB0" horiz-adv-x="1083" unicode="Ằ"/><glyph d="M358 -25q-135 0 -210.5 95.5t-75.5 271.5q0 283 163.5 485.5t376.5 202.5q156 0 232 -141h4l26 117h193l-201 -1006h-202l32 139h-6q-131 -164 -332 -164zM449 156q133 0 258 139l92 450q-78 104 -174 105q-129 0 -227.5 -142.5t-98.5 -334.5q0 -217 150 -217zM711 1169 q-158 0 -224.5 89.5t-52.5 228.5l133 22q-4 -86 38 -143t132 -57t152.5 57t89.5 143l123 -22q-33 -139 -131 -228.5t-260 -89.5zM756 1436l-185 247l158 95l143 -279z" glyph-name="uni1EB1" horiz-adv-x="1114" unicode="ằ"/><glyph d="M393 545h342l-39 583h-8zM774 0l-26 377h-437l-186 -377h-244l717 1339h262l144 -1339h-230zM721 1436q-143 0 -209 72.5t-55 199.5l125 23q0 -76 42 -121t124 -45q160 0 225 166l119 -23q-39 -127 -132.5 -199.5t-238.5 -72.5zM705 1645l-7 84q82 18 93 65 q6 35 -22 51.5t-103 22.5l43 104q139 -4 197.5 -44t45.5 -113q-26 -139 -247 -170z" glyph-name="uni1EB2" horiz-adv-x="1083" unicode="Ẳ"/><glyph d="M358 -25q-135 0 -210.5 95.5t-75.5 271.5q0 283 163.5 485.5t376.5 202.5q156 0 232 -141h4l26 117h193l-201 -1006h-202l32 139h-6q-131 -164 -332 -164zM449 156q133 0 258 139l92 450q-78 104 -174 105q-129 0 -227.5 -142.5t-98.5 -334.5q0 -217 150 -217zM709 1169 q-160 0 -225.5 89.5t-47.5 228.5l131 22q-4 -86 37 -143t131 -57q88 0 152.5 57t91.5 143l123 -22q-31 -137 -131 -227.5t-262 -90.5zM692 1413l-2 88q88 18 96 70q8 35 -21.5 53t-109.5 23l45 133q145 -4 206 -51.5t44 -133.5q-29 -151 -258 -182z" glyph-name="uni1EB3" horiz-adv-x="1114" unicode="ẳ"/><glyph d="M393 545h342l-39 583h-8zM774 0l-26 377h-437l-186 -377h-244l717 1339h262l144 -1339h-230zM729 1444q-141 0 -206.5 60.5t-59.5 162.5l123 21q12 -125 166 -125q150 0 209 125l116 -21q-31 -102 -119 -162.5t-229 -60.5zM911 1731q-68 0 -134 48t-95 48q-57 0 -86 -88 l-117 14q49 207 213 207q68 0 134.5 -48t95.5 -48q61 0 86 88l114 -15q-49 -206 -211 -206z" glyph-name="uni1EB4" horiz-adv-x="1083" unicode="Ẵ"/><glyph d="M358 -25q-135 0 -210.5 95.5t-75.5 271.5q0 283 163.5 485.5t376.5 202.5q156 0 232 -141h4l26 117h193l-201 -1006h-202l32 139h-6q-131 -164 -332 -164zM449 156q133 0 258 139l92 450q-78 104 -174 105q-129 0 -227.5 -142.5t-98.5 -334.5q0 -217 150 -217z M712.5 1169q-143.5 0 -208 65.5t-55.5 162.5l124 20q2 -53 41 -88t121 -35t134.5 35t70.5 88l119 -20q-27 -96 -115 -162t-231.5 -66zM891 1458q-63 0 -130 43t-95 43q-51 0 -78 -82l-123 13q55 205 213 204q63 0 128.5 -43t94.5 -43t46.5 18.5t35.5 63.5l123 -12 q-61 -205 -215 -205z" glyph-name="uni1EB5" horiz-adv-x="1114" unicode="ẵ"/><glyph d="M393 545h342l-39 583h-8zM774 0l-26 377h-437l-186 -377h-244l717 1339h262l144 -1339h-230zM721 1436q-143 0 -209 72.5t-59 199.5l139 23q0 -70 40 -112t116 -42q145 0 210 154l129 -23q-37 -127 -129 -199.5t-237 -72.5zM399 -436q-51 0 -89 30.5t-38 83.5 q0 59 44 101.5t104 42.5q51 0 89 -31t38 -84q0 -61 -43.5 -102t-104.5 -41z" glyph-name="uni1EB6" horiz-adv-x="1083" unicode="Ặ"/><glyph d="M358 -25q-135 0 -210.5 95.5t-75.5 271.5q0 283 163.5 485.5t376.5 202.5q156 0 232 -141h4l26 117h193l-201 -1006h-202l32 139h-6q-131 -164 -332 -164zM449 156q133 0 258 139l92 450q-78 104 -174 105q-129 0 -227.5 -142.5t-98.5 -334.5q0 -217 150 -217zM676 1169 q-158 0 -224.5 89.5t-52.5 228.5l146 22q-4 -78 36 -133t123.5 -55t142 54.5t85.5 133.5l135 -22q-33 -139 -131 -228.5t-260 -89.5zM420 -436q-51 0 -89 30.5t-38 83.5q0 59 44 101.5t103 42.5q51 0 89 -31t38 -84q0 -61 -43 -102t-104 -41z" glyph-name="uni1EB7" horiz-adv-x="1114" unicode="ặ"/><glyph d="M66 0l266 1339h768l-74 -186h-512l-72 -360h342l-36 -187h-340l-86 -420h565l-37 -186h-784zM428 -436q-51 0 -89 30.5t-38 83.5q0 59 44 101.5t104 42.5q51 0 88.5 -31t37.5 -84q0 -61 -43 -102t-104 -41z" glyph-name="uni1EB8" horiz-adv-x="1054" unicode="Ẹ"/><glyph d="M68 401q0 270 170 449.5t378 179.5q166 0 243 -101.5t77 -269.5q0 -59 -29 -213h-626q-16 -152 54.5 -227.5t192.5 -75.5q117 0 209 74l94 -147q-117 -94 -360 -95q-182 0 -292.5 113.5t-110.5 312.5zM297 575h444q12 61 13 99q0 82 -39 134t-125 52q-96 0 -176 -75 t-117 -210zM379 -436q-51 0 -89 30.5t-38 83.5q0 59 44 101.5t103 42.5q51 0 89 -31t38 -84q0 -61 -43 -102t-104 -41z" glyph-name="uni1EB9" horiz-adv-x="999" unicode="ẹ"/><glyph d="M66 0l266 1339h768l-74 -186h-512l-72 -360h342l-36 -187h-340l-86 -420h565l-37 -186h-784zM641 1421l-2 101q109 25 117 75q6 35 -30 54.5t-122 23.5l51 125q315 -8 281 -176q-35 -172 -295 -203z" glyph-name="uni1EBA" horiz-adv-x="1054" unicode="Ẻ"/><glyph d="M68 401q0 270 170 449.5t378 179.5q166 0 243 -101.5t77 -269.5q0 -59 -29 -213h-626q-16 -152 54.5 -227.5t192.5 -75.5q117 0 209 74l94 -147q-117 -94 -360 -95q-182 0 -292.5 113.5t-110.5 312.5zM297 575h444q12 61 13 99q0 82 -39 134t-125 52q-96 0 -176 -75 t-117 -210zM578 1167l-3 101q106 27 117 84q18 82 -147 90l41 149q328 -8 288 -221q-34 -172 -296 -203z" glyph-name="uni1EBB" horiz-adv-x="999" unicode="ẻ"/><glyph d="M66 0l266 1339h768l-74 -186h-512l-72 -360h342l-36 -187h-340l-86 -420h565l-37 -186h-784zM883 1434q-49 0 -91 20.5t-66 46t-52.5 46t-55.5 20.5q-74 0 -108 -119l-150 12q29 135 103 204t178 69q61 0 110.5 -33t86 -65.5t67.5 -32.5q70 0 109 118l149 -12 q-29 -135 -103.5 -204.5t-176.5 -69.5z" glyph-name="uni1EBC" horiz-adv-x="1054" unicode="Ẽ"/><glyph d="M68 401q0 270 170 449.5t378 179.5q166 0 243 -101.5t77 -269.5q0 -59 -29 -213h-626q-16 -152 54.5 -227.5t192.5 -75.5q117 0 209 74l94 -147q-117 -94 -360 -95q-182 0 -292.5 113.5t-110.5 312.5zM297 575h444q12 61 13 99q0 82 -39 134t-125 52q-96 0 -176 -75 t-117 -210zM809 1178q-59 0 -104.5 37.5t-81 76.5t-74.5 39q-78 0 -107 -139l-149 8q55 295 268 295q59 0 104.5 -38t82 -76t73.5 -38q82 0 107 138l149 -8q-55 -295 -268 -295z" glyph-name="uni1EBD" horiz-adv-x="999" unicode="ẽ"/><glyph d="M66 0l266 1339h768l-74 -186h-512l-72 -360h342l-36 -187h-340l-86 -420h565l-37 -186h-784zM547 1417l-86 68l223 194h205l151 -196l-104 -66l-162 144h-8zM1030 1567l-61 90l235 162l66 -109z" glyph-name="uni1EBE" horiz-adv-x="1054" unicode="Ế"/><glyph d="M68 401q0 270 170 449.5t378 179.5q166 0 243 -101.5t77 -269.5q0 -59 -29 -213h-626q-16 -152 54.5 -227.5t192.5 -75.5q117 0 209 74l94 -147q-117 -94 -360 -95q-182 0 -292.5 113.5t-110.5 312.5zM297 575h444q12 61 13 99q0 82 -39 134t-125 52q-96 0 -176 -75 t-117 -210zM444 1163l-67 94l231 183h189l166 -195l-91 -82l-178 148h-8zM977 1313l-80 82l215 235l115 -100z" glyph-name="uni1EBF" horiz-adv-x="999" unicode="ế"/><glyph d="M66 0l266 1339h768l-74 -186h-512l-72 -360h342l-36 -187h-340l-86 -420h565l-37 -186h-784zM547 1417l-86 68l223 194h205l151 -196l-104 -66l-162 144h-8zM487 1571l-184 168l100 90l172 -184z" glyph-name="uni1EC0" horiz-adv-x="1054" unicode="Ề"/><glyph d="M68 401q0 270 170 449.5t378 179.5q166 0 243 -101.5t77 -269.5q0 -59 -29 -213h-626q-16 -152 54.5 -227.5t192.5 -75.5q117 0 209 74l94 -147q-117 -94 -360 -95q-182 0 -292.5 113.5t-110.5 312.5zM297 575h444q12 61 13 99q0 82 -39 134t-125 52q-96 0 -176 -75 t-117 -210zM444 1163l-67 94l231 183h189l166 -195l-91 -82l-178 148h-8zM342 1307l-180 247l145 78l139 -258z" glyph-name="uni1EC1" horiz-adv-x="999" unicode="ề"/><glyph d="M66 0l266 1339h768l-74 -186h-512l-72 -360h342l-36 -187h-340l-86 -420h565l-37 -186h-784zM547 1417l-86 68l223 194h205l151 -196l-104 -66l-162 144h-8zM1018 1542l-8 82q82 18 90 66q8 35 -19.5 52t-105.5 21l39 105q141 -6 200.5 -46t45.5 -112q-31 -150 -242 -168 z" glyph-name="uni1EC2" horiz-adv-x="1054" unicode="Ể"/><glyph d="M68 401q0 270 170 449.5t378 179.5q166 0 243 -101.5t77 -269.5q0 -59 -29 -213h-626q-16 -152 54.5 -227.5t192.5 -75.5q117 0 209 74l94 -147q-117 -94 -360 -95q-182 0 -292.5 113.5t-110.5 312.5zM297 575h444q12 61 13 99q0 82 -39 134t-125 52q-96 0 -176 -75 t-117 -210zM444 1163l-67 94l231 183h189l166 -195l-91 -82l-178 148h-8zM942 1311l-6 86q78 25 86 69q6 37 -21.5 54.5t-101.5 21.5l39 107q276 -8 247.5 -157.5t-243.5 -180.5z" glyph-name="uni1EC3" horiz-adv-x="999" unicode="ể"/><glyph d="M66 0l266 1339h768l-74 -186h-512l-72 -360h342l-36 -187h-340l-86 -420h565l-37 -186h-784zM545 1417l-84 68l221 182h205l153 -184l-106 -66l-162 131h-8zM920 1718q-66 0 -131.5 48.5t-94.5 48.5q-61 0 -86 -89l-116 15q49 207 213 207q66 0 131 -48.5t94 -48.5 q61 0 88 88l115 -14q-49 -207 -213 -207z" glyph-name="uni1EC4" horiz-adv-x="1054" unicode="Ễ"/><glyph d="M68 401q0 270 170 449.5t378 179.5q166 0 243 -101.5t77 -269.5q0 -59 -29 -213h-626q-16 -152 54.5 -227.5t192.5 -75.5q117 0 209 74l94 -147q-117 -94 -360 -95q-182 0 -292.5 113.5t-110.5 312.5zM297 575h444q12 61 13 99q0 82 -39 134t-125 52q-96 0 -176 -75 t-117 -210zM444 1163l-67 94l225 170h191l170 -182l-91 -82l-182 135h-8zM831 1460q-63 0 -128.5 43t-96.5 43q-47 0 -80 -82l-110 13q61 205 202 204q63 0 129 -43t95 -43q53 0 80 82l110 -12q-56 -205 -201 -205z" glyph-name="uni1EC5" horiz-adv-x="999" unicode="ễ"/><glyph d="M66 0l266 1339h768l-74 -186h-512l-72 -360h342l-36 -187h-340l-86 -420h565l-37 -186h-784zM514 1417l-92 74l240 221h253l158 -227l-110 -66l-181 180h-8zM428 -436q-51 0 -89 30.5t-38 83.5q0 59 44 101.5t104 42.5q51 0 88.5 -31t37.5 -84q0 -61 -43 -102t-104 -41z " glyph-name="uni1EC6" horiz-adv-x="1054" unicode="Ệ"/><glyph d="M68 401q0 270 170 449.5t378 179.5q166 0 243 -101.5t77 -269.5q0 -59 -29 -213h-626q-16 -152 54.5 -227.5t192.5 -75.5q117 0 209 74l94 -147q-117 -94 -360 -95q-182 0 -292.5 113.5t-110.5 312.5zM297 575h444q12 61 13 99q0 82 -39 134t-125 52q-96 0 -176 -75 t-117 -210zM397 1155l-80 92l275 273h239l179 -279l-103 -86l-205 217h-8zM379 -436q-51 0 -89 30.5t-38 83.5q0 59 44 101.5t103 42.5q51 0 89 -31t38 -84q0 -61 -43 -102t-104 -41z" glyph-name="uni1EC7" horiz-adv-x="999" unicode="ệ"/><glyph d="M66 0l266 1339h221l-266 -1339h-221zM348 1421l-2 101q109 25 117 75q6 35 -30 54.5t-122 23.5l51 125q315 -8 281 -176q-35 -172 -295 -203z" glyph-name="uni1EC8" horiz-adv-x="559" unicode="Ỉ"/><glyph d="M45 0l203 1006h219l-201 -1006h-221zM315 1167l-2 101q106 27 117 84q18 82 -147 90l41 149q328 -8 288 -221q-35 -172 -297 -203z" glyph-name="uni1EC9" horiz-adv-x="514" unicode="ỉ"/><glyph d="M66 0l266 1339h221l-266 -1339h-221zM117 -442q-51 0 -89 30.5t-38 83.5q0 59 44 101.5t103 42.5q51 0 89 -31t38 -84q0 -61 -43 -102t-104 -41z" glyph-name="uni1ECA" horiz-adv-x="559" unicode="Ị"/><glyph d="M45 0l203 1006h219l-201 -1006h-221zM410 1184q-51 0 -88 30.5t-37 83.5q0 59 43 101.5t104 42.5q51 0 88 -31t37 -84q0 -61 -43 -102t-104 -41zM98 -436q-51 0 -89 30.5t-38 83.5q0 59 44 101.5t104 42.5q51 0 89 -31t38 -84q0 -61 -43.5 -102t-104.5 -41z" glyph-name="uni1ECB" horiz-adv-x="514" unicode="ị"/><glyph d="M602 -25q-225 0 -354 152t-129 412q0 334 195.5 579.5t471.5 245.5q225 0 354.5 -151.5t129.5 -411.5q0 -336 -194.5 -581t-473.5 -245zM614 166q174 0 302 189.5t128 428.5q0 184 -68.5 287t-201.5 103q-174 0 -301 -189.5t-127 -429.5q0 -184 67.5 -286.5t200.5 -102.5 zM516 -436q-51 0 -89 30.5t-38 83.5q0 59 44 101.5t104 42.5q51 0 89 -31t38 -84q0 -61 -43.5 -102t-104.5 -41z" glyph-name="uni1ECC" horiz-adv-x="1325" unicode="Ọ"/><glyph d="M444 -25q-170 0 -272 111t-102 299q0 279 169 462t384 183q172 0 274 -109.5t102 -299.5q0 -276 -169 -461t-386 -185zM469 154q121 0 214 136t93 324q0 238 -176 238q-123 0 -216 -135t-93 -324q0 -239 178 -239zM332 -436q-51 0 -89 30.5t-38 83.5q0 59 44 101.5 t103 42.5q51 0 89 -31t38 -84q0 -61 -43 -102t-104 -41z" glyph-name="uni1ECD" horiz-adv-x="1073" unicode="ọ"/><glyph d="M602 -25q-225 0 -354 152t-129 412q0 334 195.5 579.5t471.5 245.5q225 0 354.5 -151.5t129.5 -411.5q0 -336 -194.5 -581t-473.5 -245zM614 166q174 0 302 189.5t128 428.5q0 184 -68.5 287t-201.5 103q-174 0 -301 -189.5t-127 -429.5q0 -184 67.5 -286.5t200.5 -102.5 zM743 1421l-2 101q109 25 117 75q6 35 -29.5 54.5t-121.5 23.5l51 125q315 -8 280 -176q-35 -172 -295 -203z" glyph-name="uni1ECE" horiz-adv-x="1325" unicode="Ỏ"/><glyph d="M444 -25q-170 0 -272 111t-102 299q0 279 169 462t384 183q172 0 274 -109.5t102 -299.5q0 -276 -169 -461t-386 -185zM469 154q121 0 214 136t93 324q0 238 -176 238q-123 0 -216 -135t-93 -324q0 -239 178 -239zM596 1167l-2 101q106 27 117 84q18 82 -148 90l41 149 q328 -8 289 -221q-35 -172 -297 -203z" glyph-name="uni1ECF" horiz-adv-x="1073" unicode="ỏ"/><glyph d="M602 -25q-225 0 -354 152t-129 412q0 334 195.5 579.5t471.5 245.5q225 0 354.5 -151.5t129.5 -411.5q0 -336 -194.5 -581t-473.5 -245zM614 166q174 0 302 189.5t128 428.5q0 184 -68.5 287t-201.5 103q-174 0 -301 -189.5t-127 -429.5q0 -184 67.5 -286.5t200.5 -102.5 zM649 1417l-86 68l223 194h205l152 -196l-105 -66l-161 144h-9zM1133 1567l-62 90l236 162l65 -109z" glyph-name="uni1ED0" horiz-adv-x="1325" unicode="Ố"/><glyph d="M444 -25q-170 0 -272 111t-102 299q0 279 169 462t384 183q172 0 274 -109.5t102 -299.5q0 -276 -169 -461t-386 -185zM469 154q121 0 214 136t93 324q0 238 -176 238q-123 0 -216 -135t-93 -324q0 -239 178 -239zM475 1163l-67 94l231 183h188l166 -195l-90 -82 l-178 148h-8zM1008 1313l-80 82l215 235l114 -100z" glyph-name="uni1ED1" horiz-adv-x="1073" unicode="ố"/><glyph d="M602 -25q-225 0 -354 152t-129 412q0 334 195.5 579.5t471.5 245.5q225 0 354.5 -151.5t129.5 -411.5q0 -336 -194.5 -581t-473.5 -245zM614 166q174 0 302 189.5t128 428.5q0 184 -68.5 287t-201.5 103q-174 0 -301 -189.5t-127 -429.5q0 -184 67.5 -286.5t200.5 -102.5 zM649 1417l-86 68l223 194h205l152 -196l-105 -66l-161 144h-9zM590 1571l-184 168l100 90l172 -184z" glyph-name="uni1ED2" horiz-adv-x="1325" unicode="Ồ"/><glyph d="M444 -25q-170 0 -272 111t-102 299q0 279 169 462t384 183q172 0 274 -109.5t102 -299.5q0 -276 -169 -461t-386 -185zM469 154q121 0 214 136t93 324q0 238 -176 238q-123 0 -216 -135t-93 -324q0 -239 178 -239zM475 1163l-67 94l231 183h188l166 -195l-90 -82 l-178 148h-8zM373 1307l-180 247l145 78l139 -258z" glyph-name="uni1ED3" horiz-adv-x="1073" unicode="ồ"/><glyph d="M602 -25q-225 0 -354 152t-129 412q0 334 195.5 579.5t471.5 245.5q225 0 354.5 -151.5t129.5 -411.5q0 -336 -194.5 -581t-473.5 -245zM614 166q174 0 302 189.5t128 428.5q0 184 -68.5 287t-201.5 103q-174 0 -301 -189.5t-127 -429.5q0 -184 67.5 -286.5t200.5 -102.5 zM649 1417l-86 68l223 194h205l152 -196l-105 -66l-161 144h-9zM1120 1542l-8 82q82 18 90 66q8 35 -19.5 52t-105.5 21l39 105q141 -6 200.5 -46t45.5 -112q-31 -150 -242 -168z" glyph-name="uni1ED4" horiz-adv-x="1325" unicode="Ổ"/><glyph d="M444 -25q-170 0 -272 111t-102 299q0 279 169 462t384 183q172 0 274 -109.5t102 -299.5q0 -276 -169 -461t-386 -185zM469 154q121 0 214 136t93 324q0 238 -176 238q-123 0 -216 -135t-93 -324q0 -239 178 -239zM475 1163l-67 94l231 183h188l166 -195l-90 -82 l-178 148h-8zM973 1311l-6 86q78 25 86 69q6 37 -21.5 54.5t-101.5 21.5l39 107q276 -8 247.5 -157.5t-243.5 -180.5z" glyph-name="uni1ED5" horiz-adv-x="1073" unicode="ổ"/><glyph d="M602 -25q-225 0 -354 152t-129 412q0 334 195.5 579.5t471.5 245.5q225 0 354.5 -151.5t129.5 -411.5q0 -336 -194.5 -581t-473.5 -245zM614 166q174 0 302 189.5t128 428.5q0 184 -68.5 287t-201.5 103q-174 0 -301 -189.5t-127 -429.5q0 -184 67.5 -286.5t200.5 -102.5 zM647 1417l-84 68l221 182h205l154 -184l-107 -66l-162 131h-8zM1022 1718q-66 0 -131.5 48.5t-93.5 48.5q-61 0 -86 -89l-117 15q49 207 213 207q66 0 131.5 -48.5t93.5 -48.5q61 0 88 88l115 -14q-49 -207 -213 -207z" glyph-name="uni1ED6" horiz-adv-x="1325" unicode="Ỗ"/><glyph d="M444 -25q-170 0 -272 111t-102 299q0 279 169 462t384 183q172 0 274 -109.5t102 -299.5q0 -276 -169 -461t-386 -185zM469 154q121 0 214 136t93 324q0 238 -176 238q-123 0 -216 -135t-93 -324q0 -239 178 -239zM475 1163l-67 94l225 170h190l170 -182l-90 -82 l-182 135h-8zM862 1460q-63 0 -128.5 43t-96.5 43q-47 0 -80 -82l-111 13q61 205 203 204q63 0 129 -43t94 -43q53 0 80 82l111 -12q-56 -205 -201 -205z" glyph-name="uni1ED7" horiz-adv-x="1073" unicode="ỗ"/><glyph d="M602 -25q-225 0 -354 152t-129 412q0 334 195.5 579.5t471.5 245.5q225 0 354.5 -151.5t129.5 -411.5q0 -336 -194.5 -581t-473.5 -245zM614 166q174 0 302 189.5t128 428.5q0 184 -68.5 287t-201.5 103q-174 0 -301 -189.5t-127 -429.5q0 -184 67.5 -286.5t200.5 -102.5 zM616 1417l-92 74l240 221h254l158 -227l-111 -66l-180 180h-8zM516 -436q-51 0 -89 30.5t-38 83.5q0 59 44 101.5t104 42.5q51 0 89 -31t38 -84q0 -61 -43.5 -102t-104.5 -41z" glyph-name="uni1ED8" horiz-adv-x="1325" unicode="Ộ"/><glyph d="M444 -25q-170 0 -272 111t-102 299q0 279 169 462t384 183q172 0 274 -109.5t102 -299.5q0 -276 -169 -461t-386 -185zM469 154q121 0 214 136t93 324q0 238 -176 238q-123 0 -216 -135t-93 -324q0 -239 178 -239zM428 1155l-80 92l275 273h239l178 -279l-102 -86 l-205 217h-8zM332 -436q-51 0 -89 30.5t-38 83.5q0 59 44 101.5t103 42.5q51 0 89 -31t38 -84q0 -61 -43 -102t-104 -41z" glyph-name="uni1ED9" horiz-adv-x="1073" unicode="ộ"/><glyph d="M614 166q174 0 302 189.5t128 428.5q0 184 -68.5 287t-201.5 103q-174 0 -301 -189.5t-127 -429.5q0 -184 67.5 -286.5t200.5 -102.5zM1192 1587l170 55q29 -76 29 -133q0 -113 -69 -187.5t-187 -100.5q135 -152 135 -420q0 -336 -194.5 -581t-473.5 -245 q-225 0 -354 152t-129 412q0 334 195.5 579.5t471.5 245.5q139 0 242 -57q90 10 137 61t47 127q0 49 -20 92zM766 1421l-86 127l369 246l102 -164z" glyph-name="uni1EDA" horiz-adv-x="1325" unicode="Ớ"/><glyph d="M469 154q121 0 214 136t93 324q0 238 -176 238q-123 0 -216 -135t-93 -324q0 -239 178 -239zM975 1292l168 56q25 -61 24 -136q0 -119 -69.5 -199.5t-184.5 -111.5q86 -106 86 -280q0 -276 -168.5 -461t-386.5 -185q-170 0 -272 111t-102 299q0 279 169 462t384 183 q106 0 190 -45q80 14 127 71.5t51 143.5q0 49 -16 92zM604 1186l-98 125l362 327l133 -170z" glyph-name="uni1EDB" horiz-adv-x="1081" unicode="ớ"/><glyph d="M614 166q174 0 302 189.5t128 428.5q0 184 -68.5 287t-201.5 103q-174 0 -301 -189.5t-127 -429.5q0 -184 67.5 -286.5t200.5 -102.5zM1192 1587l170 55q29 -76 29 -133q0 -113 -69 -187.5t-187 -100.5q135 -152 135 -420q0 -336 -194.5 -581t-473.5 -245 q-225 0 -354 152t-129 412q0 334 195.5 579.5t471.5 245.5q139 0 242 -57q90 10 137 61t47 127q0 49 -20 92zM870 1401l-305 268l154 139l276 -299z" glyph-name="uni1EDC" horiz-adv-x="1325" unicode="Ờ"/><glyph d="M469 154q121 0 214 136t93 324q0 238 -176 238q-123 0 -216 -135t-93 -324q0 -239 178 -239zM975 1292l168 56q25 -61 24 -136q0 -119 -69.5 -199.5t-184.5 -111.5q86 -106 86 -280q0 -276 -168.5 -461t-386.5 -185q-170 0 -272 111t-102 299q0 279 169 462t384 183 q106 0 190 -45q80 14 127 71.5t51 143.5q0 49 -16 92zM721 1165l-293 344l188 142l240 -379z" glyph-name="uni1EDD" horiz-adv-x="1081" unicode="ờ"/><glyph d="M614 166q174 0 302 189.5t128 428.5q0 184 -68.5 287t-201.5 103q-174 0 -301 -189.5t-127 -429.5q0 -184 67.5 -286.5t200.5 -102.5zM1192 1587l170 55q29 -76 29 -133q0 -113 -69 -187.5t-187 -100.5q135 -152 135 -420q0 -336 -194.5 -581t-473.5 -245 q-225 0 -354 152t-129 412q0 334 195.5 579.5t471.5 245.5q139 0 242 -57q90 10 137 61t47 127q0 49 -20 92zM715 1421l-2 101q109 25 116 75q6 35 -29.5 54.5t-121.5 23.5l51 125q315 -8 281 -176q-35 -172 -295 -203z" glyph-name="uni1EDE" horiz-adv-x="1325" unicode="Ở"/><glyph d="M469 154q121 0 214 136t93 324q0 238 -176 238q-123 0 -216 -135t-93 -324q0 -239 178 -239zM975 1292l168 56q25 -61 24 -136q0 -119 -69.5 -199.5t-184.5 -111.5q86 -106 86 -280q0 -276 -168.5 -461t-386.5 -185q-170 0 -272 111t-102 299q0 279 169 462t384 183 q106 0 190 -45q80 14 127 71.5t51 143.5q0 49 -16 92zM567 1167l-2 101q106 27 117 84q18 82 -147 90l40 149q328 -8 289 -221q-35 -172 -297 -203z" glyph-name="uni1EDF" horiz-adv-x="1081" unicode="ở"/><glyph d="M614 166q174 0 302 189.5t128 428.5q0 184 -68.5 287t-201.5 103q-174 0 -301 -189.5t-127 -429.5q0 -184 67.5 -286.5t200.5 -102.5zM1192 1587l170 55q29 -76 29 -133q0 -113 -69 -187.5t-187 -100.5q135 -152 135 -420q0 -336 -194.5 -581t-473.5 -245 q-225 0 -354 152t-129 412q0 334 195.5 579.5t471.5 245.5q139 0 242 -57q90 10 137 61t47 127q0 49 -20 92zM903 1434q-49 0 -91 20.5t-65.5 46t-52 46t-55.5 20.5q-74 0 -109 -119l-149 12q29 135 102.5 204t178.5 69q61 0 110 -33t86 -65.5t68 -32.5q70 0 108 118 l150 -12q-29 -135 -104 -204.5t-177 -69.5z" glyph-name="uni1EE0" horiz-adv-x="1325" unicode="Ỡ"/><glyph d="M856 1481l143 -8q-55 -295 -251 -295q-43 0 -80 23.5t-59.5 53t-52.5 53t-60 23.5q-74 0 -103 -139l-141 8q55 295 252 295q55 0 98 -38t79 -76t75 -38q75 1 100 138zM469 154q121 0 214 136t93 324q0 238 -176 238q-123 0 -216 -135t-93 -324q0 -239 178 -239zM975 1292 l168 56q25 -61 24 -136q0 -119 -69.5 -199.5t-184.5 -111.5q86 -106 86 -280q0 -276 -168.5 -461t-386.5 -185q-170 0 -272 111t-102 299q0 279 169 462t384 183q106 0 190 -45q80 14 127 71.5t51 143.5q0 49 -16 92z" glyph-name="uni1EE1" horiz-adv-x="1081" unicode="ỡ"/><glyph d="M614 166q174 0 302 189.5t128 428.5q0 184 -68.5 287t-201.5 103q-174 0 -301 -189.5t-127 -429.5q0 -184 67.5 -286.5t200.5 -102.5zM1192 1587l170 55q29 -76 29 -133q0 -113 -69 -187.5t-187 -100.5q135 -152 135 -420q0 -336 -194.5 -581t-473.5 -245 q-225 0 -354 152t-129 412q0 334 195.5 579.5t471.5 245.5q139 0 242 -57q90 10 137 61t47 127q0 49 -20 92zM512 -436q-51 0 -89 30.5t-38 83.5q0 59 44 101.5t103 42.5q51 0 89 -31t38 -84q0 -61 -43 -102t-104 -41z" glyph-name="uni1EE2" horiz-adv-x="1325" unicode="Ợ"/><glyph d="M469 154q121 0 214 136t93 324q0 238 -176 238q-123 0 -216 -135t-93 -324q0 -239 178 -239zM975 1292l168 56q25 -61 24 -136q0 -119 -69.5 -199.5t-184.5 -111.5q86 -106 86 -280q0 -276 -168.5 -461t-386.5 -185q-170 0 -272 111t-102 299q0 279 169 462t384 183 q106 0 190 -45q80 14 127 71.5t51 143.5q0 49 -16 92zM330 -436q-51 0 -89 30.5t-38 83.5q0 59 44 101.5t103 42.5q51 0 89 -31t38 -84q0 -61 -43 -102t-104 -41z" glyph-name="uni1EE3" horiz-adv-x="1081" unicode="ợ"/><glyph d="M182 623l144 716h221l-150 -749q-18 -86 -18 -158q0 -266 237 -266q225 0 302 375l159 798h217l-161 -798q-113 -565 -525 -566q-451 0 -450 445q-1 86 24 203zM489 -436q-51 0 -89 30.5t-38 83.5q0 59 44.5 101.5t103.5 42.5q51 0 89 -31t38 -84q0 -61 -43.5 -102 t-104.5 -41z" glyph-name="uni1EE4" horiz-adv-x="1290" unicode="Ụ"/><glyph d="M1049 1006l-199 -1006h-205l35 143h-8q-186 -168 -336 -168q-240 0 -240 254q0 59 17 142l127 635h219l-121 -607q-16 -76 -16 -106q0 -129 124 -129q100 0 248 155l135 687h220zM434 -446q-51 0 -89 30.5t-38 83.5q0 59 44 101.5t104 42.5q51 0 89 -31t38 -84 q0 -61 -43.5 -102t-104.5 -41z" glyph-name="uni1EE5" horiz-adv-x="1099" unicode="ụ"/><glyph d="M182 623l144 716h221l-150 -749q-18 -86 -18 -158q0 -266 237 -266q225 0 302 375l159 798h217l-161 -798q-113 -565 -525 -566q-451 0 -450 445q-1 86 24 203zM727 1421l-2 101q109 25 117 75q6 35 -30 54.5t-122 23.5l51 125q315 -8 281 -176q-35 -172 -295 -203z" glyph-name="uni1EE6" horiz-adv-x="1290" unicode="Ủ"/><glyph d="M1049 1006l-199 -1006h-205l35 143h-8q-186 -168 -336 -168q-240 0 -240 254q0 59 17 142l127 635h219l-121 -607q-16 -76 -16 -106q0 -129 124 -129q100 0 248 155l135 687h220zM584 1167l-2 101q106 27 116 84q18 82 -147 90l41 149q328 -8 289 -221 q-35 -172 -297 -203z" glyph-name="uni1EE7" horiz-adv-x="1099" unicode="ủ"/><glyph d="M1360 1599l170 56q29 -68 29 -131q0 -221 -283 -273l-143 -710q-113 -565 -525 -566q-451 0 -450 445q0 86 24 203l144 716h221l-150 -749q-18 -86 -18 -158q0 -266 237 -266q225 0 302 375l159 798h125q86 10 132 54.5t46 113.5q0 49 -20 92zM772 1421l-86 127l369 246 l102 -164z" glyph-name="uni1EE8" horiz-adv-x="1327" unicode="Ứ"/><glyph d="M1077 1307l168 55q27 -70 27 -137q0 -117 -65.5 -195t-174.5 -108l-182 -922h-201l31 143h-8q-186 -168 -336 -168q-240 0 -240 254q0 59 17 142l127 635h219l-121 -607q-16 -76 -16 -106q0 -129 124 -129q100 0 248 155l135 687h93q74 8 122 64t50 142q1 38 -17 95z M621 1186l-99 125l363 327l133 -170z" glyph-name="uni1EE9" horiz-adv-x="1136" unicode="ứ"/><glyph d="M1360 1599l170 56q29 -68 29 -131q0 -221 -283 -273l-143 -710q-113 -565 -525 -566q-451 0 -450 445q0 86 24 203l144 716h221l-150 -749q-18 -86 -18 -158q0 -266 237 -266q225 0 302 375l159 798h125q86 10 132 54.5t46 113.5q0 49 -20 92zM877 1401l-306 268l154 139 l276 -299z" glyph-name="uni1EEA" horiz-adv-x="1327" unicode="Ừ"/><glyph d="M1077 1307l168 55q27 -70 27 -137q0 -117 -65.5 -195t-174.5 -108l-182 -922h-201l31 143h-8q-186 -168 -336 -168q-240 0 -240 254q0 59 17 142l127 635h219l-121 -607q-16 -76 -16 -106q0 -129 124 -129q100 0 248 155l135 687h93q74 8 122 64t50 142q1 38 -17 95z M737 1165l-293 344l189 142l239 -379z" glyph-name="uni1EEB" horiz-adv-x="1136" unicode="ừ"/><glyph d="M1360 1599l170 56q29 -68 29 -131q0 -221 -283 -273l-143 -710q-113 -565 -525 -566q-451 0 -450 445q0 86 24 203l144 716h221l-150 -749q-18 -86 -18 -158q0 -266 237 -266q225 0 302 375l159 798h125q86 10 132 54.5t46 113.5q0 49 -20 92zM721 1421l-2 101 q109 25 117 75q6 35 -30 54.5t-122 23.5l51 125q315 -8 281 -176q-35 -172 -295 -203z" glyph-name="uni1EEC" horiz-adv-x="1327" unicode="Ử"/><glyph d="M1077 1307l168 55q27 -70 27 -137q0 -117 -65.5 -195t-174.5 -108l-182 -922h-201l31 143h-8q-186 -168 -336 -168q-240 0 -240 254q0 59 17 142l127 635h219l-121 -607q-16 -76 -16 -106q0 -129 124 -129q100 0 248 155l135 687h93q74 8 122 64t50 142q1 38 -17 95z M584 1167l-2 101q106 27 116 84q18 82 -147 90l41 149q328 -8 289 -221q-35 -172 -297 -203z" glyph-name="uni1EED" horiz-adv-x="1136" unicode="ử"/><glyph d="M1360 1599l170 56q29 -68 29 -131q0 -221 -283 -273l-143 -710q-113 -565 -525 -566q-451 0 -450 445q0 86 24 203l144 716h221l-150 -749q-18 -86 -18 -158q0 -266 237 -266q225 0 302 375l159 798h125q86 10 132 54.5t46 113.5q0 49 -20 92zM963 1434q-49 0 -91.5 20.5 t-66 46t-52 46t-55.5 20.5q-74 0 -108 -119l-150 12q29 135 102.5 204t178.5 69q61 0 110.5 -33t86 -65.5t67.5 -32.5q70 0 109 118l149 -12q-29 -135 -103.5 -204.5t-176.5 -69.5z" glyph-name="uni1EEE" horiz-adv-x="1327" unicode="Ữ"/><glyph d="M1077 1307l168 55q27 -70 27 -137q0 -117 -65.5 -195t-174.5 -108l-182 -922h-201l31 143h-8q-186 -168 -336 -168q-240 0 -240 254q0 59 17 142l127 635h219l-121 -607q-16 -76 -16 -106q0 -129 124 -129q100 0 248 155l135 687h93q74 8 122 64t50 142q1 38 -17 95z M803 1178q-59 0 -104.5 37.5t-81 76.5t-74.5 39q-78 0 -107 -139l-149 8q55 295 268 295q59 0 104.5 -38t82 -76t73.5 -38q82 0 107 138l149 -8q-55 -295 -268 -295z" glyph-name="uni1EEF" horiz-adv-x="1136" unicode="ữ"/><glyph d="M1360 1599l170 56q29 -68 29 -131q0 -221 -283 -273l-143 -710q-113 -565 -525 -566q-451 0 -450 445q0 86 24 203l144 716h221l-150 -749q-18 -86 -18 -158q0 -266 237 -266q225 0 302 375l159 798h125q86 10 132 54.5t46 113.5q0 49 -20 92zM494 -436q-51 0 -89 30.5 t-38 83.5q0 59 44 101.5t103 42.5q51 0 89 -31t38 -84q0 -61 -43 -102t-104 -41z" glyph-name="uni1EF0" horiz-adv-x="1327" unicode="Ự"/><glyph d="M1077 1307l168 55q27 -70 27 -137q0 -117 -65.5 -195t-174.5 -108l-182 -922h-201l31 143h-8q-186 -168 -336 -168q-240 0 -240 254q0 59 17 142l127 635h219l-121 -607q-16 -76 -16 -106q0 -129 124 -129q100 0 248 155l135 687h93q74 8 122 64t50 142q1 38 -17 95z M432 -446q-51 0 -89 30.5t-38 83.5q0 59 44 101.5t104 42.5q51 0 89 -31t38 -84q0 -61 -43.5 -102t-104.5 -41z" glyph-name="uni1EF1" horiz-adv-x="1136" unicode="ự"/><glyph d="M283 0l100 504l-215 835h227l131 -626h9l395 626h237l-563 -835l-100 -504h-221zM719 1401l-305 268l153 139l277 -299z" glyph-name="Ygrave" horiz-adv-x="995" unicode="Ỳ"/><glyph d="M31 -414q-66 0 -129 37l69 160q33 -20 74 -21q135 0 225 187l31 61l-174 996h219l96 -744h9l383 744h213l-566 -1059q-102 -180 -204.5 -270.5t-245.5 -90.5zM659 1165l-292 344l188 142l240 -379z" glyph-name="ygrave" horiz-adv-x="970" unicode="ỳ"/><glyph d="M283 0l100 504l-215 835h227l131 -626h9l395 626h237l-563 -835l-100 -504h-221zM330 -453q-51 0 -89 31t-38 84q0 59 44 101t103 42q51 0 89 -30.5t38 -83.5q0 -61 -43 -102.5t-104 -41.5z" glyph-name="uni1EF4" horiz-adv-x="995" unicode="Ỵ"/><glyph d="M31 -414q-66 0 -129 37l69 160q33 -20 74 -21q135 0 225 187l31 61l-174 996h219l96 -744h9l383 744h213l-566 -1059q-102 -180 -204.5 -270.5t-245.5 -90.5zM623 -453q-51 0 -89 31t-38 84q0 59 44 101t103 42q51 0 89 -30.5t38 -83.5q0 -61 -43 -102.5t-104 -41.5z" glyph-name="uni1EF5" horiz-adv-x="970" unicode="ỵ"/><glyph d="M283 0l100 504l-215 835h227l131 -626h9l395 626h237l-563 -835l-100 -504h-221zM563 1421l-2 101q109 25 117 75q6 35 -30 54.5t-122 23.5l52 125q315 -8 280 -176q-35 -172 -295 -203z" glyph-name="uni1EF6" horiz-adv-x="995" unicode="Ỷ"/><glyph d="M31 -414q-66 0 -129 37l69 160q33 -20 74 -21q135 0 225 187l31 61l-174 996h219l96 -744h9l383 744h213l-566 -1059q-102 -180 -204.5 -270.5t-245.5 -90.5zM506 1167l-2 101q106 27 117 84q18 82 -148 90l41 149q328 -8 289 -221q-35 -172 -297 -203z" glyph-name="uni1EF7" horiz-adv-x="970" unicode="ỷ"/><glyph d="M283 0l100 504l-215 835h227l131 -626h9l395 626h237l-563 -835l-100 -504h-221zM805 1434q-49 0 -91 20.5t-65.5 46t-52.5 46t-55 20.5q-74 0 -109 -119l-149 12q29 135 102.5 204t177.5 69q61 0 110.5 -33t86.5 -65.5t67 -32.5q70 0 109 118l149 -12 q-29 -135 -103.5 -204.5t-176.5 -69.5z" glyph-name="uni1EF8" horiz-adv-x="995" unicode="Ỹ"/><glyph d="M31 -414q-66 0 -129 37l69 160q33 -20 74 -21q135 0 225 187l31 61l-174 996h219l96 -744h9l383 744h213l-566 -1059q-102 -180 -204.5 -270.5t-245.5 -90.5zM750 1178q-59 0 -104.5 37.5t-81.5 76.5t-75 39q-78 0 -106 -139l-150 8q55 295 269 295q59 0 104 -38t82 -76 t74 -38q82 0 106 138l150 -8q-55 -295 -268 -295z" glyph-name="uni1EF9" horiz-adv-x="970" unicode="ỹ"/><glyph glyph-name="uni2007" horiz-adv-x="1011" unicode=" "/><glyph d="M72 442l28 148h842l-33 -148h-837z" glyph-name="figuredash" horiz-adv-x="1011" unicode="‒"/><glyph d="M72 442l28 148h777l-31 -148h-774z" glyph-name="endash" horiz-adv-x="948" unicode="–"/><glyph d="M72 442l28 148h1407l-30 -148h-1405z" glyph-name="emdash" horiz-adv-x="1576" unicode="—"/><glyph d="M72 442l28 148h1407l-30 -148h-1405z" glyph-name="afii00208" horiz-adv-x="1576" unicode="―"/><glyph d="M348 1059h10q55 0 90 -29t35 -82q0 -59 -38.5 -100t-102.5 -41q-61 0 -96 44t-35 124q0 154 88 266.5t225 159.5l39 -101q-98 -41 -155.5 -111.5t-59.5 -129.5z" glyph-name="quoteleft" horiz-adv-x="546" unicode="‘"/><glyph d="M438 1178h-10q-55 0 -90 28.5t-35 81.5q0 59 40 100.5t103 41.5q59 0 94 -44.5t35 -123.5q0 -156 -88 -266.5t-225 -159.5l-39 100q98 41 155.5 112t59.5 130z" glyph-name="quoteright" horiz-adv-x="546" unicode="’"/><glyph d="M209 31h-10q-55 0 -90 28.5t-35 81.5q0 59 40 100.5t103 41.5q59 0 94 -44t35 -124q0 -156 -88 -266.5t-225 -159.5l-39 100q98 41 155.5 112t59.5 130z" glyph-name="quotesinglbase" horiz-adv-x="546" unicode="‚"/><glyph d="M348 1059h10q55 0 90 -29t35 -82q0 -59 -38.5 -100t-102.5 -41q-61 0 -96 44t-35 124q0 154 88 266.5t225 159.5l39 -101q-98 -41 -155.5 -111.5t-59.5 -129.5zM743 1059h11q55 0 90 -29t35 -82q0 -59 -39 -100t-103 -41q-61 0 -96 44t-35 124q0 154 88 266.5t226 159.5 l38 -101q-98 -41 -155.5 -111.5t-59.5 -129.5z" glyph-name="quotedblleft" horiz-adv-x="942" unicode="“"/><glyph d="M438 1178h-10q-55 0 -90 28.5t-35 81.5q0 59 40 100.5t103 41.5q59 0 94 -44.5t35 -123.5q0 -156 -88 -266.5t-225 -159.5l-39 100q98 41 155.5 112t59.5 130zM834 1178h-11q-55 0 -90 28.5t-35 81.5q0 59 40 100.5t104 41.5q59 0 94 -44.5t35 -123.5q0 -156 -88 -266.5 t-226 -159.5l-39 100q98 41 156 112t60 130z" glyph-name="quotedblright" horiz-adv-x="942" unicode="”"/><glyph d="M209 31h-10q-55 0 -90 28.5t-35 81.5q0 59 40 100.5t103 41.5q59 0 94 -44t35 -124q0 -156 -88 -266.5t-225 -159.5l-39 100q98 41 155.5 112t59.5 130zM602 31h-10q-55 0 -90 28.5t-35 81.5q0 59 40 100.5t103 41.5q59 0 94 -44t35 -124q0 -156 -88 -266.5t-225 -159.5 l-39 100q98 41 155.5 112t59.5 130z" glyph-name="quotedblbase" horiz-adv-x="710" unicode="„"/><glyph d="M246 -164l229 1114h-289l37 183h283l63 325h183l-72 -325h289l-35 -183h-287l-219 -1114h-182z" glyph-name="dagger" horiz-adv-x="946" unicode="†"/><glyph d="M248 -164l63 324h-282l34 180h283l121 610h-281l35 183h279l69 325h181l-68 -325h287l-35 -183h-289l-121 -610h289l-37 -180h-282l-64 -324h-182z" glyph-name="daggerdbl" horiz-adv-x="946" unicode="‡"/><glyph d="M299 279q-94 0 -155.5 63.5t-61.5 165.5q0 113 74.5 202t191.5 89q94 0 155.5 -63.5t61.5 -166.5q0 -113 -74.5 -201.5t-191.5 -88.5z" glyph-name="bullet" horiz-adv-x="641" unicode="•"/><glyph d="M276 -25q-55 0 -87.5 36t-32.5 91q0 68 49 122.5t121 54.5q55 0 86.5 -36t31.5 -93q0 -70 -47 -122.5t-121 -52.5zM940 -25q-55 0 -88 36t-33 91q0 68 49.5 122.5t120.5 54.5q55 0 87 -36t32 -93q0 -70 -47 -122.5t-121 -52.5zM1604 -25q-55 0 -88 36t-33 91 q0 68 49 122.5t121 54.5q55 0 87 -36t32 -93q0 -70 -47 -122.5t-121 -52.5z" glyph-name="ellipsis" horiz-adv-x="1982" unicode="…"/><glyph d="M1946 -25q-119 0 -194 89.5t-75 230.5q0 213 105.5 371.5t277.5 158.5q119 0 194 -88t75 -229q0 -215 -105.5 -374t-277.5 -159zM1958 111q92 0 150.5 116.5t58.5 272.5q0 190 -119 190q-92 0 -150.5 -116.5t-58.5 -272.5q0 -190 119 -190zM385 528q-119 0 -193.5 89.5 t-74.5 230.5q0 213 105.5 371.5t277.5 158.5q119 0 193.5 -88t74.5 -229q0 -215 -105.5 -374t-277.5 -159zM397 664q92 0 150.5 116.5t58.5 272.5q0 190 -119 190q-92 0 -150 -116.5t-58 -272.5q-1 -190 118 -190zM1200 -25q-119 0 -193.5 89.5t-74.5 230.5 q0 213 105.5 371.5t277.5 158.5q119 0 193.5 -88t74.5 -229q0 -215 -105.5 -374t-277.5 -159zM1212 111q92 0 150.5 116.5t58.5 272.5q0 190 -118 190q-92 0 -150.5 -116.5t-58.5 -272.5q-1 -190 118 -190zM283 -25l981 1401h135l-981 -1401h-135z" glyph-name="perthousand" horiz-adv-x="2404" unicode="‰"/><glyph d="M211 807l168 602h215l-82 -242l-156 -360h-145z" glyph-name="minute" horiz-adv-x="546" unicode="′"/><glyph d="M211 807l168 602h215l-82 -242l-156 -360h-145zM606 807l168 602h215l-82 -242l-155 -360h-146z" glyph-name="second" horiz-adv-x="942" unicode="″"/><glyph d="M293 127l-211 315l29 164l317 295l72 -78l-281 -315l166 -322z" glyph-name="guilsinglleft" horiz-adv-x="536" unicode="‹"/><glyph d="M123 127l-72 78l281 315l-168 322l94 59l211 -315l-31 -164z" glyph-name="guilsinglright" horiz-adv-x="536" unicode="›"/><glyph d="M-436 -25l981 1401h135l-981 -1401h-135z" glyph-name="fraction" horiz-adv-x="182" unicode="⁄"/><glyph d="M444 764q-119 0 -193.5 89t-74.5 230q0 213 105.5 372t277.5 159q119 0 193.5 -88t74.5 -230q0 -215 -105.5 -373.5t-277.5 -158.5zM457 899q92 0 150.5 117t58.5 272q0 190 -119 191q-92 0 -150.5 -117t-58.5 -272q0 -191 119 -191z" glyph-name="uni2070" horiz-adv-x="751" unicode="⁰"/><glyph d="M346 1567q-39 0 -64.5 20.5t-25.5 59.5q0 41 30.5 69.5t73.5 28.5q39 0 65 -20.5t26 -59.5q0 -41 -31 -69.5t-74 -28.5zM100 788l133 666h158l-131 -666h-160z" glyph-name="uni2071" horiz-adv-x="352" unicode="ⁱ"/><glyph d="M330 1100h215l76 348h-9zM805 1100l-25 -113h-116l-39 -199h-144l39 199h-330l-20 88l418 512h194l-96 -487h119z" glyph-name="uni2074" horiz-adv-x="735" unicode="⁴"/><glyph d="M432 764q-199 0 -287 143l111 90q61 -100 174 -100q63 0 110.5 45t47.5 117q0 59 -34 94t-91 35q-66 0 -135 -49l-60 59l109 389h442l-53 -139h-285l-49 -166q45 23 94 23q100 0 162 -62.5t62 -171.5q0 -133 -93.5 -220t-224.5 -87z" glyph-name="uni2075" horiz-adv-x="729" unicode="⁵"/><glyph d="M344 1034q0 -61 34 -99t89 -38t94 42t39 97q0 61 -30.5 99.5t-82.5 38.5q-129 -1 -143 -140zM825 1544l-92 -112q-61 47 -137 47q-88 0 -153.5 -68t-88.5 -180q76 63 181 63q100 0 158.5 -62.5t58.5 -160.5q0 -133 -88.5 -220t-206.5 -87q-117 0 -193 88t-76 227 q0 250 123 391.5t297 141.5q125 0 217 -68z" glyph-name="uni2076" horiz-adv-x="731" unicode="⁶"/><glyph d="M463 788h-178q94 369 362 660h-368l26 139h555l-14 -90q-168 -166 -251 -329t-132 -380z" glyph-name="uni2077" horiz-adv-x="733" unicode="⁷"/><glyph d="M430 764q-117 0 -188.5 60.5t-71.5 152.5q0 143 188 231l4 9q-80 94 -79 165q0 100 80.5 165t193.5 65q104 0 167.5 -54.5t63.5 -146.5q0 -137 -151 -219v-8q100 -72 100 -176.5t-89 -174t-218 -69.5zM545 1253q98 70 98 142q0 47 -27.5 72.5t-70.5 25.5q-51 0 -84 -28.5 t-33 -78.5q0 -80 117 -133zM442 879q61 0 102.5 35.5t41.5 91.5q0 27 -9.5 48t-34 39.5t-41 27.5t-55.5 30q-121 -61 -120 -156q0 -51 33.5 -83.5t82.5 -32.5z" glyph-name="uni2078" horiz-adv-x="733" unicode="⁸"/><glyph d="M635 1341q0 59 -35 98.5t-88 39.5q-55 0 -94 -42t-39 -98q0 -61 30.5 -99t82.5 -38q129 0 143 139zM154 840l92 108q61 -51 137 -51q88 0 153.5 68.5t88.5 185.5q-76 -63 -181 -64q-102 0 -159.5 59.5t-57.5 158.5q0 133 88 220t207 87q117 0 193 -88t76 -228 q0 -250 -123 -391t-297 -141q-123 0 -217 76z" glyph-name="uni2079" horiz-adv-x="733" unicode="⁹"/><glyph d="M440 668l-123 -52q-88 186 -88 402q0 211 71 376t239 361l108 -53q-262 -338 -262 -684q0 -207 55 -350z" glyph-name="uni207D" horiz-adv-x="493" unicode="⁽"/><glyph d="M205 616l-109 54q262 338 262 684q0 205 -55 348l123 53q88 -186 88 -401q0 -211 -70.5 -376t-238.5 -362z" glyph-name="uni207E" horiz-adv-x="491" unicode="⁾"/><glyph d="M100 788l133 666h142l-19 -92h9q123 109 229 108q160 0 160 -172q0 -27 -13 -92l-84 -418h-157l78 398q10 39 10 67q0 82 -72 82q-70 0 -168 -100l-88 -447h-160z" glyph-name="uni207F" horiz-adv-x="741" unicode="ⁿ"/><glyph d="M223 -371q-119 0 -193.5 89t-74.5 231q0 213 105.5 371.5t277.5 158.5q119 0 193.5 -88t74.5 -229q0 -215 -105.5 -374t-277.5 -159zM236 -236q92 0 150 117t58 273q0 190 -118 190q-92 0 -150.5 -116.5t-58.5 -272.5q0 -191 119 -191z" glyph-name="uni2080" horiz-adv-x="751" unicode="₀"/><glyph d="M-123 -346l27 133h209l102 492l-158 -52l-49 109l279 117h123l-138 -666h191l-25 -133h-561z" glyph-name="uni2081" horiz-adv-x="749" unicode="₁"/><glyph d="M-76 -346l6 45q8 104 113 186q104 80 186 138q162 113 162 202q0 109 -115 109q-76 0 -145 -51l-92 106q125 88 266 88q117 0 184.5 -59.5t67.5 -163.5q0 -160 -162 -277q-162 -121 -252 -184h355l-27 -139h-547z" glyph-name="uni2082" horiz-adv-x="733" unicode="₂"/><glyph d="M524 305l-180 -190v-4q170 -55 170 -228q0 -117 -86 -185.5t-215 -68.5q-190 0 -289 164l111 78q63 -109 166 -109q68 0 109.5 32t41.5 91q0 125 -188 125l18 109l172 192v2h-284l32 140h441z" glyph-name="uni2083" horiz-adv-x="729" unicode="₃"/><glyph d="M109 -35h215l75 348h-8zM584 -35l-25 -112h-117l-39 -199h-143l39 199h-330l-20 88l418 512h194l-96 -488h119z" glyph-name="uni2084" horiz-adv-x="735" unicode="₄"/><glyph d="M211 -371q-199 0 -287 144l111 90q61 -100 174 -101q63 0 110.5 45.5t47.5 116.5q0 59 -34 94t-91 35q-66 0 -136 -49l-59 59l109 390h442l-53 -140h-285l-49 -166q45 23 94 23q100 0 161.5 -62.5t61.5 -170.5q0 -133 -93 -220.5t-224 -87.5z" glyph-name="uni2085" horiz-adv-x="729" unicode="₅"/><glyph d="M123 -100q0 -61 33.5 -99.5t89 -38.5t94.5 42t39 98q0 61 -31 99t-82 38q-129 0 -143 -139zM604 410l-92 -113q-61 47 -137 47q-88 0 -153.5 -67.5t-88.5 -180.5q76 63 180 64q100 0 158.5 -62.5t58.5 -160.5q0 -133 -88 -220.5t-206 -87.5q-117 0 -193 88t-76 228 q0 250 123 391t297 141q125 1 217 -67z" glyph-name="uni2086" horiz-adv-x="731" unicode="₆"/><glyph d="M242 -346h-179q94 369 363 659h-369l27 140h555l-14 -91q-168 -166 -251 -328.5t-132 -379.5z" glyph-name="uni2087" horiz-adv-x="733" unicode="₇"/><glyph d="M209 -371q-117 0 -188.5 60.5t-71.5 152.5q0 143 188 232l4 8q-80 94 -80 166q0 100 81 164.5t194 64.5q104 0 167.5 -54t63.5 -147q0 -137 -151 -219v-8q100 -72 100 -176t-89 -174t-218 -70zM324 119q98 70 98 141q0 47 -27.5 72.5t-70.5 25.5q-51 0 -84 -28.5 t-33 -77.5q0 -80 117 -133zM221 -256q61 0 102.5 36t41.5 91q0 27 -9.5 48.5t-34 39.5t-41 27.5t-55.5 29.5q-121 -61 -121 -155q0 -51 34 -84t83 -33z" glyph-name="uni2088" horiz-adv-x="733" unicode="₈"/><glyph d="M414 207q0 59 -35 98t-88 39q-55 0 -94 -42t-39 -97q0 -61 30.5 -99t81.5 -38q130 0 144 139zM-68 -295l93 109q61 -51 137 -52q88 0 153.5 69t87.5 185q-76 -63 -180 -63q-102 0 -159.5 59.5t-57.5 157.5q0 133 88 220t207 87q117 0 192.5 -88t75.5 -227 q0 -250 -122.5 -391.5t-296.5 -141.5q-124 0 -218 76z" glyph-name="uni2089" horiz-adv-x="733" unicode="₉"/><glyph d="M219 -467l-123 -51q-88 186 -88 401q0 211 71 376t238 362l109 -54q-262 -338 -262 -684q0 -207 55 -350z" glyph-name="uni208D" horiz-adv-x="493" unicode="₍"/><glyph d="M-16 -518l-109 53q262 338 262 684q0 205 -55 348l123 54q88 -186 88 -402q0 -211 -70.5 -375.5t-238.5 -361.5z" glyph-name="uni208E" horiz-adv-x="491" unicode="₎"/><glyph d="M696 1186q0 -176 -114.5 -295t-251.5 -119q-115 0 -168 68.5t-53 177.5q0 90 30 147h406q8 184 -142 185q-51 0 -137 -43l-47 102q113 61 225 61q117 0 184.5 -72.5t67.5 -211.5zM530 1065h-284q0 -8 -3 -26.5t-3 -28.5q0 -117 108 -117q57 0 108 45t74 127z" glyph-name="uni2094" horiz-adv-x="665" unicode="ₔ"/><glyph d="M727 1161l-297 -954q35 -33 84 -45l307 981q-37 18 -88 18h-6zM371 291l266 852q-135 -49 -220 -228.5t-85 -418.5q0 -125 39 -205zM1098 1143l-154 -119q-16 23 -53 68l-293 -936q98 10 203 84l104 -150q-88 -59 -167 -84.5t-195 -30.5l-64 -200h-86l64 207 q-47 6 -90 24l-72 -231h-86l86 272q-174 125 -174 432q0 352 168 592t409 264l64 205h84l-64 -201q57 -6 95 -20l69 221h84l-80 -256q82 -45 148 -141z" glyph-name="colonmonetary" horiz-adv-x="1011" unicode="₡"/><glyph d="M1053 1204l-146 -127q-72 84 -172 84q-102 0 -167.5 -81t-65.5 -228v-27h327l-24 -118h-293q6 -55 6 -107v-10h260l-24 -119h-246q-33 -160 -146 -276l-2 -9h506l-32 -186h-832l27 133q231 109 278 338h-215l25 119h200q-6 102 -8 117h-168l29 116h129q-2 18 -2 54 q0 209 128 335.5t323 126.5q176 0 305 -135z" glyph-name="lira" horiz-adv-x="1011" unicode="₤"/><glyph d="M705 592l14 117h-113l4 -37l6 -80h89zM659 193l35 303h-69l26 -303h8zM338 592h121l-6 51l-7 66h-92l-14 -111zM410 1120h-7l-38 -317h73zM1020 709h-137l-23 -117h139l-20 -96h-139l-99 -496h-204l-66 496h-152l-96 -496h-168l101 496h-146l23 96h141l25 117h-146l21 94 h143l102 512h203l70 -512h145l99 512h168l-103 -512h141z" glyph-name="uni20A6" horiz-adv-x="1011" unicode="₦"/><glyph d="M381 635h55q111 0 187.5 52t109.5 151h-311zM543 1171h-56l-38 -192h305q0 192 -211 192zM1075 979l-26 -141h-111q-47 -170 -186.5 -258t-325.5 -88h-76l-98 -492h-209l168 838h-135l26 139h138l67 338h283q168 0 268 -79t100 -239v-18h117z" glyph-name="peseta" horiz-adv-x="1011" unicode="₧"/><glyph d="M59 0l25 117h741l-24 -117h-742zM649 475l56 277q-53 80 -132 79q-88 0 -162.5 -83.5t-74.5 -208.5q0 -158 121 -158q90 0 192 94zM1137 1251l-25 -118h-147l-179 -883h-165l16 86h-4q-113 -106 -244 -107q-117 0 -180.5 74t-63.5 205q0 203 131.5 338t284.5 135 q123 0 172 -90l47 242h-276l24 118h277l18 84l191 47l-27 -131h150z" glyph-name="dong" horiz-adv-x="1011" unicode="₫"/><glyph d="M754 475h-371q6 -154 66.5 -237.5t166.5 -83.5q66 0 112 20.5t103 65.5l107 -144q-145 -121 -365 -121q-188 0 -296.5 129t-112.5 371h-127l26 117h105q6 72 18 129h-100l27 115h102q74 229 231.5 366t348.5 137q180 0 299 -141l-160 -127q-63 90 -162 90 q-113 0 -200 -87t-136 -236h469l-24 -117h-478q-14 -68 -16 -127h391z" glyph-name="Euro" horiz-adv-x="1011" unicode="€"/><glyph d="M422 846h315q12 45 17 112h-310zM377 623h57q174 0 260 127h-293zM543 1171h-56l-22 -116h278q-34 116 -200 116zM1071 958h-113q-2 -55 -16 -112h105l-19 -96h-121q-63 -135 -193 -204t-292 -69h-74l-96 -477h-209l152 750h-136l19 94h135l23 114h-134l17 95h135l53 262 h283q328 0 364 -260h136z" glyph-name="uni20B1" horiz-adv-x="1011" unicode="₱"/><glyph d="M762 612l215 90l-113 -571q-150 -135 -307 -151l-41 -205h-151l43 209q-152 31 -235 159.5t-83 335.5q0 344 169 579.5t417 274.5l41 207h149l-39 -207q82 -16 130.5 -46t105.5 -95l-160 -117q-39 47 -71.5 66.5t-90.5 19.5q-182 0 -306 -193.5t-124 -471.5 q0 -162 58.5 -252t167.5 -90q90 0 145 59z" glyph-name="uni20B2" horiz-adv-x="1011" unicode="₲"/><glyph d="M483 172l197 983q-152 -33 -246 -216t-94 -443.5t143 -323.5zM1073 1190l-153 -127q-41 51 -113 84l-199 -991q104 23 180 63l103 -145q-111 -86 -318 -97l-41 -202h-129l41 209q-154 29 -238.5 157.5t-84.5 337.5q0 362 173 600t423 258l37 189h129l-39 -197 q80 -23 126 -51.5t103 -87.5z" glyph-name="uni20B5" horiz-adv-x="1011" unicode="₵"/><glyph d="M1059 1315l-27 -119h-272q86 -63 96 -201h139l-24 -118h-125q-49 -246 -307 -347l211 -530h-234l-176 485q-23 -2 -66 -2h-141l35 176h106q137 0 231.5 57.5t123.5 160.5h-418l25 118h401q-18 141 -246 142h-129l37 178h760z" glyph-name="uni20B9" horiz-adv-x="1011" unicode="₹"/><glyph d="M512 618l-86 -438q170 12 283.5 115.5t117.5 271.5l191 45q2 -170 -66.5 -298t-190.5 -200.5t-271.5 -106.5t-325.5 -32l115 572l-185 -74l27 129l184 74l27 135l-185 -74l27 129l186 74l72 365h219l-57 -293l342 137l-27 -129l-344 -137l-24 -135l340 137l-27 -129z" glyph-name="uni20BA" horiz-adv-x="1011" unicode="₺"/><glyph d="M535 1040l-72 -360q313 276 313 516q0 115 -71 115q-47 0 -95 -68t-75 -203zM416 451l-8 -41q-49 -250 118 -250q82 0 213 90l60 -135q-186 -139 -336 -140q-137 0 -219 85t-70 239q-18 -12 -57 -32.5t-56 -28.5l-53 141q102 51 201 115l102 512q47 236 159 352.5 t257 116.5q111 0 171 -68t60 -186q0 -184 -134 -380.5t-408 -389.5z" glyph-name="afii61289" horiz-adv-x="864" unicode="ℓ"/><glyph d="M610 -20q-238 0 -390 159.5t-152 409.5q0 209 94 389t268 290.5t391 110.5q238 0 390.5 -158.5t152.5 -408.5q0 -322 -214 -557t-540 -235zM618 84q270 0 453.5 204t183.5 474q0 207 -117.5 341t-324.5 134q-270 0 -453.5 -204t-183.5 -474q0 -207 117.5 -341t324.5 -134 zM387 283l148 745h268q123 0 196.5 -52t73.5 -155q0 -158 -109.5 -240.5t-267.5 -82.5h-106l-41 -215h-162zM614 616h91q102 0 155 46.5t53 130.5q0 111 -147 110h-94z" glyph-name="uni2117" horiz-adv-x="1368" unicode="℗"/><glyph d="M307 721q-143 0 -229 76l98 94q63 -53 139 -53q47 0 77 21.5t30 55.5q0 39 -62 74l-79 45q-90 51 -91 154q0 90 71 151.5t177.5 61.5t192.5 -60l-88 -94q-59 39 -117 39q-45 0 -70.5 -22.5t-25.5 -49.5q0 -43 63 -75l76 -41q96 -53 96 -156q0 -88 -74.5 -154.5 t-183.5 -66.5zM641 745l125 639h174l68 -331h8l201 331h178l-125 -639h-146l82 416h-8l-186 -319h-80l-64 319h-8l-78 -416h-141z" glyph-name="uni2120" horiz-adv-x="1273" unicode="℠"/><glyph d="M242 745l98 504h-188l26 135h520l-26 -135h-183l-100 -504h-147zM662 745l124 639h175l67 -344h8l201 344h178l-125 -639h-145l76 398h-9l-180 -301h-80l-61 301h-8l-80 -398h-141z" glyph-name="trademark" horiz-adv-x="1294" unicode="™"/><glyph d="M-14 0l32 178h248v8q-127 160 -127 408q0 334 206 552t511 218q221 0 350 -133t129 -359q0 -397 -340 -686l-2 -8h240l-33 -178h-504l29 143q379 274 379 691q0 156 -75 248t-208 92q-199 0 -331 -172.5t-132 -436.5q0 -268 154 -422l-27 -143h-499z" glyph-name="uni2126" horiz-adv-x="1388" unicode="Ω"/><glyph d="M410 684h901q12 0 12 12v377q0 25 -20 45q-182 193 -439 193q-260 0 -446 -201q-16 -29 -17 -45v-369q1 -12 9 -12zM1331 246h107q-106 -127 -256 -199t-322 -72q-303 0 -514 201t-211 487.5t211 487.5t514 201q299 0 512 -202t213 -486v-17h-1175q-8 0 -9 -8v-377 q0 -12 17 -41q178 -205 446 -205q279 1 467 230z" glyph-name="estimated" horiz-adv-x="1638" unicode="℮"/><glyph d="M-14 553l26 133h209l103 492l-158 -52l-49 109l278 117h123l-137 -666h190l-24 -133h-561zM213 -25l981 1401h135l-981 -1401h-135zM1493 651l-180 -190v-4q170 -55 170 -228q0 -117 -86 -185.5t-215 -68.5q-190 0 -289 164l111 78q63 -109 165 -108q68 0 110 31.5 t42 90.5q0 125 -188 125l18 109l172 192v2h-285l33 140h440z" glyph-name="onethird" horiz-adv-x="1628" unicode="⅓"/><glyph d="M98 553l6 45q8 104 113 186q104 80 186 138q162 113 162 202q0 109 -114 109q-76 0 -146 -51l-92 106q125 88 266 88q117 0 184.5 -59.5t67.5 -163.5q0 -160 -162 -279q-20 -14 -252 -182h355l-27 -139h-547zM315 -25l981 1401h136l-981 -1401h-136zM1522 651l-181 -190 v-4q170 -55 170 -228q0 -117 -86 -185.5t-215 -68.5q-190 0 -288 164l110 78q63 -109 166 -108q68 0 110 31.5t42 90.5q0 125 -189 125l19 109l172 192v2h-285l33 140h440z" glyph-name="twothirds" horiz-adv-x="1656" unicode="⅔"/><glyph d="M-14 553l26 133h209l103 492l-158 -52l-49 109l278 117h123l-137 -666h190l-24 -133h-561zM223 -25l981 1401h135l-981 -1401h-135zM1169 -25q-117 0 -188.5 60.5t-71.5 152.5q0 143 189 232l4 8q-80 94 -80 166q0 100 81 164.5t193 64.5q104 0 168 -54t64 -146 q0 -137 -152 -220v-8q100 -72 100.5 -176t-89 -174t-218.5 -70zM1284 465q98 72 98 141q0 47 -27.5 73t-70.5 26q-51 0 -84 -29t-33 -78q0 -80 117 -133zM1182 90q61 0 102 36t41 91q0 27 -9 48.5t-34 40t-41 27.5t-55 29q-121 -61 -121 -155q0 -51 34 -84t83 -33z" glyph-name="oneeighth" horiz-adv-x="1622" unicode="⅛"/><glyph d="M674 1204l-180 -190v-4q170 -55 170 -228q0 -117 -86 -185.5t-216 -68.5q-190 0 -288 164l110 78q63 -109 166 -108q68 0 110 31.5t42 90.5q0 125 -189 125l19 109l172 192v2h-285l33 140h440zM291 -25l981 1401h135l-981 -1401h-135zM1186 -25q-117 0 -188.5 60.5 t-71.5 152.5q0 143 188 232l4 8q-80 94 -80 166q0 100 81 164.5t194 64.5q104 0 167.5 -54t63.5 -146q0 -137 -151 -220v-8q100 -72 100 -176t-89 -174t-218 -70zM1300 465q98 72 99 141q0 47 -28 73t-71 26q-51 0 -83.5 -29t-32.5 -78q-1 -80 116 -133zM1198 90 q61 0 102 36t41 91q0 27 -9 48.5t-33.5 40t-41 27.5t-55.5 29q-121 -61 -121 -155q0 -51 34 -84t83 -33z" glyph-name="threeeighths" horiz-adv-x="1640" unicode="⅜"/><glyph d="M373 528q-199 0 -287 144l111 90q61 -100 174 -100q63 0 110 45t47 116q0 61 -34.5 95t-90.5 34q-63 0 -135 -49l-59 60l108 389h443l-53 -140h-285l-49 -165q45 23 94 22q100 0 161.5 -62.5t61.5 -170.5q0 -133 -93 -220.5t-224 -87.5zM291 -25l981 1401h135l-981 -1401 h-135zM1186 -25q-117 0 -188.5 60.5t-71.5 152.5q0 143 188 232l4 8q-80 94 -80 166q0 100 81 164.5t194 64.5q104 0 167.5 -54t63.5 -146q0 -137 -151 -220v-8q100 -72 100 -176t-89 -174t-218 -70zM1300 465q98 72 99 141q0 47 -28 73t-71 26q-51 0 -83.5 -29t-32.5 -78 q-1 -80 116 -133zM1198 90q61 0 102 36t41 91q0 27 -9 48.5t-33.5 40t-41 27.5t-55.5 29q-121 -61 -121 -155q0 -51 34 -84t83 -33z" glyph-name="fiveeighths" horiz-adv-x="1640" unicode="⅝"/><glyph d="M375 553h-178q94 369 362 659h-369l27 140h555l-14 -90q-168 -166 -251 -329t-132 -380zM201 -25l981 1401h135l-981 -1401h-135zM1157 -25q-117 0 -188.5 60.5t-71.5 152.5q0 143 188 232l5 8q-80 94 -80 166q0 100 80.5 164.5t193.5 64.5q104 0 168 -54t64 -146 q0 -137 -152 -220v-8q100 -72 100 -176t-89 -174t-218 -70zM1272 465q98 72 98 141q0 47 -27.5 73t-70.5 26q-51 0 -84 -29t-33 -78q0 -80 117 -133zM1169 90q61 0 102.5 36t41.5 91q0 27 -9.5 48.5t-34 40t-41 27.5t-54.5 29q-121 -61 -121 -155q0 -51 33.5 -84t82.5 -33z " glyph-name="seveneighths" horiz-adv-x="1611" unicode="⅞"/><glyph d="M580 -35l-541 543v10l541 545l104 -119l-350 -342h842v-178h-842l350 -342z" glyph-name="arrowleft" horiz-adv-x="1214" unicode="←"/><glyph d="M518 -55v841l-342 -350l-119 105l545 540h10l543 -540l-117 -105l-342 350v-841h-178z" glyph-name="arrowup" horiz-adv-x="1214" unicode="↑"/><glyph d="M635 -35l-105 117l349 342h-840v178h840l-349 342l105 119l541 -545v-10z" glyph-name="arrowright" horiz-adv-x="1212" unicode="→"/><glyph d="M602 -55l-545 540l119 105l342 -348v839h178v-839l342 348l117 -105l-543 -540h-10z" glyph-name="arrowdown" horiz-adv-x="1214" unicode="↓"/><glyph d="M426 156q102 0 189 95t149 249q-82 168 -232 168q-121 0 -198.5 -103.5t-77.5 -232.5q0 -70 46 -123t124 -53zM451 1139l-93 153q139 76 310 76q188 0 288.5 -115.5t100.5 -322.5q0 -227 -82 -443.5t-238.5 -363t-345.5 -146.5q-141 0 -239.5 90.5t-98.5 239.5 q0 203 134.5 368t338.5 165q184 0 291 -172q29 131 29 243q0 281 -209 281q-96 0 -186 -53z" glyph-name="partialdiff" horiz-adv-x="1110" unicode="∂"/><glyph d="M-29 0l27 131l647 1208h264l150 -1208l-25 -131h-1063zM731 1108l-485 -922h577l-84 922h-8z" glyph-name="uni2206" horiz-adv-x="1208" unicode="∆"/><glyph d="M188 -246v1549h1024v-1549h-221v1356h-583v-1356h-220z" glyph-name="product" horiz-adv-x="1359" unicode="∏"/><glyph d="M70 -246v135l442 662l-420 616v136h885v-185h-621l2 -8l377 -578l-389 -583l2 -8h678v-187h-956z" glyph-name="summation" horiz-adv-x="1021" unicode="∑"/><glyph d="M98 598v158h869v-158h-869z" glyph-name="minus" horiz-adv-x="1011" unicode="−"/><glyph d="M-436 -25l981 1401h135l-981 -1401h-135z" glyph-name="uni2215" horiz-adv-x="182" unicode="∕"/><glyph d="M279 520q-55 0 -88 36t-33 91q0 68 49 122t121 54q53 0 85.5 -35.5t32.5 -93.5q0 -70 -46.5 -122t-120.5 -52z" glyph-name="uni2219" horiz-adv-x="546" unicode="∙"/><glyph d="M414 -184l-123 864l-160 -64l-16 113l325 129l76 -670l10 -143h9l51 143l626 1491h156l-799 -1863h-155z" glyph-name="radical" horiz-adv-x="1128" unicode="√"/><glyph d="M1130 276q-121 0 -214 58.5t-189 185.5h-8q-143 -203 -322 -203q-141 0 -230 100.5t-89 254.5q0 156 94 259t240 103q195 0 342 -205h8q88 117 172 176.5t194 59.5q158 0 263.5 -106.5t105.5 -280.5q0 -172 -105.5 -287t-261.5 -115zM416 479q123 0 235 172 q-125 182 -241 183q-78 0 -123 -47.5t-45 -127.5q0 -76 49 -128t125 -52zM1133 479q90 0 144 60.5t54 152.5q0 94 -57 152.5t-154 58.5q-150 0 -289 -203q78 -111 149 -166t153 -55z" glyph-name="infinity" horiz-adv-x="1568" unicode="∞"/><glyph d="M41 -324q-70 0 -100 15l45 159q23 -8 67 -8q78 0 119 74t74 240q31 154 59.5 487.5t56.5 491.5q23 113 50.5 192.5t72.5 150t115 105.5t164 35q74 0 110 -14l-43 -162q-23 8 -77 8q-76 0 -119 -75t-74 -238q-31 -154 -59.5 -487t-57.5 -490q-47 -238 -135 -361t-268 -123 z" glyph-name="integral" horiz-adv-x="712" unicode="∫"/><glyph d="M690 745q-80 0 -186.5 83t-157.5 83q-84 0 -145 -118l-115 75q111 197 268 197q80 0 186.5 -83t157.5 -83q84 0 146 119l114 -76q-110 -197 -268 -197zM690 291q-80 0 -186.5 83t-157.5 83q-84 0 -145 -119l-115 76q111 197 268 196q80 0 186.5 -83t157.5 -83 q84 0 146 119l114 -76q-110 -196 -268 -196z" glyph-name="approxequal" horiz-adv-x="1011" unicode="≈"/><glyph d="M135 115l154 254h-191v157h273l176 299h-449v158h531l153 254h148l-154 -254h191v-158h-273l-176 -299h449v-157h-531l-153 -254h-148z" glyph-name="notequal" horiz-adv-x="1011" unicode="≠"/><glyph d="M967 315l-873 306v182l873 303v-182l-377 -129l-266 -80v-8l266 -80l377 -127v-185zM98 0v160h869v-160h-869z" glyph-name="lessequal" horiz-adv-x="1011" unicode="≤"/><glyph d="M98 315v185l381 127l264 80v8l-264 80l-381 129v182l873 -303v-182zM98 0v160h869v-160h-869z" glyph-name="greaterequal" horiz-adv-x="1011" unicode="≥"/><glyph d="M66 0l282 1413h379l-22 -121h-216l-256 -1292h-167z" glyph-name="uni231C" horiz-adv-x="636" unicode="⌜"/><glyph d="M197 0l258 1292h-215l24 121h381l-283 -1413h-165z" glyph-name="uni231D" horiz-adv-x="638" unicode="⌝"/><glyph d="M45 -111l283 1414h166l-258 -1293h215l-25 -121h-381z" glyph-name="uni231E" horiz-adv-x="636" unicode="⌞"/><glyph d="M-39 -111l23 121h215l256 1293h168l-283 -1414h-379z" glyph-name="uni231F" horiz-adv-x="638" unicode="⌟"/><glyph d="M127 -123v1630h1630v-1630h-1630z" glyph-name="filledbox" horiz-adv-x="1814" unicode="■"/><glyph d="M135 -123v4l803 1667h8l803 -1667v-4h-1614z" glyph-name="triagup" horiz-adv-x="1814" unicode="▲"/><glyph d="M135 -123v4l803 1667h8l803 -1667v-4h-1614zM399 35h1086l-543 1163z" glyph-name="uni25B3" horiz-adv-x="1814" unicode="△"/><glyph d="M127 -115v1614h4l1667 -803v-8l-1667 -803h-4z" glyph-name="uni25B6" horiz-adv-x="1814" unicode="▶"/><glyph d="M127 -115v1614h4l1667 -803v-8l-1667 -803h-4zM287 150l1167 542l-1167 543v-1085z" glyph-name="uni25B7" horiz-adv-x="1814" unicode="▷"/><glyph d="M1749 1507v-4l-803 -1667h-8l-803 1667v4h1614z" glyph-name="triagdn" horiz-adv-x="1814" unicode="▼"/><glyph d="M1749 1507v-4l-803 -1667h-8l-803 1667v4h1614zM1485 1350h-1086l543 -1164z" glyph-name="uni25BD" horiz-adv-x="1814" unicode="▽"/><glyph d="M1757 1499v-1614h-4l-1667 803v8l1667 803h4z" glyph-name="uni25C0" horiz-adv-x="1814" unicode="◀"/><glyph d="M1757 1499v-1614h-4l-1667 803v8l1667 803h4zM1597 1235l-1167 -543l1167 -542v1085z" glyph-name="uni25C1" horiz-adv-x="1814" unicode="◁"/><glyph d="M942 -164l-856 856l856 856l856 -856z" glyph-name="uni25C6" horiz-adv-x="1814" unicode="◆"/><glyph d="M942 -154q-358 0 -600 233.5t-242 612.5q0 375 243 610.5t599 235.5t599 -235.5t243 -610.5q0 -379 -242 -612.5t-600 -233.5zM942 -6q285 0 481.5 191.5t196.5 506.5q0 313 -196.5 506t-481.5 193t-481.5 -192.5t-196.5 -506.5q0 -315 196.5 -506.5t481.5 -191.5z M942 184q-205 0 -348 143.5t-143 364.5q0 219 143 363.5t348 144.5t348.5 -144.5t143.5 -363.5q0 -223 -143.5 -365.5t-348.5 -142.5z" glyph-name="uni25C9" horiz-adv-x="1814" unicode="◉"/><glyph d="M461 -20l-322 696l322 696h186l324 -696l-324 -696h-186zM551 162h8l225 514l-225 514h-8l-227 -514z" glyph-name="lozenge" horiz-adv-x="1050" unicode="◊"/><glyph d="M143 -20v1280l136 116h1153v-1261l-115 -135h-1174zM242 78h1030v1134h-1030v-1134z" glyph-name="uni2610" horiz-adv-x="1574" unicode="☐"/><glyph d="M1272 78v1018q-322 -387 -539 -854l-217 -25q-45 309 -164 571l160 84q98 -254 129 -485h8q219 455 522 825h-929v-1134h1030zM1581 1645l115 -123q-123 -100 -264 -248v-1159l-115 -135h-1174v1280l136 116h1032q139 154 270 269z" glyph-name="uni2611" horiz-adv-x="1576" unicode="☑"/><glyph d="M260 -53q-84 0 -145.5 42t-61.5 120q0 104 93.5 178.5t226.5 74.5q80 0 119 -24v1083h122q12 -39 34 -61.5t102 -83.5q131 -94 184 -189.5t53 -220.5q0 -137 -80 -276l-76 31q27 78 27 184q0 102 -63.5 186t-171.5 119v-797q0 -174 -101.5 -270t-261.5 -96z" glyph-name="musicalnote" horiz-adv-x="1021" unicode="♪"/><glyph d="M369 -16l-217 -25q-51 336 -183 612l162 84q104 -254 145 -526h9q170 362 423 702t521 572l114 -123q-281 -223 -535.5 -554.5t-438.5 -741.5z" glyph-name="uni2713" horiz-adv-x="1132" unicode="✓"/><glyph d="M127 -123v1497l154 133h1476v-1476l-133 -154h-1497zM242 -10h1335v1337h-1335v-1337z" glyph-name="uni2752" horiz-adv-x="1814" unicode="❒"/><glyph d="M180 569l176 881h381l-22 -121h-215l-152 -760h-168z" glyph-name="uni2E22" horiz-adv-x="636" unicode="⸢"/><glyph d="M311 569l152 760h-215l24 121h381l-176 -881h-166z" glyph-name="uni2E23" horiz-adv-x="638" unicode="⸣"/><glyph d="M4 -311l176 880h166l-151 -759h215l-25 -121h-381z" glyph-name="uni2E24" horiz-adv-x="636" unicode="⸤"/><glyph d="M-80 -311l23 121h217l149 759h168l-176 -880h-381z" glyph-name="uni2E25" horiz-adv-x="638" unicode="⸥"/><glyph d="M119 831l35 175h131l22 116q33 162 121 255t234 93q102 0 198 -51l-74 -155q-53 31 -104 30q-123 0 -156 -166l-24 -122h190l-35 -175h-192l-164 -831h-219l166 831h-129zM670 0l202 1006h220l-201 -1006h-221zM1034 1184q-51 0 -88 30.5t-37 83.5q0 59 43 101.5 t105 42.5q51 0 88 -31t37 -84q0 -61 -43.5 -102t-104.5 -41z" glyph-name="uniFB01" horiz-adv-x="1138" unicode="ﬁ"/><glyph d="M119 831l35 175h131l22 116q33 162 121 255t234 93q102 0 198 -51l-74 -155q-53 31 -104 30q-123 0 -156 -166l-24 -122h190l-35 -175h-192l-164 -831h-219l166 831h-129zM891 0h-219l270 1354l229 63z" glyph-name="uniFB02" horiz-adv-x="1161" unicode="ﬂ"/><glyph glyph-name="uniFEFF" unicode="﻿"/><glyph d="M629 -25q-244 0 -378 146.5t-134 404.5q0 344 203.5 591t519.5 247q211 0 354 -137l-152 -158q-76 104 -215 105q-209 0 -347 -194t-138 -437q0 -379 324 -379q109 0 186 63l82 406l215 90l-121 -610q-168 -138 -399 -138zM999 1434q-49 0 -91 20.5t-65.5 46t-52 46 t-55.5 20.5q-74 0 -108 -119l-150 12q29 135 102.5 204t178.5 69q61 0 110.5 -33t86 -65.5t67.5 -32.5q70 0 108 118l150 -12q-29 -135 -104 -204.5t-177 -69.5z" glyph-name="G_tildecomb.ccmp" horiz-adv-x="1228"/><glyph d="M348 -446q-195 0 -362 139l98 147q131 -111 270 -110q223 0 287 254l51 194q-154 -158 -327 -158q-133 0 -213 91.5t-80 263.5q0 268 159.5 461.5t368.5 193.5q74 0 134.5 -38t92.5 -103h7l26 117h195l-205 -1020q-43 -213 -171 -322.5t-331 -109.5zM444.5 203 q145.5 0 260.5 151l75 373q-66 123 -168 123q-123 0 -218 -134t-95 -313q0 -200 145.5 -200zM821 1178q-59 0 -104 37.5t-81 76.5t-75 39q-78 0 -106 -139l-150 8q55 295 268 295q59 0 104.5 -38t82.5 -76t74 -38q82 0 106 138l150 -8q-56 -295 -269 -295z" glyph-name="g_tildecomb.ccmp" horiz-adv-x="1101"/><glyph d="M82 -426q-76 0 -120 37t-44 106q0 84 58.5 160t127.5 123h-59l203 1006h219l-201 -1006q-184 -94 -184 -221q0 -31 20.5 -49.5t53.5 -18.5q35 0 69 23l41 -99q-90 -61 -184 -61z" glyph-name="glyph683" horiz-adv-x="514"/><glyph d="M-14 0l39 186h149l197 967h-154l39 186h526l-39 -186h-151l-197 -967h158l-39 -186h-528z" glyph-name="I.aalt" horiz-adv-x="706"/><glyph d="M-14 0l39 186h149l197 967h-154l39 186h526l-39 -186h-151l-197 -967h158l-39 -186h-528zM575 1401l-305 268l154 139l276 -299z" glyph-name="Igrave.aalt" horiz-adv-x="706"/><glyph d="M-14 0l39 186h149l197 967h-154l39 186h526l-39 -186h-151l-197 -967h158l-39 -186h-528zM471 1421l-86 127l369 246l102 -164z" glyph-name="Iacute.aalt" horiz-adv-x="706"/><glyph d="M-14 0l39 186h149l197 967h-154l39 186h526l-39 -186h-151l-197 -967h158l-39 -186h-528zM293 1417l-92 74l239 221h254l158 -227l-111 -66l-180 180h-8z" glyph-name="Icircumflex.aalt" horiz-adv-x="706"/><glyph d="M-14 0l39 186h149l197 967h-154l39 186h526l-39 -186h-151l-197 -967h158l-39 -186h-528zM662 1434q-49 0 -91.5 20.5t-66 46t-52 46t-55.5 20.5q-74 0 -108 -119l-150 12q29 135 102.5 204t178.5 69q61 0 110.5 -33t86 -65.5t67.5 -32.5q70 0 109 118l149 -12 q-29 -135 -103.5 -204.5t-176.5 -69.5z" glyph-name="Itilde.aalt" horiz-adv-x="706"/><glyph d="M-14 0l39 186h149l197 967h-154l39 186h526l-39 -186h-151l-197 -967h158l-39 -186h-528zM322 1450q-45 0 -73 26.5t-28 73.5q0 51 37 92t90 41q43 0 72 -26.5t29 -73.5q0 -51 -37 -92t-90 -41zM727 1450q-45 0 -72.5 26.5t-27.5 73.5q0 51 36.5 92t90.5 41 q43 0 71.5 -26.5t28.5 -73.5q0 -51 -37 -92t-90 -41z" glyph-name="Idieresis.aalt" horiz-adv-x="706"/><glyph d="M-14 0l39 186h149l197 967h-154l39 186h526l-39 -186h-151l-197 -967h158l-39 -186h-528zM242 1483l28 147h557l-28 -147h-557z" glyph-name="Imacron.aalt" horiz-adv-x="706"/><glyph d="M-14 0l39 186h149l197 967h-154l39 186h526l-39 -186h-151l-197 -967h158l-39 -186h-528zM528 1452q-53 0 -90 30.5t-37 84.5q0 59 44 101t104 42q51 0 89 -31.5t38 -85.5q0 -61 -43.5 -101t-104.5 -40z" glyph-name="Idotaccent.aalt" horiz-adv-x="706"/><glyph d="M-14 0l39 186h149l197 967h-154l39 186h526l-39 -186h-151l-197 -967h158l-39 -186h-528zM381 1442l-156 229l109 66l180 -181h8l260 181l92 -74l-239 -221h-254z" glyph-name="uni01CF.aalt" horiz-adv-x="706"/><glyph d="M-14 0l39 186h149l197 967h-154l39 186h526l-39 -186h-151l-197 -967h158l-39 -186h-528zM420 1421l-2 101q109 25 117 75q6 35 -30 54.5t-122 23.5l51 125q315 -8 281 -176q-35 -172 -295 -203z" glyph-name="uni1EC8.aalt" horiz-adv-x="706"/><glyph d="M-14 0l39 186h149l197 967h-154l39 186h526l-39 -186h-151l-197 -967h158l-39 -186h-528zM188 -444q-51 0 -89 30.5t-38 83.5q0 59 44.5 101.5t103.5 42.5q51 0 89 -31t38 -84q0 -61 -43.5 -102t-104.5 -41z" glyph-name="uni1ECA.aalt" horiz-adv-x="706"/><glyph d="M172 -442q-80 0 -127 37.5t-47 109.5q0 152 190 295h-202l39 186h149l197 967h-154l39 186h526l-39 -186h-151l-197 -967h158l-39 -186h-154q-84 -41 -134 -105.5t-50 -119.5q0 -35 20.5 -53.5t51.5 -18.5t63 21l45 -109q-82 -57 -184 -57z" glyph-name="Iogonek.aalt" horiz-adv-x="706"/><glyph d="M358 -25q-135 0 -210.5 95.5t-75.5 271.5q0 283 163.5 485.5t376.5 202.5q156 0 232 -141h4l26 117h193l-201 -1006h-202l32 139h-6q-131 -164 -332 -164zM449 156q133 0 258 139l92 450q-78 104 -174 105q-129 0 -227.5 -142.5t-98.5 -334.5q0 -217 150 -217z" glyph-name="a.ss02" horiz-adv-x="1030"/><glyph d="M358 -25q-135 0 -210.5 95.5t-75.5 271.5q0 283 163.5 485.5t376.5 202.5q156 0 232 -141h4l26 117h193l-201 -1006h-202l32 139h-6q-131 -164 -332 -164zM449 156q133 0 258 139l92 450q-78 104 -174 105q-129 0 -227.5 -142.5t-98.5 -334.5q0 -217 150 -217zM702 1165 l-292 344l188 142l240 -379z" glyph-name="agrave.aalt" horiz-adv-x="1030"/><glyph d="M358 -25q-135 0 -210.5 95.5t-75.5 271.5q0 283 163.5 485.5t376.5 202.5q156 0 232 -141h4l26 117h193l-201 -1006h-202l32 139h-6q-131 -164 -332 -164zM449 156q133 0 258 139l92 450q-78 104 -174 105q-129 0 -227.5 -142.5t-98.5 -334.5q0 -217 150 -217zM586 1186 l-99 125l363 327l133 -170z" glyph-name="aacute.aalt" horiz-adv-x="1030"/><glyph d="M358 -25q-135 0 -210.5 95.5t-75.5 271.5q0 283 163.5 485.5t376.5 202.5q156 0 232 -141h4l26 117h193l-201 -1006h-202l32 139h-6q-131 -164 -332 -164zM449 156q133 0 258 139l92 450q-78 104 -174 105q-129 0 -227.5 -142.5t-98.5 -334.5q0 -217 150 -217zM381 1155 l-80 92l274 273h240l178 -279l-102 -86l-205 217h-8z" glyph-name="acircumflex.aalt" horiz-adv-x="1030"/><glyph d="M358 -25q-135 0 -210.5 95.5t-75.5 271.5q0 283 163.5 485.5t376.5 202.5q156 0 232 -141h4l26 117h193l-201 -1006h-202l32 139h-6q-131 -164 -332 -164zM449 156q133 0 258 139l92 450q-78 104 -174 105q-129 0 -227.5 -142.5t-98.5 -334.5q0 -217 150 -217zM793 1178 q-59 0 -104.5 37.5t-81.5 76.5t-75 39q-78 0 -106 -139l-150 8q55 295 269 295q59 0 104 -38t82 -76t74 -38q82 0 106 138l150 -8q-55 -295 -268 -295z" glyph-name="atilde.aalt" horiz-adv-x="1030"/></font>
</defs>
</svg>
