<?xml version="1.0" encoding="iso-8859-1"?>
<!-- Generator: Adobe Illustrator 21.0.2, SVG Export Plug-In . SVG Version: 6.00 Build 0)  -->
<svg version="1.1" id="Layer_1" xmlns="http://www.w3.org/2000/svg" xmlns:xlink="http://www.w3.org/1999/xlink" x="0px" y="0px"
	 viewBox="0 0 256.538 214.167" style="enable-background:new 0 0 256.538 214.167;" xml:space="preserve">
<path style="fill:#ED1C24;" d="M256.088,90.677l-11.568,5.522v-5.522L256.088,90.677z M230.443,114.364v12.428l26.095-12.427
	L230.443,114.364z M244.521,102.149v5.377l7.546-5.371L244.521,102.149z M27.459,0.528L0,14.642v199.525l27.459-13.535
	C27.459,200.631,26.442,1.545,27.459,0.528z M94.26,137.776l-2.522,10.279h5.186l-2.476-10.279H94.26z M70.941,46.289
	c0-1.869-1.215-2.616-3.831-2.616H64.4v5.7h2.71C69.727,49.373,70.941,48.158,70.941,46.289z M72.343,58.344
	c0-2.243-1.495-3.084-4.672-3.084H64.4v6.448h3.271C70.801,61.708,72.343,60.587,72.343,58.344z M180.558,44.934l-2.522,10.279
	h5.186l-2.477-10.279H180.558z M230.442,114.297v85.807H30.098V0h200.344v83.927h-8.954c-4.953,13.736-5.42,14.718-5.98,16.54
	h-0.188l-6.167-16.54h-8.971v30.37h7.568l0.047-16.633h0.188l5.093,14.157h4.298l5.233-14.204h0.187v16.68H230.442z M144.394,67.875
	h20.091v-6.728H152.43v-5.42h7.569V49.7h-7.569v-5.467h11.587v-6.728h-19.623V67.875z M160.372,83.927v30.37h8.036v-30.37H160.372z
	 M115.425,67.875h8.036V57.69h3.084l5.232,10.186h8.971l-6.588-11.774c2.99-1.635,4.906-4.439,4.906-8.784
	c0-7.616-5.607-9.812-12.148-9.812h-11.493V67.875z M84.305,53.204c0,10.419,4.065,15.231,12.615,15.231
	c8.457,0,12.429-4.812,12.429-15.231V37.505h-7.756v16.633c0,5.42-1.495,7.382-4.673,7.382c-3.177,0-4.578-1.962-4.578-7.382V37.505
	h-8.037V53.204z M89.258,83.927v30.37h8.036v-30.37H89.258z M56.364,67.875h11.867c6.541,0,11.961-2.71,11.961-8.971
	c0-4.065-2.289-6.214-5.232-7.102v-0.187c2.336-0.841,3.831-3.972,3.831-6.542c0-5.98-5.14-7.569-11.494-7.569H56.364V67.875z
	 M78.654,153.989H66.133l11.681-18.782v-4.859H56.694v6.728h11.214l-11.681,18.783v4.859h20.106L78.654,153.989z M108.557,160.717
	l-9.157-30.37H89.308l-9.251,30.37h8.597l1.589-6.495h8.223l1.589,6.495H108.557z M111.406,97.103l8.597,17.194h8.223v-30.37h-7.662
	v17.287h-0.187l-8.598-17.287h-8.223v30.37h7.662V97.103H111.406z M137.854,160.717l-10.839-18.035l9.063-12.335h-8.783
	l-7.663,11.307h-0.187v-11.307h-8.036v30.37h8.036v-7.569l2.896-4.112l6.729,11.681H137.854z M140.281,90.655v23.642h8.037V90.655
	h8.036v-6.728h-24.109v6.728H140.281z M160.375,153.989H148.32v-5.42h7.569v-6.027h-7.569v-5.467h11.587v-6.728h-19.623v30.37
	h20.091V153.989z M190.465,130.348h-7.662v17.287h-0.188l-8.597-17.287h-8.223v30.37h7.662v-17.194h0.187l8.598,17.194h8.223
	V130.348z M194.761,107.568h-12.055v-5.42h7.569v-6.027h-7.569v-5.467h11.587v-6.728H174.67v30.37h20.091V107.568z M194.854,67.875
	l-9.157-30.37h-10.092l-9.251,30.37h8.597l1.589-6.495h8.223l1.589,6.495H194.854z M197.052,53.204
	c0,10.419,4.065,15.231,12.615,15.231c8.457,0,12.429-4.812,12.429-15.231V37.505h-7.756v16.633c0,5.42-1.495,7.382-4.673,7.382
	c-3.177,0-4.579-1.962-4.579-7.382V37.505h-8.036V53.204z M131.217,47.598c0-2.29-1.682-3.458-4.859-3.458h-2.896v7.476h2.896
	C129.581,51.616,131.217,50.261,131.217,47.598z M236.594,83.834l-6.125,4.021l-0.047,26.526h6.125L236.594,83.834z"/>
</svg>
